<svg width="36" height="22" viewBox="0 0 36 22" fill="none" xmlns="http://www.w3.org/2000/svg">
<path d="M29.8225 1.66389C30.814 1.45695 33.5074 1.13175 34.2622 1.75258C34.7061 2.11777 34.2622 4.0585 33.2854 6.40877C33.241 6.58615 33.2499 6.89656 33.6406 6.71918C34.129 6.49746 36.1268 3.92547 35.9936 0.732649C35.9048 0.37789 35.5791 0.265921 35.5053 0.244857C34.2622 -0.109901 31.7315 -0.28728 29.6893 1.22044C29.5472 1.50425 29.7189 1.63432 29.8225 1.66389Z" fill="white"/>
<path d="M2.03003 0.821338C1.97083 0.673522 1.95899 0.377891 2.3852 0.377891C7.62404 3.57071 18.5013 8.53731 32.4863 2.41775C33.2854 2.24037 33.3782 3.07255 32.9303 3.39333C21.1651 11.8188 7.66843 7.11828 2.03003 0.821338Z" fill="white"/>
<path d="M7.01855 15.3669C7.01855 15.917 6.95182 16.4183 6.81836 16.8708C6.68815 17.3233 6.49284 17.7106 6.23242 18.0329C5.97201 18.3552 5.64811 18.6042 5.26074 18.78C4.87663 18.9557 4.43229 19.0436 3.92773 19.0436C3.39714 19.0436 2.93652 18.9557 2.5459 18.78C2.15853 18.6042 1.83626 18.3552 1.5791 18.0329C1.3252 17.7106 1.13639 17.3233 1.0127 16.8708C0.888997 16.4151 0.827148 15.9105 0.827148 15.3571C0.827148 14.8037 0.888997 14.3024 1.0127 13.8532C1.13639 13.4007 1.32682 13.015 1.58398 12.696C1.84115 12.377 2.16504 12.1312 2.55566 11.9587C2.94629 11.7829 3.4069 11.695 3.9375 11.695C4.44206 11.695 4.88477 11.7829 5.26562 11.9587C5.64974 12.1312 5.97201 12.3786 6.23242 12.7009C6.49284 13.0199 6.68815 13.4056 6.81836 13.8581C6.95182 14.3073 7.01855 14.8102 7.01855 15.3669ZM1.78906 15.3669C1.78906 15.8128 1.83138 16.2149 1.91602 16.5729C2.00065 16.9278 2.12923 17.2305 2.30176 17.4811C2.47754 17.7285 2.69889 17.919 2.96582 18.0524C3.236 18.1826 3.55664 18.2477 3.92773 18.2477C4.29883 18.2477 4.61784 18.1826 4.88477 18.0524C5.15495 17.919 5.3763 17.7285 5.54883 17.4811C5.72461 17.2305 5.85319 16.9278 5.93457 16.5729C6.01595 16.2149 6.05664 15.8128 6.05664 15.3669C6.05664 14.9177 6.01595 14.5156 5.93457 14.1608C5.85319 13.806 5.72624 13.5065 5.55371 13.2624C5.38118 13.015 5.16146 12.8262 4.89453 12.696C4.6276 12.5625 4.30859 12.4958 3.9375 12.4958C3.56641 12.4958 3.24577 12.5625 2.97559 12.696C2.7054 12.8262 2.48242 13.015 2.30664 13.2624C2.13086 13.5065 2.00065 13.806 1.91602 14.1608C1.83138 14.5156 1.78906 14.9177 1.78906 15.3669ZM10.8076 13.487C10.902 13.487 11.0078 13.4919 11.125 13.5016C11.2422 13.5082 11.3431 13.5196 11.4277 13.5358L11.3105 14.3561C11.2194 14.3399 11.125 14.3268 11.0273 14.3171C10.9329 14.3041 10.8434 14.2975 10.7588 14.2975C10.5537 14.2975 10.3665 14.3399 10.1973 14.4245C10.028 14.5059 9.88151 14.6247 9.75781 14.7809C9.63737 14.9339 9.54297 15.1195 9.47461 15.3376C9.40951 15.5524 9.37695 15.7917 9.37695 16.0554V18.946H8.48828V13.5847H9.21094L9.31836 14.5661H9.35742C9.4388 14.4261 9.52507 14.291 9.61621 14.1608C9.71061 14.0306 9.81478 13.9167 9.92871 13.819C10.0459 13.7181 10.1761 13.6384 10.3193 13.5798C10.4626 13.5179 10.6253 13.487 10.8076 13.487ZM13.3711 18.946H12.4824V13.5847H13.3711V18.946ZM12.4141 12.1345C12.4141 11.9391 12.4629 11.7975 12.5605 11.7097C12.6615 11.6218 12.7852 11.5778 12.9316 11.5778C13.0033 11.5778 13.07 11.5892 13.1318 11.612C13.1969 11.6315 13.2523 11.6641 13.2979 11.7097C13.3467 11.7552 13.3841 11.8138 13.4102 11.8854C13.4395 11.9538 13.4541 12.0368 13.4541 12.1345C13.4541 12.3233 13.402 12.4649 13.2979 12.5593C13.1969 12.6504 13.0749 12.696 12.9316 12.696C12.7852 12.696 12.6615 12.6504 12.5605 12.5593C12.4629 12.4681 12.4141 12.3265 12.4141 12.1345ZM19.2012 13.5847V14.1364L18.2393 14.2682C18.3304 14.3822 18.4069 14.5287 18.4688 14.7077C18.5306 14.8835 18.5615 15.0837 18.5615 15.3083C18.5615 15.5557 18.5225 15.7852 18.4443 15.9968C18.3695 16.2051 18.2539 16.3858 18.0977 16.5388C17.9447 16.6918 17.7542 16.8122 17.5264 16.9001C17.2985 16.9847 17.0332 17.027 16.7305 17.027C16.6589 17.027 16.5872 17.027 16.5156 17.027C16.444 17.0238 16.3854 17.0173 16.3398 17.0075C16.2845 17.0401 16.2292 17.0775 16.1738 17.1198C16.1217 17.1589 16.0729 17.2044 16.0273 17.2565C15.985 17.3086 15.9492 17.3672 15.9199 17.4323C15.8939 17.4974 15.8809 17.569 15.8809 17.6472C15.8809 17.735 15.9004 17.8067 15.9395 17.862C15.9785 17.9141 16.0306 17.9548 16.0957 17.9841C16.1641 18.0134 16.2438 18.0329 16.335 18.0427C16.4261 18.0524 16.5221 18.0573 16.623 18.0573H17.4824C17.7852 18.0573 18.0407 18.0964 18.249 18.1745C18.4574 18.2494 18.6266 18.3519 18.7568 18.4821C18.8903 18.6123 18.9863 18.7669 19.0449 18.946C19.1035 19.1218 19.1328 19.3089 19.1328 19.5075C19.1328 19.794 19.0791 20.0511 18.9717 20.279C18.8675 20.5069 18.7064 20.6989 18.4883 20.8552C18.2702 21.0147 17.9935 21.1367 17.6582 21.2214C17.3262 21.306 16.9339 21.3483 16.4814 21.3483C16.1331 21.3483 15.8288 21.3141 15.5684 21.2458C15.3079 21.1774 15.0915 21.0781 14.9189 20.9479C14.7464 20.8177 14.6162 20.6599 14.5283 20.4743C14.4437 20.292 14.4014 20.0853 14.4014 19.8542C14.4014 19.6589 14.4323 19.4863 14.4941 19.3366C14.5592 19.1901 14.6455 19.0632 14.7529 18.9557C14.8604 18.8483 14.984 18.7604 15.124 18.6921C15.2673 18.6237 15.4154 18.5716 15.5684 18.5358C15.4316 18.474 15.3193 18.3763 15.2314 18.2429C15.1436 18.1094 15.0996 17.9564 15.0996 17.7839C15.0996 17.5853 15.1517 17.4144 15.2559 17.2712C15.36 17.1247 15.5244 16.9831 15.749 16.8464C15.609 16.7878 15.4805 16.708 15.3633 16.6071C15.2493 16.503 15.1517 16.3858 15.0703 16.2556C14.9922 16.1221 14.9303 15.9772 14.8848 15.821C14.8424 15.6647 14.8213 15.5036 14.8213 15.3376C14.8213 15.0479 14.862 14.7891 14.9434 14.5612C15.0247 14.3334 15.1452 14.1397 15.3047 13.9802C15.4642 13.8207 15.6628 13.6986 15.9004 13.614C16.138 13.5293 16.4147 13.487 16.7305 13.487C16.8509 13.487 16.9746 13.4968 17.1016 13.5163C17.2318 13.5326 17.3408 13.5554 17.4287 13.5847H19.2012ZM15.2412 19.8249C15.2412 19.9453 15.2624 20.0576 15.3047 20.1618C15.347 20.266 15.4154 20.3555 15.5098 20.4304C15.6074 20.5052 15.7344 20.5638 15.8906 20.6061C16.0501 20.6517 16.2471 20.6745 16.4814 20.6745C17.0869 20.6745 17.5394 20.5801 17.8389 20.3913C18.1416 20.2057 18.293 19.9372 18.293 19.5856C18.293 19.4359 18.2734 19.3138 18.2344 19.2194C18.1953 19.125 18.1302 19.0502 18.0391 18.9948C17.9512 18.9427 17.834 18.9069 17.6875 18.8874C17.541 18.8679 17.362 18.8581 17.1504 18.8581H16.291C16.1771 18.8581 16.0583 18.8711 15.9346 18.8972C15.8109 18.9232 15.6969 18.972 15.5928 19.0436C15.4919 19.1153 15.4072 19.2129 15.3389 19.3366C15.2738 19.4636 15.2412 19.6263 15.2412 19.8249ZM15.6904 15.3083C15.6904 15.6826 15.7783 15.961 15.9541 16.1432C16.1299 16.3255 16.3789 16.4167 16.7012 16.4167C17.0267 16.4167 17.2725 16.3272 17.4385 16.1481C17.6077 15.9658 17.6924 15.681 17.6924 15.2936C17.6924 14.8932 17.6061 14.5987 17.4336 14.4099C17.2643 14.221 17.0169 14.1266 16.6914 14.1266C16.3691 14.1266 16.1217 14.2243 15.9492 14.4196C15.7767 14.6149 15.6904 14.9112 15.6904 15.3083ZM21.1445 18.946H20.2559V13.5847H21.1445V18.946ZM20.1875 12.1345C20.1875 11.9391 20.2363 11.7975 20.334 11.7097C20.4349 11.6218 20.5586 11.5778 20.7051 11.5778C20.7767 11.5778 20.8434 11.5892 20.9053 11.612C20.9704 11.6315 21.0257 11.6641 21.0713 11.7097C21.1201 11.7552 21.1576 11.8138 21.1836 11.8854C21.2129 11.9538 21.2275 12.0368 21.2275 12.1345C21.2275 12.3233 21.1755 12.4649 21.0713 12.5593C20.9704 12.6504 20.8483 12.696 20.7051 12.696C20.5586 12.696 20.4349 12.6504 20.334 12.5593C20.2363 12.4681 20.1875 12.3265 20.1875 12.1345ZM26.1934 18.946V15.4938C26.1934 15.0707 26.1071 14.7533 25.9346 14.5417C25.7653 14.3301 25.4984 14.2243 25.1338 14.2243C24.8701 14.2243 24.6488 14.2666 24.4697 14.3513C24.2907 14.4359 24.1458 14.5612 24.0352 14.7272C23.9277 14.8932 23.8496 15.0967 23.8008 15.3376C23.7552 15.5785 23.7324 15.8552 23.7324 16.1677V18.946H22.8438V13.5847H23.5664L23.6934 14.3073H23.7422C23.8236 14.1673 23.9196 14.0469 24.0303 13.946C24.1442 13.8418 24.2679 13.7556 24.4014 13.6872C24.5348 13.6188 24.6764 13.5684 24.8262 13.5358C24.9759 13.5033 25.1289 13.487 25.2852 13.487C25.8809 13.487 26.3285 13.6432 26.6279 13.9557C26.9307 14.265 27.082 14.7614 27.082 15.445V18.946H26.1934ZM31.7549 18.946L31.5742 18.2038H31.5352C31.4277 18.3503 31.3203 18.4772 31.2129 18.5847C31.1055 18.6888 30.9883 18.7751 30.8613 18.8434C30.7344 18.9118 30.5928 18.9623 30.4365 18.9948C30.2803 19.0274 30.0996 19.0436 29.8945 19.0436C29.6699 19.0436 29.4632 19.0111 29.2744 18.946C29.0856 18.8841 28.9212 18.7881 28.7812 18.6579C28.6445 18.5244 28.5371 18.3584 28.459 18.1599C28.3809 17.958 28.3418 17.7204 28.3418 17.447C28.3418 16.9131 28.529 16.503 28.9033 16.2165C29.2809 15.93 29.8538 15.7738 30.6221 15.7477L31.5205 15.7136V15.3766C31.5205 15.1585 31.4961 14.9763 31.4473 14.8298C31.4017 14.6833 31.3333 14.5661 31.2422 14.4782C31.1543 14.3871 31.0436 14.322 30.9102 14.2829C30.7799 14.2438 30.6302 14.2243 30.4609 14.2243C30.1908 14.2243 29.9385 14.2634 29.7041 14.3415C29.473 14.4196 29.25 14.514 29.0352 14.6247L28.7227 13.9557C28.9635 13.8255 29.2321 13.7149 29.5283 13.6237C29.8245 13.5326 30.1354 13.487 30.4609 13.487C30.793 13.487 31.0794 13.5212 31.3203 13.5895C31.5645 13.6546 31.7646 13.7604 31.9209 13.9069C32.0804 14.0502 32.1992 14.2341 32.2773 14.4587C32.3555 14.6833 32.3945 14.9551 32.3945 15.2741V18.946H31.7549ZM30.124 18.3259C30.3226 18.3259 30.5065 18.2949 30.6758 18.2331C30.8451 18.1712 30.9915 18.0785 31.1152 17.9548C31.2389 17.8278 31.335 17.6699 31.4033 17.4811C31.4749 17.2891 31.5107 17.0645 31.5107 16.8073V16.3239L30.8125 16.3581C30.5195 16.3711 30.2738 16.4037 30.0752 16.4557C29.8766 16.5078 29.7171 16.5811 29.5967 16.6755C29.4795 16.7666 29.3949 16.8789 29.3428 17.0124C29.2907 17.1426 29.2646 17.2907 29.2646 17.4567C29.2646 17.7562 29.3428 17.9759 29.499 18.1159C29.6585 18.2559 29.8669 18.3259 30.124 18.3259ZM34.9336 18.946H34.0449V11.3483H34.9336V18.946Z" fill="white"/>
</svg>
