<svg width="20" height="18" viewBox="0 0 20 18" fill="none" xmlns="http://www.w3.org/2000/svg">
<path d="M2 14H4.697L10.445 17.832C10.5958 17.9321 10.7708 17.9896 10.9516 17.9984C11.1324 18.0072 11.3122 17.967 11.472 17.882C11.6316 17.7965 11.765 17.6694 11.858 17.514C11.951 17.3587 12.0001 17.181 12 17V15.121L10 13.121V15.132L5.555 12.168C5.53 12.151 5.499 12.148 5.473 12.135C5.35491 12.0707 5.22491 12.0312 5.091 12.019C5.059 12.016 5.032 12 5 12H2V6H2.879L1.102 4.223C0.771889 4.38824 0.4941 4.64183 0.299543 4.95556C0.104986 5.26929 0.00129227 5.63084 0 6V12C0 13.103 0.897 14 2 14Z" fill="white"/>
<path d="M1.102 4.223L2.879 6L5.473 5.887L3.66252 4.07652L1.102 4.223Z" fill="white"/>
<path d="M10 13.121L12 15.121V12.414L10 10.414V13.121Z" fill="white"/>
<path d="M12 9.586V1C11.9999 0.819116 11.9508 0.641644 11.8578 0.486486C11.7648 0.331329 11.6315 0.204296 11.472 0.118919C11.3125 0.0335411 11.1329 -0.00698427 10.9522 0.00165892C10.7715 0.0103021 10.5966 0.06779 10.446 0.168L5.727 3.313L5 4L3.66252 4.07652L5.473 5.887L7.169 4.755L10 2.868V7.586V10.414L12 12.414V9.586Z" fill="white"/>
<path d="M15.042 12.628C15.644 11.536 16 10.19 16 9C16 7.229 15.225 5.1 14 4V11.586L14.086 14.5L15.042 12.628Z" fill="white"/>
<path d="M17.684 15.27C19 13.5 20.0063 11.3004 19.999 9C19.999 4.909 17.527 1.547 14 0V2C16.387 3.386 17.999 6.047 17.999 9C17.9946 10.7766 17.4072 12.5026 16.327 13.913L14.086 16V17.9984L16 17L17.684 15.27Z" fill="white"/>
</svg>
