<svg width="20" height="20" viewBox="0 0 20 20" fill="none" xmlns="http://www.w3.org/2000/svg">
<path d="M19.707 18.293L17.684 16.27C19.1845 14.5263 20.0063 12.3003 19.999 9.99997C19.999 5.90897 17.527 2.54697 14 0.999969V2.99997C16.387 4.38597 17.999 7.04697 17.999 9.99997C17.9946 11.7765 17.4072 13.5025 16.327 14.913L15.042 13.628C15.644 12.536 16 11.19 16 9.99997C16 8.22897 15.225 6.09997 14 4.99997V12.586L12 10.586V1.99997C11.9999 1.81908 11.9508 1.64161 11.8578 1.48645C11.7648 1.3313 11.6315 1.20427 11.472 1.11889C11.3125 1.03351 11.1329 0.992984 10.9522 1.00163C10.7715 1.01027 10.5966 1.06776 10.446 1.16797L5.727 4.31297L1.707 0.292969L0.293 1.70697L18.293 19.707L19.707 18.293ZM10 3.86797V8.58597L7.169 5.75497L10 3.86797ZM2 15H4.697L10.445 18.832C10.5958 18.9321 10.7708 18.9896 10.9516 18.9984C11.1324 19.0072 11.3122 18.967 11.472 18.882C11.6316 18.7965 11.765 18.6693 11.858 18.514C11.951 18.3587 12.0001 18.181 12 18V16.121L10 14.121V16.132L5.555 13.168C5.53 13.151 5.499 13.148 5.473 13.135C5.35491 13.0707 5.22491 13.0312 5.091 13.019C5.059 13.016 5.032 13 5 13H2V6.99997H2.879L1.102 5.22297C0.771889 5.38821 0.4941 5.6418 0.299543 5.95553C0.104986 6.26926 0.00129227 6.63081 0 6.99997V13C0 14.103 0.897 15 2 15Z" fill="white"/>
</svg>
