<svg width="29" height="29" viewBox="0 0 29 29" fill="none" xmlns="http://www.w3.org/2000/svg">
<path d="M27.75 0H1.15625C0.516699 0 0 0.516699 0 1.15625V27.75C0 28.3896 0.516699 28.9062 1.15625 28.9062H27.75C28.3896 28.9062 28.9062 28.3896 28.9062 27.75V1.15625C28.9062 0.516699 28.3896 0 27.75 0ZM24.4113 8.43701H22.1024C20.2922 8.43701 19.9417 9.29697 19.9417 10.5616V13.3475H24.2632L23.6995 17.7087H19.9417V28.9062H15.4359V17.7123H11.6673V13.3475H15.4359V10.1316C15.4359 6.39912 17.7159 4.36484 21.0474 4.36484C22.6444 4.36484 24.0139 4.48408 24.4149 4.53828V8.43701H24.4113Z" fill="#ACE9FF"/>
</svg>
