<svg width="30" height="30" viewBox="0 0 30 30" fill="none" xmlns="http://www.w3.org/2000/svg">
<path d="M14.83 9.88704C12.1062 9.88704 9.88333 12.1099 9.88333 14.8337C9.88333 17.5575 12.1062 19.7804 14.83 19.7804C17.5538 19.7804 19.7767 17.5575 19.7767 14.8337C19.7767 12.1099 17.5538 9.88704 14.83 9.88704ZM29.6663 14.8337C29.6663 12.7853 29.6849 10.7554 29.5699 8.71067C29.4548 6.33567 28.913 4.22786 27.1763 2.49114C25.4359 0.750713 23.3318 0.212627 20.9568 0.0975881C18.9083 -0.0174509 16.8784 0.0011038 14.8337 0.0011038C12.7853 0.0011038 10.7554 -0.0174509 8.71068 0.0975881C6.33568 0.212627 4.22786 0.754424 2.49114 2.49114C0.750713 4.23157 0.212627 6.33567 0.0975881 8.71067C-0.0174509 10.7591 0.0011038 12.789 0.0011038 14.8337C0.0011038 16.8784 -0.0174509 18.912 0.0975881 20.9568C0.212627 23.3318 0.754424 25.4396 2.49114 27.1763C4.23157 28.9167 6.33568 29.4548 8.71068 29.5699C10.7591 29.6849 12.789 29.6663 14.8337 29.6663C16.8822 29.6663 18.912 29.6849 20.9568 29.5699C23.3318 29.4548 25.4396 28.913 27.1763 27.1763C28.9167 25.4359 29.4548 23.3318 29.5699 20.9568C29.6886 18.912 29.6663 16.8822 29.6663 14.8337V14.8337ZM14.83 22.4449C10.6181 22.4449 7.21888 19.0456 7.21888 14.8337C7.21888 10.6218 10.6181 7.22259 14.83 7.22259C19.0419 7.22259 22.4411 10.6218 22.4411 14.8337C22.4411 19.0456 19.0419 22.4449 14.83 22.4449ZM22.7529 8.68841C21.7695 8.68841 20.9753 7.89427 20.9753 6.91087C20.9753 5.92747 21.7695 5.13333 22.7529 5.13333C23.7363 5.13333 24.5304 5.92747 24.5304 6.91087C24.5307 7.14438 24.4849 7.37566 24.3957 7.59145C24.3065 7.80724 24.1755 8.00331 24.0104 8.16843C23.8453 8.33355 23.6492 8.46447 23.4334 8.5537C23.2177 8.64292 22.9864 8.6887 22.7529 8.68841V8.68841Z" fill="white"/>
</svg>
