<svg width="34" height="34" viewBox="0 0 34 34" fill="none" xmlns="http://www.w3.org/2000/svg">
<path d="M16.625 0C7.44414 0 0 7.44414 0 16.625C0 25.8059 7.44414 33.25 16.625 33.25C25.8059 33.25 33.25 25.8059 33.25 16.625C33.25 7.44414 25.8059 0 16.625 0ZM24.6146 12.5318C24.6258 12.7063 24.6258 12.8881 24.6258 13.0662C24.6258 18.5139 20.477 24.7891 12.8955 24.7891C10.5576 24.7891 8.39043 24.11 6.56465 22.941C6.89863 22.9781 7.21777 22.993 7.55918 22.993C9.48887 22.993 11.2627 22.3398 12.6766 21.234C10.8656 21.1969 9.34414 20.0094 8.82461 18.3766C9.45918 18.4693 10.0307 18.4693 10.6838 18.3023C9.75133 18.1129 8.91321 17.6065 8.31182 16.8691C7.71043 16.1318 7.38286 15.2089 7.38477 14.2574V14.2055C7.93027 14.5135 8.57227 14.7027 9.24395 14.7287C8.6793 14.3524 8.21623 13.8426 7.8958 13.2444C7.57538 12.6463 7.40749 11.9784 7.40703 11.2998C7.40703 10.5316 7.60742 9.83027 7.96738 9.22168C9.00237 10.4958 10.2939 11.5378 11.758 12.2801C13.2221 13.0224 14.826 13.4483 16.4654 13.5301C15.8828 10.7283 17.9758 8.46094 20.4918 8.46094C21.6793 8.46094 22.748 8.9582 23.5014 9.75977C24.4328 9.58535 25.3234 9.23652 26.1176 8.76894C25.8096 9.72266 25.1639 10.5279 24.3066 11.0363C25.1379 10.9473 25.9395 10.7172 26.6816 10.3943C26.1213 11.2182 25.4199 11.9492 24.6146 12.5318V12.5318Z" fill="white"/>
</svg>
