<svg width="32" height="23" viewBox="0 0 32 23" fill="none" xmlns="http://www.w3.org/2000/svg">
<path d="M30.8426 3.44883C30.6633 2.78099 30.3117 2.17197 29.823 1.6827C29.3344 1.19344 28.7258 0.841097 28.0582 0.660938C25.6008 1.3411e-07 15.75 0 15.75 0C15.75 0 5.89922 -1.3411e-07 3.4418 0.657422C2.7739 0.836996 2.16501 1.18914 1.67627 1.6785C1.18753 2.16785 0.836154 2.77719 0.657422 3.44531C-1.3411e-07 5.90625 0 11.0391 0 11.0391C0 11.0391 -1.3411e-07 16.1719 0.657422 18.6293C1.01953 19.9863 2.08828 21.0551 3.4418 21.4172C5.89922 22.0781 15.75 22.0781 15.75 22.0781C15.75 22.0781 25.6008 22.0781 28.0582 21.4172C29.4152 21.0551 30.4805 19.9863 30.8426 18.6293C31.5 16.1719 31.5 11.0391 31.5 11.0391C31.5 11.0391 31.5 5.90625 30.8426 3.44883ZM12.6211 15.75V6.32812L20.7773 11.0039L12.6211 15.75Z" fill="#ACE9FF"/>
</svg>
