<svg width="326" height="500" viewBox="0 0 326 500" fill="none" xmlns="http://www.w3.org/2000/svg">
<rect width="314" height="326" transform="translate(326 186) rotate(90)" fill="url(#paint0_linear)"/>
<path d="M21 368.906C21 363.435 25.4349 359 30.9055 359H85.0945C90.5651 359 95 363.435 95 368.906V368.906C95 374.376 90.5651 378.811 85.0945 378.811H30.9055C25.4349 378.811 21 374.376 21 368.906V368.906Z" fill="#111111" fill-opacity="0.2"/>
<g clip-path="url(#clip0)">
<path d="M38.8511 368.045C38.8511 367.434 38.4178 366.923 37.8436 366.8C38.073 366.417 38.2138 365.974 38.2138 365.496C38.2138 364.09 37.0705 362.946 35.6646 362.946C34.6978 362.946 33.8668 363.493 33.4341 364.287C33.0013 363.493 32.1703 362.946 31.2035 362.946C29.7976 362.946 28.6543 364.09 28.6543 365.496C28.6543 366.07 28.8531 366.596 29.175 367.023C29.0141 367.14 28.8832 367.294 28.7927 367.472C28.7023 367.649 28.6549 367.846 28.6543 368.045V373.143C28.6543 373.846 29.226 374.418 29.9289 374.418H37.5765C38.2795 374.418 38.8511 373.846 38.8511 373.143V371.462L41.4004 372.737V368.276L38.8511 369.55V368.045ZM35.6646 364.221C36.3676 364.221 36.9392 364.793 36.9392 365.496C36.9392 366.199 36.3676 366.77 35.6646 366.77C34.9617 366.77 34.39 366.199 34.39 365.496C34.39 364.793 34.9617 364.221 35.6646 364.221ZM31.2035 364.221C31.9065 364.221 32.4781 364.793 32.4781 365.496C32.4781 366.199 31.9065 366.77 31.2035 366.77C30.5006 366.77 29.9289 366.199 29.9289 365.496C29.9289 364.793 30.5006 364.221 31.2035 364.221ZM29.9289 373.143V368.045H37.5765L37.5778 373.143H29.9289Z" fill="white"/>
<path d="M55.4394 364.566V365.591H52.3667V374.331H51.1035V365.591H48.0307V364.566H55.4394ZM56.8119 374.331V367.161H57.6654L57.8907 368.076C58.5189 367.466 59.2746 367.161 60.1577 367.161V368.213C59.3019 368.213 58.6077 368.515 58.0751 369.121V374.331H56.8119ZM61.0864 372.166C61.0864 370.696 62.056 369.961 63.9952 369.961C64.6188 369.961 65.2425 370.006 65.8661 370.097V369.421C65.8661 368.597 65.222 368.185 63.9337 368.185C63.1963 368.185 62.4406 368.299 61.6668 368.527V367.502C62.4406 367.275 63.1963 367.161 63.9337 367.161C66.0641 367.161 67.1294 367.903 67.1294 369.387V374.331H66.4192L65.9822 373.621C65.2675 374.094 64.4891 374.331 63.6469 374.331C61.9399 374.331 61.0864 373.609 61.0864 372.166ZM63.9952 370.985C62.8981 370.985 62.3496 371.372 62.3496 372.146C62.3496 372.92 62.782 373.306 63.6469 373.306C64.521 373.306 65.2607 373.074 65.8661 372.61V371.121C65.2425 371.03 64.6188 370.985 63.9952 370.985ZM70.5844 367.161V374.331H69.3212V367.161H70.5844ZM70.5844 364.566V365.761H69.3212V364.566H70.5844ZM74.1078 364.566V374.331H72.8446V364.566H74.1078ZM79.188 367.161C81.2274 367.161 82.2471 368.169 82.2471 370.186C82.2471 370.473 82.2266 370.78 82.1856 371.108H77.1532C77.1532 372.574 78.009 373.306 79.7206 373.306C80.5355 373.306 81.2593 373.215 81.892 373.033V374.058C81.2593 374.24 80.49 374.331 79.5841 374.331C77.1214 374.331 75.89 373.108 75.89 370.664C75.89 368.329 76.9893 367.161 79.188 367.161ZM77.1532 370.056H81.0317C81.0044 368.8 80.3898 368.172 79.188 368.172C77.9134 368.172 77.2352 368.8 77.1532 370.056ZM83.9473 374.331V367.161H84.8009L85.0262 368.076C85.6544 367.466 86.4101 367.161 87.2932 367.161V368.213C86.4374 368.213 85.7432 368.515 85.2106 369.121V374.331H83.9473Z" fill="white"/>
</g>
<path d="M30.9055 360.165H85.0945V357.835H30.9055V360.165ZM85.0945 377.646H30.9055V379.976H85.0945V377.646ZM30.9055 377.646C26.0785 377.646 22.1654 373.733 22.1654 368.906H19.8346C19.8346 375.02 24.7912 379.976 30.9055 379.976V377.646ZM93.8346 368.906C93.8346 373.733 89.9215 377.646 85.0945 377.646V379.976C91.2088 379.976 96.1654 375.02 96.1654 368.906H93.8346ZM85.0945 360.165C89.9215 360.165 93.8346 364.078 93.8346 368.906H96.1654C96.1654 362.791 91.2088 357.835 85.0945 357.835V360.165ZM30.9055 357.835C24.7912 357.835 19.8346 362.791 19.8346 368.906H22.1654C22.1654 364.078 26.0785 360.165 30.9055 360.165V357.835Z" fill="white"/>
<path d="M23.9004 404.811H21.2441L27.1719 390.846H29.9551L36.0098 404.811H33.2266L31.6348 401.002H26.9961L27.8848 398.756H30.6973L28.5 393.512L23.9004 404.811ZM44.3105 397.79C44.3105 401.038 45.7526 402.663 48.6367 402.663C51.4492 402.663 52.8555 401.038 52.8555 397.79C52.8555 394.593 51.4492 392.995 48.6367 392.995C45.7526 392.995 44.3105 394.593 44.3105 397.79ZM41.625 397.848C41.625 393.115 43.9622 390.749 48.6367 390.749C53.2396 390.749 55.541 393.115 55.541 397.848C55.541 401.741 54.0924 404.04 51.1953 404.743L53.4609 407.379L51.4199 408.932L48.2461 404.909C44.0404 404.909 41.8333 402.555 41.625 397.848ZM66.9766 394.557V404.811H64.9551L64.6426 403.502C63.4642 404.375 62.2142 404.811 60.8926 404.811C58.7962 404.811 57.748 403.571 57.748 401.09V394.557H60.3359V401.022C60.3359 402.155 60.8307 402.721 61.8203 402.721C62.6602 402.721 63.5163 402.386 64.3887 401.715V394.557H66.9766ZM72.0156 390.846V392.897H69.4277V390.846H72.0156ZM72.0156 394.557V404.811H69.4277V394.557H72.0156ZM78.793 394.557C81.9049 394.557 83.4609 396.146 83.4609 399.323C83.4609 399.746 83.4316 400.169 83.373 400.592H76.5664C76.5664 402.038 77.6276 402.76 79.75 402.76C80.7852 402.76 81.8203 402.663 82.8555 402.467V404.518C81.9505 404.713 80.8503 404.811 79.5547 404.811C75.8372 404.811 73.9785 403.063 73.9785 399.567C73.9785 396.227 75.5833 394.557 78.793 394.557ZM76.5664 398.795H80.9414V398.717C80.9414 397.298 80.2253 396.588 78.793 396.588C77.4258 396.588 76.6836 397.324 76.5664 398.795ZM85.2578 392.897H87.1719L87.5625 394.557H90.1406V396.608H87.8457V401.325C87.8457 402.282 88.2591 402.76 89.0859 402.76H90.1406V404.811H87.8359C86.1172 404.811 85.2578 403.89 85.2578 402.047V392.897ZM96.5469 404.811V390.846H102.797C105.648 390.846 107.074 392.158 107.074 394.782C107.074 397.627 105.124 399.349 101.225 399.948L100.854 397.643C103.197 397.22 104.369 396.292 104.369 394.86C104.369 393.701 103.79 393.122 102.631 393.122H99.1348V404.811H96.5469ZM111.137 390.846V404.811H108.549V390.846H111.137ZM113.1 401.618C113.1 399.58 114.584 398.561 117.553 398.561C118.249 398.561 118.946 398.626 119.643 398.756V397.985C119.643 397.067 118.982 396.608 117.66 396.608C116.54 396.608 115.297 396.771 113.93 397.096V395.045C115.297 394.72 116.54 394.557 117.66 394.557C120.707 394.557 122.23 395.683 122.23 397.936V404.811H120.727L119.809 403.893C118.917 404.505 117.934 404.811 116.859 404.811C114.353 404.811 113.1 403.747 113.1 401.618ZM119.643 400.514C118.992 400.384 118.295 400.319 117.553 400.319C116.309 400.319 115.688 400.742 115.688 401.588C115.688 402.5 116.208 402.956 117.25 402.956C118.109 402.956 118.907 402.689 119.643 402.155V400.514ZM132.25 404.518C131.404 404.713 130.525 404.811 129.613 404.811C125.967 404.811 124.145 403.037 124.145 399.489C124.145 396.201 125.967 394.557 129.613 394.557C130.525 394.557 131.404 394.655 132.25 394.85V396.901C131.404 396.706 130.59 396.608 129.809 396.608C127.758 396.608 126.732 397.568 126.732 399.489C126.732 401.67 127.758 402.76 129.809 402.76C130.59 402.76 131.404 402.663 132.25 402.467V404.518ZM138.285 394.557C141.397 394.557 142.953 396.146 142.953 399.323C142.953 399.746 142.924 400.169 142.865 400.592H136.059C136.059 402.038 137.12 402.76 139.242 402.76C140.277 402.76 141.312 402.663 142.348 402.467V404.518C141.443 404.713 140.342 404.811 139.047 404.811C135.329 404.811 133.471 403.063 133.471 399.567C133.471 396.227 135.076 394.557 138.285 394.557ZM136.059 398.795H140.434V398.717C140.434 397.298 139.717 396.588 138.285 396.588C136.918 396.588 136.176 397.324 136.059 398.795Z" fill="white"/>
<path d="M27.25 419.342L25.4727 422.944L21.5 423.518L24.375 426.323L23.6953 430.28L27.25 428.413L30.8047 430.28L30.125 426.323L33 423.522L29.0273 422.944L27.25 419.342Z" fill="#F39B13"/>
<path d="M37.8301 429.811L41.6787 420.952H36.5244V419.817H42.9502V420.808L39.1562 429.811H37.8301ZM44.625 429.052C44.625 428.879 44.6478 428.733 44.6934 428.615C44.7389 428.492 44.8005 428.394 44.8779 428.321C44.9554 428.243 45.0465 428.189 45.1514 428.157C45.2562 428.12 45.3701 428.102 45.4932 428.102C45.6117 428.102 45.7233 428.12 45.8281 428.157C45.9375 428.189 46.0309 428.243 46.1084 428.321C46.1859 428.394 46.2474 428.492 46.293 428.615C46.3385 428.733 46.3613 428.879 46.3613 429.052C46.3613 429.221 46.3385 429.367 46.293 429.49C46.2474 429.608 46.1859 429.706 46.1084 429.784C46.0309 429.861 45.9375 429.918 45.8281 429.955C45.7233 429.991 45.6117 430.009 45.4932 430.009C45.3701 430.009 45.2562 429.991 45.1514 429.955C45.0465 429.918 44.9554 429.861 44.8779 429.784C44.8005 429.706 44.7389 429.608 44.6934 429.49C44.6478 429.367 44.625 429.221 44.625 429.052ZM51.1055 423.679C51.5566 423.679 51.9759 423.743 52.3633 423.871C52.7552 423.994 53.0947 424.178 53.3818 424.424C53.6735 424.67 53.9014 424.976 54.0654 425.34C54.2295 425.705 54.3115 426.126 54.3115 426.605C54.3115 427.125 54.234 427.592 54.0791 428.006C53.9242 428.421 53.694 428.772 53.3887 429.059C53.0833 429.346 52.7051 429.567 52.2539 429.722C51.8073 429.873 51.2923 429.948 50.709 429.948C50.4766 429.948 50.2464 429.936 50.0186 429.914C49.7952 429.891 49.5788 429.857 49.3691 429.811C49.1641 429.77 48.9681 429.715 48.7812 429.647C48.5944 429.579 48.4258 429.499 48.2754 429.408V428.232C48.4258 428.337 48.6012 428.43 48.8018 428.512C49.0068 428.594 49.221 428.663 49.4443 428.717C49.6676 428.772 49.891 428.815 50.1143 428.847C50.3421 428.875 50.5518 428.888 50.7432 428.888C51.1032 428.888 51.4245 428.847 51.707 428.765C51.9896 428.679 52.2288 428.546 52.4248 428.369C52.6208 428.191 52.7712 427.968 52.876 427.699C52.9808 427.43 53.0332 427.111 53.0332 426.742C53.0332 426.09 52.8327 425.593 52.4316 425.251C52.0306 424.905 51.4473 424.732 50.6816 424.732C50.5586 424.732 50.4242 424.739 50.2783 424.752C50.137 424.762 49.9935 424.775 49.8477 424.793C49.7064 424.812 49.5697 424.832 49.4375 424.855C49.3099 424.873 49.1982 424.891 49.1025 424.91L48.4873 424.52L48.8633 419.817H53.5801V420.952H49.9434L49.6768 423.816C49.8226 423.789 50.014 423.759 50.251 423.727C50.4925 423.695 50.7773 423.679 51.1055 423.679Z" fill="white"/>
<path d="M60.1523 420.036V429.811H58.8877V420.036H60.1523ZM62.6885 429.811V420.036H64.2949L67.8838 428.191L71.4043 420.036H72.9424V429.811H71.8145V421.792L68.3418 429.811H67.3438L63.8164 421.792V429.811H62.6885ZM78.8213 428.786C81.2139 428.786 82.4102 427.409 82.4102 424.657C82.4102 422.26 81.2139 421.061 78.8213 421.061H76.5312V428.786H78.8213ZM75.2666 429.811V420.036H78.8213C82.057 420.036 83.6748 421.576 83.6748 424.657C83.6748 428.093 82.057 429.811 78.8213 429.811H75.2666ZM86.6484 428.56C87.0632 428.692 87.5667 428.758 88.1592 428.758C89.7542 428.758 90.5518 427.849 90.5518 426.031C90.5518 424.495 89.8294 423.727 88.3848 423.727C87.7285 423.727 87.1497 423.85 86.6484 424.096V428.56ZM85.3838 420.036H86.6484V422.975C87.1908 422.747 87.7718 422.633 88.3916 422.633C90.6611 422.633 91.7959 423.782 91.7959 426.079C91.7959 428.567 90.6042 429.811 88.2207 429.811C87.1908 429.811 86.2451 429.713 85.3838 429.517V420.036Z" fill="white"/>
<path d="M26.585 453.811H24.4727V448.028C24.4727 447.909 24.4727 447.768 24.4727 447.604C24.4772 447.435 24.4818 447.262 24.4863 447.084C24.4954 446.902 24.5023 446.72 24.5068 446.538C24.516 446.355 24.5228 446.189 24.5273 446.039C24.5046 446.066 24.4658 446.107 24.4111 446.162C24.3564 446.216 24.2949 446.278 24.2266 446.346C24.1582 446.41 24.0876 446.476 24.0146 446.544C23.9417 446.613 23.8711 446.674 23.8027 446.729L22.6543 447.652L21.6289 446.38L24.8486 443.817H26.585V453.811ZM40.0723 453.811H37.9873V449.347C37.9873 448.796 37.9007 448.383 37.7275 448.11C37.5589 447.832 37.2969 447.693 36.9414 447.693C36.6725 447.693 36.4469 447.748 36.2646 447.857C36.0824 447.966 35.9365 448.128 35.8271 448.342C35.7178 448.556 35.6403 448.821 35.5947 449.135C35.5492 449.45 35.5264 449.81 35.5264 450.215V453.811H33.4414V443.174H35.5264V445.341C35.5264 445.533 35.5218 445.736 35.5127 445.95C35.5036 446.159 35.4922 446.353 35.4785 446.531C35.4603 446.74 35.4443 446.945 35.4307 447.146H35.54C35.7633 446.75 36.0482 446.465 36.3945 446.292C36.7409 446.114 37.1328 446.025 37.5703 446.025C37.9486 446.025 38.2904 446.08 38.5957 446.189C38.9056 446.294 39.1699 446.46 39.3887 446.688C39.6074 446.916 39.776 447.208 39.8945 447.563C40.013 447.914 40.0723 448.335 40.0723 448.828V453.811ZM46.2041 446.025C46.2588 446.025 46.318 446.027 46.3818 446.032C46.4502 446.032 46.514 446.036 46.5732 446.045C46.637 446.05 46.694 446.057 46.7441 446.066C46.7988 446.07 46.8398 446.077 46.8672 446.086V448.042C46.8307 448.032 46.7806 448.023 46.7168 448.014C46.653 448.005 46.5846 447.998 46.5117 447.994C46.4434 447.985 46.375 447.98 46.3066 447.98C46.2383 447.975 46.1813 447.973 46.1357 447.973C45.8669 447.973 45.6185 448.007 45.3906 448.076C45.1673 448.144 44.9736 448.256 44.8096 448.411C44.6501 448.561 44.5247 448.762 44.4336 449.012C44.347 449.258 44.3037 449.561 44.3037 449.921V453.811H42.2188V446.168H43.7979L44.1055 447.317H44.208C44.3174 447.121 44.4359 446.943 44.5635 446.784C44.6911 446.624 44.8324 446.49 44.9873 446.38C45.1468 446.266 45.3245 446.18 45.5205 446.121C45.721 446.057 45.9489 446.025 46.2041 446.025ZM57.7227 446.052C57.7227 446.399 57.6657 446.711 57.5518 446.989C57.4424 447.262 57.2897 447.504 57.0938 447.713C56.9023 447.918 56.6745 448.092 56.4102 448.233C56.1504 448.37 55.8678 448.474 55.5625 448.547V448.588C56.3691 448.689 56.9798 448.935 57.3945 449.327C57.8092 449.714 58.0166 450.238 58.0166 450.899C58.0166 451.336 57.9368 451.742 57.7773 452.116C57.6224 452.485 57.3809 452.806 57.0527 453.08C56.7292 453.353 56.319 453.567 55.8223 453.722C55.3301 453.873 54.749 453.948 54.0791 453.948C53.5413 453.948 53.0355 453.902 52.5615 453.811C52.0876 453.724 51.6455 453.59 51.2354 453.408V451.61C51.4404 451.719 51.6569 451.815 51.8848 451.897C52.1126 451.979 52.3405 452.05 52.5684 452.109C52.7962 452.164 53.0195 452.205 53.2383 452.232C53.4616 452.259 53.6712 452.273 53.8672 452.273C54.2591 452.273 54.585 452.236 54.8447 452.164C55.1045 452.091 55.3118 451.988 55.4668 451.856C55.6217 451.724 55.7311 451.567 55.7949 451.384C55.8633 451.197 55.8975 450.995 55.8975 450.776C55.8975 450.571 55.8542 450.386 55.7676 450.222C55.6855 450.054 55.5488 449.912 55.3574 449.798C55.1706 449.68 54.9245 449.589 54.6191 449.525C54.3138 449.461 53.9378 449.429 53.4912 449.429H52.7803V447.946H53.4775C53.8968 447.946 54.2454 447.909 54.5234 447.836C54.8014 447.759 55.0225 447.656 55.1865 447.529C55.3551 447.397 55.4736 447.244 55.542 447.071C55.6104 446.898 55.6445 446.713 55.6445 446.517C55.6445 446.162 55.5329 445.884 55.3096 445.683C55.0908 445.483 54.7422 445.382 54.2637 445.382C54.0449 445.382 53.8398 445.405 53.6484 445.451C53.4616 445.492 53.2861 445.546 53.1221 445.615C52.9626 445.679 52.8145 445.751 52.6777 445.833C52.5456 445.911 52.4248 445.988 52.3154 446.066L51.249 444.658C51.4404 444.516 51.6478 444.387 51.8711 444.268C52.099 444.15 52.3451 444.047 52.6094 443.96C52.8737 443.869 53.1585 443.799 53.4639 443.749C53.7692 443.698 54.0951 443.673 54.4414 443.673C54.9336 443.673 55.3802 443.728 55.7812 443.837C56.1868 443.942 56.5332 444.097 56.8203 444.302C57.1074 444.503 57.3285 444.751 57.4834 445.047C57.6429 445.339 57.7227 445.674 57.7227 446.052ZM65.8369 448.814C65.8369 449.621 65.7731 450.341 65.6455 450.974C65.5225 451.608 65.3219 452.145 65.0439 452.587C64.7705 453.029 64.415 453.367 63.9775 453.599C63.5446 453.832 63.0205 453.948 62.4053 453.948C61.8265 453.948 61.3229 453.832 60.8945 453.599C60.4661 453.367 60.1107 453.029 59.8281 452.587C59.5456 452.145 59.3337 451.608 59.1924 450.974C59.0557 450.341 58.9873 449.621 58.9873 448.814C58.9873 448.007 59.0488 447.285 59.1719 446.647C59.2995 446.009 59.5 445.469 59.7734 445.027C60.0469 444.585 60.4001 444.248 60.833 444.015C61.266 443.778 61.79 443.66 62.4053 443.66C62.9795 443.66 63.4808 443.776 63.9092 444.008C64.3376 444.241 64.6953 444.578 64.9824 445.02C65.2695 445.462 65.4837 446.002 65.625 446.64C65.7663 447.278 65.8369 448.003 65.8369 448.814ZM61.0928 448.814C61.0928 449.953 61.1908 450.81 61.3867 451.384C61.5827 451.958 61.9222 452.246 62.4053 452.246C62.8792 452.246 63.2188 451.961 63.4238 451.391C63.6335 450.821 63.7383 449.962 63.7383 448.814C63.7383 447.67 63.6335 446.811 63.4238 446.237C63.2188 445.658 62.8792 445.369 62.4053 445.369C62.1637 445.369 61.9587 445.442 61.79 445.587C61.626 445.733 61.4915 445.95 61.3867 446.237C61.2819 446.524 61.2067 446.884 61.1611 447.317C61.1156 447.745 61.0928 448.244 61.0928 448.814ZM77.5605 453.811H75.4756V449.347C75.4756 448.796 75.3936 448.383 75.2295 448.11C75.0654 447.832 74.8079 447.693 74.457 447.693C74.1927 447.693 73.9717 447.748 73.7939 447.857C73.6208 447.966 73.4818 448.128 73.377 448.342C73.2721 448.556 73.1969 448.821 73.1514 449.135C73.1058 449.45 73.083 449.81 73.083 450.215V453.811H70.998V446.168H72.5908L72.8711 447.146H72.9873C73.0967 446.95 73.2266 446.781 73.377 446.64C73.5319 446.499 73.7005 446.383 73.8828 446.292C74.0651 446.2 74.2588 446.134 74.4639 446.093C74.6689 446.048 74.8763 446.025 75.0859 446.025C75.61 446.025 76.0544 446.116 76.4189 446.298C76.7881 446.476 77.0706 446.759 77.2666 447.146H77.4375C77.5469 446.95 77.679 446.781 77.834 446.64C77.9889 446.499 78.1598 446.383 78.3467 446.292C78.5335 446.2 78.7295 446.134 78.9346 446.093C79.1442 446.048 79.3538 446.025 79.5635 446.025C80.3838 446.025 81.0013 446.248 81.416 446.695C81.8353 447.137 82.0449 447.848 82.0449 448.828V453.811H79.9531V449.347C79.9531 448.796 79.8711 448.383 79.707 448.11C79.543 447.832 79.2855 447.693 78.9346 447.693C78.4378 447.693 78.0846 447.891 77.875 448.288C77.6654 448.68 77.5605 449.242 77.5605 449.976V453.811ZM84.1025 444.193C84.1025 443.997 84.1322 443.835 84.1914 443.708C84.2507 443.575 84.3304 443.471 84.4307 443.393C84.5355 443.311 84.6562 443.254 84.793 443.222C84.9342 443.19 85.0824 443.174 85.2373 443.174C85.3923 443.174 85.5381 443.19 85.6748 443.222C85.8115 443.254 85.93 443.311 86.0303 443.393C86.1351 443.471 86.2171 443.575 86.2764 443.708C86.3402 443.835 86.3721 443.997 86.3721 444.193C86.3721 444.384 86.3402 444.546 86.2764 444.678C86.2171 444.81 86.1351 444.917 86.0303 445C85.93 445.077 85.8115 445.134 85.6748 445.17C85.5381 445.202 85.3923 445.218 85.2373 445.218C85.0824 445.218 84.9342 445.202 84.793 445.17C84.6562 445.134 84.5355 445.077 84.4307 445C84.3304 444.917 84.2507 444.81 84.1914 444.678C84.1322 444.546 84.1025 444.384 84.1025 444.193ZM86.2764 453.811H84.1914V446.168H86.2764V453.811ZM95.1016 453.811H93.0166V449.347C93.0166 448.796 92.9323 448.383 92.7637 448.11C92.5996 447.832 92.3353 447.693 91.9707 447.693C91.6973 447.693 91.4694 447.748 91.2871 447.857C91.1048 447.966 90.959 448.128 90.8496 448.342C90.7448 448.556 90.6696 448.821 90.624 449.135C90.5785 449.45 90.5557 449.81 90.5557 450.215V453.811H88.4707V446.168H90.0635L90.3438 447.146H90.46C90.5693 446.95 90.7015 446.781 90.8564 446.64C91.016 446.499 91.1891 446.383 91.376 446.292C91.5628 446.2 91.7611 446.134 91.9707 446.093C92.1803 446.048 92.3945 446.025 92.6133 446.025C92.987 446.025 93.3265 446.08 93.6318 446.189C93.9372 446.294 94.1992 446.46 94.418 446.688C94.6367 446.916 94.8053 447.208 94.9238 447.563C95.0423 447.914 95.1016 448.335 95.1016 448.828V453.811Z" fill="white"/>
<path d="M112.267 453.811H105.561V452.341L107.912 449.805C108.208 449.486 108.477 449.192 108.719 448.923C108.96 448.654 109.168 448.392 109.341 448.137C109.514 447.882 109.648 447.622 109.744 447.358C109.84 447.094 109.888 446.809 109.888 446.503C109.888 446.166 109.785 445.904 109.58 445.717C109.38 445.53 109.108 445.437 108.767 445.437C108.407 445.437 108.06 445.526 107.728 445.704C107.395 445.881 107.046 446.134 106.682 446.462L105.533 445.102C105.738 444.915 105.952 444.737 106.176 444.569C106.399 444.396 106.645 444.243 106.914 444.111C107.183 443.979 107.479 443.874 107.803 443.796C108.126 443.714 108.489 443.673 108.89 443.673C109.368 443.673 109.797 443.739 110.175 443.872C110.558 444.004 110.883 444.193 111.152 444.439C111.421 444.681 111.626 444.974 111.768 445.321C111.913 445.667 111.986 446.057 111.986 446.49C111.986 446.882 111.918 447.258 111.781 447.618C111.645 447.973 111.458 448.324 111.221 448.67C110.984 449.012 110.708 449.354 110.394 449.696C110.084 450.033 109.751 450.377 109.396 450.728L108.192 451.938V452.034H112.267V453.811ZM119.991 448.814C119.991 449.621 119.927 450.341 119.8 450.974C119.677 451.608 119.476 452.145 119.198 452.587C118.925 453.029 118.569 453.367 118.132 453.599C117.699 453.832 117.175 453.948 116.56 453.948C115.981 453.948 115.477 453.832 115.049 453.599C114.62 453.367 114.265 453.029 113.982 452.587C113.7 452.145 113.488 451.608 113.347 450.974C113.21 450.341 113.142 449.621 113.142 448.814C113.142 448.007 113.203 447.285 113.326 446.647C113.454 446.009 113.654 445.469 113.928 445.027C114.201 444.585 114.554 444.248 114.987 444.015C115.42 443.778 115.944 443.66 116.56 443.66C117.134 443.66 117.635 443.776 118.063 444.008C118.492 444.241 118.85 444.578 119.137 445.02C119.424 445.462 119.638 446.002 119.779 446.64C119.921 447.278 119.991 448.003 119.991 448.814ZM115.247 448.814C115.247 449.953 115.345 450.81 115.541 451.384C115.737 451.958 116.076 452.246 116.56 452.246C117.034 452.246 117.373 451.961 117.578 451.391C117.788 450.821 117.893 449.962 117.893 448.814C117.893 447.67 117.788 446.811 117.578 446.237C117.373 445.658 117.034 445.369 116.56 445.369C116.318 445.369 116.113 445.442 115.944 445.587C115.78 445.733 115.646 445.95 115.541 446.237C115.436 446.524 115.361 446.884 115.315 447.317C115.27 447.745 115.247 448.244 115.247 448.814ZM126.007 453.811H123.895V448.028C123.895 447.909 123.895 447.768 123.895 447.604C123.899 447.435 123.904 447.262 123.908 447.084C123.917 446.902 123.924 446.72 123.929 446.538C123.938 446.355 123.945 446.189 123.949 446.039C123.926 446.066 123.888 446.107 123.833 446.162C123.778 446.216 123.717 446.278 123.648 446.346C123.58 446.41 123.509 446.476 123.437 446.544C123.364 446.613 123.293 446.674 123.225 446.729L122.076 447.652L121.051 446.38L124.271 443.817H126.007V453.811ZM131.995 443.687C132.41 443.687 132.802 443.737 133.171 443.837C133.54 443.938 133.864 444.088 134.142 444.289C134.42 444.489 134.641 444.74 134.805 445.041C134.969 445.341 135.051 445.694 135.051 446.1C135.051 446.401 135.005 446.674 134.914 446.92C134.823 447.162 134.698 447.383 134.538 447.583C134.379 447.779 134.189 447.955 133.971 448.11C133.752 448.265 133.515 448.406 133.26 448.534C133.524 448.675 133.782 448.832 134.032 449.005C134.287 449.179 134.513 449.375 134.709 449.593C134.905 449.807 135.062 450.049 135.181 450.318C135.299 450.587 135.358 450.888 135.358 451.22C135.358 451.635 135.276 452.011 135.112 452.348C134.948 452.685 134.718 452.972 134.422 453.209C134.126 453.446 133.77 453.629 133.355 453.756C132.945 453.884 132.492 453.948 131.995 453.948C131.457 453.948 130.979 453.886 130.56 453.763C130.14 453.64 129.787 453.465 129.5 453.237C129.213 453.009 128.994 452.729 128.844 452.396C128.698 452.063 128.625 451.69 128.625 451.275C128.625 450.933 128.675 450.625 128.775 450.352C128.876 450.079 129.012 449.833 129.186 449.614C129.359 449.395 129.562 449.201 129.794 449.033C130.026 448.864 130.275 448.716 130.539 448.588C130.316 448.447 130.106 448.294 129.91 448.13C129.714 447.962 129.543 447.777 129.397 447.577C129.256 447.372 129.142 447.146 129.056 446.9C128.974 446.654 128.933 446.383 128.933 446.086C128.933 445.69 129.015 445.344 129.179 445.047C129.347 444.747 129.573 444.496 129.855 444.295C130.138 444.09 130.464 443.938 130.833 443.837C131.202 443.737 131.59 443.687 131.995 443.687ZM130.58 451.152C130.58 451.334 130.61 451.503 130.669 451.658C130.728 451.808 130.815 451.938 130.929 452.047C131.047 452.157 131.193 452.243 131.366 452.307C131.539 452.366 131.74 452.396 131.968 452.396C132.446 452.396 132.804 452.284 133.041 452.061C133.278 451.833 133.396 451.535 133.396 451.166C133.396 450.974 133.355 450.803 133.273 450.653C133.196 450.498 133.093 450.357 132.966 450.229C132.843 450.097 132.701 449.976 132.542 449.867C132.382 449.757 132.223 449.653 132.063 449.552L131.913 449.457C131.713 449.557 131.53 449.666 131.366 449.785C131.202 449.899 131.061 450.026 130.942 450.167C130.828 450.304 130.74 450.455 130.676 450.619C130.612 450.783 130.58 450.96 130.58 451.152ZM131.981 445.232C131.831 445.232 131.69 445.255 131.558 445.3C131.43 445.346 131.318 445.412 131.223 445.499C131.132 445.585 131.059 445.692 131.004 445.82C130.949 445.947 130.922 446.091 130.922 446.25C130.922 446.442 130.949 446.608 131.004 446.75C131.063 446.886 131.141 447.009 131.236 447.119C131.337 447.223 131.451 447.319 131.578 447.406C131.71 447.488 131.849 447.57 131.995 447.652C132.136 447.579 132.271 447.499 132.398 447.413C132.526 447.326 132.638 447.228 132.733 447.119C132.834 447.005 132.913 446.877 132.973 446.736C133.032 446.595 133.062 446.433 133.062 446.25C133.062 446.091 133.034 445.947 132.979 445.82C132.925 445.692 132.85 445.585 132.754 445.499C132.658 445.412 132.544 445.346 132.412 445.3C132.28 445.255 132.136 445.232 131.981 445.232Z" fill="white"/>
<path d="M152.939 445.871C152.591 445.871 152.275 445.937 151.992 446.071C151.709 446.201 151.466 446.39 151.265 446.637C151.066 446.885 150.911 447.186 150.801 447.541C150.693 447.895 150.64 448.296 150.64 448.742C150.64 449.201 150.687 449.609 150.781 449.967C150.879 450.322 151.024 450.622 151.216 450.866C151.408 451.11 151.647 451.295 151.934 451.422C152.22 451.549 152.555 451.613 152.939 451.613C153.229 451.613 153.504 451.585 153.765 451.53C154.025 451.471 154.282 451.404 154.536 451.33V452.121C154.409 452.169 154.282 452.213 154.155 452.252C154.028 452.288 153.895 452.318 153.755 452.34C153.618 452.363 153.47 452.379 153.311 452.389C153.154 452.402 152.98 452.409 152.788 452.409C152.254 452.409 151.792 452.321 151.401 452.145C151.011 451.969 150.687 451.72 150.43 451.398C150.176 451.076 149.987 450.688 149.863 450.236C149.74 449.783 149.678 449.282 149.678 448.732C149.678 448.192 149.748 447.697 149.888 447.248C150.031 446.798 150.239 446.413 150.513 446.09C150.789 445.768 151.131 445.517 151.538 445.338C151.945 445.159 152.412 445.07 152.939 445.07C153.291 445.07 153.626 445.106 153.945 445.177C154.264 445.249 154.552 445.353 154.81 445.49L154.429 446.251C154.224 446.147 154.001 446.058 153.76 445.983C153.519 445.908 153.245 445.871 152.939 445.871ZM158.77 445.871C158.421 445.871 158.105 445.937 157.822 446.071C157.539 446.201 157.297 446.39 157.095 446.637C156.896 446.885 156.742 447.186 156.631 447.541C156.523 447.895 156.47 448.296 156.47 448.742C156.47 449.201 156.517 449.609 156.611 449.967C156.709 450.322 156.854 450.622 157.046 450.866C157.238 451.11 157.477 451.295 157.764 451.422C158.05 451.549 158.385 451.613 158.77 451.613C159.059 451.613 159.334 451.585 159.595 451.53C159.855 451.471 160.112 451.404 160.366 451.33V452.121C160.239 452.169 160.112 452.213 159.985 452.252C159.858 452.288 159.725 452.318 159.585 452.34C159.448 452.363 159.3 452.379 159.141 452.389C158.984 452.402 158.81 452.409 158.618 452.409C158.084 452.409 157.622 452.321 157.231 452.145C156.841 451.969 156.517 451.72 156.26 451.398C156.006 451.076 155.817 450.688 155.693 450.236C155.57 449.783 155.508 449.282 155.508 448.732C155.508 448.192 155.578 447.697 155.718 447.248C155.861 446.798 156.069 446.413 156.343 446.09C156.619 445.768 156.961 445.517 157.368 445.338C157.775 445.159 158.242 445.07 158.77 445.07C159.121 445.07 159.456 445.106 159.775 445.177C160.094 445.249 160.382 445.353 160.64 445.49L160.259 446.251C160.054 446.147 159.831 446.058 159.59 445.983C159.349 445.908 159.076 445.871 158.77 445.871Z" fill="white"/>
<path d="M147 442.811H163V440.811H147V442.811ZM165 444.811V452.811H167V444.811H165ZM163 454.811H147V456.811H163V454.811ZM145 452.811V444.811H143V452.811H145ZM147 454.811C145.895 454.811 145 453.916 145 452.811H143C143 455.02 144.791 456.811 147 456.811V454.811ZM165 452.811C165 453.916 164.105 454.811 163 454.811V456.811C165.209 456.811 167 455.02 167 452.811H165ZM163 442.811C164.105 442.811 165 443.706 165 444.811H167C167 442.602 165.209 440.811 163 440.811V442.811ZM147 440.811C144.791 440.811 143 442.602 143 444.811H145C145 443.706 145.895 442.811 147 442.811V440.811Z" fill="white"/>
<path d="M184.297 447.262C184.297 447.558 184.251 447.843 184.16 448.117C184.072 448.39 183.926 448.633 183.721 448.844C183.516 449.053 183.244 449.22 182.905 449.347C182.57 449.471 182.155 449.533 181.66 449.533H180.928V452.311H180.02V445.172H181.787C182.223 445.172 182.599 445.22 182.915 445.314C183.231 445.405 183.491 445.54 183.696 445.719C183.901 445.895 184.053 446.113 184.15 446.374C184.248 446.634 184.297 446.93 184.297 447.262ZM180.928 448.761H181.558C181.86 448.761 182.124 448.735 182.349 448.683C182.576 448.631 182.764 448.548 182.91 448.434C183.06 448.317 183.172 448.167 183.247 447.985C183.322 447.799 183.359 447.575 183.359 447.311C183.359 446.849 183.226 446.507 182.959 446.286C182.692 446.061 182.275 445.949 181.709 445.949H180.928V448.761ZM188.628 448.542H190.991V452.042C190.812 452.101 190.632 452.153 190.449 452.199C190.267 452.244 190.08 452.282 189.888 452.311C189.696 452.344 189.494 452.368 189.282 452.384C189.071 452.401 188.843 452.409 188.599 452.409C188.088 452.409 187.635 452.324 187.241 452.155C186.847 451.982 186.515 451.738 186.245 451.422C185.975 451.103 185.77 450.718 185.63 450.265C185.49 449.809 185.42 449.298 185.42 448.732C185.42 448.172 185.496 447.666 185.649 447.213C185.806 446.761 186.032 446.377 186.328 446.061C186.624 445.742 186.989 445.498 187.422 445.329C187.858 445.156 188.354 445.07 188.911 445.07C189.272 445.07 189.619 445.106 189.951 445.177C190.283 445.249 190.592 445.353 190.879 445.49L190.527 446.281C190.41 446.225 190.283 446.173 190.146 446.125C190.013 446.076 189.875 446.033 189.731 445.998C189.588 445.958 189.44 445.928 189.287 445.905C189.137 445.882 188.988 445.871 188.838 445.871C188.441 445.871 188.089 445.937 187.783 446.071C187.477 446.201 187.22 446.39 187.012 446.637C186.807 446.885 186.65 447.186 186.543 447.541C186.436 447.895 186.382 448.296 186.382 448.742C186.382 449.165 186.426 449.552 186.514 449.904C186.605 450.255 186.748 450.558 186.943 450.812C187.139 451.066 187.391 451.263 187.7 451.403C188.009 451.543 188.382 451.613 188.818 451.613C188.962 451.613 189.092 451.61 189.209 451.603C189.329 451.593 189.44 451.582 189.541 451.569C189.642 451.556 189.736 451.541 189.824 451.525C189.915 451.505 190.003 451.487 190.088 451.471V449.342H188.628V448.542ZM192.114 450.041V449.22H194.536V450.041H192.114ZM198.408 452.311H197.549V447.853C197.549 447.713 197.549 447.563 197.549 447.404C197.552 447.244 197.555 447.086 197.559 446.93C197.565 446.771 197.57 446.619 197.573 446.476C197.58 446.33 197.585 446.201 197.588 446.09C197.533 446.149 197.484 446.199 197.441 446.242C197.399 446.284 197.355 446.325 197.31 446.364C197.267 446.403 197.222 446.445 197.173 446.491C197.124 446.533 197.065 446.583 196.997 446.642L196.274 447.233L195.806 446.632L197.676 445.172H198.408V452.311ZM205.137 446.842C205.137 447.08 205.099 447.296 205.024 447.492C204.95 447.687 204.844 447.856 204.707 448C204.574 448.143 204.412 448.262 204.224 448.356C204.035 448.447 203.825 448.512 203.594 448.551V448.581C204.17 448.652 204.608 448.836 204.907 449.132C205.207 449.425 205.356 449.808 205.356 450.28C205.356 450.592 205.303 450.879 205.195 451.139C205.091 451.4 204.932 451.624 204.717 451.813C204.502 452.002 204.23 452.148 203.901 452.252C203.573 452.357 203.184 452.409 202.734 452.409C202.38 452.409 202.044 452.381 201.729 452.326C201.416 452.27 201.121 452.169 200.845 452.023V451.193C201.128 451.343 201.434 451.458 201.763 451.54C202.095 451.621 202.412 451.662 202.715 451.662C203.014 451.662 203.273 451.629 203.491 451.564C203.709 451.499 203.888 451.406 204.028 451.286C204.172 451.165 204.276 451.017 204.341 450.841C204.409 450.666 204.443 450.469 204.443 450.25C204.443 450.029 204.399 449.84 204.312 449.684C204.227 449.525 204.105 449.394 203.945 449.293C203.786 449.189 203.59 449.113 203.359 449.064C203.132 449.015 202.873 448.991 202.583 448.991H201.934V448.253H202.583C202.847 448.253 203.081 448.221 203.286 448.156C203.491 448.091 203.662 447.998 203.799 447.877C203.939 447.757 204.045 447.614 204.116 447.448C204.188 447.282 204.224 447.099 204.224 446.901C204.224 446.732 204.194 446.58 204.136 446.447C204.077 446.313 203.994 446.201 203.887 446.11C203.779 446.015 203.651 445.944 203.501 445.895C203.351 445.846 203.185 445.822 203.003 445.822C202.655 445.822 202.347 445.877 202.08 445.988C201.816 446.095 201.564 446.237 201.323 446.413L200.874 445.802C200.998 445.701 201.134 445.607 201.284 445.519C201.437 445.431 201.603 445.355 201.782 445.29C201.961 445.221 202.152 445.167 202.354 445.128C202.559 445.089 202.775 445.07 203.003 445.07C203.354 445.07 203.662 445.114 203.926 445.202C204.193 445.29 204.416 445.413 204.595 445.573C204.774 445.729 204.909 445.916 205 446.134C205.091 446.349 205.137 446.585 205.137 446.842Z" fill="white"/>
<path d="M177 442.811H208V440.811H177V442.811ZM210 444.811V452.811H212V444.811H210ZM208 454.811H177V456.811H208V454.811ZM175 452.811V444.811H173V452.811H175ZM177 454.811C175.895 454.811 175 453.916 175 452.811H173C173 455.02 174.791 456.811 177 456.811V454.811ZM210 452.811C210 453.916 209.105 454.811 208 454.811V456.811C210.209 456.811 212 455.02 212 452.811H210ZM208 442.811C209.105 442.811 210 443.706 210 444.811H212C212 442.602 210.209 440.811 208 440.811V442.811ZM177 440.811C174.791 440.811 173 442.602 173 444.811H175C175 443.706 175.895 442.811 177 442.811V440.811Z" fill="white"/>
<circle cx="22.5" cy="472.811" r="1.5" fill="#E1E1E1" fill-opacity="0.5"/>
<path d="M36.7227 472.718C36.7227 473.561 36.6133 474.302 36.3945 474.94C36.1758 475.573 35.859 476.104 35.4443 476.533C35.0296 476.957 34.5192 477.276 33.9131 477.49C33.3115 477.704 32.6279 477.811 31.8623 477.811H29.3604V467.817H32.1426C32.8398 467.817 33.471 467.922 34.0361 468.131C34.6012 468.341 35.082 468.653 35.4785 469.068C35.875 469.478 36.1803 469.988 36.3945 470.599C36.6133 471.21 36.7227 471.916 36.7227 472.718ZM35.376 472.759C35.376 472.094 35.3008 471.52 35.1504 471.037C35 470.549 34.7812 470.148 34.4941 469.833C34.207 469.519 33.8538 469.287 33.4346 469.136C33.0153 468.981 32.5391 468.904 32.0059 468.904H30.6318V476.717H31.7393C32.9424 476.717 33.8493 476.385 34.46 475.719C35.0706 475.054 35.376 474.067 35.376 472.759ZM42.0205 470.168C42.1527 470.168 42.3008 470.175 42.4648 470.189C42.6289 470.198 42.7702 470.214 42.8887 470.237L42.7246 471.385C42.597 471.362 42.4648 471.344 42.3281 471.331C42.196 471.312 42.0706 471.303 41.9521 471.303C41.665 471.303 41.403 471.362 41.166 471.481C40.929 471.595 40.724 471.761 40.5508 471.98C40.3822 472.194 40.25 472.454 40.1543 472.759C40.0632 473.06 40.0176 473.395 40.0176 473.764V477.811H38.7734V470.305H39.7852L39.9355 471.679H39.9902C40.1042 471.483 40.2249 471.294 40.3525 471.112C40.4847 470.93 40.6305 470.77 40.79 470.633C40.9541 470.492 41.1364 470.38 41.3369 470.298C41.5374 470.212 41.7653 470.168 42.0205 470.168ZM48.46 477.811L48.207 476.772H48.1523C48.002 476.977 47.8516 477.155 47.7012 477.305C47.5508 477.451 47.3867 477.572 47.209 477.667C47.0312 477.763 46.833 477.834 46.6143 477.879C46.3955 477.925 46.1426 477.948 45.8555 477.948C45.541 477.948 45.2516 477.902 44.9873 477.811C44.723 477.724 44.4928 477.59 44.2969 477.408C44.1055 477.221 43.9551 476.988 43.8457 476.71C43.7363 476.428 43.6816 476.095 43.6816 475.712C43.6816 474.965 43.9437 474.391 44.4678 473.99C44.9964 473.589 45.7985 473.37 46.874 473.333L48.1318 473.286V472.814C48.1318 472.509 48.0977 472.253 48.0293 472.048C47.9655 471.843 47.8698 471.679 47.7422 471.556C47.6191 471.429 47.4642 471.337 47.2773 471.283C47.0951 471.228 46.8854 471.201 46.6484 471.201C46.2702 471.201 45.917 471.255 45.5889 471.365C45.2653 471.474 44.9531 471.606 44.6523 471.761L44.2148 470.825C44.5521 470.642 44.9281 470.487 45.3428 470.36C45.7575 470.232 46.1927 470.168 46.6484 470.168C47.1133 470.168 47.5143 470.216 47.8516 470.312C48.1934 470.403 48.4736 470.551 48.6924 470.756C48.9157 470.957 49.082 471.214 49.1914 471.529C49.3008 471.843 49.3555 472.224 49.3555 472.67V477.811H48.46ZM46.1768 476.943C46.4548 476.943 46.7122 476.9 46.9492 476.813C47.1862 476.726 47.3913 476.597 47.5645 476.423C47.7376 476.246 47.8721 476.025 47.9678 475.76C48.068 475.491 48.1182 475.177 48.1182 474.817V474.14L47.1406 474.188C46.7305 474.206 46.3864 474.252 46.1084 474.325C45.8304 474.398 45.6071 474.5 45.4385 474.632C45.2744 474.76 45.1559 474.917 45.083 475.104C45.0101 475.286 44.9736 475.494 44.9736 475.726C44.9736 476.145 45.083 476.453 45.3018 476.649C45.5251 476.845 45.8167 476.943 46.1768 476.943ZM60.6553 477.811V472.978C60.6553 472.386 60.5413 471.941 60.3135 471.645C60.0856 471.349 59.7324 471.201 59.2539 471.201C58.9212 471.201 58.6387 471.255 58.4062 471.365C58.1738 471.47 57.9824 471.627 57.832 471.836C57.6862 472.042 57.5791 472.299 57.5107 472.609C57.4424 472.914 57.4082 473.267 57.4082 473.668V477.811H56.1572V472.978C56.1572 472.386 56.0433 471.941 55.8154 471.645C55.5921 471.349 55.2412 471.201 54.7627 471.201C54.4118 471.201 54.1178 471.26 53.8809 471.378C53.6439 471.497 53.4525 471.672 53.3066 471.905C53.1654 472.137 53.0628 472.422 52.999 472.759C52.9398 473.097 52.9102 473.484 52.9102 473.921V477.811H51.666V470.305H52.6777L52.8555 471.317H52.9238C53.0332 471.121 53.1631 470.952 53.3135 470.811C53.4639 470.665 53.6279 470.544 53.8057 470.449C53.988 470.353 54.1794 470.282 54.3799 470.237C54.585 470.191 54.7923 470.168 55.002 470.168C55.5488 470.168 56.0023 470.269 56.3623 470.469C56.7269 470.67 56.9958 470.984 57.1689 471.413H57.2236C57.3421 471.198 57.4834 471.014 57.6475 470.859C57.8161 470.704 57.9984 470.576 58.1943 470.476C58.3949 470.371 58.6045 470.294 58.8232 470.244C59.042 470.194 59.2653 470.168 59.4932 470.168C60.2907 470.168 60.89 470.387 61.291 470.825C61.6966 471.258 61.8994 471.953 61.8994 472.91V477.811H60.6553ZM68.4482 477.811L68.1953 476.772H68.1406C67.9902 476.977 67.8398 477.155 67.6895 477.305C67.5391 477.451 67.375 477.572 67.1973 477.667C67.0195 477.763 66.8213 477.834 66.6025 477.879C66.3838 477.925 66.1309 477.948 65.8438 477.948C65.5293 477.948 65.2399 477.902 64.9756 477.811C64.7113 477.724 64.4811 477.59 64.2852 477.408C64.0938 477.221 63.9434 476.988 63.834 476.71C63.7246 476.428 63.6699 476.095 63.6699 475.712C63.6699 474.965 63.932 474.391 64.4561 473.99C64.9847 473.589 65.7868 473.37 66.8623 473.333L68.1201 473.286V472.814C68.1201 472.509 68.0859 472.253 68.0176 472.048C67.9538 471.843 67.8581 471.679 67.7305 471.556C67.6074 471.429 67.4525 471.337 67.2656 471.283C67.0833 471.228 66.8737 471.201 66.6367 471.201C66.2585 471.201 65.9053 471.255 65.5771 471.365C65.2536 471.474 64.9414 471.606 64.6406 471.761L64.2031 470.825C64.5404 470.642 64.9163 470.487 65.3311 470.36C65.7458 470.232 66.181 470.168 66.6367 470.168C67.1016 470.168 67.5026 470.216 67.8398 470.312C68.1816 470.403 68.4619 470.551 68.6807 470.756C68.904 470.957 69.0703 471.214 69.1797 471.529C69.2891 471.843 69.3438 472.224 69.3438 472.67V477.811H68.4482ZM66.165 476.943C66.443 476.943 66.7005 476.9 66.9375 476.813C67.1745 476.726 67.3796 476.597 67.5527 476.423C67.7259 476.246 67.8604 476.025 67.9561 475.76C68.0563 475.491 68.1064 475.177 68.1064 474.817V474.14L67.1289 474.188C66.7188 474.206 66.3747 474.252 66.0967 474.325C65.8187 474.398 65.5954 474.5 65.4268 474.632C65.2627 474.76 65.1442 474.917 65.0713 475.104C64.9984 475.286 64.9619 475.494 64.9619 475.726C64.9619 476.145 65.0713 476.453 65.29 476.649C65.5133 476.845 65.805 476.943 66.165 476.943Z" fill="white"/>
<circle cx="82.5" cy="472.811" r="1.5" fill="#E1E1E1" fill-opacity="0.5"/>
<path d="M96.4561 477.811H95.1846V473.149H90.6318V477.811H89.3604V467.817H90.6318V472.028H95.1846V467.817H96.4561V477.811ZM105.124 474.044C105.124 474.669 105.047 475.225 104.892 475.712C104.741 476.195 104.522 476.603 104.235 476.936C103.953 477.264 103.609 477.515 103.203 477.688C102.798 477.861 102.342 477.948 101.836 477.948C101.367 477.948 100.934 477.861 100.537 477.688C100.141 477.515 99.7965 477.264 99.5049 476.936C99.2178 476.603 98.9922 476.195 98.8281 475.712C98.6686 475.225 98.5889 474.669 98.5889 474.044C98.5889 473.425 98.6641 472.875 98.8145 472.397C98.9694 471.914 99.1882 471.508 99.4707 471.18C99.7533 470.847 100.097 470.597 100.503 470.428C100.913 470.255 101.371 470.168 101.877 470.168C102.346 470.168 102.779 470.255 103.176 470.428C103.572 470.597 103.914 470.847 104.201 471.18C104.493 471.508 104.718 471.914 104.878 472.397C105.042 472.875 105.124 473.425 105.124 474.044ZM99.874 474.044C99.874 474.997 100.029 475.715 100.339 476.198C100.653 476.676 101.161 476.916 101.863 476.916C102.565 476.916 103.069 476.676 103.374 476.198C103.684 475.715 103.839 474.997 103.839 474.044C103.839 473.092 103.682 472.381 103.367 471.912C103.057 471.438 102.551 471.201 101.85 471.201C101.148 471.201 100.642 471.438 100.332 471.912C100.027 472.381 99.874 473.092 99.874 474.044ZM110.333 470.168C110.465 470.168 110.613 470.175 110.777 470.189C110.941 470.198 111.083 470.214 111.201 470.237L111.037 471.385C110.91 471.362 110.777 471.344 110.641 471.331C110.508 471.312 110.383 471.303 110.265 471.303C109.978 471.303 109.715 471.362 109.479 471.481C109.242 471.595 109.036 471.761 108.863 471.98C108.695 472.194 108.562 472.454 108.467 472.759C108.376 473.06 108.33 473.395 108.33 473.764V477.811H107.086V470.305H108.098L108.248 471.679H108.303C108.417 471.483 108.537 471.294 108.665 471.112C108.797 470.93 108.943 470.77 109.103 470.633C109.267 470.492 109.449 470.38 109.649 470.298C109.85 470.212 110.078 470.168 110.333 470.168ZM115.925 470.168C116.057 470.168 116.205 470.175 116.369 470.189C116.533 470.198 116.674 470.214 116.793 470.237L116.629 471.385C116.501 471.362 116.369 471.344 116.232 471.331C116.1 471.312 115.975 471.303 115.856 471.303C115.569 471.303 115.307 471.362 115.07 471.481C114.833 471.595 114.628 471.761 114.455 471.98C114.286 472.194 114.154 472.454 114.059 472.759C113.967 473.06 113.922 473.395 113.922 473.764V477.811H112.678V470.305H113.689L113.84 471.679H113.895C114.008 471.483 114.129 471.294 114.257 471.112C114.389 470.93 114.535 470.77 114.694 470.633C114.858 470.492 115.041 470.38 115.241 470.298C115.442 470.212 115.67 470.168 115.925 470.168ZM124.388 474.044C124.388 474.669 124.31 475.225 124.155 475.712C124.005 476.195 123.786 476.603 123.499 476.936C123.216 477.264 122.872 477.515 122.467 477.688C122.061 477.861 121.605 477.948 121.1 477.948C120.63 477.948 120.197 477.861 119.801 477.688C119.404 477.515 119.06 477.264 118.769 476.936C118.481 476.603 118.256 476.195 118.092 475.712C117.932 475.225 117.853 474.669 117.853 474.044C117.853 473.425 117.928 472.875 118.078 472.397C118.233 471.914 118.452 471.508 118.734 471.18C119.017 470.847 119.361 470.597 119.767 470.428C120.177 470.255 120.635 470.168 121.141 470.168C121.61 470.168 122.043 470.255 122.439 470.428C122.836 470.597 123.178 470.847 123.465 471.18C123.757 471.508 123.982 471.914 124.142 472.397C124.306 472.875 124.388 473.425 124.388 474.044ZM119.138 474.044C119.138 474.997 119.293 475.715 119.603 476.198C119.917 476.676 120.425 476.916 121.127 476.916C121.829 476.916 122.332 476.676 122.638 476.198C122.948 475.715 123.103 474.997 123.103 474.044C123.103 473.092 122.945 472.381 122.631 471.912C122.321 471.438 121.815 471.201 121.113 471.201C120.411 471.201 119.906 471.438 119.596 471.912C119.29 472.381 119.138 473.092 119.138 474.044ZM129.597 470.168C129.729 470.168 129.877 470.175 130.041 470.189C130.205 470.198 130.346 470.214 130.465 470.237L130.301 471.385C130.173 471.362 130.041 471.344 129.904 471.331C129.772 471.312 129.647 471.303 129.528 471.303C129.241 471.303 128.979 471.362 128.742 471.481C128.505 471.595 128.3 471.761 128.127 471.98C127.958 472.194 127.826 472.454 127.73 472.759C127.639 473.06 127.594 473.395 127.594 473.764V477.811H126.35V470.305H127.361L127.512 471.679H127.566C127.68 471.483 127.801 471.294 127.929 471.112C128.061 470.93 128.207 470.77 128.366 470.633C128.53 470.492 128.713 470.38 128.913 470.298C129.114 470.212 129.341 470.168 129.597 470.168Z" fill="white"/>
<circle cx="142.5" cy="472.811" r="1.5" fill="#E1E1E1" fill-opacity="0.5"/>
<path d="M152.272 477.811H150.994V468.938H148.137V467.817H155.123V468.938H152.272V477.811ZM161.152 477.811V472.978C161.152 472.386 161.032 471.941 160.79 471.645C160.553 471.349 160.179 471.201 159.669 471.201C159.3 471.201 158.99 471.26 158.739 471.378C158.489 471.497 158.286 471.672 158.131 471.905C157.98 472.137 157.871 472.422 157.803 472.759C157.739 473.097 157.707 473.484 157.707 473.921V477.811H156.463V467.174H157.707V470.333L157.652 471.317H157.721C157.835 471.121 157.969 470.952 158.124 470.811C158.284 470.665 158.457 470.544 158.644 470.449C158.83 470.353 159.029 470.282 159.238 470.237C159.448 470.191 159.662 470.168 159.881 470.168C160.715 470.168 161.341 470.387 161.761 470.825C162.185 471.258 162.396 471.953 162.396 472.91V477.811H161.152ZM167.954 470.168C168.086 470.168 168.234 470.175 168.398 470.189C168.562 470.198 168.704 470.214 168.822 470.237L168.658 471.385C168.531 471.362 168.398 471.344 168.262 471.331C168.13 471.312 168.004 471.303 167.886 471.303C167.599 471.303 167.337 471.362 167.1 471.481C166.863 471.595 166.658 471.761 166.484 471.98C166.316 472.194 166.184 472.454 166.088 472.759C165.997 473.06 165.951 473.395 165.951 473.764V477.811H164.707V470.305H165.719L165.869 471.679H165.924C166.038 471.483 166.159 471.294 166.286 471.112C166.418 470.93 166.564 470.77 166.724 470.633C166.888 470.492 167.07 470.38 167.271 470.298C167.471 470.212 167.699 470.168 167.954 470.168ZM171.543 477.811H170.299V470.305H171.543V477.811ZM170.203 468.275C170.203 468.001 170.271 467.803 170.408 467.68C170.549 467.557 170.723 467.496 170.928 467.496C171.028 467.496 171.121 467.512 171.208 467.543C171.299 467.571 171.377 467.616 171.44 467.68C171.509 467.744 171.561 467.826 171.598 467.926C171.639 468.022 171.659 468.138 171.659 468.275C171.659 468.539 171.586 468.737 171.44 468.87C171.299 468.997 171.128 469.061 170.928 469.061C170.723 469.061 170.549 468.997 170.408 468.87C170.271 468.742 170.203 468.544 170.203 468.275ZM175.166 477.811H173.922V467.174H175.166V477.811ZM178.789 477.811H177.545V467.174H178.789V477.811ZM184.135 477.948C183.633 477.948 183.175 477.863 182.761 477.695C182.346 477.526 181.988 477.28 181.688 476.957C181.391 476.633 181.161 476.232 180.997 475.753C180.833 475.275 180.751 474.728 180.751 474.113C180.751 473.493 180.826 472.939 180.977 472.452C181.127 471.964 181.339 471.552 181.612 471.214C181.886 470.873 182.212 470.613 182.59 470.435C182.973 470.257 183.394 470.168 183.854 470.168C184.306 470.168 184.711 470.25 185.071 470.415C185.431 470.574 185.737 470.802 185.987 471.098C186.238 471.39 186.429 471.743 186.562 472.158C186.698 472.568 186.767 473.024 186.767 473.525V474.297H182.036C182.059 475.177 182.243 475.824 182.59 476.239C182.941 476.653 183.46 476.861 184.148 476.861C184.381 476.861 184.595 476.849 184.791 476.827C184.992 476.804 185.183 476.772 185.365 476.731C185.552 476.685 185.732 476.631 185.905 476.567C186.078 476.499 186.254 476.423 186.432 476.341V477.449C186.249 477.535 186.069 477.611 185.892 477.674C185.718 477.738 185.538 477.791 185.352 477.832C185.169 477.873 184.978 477.902 184.777 477.92C184.581 477.939 184.367 477.948 184.135 477.948ZM183.827 471.201C183.308 471.201 182.895 471.378 182.59 471.734C182.289 472.089 182.114 472.607 182.063 473.286H185.427C185.427 472.976 185.395 472.693 185.331 472.438C185.272 472.178 185.176 471.957 185.044 471.775C184.916 471.593 184.752 471.451 184.552 471.351C184.351 471.251 184.11 471.201 183.827 471.201ZM191.907 470.168C192.039 470.168 192.188 470.175 192.352 470.189C192.516 470.198 192.657 470.214 192.775 470.237L192.611 471.385C192.484 471.362 192.352 471.344 192.215 471.331C192.083 471.312 191.957 471.303 191.839 471.303C191.552 471.303 191.29 471.362 191.053 471.481C190.816 471.595 190.611 471.761 190.438 471.98C190.269 472.194 190.137 472.454 190.041 472.759C189.95 473.06 189.904 473.395 189.904 473.764V477.811H188.66V470.305H189.672L189.822 471.679H189.877C189.991 471.483 190.112 471.294 190.239 471.112C190.371 470.93 190.517 470.77 190.677 470.633C190.841 470.492 191.023 470.38 191.224 470.298C191.424 470.212 191.652 470.168 191.907 470.168Z" fill="white"/>
<path d="M297 341.75C301.537 341.75 305.25 345.463 305.25 350C305.25 354.537 301.537 358.25 297 358.25C292.463 358.25 288.75 354.537 288.75 350C288.75 345.463 292.463 341.75 297 341.75ZM297 340.375C291.706 340.375 287.375 344.706 287.375 350C287.375 355.294 291.706 359.625 297 359.625C302.294 359.625 306.625 355.294 306.625 350C306.625 344.706 302.294 340.375 297 340.375Z" fill="white"/>
<path d="M302.5 349.312H297.688V344.5H296.312V349.312H291.5V350.688H296.312V355.5H297.688V350.688H302.5V349.312Z" fill="white"/>
<path d="M299.267 376.276C298.605 375.608 297.916 375.026 297.198 374.532C296.481 374.037 295.809 373.666 295.182 373.419C294.556 373.172 293.981 373.053 293.459 373.063C292.936 373.073 292.529 373.228 292.236 373.529C292.167 373.596 292.108 373.671 292.059 373.755C292.01 373.838 291.975 373.903 291.954 373.95C291.934 373.997 291.906 374.081 291.871 374.201C291.836 374.321 291.812 374.398 291.798 374.432L287.912 386.703L288.152 386.944C287.88 387.124 287.638 387.335 287.426 387.576C287.214 387.816 287.027 388.013 286.867 388.167C286.707 388.321 286.515 388.428 286.292 388.488C286.244 388.501 286.183 388.547 286.11 388.623C286.037 388.7 286 388.769 286 388.829C286 388.949 286.063 389.049 286.188 389.13C286.313 389.21 286.453 389.25 286.606 389.25C286.801 389.25 286.989 389.175 287.17 389.024C287.351 388.874 287.534 388.682 287.718 388.448C287.903 388.214 288.037 388.06 288.121 387.987C288.302 387.833 288.504 387.686 288.726 387.546L288.998 387.796L301.346 383.776C301.617 383.696 301.826 383.575 301.972 383.415C302.265 383.114 302.416 382.698 302.427 382.167C302.437 381.635 302.321 381.05 302.077 380.412C301.833 379.774 301.469 379.092 300.985 378.367C300.501 377.642 299.928 376.945 299.267 376.276ZM298.139 377.369C299.204 378.412 300.014 379.409 300.567 380.362C301.121 381.314 301.255 381.941 300.97 382.242C300.684 382.543 300.061 382.432 299.1 381.911C298.139 381.39 297.129 380.611 296.07 379.575C294.998 378.532 294.185 377.536 293.631 376.587C293.077 375.638 292.943 375.01 293.229 374.702C293.514 374.401 294.139 374.512 295.104 375.033C296.069 375.554 297.08 376.333 298.139 377.369ZM295.851 381.52C296.359 381.954 296.864 382.335 297.366 382.663C297.373 382.676 297.547 382.99 297.888 383.605L297.01 383.896C296.593 383.141 296.206 382.349 295.851 381.52ZM292.289 376.928C292.442 377.256 292.654 377.653 292.926 378.121C293.149 379.084 293.499 380.126 293.976 381.249C294.453 382.372 294.973 383.425 295.538 384.407L294.67 384.688C294.016 383.525 293.445 382.307 292.957 381.034C292.47 379.76 292.17 378.636 292.059 377.66L292.289 376.928ZM291.077 380.598C291.564 382.095 292.25 383.632 293.135 385.21L292.278 385.5C291.589 384.23 291.046 383.037 290.649 381.921L291.077 380.598ZM289.876 384.257C290.147 384.872 290.436 385.457 290.743 386.012L289.886 386.302C289.789 386.122 289.649 385.844 289.468 385.47L289.876 384.257ZM297.554 370L298.076 371.514L296.728 372.456H298.389L298.901 373.97L299.413 372.456H301.064L299.726 371.514L300.249 370.01L298.901 370.942L297.554 370ZM294.629 370L294.347 371.374L295.778 371.644L296.06 370.271L294.629 370ZM304.041 374.131L305.19 372.978L306.684 373.68L305.911 372.276L307.07 371.143L305.43 371.414L304.657 370L304.427 371.584L302.787 371.855L304.281 372.547L304.041 374.131ZM303.654 376.597L305.044 377.479L304.605 379.023L305.9 378.021L307.279 378.903L306.705 377.399L308 376.417L306.339 376.487L305.754 374.993L305.326 376.527L303.654 376.597ZM303.059 372.877L299.946 375.324L300.332 375.775L303.445 373.329L303.059 372.877ZM304.145 377.61L301.711 377.399L301.649 377.981L304.093 378.191L304.145 377.61ZM304.386 380.417L303.936 381.761L305.326 382.192L305.785 380.858L304.386 380.417Z" fill="white"/>
<path d="M296.75 405.833C297.256 405.833 297.667 405.423 297.667 404.917C297.667 404.41 297.256 404 296.75 404C296.244 404 295.833 404.41 295.833 404.917C295.833 405.423 296.244 405.833 296.75 405.833Z" fill="white"/>
<path d="M299.347 413.411H297.819V407.056H295.528C295.325 407.056 295.131 407.139 294.988 407.288C294.844 407.437 294.764 407.639 294.764 407.85C294.764 408.061 294.844 408.263 294.988 408.412C295.131 408.561 295.325 408.644 295.528 408.644H296.292V413.411H294.764C294.561 413.411 294.367 413.495 294.224 413.644C294.08 413.793 294 413.995 294 414.206C294 414.416 294.08 414.618 294.224 414.767C294.367 414.916 294.561 415 294.764 415H299.347C299.55 415 299.744 414.916 299.887 414.767C300.031 414.618 300.111 414.416 300.111 414.206C300.111 413.995 300.031 413.793 299.887 413.644C299.744 413.495 299.55 413.411 299.347 413.411Z" fill="white"/>
<path d="M296.625 400C294.721 400 292.86 400.564 291.278 401.622C289.695 402.68 288.461 404.183 287.733 405.942C287.004 407.7 286.814 409.636 287.185 411.503C287.556 413.37 288.473 415.085 289.819 416.431C291.165 417.777 292.88 418.694 294.747 419.065C296.614 419.436 298.55 419.246 300.308 418.517C302.067 417.789 303.57 416.555 304.628 414.972C305.686 413.39 306.25 411.529 306.25 409.625C306.25 407.072 305.236 404.624 303.431 402.819C301.626 401.014 299.178 400 296.625 400V400ZM296.625 417.646C295.039 417.646 293.488 417.175 292.169 416.294C290.85 415.413 289.822 414.16 289.215 412.694C288.608 411.229 288.449 409.616 288.758 408.06C289.068 406.504 289.832 405.075 290.953 403.953C292.075 402.832 293.504 402.068 295.06 401.758C296.616 401.449 298.229 401.608 299.694 402.215C301.16 402.822 302.413 403.85 303.294 405.169C304.175 406.488 304.646 408.039 304.646 409.625C304.646 410.678 304.438 411.721 304.035 412.694C303.632 413.668 303.041 414.552 302.297 415.297C301.552 416.041 300.668 416.632 299.694 417.035C298.721 417.438 297.678 417.646 296.625 417.646V417.646Z" fill="white"/>
<path d="M301.813 442.75C301.298 442.752 300.791 442.87 300.328 443.095C299.865 443.32 299.458 443.646 299.138 444.049L294.113 440.907C294.296 440.316 294.296 439.683 294.113 439.092L299.138 435.95C299.648 436.582 300.366 437.013 301.163 437.166C301.96 437.32 302.786 437.186 303.494 436.789C304.202 436.392 304.747 435.757 305.032 434.997C305.317 434.236 305.323 433.4 305.05 432.635C304.777 431.871 304.243 431.227 303.541 430.819C302.839 430.411 302.015 430.264 301.216 430.405C300.416 430.546 299.692 430.966 299.172 431.589C298.653 432.213 298.37 433 298.375 433.812C298.379 434.12 298.425 434.425 298.513 434.72L293.487 437.862C293.043 437.303 292.437 436.896 291.752 436.698C291.067 436.5 290.337 436.519 289.663 436.754C288.99 436.989 288.406 437.428 287.993 438.009C287.58 438.591 287.358 439.286 287.358 440C287.358 440.713 287.58 441.409 287.993 441.99C288.406 442.572 288.99 443.011 289.663 443.245C290.337 443.48 291.067 443.5 291.752 443.302C292.437 443.103 293.043 442.696 293.487 442.138L298.513 445.28C298.425 445.574 298.379 445.88 298.375 446.187C298.375 446.867 298.577 447.532 298.955 448.097C299.332 448.662 299.869 449.103 300.497 449.363C301.125 449.623 301.817 449.691 302.483 449.559C303.15 449.426 303.763 449.099 304.243 448.618C304.724 448.137 305.052 447.525 305.184 446.858C305.317 446.191 305.249 445.5 304.989 444.872C304.728 444.244 304.288 443.707 303.723 443.329C303.157 442.951 302.493 442.75 301.813 442.75V442.75ZM301.813 431.75C302.221 431.75 302.619 431.871 302.959 432.097C303.298 432.324 303.562 432.646 303.718 433.023C303.874 433.4 303.915 433.815 303.836 434.215C303.756 434.615 303.56 434.982 303.271 435.271C302.983 435.559 302.615 435.756 302.215 435.835C301.815 435.915 301.4 435.874 301.023 435.718C300.647 435.562 300.325 435.297 300.098 434.958C299.871 434.619 299.75 434.22 299.75 433.812C299.75 433.265 299.968 432.741 300.354 432.354C300.741 431.967 301.266 431.75 301.813 431.75V431.75ZM290.813 442.062C290.405 442.062 290.006 441.941 289.667 441.715C289.328 441.488 289.063 441.166 288.907 440.789C288.751 440.412 288.71 439.997 288.79 439.597C288.869 439.197 289.066 438.83 289.354 438.541C289.643 438.253 290.01 438.056 290.41 437.977C290.81 437.897 291.225 437.938 291.602 438.094C291.979 438.25 292.301 438.515 292.528 438.854C292.754 439.193 292.875 439.592 292.875 440C292.875 440.547 292.658 441.071 292.271 441.458C291.884 441.845 291.36 442.062 290.813 442.062ZM301.813 448.25C301.405 448.25 301.006 448.129 300.667 447.902C300.328 447.676 300.063 447.353 299.907 446.977C299.751 446.6 299.71 446.185 299.79 445.785C299.869 445.385 300.066 445.017 300.354 444.729C300.643 444.44 301.01 444.244 301.41 444.164C301.81 444.085 302.225 444.126 302.602 444.282C302.979 444.438 303.301 444.702 303.528 445.041C303.754 445.381 303.875 445.779 303.875 446.187C303.875 446.734 303.658 447.259 303.271 447.646C302.884 448.032 302.36 448.25 301.813 448.25V448.25Z" fill="white"/>
<path d="M303.416 460.833H291.747C291.103 460.834 290.48 461.059 289.986 461.471C289.492 461.883 289.158 462.456 289.042 463.088L287.878 469.505C287.806 469.901 287.821 470.309 287.924 470.699C288.026 471.088 288.213 471.451 288.471 471.761C288.729 472.07 289.052 472.319 289.417 472.49C289.781 472.661 290.179 472.75 290.582 472.75H294.762L294.249 474.061C294.036 474.635 293.964 475.252 294.042 475.859C294.119 476.467 294.343 477.047 294.694 477.549C295.044 478.051 295.511 478.46 296.055 478.742C296.599 479.024 297.203 479.17 297.815 479.167C297.991 479.166 298.164 479.115 298.312 479.019C298.46 478.923 298.577 478.787 298.649 478.626L301.262 472.75H303.416C304.145 472.75 304.845 472.46 305.36 471.945C305.876 471.429 306.166 470.729 306.166 470V463.583C306.166 462.854 305.876 462.155 305.36 461.639C304.845 461.123 304.145 460.833 303.416 460.833ZM299.749 471.641L297.256 477.251C297.001 477.174 296.764 477.045 296.561 476.873C296.357 476.701 296.191 476.489 296.072 476.25C295.954 476.011 295.885 475.751 295.871 475.485C295.857 475.219 295.898 474.952 295.991 474.703L296.477 473.392C296.58 473.115 296.615 472.817 296.578 472.523C296.542 472.23 296.435 471.949 296.266 471.706C296.098 471.463 295.873 471.264 295.611 471.127C295.349 470.989 295.058 470.917 294.762 470.917H290.582C290.448 470.917 290.315 470.887 290.193 470.83C290.071 470.773 289.963 470.69 289.877 470.587C289.788 470.485 289.724 470.364 289.687 470.234C289.651 470.105 289.643 469.968 289.666 469.835L290.83 463.418C290.869 463.205 290.983 463.012 291.15 462.874C291.318 462.737 291.53 462.663 291.747 462.667H299.749V471.641ZM304.332 470C304.332 470.243 304.236 470.476 304.064 470.648C303.892 470.82 303.659 470.917 303.416 470.917H301.582V462.667H303.416C303.659 462.667 303.892 462.763 304.064 462.935C304.236 463.107 304.332 463.34 304.332 463.583V470Z" fill="white"/>
<path d="M163 226C167.747 226 172.387 227.408 176.334 230.045C180.28 232.682 183.357 236.43 185.173 240.816C186.99 245.201 187.465 250.027 186.539 254.682C185.613 259.338 183.327 263.614 179.971 266.971C176.614 270.327 172.338 272.613 167.682 273.539C163.027 274.465 158.201 273.99 153.816 272.173C149.43 270.357 145.682 267.28 143.045 263.334C140.408 259.387 139 254.747 139 250C139 243.635 141.529 237.53 146.029 233.029C150.53 228.529 156.635 226 163 226V226ZM163 222C157.462 222 152.049 223.642 147.444 226.719C142.839 229.796 139.251 234.169 137.131 239.285C135.012 244.401 134.458 250.031 135.538 255.463C136.618 260.894 139.285 265.883 143.201 269.799C147.117 273.715 152.106 276.382 157.537 277.462C162.969 278.542 168.599 277.988 173.715 275.869C178.831 273.749 183.204 270.161 186.281 265.556C189.358 260.951 191 255.538 191 250C191 242.574 188.05 235.452 182.799 230.201C177.548 224.95 170.426 222 163 222V222Z" fill="white" fill-opacity="0.6"/>
<path d="M155 264C154.641 264 154.289 263.903 153.98 263.72C153.681 263.543 153.434 263.291 153.262 262.99C153.09 262.688 153 262.347 153 262V238C153 237.653 153.09 237.312 153.262 237.01C153.434 236.709 153.681 236.457 153.98 236.28C154.284 236.104 154.629 236.012 154.98 236.012C155.331 236.012 155.676 236.104 155.98 236.28L177.98 248.28C178.298 248.451 178.563 248.705 178.748 249.015C178.932 249.325 179.03 249.679 179.03 250.04C179.03 250.401 178.932 250.755 178.748 251.065C178.563 251.375 178.298 251.629 177.98 251.8L155.98 263.8C155.676 263.949 155.338 264.017 155 264V264ZM157 241.36V258.64L172.82 250L157 241.36Z" fill="white" fill-opacity="0.6"/>
<defs>
<linearGradient id="paint0_linear" x1="24.3621" y1="148" x2="263.98" y2="150.08" gradientUnits="userSpaceOnUse">
<stop stop-opacity="0"/>
<stop stop-opacity="0"/>
<stop offset="1"/>
</linearGradient>
<clipPath id="clip0">
<rect width="60.0157" height="15.1496" fill="white" transform="translate(27.9922 361.331)"/>
</clipPath>
</defs>
</svg>
