<svg width="326" height="500" viewBox="0 0 326 500" fill="none" xmlns="http://www.w3.org/2000/svg">
<g filter="url(#filter0_b)">
<rect width="314" height="326" transform="translate(326 186) rotate(90)" fill="url(#paint0_linear)"/>
<path d="M21 368.906C21 363.435 25.4349 359 30.9055 359H85.0945C90.5651 359 95 363.435 95 368.906V368.906C95 374.376 90.5651 378.811 85.0945 378.811H30.9055C25.4349 378.811 21 374.376 21 368.906V368.906Z" fill="#111111" fill-opacity="0.2"/>
<g clip-path="url(#clip0)">
<path d="M38.8511 368.045C38.8511 367.434 38.4178 366.922 37.8436 366.799C38.073 366.416 38.2138 365.974 38.2138 365.496C38.2138 364.09 37.0705 362.946 35.6646 362.946C34.6978 362.946 33.8668 363.493 33.4341 364.287C33.0013 363.493 32.1703 362.946 31.2035 362.946C29.7976 362.946 28.6543 364.09 28.6543 365.496C28.6543 366.07 28.8531 366.596 29.175 367.023C29.0141 367.14 28.8832 367.294 28.7927 367.472C28.7023 367.649 28.6549 367.845 28.6543 368.045V373.143C28.6543 373.846 29.226 374.418 29.9289 374.418H37.5765C38.2795 374.418 38.8511 373.846 38.8511 373.143V371.462L41.4004 372.737V368.275L38.8511 369.55V368.045ZM35.6646 364.221C36.3676 364.221 36.9392 364.793 36.9392 365.496C36.9392 366.199 36.3676 366.77 35.6646 366.77C34.9617 366.77 34.39 366.199 34.39 365.496C34.39 364.793 34.9617 364.221 35.6646 364.221ZM31.2035 364.221C31.9065 364.221 32.4781 364.793 32.4781 365.496C32.4781 366.199 31.9065 366.77 31.2035 366.77C30.5006 366.77 29.9289 366.199 29.9289 365.496C29.9289 364.793 30.5006 364.221 31.2035 364.221ZM29.9289 373.143V368.045H37.5765L37.5778 373.143H29.9289Z" fill="white"/>
<path d="M55.4394 364.566V365.591H52.3667V374.331H51.1035V365.591H48.0307V364.566H55.4394ZM56.8119 374.331V367.161H57.6654L57.8907 368.076C58.5189 367.466 59.2746 367.161 60.1577 367.161V368.213C59.3019 368.213 58.6077 368.515 58.0751 369.121V374.331H56.8119ZM61.0864 372.166C61.0864 370.696 62.056 369.961 63.9952 369.961C64.6188 369.961 65.2425 370.006 65.8661 370.097V369.421C65.8661 368.597 65.222 368.185 63.9337 368.185C63.1963 368.185 62.4406 368.299 61.6668 368.527V367.502C62.4406 367.275 63.1963 367.161 63.9337 367.161C66.0641 367.161 67.1294 367.903 67.1294 369.387V374.331H66.4192L65.9822 373.621C65.2675 374.094 64.4891 374.331 63.6469 374.331C61.9399 374.331 61.0864 373.609 61.0864 372.166ZM63.9952 370.985C62.8981 370.985 62.3496 371.372 62.3496 372.146C62.3496 372.92 62.782 373.306 63.6469 373.306C64.521 373.306 65.2607 373.074 65.8661 372.61V371.121C65.2425 371.03 64.6188 370.985 63.9952 370.985ZM70.5844 367.161V374.331H69.3212V367.161H70.5844ZM70.5844 364.566V365.761H69.3212V364.566H70.5844ZM74.1078 364.566V374.331H72.8446V364.566H74.1078ZM79.188 367.161C81.2274 367.161 82.2471 368.169 82.2471 370.186C82.2471 370.473 82.2266 370.78 82.1856 371.108H77.1532C77.1532 372.574 78.009 373.306 79.7206 373.306C80.5355 373.306 81.2593 373.215 81.892 373.033V374.058C81.2593 374.24 80.49 374.331 79.5841 374.331C77.1214 374.331 75.89 373.108 75.89 370.664C75.89 368.329 76.9893 367.161 79.188 367.161ZM77.1532 370.056H81.0317C81.0044 368.8 80.3898 368.172 79.188 368.172C77.9134 368.172 77.2352 368.8 77.1532 370.056ZM83.9473 374.331V367.161H84.8009L85.0262 368.076C85.6544 367.466 86.4101 367.161 87.2932 367.161V368.213C86.4374 368.213 85.7432 368.515 85.2106 369.121V374.331H83.9473Z" fill="white"/>
</g>
<path d="M30.9055 360.165H85.0945V357.835H30.9055V360.165ZM85.0945 377.646H30.9055V379.976H85.0945V377.646ZM30.9055 377.646C26.0785 377.646 22.1654 373.733 22.1654 368.906H19.8346C19.8346 375.02 24.7912 379.976 30.9055 379.976V377.646ZM93.8346 368.906C93.8346 373.733 89.9215 377.646 85.0945 377.646V379.976C91.2088 379.976 96.1654 375.02 96.1654 368.906H93.8346ZM85.0945 360.165C89.9215 360.165 93.8346 364.078 93.8346 368.906H96.1654C96.1654 362.791 91.2088 357.835 85.0945 357.835V360.165ZM30.9055 357.835C24.7912 357.835 19.8346 362.791 19.8346 368.906H22.1654C22.1654 364.078 26.0785 360.165 30.9055 360.165V357.835Z" fill="white"/>
<path d="M23.9004 404.811H21.2441L27.1719 390.846H29.9551L36.0098 404.811H33.2266L31.6348 401.002H26.9961L27.8848 398.756H30.6973L28.5 393.512L23.9004 404.811ZM41.8691 404.225V401.881C43.2689 402.402 44.8509 402.663 46.6152 402.663C48.7572 402.663 49.8281 401.946 49.8281 400.514C49.8281 399.472 49.1706 398.952 47.8555 398.952H45.668C42.8099 398.952 41.3809 397.65 41.3809 395.045C41.3809 392.181 43.4154 390.749 47.4844 390.749C49.0469 390.749 50.528 390.976 51.9277 391.432V393.776C50.528 393.255 49.0469 392.995 47.4844 392.995C45.1406 392.995 43.9688 393.678 43.9688 395.045C43.9688 396.087 44.5352 396.608 45.668 396.608H47.8555C50.8958 396.608 52.416 397.91 52.416 400.514C52.416 403.444 50.4824 404.909 46.6152 404.909C44.8509 404.909 43.2689 404.681 41.8691 404.225ZM56.957 390.846V392.897H54.3691V390.846H56.957ZM56.957 394.557V404.811H54.3691V394.557H56.957ZM59.4082 404.811V394.557H61.4102L61.7129 396.042C62.6309 395.052 63.7344 394.557 65.0234 394.557C66.3125 394.557 67.1947 395.026 67.6699 395.963C68.7181 395.026 69.8151 394.557 70.9609 394.557C73.3177 394.557 74.4961 395.856 74.4961 398.454V404.811H71.9082V398.356C71.9082 397.217 71.3939 396.647 70.3652 396.647C69.597 396.647 68.8581 396.992 68.1484 397.682V404.811H65.5605V398.385C65.5605 397.226 65.0853 396.647 64.1348 396.647C63.3796 396.647 62.6667 396.992 61.9961 397.682V404.811H59.4082ZM79.5352 402.135C80.1797 402.487 80.873 402.663 81.6152 402.663C83.1582 402.663 83.9297 401.579 83.9297 399.411C83.9297 397.568 83.0768 396.647 81.3711 396.647C80.6354 396.647 80.0234 396.693 79.5352 396.784V402.135ZM76.9473 394.977C78.3079 394.697 79.7467 394.557 81.2637 394.557C84.7467 394.557 86.4883 396.181 86.4883 399.43C86.4883 403.017 84.8672 404.811 81.625 404.811C80.9349 404.811 80.2383 404.648 79.5352 404.323V408.522H76.9473V394.977ZM91.0391 390.846V404.811H88.4512V390.846H91.0391ZM97.8164 394.557C100.928 394.557 102.484 396.146 102.484 399.323C102.484 399.746 102.455 400.169 102.396 400.592H95.5898C95.5898 402.038 96.651 402.76 98.7734 402.76C99.8086 402.76 100.844 402.663 101.879 402.467V404.518C100.974 404.713 99.8737 404.811 98.5781 404.811C94.8607 404.811 93.002 403.063 93.002 399.567C93.002 396.227 94.6068 394.557 97.8164 394.557ZM95.5898 398.795H99.9648V398.717C99.9648 397.298 99.2487 396.588 97.8164 396.588C96.4492 396.588 95.707 397.324 95.5898 398.795ZM118.236 390.846V393.073H111.635V396.588H117.904V398.903H111.605V404.811H109.066V390.846H118.236ZM119.701 401.618C119.701 399.58 121.186 398.561 124.154 398.561C124.851 398.561 125.548 398.626 126.244 398.756V397.985C126.244 397.067 125.583 396.608 124.262 396.608C123.142 396.608 121.898 396.771 120.531 397.096V395.045C121.898 394.72 123.142 394.557 124.262 394.557C127.309 394.557 128.832 395.683 128.832 397.936V404.811H127.328L126.41 403.893C125.518 404.505 124.535 404.811 123.461 404.811C120.954 404.811 119.701 403.747 119.701 401.618ZM126.244 400.514C125.593 400.384 124.896 400.319 124.154 400.319C122.911 400.319 122.289 400.742 122.289 401.588C122.289 402.5 122.81 402.956 123.852 402.956C124.711 402.956 125.508 402.689 126.244 402.155V400.514ZM130.062 394.557H132.797L135.287 401.725L137.875 394.557H140.609L136.439 404.811H133.979L130.062 394.557ZM143.93 399.645C143.93 401.787 144.76 402.858 146.42 402.858C148.08 402.858 148.91 401.787 148.91 399.645C148.91 397.555 148.08 396.51 146.42 396.51C144.76 396.51 143.93 397.555 143.93 399.645ZM141.342 399.684C141.342 396.247 143.035 394.528 146.42 394.528C149.805 394.528 151.498 396.247 151.498 399.684C151.498 403.115 149.805 404.831 146.42 404.831C143.048 404.831 141.355 403.115 141.342 399.684ZM153.451 404.811V394.557H155.453L155.775 395.866C156.674 394.993 157.624 394.557 158.627 394.557V396.647C157.663 396.647 156.801 397.047 156.039 397.848V404.811H153.451Z" fill="white"/>
<path d="M27.25 419.342L25.4727 422.944L21.5 423.518L24.375 426.323L23.6953 430.28L27.25 428.413L30.8047 430.28L30.125 426.323L33 423.522L29.0273 422.944L27.25 419.342Z" fill="#F39B13"/>
<path d="M39.7715 419.66C40.1543 419.66 40.5143 419.71 40.8516 419.81C41.1934 419.91 41.4919 420.061 41.7471 420.261C42.0068 420.462 42.2119 420.712 42.3623 421.013C42.5127 421.314 42.5879 421.665 42.5879 422.066C42.5879 422.371 42.5423 422.647 42.4512 422.893C42.36 423.139 42.2347 423.362 42.0752 423.563C41.9157 423.759 41.7266 423.937 41.5078 424.096C41.2891 424.251 41.0521 424.392 40.7969 424.52C41.0612 424.661 41.3187 424.819 41.5693 424.992C41.8245 425.165 42.0501 425.361 42.2461 425.58C42.4466 425.794 42.6061 426.035 42.7246 426.304C42.8477 426.573 42.9092 426.874 42.9092 427.207C42.9092 427.626 42.8317 428.006 42.6768 428.348C42.5264 428.685 42.3122 428.972 42.0342 429.209C41.7607 429.446 41.4303 429.629 41.043 429.756C40.6602 429.884 40.2363 429.948 39.7715 429.948C39.2702 429.948 38.8236 429.886 38.4316 429.763C38.0443 429.64 37.7161 429.465 37.4473 429.237C37.1829 429.004 36.9801 428.722 36.8389 428.389C36.7021 428.056 36.6338 427.681 36.6338 427.261C36.6338 426.919 36.6839 426.612 36.7842 426.338C36.889 426.065 37.028 425.819 37.2012 425.6C37.3743 425.381 37.5794 425.188 37.8164 425.019C38.0534 424.85 38.304 424.702 38.5684 424.575C38.3451 424.433 38.1354 424.281 37.9395 424.117C37.7435 423.948 37.5726 423.761 37.4268 423.556C37.2855 423.351 37.1715 423.125 37.085 422.879C37.0029 422.629 36.9619 422.353 36.9619 422.052C36.9619 421.656 37.0371 421.309 37.1875 421.013C37.3424 420.712 37.5498 420.462 37.8096 420.261C38.0693 420.061 38.3678 419.91 38.7051 419.81C39.0469 419.71 39.4023 419.66 39.7715 419.66ZM37.8574 427.275C37.8574 427.516 37.8939 427.74 37.9668 427.945C38.0397 428.145 38.1536 428.319 38.3086 428.464C38.4635 428.606 38.6595 428.717 38.8965 428.799C39.1335 428.877 39.416 428.916 39.7441 428.916C40.0632 428.916 40.3434 428.877 40.585 428.799C40.8311 428.717 41.0361 428.603 41.2002 428.458C41.3643 428.307 41.4873 428.127 41.5693 427.917C41.6514 427.708 41.6924 427.475 41.6924 427.22C41.6924 426.983 41.6468 426.769 41.5557 426.578C41.4691 426.386 41.3415 426.208 41.1729 426.044C41.0088 425.88 40.8105 425.725 40.5781 425.58C40.3457 425.434 40.0859 425.29 39.7988 425.149L39.5938 425.053C39.0195 425.327 38.5866 425.641 38.2949 425.997C38.0033 426.347 37.8574 426.774 37.8574 427.275ZM39.7578 420.699C39.2747 420.699 38.8896 420.819 38.6025 421.061C38.32 421.303 38.1787 421.653 38.1787 422.114C38.1787 422.374 38.2174 422.597 38.2949 422.784C38.377 422.971 38.4886 423.137 38.6299 423.283C38.7712 423.429 38.9398 423.561 39.1357 423.679C39.3363 423.793 39.5527 423.905 39.7852 424.014C40.0039 423.914 40.209 423.805 40.4004 423.686C40.5964 423.568 40.765 423.433 40.9062 423.283C41.0521 423.132 41.166 422.961 41.248 422.77C41.3301 422.579 41.3711 422.36 41.3711 422.114C41.3711 421.653 41.2275 421.303 40.9404 421.061C40.6533 420.819 40.2591 420.699 39.7578 420.699ZM44.625 429.052C44.625 428.879 44.6478 428.733 44.6934 428.615C44.7389 428.492 44.8005 428.394 44.8779 428.321C44.9554 428.243 45.0465 428.189 45.1514 428.157C45.2562 428.12 45.3701 428.102 45.4932 428.102C45.6117 428.102 45.7233 428.12 45.8281 428.157C45.9375 428.189 46.0309 428.243 46.1084 428.321C46.1859 428.394 46.2474 428.492 46.293 428.615C46.3385 428.733 46.3613 428.879 46.3613 429.052C46.3613 429.221 46.3385 429.367 46.293 429.49C46.2474 429.608 46.1859 429.706 46.1084 429.784C46.0309 429.861 45.9375 429.918 45.8281 429.955C45.7233 429.991 45.6117 430.009 45.4932 430.009C45.3701 430.009 45.2562 429.991 45.1514 429.955C45.0465 429.918 44.9554 429.861 44.8779 429.784C44.8005 429.706 44.7389 429.608 44.6934 429.49C44.6478 429.367 44.625 429.221 44.625 429.052ZM53.9492 422.155C53.9492 422.487 53.8968 422.791 53.792 423.064C53.6872 423.337 53.5391 423.574 53.3477 423.775C53.1608 423.975 52.9352 424.142 52.6709 424.274C52.4066 424.402 52.1126 424.493 51.7891 424.547V424.588C52.5957 424.689 53.2087 424.946 53.6279 425.361C54.0472 425.771 54.2568 426.306 54.2568 426.967C54.2568 427.405 54.1816 427.806 54.0312 428.17C53.8854 428.535 53.6621 428.849 53.3613 429.114C53.0605 429.378 52.68 429.583 52.2197 429.729C51.7594 429.875 51.2148 429.948 50.5859 429.948C50.0892 429.948 49.6198 429.909 49.1777 429.832C48.7402 429.754 48.3278 429.613 47.9404 429.408V428.246C48.3369 428.455 48.7653 428.617 49.2256 428.731C49.6904 428.845 50.1348 428.902 50.5586 428.902C50.9779 428.902 51.3402 428.856 51.6455 428.765C51.9508 428.674 52.2015 428.544 52.3975 428.375C52.598 428.207 52.7438 428 52.835 427.753C52.9307 427.507 52.9785 427.232 52.9785 426.926C52.9785 426.616 52.917 426.352 52.7939 426.133C52.6755 425.91 52.5046 425.728 52.2812 425.586C52.0579 425.441 51.7845 425.333 51.4609 425.265C51.1419 425.197 50.7796 425.163 50.374 425.163H49.4648V424.13H50.374C50.7432 424.13 51.0713 424.085 51.3584 423.994C51.6455 423.903 51.8848 423.773 52.0762 423.604C52.2721 423.435 52.4202 423.235 52.5205 423.002C52.6208 422.77 52.6709 422.515 52.6709 422.237C52.6709 422 52.6299 421.788 52.5479 421.601C52.4658 421.414 52.3496 421.257 52.1992 421.129C52.0488 420.997 51.8688 420.897 51.6592 420.829C51.4495 420.76 51.2171 420.726 50.9619 420.726C50.4743 420.726 50.0436 420.804 49.6699 420.958C49.3008 421.109 48.9476 421.307 48.6104 421.553L47.9814 420.699C48.1546 420.557 48.346 420.425 48.5557 420.302C48.7699 420.179 49.0023 420.072 49.2529 419.981C49.5036 419.885 49.7702 419.81 50.0527 419.755C50.3398 419.701 50.6429 419.673 50.9619 419.673C51.4541 419.673 51.8848 419.735 52.2539 419.858C52.6276 419.981 52.9398 420.154 53.1904 420.377C53.4411 420.596 53.6302 420.858 53.7578 421.164C53.8854 421.464 53.9492 421.795 53.9492 422.155Z" fill="white"/>
<path d="M60.1523 420.036V429.811H58.8877V420.036H60.1523ZM62.6885 429.811V420.036H64.2949L67.8838 428.191L71.4043 420.036H72.9424V429.811H71.8145V421.792L68.3418 429.811H67.3438L63.8164 421.792V429.811H62.6885ZM78.8213 428.786C81.2139 428.786 82.4102 427.409 82.4102 424.657C82.4102 422.26 81.2139 421.061 78.8213 421.061H76.5312V428.786H78.8213ZM75.2666 429.811V420.036H78.8213C82.057 420.036 83.6748 421.576 83.6748 424.657C83.6748 428.093 82.057 429.811 78.8213 429.811H75.2666ZM86.6484 428.56C87.0632 428.692 87.5667 428.758 88.1592 428.758C89.7542 428.758 90.5518 427.849 90.5518 426.031C90.5518 424.495 89.8294 423.727 88.3848 423.727C87.7285 423.727 87.1497 423.85 86.6484 424.096V428.56ZM85.3838 420.036H86.6484V422.975C87.1908 422.747 87.7718 422.633 88.3916 422.633C90.6611 422.633 91.7959 423.782 91.7959 426.079C91.7959 428.567 90.6042 429.811 88.2207 429.811C87.1908 429.811 86.2451 429.713 85.3838 429.517V420.036Z" fill="white"/>
<path d="M28.2666 453.811H21.5605V452.341L23.9121 449.805C24.2083 449.486 24.4772 449.192 24.7188 448.923C24.9603 448.654 25.1676 448.392 25.3408 448.137C25.514 447.882 25.6484 447.622 25.7441 447.358C25.8398 447.094 25.8877 446.809 25.8877 446.503C25.8877 446.166 25.7852 445.904 25.5801 445.717C25.3796 445.53 25.1084 445.437 24.7666 445.437C24.4066 445.437 24.0602 445.526 23.7275 445.704C23.3949 445.881 23.0462 446.134 22.6816 446.462L21.5332 445.102C21.7383 444.915 21.9525 444.737 22.1758 444.569C22.3991 444.396 22.6452 444.243 22.9141 444.111C23.1829 443.979 23.4792 443.874 23.8027 443.796C24.1263 443.714 24.4886 443.673 24.8896 443.673C25.3682 443.673 25.7965 443.739 26.1748 443.872C26.5576 444.004 26.8835 444.193 27.1523 444.439C27.4212 444.681 27.6263 444.974 27.7676 445.321C27.9134 445.667 27.9863 446.057 27.9863 446.49C27.9863 446.882 27.918 447.258 27.7812 447.618C27.6445 447.973 27.4577 448.324 27.2207 448.67C26.9837 449.012 26.708 449.354 26.3936 449.696C26.0837 450.033 25.751 450.377 25.3955 450.728L24.1924 451.938V452.034H28.2666V453.811ZM40.0723 453.811H37.9873V449.347C37.9873 448.796 37.9007 448.383 37.7275 448.11C37.5589 447.832 37.2969 447.693 36.9414 447.693C36.6725 447.693 36.4469 447.748 36.2646 447.857C36.0824 447.966 35.9365 448.128 35.8271 448.342C35.7178 448.556 35.6403 448.821 35.5947 449.135C35.5492 449.45 35.5264 449.81 35.5264 450.215V453.811H33.4414V443.174H35.5264V445.341C35.5264 445.533 35.5218 445.736 35.5127 445.95C35.5036 446.159 35.4922 446.353 35.4785 446.531C35.4603 446.74 35.4443 446.945 35.4307 447.146H35.54C35.7633 446.75 36.0482 446.465 36.3945 446.292C36.7409 446.114 37.1328 446.025 37.5703 446.025C37.9486 446.025 38.2904 446.08 38.5957 446.189C38.9056 446.294 39.1699 446.46 39.3887 446.688C39.6074 446.916 39.776 447.208 39.8945 447.563C40.013 447.914 40.0723 448.335 40.0723 448.828V453.811ZM46.2041 446.025C46.2588 446.025 46.318 446.027 46.3818 446.032C46.4502 446.032 46.514 446.036 46.5732 446.045C46.637 446.05 46.694 446.057 46.7441 446.066C46.7988 446.07 46.8398 446.077 46.8672 446.086V448.042C46.8307 448.032 46.7806 448.023 46.7168 448.014C46.653 448.005 46.5846 447.998 46.5117 447.994C46.4434 447.985 46.375 447.98 46.3066 447.98C46.2383 447.975 46.1813 447.973 46.1357 447.973C45.8669 447.973 45.6185 448.007 45.3906 448.076C45.1673 448.144 44.9736 448.256 44.8096 448.411C44.6501 448.561 44.5247 448.762 44.4336 449.012C44.347 449.258 44.3037 449.561 44.3037 449.921V453.811H42.2188V446.168H43.7979L44.1055 447.317H44.208C44.3174 447.121 44.4359 446.943 44.5635 446.784C44.6911 446.624 44.8324 446.49 44.9873 446.38C45.1468 446.266 45.3245 446.18 45.5205 446.121C45.721 446.057 45.9489 446.025 46.2041 446.025ZM54.9336 447.426C55.362 447.426 55.7607 447.492 56.1299 447.625C56.499 447.757 56.8203 447.95 57.0938 448.206C57.3672 448.461 57.5814 448.78 57.7363 449.163C57.8913 449.541 57.9688 449.976 57.9688 450.468C57.9688 451.011 57.8844 451.498 57.7158 451.931C57.5472 452.36 57.2988 452.724 56.9707 453.025C56.6426 453.321 56.2347 453.549 55.7471 453.708C55.264 453.868 54.708 453.948 54.0791 453.948C53.8285 453.948 53.5801 453.936 53.334 453.914C53.0879 453.891 52.8509 453.857 52.623 453.811C52.3997 453.77 52.1855 453.715 51.9805 453.647C51.7799 453.579 51.5977 453.499 51.4336 453.408V451.583C51.5931 451.674 51.7777 451.76 51.9873 451.842C52.1969 451.92 52.4134 451.988 52.6367 452.047C52.8646 452.102 53.0924 452.148 53.3203 452.184C53.5482 452.216 53.7646 452.232 53.9697 452.232C54.5804 452.232 55.0452 452.107 55.3643 451.856C55.6833 451.601 55.8428 451.197 55.8428 450.646C55.8428 450.154 55.6855 449.78 55.3711 449.525C55.0612 449.265 54.5804 449.135 53.9287 449.135C53.8102 449.135 53.6826 449.142 53.5459 449.156C53.4137 449.169 53.2816 449.188 53.1494 449.21C53.0218 449.233 52.8988 449.258 52.7803 449.286C52.6618 449.308 52.5592 449.333 52.4727 449.361L51.6318 448.91L52.0078 443.817H57.2852V445.608H53.8398L53.6758 447.57C53.8216 447.538 53.9902 447.506 54.1816 447.474C54.3776 447.442 54.6283 447.426 54.9336 447.426ZM69.8496 453.811H67.7646V449.347C67.7646 448.796 67.6826 448.383 67.5186 448.11C67.3545 447.832 67.097 447.693 66.7461 447.693C66.4818 447.693 66.2607 447.748 66.083 447.857C65.9098 447.966 65.7708 448.128 65.666 448.342C65.5612 448.556 65.486 448.821 65.4404 449.135C65.3949 449.45 65.3721 449.81 65.3721 450.215V453.811H63.2871V446.168H64.8799L65.1602 447.146H65.2764C65.3857 446.95 65.5156 446.781 65.666 446.64C65.821 446.499 65.9896 446.383 66.1719 446.292C66.3542 446.2 66.5479 446.134 66.7529 446.093C66.958 446.048 67.1654 446.025 67.375 446.025C67.8991 446.025 68.3434 446.116 68.708 446.298C69.0771 446.476 69.3597 446.759 69.5557 447.146H69.7266C69.8359 446.95 69.9681 446.781 70.123 446.64C70.278 446.499 70.4489 446.383 70.6357 446.292C70.8226 446.2 71.0186 446.134 71.2236 446.093C71.4333 446.048 71.6429 446.025 71.8525 446.025C72.6729 446.025 73.2904 446.248 73.7051 446.695C74.1243 447.137 74.334 447.848 74.334 448.828V453.811H72.2422V449.347C72.2422 448.796 72.1602 448.383 71.9961 448.11C71.832 447.832 71.5745 447.693 71.2236 447.693C70.7269 447.693 70.3737 447.891 70.1641 448.288C69.9544 448.68 69.8496 449.242 69.8496 449.976V453.811ZM76.3916 444.193C76.3916 443.997 76.4212 443.835 76.4805 443.708C76.5397 443.575 76.6195 443.471 76.7197 443.393C76.8245 443.311 76.9453 443.254 77.082 443.222C77.2233 443.19 77.3714 443.174 77.5264 443.174C77.6813 443.174 77.8271 443.19 77.9639 443.222C78.1006 443.254 78.2191 443.311 78.3193 443.393C78.4242 443.471 78.5062 443.575 78.5654 443.708C78.6292 443.835 78.6611 443.997 78.6611 444.193C78.6611 444.384 78.6292 444.546 78.5654 444.678C78.5062 444.81 78.4242 444.917 78.3193 445C78.2191 445.077 78.1006 445.134 77.9639 445.17C77.8271 445.202 77.6813 445.218 77.5264 445.218C77.3714 445.218 77.2233 445.202 77.082 445.17C76.9453 445.134 76.8245 445.077 76.7197 445C76.6195 444.917 76.5397 444.81 76.4805 444.678C76.4212 444.546 76.3916 444.384 76.3916 444.193ZM78.5654 453.811H76.4805V446.168H78.5654V453.811ZM87.3906 453.811H85.3057V449.347C85.3057 448.796 85.2214 448.383 85.0527 448.11C84.8887 447.832 84.6243 447.693 84.2598 447.693C83.9863 447.693 83.7585 447.748 83.5762 447.857C83.3939 447.966 83.248 448.128 83.1387 448.342C83.0339 448.556 82.9587 448.821 82.9131 449.135C82.8675 449.45 82.8447 449.81 82.8447 450.215V453.811H80.7598V446.168H82.3525L82.6328 447.146H82.749C82.8584 446.95 82.9906 446.781 83.1455 446.64C83.305 446.499 83.4782 446.383 83.665 446.292C83.8519 446.2 84.0501 446.134 84.2598 446.093C84.4694 446.048 84.6836 446.025 84.9023 446.025C85.276 446.025 85.6156 446.08 85.9209 446.189C86.2262 446.294 86.4883 446.46 86.707 446.688C86.9258 446.916 87.0944 447.208 87.2129 447.563C87.3314 447.914 87.3906 448.335 87.3906 448.828V453.811Z" fill="white"/>
<path d="M104.267 453.811H97.5605V452.341L99.9121 449.805C100.208 449.486 100.477 449.192 100.719 448.923C100.96 448.654 101.168 448.392 101.341 448.137C101.514 447.882 101.648 447.622 101.744 447.358C101.84 447.094 101.888 446.809 101.888 446.503C101.888 446.166 101.785 445.904 101.58 445.717C101.38 445.53 101.108 445.437 100.767 445.437C100.407 445.437 100.06 445.526 99.7275 445.704C99.3949 445.881 99.0462 446.134 98.6816 446.462L97.5332 445.102C97.7383 444.915 97.9525 444.737 98.1758 444.569C98.3991 444.396 98.6452 444.243 98.9141 444.111C99.1829 443.979 99.4792 443.874 99.8027 443.796C100.126 443.714 100.489 443.673 100.89 443.673C101.368 443.673 101.797 443.739 102.175 443.872C102.558 444.004 102.883 444.193 103.152 444.439C103.421 444.681 103.626 444.974 103.768 445.321C103.913 445.667 103.986 446.057 103.986 446.49C103.986 446.882 103.918 447.258 103.781 447.618C103.645 447.973 103.458 448.324 103.221 448.67C102.984 449.012 102.708 449.354 102.394 449.696C102.084 450.033 101.751 450.377 101.396 450.728L100.192 451.938V452.034H104.267V453.811ZM111.991 448.814C111.991 449.621 111.927 450.341 111.8 450.974C111.677 451.608 111.476 452.145 111.198 452.587C110.925 453.029 110.569 453.367 110.132 453.599C109.699 453.832 109.175 453.948 108.56 453.948C107.981 453.948 107.477 453.832 107.049 453.599C106.62 453.367 106.265 453.029 105.982 452.587C105.7 452.145 105.488 451.608 105.347 450.974C105.21 450.341 105.142 449.621 105.142 448.814C105.142 448.007 105.203 447.285 105.326 446.647C105.454 446.009 105.654 445.469 105.928 445.027C106.201 444.585 106.554 444.248 106.987 444.015C107.42 443.778 107.944 443.66 108.56 443.66C109.134 443.66 109.635 443.776 110.063 444.008C110.492 444.241 110.85 444.578 111.137 445.02C111.424 445.462 111.638 446.002 111.779 446.64C111.921 447.278 111.991 448.003 111.991 448.814ZM107.247 448.814C107.247 449.953 107.345 450.81 107.541 451.384C107.737 451.958 108.076 452.246 108.56 452.246C109.034 452.246 109.373 451.961 109.578 451.391C109.788 450.821 109.893 449.962 109.893 448.814C109.893 447.67 109.788 446.811 109.578 446.237C109.373 445.658 109.034 445.369 108.56 445.369C108.318 445.369 108.113 445.442 107.944 445.587C107.78 445.733 107.646 445.95 107.541 446.237C107.436 446.524 107.361 446.884 107.315 447.317C107.27 447.745 107.247 448.244 107.247 448.814ZM118.007 453.811H115.895V448.028C115.895 447.909 115.895 447.768 115.895 447.604C115.899 447.435 115.904 447.262 115.908 447.084C115.917 446.902 115.924 446.72 115.929 446.538C115.938 446.355 115.945 446.189 115.949 446.039C115.926 446.066 115.888 446.107 115.833 446.162C115.778 446.216 115.717 446.278 115.648 446.346C115.58 446.41 115.509 446.476 115.437 446.544C115.364 446.613 115.293 446.674 115.225 446.729L114.076 447.652L113.051 446.38L116.271 443.817H118.007V453.811ZM127.345 448.083C127.345 448.561 127.317 449.04 127.263 449.518C127.213 449.992 127.119 450.445 126.982 450.878C126.85 451.311 126.668 451.717 126.436 452.095C126.208 452.469 125.916 452.792 125.561 453.066C125.21 453.339 124.786 453.556 124.289 453.715C123.797 453.87 123.218 453.948 122.553 453.948C122.457 453.948 122.352 453.945 122.238 453.941C122.124 453.936 122.008 453.93 121.89 453.92C121.776 453.916 121.664 453.907 121.555 453.893C121.445 453.884 121.35 453.87 121.268 453.852V452.157C121.436 452.202 121.616 452.239 121.808 452.266C122.004 452.289 122.202 452.3 122.402 452.3C123.018 452.3 123.523 452.225 123.92 452.075C124.316 451.92 124.631 451.706 124.863 451.432C125.096 451.154 125.26 450.824 125.355 450.441C125.456 450.058 125.517 449.637 125.54 449.176H125.451C125.36 449.34 125.251 449.493 125.123 449.634C124.995 449.776 124.845 449.899 124.672 450.003C124.499 450.108 124.303 450.19 124.084 450.25C123.865 450.309 123.621 450.338 123.353 450.338C122.92 450.338 122.53 450.268 122.184 450.126C121.837 449.985 121.543 449.78 121.302 449.511C121.065 449.242 120.882 448.912 120.755 448.52C120.627 448.128 120.563 447.679 120.563 447.173C120.563 446.631 120.639 446.146 120.789 445.717C120.944 445.289 121.163 444.927 121.445 444.63C121.728 444.33 122.07 444.099 122.471 443.94C122.876 443.78 123.33 443.701 123.831 443.701C124.323 443.701 124.784 443.79 125.212 443.967C125.64 444.14 126.012 444.407 126.326 444.767C126.641 445.127 126.889 445.583 127.071 446.134C127.254 446.686 127.345 447.335 127.345 448.083ZM123.872 445.396C123.685 445.396 123.514 445.43 123.359 445.499C123.204 445.567 123.07 445.674 122.956 445.82C122.847 445.961 122.76 446.143 122.696 446.367C122.637 446.585 122.607 446.845 122.607 447.146C122.607 447.629 122.71 448.012 122.915 448.294C123.12 448.577 123.43 448.718 123.845 448.718C124.054 448.718 124.246 448.677 124.419 448.595C124.592 448.513 124.74 448.406 124.863 448.274C124.986 448.142 125.08 447.994 125.144 447.83C125.212 447.666 125.246 447.499 125.246 447.331C125.246 447.098 125.216 446.868 125.157 446.64C125.103 446.408 125.016 446.2 124.897 446.018C124.784 445.831 124.64 445.681 124.467 445.567C124.298 445.453 124.1 445.396 123.872 445.396Z" fill="white"/>
<path d="M144.939 445.871C144.591 445.871 144.275 445.937 143.992 446.071C143.709 446.201 143.466 446.39 143.265 446.637C143.066 446.885 142.911 447.186 142.801 447.541C142.693 447.895 142.64 448.296 142.64 448.742C142.64 449.201 142.687 449.609 142.781 449.967C142.879 450.322 143.024 450.622 143.216 450.866C143.408 451.11 143.647 451.295 143.934 451.422C144.22 451.549 144.555 451.613 144.939 451.613C145.229 451.613 145.504 451.585 145.765 451.53C146.025 451.471 146.282 451.404 146.536 451.33V452.121C146.409 452.169 146.282 452.213 146.155 452.252C146.028 452.288 145.895 452.318 145.755 452.34C145.618 452.363 145.47 452.379 145.311 452.389C145.154 452.402 144.98 452.409 144.788 452.409C144.254 452.409 143.792 452.321 143.401 452.145C143.011 451.969 142.687 451.72 142.43 451.398C142.176 451.076 141.987 450.688 141.863 450.236C141.74 449.783 141.678 449.282 141.678 448.732C141.678 448.192 141.748 447.697 141.888 447.248C142.031 446.798 142.239 446.413 142.513 446.09C142.789 445.768 143.131 445.517 143.538 445.338C143.945 445.159 144.412 445.07 144.939 445.07C145.291 445.07 145.626 445.106 145.945 445.177C146.264 445.249 146.552 445.353 146.81 445.49L146.429 446.251C146.224 446.147 146.001 446.058 145.76 445.983C145.519 445.908 145.245 445.871 144.939 445.871ZM150.77 445.871C150.421 445.871 150.105 445.937 149.822 446.071C149.539 446.201 149.297 446.39 149.095 446.637C148.896 446.885 148.742 447.186 148.631 447.541C148.523 447.895 148.47 448.296 148.47 448.742C148.47 449.201 148.517 449.609 148.611 449.967C148.709 450.322 148.854 450.622 149.046 450.866C149.238 451.11 149.477 451.295 149.764 451.422C150.05 451.549 150.385 451.613 150.77 451.613C151.059 451.613 151.334 451.585 151.595 451.53C151.855 451.471 152.112 451.404 152.366 451.33V452.121C152.239 452.169 152.112 452.213 151.985 452.252C151.858 452.288 151.725 452.318 151.585 452.34C151.448 452.363 151.3 452.379 151.141 452.389C150.984 452.402 150.81 452.409 150.618 452.409C150.084 452.409 149.622 452.321 149.231 452.145C148.841 451.969 148.517 451.72 148.26 451.398C148.006 451.076 147.817 450.688 147.693 450.236C147.57 449.783 147.508 449.282 147.508 448.732C147.508 448.192 147.578 447.697 147.718 447.248C147.861 446.798 148.069 446.413 148.343 446.09C148.619 445.768 148.961 445.517 149.368 445.338C149.775 445.159 150.242 445.07 150.77 445.07C151.121 445.07 151.456 445.106 151.775 445.177C152.094 445.249 152.382 445.353 152.64 445.49L152.259 446.251C152.054 446.147 151.831 446.058 151.59 445.983C151.349 445.908 151.076 445.871 150.77 445.871Z" fill="white"/>
<path d="M139 442.811H155V440.811H139V442.811ZM157 444.811V452.811H159V444.811H157ZM155 454.811H139V456.811H155V454.811ZM137 452.811V444.811H135V452.811H137ZM139 454.811C137.895 454.811 137 453.916 137 452.811H135C135 455.02 136.791 456.811 139 456.811V454.811ZM157 452.811C157 453.916 156.105 454.811 155 454.811V456.811C157.209 456.811 159 455.02 159 452.811H157ZM155 442.811C156.105 442.811 157 443.706 157 444.811H159C159 442.602 157.209 440.811 155 440.811V442.811ZM139 440.811C136.791 440.811 135 442.602 135 444.811H137C137 443.706 137.895 442.811 139 442.811V440.811Z" fill="white"/>
<path d="M172.931 449.362V452.311H172.022V445.172H173.761C174.627 445.172 175.266 445.34 175.68 445.675C176.093 446.011 176.3 446.518 176.3 447.199C176.3 447.482 176.259 447.729 176.178 447.941C176.1 448.153 175.994 448.335 175.86 448.488C175.73 448.638 175.58 448.763 175.411 448.864C175.242 448.965 175.068 449.048 174.889 449.113L176.832 452.311H175.763L174.049 449.362H172.931ZM172.931 448.59H173.731C174.024 448.59 174.273 448.563 174.479 448.507C174.684 448.449 174.851 448.364 174.981 448.253C175.115 448.139 175.211 448 175.27 447.833C175.331 447.664 175.362 447.467 175.362 447.243C175.362 447.008 175.328 446.81 175.26 446.647C175.195 446.484 175.094 446.351 174.957 446.247C174.824 446.142 174.653 446.068 174.444 446.022C174.239 445.973 173.995 445.949 173.712 445.949H172.931V448.59Z" fill="white"/>
<path d="M169 442.811H179V440.811H169V442.811ZM181 444.811V452.811H183V444.811H181ZM179 454.811H169V456.811H179V454.811ZM167 452.811V444.811H165V452.811H167ZM169 454.811C167.895 454.811 167 453.916 167 452.811H165C165 455.02 166.791 456.811 169 456.811V454.811ZM181 452.811C181 453.916 180.105 454.811 179 454.811V456.811C181.209 456.811 183 455.02 183 452.811H181ZM179 442.811C180.105 442.811 181 443.706 181 444.811H183C183 442.602 181.209 440.811 179 440.811V442.811ZM169 440.811C166.791 440.811 165 442.602 165 444.811H167C167 443.706 167.895 442.811 169 442.811V440.811Z" fill="white"/>
<circle cx="22.5" cy="472.811" r="1.5" fill="#E1E1E1" fill-opacity="0.5"/>
<path d="M36.7227 472.718C36.7227 473.561 36.6133 474.302 36.3945 474.94C36.1758 475.573 35.859 476.104 35.4443 476.533C35.0296 476.957 34.5192 477.276 33.9131 477.49C33.3115 477.704 32.6279 477.811 31.8623 477.811H29.3604V467.817H32.1426C32.8398 467.817 33.471 467.922 34.0361 468.131C34.6012 468.341 35.082 468.653 35.4785 469.068C35.875 469.478 36.1803 469.988 36.3945 470.599C36.6133 471.21 36.7227 471.916 36.7227 472.718ZM35.376 472.759C35.376 472.094 35.3008 471.52 35.1504 471.037C35 470.549 34.7812 470.148 34.4941 469.833C34.207 469.519 33.8538 469.287 33.4346 469.136C33.0153 468.981 32.5391 468.904 32.0059 468.904H30.6318V476.717H31.7393C32.9424 476.717 33.8493 476.385 34.46 475.719C35.0706 475.054 35.376 474.067 35.376 472.759ZM42.0205 470.168C42.1527 470.168 42.3008 470.175 42.4648 470.189C42.6289 470.198 42.7702 470.214 42.8887 470.237L42.7246 471.385C42.597 471.362 42.4648 471.344 42.3281 471.331C42.196 471.312 42.0706 471.303 41.9521 471.303C41.665 471.303 41.403 471.362 41.166 471.481C40.929 471.595 40.724 471.761 40.5508 471.98C40.3822 472.194 40.25 472.454 40.1543 472.759C40.0632 473.06 40.0176 473.395 40.0176 473.764V477.811H38.7734V470.305H39.7852L39.9355 471.679H39.9902C40.1042 471.483 40.2249 471.294 40.3525 471.112C40.4847 470.93 40.6305 470.77 40.79 470.633C40.9541 470.492 41.1364 470.38 41.3369 470.298C41.5374 470.212 41.7653 470.168 42.0205 470.168ZM48.46 477.811L48.207 476.772H48.1523C48.002 476.977 47.8516 477.155 47.7012 477.305C47.5508 477.451 47.3867 477.572 47.209 477.667C47.0312 477.763 46.833 477.834 46.6143 477.879C46.3955 477.925 46.1426 477.948 45.8555 477.948C45.541 477.948 45.2516 477.902 44.9873 477.811C44.723 477.724 44.4928 477.59 44.2969 477.408C44.1055 477.221 43.9551 476.988 43.8457 476.71C43.7363 476.428 43.6816 476.095 43.6816 475.712C43.6816 474.965 43.9437 474.391 44.4678 473.99C44.9964 473.589 45.7985 473.37 46.874 473.333L48.1318 473.286V472.814C48.1318 472.509 48.0977 472.253 48.0293 472.048C47.9655 471.843 47.8698 471.679 47.7422 471.556C47.6191 471.429 47.4642 471.337 47.2773 471.283C47.0951 471.228 46.8854 471.201 46.6484 471.201C46.2702 471.201 45.917 471.255 45.5889 471.365C45.2653 471.474 44.9531 471.606 44.6523 471.761L44.2148 470.825C44.5521 470.642 44.9281 470.487 45.3428 470.36C45.7575 470.232 46.1927 470.168 46.6484 470.168C47.1133 470.168 47.5143 470.216 47.8516 470.312C48.1934 470.403 48.4736 470.551 48.6924 470.756C48.9157 470.957 49.082 471.214 49.1914 471.529C49.3008 471.843 49.3555 472.224 49.3555 472.67V477.811H48.46ZM46.1768 476.943C46.4548 476.943 46.7122 476.9 46.9492 476.813C47.1862 476.726 47.3913 476.597 47.5645 476.423C47.7376 476.246 47.8721 476.025 47.9678 475.76C48.068 475.491 48.1182 475.177 48.1182 474.817V474.14L47.1406 474.188C46.7305 474.206 46.3864 474.252 46.1084 474.325C45.8304 474.398 45.6071 474.5 45.4385 474.632C45.2744 474.76 45.1559 474.917 45.083 475.104C45.0101 475.286 44.9736 475.494 44.9736 475.726C44.9736 476.145 45.083 476.453 45.3018 476.649C45.5251 476.845 45.8167 476.943 46.1768 476.943ZM60.6553 477.811V472.978C60.6553 472.386 60.5413 471.941 60.3135 471.645C60.0856 471.349 59.7324 471.201 59.2539 471.201C58.9212 471.201 58.6387 471.255 58.4062 471.365C58.1738 471.47 57.9824 471.627 57.832 471.836C57.6862 472.042 57.5791 472.299 57.5107 472.609C57.4424 472.914 57.4082 473.267 57.4082 473.668V477.811H56.1572V472.978C56.1572 472.386 56.0433 471.941 55.8154 471.645C55.5921 471.349 55.2412 471.201 54.7627 471.201C54.4118 471.201 54.1178 471.26 53.8809 471.378C53.6439 471.497 53.4525 471.672 53.3066 471.905C53.1654 472.137 53.0628 472.422 52.999 472.759C52.9398 473.097 52.9102 473.484 52.9102 473.921V477.811H51.666V470.305H52.6777L52.8555 471.317H52.9238C53.0332 471.121 53.1631 470.952 53.3135 470.811C53.4639 470.665 53.6279 470.544 53.8057 470.449C53.988 470.353 54.1794 470.282 54.3799 470.237C54.585 470.191 54.7923 470.168 55.002 470.168C55.5488 470.168 56.0023 470.269 56.3623 470.469C56.7269 470.67 56.9958 470.984 57.1689 471.413H57.2236C57.3421 471.198 57.4834 471.014 57.6475 470.859C57.8161 470.704 57.9984 470.576 58.1943 470.476C58.3949 470.371 58.6045 470.294 58.8232 470.244C59.042 470.194 59.2653 470.168 59.4932 470.168C60.2907 470.168 60.89 470.387 61.291 470.825C61.6966 471.258 61.8994 471.953 61.8994 472.91V477.811H60.6553ZM68.4482 477.811L68.1953 476.772H68.1406C67.9902 476.977 67.8398 477.155 67.6895 477.305C67.5391 477.451 67.375 477.572 67.1973 477.667C67.0195 477.763 66.8213 477.834 66.6025 477.879C66.3838 477.925 66.1309 477.948 65.8438 477.948C65.5293 477.948 65.2399 477.902 64.9756 477.811C64.7113 477.724 64.4811 477.59 64.2852 477.408C64.0938 477.221 63.9434 476.988 63.834 476.71C63.7246 476.428 63.6699 476.095 63.6699 475.712C63.6699 474.965 63.932 474.391 64.4561 473.99C64.9847 473.589 65.7868 473.37 66.8623 473.333L68.1201 473.286V472.814C68.1201 472.509 68.0859 472.253 68.0176 472.048C67.9538 471.843 67.8581 471.679 67.7305 471.556C67.6074 471.429 67.4525 471.337 67.2656 471.283C67.0833 471.228 66.8737 471.201 66.6367 471.201C66.2585 471.201 65.9053 471.255 65.5771 471.365C65.2536 471.474 64.9414 471.606 64.6406 471.761L64.2031 470.825C64.5404 470.642 64.9163 470.487 65.3311 470.36C65.7458 470.232 66.181 470.168 66.6367 470.168C67.1016 470.168 67.5026 470.216 67.8398 470.312C68.1816 470.403 68.4619 470.551 68.6807 470.756C68.904 470.957 69.0703 471.214 69.1797 471.529C69.2891 471.843 69.3438 472.224 69.3438 472.67V477.811H68.4482ZM66.165 476.943C66.443 476.943 66.7005 476.9 66.9375 476.813C67.1745 476.726 67.3796 476.597 67.5527 476.423C67.7259 476.246 67.8604 476.025 67.9561 475.76C68.0563 475.491 68.1064 475.177 68.1064 474.817V474.14L67.1289 474.188C66.7188 474.206 66.3747 474.252 66.0967 474.325C65.8187 474.398 65.5954 474.5 65.4268 474.632C65.2627 474.76 65.1442 474.917 65.0713 475.104C64.9984 475.286 64.9619 475.494 64.9619 475.726C64.9619 476.145 65.0713 476.453 65.29 476.649C65.5133 476.845 65.805 476.943 66.165 476.943Z" fill="white"/>
<g clip-path="url(#clip1)">
<circle cx="82.5" cy="472.811" r="1.5" fill="#E1E1E1" fill-opacity="0.5"/>
<path d="M90.6318 473.682V477.811H89.3604V467.817H91.7939C93.0062 467.817 93.9017 468.052 94.4805 468.521C95.0592 468.99 95.3486 469.701 95.3486 470.654C95.3486 471.05 95.2917 471.397 95.1777 471.693C95.0684 471.989 94.9202 472.244 94.7334 472.458C94.5511 472.668 94.3415 472.844 94.1045 472.985C93.8675 473.126 93.6237 473.242 93.373 473.333L96.0938 477.811H94.5967L92.1973 473.682H90.6318ZM90.6318 472.602H91.7529C92.1631 472.602 92.5117 472.563 92.7988 472.486C93.0859 472.404 93.3206 472.285 93.5029 472.13C93.6898 471.971 93.8242 471.775 93.9062 471.542C93.9928 471.306 94.0361 471.03 94.0361 470.715C94.0361 470.387 93.9883 470.109 93.8926 469.881C93.8014 469.653 93.6602 469.467 93.4688 469.321C93.2819 469.175 93.0426 469.07 92.751 469.006C92.4639 468.938 92.1221 468.904 91.7256 468.904H90.6318V472.602ZM100.414 477.948C99.9128 477.948 99.4548 477.863 99.04 477.695C98.6253 477.526 98.2676 477.28 97.9668 476.957C97.6706 476.633 97.4404 476.232 97.2764 475.753C97.1123 475.275 97.0303 474.728 97.0303 474.113C97.0303 473.493 97.1055 472.939 97.2559 472.452C97.4062 471.964 97.6182 471.552 97.8916 471.214C98.165 470.873 98.4909 470.613 98.8691 470.435C99.252 470.257 99.6735 470.168 100.134 470.168C100.585 470.168 100.991 470.25 101.351 470.415C101.711 470.574 102.016 470.802 102.267 471.098C102.517 471.39 102.709 471.743 102.841 472.158C102.978 472.568 103.046 473.024 103.046 473.525V474.297H98.3154C98.3382 475.177 98.5228 475.824 98.8691 476.239C99.2201 476.653 99.7396 476.861 100.428 476.861C100.66 476.861 100.874 476.849 101.07 476.827C101.271 476.804 101.462 476.772 101.645 476.731C101.831 476.685 102.011 476.631 102.185 476.567C102.358 476.499 102.533 476.423 102.711 476.341V477.449C102.529 477.535 102.349 477.611 102.171 477.674C101.998 477.738 101.818 477.791 101.631 477.832C101.449 477.873 101.257 477.902 101.057 477.92C100.861 477.939 100.646 477.948 100.414 477.948ZM100.106 471.201C99.5869 471.201 99.1745 471.378 98.8691 471.734C98.5684 472.089 98.3929 472.607 98.3428 473.286H101.706C101.706 472.976 101.674 472.693 101.61 472.438C101.551 472.178 101.455 471.957 101.323 471.775C101.196 471.593 101.032 471.451 100.831 471.351C100.631 471.251 100.389 471.201 100.106 471.201ZM109.171 477.811L108.918 476.772H108.863C108.713 476.977 108.562 477.155 108.412 477.305C108.262 477.451 108.098 477.572 107.92 477.667C107.742 477.763 107.544 477.834 107.325 477.879C107.106 477.925 106.854 477.948 106.566 477.948C106.252 477.948 105.963 477.902 105.698 477.811C105.434 477.724 105.204 477.59 105.008 477.408C104.816 477.221 104.666 476.988 104.557 476.71C104.447 476.428 104.393 476.095 104.393 475.712C104.393 474.965 104.655 474.391 105.179 473.99C105.707 473.589 106.509 473.37 107.585 473.333L108.843 473.286V472.814C108.843 472.509 108.809 472.253 108.74 472.048C108.676 471.843 108.581 471.679 108.453 471.556C108.33 471.429 108.175 471.337 107.988 471.283C107.806 471.228 107.596 471.201 107.359 471.201C106.981 471.201 106.628 471.255 106.3 471.365C105.976 471.474 105.664 471.606 105.363 471.761L104.926 470.825C105.263 470.642 105.639 470.487 106.054 470.36C106.468 470.232 106.904 470.168 107.359 470.168C107.824 470.168 108.225 470.216 108.562 470.312C108.904 470.403 109.185 470.551 109.403 470.756C109.627 470.957 109.793 471.214 109.902 471.529C110.012 471.843 110.066 472.224 110.066 472.67V477.811H109.171ZM106.888 476.943C107.166 476.943 107.423 476.9 107.66 476.813C107.897 476.726 108.102 476.597 108.275 476.423C108.449 476.246 108.583 476.025 108.679 475.76C108.779 475.491 108.829 475.177 108.829 474.817V474.14L107.852 474.188C107.441 474.206 107.097 474.252 106.819 474.325C106.541 474.398 106.318 474.5 106.149 474.632C105.985 474.76 105.867 474.917 105.794 475.104C105.721 475.286 105.685 475.494 105.685 475.726C105.685 476.145 105.794 476.453 106.013 476.649C106.236 476.845 106.528 476.943 106.888 476.943ZM113.621 477.811H112.377V467.174H113.621V477.811ZM117.244 477.811H116V470.305H117.244V477.811ZM115.904 468.275C115.904 468.001 115.973 467.803 116.109 467.68C116.251 467.557 116.424 467.496 116.629 467.496C116.729 467.496 116.823 467.512 116.909 467.543C117 467.571 117.078 467.616 117.142 467.68C117.21 467.744 117.262 467.826 117.299 467.926C117.34 468.022 117.36 468.138 117.36 468.275C117.36 468.539 117.287 468.737 117.142 468.87C117 468.997 116.829 469.061 116.629 469.061C116.424 469.061 116.251 468.997 116.109 468.87C115.973 468.742 115.904 468.544 115.904 468.275ZM121.893 476.929C121.975 476.929 122.066 476.925 122.166 476.916C122.271 476.906 122.371 476.895 122.467 476.881C122.562 476.868 122.649 476.852 122.727 476.833C122.809 476.815 122.87 476.799 122.911 476.786V477.729C122.852 477.756 122.777 477.784 122.686 477.811C122.594 477.838 122.494 477.861 122.385 477.879C122.275 477.902 122.161 477.918 122.043 477.927C121.924 477.941 121.808 477.948 121.694 477.948C121.412 477.948 121.15 477.911 120.908 477.838C120.667 477.765 120.457 477.64 120.279 477.462C120.106 477.285 119.969 477.045 119.869 476.745C119.769 476.439 119.719 476.056 119.719 475.596V471.242H118.659V470.688L119.719 470.155L120.252 468.583H120.97V470.305H122.856V471.242H120.97V475.596C120.97 476.038 121.04 476.371 121.182 476.594C121.327 476.818 121.564 476.929 121.893 476.929ZM123.246 470.305H124.538L126.008 474.496C126.072 474.678 126.135 474.869 126.199 475.07C126.268 475.27 126.329 475.471 126.384 475.671C126.443 475.872 126.493 476.066 126.534 476.252C126.575 476.439 126.605 476.612 126.623 476.772H126.664C126.687 476.658 126.723 476.503 126.773 476.307C126.824 476.111 126.878 475.904 126.938 475.685C127.001 475.462 127.065 475.243 127.129 475.029C127.197 474.815 127.257 474.632 127.307 474.482L128.667 470.305H129.952L126.985 478.789C126.858 479.158 126.719 479.488 126.568 479.78C126.423 480.076 126.252 480.327 126.056 480.532C125.86 480.737 125.63 480.894 125.365 481.003C125.101 481.117 124.786 481.174 124.422 481.174C124.185 481.174 123.98 481.161 123.807 481.133C123.633 481.111 123.485 481.085 123.362 481.058V480.067C123.458 480.09 123.579 480.108 123.725 480.122C123.87 480.14 124.023 480.149 124.183 480.149C124.401 480.149 124.59 480.122 124.75 480.067C124.91 480.017 125.049 479.942 125.167 479.841C125.285 479.741 125.386 479.618 125.468 479.472C125.554 479.326 125.632 479.16 125.7 478.973L126.09 477.879L123.246 470.305Z" fill="white"/>
</g>
<path d="M297 341.75C301.537 341.75 305.25 345.463 305.25 350C305.25 354.537 301.537 358.25 297 358.25C292.463 358.25 288.75 354.537 288.75 350C288.75 345.463 292.463 341.75 297 341.75ZM297 340.375C291.706 340.375 287.375 344.706 287.375 350C287.375 355.294 291.706 359.625 297 359.625C302.294 359.625 306.625 355.294 306.625 350C306.625 344.706 302.294 340.375 297 340.375Z" fill="white"/>
<path d="M302.5 349.312H297.688V344.5H296.312V349.312H291.5V350.688H296.312V355.5H297.688V350.688H302.5V349.312Z" fill="white"/>
<path d="M299.267 376.276C298.605 375.608 297.916 375.026 297.198 374.532C296.481 374.037 295.809 373.666 295.182 373.419C294.556 373.172 293.981 373.053 293.459 373.063C292.936 373.073 292.529 373.228 292.236 373.529C292.167 373.596 292.108 373.671 292.059 373.755C292.01 373.838 291.975 373.903 291.954 373.95C291.934 373.997 291.906 374.081 291.871 374.201C291.836 374.321 291.812 374.398 291.798 374.432L287.912 386.703L288.152 386.944C287.88 387.124 287.638 387.335 287.426 387.576C287.214 387.816 287.027 388.013 286.867 388.167C286.707 388.321 286.515 388.428 286.292 388.488C286.244 388.501 286.183 388.547 286.11 388.623C286.037 388.7 286 388.769 286 388.829C286 388.949 286.063 389.049 286.188 389.13C286.313 389.21 286.453 389.25 286.606 389.25C286.801 389.25 286.989 389.175 287.17 389.024C287.351 388.874 287.534 388.682 287.718 388.448C287.903 388.214 288.037 388.06 288.121 387.987C288.302 387.833 288.504 387.686 288.726 387.546L288.998 387.796L301.346 383.776C301.617 383.696 301.826 383.575 301.972 383.415C302.265 383.114 302.416 382.698 302.427 382.167C302.437 381.635 302.321 381.05 302.077 380.412C301.833 379.774 301.469 379.092 300.985 378.367C300.501 377.642 299.928 376.945 299.267 376.276ZM298.139 377.369C299.204 378.412 300.014 379.409 300.567 380.362C301.121 381.314 301.255 381.941 300.97 382.242C300.684 382.543 300.061 382.432 299.1 381.911C298.139 381.39 297.129 380.611 296.07 379.575C294.998 378.532 294.185 377.536 293.631 376.587C293.077 375.638 292.943 375.01 293.229 374.702C293.514 374.401 294.139 374.512 295.104 375.033C296.069 375.554 297.08 376.333 298.139 377.369ZM295.851 381.52C296.359 381.954 296.864 382.335 297.366 382.663C297.373 382.676 297.547 382.99 297.888 383.605L297.01 383.896C296.593 383.141 296.206 382.349 295.851 381.52ZM292.289 376.928C292.442 377.256 292.654 377.653 292.926 378.121C293.149 379.084 293.499 380.126 293.976 381.249C294.453 382.372 294.973 383.425 295.538 384.407L294.67 384.688C294.016 383.525 293.445 382.307 292.957 381.034C292.47 379.76 292.17 378.636 292.059 377.66L292.289 376.928ZM291.077 380.598C291.564 382.095 292.25 383.632 293.135 385.21L292.278 385.5C291.589 384.23 291.046 383.037 290.649 381.921L291.077 380.598ZM289.876 384.257C290.147 384.872 290.436 385.457 290.743 386.012L289.886 386.302C289.789 386.122 289.649 385.844 289.468 385.47L289.876 384.257ZM297.554 370L298.076 371.514L296.728 372.456H298.389L298.901 373.97L299.413 372.456H301.064L299.726 371.514L300.249 370.01L298.901 370.942L297.554 370ZM294.629 370L294.347 371.374L295.778 371.644L296.06 370.271L294.629 370ZM304.041 374.131L305.19 372.978L306.684 373.68L305.911 372.276L307.07 371.143L305.43 371.414L304.657 370L304.427 371.584L302.787 371.855L304.281 372.547L304.041 374.131ZM303.654 376.597L305.044 377.479L304.605 379.023L305.9 378.021L307.279 378.903L306.705 377.399L308 376.417L306.339 376.487L305.754 374.993L305.326 376.527L303.654 376.597ZM303.059 372.877L299.946 375.324L300.332 375.775L303.445 373.329L303.059 372.877ZM304.145 377.61L301.711 377.399L301.649 377.981L304.093 378.191L304.145 377.61ZM304.386 380.417L303.936 381.761L305.326 382.192L305.785 380.858L304.386 380.417Z" fill="white"/>
<path d="M296.75 405.833C297.256 405.833 297.667 405.423 297.667 404.917C297.667 404.41 297.256 404 296.75 404C296.244 404 295.833 404.41 295.833 404.917C295.833 405.423 296.244 405.833 296.75 405.833Z" fill="white"/>
<path d="M299.347 413.411H297.819V407.056H295.528C295.325 407.056 295.131 407.139 294.988 407.288C294.844 407.437 294.764 407.639 294.764 407.85C294.764 408.061 294.844 408.263 294.988 408.412C295.131 408.561 295.325 408.644 295.528 408.644H296.292V413.411H294.764C294.561 413.411 294.367 413.495 294.224 413.644C294.08 413.793 294 413.995 294 414.206C294 414.416 294.08 414.618 294.224 414.767C294.367 414.916 294.561 415 294.764 415H299.347C299.55 415 299.744 414.916 299.887 414.767C300.031 414.618 300.111 414.416 300.111 414.206C300.111 413.995 300.031 413.793 299.887 413.644C299.744 413.495 299.55 413.411 299.347 413.411Z" fill="white"/>
<path d="M296.625 400C294.721 400 292.86 400.564 291.278 401.622C289.695 402.68 288.461 404.183 287.733 405.942C287.004 407.7 286.814 409.636 287.185 411.503C287.556 413.37 288.473 415.085 289.819 416.431C291.165 417.777 292.88 418.694 294.747 419.065C296.614 419.436 298.55 419.246 300.308 418.517C302.067 417.789 303.57 416.555 304.628 414.972C305.686 413.39 306.25 411.529 306.25 409.625C306.25 407.072 305.236 404.624 303.431 402.819C301.626 401.014 299.178 400 296.625 400V400ZM296.625 417.646C295.039 417.646 293.488 417.175 292.169 416.294C290.85 415.413 289.822 414.16 289.215 412.694C288.608 411.229 288.449 409.616 288.758 408.06C289.068 406.504 289.832 405.075 290.953 403.953C292.075 402.832 293.504 402.068 295.06 401.758C296.616 401.449 298.229 401.608 299.694 402.215C301.16 402.822 302.413 403.85 303.294 405.169C304.175 406.488 304.646 408.039 304.646 409.625C304.646 410.678 304.438 411.721 304.035 412.694C303.632 413.668 303.041 414.552 302.297 415.297C301.552 416.041 300.668 416.632 299.694 417.035C298.721 417.438 297.678 417.646 296.625 417.646V417.646Z" fill="white"/>
<path d="M301.813 442.75C301.298 442.752 300.791 442.87 300.328 443.095C299.865 443.32 299.459 443.646 299.139 444.049L294.113 440.907C294.296 440.316 294.296 439.683 294.113 439.092L299.139 435.95C299.649 436.582 300.366 437.013 301.163 437.166C301.96 437.32 302.786 437.186 303.494 436.789C304.202 436.392 304.747 435.757 305.032 434.997C305.317 434.236 305.323 433.4 305.05 432.635C304.777 431.871 304.243 431.227 303.541 430.819C302.839 430.411 302.015 430.264 301.216 430.405C300.416 430.546 299.692 430.966 299.173 431.589C298.653 432.213 298.37 433 298.375 433.812C298.379 434.12 298.425 434.425 298.513 434.72L293.487 437.862C293.044 437.303 292.437 436.896 291.752 436.698C291.067 436.5 290.337 436.519 289.663 436.754C288.99 436.989 288.406 437.428 287.993 438.009C287.58 438.591 287.358 439.286 287.358 440C287.358 440.713 287.58 441.409 287.993 441.99C288.406 442.572 288.99 443.011 289.663 443.245C290.337 443.48 291.067 443.5 291.752 443.302C292.437 443.103 293.044 442.696 293.487 442.138L298.513 445.28C298.425 445.574 298.379 445.88 298.375 446.187C298.375 446.867 298.577 447.532 298.955 448.097C299.332 448.662 299.869 449.103 300.497 449.363C301.126 449.623 301.817 449.691 302.484 449.559C303.15 449.426 303.763 449.099 304.244 448.618C304.724 448.137 305.052 447.525 305.184 446.858C305.317 446.191 305.249 445.5 304.989 444.872C304.729 444.244 304.288 443.707 303.723 443.329C303.157 442.951 302.493 442.75 301.813 442.75V442.75ZM301.813 431.75C302.221 431.75 302.62 431.871 302.959 432.097C303.298 432.324 303.562 432.646 303.718 433.023C303.875 433.4 303.915 433.815 303.836 434.215C303.756 434.615 303.56 434.982 303.271 435.271C302.983 435.559 302.615 435.756 302.215 435.835C301.815 435.915 301.4 435.874 301.024 435.718C300.647 435.562 300.325 435.297 300.098 434.958C299.871 434.619 299.75 434.22 299.75 433.812C299.75 433.265 299.968 432.741 300.354 432.354C300.741 431.967 301.266 431.75 301.813 431.75V431.75ZM290.813 442.062C290.405 442.062 290.006 441.941 289.667 441.715C289.328 441.488 289.064 441.166 288.907 440.789C288.751 440.412 288.71 439.997 288.79 439.597C288.87 439.197 289.066 438.83 289.354 438.541C289.643 438.253 290.01 438.056 290.411 437.977C290.811 437.897 291.225 437.938 291.602 438.094C291.979 438.25 292.301 438.515 292.528 438.854C292.754 439.193 292.875 439.592 292.875 440C292.875 440.547 292.658 441.071 292.271 441.458C291.885 441.845 291.36 442.062 290.813 442.062ZM301.813 448.25C301.405 448.25 301.006 448.129 300.667 447.902C300.328 447.676 300.064 447.353 299.907 446.977C299.751 446.6 299.71 446.185 299.79 445.785C299.87 445.385 300.066 445.017 300.354 444.729C300.643 444.44 301.01 444.244 301.411 444.164C301.811 444.085 302.225 444.126 302.602 444.282C302.979 444.438 303.301 444.702 303.528 445.041C303.754 445.381 303.875 445.779 303.875 446.187C303.875 446.734 303.658 447.259 303.271 447.646C302.885 448.032 302.36 448.25 301.813 448.25V448.25Z" fill="white"/>
<path d="M303.416 460.833H291.747C291.103 460.834 290.481 461.059 289.986 461.471C289.492 461.883 289.158 462.455 289.043 463.088L287.878 469.505C287.806 469.901 287.821 470.309 287.924 470.699C288.026 471.088 288.213 471.451 288.471 471.76C288.729 472.07 289.052 472.319 289.417 472.49C289.782 472.661 290.18 472.75 290.583 472.75H294.763L294.249 474.061C294.036 474.635 293.965 475.252 294.042 475.859C294.119 476.467 294.343 477.046 294.694 477.549C295.044 478.051 295.511 478.46 296.055 478.742C296.599 479.024 297.203 479.169 297.815 479.167C297.991 479.166 298.164 479.115 298.312 479.019C298.46 478.923 298.577 478.787 298.649 478.626L301.262 472.75H303.416C304.145 472.75 304.845 472.46 305.36 471.945C305.876 471.429 306.166 470.729 306.166 470V463.583C306.166 462.854 305.876 462.154 305.36 461.639C304.845 461.123 304.145 460.833 303.416 460.833ZM299.749 471.641L297.256 477.251C297.001 477.174 296.764 477.045 296.561 476.873C296.357 476.701 296.191 476.489 296.072 476.25C295.954 476.011 295.886 475.751 295.872 475.485C295.858 475.219 295.898 474.952 295.991 474.702L296.477 473.392C296.58 473.115 296.615 472.817 296.579 472.523C296.542 472.23 296.435 471.949 296.267 471.706C296.098 471.463 295.873 471.264 295.611 471.127C295.35 470.989 295.058 470.917 294.763 470.917H290.583C290.448 470.917 290.315 470.887 290.193 470.83C290.071 470.773 289.963 470.69 289.877 470.587C289.788 470.485 289.724 470.364 289.687 470.234C289.651 470.104 289.644 469.968 289.666 469.835L290.83 463.418C290.869 463.205 290.983 463.012 291.151 462.874C291.318 462.737 291.53 462.663 291.747 462.667H299.749V471.641ZM304.333 470C304.333 470.243 304.236 470.476 304.064 470.648C303.892 470.82 303.659 470.917 303.416 470.917H301.583V462.667H303.416C303.659 462.667 303.892 462.763 304.064 462.935C304.236 463.107 304.333 463.34 304.333 463.583V470Z" fill="white"/>
<path d="M163 226C167.747 226 172.387 227.408 176.334 230.045C180.28 232.682 183.357 236.43 185.173 240.816C186.99 245.201 187.465 250.027 186.539 254.682C185.613 259.338 183.327 263.614 179.971 266.971C176.614 270.327 172.338 272.613 167.682 273.539C163.027 274.465 158.201 273.99 153.816 272.173C149.43 270.357 145.682 267.28 143.045 263.334C140.408 259.387 139 254.747 139 250C139 243.635 141.529 237.53 146.029 233.029C150.53 228.529 156.635 226 163 226V226ZM163 222C157.462 222 152.049 223.642 147.444 226.719C142.839 229.796 139.251 234.169 137.131 239.285C135.012 244.401 134.458 250.031 135.538 255.463C136.618 260.894 139.285 265.883 143.201 269.799C147.117 273.715 152.106 276.382 157.537 277.462C162.969 278.542 168.599 277.988 173.715 275.869C178.831 273.749 183.204 270.161 186.281 265.556C189.358 260.951 191 255.538 191 250C191 242.574 188.05 235.452 182.799 230.201C177.548 224.95 170.426 222 163 222V222Z" fill="white" fill-opacity="0.6"/>
<path d="M155 264C154.641 264 154.289 263.903 153.98 263.72C153.681 263.543 153.434 263.291 153.262 262.99C153.09 262.688 153 262.347 153 262V238C153 237.653 153.09 237.312 153.262 237.01C153.434 236.709 153.681 236.457 153.98 236.28C154.284 236.104 154.629 236.012 154.98 236.012C155.331 236.012 155.676 236.104 155.98 236.28L177.98 248.28C178.298 248.451 178.563 248.705 178.748 249.015C178.932 249.325 179.03 249.679 179.03 250.04C179.03 250.401 178.932 250.755 178.748 251.065C178.563 251.375 178.298 251.629 177.98 251.8L155.98 263.8C155.676 263.949 155.338 264.017 155 264V264ZM157 241.36V258.64L172.82 250L157 241.36Z" fill="white" fill-opacity="0.6"/>
</g>
<defs>
<filter id="filter0_b" x="-7" y="-7" width="340" height="514" filterUnits="userSpaceOnUse" color-interpolation-filters="sRGB">
<feFlood flood-opacity="0" result="BackgroundImageFix"/>
<feGaussianBlur in="BackgroundImage" stdDeviation="3.5"/>
<feComposite in2="SourceAlpha" operator="in" result="effect1_backgroundBlur"/>
<feBlend mode="normal" in="SourceGraphic" in2="effect1_backgroundBlur" result="shape"/>
</filter>
<linearGradient id="paint0_linear" x1="24.3621" y1="148" x2="263.98" y2="150.08" gradientUnits="userSpaceOnUse">
<stop stop-opacity="0"/>
<stop stop-opacity="0"/>
<stop offset="1"/>
</linearGradient>
<clipPath id="clip0">
<rect width="60.0157" height="15.1496" fill="white" transform="translate(27.9922 361.331)"/>
</clipPath>
<clipPath id="clip1">
<rect width="50" height="16" fill="white" transform="translate(81 464.811)"/>
</clipPath>
</defs>
</svg>
