<svg width="494" height="283" viewBox="0 0 494 283" fill="none" xmlns="http://www.w3.org/2000/svg">
<rect width="106" height="90" transform="translate(404 106) rotate(-90)" fill="url(#paint0_linear)"/>
<path d="M454.822 21.6639C455.814 21.4569 458.507 21.1317 459.262 21.7526C459.706 22.1178 459.262 24.0585 458.285 26.4088C458.241 26.5861 458.25 26.8966 458.641 26.7192C459.129 26.4975 461.127 23.9255 460.994 20.7326C460.905 20.3779 460.579 20.2659 460.505 20.2449C459.262 19.8901 456.732 19.7127 454.689 21.2204C454.547 21.5042 454.719 21.6343 454.822 21.6639Z" fill="white"/>
<path d="M427.03 20.8213C426.971 20.6735 426.959 20.3779 427.385 20.3779C432.624 23.5707 443.501 28.5373 457.486 22.4177C458.285 22.2404 458.378 23.0726 457.93 23.3933C446.165 31.8188 432.668 27.1183 427.03 20.8213Z" fill="white"/>
<path d="M432.019 35.3662C432.019 35.9163 431.952 36.4176 431.818 36.8701C431.688 37.3226 431.493 37.71 431.232 38.0322C430.972 38.3545 430.648 38.6035 430.261 38.7793C429.877 38.9551 429.432 39.043 428.928 39.043C428.397 39.043 427.937 38.9551 427.546 38.7793C427.159 38.6035 426.836 38.3545 426.579 38.0322C426.325 37.71 426.136 37.3226 426.013 36.8701C425.889 36.4144 425.827 35.9098 425.827 35.3564C425.827 34.8031 425.889 34.3018 426.013 33.8525C426.136 33.4001 426.327 33.0143 426.584 32.6953C426.841 32.3763 427.165 32.1305 427.556 31.958C427.946 31.7822 428.407 31.6943 428.938 31.6943C429.442 31.6943 429.885 31.7822 430.266 31.958C430.65 32.1305 430.972 32.3779 431.232 32.7002C431.493 33.0192 431.688 33.4049 431.818 33.8574C431.952 34.3066 432.019 34.8096 432.019 35.3662ZM426.789 35.3662C426.789 35.8122 426.831 36.2142 426.916 36.5723C427.001 36.9271 427.129 37.2298 427.302 37.4805C427.478 37.7279 427.699 37.9183 427.966 38.0518C428.236 38.182 428.557 38.2471 428.928 38.2471C429.299 38.2471 429.618 38.182 429.885 38.0518C430.155 37.9183 430.376 37.7279 430.549 37.4805C430.725 37.2298 430.853 36.9271 430.935 36.5723C431.016 36.2142 431.057 35.8122 431.057 35.3662C431.057 34.917 431.016 34.515 430.935 34.1602C430.853 33.8053 430.726 33.5059 430.554 33.2617C430.381 33.0143 430.161 32.8255 429.895 32.6953C429.628 32.5618 429.309 32.4951 428.938 32.4951C428.566 32.4951 428.246 32.5618 427.976 32.6953C427.705 32.8255 427.482 33.0143 427.307 33.2617C427.131 33.5059 427.001 33.8053 426.916 34.1602C426.831 34.515 426.789 34.917 426.789 35.3662ZM435.808 33.4863C435.902 33.4863 436.008 33.4912 436.125 33.501C436.242 33.5075 436.343 33.5189 436.428 33.5352L436.311 34.3555C436.219 34.3392 436.125 34.3262 436.027 34.3164C435.933 34.3034 435.843 34.2969 435.759 34.2969C435.554 34.2969 435.367 34.3392 435.197 34.4238C435.028 34.5052 434.882 34.624 434.758 34.7803C434.637 34.9333 434.543 35.1188 434.475 35.3369C434.41 35.5518 434.377 35.791 434.377 36.0547V38.9453H433.488V33.584H434.211L434.318 34.5654H434.357C434.439 34.4255 434.525 34.2904 434.616 34.1602C434.711 34.0299 434.815 33.916 434.929 33.8184C435.046 33.7174 435.176 33.6377 435.319 33.5791C435.463 33.5173 435.625 33.4863 435.808 33.4863ZM438.371 38.9453H437.482V33.584H438.371V38.9453ZM437.414 32.1338C437.414 31.9385 437.463 31.7969 437.561 31.709C437.661 31.6211 437.785 31.5771 437.932 31.5771C438.003 31.5771 438.07 31.5885 438.132 31.6113C438.197 31.6309 438.252 31.6634 438.298 31.709C438.347 31.7546 438.384 31.8132 438.41 31.8848C438.439 31.9531 438.454 32.0361 438.454 32.1338C438.454 32.3226 438.402 32.4642 438.298 32.5586C438.197 32.6497 438.075 32.6953 437.932 32.6953C437.785 32.6953 437.661 32.6497 437.561 32.5586C437.463 32.4674 437.414 32.3258 437.414 32.1338ZM444.201 33.584V34.1357L443.239 34.2676C443.33 34.3815 443.407 34.528 443.469 34.707C443.531 34.8828 443.562 35.083 443.562 35.3076C443.562 35.555 443.522 35.7845 443.444 35.9961C443.369 36.2044 443.254 36.3851 443.098 36.5381C442.945 36.6911 442.754 36.8115 442.526 36.8994C442.299 36.984 442.033 37.0264 441.73 37.0264C441.659 37.0264 441.587 37.0264 441.516 37.0264C441.444 37.0231 441.385 37.0166 441.34 37.0068C441.285 37.0394 441.229 37.0768 441.174 37.1191C441.122 37.1582 441.073 37.2038 441.027 37.2559C440.985 37.3079 440.949 37.3665 440.92 37.4316C440.894 37.4967 440.881 37.5684 440.881 37.6465C440.881 37.7344 440.9 37.806 440.939 37.8613C440.979 37.9134 441.031 37.9541 441.096 37.9834C441.164 38.0127 441.244 38.0322 441.335 38.042C441.426 38.0518 441.522 38.0566 441.623 38.0566H442.482C442.785 38.0566 443.041 38.0957 443.249 38.1738C443.457 38.2487 443.627 38.3512 443.757 38.4814C443.89 38.6117 443.986 38.7663 444.045 38.9453C444.104 39.1211 444.133 39.3083 444.133 39.5068C444.133 39.7933 444.079 40.0505 443.972 40.2783C443.868 40.5062 443.706 40.6982 443.488 40.8545C443.27 41.014 442.993 41.1361 442.658 41.2207C442.326 41.3053 441.934 41.3477 441.481 41.3477C441.133 41.3477 440.829 41.3135 440.568 41.2451C440.308 41.1768 440.091 41.0775 439.919 40.9473C439.746 40.8171 439.616 40.6592 439.528 40.4736C439.444 40.2913 439.401 40.0846 439.401 39.8535C439.401 39.6582 439.432 39.4857 439.494 39.3359C439.559 39.1895 439.646 39.0625 439.753 38.9551C439.86 38.8477 439.984 38.7598 440.124 38.6914C440.267 38.623 440.415 38.571 440.568 38.5352C440.432 38.4733 440.319 38.3757 440.231 38.2422C440.144 38.1087 440.1 37.9557 440.1 37.7832C440.1 37.5846 440.152 37.4137 440.256 37.2705C440.36 37.124 440.524 36.9824 440.749 36.8457C440.609 36.7871 440.48 36.7074 440.363 36.6064C440.249 36.5023 440.152 36.3851 440.07 36.2549C439.992 36.1214 439.93 35.9766 439.885 35.8203C439.842 35.6641 439.821 35.5029 439.821 35.3369C439.821 35.0472 439.862 34.7884 439.943 34.5605C440.025 34.3327 440.145 34.139 440.305 33.9795C440.464 33.82 440.663 33.6979 440.9 33.6133C441.138 33.5286 441.415 33.4863 441.73 33.4863C441.851 33.4863 441.975 33.4961 442.102 33.5156C442.232 33.5319 442.341 33.5547 442.429 33.584H444.201ZM440.241 39.8242C440.241 39.9447 440.262 40.057 440.305 40.1611C440.347 40.2653 440.415 40.3548 440.51 40.4297C440.607 40.5046 440.734 40.5632 440.891 40.6055C441.05 40.651 441.247 40.6738 441.481 40.6738C442.087 40.6738 442.539 40.5794 442.839 40.3906C443.142 40.2051 443.293 39.9365 443.293 39.585C443.293 39.4352 443.273 39.3132 443.234 39.2188C443.195 39.1243 443.13 39.0495 443.039 38.9941C442.951 38.9421 442.834 38.9062 442.688 38.8867C442.541 38.8672 442.362 38.8574 442.15 38.8574H441.291C441.177 38.8574 441.058 38.8704 440.935 38.8965C440.811 38.9225 440.697 38.9714 440.593 39.043C440.492 39.1146 440.407 39.2122 440.339 39.3359C440.274 39.4629 440.241 39.6257 440.241 39.8242ZM440.69 35.3076C440.69 35.682 440.778 35.9603 440.954 36.1426C441.13 36.3249 441.379 36.416 441.701 36.416C442.027 36.416 442.272 36.3265 442.438 36.1475C442.608 35.9652 442.692 35.6803 442.692 35.293C442.692 34.8926 442.606 34.598 442.434 34.4092C442.264 34.2204 442.017 34.126 441.691 34.126C441.369 34.126 441.122 34.2236 440.949 34.4189C440.777 34.6143 440.69 34.9105 440.69 35.3076ZM446.145 38.9453H445.256V33.584H446.145V38.9453ZM445.188 32.1338C445.188 31.9385 445.236 31.7969 445.334 31.709C445.435 31.6211 445.559 31.5771 445.705 31.5771C445.777 31.5771 445.843 31.5885 445.905 31.6113C445.97 31.6309 446.026 31.6634 446.071 31.709C446.12 31.7546 446.158 31.8132 446.184 31.8848C446.213 31.9531 446.228 32.0361 446.228 32.1338C446.228 32.3226 446.175 32.4642 446.071 32.5586C445.97 32.6497 445.848 32.6953 445.705 32.6953C445.559 32.6953 445.435 32.6497 445.334 32.5586C445.236 32.4674 445.188 32.3258 445.188 32.1338ZM451.193 38.9453V35.4932C451.193 35.07 451.107 34.7526 450.935 34.541C450.765 34.3294 450.498 34.2236 450.134 34.2236C449.87 34.2236 449.649 34.266 449.47 34.3506C449.291 34.4352 449.146 34.5605 449.035 34.7266C448.928 34.8926 448.85 35.096 448.801 35.3369C448.755 35.5778 448.732 35.8545 448.732 36.167V38.9453H447.844V33.584H448.566L448.693 34.3066H448.742C448.824 34.1667 448.92 34.0462 449.03 33.9453C449.144 33.8411 449.268 33.7549 449.401 33.6865C449.535 33.6182 449.676 33.5677 449.826 33.5352C449.976 33.5026 450.129 33.4863 450.285 33.4863C450.881 33.4863 451.328 33.6426 451.628 33.9551C451.931 34.2643 452.082 34.7607 452.082 35.4443V38.9453H451.193ZM456.755 38.9453L456.574 38.2031H456.535C456.428 38.3496 456.32 38.4766 456.213 38.584C456.105 38.6882 455.988 38.7744 455.861 38.8428C455.734 38.9111 455.593 38.9616 455.437 38.9941C455.28 39.0267 455.1 39.043 454.895 39.043C454.67 39.043 454.463 39.0104 454.274 38.9453C454.086 38.8835 453.921 38.7874 453.781 38.6572C453.645 38.5238 453.537 38.3577 453.459 38.1592C453.381 37.9574 453.342 37.7197 453.342 37.4463C453.342 36.9124 453.529 36.5023 453.903 36.2158C454.281 35.9294 454.854 35.7731 455.622 35.7471L456.521 35.7129V35.376C456.521 35.1579 456.496 34.9756 456.447 34.8291C456.402 34.6826 456.333 34.5654 456.242 34.4775C456.154 34.3864 456.044 34.3213 455.91 34.2822C455.78 34.2432 455.63 34.2236 455.461 34.2236C455.191 34.2236 454.938 34.2627 454.704 34.3408C454.473 34.4189 454.25 34.5133 454.035 34.624L453.723 33.9551C453.964 33.8249 454.232 33.7142 454.528 33.623C454.825 33.5319 455.135 33.4863 455.461 33.4863C455.793 33.4863 456.079 33.5205 456.32 33.5889C456.564 33.654 456.765 33.7598 456.921 33.9063C457.08 34.0495 457.199 34.2334 457.277 34.458C457.355 34.6826 457.395 34.9544 457.395 35.2734V38.9453L456.755 38.9453ZM455.124 38.3252C455.323 38.3252 455.507 38.2943 455.676 38.2324C455.845 38.1706 455.992 38.0778 456.115 37.9541C456.239 37.8271 456.335 37.6693 456.403 37.4805C456.475 37.2884 456.511 37.0638 456.511 36.8066V36.3232L455.812 36.3574C455.52 36.3704 455.274 36.403 455.075 36.4551C454.877 36.5072 454.717 36.5804 454.597 36.6748C454.479 36.766 454.395 36.8783 454.343 37.0117C454.291 37.1419 454.265 37.29 454.265 37.4561C454.265 37.7555 454.343 37.9753 454.499 38.1152C454.659 38.2552 454.867 38.3252 455.124 38.3252ZM459.934 38.9453H459.045V31.3477H459.934V38.9453Z" fill="white"/>
<g clip-path="url(#clip0)">
<rect width="219" height="494" transform="translate(494 64) rotate(90)" fill="url(#paint1_linear)"/>
<path d="M19 146.906C19 141.435 23.4349 137 28.9055 137H83.0945C88.5651 137 93 141.435 93 146.906V146.906C93 152.376 88.5651 156.811 83.0945 156.811H28.9055C23.4349 156.811 19 152.376 19 146.906V146.906Z" fill="#111111" fill-opacity="0.2"/>
<g clip-path="url(#clip1)">
<path d="M36.8511 146.044C36.8511 145.433 36.4177 144.921 35.8435 144.798C36.0729 144.415 36.2138 143.973 36.2138 143.495C36.2138 142.089 35.0705 140.945 33.6646 140.945C32.6978 140.945 31.8667 141.491 31.434 142.286C31.0013 141.491 30.1702 140.945 29.2034 140.945C27.7976 140.945 26.6542 142.089 26.6542 143.495C26.6542 144.069 26.8531 144.595 27.1749 145.022C27.014 145.139 26.8831 145.293 26.7927 145.471C26.7022 145.648 26.6548 145.844 26.6542 146.044V151.142C26.6542 151.845 27.2259 152.417 27.9288 152.417H35.5765C36.2794 152.417 36.8511 151.845 36.8511 151.142V149.461L39.4003 150.736V146.274L36.8511 147.549V146.044ZM33.6646 142.22C34.3675 142.22 34.9392 142.792 34.9392 143.495C34.9392 144.197 34.3675 144.769 33.6646 144.769C32.9616 144.769 32.39 144.197 32.39 143.495C32.39 142.792 32.9616 142.22 33.6646 142.22ZM29.2034 142.22C29.9064 142.22 30.4781 142.792 30.4781 143.495C30.4781 144.197 29.9064 144.769 29.2034 144.769C28.5005 144.769 27.9288 144.197 27.9288 143.495C27.9288 142.792 28.5005 142.22 29.2034 142.22ZM27.9288 151.142V146.044H35.5765L35.5778 151.142H27.9288Z" fill="white"/>
<path d="M53.4395 142.566V143.59H50.3667V152.33H49.1035V143.59H46.0308V142.566H53.4395ZM54.8119 152.33V145.16H55.6655L55.8908 146.075C56.519 145.465 57.2747 145.16 58.1578 145.16V146.212C57.302 146.212 56.6078 146.515 56.0752 147.12V152.33H54.8119ZM59.0864 150.166C59.0864 148.695 60.056 147.96 61.9952 147.96C62.6189 147.96 63.2425 148.006 63.8662 148.097V147.421C63.8662 146.597 63.2221 146.185 61.9338 146.185C61.1963 146.185 60.4407 146.298 59.6668 146.526V145.502C60.4407 145.274 61.1963 145.16 61.9338 145.16C64.0642 145.16 65.1294 145.902 65.1294 147.386V152.33H64.4193L63.9823 151.62C63.2676 152.093 62.4892 152.33 61.647 152.33C59.9399 152.33 59.0864 151.609 59.0864 150.166ZM61.9952 148.984C60.8982 148.984 60.3496 149.371 60.3496 150.145C60.3496 150.919 60.7821 151.306 61.647 151.306C62.521 151.306 63.2607 151.074 63.8662 150.609V149.121C63.2425 149.03 62.6189 148.984 61.9952 148.984ZM68.5845 145.16V152.33H67.3213V145.16H68.5845ZM68.5845 142.566V143.761H67.3213V142.566H68.5845ZM72.1079 142.566V152.33H70.8447V142.566H72.1079ZM77.1881 145.16C79.2275 145.16 80.2472 146.169 80.2472 148.185C80.2472 148.472 80.2267 148.779 80.1857 149.107H75.1533C75.1533 150.573 76.0091 151.306 77.7207 151.306C78.5355 151.306 79.2593 151.215 79.8921 151.033V152.057C79.2593 152.239 78.49 152.33 77.5841 152.33C75.1214 152.33 73.8901 151.108 73.8901 148.663C73.8901 146.328 74.9894 145.16 77.1881 145.16ZM75.1533 148.056H79.0317C79.0044 146.799 78.3899 146.171 77.1881 146.171C75.9135 146.171 75.2352 146.799 75.1533 148.056ZM81.9474 152.33V145.16H82.8009L83.0263 146.075C83.6545 145.465 84.4101 145.16 85.2932 145.16V146.212C84.4374 146.212 83.7432 146.515 83.2106 147.12V152.33H81.9474Z" fill="white"/>
</g>
<path d="M28.9055 138.165H83.0945V135.835H28.9055V138.165ZM83.0945 155.646H28.9055V157.976H83.0945V155.646ZM28.9055 155.646C24.0785 155.646 20.1654 151.733 20.1654 146.906H17.8346C17.8346 153.02 22.7912 157.976 28.9055 157.976V155.646ZM91.8346 146.906C91.8346 151.733 87.9215 155.646 83.0945 155.646V157.976C89.2088 157.976 94.1654 153.02 94.1654 146.906H91.8346ZM83.0945 138.165C87.9215 138.165 91.8346 142.078 91.8346 146.906H94.1654C94.1654 140.791 89.2088 135.835 83.0945 135.835V138.165ZM28.9055 135.835C22.7912 135.835 17.8346 140.791 17.8346 146.906H20.1654C20.1654 142.078 24.0785 138.165 28.9055 138.165V135.835Z" fill="white"/>
<path d="M29.5957 168.846V171.092H25.5918V182.811H23.0039V171.092H19V168.846H29.5957ZM30.8262 182.811V168.846H33.4141V173.865C34.2214 172.993 35.2533 172.557 36.5098 172.557C38.9382 172.557 40.1523 173.82 40.1523 176.346V182.811H37.5645V176.346C37.5645 175.213 37.0013 174.646 35.875 174.646C35.0352 174.646 34.2148 174.982 33.4141 175.652V182.811H30.8262ZM46.9297 172.557C50.0417 172.557 51.5977 174.145 51.5977 177.322C51.5977 177.745 51.5684 178.169 51.5098 178.592H44.7031C44.7031 180.037 45.7643 180.76 47.8867 180.76C48.9219 180.76 49.957 180.662 50.9922 180.467V182.518C50.0872 182.713 48.987 182.811 47.6914 182.811C43.974 182.811 42.1152 181.062 42.1152 177.566C42.1152 174.227 43.7201 172.557 46.9297 172.557ZM44.7031 176.795H49.0781V176.717C49.0781 175.298 48.362 174.588 46.9297 174.588C45.5625 174.588 44.8203 175.324 44.7031 176.795ZM58.1797 182.811V168.846H64.7227C67.3789 168.846 68.707 169.93 68.707 172.098C68.707 173.686 67.8411 174.822 66.1094 175.506C67.9583 175.851 68.8828 176.909 68.8828 178.68C68.8828 181.434 67.4277 182.811 64.5176 182.811H58.1797ZM64.4102 180.564C65.556 180.564 66.1289 179.979 66.1289 178.807C66.1289 177.355 65.2728 176.629 63.5605 176.629H62.7793V174.959C64.9277 174.601 66.002 173.702 66.002 172.264C66.002 171.482 65.5202 171.092 64.5566 171.092H60.7676V180.564H64.4102ZM73.4336 168.846V170.896H70.8457V168.846H73.4336ZM73.4336 172.557V182.811H70.8457V172.557H73.4336ZM82.4473 174.881C82.0241 174.725 81.4219 174.646 80.6406 174.646C78.8503 174.646 77.9551 175.633 77.9551 177.605C77.9551 179.513 78.7266 180.467 80.2695 180.467C81.0117 180.467 81.7376 180.291 82.4473 179.939V174.881ZM85.0352 182.029C85.0352 185.024 83.235 186.521 79.6348 186.521C78.3717 186.521 77.252 186.359 76.2754 186.033V183.982C77.2715 184.308 78.3978 184.471 79.6543 184.471C81.5163 184.471 82.4473 183.689 82.4473 182.127C81.679 182.452 80.8522 182.615 79.9668 182.615C76.9199 182.615 75.3965 180.952 75.3965 177.625C75.3965 174.246 77.1706 172.557 80.7188 172.557C81.9102 172.557 83.349 172.697 85.0352 172.977V182.029ZM91.8809 182.225V179.881C93.2806 180.402 94.8626 180.662 96.627 180.662C98.7689 180.662 99.8398 179.946 99.8398 178.514C99.8398 177.472 99.1823 176.951 97.8672 176.951H95.6797C92.8216 176.951 91.3926 175.649 91.3926 173.045C91.3926 170.18 93.4271 168.748 97.4961 168.748C99.0586 168.748 100.54 168.976 101.939 169.432V171.775C100.54 171.255 99.0586 170.994 97.4961 170.994C95.1523 170.994 93.9805 171.678 93.9805 173.045C93.9805 174.087 94.5469 174.607 95.6797 174.607H97.8672C100.908 174.607 102.428 175.91 102.428 178.514C102.428 181.443 100.494 182.908 96.627 182.908C94.8626 182.908 93.2806 182.68 91.8809 182.225ZM106.969 168.846V170.896H104.381V168.846H106.969ZM106.969 172.557V182.811H104.381V172.557H106.969ZM116.988 182.518C116.142 182.713 115.263 182.811 114.352 182.811C110.706 182.811 108.883 181.036 108.883 177.488C108.883 174.201 110.706 172.557 114.352 172.557C115.263 172.557 116.142 172.654 116.988 172.85V174.9C116.142 174.705 115.328 174.607 114.547 174.607C112.496 174.607 111.471 175.568 111.471 177.488C111.471 179.669 112.496 180.76 114.547 180.76C115.328 180.76 116.142 180.662 116.988 180.467V182.518ZM118.697 182.811V168.846H121.285V173.357C122.346 172.824 123.463 172.557 124.635 172.557C127.252 172.557 128.561 173.543 128.561 175.516C128.561 176.948 127.649 178.068 125.826 178.875L129.01 182.811H125.846L123.17 179.148V177.947C125.038 177.55 125.973 176.899 125.973 175.994C125.973 175.07 125.354 174.607 124.117 174.607C123.251 174.607 122.307 174.881 121.285 175.428V182.811H118.697Z" fill="white"/>
<path d="M25.25 197.342L23.4727 200.943L19.5 201.518L22.375 204.322L21.6953 208.279L25.25 206.412L28.8047 208.279L28.125 204.322L31 201.521L27.0273 200.943L25.25 197.342Z" fill="#F39B13"/>
<path d="M40.9365 202.082C40.9365 202.561 40.9115 203.039 40.8613 203.518C40.8158 203.992 40.7314 204.445 40.6084 204.878C40.4899 205.311 40.3258 205.716 40.1162 206.095C39.9066 206.468 39.64 206.792 39.3164 207.065C38.9928 207.339 38.6055 207.555 38.1543 207.715C37.7031 207.87 37.1745 207.947 36.5684 207.947C36.4818 207.947 36.3861 207.945 36.2812 207.94C36.1764 207.936 36.0716 207.927 35.9668 207.913C35.862 207.904 35.7594 207.893 35.6592 207.879C35.5589 207.865 35.4701 207.847 35.3926 207.824V206.758C35.5521 206.817 35.7321 206.86 35.9326 206.888C36.1331 206.915 36.3314 206.929 36.5273 206.929C37.1426 206.929 37.6484 206.822 38.0449 206.607C38.4414 206.393 38.7559 206.104 38.9883 205.739C39.2207 205.37 39.3848 204.942 39.4805 204.454C39.5807 203.966 39.6423 203.451 39.665 202.909H39.5762C39.485 203.073 39.3757 203.226 39.248 203.367C39.1204 203.508 38.9701 203.632 38.7969 203.736C38.6237 203.841 38.4277 203.923 38.209 203.982C37.9902 204.042 37.7464 204.071 37.4775 204.071C37.0446 204.071 36.6527 204.005 36.3018 203.873C35.9508 203.736 35.6523 203.538 35.4062 203.278C35.1602 203.019 34.9688 202.702 34.832 202.328C34.6999 201.95 34.6338 201.519 34.6338 201.036C34.6338 200.517 34.7044 200.049 34.8457 199.635C34.9915 199.215 35.1943 198.862 35.4541 198.575C35.7184 198.284 36.0374 198.06 36.4111 197.905C36.7894 197.75 37.2109 197.673 37.6758 197.673C38.1361 197.673 38.5645 197.762 38.9609 197.939C39.3574 198.117 39.7015 198.388 39.9932 198.753C40.2848 199.118 40.515 199.578 40.6836 200.134C40.8522 200.685 40.9365 201.335 40.9365 202.082ZM37.6895 198.726C37.416 198.726 37.1654 198.771 36.9375 198.862C36.7142 198.953 36.5205 199.095 36.3564 199.286C36.1924 199.478 36.0648 199.719 35.9736 200.011C35.887 200.298 35.8438 200.64 35.8438 201.036C35.8438 201.355 35.8802 201.642 35.9531 201.897C36.0306 202.148 36.1445 202.362 36.2949 202.54C36.4453 202.718 36.6322 202.854 36.8555 202.95C37.0833 203.046 37.3477 203.094 37.6484 203.094C37.9583 203.094 38.2386 203.041 38.4893 202.937C38.7399 202.827 38.9541 202.688 39.1318 202.52C39.3096 202.346 39.4463 202.15 39.542 201.932C39.6423 201.713 39.6924 201.494 39.6924 201.275C39.6924 200.97 39.6491 200.667 39.5625 200.366C39.4805 200.061 39.3551 199.787 39.1865 199.546C39.0225 199.3 38.8151 199.102 38.5645 198.951C38.3138 198.801 38.0221 198.726 37.6895 198.726ZM42.625 207.052C42.625 206.879 42.6478 206.733 42.6934 206.614C42.7389 206.491 42.8005 206.393 42.8779 206.32C42.9554 206.243 43.0465 206.188 43.1514 206.156C43.2562 206.12 43.3701 206.102 43.4932 206.102C43.6117 206.102 43.7233 206.12 43.8281 206.156C43.9375 206.188 44.0309 206.243 44.1084 206.32C44.1859 206.393 44.2474 206.491 44.293 206.614C44.3385 206.733 44.3613 206.879 44.3613 207.052C44.3613 207.22 44.3385 207.366 44.293 207.489C44.2474 207.608 44.1859 207.706 44.1084 207.783C44.0309 207.861 43.9375 207.918 43.8281 207.954C43.7233 207.991 43.6117 208.009 43.4932 208.009C43.3701 208.009 43.2562 207.991 43.1514 207.954C43.0465 207.918 42.9554 207.861 42.8779 207.783C42.8005 207.706 42.7389 207.608 42.6934 207.489C42.6478 207.366 42.625 207.22 42.625 207.052ZM46.1523 203.538C46.1523 203.06 46.1751 202.583 46.2207 202.109C46.2708 201.635 46.3551 201.182 46.4736 200.749C46.5967 200.312 46.763 199.906 46.9727 199.532C47.1823 199.159 47.4489 198.835 47.7725 198.562C48.096 198.284 48.4834 198.067 48.9346 197.912C49.3857 197.753 49.9144 197.673 50.5205 197.673C50.6071 197.673 50.7028 197.675 50.8076 197.68C50.9124 197.684 51.0173 197.693 51.1221 197.707C51.2314 197.716 51.334 197.73 51.4297 197.748C51.5299 197.762 51.6188 197.78 51.6963 197.803V198.862C51.5368 198.808 51.3568 198.767 51.1562 198.739C50.9557 198.712 50.7575 198.698 50.5615 198.698C50.1514 198.698 49.7891 198.748 49.4746 198.849C49.1647 198.944 48.8958 199.081 48.668 199.259C48.4401 199.437 48.2487 199.648 48.0938 199.895C47.9434 200.141 47.8203 200.414 47.7246 200.715C47.6289 201.011 47.5583 201.328 47.5127 201.665C47.4671 202.002 47.4375 202.353 47.4238 202.718H47.5059C47.597 202.554 47.7064 202.401 47.834 202.26C47.9661 202.114 48.1188 201.991 48.292 201.891C48.4652 201.786 48.6589 201.704 48.873 201.645C49.0918 201.585 49.3356 201.556 49.6045 201.556C50.0374 201.556 50.4294 201.624 50.7803 201.761C51.1312 201.893 51.4297 202.089 51.6758 202.349C51.9219 202.608 52.111 202.927 52.2432 203.306C52.3799 203.679 52.4482 204.108 52.4482 204.591C52.4482 205.11 52.3776 205.577 52.2363 205.992C52.0951 206.407 51.8923 206.76 51.6279 207.052C51.3636 207.339 51.0446 207.56 50.6709 207.715C50.2972 207.87 49.8779 207.947 49.4131 207.947C48.9574 207.947 48.529 207.858 48.1279 207.681C47.7314 207.503 47.3874 207.232 47.0957 206.867C46.804 206.503 46.5739 206.045 46.4053 205.493C46.2367 204.942 46.1523 204.29 46.1523 203.538ZM49.3994 206.901C49.6729 206.901 49.9212 206.856 50.1445 206.765C50.3724 206.669 50.5684 206.528 50.7324 206.341C50.8965 206.149 51.0218 205.91 51.1084 205.623C51.1995 205.331 51.2451 204.987 51.2451 204.591C51.2451 204.272 51.2064 203.987 51.1289 203.736C51.056 203.481 50.9443 203.265 50.7939 203.087C50.6436 202.909 50.4544 202.772 50.2266 202.677C50.0033 202.581 49.7412 202.533 49.4404 202.533C49.1351 202.533 48.8548 202.588 48.5996 202.697C48.349 202.802 48.1348 202.941 47.957 203.114C47.7793 203.283 47.6403 203.477 47.54 203.695C47.4443 203.914 47.3965 204.133 47.3965 204.352C47.3965 204.657 47.4375 204.962 47.5195 205.268C47.6061 205.568 47.7314 205.84 47.8955 206.081C48.0641 206.323 48.2738 206.521 48.5244 206.676C48.7751 206.826 49.0667 206.901 49.3994 206.901Z" fill="white"/>
<path d="M58.1523 198.035V207.811H56.8877V198.035H58.1523ZM60.6885 207.811V198.035H62.2949L65.8838 206.19L69.4043 198.035H70.9424V207.811H69.8145V199.792L66.3418 207.811H65.3438L61.8164 199.792V207.811H60.6885ZM76.8213 206.785C79.2139 206.785 80.4102 205.409 80.4102 202.656C80.4102 200.259 79.2139 199.061 76.8213 199.061H74.5312V206.785H76.8213ZM73.2666 207.811V198.035H76.8213C80.057 198.035 81.6748 199.576 81.6748 202.656C81.6748 206.092 80.057 207.811 76.8213 207.811H73.2666ZM84.6484 206.56C85.0632 206.692 85.5667 206.758 86.1592 206.758C87.7542 206.758 88.5518 205.849 88.5518 204.03C88.5518 202.494 87.8294 201.727 86.3848 201.727C85.7285 201.727 85.1497 201.85 84.6484 202.096V206.56ZM83.3838 198.035H84.6484V200.975C85.1908 200.747 85.7718 200.633 86.3916 200.633C88.6611 200.633 89.7959 201.781 89.7959 204.078C89.7959 206.566 88.6042 207.811 86.2207 207.811C85.1908 207.811 84.2451 207.713 83.3838 207.517V198.035Z" fill="white"/>
<path d="M26.2666 231.811H19.5605V230.341L21.9121 227.805C22.2083 227.486 22.4772 227.192 22.7188 226.923C22.9603 226.654 23.1676 226.392 23.3408 226.137C23.514 225.882 23.6484 225.622 23.7441 225.357C23.8398 225.093 23.8877 224.808 23.8877 224.503C23.8877 224.166 23.7852 223.904 23.5801 223.717C23.3796 223.53 23.1084 223.437 22.7666 223.437C22.4066 223.437 22.0602 223.525 21.7275 223.703C21.3949 223.881 21.0462 224.134 20.6816 224.462L19.5332 223.102C19.7383 222.915 19.9525 222.737 20.1758 222.568C20.3991 222.395 20.6452 222.243 20.9141 222.11C21.1829 221.978 21.4792 221.873 21.8027 221.796C22.1263 221.714 22.4886 221.673 22.8896 221.673C23.3682 221.673 23.7965 221.739 24.1748 221.871C24.5576 222.003 24.8835 222.192 25.1523 222.438C25.4212 222.68 25.6263 222.974 25.7676 223.32C25.9134 223.667 25.9863 224.056 25.9863 224.489C25.9863 224.881 25.918 225.257 25.7812 225.617C25.6445 225.973 25.4577 226.324 25.2207 226.67C24.9837 227.012 24.708 227.354 24.3936 227.695C24.0837 228.033 23.751 228.377 23.3955 228.728L22.1924 229.938V230.033H26.2666V231.811ZM38.0723 231.811H35.9873V227.347C35.9873 226.795 35.9007 226.383 35.7275 226.109C35.5589 225.831 35.2969 225.692 34.9414 225.692C34.6725 225.692 34.4469 225.747 34.2646 225.856C34.0824 225.966 33.9365 226.128 33.8271 226.342C33.7178 226.556 33.6403 226.82 33.5947 227.135C33.5492 227.449 33.5264 227.809 33.5264 228.215V231.811H31.4414V221.174H33.5264V223.341C33.5264 223.532 33.5218 223.735 33.5127 223.949C33.5036 224.159 33.4922 224.353 33.4785 224.53C33.4603 224.74 33.4443 224.945 33.4307 225.146H33.54C33.7633 224.749 34.0482 224.464 34.3945 224.291C34.7409 224.113 35.1328 224.024 35.5703 224.024C35.9486 224.024 36.2904 224.079 36.5957 224.188C36.9056 224.293 37.1699 224.46 37.3887 224.688C37.6074 224.915 37.776 225.207 37.8945 225.562C38.013 225.913 38.0723 226.335 38.0723 226.827V231.811ZM44.2041 224.024C44.2588 224.024 44.318 224.027 44.3818 224.031C44.4502 224.031 44.514 224.036 44.5732 224.045C44.637 224.049 44.694 224.056 44.7441 224.065C44.7988 224.07 44.8398 224.077 44.8672 224.086V226.041C44.8307 226.032 44.7806 226.023 44.7168 226.014C44.653 226.005 44.5846 225.998 44.5117 225.993C44.4434 225.984 44.375 225.979 44.3066 225.979C44.2383 225.975 44.1813 225.973 44.1357 225.973C43.8669 225.973 43.6185 226.007 43.3906 226.075C43.1673 226.144 42.9736 226.255 42.8096 226.41C42.6501 226.561 42.5247 226.761 42.4336 227.012C42.347 227.258 42.3037 227.561 42.3037 227.921V231.811H40.2188V224.168H41.7979L42.1055 225.316H42.208C42.3174 225.12 42.4359 224.943 42.5635 224.783C42.6911 224.624 42.8324 224.489 42.9873 224.38C43.1468 224.266 43.3245 224.179 43.5205 224.12C43.721 224.056 43.9489 224.024 44.2041 224.024ZM52.9336 225.426C53.362 225.426 53.7607 225.492 54.1299 225.624C54.499 225.756 54.8203 225.95 55.0938 226.205C55.3672 226.46 55.5814 226.779 55.7363 227.162C55.8913 227.54 55.9688 227.976 55.9688 228.468C55.9688 229.01 55.8844 229.498 55.7158 229.931C55.5472 230.359 55.2988 230.724 54.9707 231.024C54.6426 231.321 54.2347 231.549 53.7471 231.708C53.264 231.868 52.708 231.947 52.0791 231.947C51.8285 231.947 51.5801 231.936 51.334 231.913C51.0879 231.89 50.8509 231.856 50.623 231.811C50.3997 231.77 50.1855 231.715 49.9805 231.646C49.7799 231.578 49.5977 231.498 49.4336 231.407V229.582C49.5931 229.673 49.7777 229.76 49.9873 229.842C50.1969 229.919 50.4134 229.988 50.6367 230.047C50.8646 230.102 51.0924 230.147 51.3203 230.184C51.5482 230.215 51.7646 230.231 51.9697 230.231C52.5804 230.231 53.0452 230.106 53.3643 229.855C53.6833 229.6 53.8428 229.197 53.8428 228.646C53.8428 228.153 53.6855 227.78 53.3711 227.524C53.0612 227.265 52.5804 227.135 51.9287 227.135C51.8102 227.135 51.6826 227.142 51.5459 227.155C51.4137 227.169 51.2816 227.187 51.1494 227.21C51.0218 227.233 50.8988 227.258 50.7803 227.285C50.6618 227.308 50.5592 227.333 50.4727 227.36L49.6318 226.909L50.0078 221.816H55.2852V223.607H51.8398L51.6758 225.569C51.8216 225.537 51.9902 225.506 52.1816 225.474C52.3776 225.442 52.6283 225.426 52.9336 225.426ZM67.8496 231.811H65.7646V227.347C65.7646 226.795 65.6826 226.383 65.5186 226.109C65.3545 225.831 65.097 225.692 64.7461 225.692C64.4818 225.692 64.2607 225.747 64.083 225.856C63.9098 225.966 63.7708 226.128 63.666 226.342C63.5612 226.556 63.486 226.82 63.4404 227.135C63.3949 227.449 63.3721 227.809 63.3721 228.215V231.811H61.2871V224.168H62.8799L63.1602 225.146H63.2764C63.3857 224.95 63.5156 224.781 63.666 224.64C63.821 224.498 63.9896 224.382 64.1719 224.291C64.3542 224.2 64.5479 224.134 64.7529 224.093C64.958 224.047 65.1654 224.024 65.375 224.024C65.8991 224.024 66.3434 224.116 66.708 224.298C67.0771 224.476 67.3597 224.758 67.5557 225.146H67.7266C67.8359 224.95 67.9681 224.781 68.123 224.64C68.278 224.498 68.4489 224.382 68.6357 224.291C68.8226 224.2 69.0186 224.134 69.2236 224.093C69.4333 224.047 69.6429 224.024 69.8525 224.024C70.6729 224.024 71.2904 224.248 71.7051 224.694C72.1243 225.136 72.334 225.847 72.334 226.827V231.811H70.2422V227.347C70.2422 226.795 70.1602 226.383 69.9961 226.109C69.832 225.831 69.5745 225.692 69.2236 225.692C68.7269 225.692 68.3737 225.891 68.1641 226.287C67.9544 226.679 67.8496 227.242 67.8496 227.976V231.811ZM74.3916 222.192C74.3916 221.996 74.4212 221.835 74.4805 221.707C74.5397 221.575 74.6195 221.47 74.7197 221.393C74.8245 221.311 74.9453 221.254 75.082 221.222C75.2233 221.19 75.3714 221.174 75.5264 221.174C75.6813 221.174 75.8271 221.19 75.9639 221.222C76.1006 221.254 76.2191 221.311 76.3193 221.393C76.4242 221.47 76.5062 221.575 76.5654 221.707C76.6292 221.835 76.6611 221.996 76.6611 222.192C76.6611 222.384 76.6292 222.546 76.5654 222.678C76.5062 222.81 76.4242 222.917 76.3193 222.999C76.2191 223.076 76.1006 223.133 75.9639 223.17C75.8271 223.202 75.6813 223.218 75.5264 223.218C75.3714 223.218 75.2233 223.202 75.082 223.17C74.9453 223.133 74.8245 223.076 74.7197 222.999C74.6195 222.917 74.5397 222.81 74.4805 222.678C74.4212 222.546 74.3916 222.384 74.3916 222.192ZM76.5654 231.811H74.4805V224.168H76.5654V231.811ZM85.3906 231.811H83.3057V227.347C83.3057 226.795 83.2214 226.383 83.0527 226.109C82.8887 225.831 82.6243 225.692 82.2598 225.692C81.9863 225.692 81.7585 225.747 81.5762 225.856C81.3939 225.966 81.248 226.128 81.1387 226.342C81.0339 226.556 80.9587 226.82 80.9131 227.135C80.8675 227.449 80.8447 227.809 80.8447 228.215V231.811H78.7598V224.168H80.3525L80.6328 225.146H80.749C80.8584 224.95 80.9906 224.781 81.1455 224.64C81.305 224.498 81.4782 224.382 81.665 224.291C81.8519 224.2 82.0501 224.134 82.2598 224.093C82.4694 224.047 82.6836 224.024 82.9023 224.024C83.276 224.024 83.6156 224.079 83.9209 224.188C84.2262 224.293 84.4883 224.46 84.707 224.688C84.9258 224.915 85.0944 225.207 85.2129 225.562C85.3314 225.913 85.3906 226.335 85.3906 226.827V231.811Z" fill="white"/>
<path d="M102.267 231.811H95.5605V230.341L97.9121 227.805C98.2083 227.486 98.4772 227.192 98.7188 226.923C98.9603 226.654 99.1676 226.392 99.3408 226.137C99.514 225.882 99.6484 225.622 99.7441 225.357C99.8398 225.093 99.8877 224.808 99.8877 224.503C99.8877 224.166 99.7852 223.904 99.5801 223.717C99.3796 223.53 99.1084 223.437 98.7666 223.437C98.4066 223.437 98.0602 223.525 97.7275 223.703C97.3949 223.881 97.0462 224.134 96.6816 224.462L95.5332 223.102C95.7383 222.915 95.9525 222.737 96.1758 222.568C96.3991 222.395 96.6452 222.243 96.9141 222.11C97.1829 221.978 97.4792 221.873 97.8027 221.796C98.1263 221.714 98.4886 221.673 98.8896 221.673C99.3682 221.673 99.7965 221.739 100.175 221.871C100.558 222.003 100.883 222.192 101.152 222.438C101.421 222.68 101.626 222.974 101.768 223.32C101.913 223.667 101.986 224.056 101.986 224.489C101.986 224.881 101.918 225.257 101.781 225.617C101.645 225.973 101.458 226.324 101.221 226.67C100.984 227.012 100.708 227.354 100.394 227.695C100.084 228.033 99.751 228.377 99.3955 228.728L98.1924 229.938V230.033H102.267V231.811ZM109.991 226.813C109.991 227.62 109.927 228.34 109.8 228.974C109.677 229.607 109.476 230.145 109.198 230.587C108.925 231.029 108.569 231.366 108.132 231.599C107.699 231.831 107.175 231.947 106.56 231.947C105.981 231.947 105.477 231.831 105.049 231.599C104.62 231.366 104.265 231.029 103.982 230.587C103.7 230.145 103.488 229.607 103.347 228.974C103.21 228.34 103.142 227.62 103.142 226.813C103.142 226.007 103.203 225.285 103.326 224.646C103.454 224.008 103.654 223.468 103.928 223.026C104.201 222.584 104.554 222.247 104.987 222.015C105.42 221.778 105.944 221.659 106.56 221.659C107.134 221.659 107.635 221.775 108.063 222.008C108.492 222.24 108.85 222.577 109.137 223.02C109.424 223.462 109.638 224.002 109.779 224.64C109.921 225.278 109.991 226.002 109.991 226.813ZM105.247 226.813C105.247 227.953 105.345 228.81 105.541 229.384C105.737 229.958 106.076 230.245 106.56 230.245C107.034 230.245 107.373 229.96 107.578 229.391C107.788 228.821 107.893 227.962 107.893 226.813C107.893 225.67 107.788 224.811 107.578 224.236C107.373 223.658 107.034 223.368 106.56 223.368C106.318 223.368 106.113 223.441 105.944 223.587C105.78 223.733 105.646 223.949 105.541 224.236C105.436 224.523 105.361 224.883 105.315 225.316C105.27 225.745 105.247 226.244 105.247 226.813ZM116.007 231.811H113.895V226.027C113.895 225.909 113.895 225.768 113.895 225.604C113.899 225.435 113.904 225.262 113.908 225.084C113.917 224.902 113.924 224.719 113.929 224.537C113.938 224.355 113.945 224.188 113.949 224.038C113.926 224.065 113.888 224.106 113.833 224.161C113.778 224.216 113.717 224.277 113.648 224.346C113.58 224.41 113.509 224.476 113.437 224.544C113.364 224.612 113.293 224.674 113.225 224.729L112.076 225.651L111.051 224.38L114.271 221.816H116.007V231.811ZM119.548 231.811L123.103 223.607H118.509V221.83H125.399V223.156L121.756 231.811H119.548Z" fill="white"/>
<path d="M142.939 223.87C142.591 223.87 142.275 223.937 141.992 224.07C141.709 224.201 141.466 224.389 141.265 224.637C141.066 224.884 140.911 225.185 140.801 225.54C140.693 225.895 140.64 226.295 140.64 226.741C140.64 227.2 140.687 227.609 140.781 227.967C140.879 228.322 141.024 228.621 141.216 228.865C141.408 229.109 141.647 229.295 141.934 229.422C142.22 229.549 142.555 229.612 142.939 229.612C143.229 229.612 143.504 229.585 143.765 229.529C144.025 229.471 144.282 229.404 144.536 229.329V230.12C144.409 230.169 144.282 230.213 144.155 230.252C144.028 230.288 143.895 230.317 143.755 230.34C143.618 230.363 143.47 230.379 143.311 230.389C143.154 230.402 142.98 230.408 142.788 230.408C142.254 230.408 141.792 230.32 141.401 230.145C141.011 229.969 140.687 229.72 140.43 229.397C140.176 229.075 139.987 228.688 139.863 228.235C139.74 227.783 139.678 227.282 139.678 226.731C139.678 226.191 139.748 225.696 139.888 225.247C140.031 224.798 140.239 224.412 140.513 224.09C140.789 223.768 141.131 223.517 141.538 223.338C141.945 223.159 142.412 223.069 142.939 223.069C143.291 223.069 143.626 223.105 143.945 223.177C144.264 223.248 144.552 223.353 144.81 223.489L144.429 224.251C144.224 224.147 144.001 224.057 143.76 223.982C143.519 223.908 143.245 223.87 142.939 223.87ZM148.77 223.87C148.421 223.87 148.105 223.937 147.822 224.07C147.539 224.201 147.297 224.389 147.095 224.637C146.896 224.884 146.742 225.185 146.631 225.54C146.523 225.895 146.47 226.295 146.47 226.741C146.47 227.2 146.517 227.609 146.611 227.967C146.709 228.322 146.854 228.621 147.046 228.865C147.238 229.109 147.477 229.295 147.764 229.422C148.05 229.549 148.385 229.612 148.77 229.612C149.059 229.612 149.334 229.585 149.595 229.529C149.855 229.471 150.112 229.404 150.366 229.329V230.12C150.239 230.169 150.112 230.213 149.985 230.252C149.858 230.288 149.725 230.317 149.585 230.34C149.448 230.363 149.3 230.379 149.141 230.389C148.984 230.402 148.81 230.408 148.618 230.408C148.084 230.408 147.622 230.32 147.231 230.145C146.841 229.969 146.517 229.72 146.26 229.397C146.006 229.075 145.817 228.688 145.693 228.235C145.57 227.783 145.508 227.282 145.508 226.731C145.508 226.191 145.578 225.696 145.718 225.247C145.861 224.798 146.069 224.412 146.343 224.09C146.619 223.768 146.961 223.517 147.368 223.338C147.775 223.159 148.242 223.069 148.77 223.069C149.121 223.069 149.456 223.105 149.775 223.177C150.094 223.248 150.382 223.353 150.64 223.489L150.259 224.251C150.054 224.147 149.831 224.057 149.59 223.982C149.349 223.908 149.076 223.87 148.77 223.87Z" fill="white"/>
<path d="M137 220.811H153V218.811H137V220.811ZM155 222.811V230.811H157V222.811H155ZM153 232.811H137V234.811H153V232.811ZM135 230.811V222.811H133V230.811H135ZM137 232.811C135.895 232.811 135 231.915 135 230.811H133C133 233.02 134.791 234.811 137 234.811V232.811ZM155 230.811C155 231.915 154.105 232.811 153 232.811V234.811C155.209 234.811 157 233.02 157 230.811H155ZM153 220.811C154.105 220.811 155 221.706 155 222.811H157C157 220.601 155.209 218.811 153 218.811V220.811ZM137 218.811C134.791 218.811 133 220.601 133 222.811H135C135 221.706 135.895 220.811 137 220.811V218.811Z" fill="white"/>
<path d="M174.297 225.262C174.297 225.558 174.251 225.843 174.16 226.116C174.072 226.39 173.926 226.632 173.721 226.844C173.516 227.052 173.244 227.22 172.905 227.347C172.57 227.47 172.155 227.532 171.66 227.532H170.928V230.311H170.02V223.172H171.787C172.223 223.172 172.599 223.219 172.915 223.313C173.231 223.405 173.491 223.54 173.696 223.719C173.901 223.895 174.053 224.113 174.15 224.373C174.248 224.633 174.297 224.93 174.297 225.262ZM170.928 226.761H171.558C171.86 226.761 172.124 226.735 172.349 226.683C172.576 226.631 172.764 226.548 172.91 226.434C173.06 226.316 173.172 226.167 173.247 225.984C173.322 225.799 173.359 225.574 173.359 225.311C173.359 224.848 173.226 224.507 172.959 224.285C172.692 224.061 172.275 223.948 171.709 223.948H170.928V226.761ZM178.628 226.541H180.991V230.042C180.812 230.101 180.632 230.153 180.449 230.198C180.267 230.244 180.08 230.281 179.888 230.311C179.696 230.343 179.494 230.368 179.282 230.384C179.071 230.4 178.843 230.408 178.599 230.408C178.088 230.408 177.635 230.324 177.241 230.154C176.847 229.982 176.515 229.738 176.245 229.422C175.975 229.103 175.77 228.717 175.63 228.265C175.49 227.809 175.42 227.298 175.42 226.731C175.42 226.172 175.496 225.665 175.649 225.213C175.806 224.76 176.032 224.376 176.328 224.061C176.624 223.742 176.989 223.497 177.422 223.328C177.858 223.156 178.354 223.069 178.911 223.069C179.272 223.069 179.619 223.105 179.951 223.177C180.283 223.248 180.592 223.353 180.879 223.489L180.527 224.28C180.41 224.225 180.283 224.173 180.146 224.124C180.013 224.075 179.875 224.033 179.731 223.997C179.588 223.958 179.44 223.927 179.287 223.904C179.137 223.882 178.988 223.87 178.838 223.87C178.441 223.87 178.089 223.937 177.783 224.07C177.477 224.201 177.22 224.389 177.012 224.637C176.807 224.884 176.65 225.185 176.543 225.54C176.436 225.895 176.382 226.295 176.382 226.741C176.382 227.164 176.426 227.552 176.514 227.903C176.605 228.255 176.748 228.558 176.943 228.812C177.139 229.065 177.391 229.262 177.7 229.402C178.009 229.542 178.382 229.612 178.818 229.612C178.962 229.612 179.092 229.609 179.209 229.603C179.329 229.593 179.44 229.581 179.541 229.568C179.642 229.555 179.736 229.541 179.824 229.524C179.915 229.505 180.003 229.487 180.088 229.471V227.342H178.628V226.541ZM182.114 228.04V227.22H184.536V228.04H182.114ZM188.408 230.311H187.549V225.853C187.549 225.713 187.549 225.563 187.549 225.403C187.552 225.244 187.555 225.086 187.559 224.93C187.565 224.77 187.57 224.619 187.573 224.476C187.58 224.329 187.585 224.201 187.588 224.09C187.533 224.148 187.484 224.199 187.441 224.241C187.399 224.284 187.355 224.324 187.31 224.363C187.267 224.402 187.222 224.445 187.173 224.49C187.124 224.533 187.065 224.583 186.997 224.642L186.274 225.232L185.806 224.632L187.676 223.172H188.408V230.311ZM195.137 224.842C195.137 225.079 195.099 225.296 195.024 225.491C194.95 225.687 194.844 225.856 194.707 225.999C194.574 226.142 194.412 226.261 194.224 226.355C194.035 226.447 193.825 226.512 193.594 226.551V226.58C194.17 226.652 194.608 226.836 194.907 227.132C195.207 227.425 195.356 227.807 195.356 228.279C195.356 228.592 195.303 228.878 195.195 229.139C195.091 229.399 194.932 229.624 194.717 229.812C194.502 230.001 194.23 230.148 193.901 230.252C193.573 230.356 193.184 230.408 192.734 230.408C192.38 230.408 192.044 230.381 191.729 230.325C191.416 230.27 191.121 230.169 190.845 230.022V229.192C191.128 229.342 191.434 229.458 191.763 229.539C192.095 229.62 192.412 229.661 192.715 229.661C193.014 229.661 193.273 229.629 193.491 229.563C193.709 229.498 193.888 229.406 194.028 229.285C194.172 229.165 194.276 229.017 194.341 228.841C194.409 228.665 194.443 228.468 194.443 228.25C194.443 228.029 194.399 227.84 194.312 227.684C194.227 227.524 194.105 227.394 193.945 227.293C193.786 227.189 193.59 227.112 193.359 227.063C193.132 227.015 192.873 226.99 192.583 226.99H191.934V226.253H192.583C192.847 226.253 193.081 226.22 193.286 226.155C193.491 226.09 193.662 225.997 193.799 225.877C193.939 225.757 194.045 225.613 194.116 225.447C194.188 225.281 194.224 225.099 194.224 224.9C194.224 224.731 194.194 224.58 194.136 224.446C194.077 224.313 193.994 224.201 193.887 224.109C193.779 224.015 193.651 223.943 193.501 223.895C193.351 223.846 193.185 223.821 193.003 223.821C192.655 223.821 192.347 223.877 192.08 223.987C191.816 224.095 191.564 224.236 191.323 224.412L190.874 223.802C190.998 223.701 191.134 223.606 191.284 223.519C191.437 223.431 191.603 223.354 191.782 223.289C191.961 223.221 192.152 223.167 192.354 223.128C192.559 223.089 192.775 223.069 193.003 223.069C193.354 223.069 193.662 223.113 193.926 223.201C194.193 223.289 194.416 223.413 194.595 223.572C194.774 223.729 194.909 223.916 195 224.134C195.091 224.349 195.137 224.585 195.137 224.842Z" fill="white"/>
<path d="M167 220.811H198V218.811H167V220.811ZM200 222.811V230.811H202V222.811H200ZM198 232.811H167V234.811H198V232.811ZM165 230.811V222.811H163V230.811H165ZM167 232.811C165.895 232.811 165 231.915 165 230.811H163C163 233.02 164.791 234.811 167 234.811V232.811ZM200 230.811C200 231.915 199.105 232.811 198 232.811V234.811C200.209 234.811 202 233.02 202 230.811H200ZM198 220.811C199.105 220.811 200 221.706 200 222.811H202C202 220.601 200.209 218.811 198 218.811V220.811ZM167 218.811C164.791 218.811 163 220.601 163 222.811H165C165 221.706 165.895 220.811 167 220.811V218.811Z" fill="white"/>
<circle cx="20.5" cy="250.811" r="1.5" fill="#E1E1E1" fill-opacity="0.5"/>
<path d="M28.6318 251.682V255.811H27.3604V245.816H29.7939C31.0062 245.816 31.9017 246.051 32.4805 246.521C33.0592 246.99 33.3486 247.701 33.3486 248.653C33.3486 249.05 33.2917 249.396 33.1777 249.692C33.0684 249.989 32.9202 250.244 32.7334 250.458C32.5511 250.668 32.3415 250.843 32.1045 250.984C31.8675 251.126 31.6237 251.242 31.373 251.333L34.0938 255.811H32.5967L30.1973 251.682H28.6318ZM28.6318 250.602H29.7529C30.1631 250.602 30.5117 250.563 30.7988 250.485C31.0859 250.403 31.3206 250.285 31.5029 250.13C31.6898 249.97 31.8242 249.774 31.9062 249.542C31.9928 249.305 32.0361 249.029 32.0361 248.715C32.0361 248.387 31.9883 248.109 31.8926 247.881C31.8014 247.653 31.6602 247.466 31.4688 247.32C31.2819 247.174 31.0426 247.07 30.751 247.006C30.4639 246.938 30.1221 246.903 29.7256 246.903H28.6318V250.602ZM41.5654 252.044C41.5654 252.668 41.488 253.224 41.333 253.712C41.1826 254.195 40.9639 254.603 40.6768 254.936C40.3942 255.264 40.0501 255.514 39.6445 255.688C39.2389 255.861 38.7832 255.947 38.2773 255.947C37.8079 255.947 37.375 255.861 36.9785 255.688C36.582 255.514 36.238 255.264 35.9463 254.936C35.6592 254.603 35.4336 254.195 35.2695 253.712C35.11 253.224 35.0303 252.668 35.0303 252.044C35.0303 251.424 35.1055 250.875 35.2559 250.396C35.4108 249.913 35.6296 249.508 35.9121 249.18C36.1947 248.847 36.5387 248.596 36.9443 248.428C37.3545 248.255 37.8125 248.168 38.3184 248.168C38.7878 248.168 39.2207 248.255 39.6172 248.428C40.0137 248.596 40.3555 248.847 40.6426 249.18C40.9342 249.508 41.1598 249.913 41.3193 250.396C41.4834 250.875 41.5654 251.424 41.5654 252.044ZM36.3154 252.044C36.3154 252.996 36.4704 253.714 36.7803 254.197C37.0947 254.676 37.6029 254.915 38.3047 254.915C39.0065 254.915 39.5101 254.676 39.8154 254.197C40.1253 253.714 40.2803 252.996 40.2803 252.044C40.2803 251.091 40.123 250.381 39.8086 249.911C39.4987 249.437 38.9928 249.2 38.291 249.2C37.5892 249.2 37.0833 249.437 36.7734 249.911C36.4681 250.381 36.3154 251.091 36.3154 252.044ZM52.5166 255.811V250.978C52.5166 250.385 52.4027 249.941 52.1748 249.645C51.9469 249.348 51.5938 249.2 51.1152 249.2C50.7826 249.2 50.5 249.255 50.2676 249.364C50.0352 249.469 49.8438 249.626 49.6934 249.836C49.5475 250.041 49.4404 250.299 49.3721 250.608C49.3037 250.914 49.2695 251.267 49.2695 251.668V255.811H48.0186V250.978C48.0186 250.385 47.9046 249.941 47.6768 249.645C47.4535 249.348 47.1025 249.2 46.624 249.2C46.2731 249.2 45.9792 249.259 45.7422 249.378C45.5052 249.496 45.3138 249.672 45.168 249.904C45.0267 250.137 44.9242 250.422 44.8604 250.759C44.8011 251.096 44.7715 251.483 44.7715 251.921V255.811H43.5273V248.305H44.5391L44.7168 249.316H44.7852C44.8945 249.12 45.0244 248.952 45.1748 248.811C45.3252 248.665 45.4893 248.544 45.667 248.448C45.8493 248.353 46.0407 248.282 46.2412 248.236C46.4463 248.191 46.6536 248.168 46.8633 248.168C47.4102 248.168 47.8636 248.268 48.2236 248.469C48.5882 248.669 48.8571 248.984 49.0303 249.412H49.085C49.2035 249.198 49.3447 249.013 49.5088 248.858C49.6774 248.703 49.8597 248.576 50.0557 248.476C50.2562 248.371 50.4658 248.293 50.6846 248.243C50.9033 248.193 51.1266 248.168 51.3545 248.168C52.152 248.168 52.7513 248.387 53.1523 248.824C53.5579 249.257 53.7607 249.952 53.7607 250.909V255.811H52.5166ZM60.3096 255.811L60.0566 254.771H60.002C59.8516 254.977 59.7012 255.154 59.5508 255.305C59.4004 255.451 59.2363 255.571 59.0586 255.667C58.8809 255.763 58.6826 255.833 58.4639 255.879C58.2451 255.924 57.9922 255.947 57.7051 255.947C57.3906 255.947 57.1012 255.902 56.8369 255.811C56.5726 255.724 56.3424 255.59 56.1465 255.407C55.9551 255.22 55.8047 254.988 55.6953 254.71C55.5859 254.427 55.5312 254.095 55.5312 253.712C55.5312 252.965 55.7933 252.39 56.3174 251.989C56.846 251.588 57.6481 251.369 58.7236 251.333L59.9814 251.285V250.813C59.9814 250.508 59.9473 250.253 59.8789 250.048C59.8151 249.843 59.7194 249.679 59.5918 249.556C59.4688 249.428 59.3138 249.337 59.127 249.282C58.9447 249.228 58.735 249.2 58.498 249.2C58.1198 249.2 57.7666 249.255 57.4385 249.364C57.1149 249.474 56.8027 249.606 56.502 249.761L56.0645 248.824C56.4017 248.642 56.7777 248.487 57.1924 248.359C57.6071 248.232 58.0423 248.168 58.498 248.168C58.9629 248.168 59.3639 248.216 59.7012 248.312C60.043 248.403 60.3232 248.551 60.542 248.756C60.7653 248.956 60.9316 249.214 61.041 249.528C61.1504 249.843 61.2051 250.223 61.2051 250.67V255.811H60.3096ZM58.0264 254.942C58.3044 254.942 58.5618 254.899 58.7988 254.812C59.0358 254.726 59.2409 254.596 59.4141 254.423C59.5872 254.245 59.7217 254.024 59.8174 253.76C59.9176 253.491 59.9678 253.176 59.9678 252.816V252.14L58.9902 252.188C58.5801 252.206 58.236 252.251 57.958 252.324C57.68 252.397 57.4567 252.5 57.2881 252.632C57.124 252.759 57.0055 252.917 56.9326 253.104C56.8597 253.286 56.8232 253.493 56.8232 253.726C56.8232 254.145 56.9326 254.452 57.1514 254.648C57.3747 254.844 57.6663 254.942 58.0264 254.942ZM68.2051 255.811V250.978C68.2051 250.385 68.0843 249.941 67.8428 249.645C67.6058 249.348 67.2321 249.2 66.7217 249.2C66.3525 249.2 66.0426 249.259 65.792 249.378C65.5413 249.496 65.3385 249.672 65.1836 249.904C65.0332 250.137 64.9238 250.422 64.8555 250.759C64.7917 251.096 64.7598 251.483 64.7598 251.921V255.811H63.5156V248.305H64.5273L64.7051 249.316H64.7734C64.8874 249.12 65.0218 248.952 65.1768 248.811C65.3363 248.665 65.5094 248.544 65.6963 248.448C65.8831 248.353 66.0814 248.282 66.291 248.236C66.5007 248.191 66.7148 248.168 66.9336 248.168C67.7676 248.168 68.3942 248.387 68.8135 248.824C69.2373 249.257 69.4492 249.952 69.4492 250.909V255.811H68.2051ZM74.6309 255.947C74.1706 255.947 73.7399 255.877 73.3389 255.735C72.9378 255.59 72.5892 255.362 72.293 255.052C71.9967 254.737 71.7643 254.339 71.5957 253.855C71.4271 253.368 71.3428 252.782 71.3428 252.099C71.3428 251.383 71.4294 250.777 71.6025 250.28C71.7757 249.779 72.0127 249.373 72.3135 249.063C72.6188 248.749 72.9743 248.521 73.3799 248.38C73.7855 248.239 74.2207 248.168 74.6855 248.168C75.041 248.168 75.3874 248.207 75.7246 248.284C76.0664 248.362 76.3512 248.457 76.5791 248.571L76.21 249.624C76.1051 249.578 75.9889 249.535 75.8613 249.494C75.7337 249.449 75.6016 249.41 75.4648 249.378C75.3281 249.341 75.1937 249.314 75.0615 249.296C74.9294 249.273 74.804 249.262 74.6855 249.262C73.9701 249.262 73.4482 249.492 73.1201 249.952C72.792 250.408 72.6279 251.119 72.6279 252.085C72.6279 253.047 72.792 253.751 73.1201 254.197C73.4528 254.639 73.9564 254.86 74.6309 254.86C75 254.86 75.3327 254.819 75.6289 254.737C75.9297 254.651 76.2031 254.55 76.4492 254.437V255.544C76.2031 255.676 75.9388 255.776 75.6562 255.845C75.3783 255.913 75.0365 255.947 74.6309 255.947ZM81.207 255.947C80.7057 255.947 80.2477 255.863 79.833 255.694C79.4183 255.526 79.0605 255.28 78.7598 254.956C78.4635 254.632 78.2334 254.231 78.0693 253.753C77.9053 253.274 77.8232 252.728 77.8232 252.112C77.8232 251.493 77.8984 250.939 78.0488 250.451C78.1992 249.964 78.4111 249.551 78.6846 249.214C78.958 248.872 79.2839 248.612 79.6621 248.435C80.0449 248.257 80.4665 248.168 80.9268 248.168C81.3779 248.168 81.7835 248.25 82.1436 248.414C82.5036 248.574 82.8089 248.801 83.0596 249.098C83.3102 249.389 83.5016 249.743 83.6338 250.157C83.7705 250.567 83.8389 251.023 83.8389 251.524V252.297H79.1084C79.1312 253.176 79.3158 253.824 79.6621 254.238C80.013 254.653 80.5326 254.86 81.2207 254.86C81.4531 254.86 81.6673 254.849 81.8633 254.826C82.0638 254.803 82.2552 254.771 82.4375 254.73C82.6243 254.685 82.8044 254.63 82.9775 254.566C83.1507 254.498 83.3262 254.423 83.5039 254.341V255.448C83.3216 255.535 83.1416 255.61 82.9639 255.674C82.7907 255.738 82.6107 255.79 82.4238 255.831C82.2415 255.872 82.0501 255.902 81.8496 255.92C81.6536 255.938 81.4395 255.947 81.207 255.947ZM80.8994 249.2C80.3799 249.2 79.9674 249.378 79.6621 249.733C79.3613 250.089 79.1859 250.606 79.1357 251.285H82.499C82.499 250.975 82.4671 250.693 82.4033 250.438C82.3441 250.178 82.2484 249.957 82.1162 249.774C81.9886 249.592 81.8245 249.451 81.624 249.351C81.4235 249.25 81.182 249.2 80.8994 249.2Z" fill="white"/>
<circle cx="96.5" cy="250.811" r="1.5" fill="#E1E1E1" fill-opacity="0.5"/>
<path d="M110.723 250.718C110.723 251.561 110.613 252.301 110.395 252.939C110.176 253.573 109.859 254.104 109.444 254.532C109.03 254.956 108.519 255.275 107.913 255.489C107.312 255.703 106.628 255.811 105.862 255.811H103.36V245.816H106.143C106.84 245.816 107.471 245.921 108.036 246.131C108.601 246.34 109.082 246.653 109.479 247.067C109.875 247.478 110.18 247.988 110.395 248.599C110.613 249.209 110.723 249.916 110.723 250.718ZM109.376 250.759C109.376 250.093 109.301 249.519 109.15 249.036C109 248.549 108.781 248.147 108.494 247.833C108.207 247.519 107.854 247.286 107.435 247.136C107.015 246.981 106.539 246.903 106.006 246.903H104.632V254.717H105.739C106.942 254.717 107.849 254.384 108.46 253.719C109.071 253.053 109.376 252.067 109.376 250.759ZM116.021 248.168C116.153 248.168 116.301 248.175 116.465 248.188C116.629 248.198 116.77 248.214 116.889 248.236L116.725 249.385C116.597 249.362 116.465 249.344 116.328 249.33C116.196 249.312 116.071 249.303 115.952 249.303C115.665 249.303 115.403 249.362 115.166 249.48C114.929 249.594 114.724 249.761 114.551 249.979C114.382 250.194 114.25 250.453 114.154 250.759C114.063 251.06 114.018 251.395 114.018 251.764V255.811H112.773V248.305H113.785L113.936 249.679H113.99C114.104 249.483 114.225 249.294 114.353 249.111C114.485 248.929 114.631 248.77 114.79 248.633C114.954 248.492 115.136 248.38 115.337 248.298C115.537 248.211 115.765 248.168 116.021 248.168ZM122.46 255.811L122.207 254.771H122.152C122.002 254.977 121.852 255.154 121.701 255.305C121.551 255.451 121.387 255.571 121.209 255.667C121.031 255.763 120.833 255.833 120.614 255.879C120.396 255.924 120.143 255.947 119.855 255.947C119.541 255.947 119.252 255.902 118.987 255.811C118.723 255.724 118.493 255.59 118.297 255.407C118.105 255.22 117.955 254.988 117.846 254.71C117.736 254.427 117.682 254.095 117.682 253.712C117.682 252.965 117.944 252.39 118.468 251.989C118.996 251.588 119.799 251.369 120.874 251.333L122.132 251.285V250.813C122.132 250.508 122.098 250.253 122.029 250.048C121.965 249.843 121.87 249.679 121.742 249.556C121.619 249.428 121.464 249.337 121.277 249.282C121.095 249.228 120.885 249.2 120.648 249.2C120.27 249.2 119.917 249.255 119.589 249.364C119.265 249.474 118.953 249.606 118.652 249.761L118.215 248.824C118.552 248.642 118.928 248.487 119.343 248.359C119.757 248.232 120.193 248.168 120.648 248.168C121.113 248.168 121.514 248.216 121.852 248.312C122.193 248.403 122.474 248.551 122.692 248.756C122.916 248.956 123.082 249.214 123.191 249.528C123.301 249.843 123.355 250.223 123.355 250.67V255.811H122.46ZM120.177 254.942C120.455 254.942 120.712 254.899 120.949 254.812C121.186 254.726 121.391 254.596 121.564 254.423C121.738 254.245 121.872 254.024 121.968 253.76C122.068 253.491 122.118 253.176 122.118 252.816V252.14L121.141 252.188C120.73 252.206 120.386 252.251 120.108 252.324C119.83 252.397 119.607 252.5 119.438 252.632C119.274 252.759 119.156 252.917 119.083 253.104C119.01 253.286 118.974 253.493 118.974 253.726C118.974 254.145 119.083 254.452 119.302 254.648C119.525 254.844 119.817 254.942 120.177 254.942ZM134.655 255.811V250.978C134.655 250.385 134.541 249.941 134.313 249.645C134.086 249.348 133.732 249.2 133.254 249.2C132.921 249.2 132.639 249.255 132.406 249.364C132.174 249.469 131.982 249.626 131.832 249.836C131.686 250.041 131.579 250.299 131.511 250.608C131.442 250.914 131.408 251.267 131.408 251.668V255.811H130.157V250.978C130.157 250.385 130.043 249.941 129.815 249.645C129.592 249.348 129.241 249.2 128.763 249.2C128.412 249.2 128.118 249.259 127.881 249.378C127.644 249.496 127.452 249.672 127.307 249.904C127.165 250.137 127.063 250.422 126.999 250.759C126.94 251.096 126.91 251.483 126.91 251.921V255.811H125.666V248.305H126.678L126.855 249.316H126.924C127.033 249.12 127.163 248.952 127.313 248.811C127.464 248.665 127.628 248.544 127.806 248.448C127.988 248.353 128.179 248.282 128.38 248.236C128.585 248.191 128.792 248.168 129.002 248.168C129.549 248.168 130.002 248.268 130.362 248.469C130.727 248.669 130.996 248.984 131.169 249.412H131.224C131.342 249.198 131.483 249.013 131.647 248.858C131.816 248.703 131.998 248.576 132.194 248.476C132.395 248.371 132.604 248.293 132.823 248.243C133.042 248.193 133.265 248.168 133.493 248.168C134.291 248.168 134.89 248.387 135.291 248.824C135.697 249.257 135.899 249.952 135.899 250.909V255.811H134.655ZM142.448 255.811L142.195 254.771H142.141C141.99 254.977 141.84 255.154 141.689 255.305C141.539 255.451 141.375 255.571 141.197 255.667C141.02 255.763 140.821 255.833 140.603 255.879C140.384 255.924 140.131 255.947 139.844 255.947C139.529 255.947 139.24 255.902 138.976 255.811C138.711 255.724 138.481 255.59 138.285 255.407C138.094 255.22 137.943 254.988 137.834 254.71C137.725 254.427 137.67 254.095 137.67 253.712C137.67 252.965 137.932 252.39 138.456 251.989C138.985 251.588 139.787 251.369 140.862 251.333L142.12 251.285V250.813C142.12 250.508 142.086 250.253 142.018 250.048C141.954 249.843 141.858 249.679 141.73 249.556C141.607 249.428 141.452 249.337 141.266 249.282C141.083 249.228 140.874 249.2 140.637 249.2C140.258 249.2 139.905 249.255 139.577 249.364C139.254 249.474 138.941 249.606 138.641 249.761L138.203 248.824C138.54 248.642 138.916 248.487 139.331 248.359C139.746 248.232 140.181 248.168 140.637 248.168C141.102 248.168 141.503 248.216 141.84 248.312C142.182 248.403 142.462 248.551 142.681 248.756C142.904 248.956 143.07 249.214 143.18 249.528C143.289 249.843 143.344 250.223 143.344 250.67V255.811H142.448ZM140.165 254.942C140.443 254.942 140.701 254.899 140.938 254.812C141.174 254.726 141.38 254.596 141.553 254.423C141.726 254.245 141.86 254.024 141.956 253.76C142.056 253.491 142.106 253.176 142.106 252.816V252.14L141.129 252.188C140.719 252.206 140.375 252.251 140.097 252.324C139.819 252.397 139.595 252.5 139.427 252.632C139.263 252.759 139.144 252.917 139.071 253.104C138.998 253.286 138.962 253.493 138.962 253.726C138.962 254.145 139.071 254.452 139.29 254.648C139.513 254.844 139.805 254.942 140.165 254.942Z" fill="white"/>
<path d="M343.4 239.75C347.937 239.75 351.65 243.463 351.65 248C351.65 252.538 347.937 256.25 343.4 256.25C338.862 256.25 335.15 252.538 335.15 248C335.15 243.463 338.862 239.75 343.4 239.75ZM343.4 238.375C338.106 238.375 333.775 242.706 333.775 248C333.775 253.294 338.106 257.625 343.4 257.625C348.694 257.625 353.025 253.294 353.025 248C353.025 242.706 348.694 238.375 343.4 238.375Z" fill="white"/>
<path d="M348.9 247.312H344.087V242.5H342.712V247.312H337.9V248.688H342.712V253.5H344.087V248.688H348.9V247.312Z" fill="white"/>
<path d="M375.667 244.276C375.005 243.608 374.316 243.026 373.598 242.532C372.881 242.037 372.209 241.666 371.582 241.419C370.955 241.172 370.381 241.053 369.859 241.063C369.336 241.073 368.929 241.228 368.636 241.529C368.567 241.596 368.508 241.671 368.459 241.755C368.41 241.838 368.375 241.903 368.354 241.95C368.333 241.997 368.306 242.081 368.271 242.201C368.236 242.321 368.212 242.398 368.198 242.432L364.312 254.703L364.552 254.944C364.28 255.124 364.038 255.335 363.826 255.576C363.613 255.816 363.427 256.013 363.267 256.167C363.107 256.321 362.915 256.428 362.692 256.488C362.644 256.501 362.583 256.547 362.51 256.623C362.436 256.7 362.4 256.769 362.4 256.829C362.4 256.949 362.463 257.049 362.588 257.13C362.713 257.21 362.853 257.25 363.006 257.25C363.201 257.25 363.389 257.175 363.57 257.024C363.751 256.874 363.934 256.682 364.118 256.448C364.303 256.214 364.437 256.06 364.521 255.987C364.702 255.833 364.904 255.686 365.126 255.546L365.398 255.796L377.746 251.776C378.017 251.696 378.226 251.575 378.372 251.415C378.665 251.114 378.816 250.698 378.827 250.167C378.837 249.635 378.721 249.05 378.477 248.412C378.233 247.774 377.869 247.092 377.385 246.367C376.901 245.642 376.328 244.945 375.667 244.276ZM374.539 245.369C375.604 246.412 376.414 247.409 376.967 248.362C377.521 249.314 377.655 249.941 377.37 250.242C377.084 250.543 376.461 250.432 375.5 249.911C374.539 249.39 373.529 248.611 372.47 247.575C371.398 246.532 370.585 245.536 370.031 244.587C369.477 243.638 369.343 243.01 369.629 242.702C369.914 242.401 370.539 242.512 371.504 243.033C372.468 243.554 373.48 244.333 374.539 245.369ZM372.251 249.52C372.759 249.954 373.264 250.335 373.766 250.663C373.772 250.676 373.947 250.99 374.288 251.605L373.41 251.896C372.992 251.141 372.606 250.349 372.251 249.52ZM368.689 244.928C368.842 245.256 369.054 245.653 369.326 246.121C369.549 247.084 369.899 248.126 370.376 249.249C370.853 250.372 371.373 251.425 371.937 252.407L371.07 252.688C370.416 251.525 369.845 250.307 369.357 249.034C368.87 247.76 368.57 246.636 368.459 245.66L368.689 244.928ZM367.477 248.598C367.964 250.095 368.65 251.632 369.535 253.21L368.678 253.5C367.989 252.23 367.445 251.037 367.049 249.921L367.477 248.598ZM366.275 252.257C366.547 252.872 366.836 253.457 367.143 254.012L366.286 254.302C366.188 254.122 366.049 253.844 365.868 253.47L366.275 252.257ZM373.954 238L374.476 239.514L373.128 240.456H374.789L375.301 241.97L375.813 240.456H377.464L376.126 239.514L376.649 238.01L375.301 238.942L373.954 238ZM371.029 238L370.747 239.374L372.178 239.644L372.46 238.271L371.029 238ZM380.441 242.131L381.59 240.978L383.084 241.68L382.311 240.276L383.47 239.143L381.83 239.414L381.057 238L380.827 239.584L379.187 239.855L380.681 240.547L380.441 242.131ZM380.054 244.597L381.444 245.479L381.005 247.023L382.3 246.021L383.679 246.903L383.105 245.399L384.4 244.417L382.739 244.487L382.154 242.993L381.726 244.527L380.054 244.597ZM379.459 240.877L376.346 243.324L376.732 243.775L379.845 241.329L379.459 240.877ZM380.545 245.61L378.111 245.399L378.049 245.981L380.493 246.191L380.545 245.61ZM380.785 248.417L380.336 249.761L381.726 250.192L382.185 248.858L380.785 248.417Z" fill="white"/>
<path d="M403.15 243.833C403.656 243.833 404.067 243.423 404.067 242.917C404.067 242.41 403.656 242 403.15 242C402.644 242 402.233 242.41 402.233 242.917C402.233 243.423 402.644 243.833 403.15 243.833Z" fill="white"/>
<path d="M405.747 251.41H404.219V245.055H401.928C401.725 245.055 401.531 245.138 401.388 245.287C401.244 245.436 401.164 245.638 401.164 245.849C401.164 246.06 401.244 246.262 401.388 246.411C401.531 246.56 401.725 246.644 401.928 246.644H402.692V251.41H401.164C400.961 251.41 400.767 251.494 400.624 251.643C400.48 251.792 400.4 251.994 400.4 252.205C400.4 252.415 400.48 252.617 400.624 252.766C400.767 252.915 400.961 252.999 401.164 252.999H405.747C405.95 252.999 406.144 252.915 406.287 252.766C406.431 252.617 406.511 252.415 406.511 252.205C406.511 251.994 406.431 251.792 406.287 251.643C406.144 251.494 405.95 251.41 405.747 251.41Z" fill="white"/>
<path d="M403.025 238C401.121 238 399.26 238.564 397.678 239.622C396.095 240.68 394.861 242.183 394.133 243.942C393.404 245.7 393.213 247.636 393.585 249.503C393.956 251.37 394.873 253.085 396.219 254.431C397.565 255.777 399.28 256.694 401.147 257.065C403.014 257.436 404.949 257.246 406.708 256.517C408.467 255.789 409.97 254.555 411.028 252.972C412.085 251.39 412.65 249.529 412.65 247.625C412.65 245.072 411.636 242.624 409.831 240.819C408.026 239.014 405.578 238 403.025 238ZM403.025 255.646C401.439 255.646 399.888 255.175 398.569 254.294C397.25 253.413 396.222 252.16 395.615 250.694C395.008 249.229 394.849 247.616 395.158 246.06C395.468 244.504 396.232 243.075 397.353 241.953C398.475 240.832 399.904 240.068 401.46 239.758C403.016 239.449 404.629 239.608 406.094 240.215C407.56 240.822 408.813 241.85 409.694 243.169C410.575 244.488 411.046 246.039 411.046 247.625C411.046 248.678 410.838 249.721 410.435 250.694C410.032 251.668 409.441 252.552 408.696 253.297C407.952 254.041 407.067 254.632 406.094 255.035C405.121 255.438 404.078 255.646 403.025 255.646Z" fill="white"/>
<path d="M438.213 250.75C437.698 250.753 437.191 250.871 436.728 251.096C436.265 251.321 435.858 251.647 435.538 252.05L430.513 248.908C430.696 248.317 430.696 247.684 430.513 247.093L435.538 243.951C436.048 244.582 436.766 245.013 437.563 245.167C438.36 245.32 439.186 245.186 439.894 244.789C440.602 244.392 441.147 243.757 441.432 242.997C441.717 242.237 441.723 241.4 441.45 240.636C441.177 239.871 440.643 239.228 439.941 238.819C439.239 238.411 438.415 238.265 437.616 238.406C436.816 238.547 436.092 238.966 435.572 239.59C435.053 240.213 434.77 241.001 434.775 241.813C434.778 242.12 434.825 242.426 434.913 242.72L429.887 245.862C429.443 245.303 428.837 244.897 428.152 244.698C427.467 244.5 426.737 244.52 426.063 244.754C425.39 244.989 424.806 245.428 424.393 246.01C423.98 246.591 423.758 247.287 423.758 248C423.758 248.713 423.98 249.409 424.393 249.991C424.806 250.572 425.39 251.011 426.063 251.246C426.737 251.481 427.467 251.5 428.152 251.302C428.837 251.103 429.443 250.697 429.887 250.138L434.913 253.28C434.825 253.575 434.778 253.88 434.775 254.188C434.775 254.868 434.977 255.532 435.355 256.097C435.732 256.663 436.269 257.103 436.897 257.363C437.525 257.624 438.217 257.692 438.883 257.559C439.55 257.426 440.163 257.099 440.643 256.618C441.124 256.138 441.452 255.525 441.584 254.858C441.717 254.191 441.649 253.5 441.389 252.872C441.128 252.244 440.688 251.707 440.123 251.329C439.557 250.952 438.893 250.75 438.213 250.75ZM438.213 239.75C438.621 239.75 439.019 239.871 439.359 240.098C439.698 240.324 439.962 240.646 440.118 241.023C440.274 241.4 440.315 241.815 440.236 242.215C440.156 242.615 439.96 242.983 439.671 243.271C439.383 243.559 439.015 243.756 438.615 243.836C438.215 243.915 437.8 243.874 437.423 243.718C437.047 243.562 436.724 243.298 436.498 242.959C436.271 242.619 436.15 242.221 436.15 241.813C436.15 241.266 436.368 240.741 436.754 240.354C437.141 239.967 437.666 239.75 438.213 239.75ZM427.213 250.063C426.805 250.063 426.406 249.942 426.067 249.715C425.728 249.488 425.463 249.166 425.307 248.789C425.151 248.413 425.11 247.998 425.19 247.598C425.269 247.198 425.466 246.83 425.754 246.542C426.043 246.253 426.41 246.057 426.81 245.977C427.21 245.898 427.625 245.939 428.002 246.095C428.379 246.251 428.701 246.515 428.928 246.854C429.154 247.193 429.275 247.592 429.275 248C429.275 248.547 429.058 249.072 428.671 249.459C428.284 249.845 427.76 250.063 427.213 250.063ZM438.213 256.25C437.805 256.25 437.406 256.129 437.067 255.903C436.728 255.676 436.463 255.354 436.307 254.977C436.151 254.6 436.11 254.185 436.19 253.785C436.269 253.385 436.466 253.018 436.754 252.729C437.043 252.441 437.41 252.244 437.81 252.165C438.21 252.085 438.625 252.126 439.002 252.282C439.379 252.438 439.701 252.703 439.928 253.042C440.154 253.381 440.275 253.78 440.275 254.188C440.275 254.735 440.058 255.259 439.671 255.646C439.284 256.033 438.76 256.25 438.213 256.25Z" fill="white"/>
<path d="M469.816 238.834H458.147C457.503 238.834 456.88 239.06 456.386 239.472C455.892 239.884 455.558 240.456 455.442 241.089L454.278 247.506C454.206 247.902 454.221 248.31 454.324 248.699C454.426 249.089 454.613 249.452 454.871 249.761C455.129 250.071 455.452 250.32 455.816 250.491C456.181 250.662 456.579 250.751 456.982 250.751H461.162L460.649 252.061C460.436 252.635 460.364 253.253 460.442 253.86C460.519 254.468 460.743 255.047 461.093 255.549C461.444 256.051 461.911 256.461 462.455 256.743C462.999 257.024 463.603 257.17 464.215 257.167C464.391 257.167 464.564 257.116 464.712 257.02C464.86 256.924 464.977 256.787 465.049 256.626L467.662 250.751H469.816C470.545 250.751 471.245 250.461 471.76 249.945C472.276 249.429 472.566 248.73 472.566 248.001V241.584C472.566 240.855 472.276 240.155 471.76 239.639C471.245 239.124 470.545 238.834 469.816 238.834ZM466.149 249.641L463.656 255.251C463.401 255.174 463.164 255.046 462.96 254.874C462.757 254.701 462.591 254.49 462.472 254.251C462.354 254.012 462.285 253.752 462.271 253.485C462.257 253.219 462.298 252.953 462.391 252.703L462.877 251.392C462.98 251.115 463.015 250.817 462.978 250.524C462.942 250.23 462.835 249.95 462.666 249.707C462.498 249.464 462.273 249.265 462.011 249.127C461.749 248.99 461.458 248.918 461.162 248.917H456.982C456.848 248.918 456.715 248.888 456.593 248.831C456.471 248.774 456.363 248.691 456.277 248.587C456.188 248.485 456.124 248.365 456.087 248.235C456.051 248.105 456.043 247.969 456.066 247.836L457.23 241.419C457.269 241.205 457.383 241.013 457.55 240.875C457.718 240.737 457.93 240.664 458.147 240.667H466.149V249.641ZM470.732 248.001C470.732 248.244 470.636 248.477 470.464 248.649C470.292 248.821 470.059 248.917 469.816 248.917H467.982V240.667H469.816C470.059 240.667 470.292 240.764 470.464 240.936C470.636 241.108 470.732 241.341 470.732 241.584V248.001Z" fill="white"/>
</g>
<path d="M247 117C251.747 117 256.387 118.408 260.334 121.045C264.28 123.682 267.357 127.43 269.173 131.816C270.99 136.201 271.465 141.027 270.539 145.682C269.613 150.338 267.327 154.614 263.971 157.971C260.614 161.327 256.338 163.613 251.682 164.539C247.027 165.465 242.201 164.99 237.816 163.173C233.43 161.357 229.682 158.28 227.045 154.334C224.408 150.387 223 145.747 223 141C223 134.635 225.529 128.53 230.029 124.029C234.53 119.529 240.635 117 247 117ZM247 113C241.462 113 236.049 114.642 231.444 117.719C226.839 120.796 223.251 125.169 221.131 130.285C219.012 135.401 218.458 141.031 219.538 146.463C220.618 151.894 223.285 156.883 227.201 160.799C231.117 164.715 236.106 167.382 241.537 168.462C246.969 169.542 252.599 168.988 257.715 166.869C262.831 164.749 267.204 161.161 270.281 156.556C273.358 151.951 275 146.538 275 141C275 133.574 272.05 126.452 266.799 121.201C261.548 115.95 254.426 113 247 113Z" fill="white" fill-opacity="0.6"/>
<path d="M239 155C238.641 155 238.289 154.903 237.98 154.72C237.681 154.543 237.434 154.291 237.262 153.989C237.09 153.688 237 153.347 237 153V129C237 128.653 237.09 128.311 237.262 128.01C237.434 127.708 237.681 127.457 237.98 127.28C238.284 127.104 238.629 127.012 238.98 127.012C239.331 127.012 239.676 127.104 239.98 127.28L261.98 139.28C262.298 139.451 262.563 139.705 262.748 140.015C262.932 140.325 263.03 140.679 263.03 141.04C263.03 141.4 262.932 141.755 262.748 142.064C262.563 142.374 262.298 142.628 261.98 142.8L239.98 154.8C239.676 154.948 239.338 155.017 239 155ZM241 132.36V149.64L256.82 141L241 132.36Z" fill="white" fill-opacity="0.6"/>
<path d="M20 31C20 24.9249 24.9249 20 31 20H53C59.0751 20 64 24.9249 64 31C64 37.0751 59.0751 42 53 42H31C24.9249 42 20 37.0751 20 31Z" fill="white" fill-opacity="0.8"/>
<path fill-rule="evenodd" clip-rule="evenodd" d="M27 27.7191V36H28.3736C28.4165 36 28.5195 35.9753 28.5882 35.8764V33.2397C30.1335 34.3109 32.8807 33.7753 32.8807 30.5206C32.8807 27.5131 30.2193 26.8127 28.4165 28.2135C28.4022 28.0762 28.3221 27.785 28.116 27.7191H27ZM30.6915 29.1199C29.9704 28.4936 28.9888 28.8589 28.5882 29.1199V32.0861C29.6871 32.8112 30.4483 32.3883 30.6915 32.0861C31.0006 31.9543 31.0778 30.9875 31.0778 30.5206C31.1122 29.7955 30.8346 29.2846 30.6915 29.1199Z" fill="#00A8E1"/>
<path d="M34.0396 33.4457V27.8839C34.0396 27.829 34.074 27.7109 34.2113 27.6779H35.2844C35.3417 27.6367 35.499 27.7356 35.6707 28.4607C35.6851 28.5019 35.7308 28.5678 35.7995 28.5019C35.8854 28.4195 36.7009 27.5543 37.5594 27.6367C37.9028 27.6367 37.9887 27.774 37.9887 27.8427V28.9963C37.9744 29.0649 37.9114 29.2022 37.774 29.2022C36.5722 29.1363 35.9569 29.3396 35.7995 29.4494V33.4457C35.7995 33.4869 35.7738 33.5775 35.6707 33.6105H34.1684C34.1255 33.6105 34.0396 33.5775 34.0396 33.4457Z" fill="#00A8E1"/>
<path d="M39.0189 27.6779H40.3066C40.3781 27.6916 40.5212 27.7521 40.5212 27.8839V33.4457C40.5069 33.4869 40.4525 33.5775 40.3495 33.6105H38.9759C38.9187 33.5968 38.7956 33.5446 38.7613 33.4457L38.8042 27.8839C38.8042 27.829 38.8472 27.7109 39.0189 27.6779Z" fill="#00A8E1"/>
<path d="M39.3622 26.7303C39.491 26.7441 39.7915 26.7633 39.9632 26.7303C40.1349 26.6974 40.3209 26.5793 40.3924 26.5243C40.5641 26.3596 40.65 26.1124 40.65 25.8652C40.65 25.5356 40.5641 25.412 40.4354 25.2472C40.3495 25.1785 40.1778 25 39.9632 25H39.3622C39.2049 25.0412 38.8643 25.1483 38.7613 25.412C38.6583 25.6757 38.6755 25.7553 38.6755 25.9064C38.6755 26.0574 38.7579 26.3563 38.933 26.5243C39.1081 26.6924 39.2907 26.7166 39.3622 26.7303Z" fill="#00A8E1"/>
<path d="M43.6547 28.2547C43.6118 28.0899 43.4916 27.7521 43.3542 27.7191C43.2169 27.6861 42.5244 27.7054 42.1953 27.7191C42.138 27.7191 42.0236 27.7521 42.0236 27.8839V33.4457C42.0379 33.4869 42.0922 33.5775 42.1953 33.6105C42.2983 33.6434 43.1539 33.6242 43.5688 33.6105C43.6261 33.5968 43.7577 33.5446 43.8264 33.4457L43.7835 29.161C44.0267 29.0237 44.6248 28.7655 45.0712 28.8315C45.6292 28.8727 45.8009 29.1336 45.8438 29.2846L45.8868 33.4457C45.9011 33.5006 45.9554 33.6105 46.0585 33.6105H47.475C47.5179 33.5968 47.6123 33.5446 47.6467 33.4457V29.161C47.847 29.01 48.3764 28.7243 48.8915 28.7903C49.4066 28.8562 49.6212 29.1748 49.6641 29.3258V33.3633C49.6641 33.432 49.6985 33.5775 49.8358 33.6105H51.3382C51.3811 33.583 51.467 33.4951 51.467 33.3633V29.0787C51.4383 28.5705 51.0549 27.5461 49.75 27.5131C48.4451 27.4801 47.661 27.9938 47.4321 28.2547C47.2747 28.0075 46.7453 27.5131 45.8868 27.5131C45.0283 27.5131 44.041 28.0075 43.6547 28.2547Z" fill="#00A8E1"/>
<path fill-rule="evenodd" clip-rule="evenodd" d="M54.1283 31.0974C54.071 31.8252 54.6605 33.0831 57.4764 32.2921C57.6481 32.2262 57.691 32.4569 57.691 32.5805V33.1985C57.5336 33.4045 56.9098 33.8165 55.6735 33.8165C53.2698 33.8165 52.583 32.2235 52.5401 31.427C52.3827 30.7678 52.3598 29.194 53.5273 28.1723C55.1756 26.9858 56.8182 27.6779 57.4335 28.1723C57.8198 28.5156 58.395 29.4494 57.6052 30.4382C56.8153 31.427 54.9581 31.2896 54.1283 31.0974ZM55.4589 28.7079C54.3944 28.7079 54.1283 29.6417 54.1283 30.1086C54.4574 30.1498 55.21 30.224 55.5877 30.191C55.9654 30.1581 56.203 29.9301 56.2745 29.8202C56.4462 29.4494 56.5235 28.7079 55.4589 28.7079Z" fill="#00A8E1"/>
<path fill-rule="evenodd" clip-rule="evenodd" d="M27 27.7191V36H28.3736C28.4165 36 28.5195 35.9753 28.5882 35.8764V33.2397C30.1335 34.3109 32.8807 33.7753 32.8807 30.5206C32.8807 27.5131 30.2193 26.8127 28.4165 28.2135C28.4022 28.0762 28.3221 27.785 28.116 27.7191H27ZM30.6915 29.1199C29.9704 28.4936 28.9888 28.8589 28.5882 29.1199V32.0861C29.6871 32.8112 30.4483 32.3883 30.6915 32.0861C31.0006 31.9543 31.0778 30.9875 31.0778 30.5206C31.1122 29.7955 30.8346 29.2846 30.6915 29.1199Z" fill="#00A8E1"/>
<defs>
<linearGradient id="paint0_linear" x1="92.75" y1="81.1765" x2="52.8637" y2="38.8258" gradientUnits="userSpaceOnUse">
<stop stop-color="#1B1B1B"/>
<stop offset="1" stop-color="#1B1B1B" stop-opacity="0"/>
</linearGradient>
<linearGradient id="paint1_linear" x1="16.9914" y1="224.27" x2="184.124" y2="224.938" gradientUnits="userSpaceOnUse">
<stop stop-opacity="0"/>
<stop stop-opacity="0"/>
<stop offset="1"/>
</linearGradient>
<clipPath id="clip0">
<rect width="219" height="494" fill="white" transform="translate(494 64) rotate(90)"/>
</clipPath>
<clipPath id="clip1">
<rect width="60.0157" height="15.1496" fill="white" transform="translate(25.9922 139.33)"/>
</clipPath>
</defs>
</svg>
