<svg width="494" height="283" viewBox="0 0 494 283" fill="none" xmlns="http://www.w3.org/2000/svg">
<rect width="106" height="90" transform="translate(404 106) rotate(-90)" fill="url(#paint0_linear)"/>
<path d="M454.822 21.6639C455.814 21.4569 458.507 21.1317 459.262 21.7526C459.706 22.1178 459.262 24.0585 458.285 26.4088C458.241 26.5861 458.25 26.8966 458.641 26.7192C459.129 26.4975 461.127 23.9255 460.994 20.7326C460.905 20.3779 460.579 20.2659 460.505 20.2449C459.262 19.8901 456.732 19.7127 454.689 21.2204C454.547 21.5042 454.719 21.6343 454.822 21.6639Z" fill="white"/>
<path d="M427.03 20.8213C426.971 20.6735 426.959 20.3779 427.385 20.3779C432.624 23.5707 443.501 28.5373 457.486 22.4177C458.285 22.2404 458.378 23.0726 457.93 23.3933C446.165 31.8188 432.668 27.1183 427.03 20.8213Z" fill="white"/>
<path d="M432.019 35.3662C432.019 35.9163 431.952 36.4176 431.818 36.8701C431.688 37.3226 431.493 37.71 431.232 38.0322C430.972 38.3545 430.648 38.6035 430.261 38.7793C429.877 38.9551 429.432 39.043 428.928 39.043C428.397 39.043 427.937 38.9551 427.546 38.7793C427.159 38.6035 426.836 38.3545 426.579 38.0322C426.325 37.71 426.136 37.3226 426.013 36.8701C425.889 36.4144 425.827 35.9098 425.827 35.3564C425.827 34.8031 425.889 34.3018 426.013 33.8525C426.136 33.4001 426.327 33.0143 426.584 32.6953C426.841 32.3763 427.165 32.1305 427.556 31.958C427.946 31.7822 428.407 31.6943 428.938 31.6943C429.442 31.6943 429.885 31.7822 430.266 31.958C430.65 32.1305 430.972 32.3779 431.232 32.7002C431.493 33.0192 431.688 33.4049 431.818 33.8574C431.952 34.3066 432.019 34.8096 432.019 35.3662ZM426.789 35.3662C426.789 35.8122 426.831 36.2142 426.916 36.5723C427.001 36.9271 427.129 37.2298 427.302 37.4805C427.478 37.7279 427.699 37.9183 427.966 38.0518C428.236 38.182 428.557 38.2471 428.928 38.2471C429.299 38.2471 429.618 38.182 429.885 38.0518C430.155 37.9183 430.376 37.7279 430.549 37.4805C430.725 37.2298 430.853 36.9271 430.935 36.5723C431.016 36.2142 431.057 35.8122 431.057 35.3662C431.057 34.917 431.016 34.515 430.935 34.1602C430.853 33.8053 430.726 33.5059 430.554 33.2617C430.381 33.0143 430.161 32.8255 429.895 32.6953C429.628 32.5618 429.309 32.4951 428.938 32.4951C428.566 32.4951 428.246 32.5618 427.976 32.6953C427.705 32.8255 427.482 33.0143 427.307 33.2617C427.131 33.5059 427.001 33.8053 426.916 34.1602C426.831 34.515 426.789 34.917 426.789 35.3662ZM435.808 33.4863C435.902 33.4863 436.008 33.4912 436.125 33.501C436.242 33.5075 436.343 33.5189 436.428 33.5352L436.311 34.3555C436.219 34.3392 436.125 34.3262 436.027 34.3164C435.933 34.3034 435.843 34.2969 435.759 34.2969C435.554 34.2969 435.367 34.3392 435.197 34.4238C435.028 34.5052 434.882 34.624 434.758 34.7803C434.637 34.9333 434.543 35.1188 434.475 35.3369C434.41 35.5518 434.377 35.791 434.377 36.0547V38.9453H433.488V33.584H434.211L434.318 34.5654H434.357C434.439 34.4255 434.525 34.2904 434.616 34.1602C434.711 34.0299 434.815 33.916 434.929 33.8184C435.046 33.7174 435.176 33.6377 435.319 33.5791C435.463 33.5173 435.625 33.4863 435.808 33.4863ZM438.371 38.9453H437.482V33.584H438.371V38.9453ZM437.414 32.1338C437.414 31.9385 437.463 31.7969 437.561 31.709C437.661 31.6211 437.785 31.5771 437.932 31.5771C438.003 31.5771 438.07 31.5885 438.132 31.6113C438.197 31.6309 438.252 31.6634 438.298 31.709C438.347 31.7546 438.384 31.8132 438.41 31.8848C438.439 31.9531 438.454 32.0361 438.454 32.1338C438.454 32.3226 438.402 32.4642 438.298 32.5586C438.197 32.6497 438.075 32.6953 437.932 32.6953C437.785 32.6953 437.661 32.6497 437.561 32.5586C437.463 32.4674 437.414 32.3258 437.414 32.1338ZM444.201 33.584V34.1357L443.239 34.2676C443.33 34.3815 443.407 34.528 443.469 34.707C443.531 34.8828 443.562 35.083 443.562 35.3076C443.562 35.555 443.522 35.7845 443.444 35.9961C443.369 36.2044 443.254 36.3851 443.098 36.5381C442.945 36.6911 442.754 36.8115 442.526 36.8994C442.299 36.984 442.033 37.0264 441.73 37.0264C441.659 37.0264 441.587 37.0264 441.516 37.0264C441.444 37.0231 441.385 37.0166 441.34 37.0068C441.285 37.0394 441.229 37.0768 441.174 37.1191C441.122 37.1582 441.073 37.2038 441.027 37.2559C440.985 37.3079 440.949 37.3665 440.92 37.4316C440.894 37.4967 440.881 37.5684 440.881 37.6465C440.881 37.7344 440.9 37.806 440.939 37.8613C440.979 37.9134 441.031 37.9541 441.096 37.9834C441.164 38.0127 441.244 38.0322 441.335 38.042C441.426 38.0518 441.522 38.0566 441.623 38.0566H442.482C442.785 38.0566 443.041 38.0957 443.249 38.1738C443.457 38.2487 443.627 38.3512 443.757 38.4814C443.89 38.6117 443.986 38.7663 444.045 38.9453C444.104 39.1211 444.133 39.3083 444.133 39.5068C444.133 39.7933 444.079 40.0505 443.972 40.2783C443.868 40.5062 443.706 40.6982 443.488 40.8545C443.27 41.014 442.993 41.1361 442.658 41.2207C442.326 41.3053 441.934 41.3477 441.481 41.3477C441.133 41.3477 440.829 41.3135 440.568 41.2451C440.308 41.1768 440.091 41.0775 439.919 40.9473C439.746 40.8171 439.616 40.6592 439.528 40.4736C439.444 40.2913 439.401 40.0846 439.401 39.8535C439.401 39.6582 439.432 39.4857 439.494 39.3359C439.559 39.1895 439.646 39.0625 439.753 38.9551C439.86 38.8477 439.984 38.7598 440.124 38.6914C440.267 38.623 440.415 38.571 440.568 38.5352C440.432 38.4733 440.319 38.3757 440.231 38.2422C440.144 38.1087 440.1 37.9557 440.1 37.7832C440.1 37.5846 440.152 37.4137 440.256 37.2705C440.36 37.124 440.524 36.9824 440.749 36.8457C440.609 36.7871 440.48 36.7074 440.363 36.6064C440.249 36.5023 440.152 36.3851 440.07 36.2549C439.992 36.1214 439.93 35.9766 439.885 35.8203C439.842 35.6641 439.821 35.5029 439.821 35.3369C439.821 35.0472 439.862 34.7884 439.943 34.5605C440.025 34.3327 440.145 34.139 440.305 33.9795C440.464 33.82 440.663 33.6979 440.9 33.6133C441.138 33.5286 441.415 33.4863 441.73 33.4863C441.851 33.4863 441.975 33.4961 442.102 33.5156C442.232 33.5319 442.341 33.5547 442.429 33.584H444.201ZM440.241 39.8242C440.241 39.9447 440.262 40.057 440.305 40.1611C440.347 40.2653 440.415 40.3548 440.51 40.4297C440.607 40.5046 440.734 40.5632 440.891 40.6055C441.05 40.651 441.247 40.6738 441.481 40.6738C442.087 40.6738 442.539 40.5794 442.839 40.3906C443.142 40.2051 443.293 39.9365 443.293 39.585C443.293 39.4352 443.273 39.3132 443.234 39.2188C443.195 39.1243 443.13 39.0495 443.039 38.9941C442.951 38.9421 442.834 38.9062 442.688 38.8867C442.541 38.8672 442.362 38.8574 442.15 38.8574H441.291C441.177 38.8574 441.058 38.8704 440.935 38.8965C440.811 38.9225 440.697 38.9714 440.593 39.043C440.492 39.1146 440.407 39.2122 440.339 39.3359C440.274 39.4629 440.241 39.6257 440.241 39.8242ZM440.69 35.3076C440.69 35.682 440.778 35.9603 440.954 36.1426C441.13 36.3249 441.379 36.416 441.701 36.416C442.027 36.416 442.272 36.3265 442.438 36.1475C442.608 35.9652 442.692 35.6803 442.692 35.293C442.692 34.8926 442.606 34.598 442.434 34.4092C442.264 34.2204 442.017 34.126 441.691 34.126C441.369 34.126 441.122 34.2236 440.949 34.4189C440.777 34.6143 440.69 34.9105 440.69 35.3076ZM446.145 38.9453H445.256V33.584H446.145V38.9453ZM445.188 32.1338C445.188 31.9385 445.236 31.7969 445.334 31.709C445.435 31.6211 445.559 31.5771 445.705 31.5771C445.777 31.5771 445.843 31.5885 445.905 31.6113C445.97 31.6309 446.026 31.6634 446.071 31.709C446.12 31.7546 446.158 31.8132 446.184 31.8848C446.213 31.9531 446.228 32.0361 446.228 32.1338C446.228 32.3226 446.175 32.4642 446.071 32.5586C445.97 32.6497 445.848 32.6953 445.705 32.6953C445.559 32.6953 445.435 32.6497 445.334 32.5586C445.236 32.4674 445.188 32.3258 445.188 32.1338ZM451.193 38.9453V35.4932C451.193 35.07 451.107 34.7526 450.935 34.541C450.765 34.3294 450.498 34.2236 450.134 34.2236C449.87 34.2236 449.649 34.266 449.47 34.3506C449.291 34.4352 449.146 34.5605 449.035 34.7266C448.928 34.8926 448.85 35.096 448.801 35.3369C448.755 35.5778 448.732 35.8545 448.732 36.167V38.9453H447.844V33.584H448.566L448.693 34.3066H448.742C448.824 34.1667 448.92 34.0462 449.03 33.9453C449.144 33.8411 449.268 33.7549 449.401 33.6865C449.535 33.6182 449.676 33.5677 449.826 33.5352C449.976 33.5026 450.129 33.4863 450.285 33.4863C450.881 33.4863 451.328 33.6426 451.628 33.9551C451.931 34.2643 452.082 34.7607 452.082 35.4443V38.9453H451.193ZM456.755 38.9453L456.574 38.2031H456.535C456.428 38.3496 456.32 38.4766 456.213 38.584C456.105 38.6882 455.988 38.7744 455.861 38.8428C455.734 38.9111 455.593 38.9616 455.437 38.9941C455.28 39.0267 455.1 39.043 454.895 39.043C454.67 39.043 454.463 39.0104 454.274 38.9453C454.086 38.8835 453.921 38.7874 453.781 38.6572C453.645 38.5238 453.537 38.3577 453.459 38.1592C453.381 37.9574 453.342 37.7197 453.342 37.4463C453.342 36.9124 453.529 36.5023 453.903 36.2158C454.281 35.9294 454.854 35.7731 455.622 35.7471L456.521 35.7129V35.376C456.521 35.1579 456.496 34.9756 456.447 34.8291C456.402 34.6826 456.333 34.5654 456.242 34.4775C456.154 34.3864 456.044 34.3213 455.91 34.2822C455.78 34.2432 455.63 34.2236 455.461 34.2236C455.191 34.2236 454.938 34.2627 454.704 34.3408C454.473 34.4189 454.25 34.5133 454.035 34.624L453.723 33.9551C453.964 33.8249 454.232 33.7142 454.528 33.623C454.825 33.5319 455.135 33.4863 455.461 33.4863C455.793 33.4863 456.079 33.5205 456.32 33.5889C456.564 33.654 456.765 33.7598 456.921 33.9063C457.08 34.0495 457.199 34.2334 457.277 34.458C457.355 34.6826 457.395 34.9544 457.395 35.2734V38.9453L456.755 38.9453ZM455.124 38.3252C455.323 38.3252 455.507 38.2943 455.676 38.2324C455.845 38.1706 455.992 38.0778 456.115 37.9541C456.239 37.8271 456.335 37.6693 456.403 37.4805C456.475 37.2884 456.511 37.0638 456.511 36.8066V36.3232L455.812 36.3574C455.52 36.3704 455.274 36.403 455.075 36.4551C454.877 36.5072 454.717 36.5804 454.597 36.6748C454.479 36.766 454.395 36.8783 454.343 37.0117C454.291 37.1419 454.265 37.29 454.265 37.4561C454.265 37.7555 454.343 37.9753 454.499 38.1152C454.659 38.2552 454.867 38.3252 455.124 38.3252ZM459.934 38.9453H459.045V31.3477H459.934V38.9453Z" fill="white"/>
<g clip-path="url(#clip0)">
<rect width="219" height="494" transform="translate(494 64) rotate(90)" fill="url(#paint1_linear)"/>
<path d="M19 146.906C19 141.435 23.4349 137 28.9055 137H83.0945C88.5651 137 93 141.435 93 146.906V146.906C93 152.376 88.5651 156.811 83.0945 156.811H28.9055C23.4349 156.811 19 152.376 19 146.906V146.906Z" fill="#111111" fill-opacity="0.2"/>
<g clip-path="url(#clip1)">
<path d="M36.8511 146.044C36.8511 145.433 36.4177 144.921 35.8435 144.798C36.0729 144.415 36.2138 143.973 36.2138 143.495C36.2138 142.089 35.0705 140.945 33.6646 140.945C32.6978 140.945 31.8667 141.491 31.434 142.286C31.0013 141.491 30.1702 140.945 29.2034 140.945C27.7976 140.945 26.6542 142.089 26.6542 143.495C26.6542 144.069 26.8531 144.595 27.1749 145.022C27.014 145.139 26.8831 145.293 26.7927 145.471C26.7022 145.648 26.6548 145.844 26.6542 146.044V151.142C26.6542 151.845 27.2259 152.417 27.9288 152.417H35.5765C36.2794 152.417 36.8511 151.845 36.8511 151.142V149.461L39.4003 150.736V146.274L36.8511 147.549V146.044ZM33.6646 142.22C34.3675 142.22 34.9392 142.792 34.9392 143.495C34.9392 144.197 34.3675 144.769 33.6646 144.769C32.9616 144.769 32.39 144.197 32.39 143.495C32.39 142.792 32.9616 142.22 33.6646 142.22ZM29.2034 142.22C29.9064 142.22 30.4781 142.792 30.4781 143.495C30.4781 144.197 29.9064 144.769 29.2034 144.769C28.5005 144.769 27.9288 144.197 27.9288 143.495C27.9288 142.792 28.5005 142.22 29.2034 142.22ZM27.9288 151.142V146.044H35.5765L35.5778 151.142H27.9288Z" fill="white"/>
<path d="M53.4395 142.566V143.59H50.3668V152.33H49.1035V143.59H46.0308V142.566H53.4395ZM54.8119 152.33V145.16H55.6655L55.8908 146.075C56.519 145.465 57.2747 145.16 58.1578 145.16V146.212C57.302 146.212 56.6078 146.515 56.0752 147.12V152.33H54.8119ZM59.0864 150.166C59.0864 148.695 60.056 147.96 61.9953 147.96C62.6189 147.96 63.2426 148.006 63.8662 148.097V147.421C63.8662 146.597 63.2221 146.185 61.9338 146.185C61.1964 146.185 60.4407 146.298 59.6668 146.526V145.502C60.4407 145.274 61.1964 145.16 61.9338 145.16C64.0642 145.16 65.1294 145.902 65.1294 147.386V152.33H64.4193L63.9823 151.62C63.2676 152.093 62.4892 152.33 61.647 152.33C59.94 152.33 59.0864 151.609 59.0864 150.166ZM61.9953 148.984C60.8982 148.984 60.3497 149.371 60.3497 150.145C60.3497 150.919 60.7821 151.306 61.647 151.306C62.521 151.306 63.2608 151.074 63.8662 150.609V149.121C63.2426 149.03 62.6189 148.984 61.9953 148.984ZM68.5845 145.16V152.33H67.3213V145.16H68.5845ZM68.5845 142.566V143.761H67.3213V142.566H68.5845ZM72.1079 142.566V152.33H70.8447V142.566H72.1079ZM77.1881 145.16C79.2275 145.16 80.2472 146.169 80.2472 148.185C80.2472 148.472 80.2267 148.779 80.1857 149.107H75.1533C75.1533 150.573 76.0091 151.306 77.7207 151.306C78.5356 151.306 79.2593 151.215 79.8921 151.033V152.057C79.2593 152.239 78.49 152.33 77.5841 152.33C75.1214 152.33 73.8901 151.108 73.8901 148.663C73.8901 146.328 74.9894 145.16 77.1881 145.16ZM75.1533 148.056H79.0317C79.0044 146.799 78.3899 146.171 77.1881 146.171C75.9135 146.171 75.2352 146.799 75.1533 148.056ZM81.9474 152.33V145.16H82.8009L83.0263 146.075C83.6545 145.465 84.4101 145.16 85.2932 145.16V146.212C84.4374 146.212 83.7432 146.515 83.2106 147.12V152.33H81.9474Z" fill="white"/>
</g>
<path d="M28.9055 138.165H83.0945V135.835H28.9055V138.165ZM83.0945 155.646H28.9055V157.976H83.0945V155.646ZM28.9055 155.646C24.0785 155.646 20.1654 151.733 20.1654 146.906H17.8346C17.8346 153.02 22.7912 157.976 28.9055 157.976V155.646ZM91.8346 146.906C91.8346 151.733 87.9215 155.646 83.0945 155.646V157.976C89.2088 157.976 94.1654 153.02 94.1654 146.906H91.8346ZM83.0945 138.165C87.9215 138.165 91.8346 142.078 91.8346 146.906H94.1654C94.1654 140.791 89.2088 135.835 83.0945 135.835V138.165ZM28.9055 135.835C22.7912 135.835 17.8346 140.791 17.8346 146.906H20.1654C20.1654 142.078 24.0785 138.165 28.9055 138.165V135.835Z" fill="white"/>
<path d="M20.4648 182.811V168.846H27.0078C29.6641 168.846 30.9922 169.93 30.9922 172.098C30.9922 173.686 30.1263 174.822 28.3945 175.506C30.2435 175.851 31.168 176.909 31.168 178.68C31.168 181.434 29.7129 182.811 26.8027 182.811H20.4648ZM26.6953 180.564C27.8411 180.564 28.4141 179.979 28.4141 178.807C28.4141 177.355 27.5579 176.629 25.8457 176.629H25.0645V174.959C27.2129 174.601 28.2871 173.702 28.2871 172.264C28.2871 171.482 27.8053 171.092 26.8418 171.092H23.0527V180.564H26.6953ZM42.3594 172.557V182.811H40.3379L40.0254 181.502C38.847 182.374 37.597 182.811 36.2754 182.811C34.179 182.811 33.1309 181.57 33.1309 179.09V172.557H35.7188V179.021C35.7188 180.154 36.2135 180.721 37.2031 180.721C38.043 180.721 38.8991 180.385 39.7715 179.715V172.557H42.3594ZM47.3984 168.846V182.811H44.8105V168.846H47.3984ZM56.4121 174.881C55.9889 174.725 55.3867 174.646 54.6055 174.646C52.8151 174.646 51.9199 175.633 51.9199 177.605C51.9199 179.513 52.6914 180.467 54.2344 180.467C54.9766 180.467 55.7025 180.291 56.4121 179.939V174.881ZM59 182.029C59 185.024 57.1999 186.521 53.5996 186.521C52.3366 186.521 51.2168 186.359 50.2402 186.033V183.982C51.2363 184.308 52.3626 184.471 53.6191 184.471C55.4811 184.471 56.4121 183.689 56.4121 182.127C55.6439 182.452 54.8171 182.615 53.9316 182.615C50.8848 182.615 49.3613 180.952 49.3613 177.625C49.3613 174.246 51.1354 172.557 54.6836 172.557C55.875 172.557 57.3138 172.697 59 172.977V182.029ZM65.7773 172.557C68.8893 172.557 70.4453 174.145 70.4453 177.322C70.4453 177.745 70.416 178.169 70.3574 178.592H63.5508C63.5508 180.037 64.612 180.76 66.7344 180.76C67.7695 180.76 68.8047 180.662 69.8398 180.467V182.518C68.9349 182.713 67.8346 182.811 66.5391 182.811C62.8216 182.811 60.9629 181.062 60.9629 177.566C60.9629 174.227 62.5677 172.557 65.7773 172.557ZM63.5508 176.795H67.9258V176.717C67.9258 175.298 67.2096 174.588 65.7773 174.588C64.4102 174.588 63.668 175.324 63.5508 176.795ZM77.0273 182.811V168.846H83.5703C86.2266 168.846 87.5547 169.93 87.5547 172.098C87.5547 173.686 86.6888 174.822 84.957 175.506C86.806 175.851 87.7305 176.909 87.7305 178.68C87.7305 181.434 86.2754 182.811 83.3652 182.811H77.0273ZM83.2578 180.564C84.4036 180.564 84.9766 179.979 84.9766 178.807C84.9766 177.355 84.1204 176.629 82.4082 176.629H81.627V174.959C83.7754 174.601 84.8496 173.702 84.8496 172.264C84.8496 171.482 84.3678 171.092 83.4043 171.092H79.6152V180.564H83.2578ZM89.6934 182.811V172.557H91.6953L92.0176 173.865C92.916 172.993 93.8665 172.557 94.8691 172.557V174.646C93.9056 174.646 93.043 175.047 92.2812 175.848V182.811H89.6934ZM95.8457 179.617C95.8457 177.579 97.3301 176.561 100.299 176.561C100.995 176.561 101.692 176.626 102.389 176.756V175.984C102.389 175.066 101.728 174.607 100.406 174.607C99.2865 174.607 98.043 174.77 96.6758 175.096V173.045C98.043 172.719 99.2865 172.557 100.406 172.557C103.453 172.557 104.977 173.683 104.977 175.936V182.811H103.473L102.555 181.893C101.663 182.505 100.68 182.811 99.6055 182.811C97.099 182.811 95.8457 181.746 95.8457 179.617ZM102.389 178.514C101.738 178.383 101.041 178.318 100.299 178.318C99.0553 178.318 98.4336 178.742 98.4336 179.588C98.4336 180.499 98.9544 180.955 99.9961 180.955C100.855 180.955 101.653 180.688 102.389 180.154V178.514ZM114.996 182.518C114.15 182.713 113.271 182.811 112.359 182.811C108.714 182.811 106.891 181.036 106.891 177.488C106.891 174.201 108.714 172.557 112.359 172.557C113.271 172.557 114.15 172.654 114.996 172.85V174.9C114.15 174.705 113.336 174.607 112.555 174.607C110.504 174.607 109.479 175.568 109.479 177.488C109.479 179.669 110.504 180.76 112.555 180.76C113.336 180.76 114.15 180.662 114.996 180.467V182.518ZM116.705 182.811V168.846H119.293V173.357C120.354 172.824 121.471 172.557 122.643 172.557C125.26 172.557 126.568 173.543 126.568 175.516C126.568 176.948 125.657 178.068 123.834 178.875L127.018 182.811H123.854L121.178 179.148V177.947C123.046 177.55 123.98 176.899 123.98 175.994C123.98 175.07 123.362 174.607 122.125 174.607C121.259 174.607 120.315 174.881 119.293 175.428V182.811H116.705ZM132.809 172.557C135.921 172.557 137.477 174.145 137.477 177.322C137.477 177.745 137.447 178.169 137.389 178.592H130.582C130.582 180.037 131.643 180.76 133.766 180.76C134.801 180.76 135.836 180.662 136.871 180.467V182.518C135.966 182.713 134.866 182.811 133.57 182.811C129.853 182.811 127.994 181.062 127.994 177.566C127.994 174.227 129.599 172.557 132.809 172.557ZM130.582 176.795H134.957V176.717C134.957 175.298 134.241 174.588 132.809 174.588C131.441 174.588 130.699 175.324 130.582 176.795ZM139.273 170.896H141.188L141.578 172.557H144.156V174.607H141.861V179.324C141.861 180.281 142.275 180.76 143.102 180.76H144.156V182.811H141.852C140.133 182.811 139.273 181.889 139.273 180.047V170.896Z" fill="white"/>
<path d="M25.25 197.342L23.4726 200.943L19.5 201.518L22.375 204.322L21.6953 208.279L25.25 206.412L28.8047 208.279L28.125 204.322L31 201.521L27.0273 200.943L25.25 197.342Z" fill="#F39B13"/>
<path d="M40.9365 202.082C40.9365 202.561 40.9115 203.039 40.8613 203.518C40.8158 203.992 40.7314 204.445 40.6084 204.878C40.4899 205.311 40.3258 205.716 40.1162 206.095C39.9066 206.468 39.64 206.792 39.3164 207.065C38.9928 207.339 38.6055 207.555 38.1543 207.715C37.7031 207.87 37.1745 207.947 36.5684 207.947C36.4818 207.947 36.3861 207.945 36.2812 207.94C36.1764 207.936 36.0716 207.927 35.9668 207.913C35.862 207.904 35.7594 207.893 35.6592 207.879C35.5589 207.865 35.4701 207.847 35.3926 207.824V206.758C35.5521 206.817 35.7321 206.86 35.9326 206.888C36.1331 206.915 36.3314 206.929 36.5273 206.929C37.1426 206.929 37.6484 206.822 38.0449 206.607C38.4414 206.393 38.7559 206.104 38.9883 205.739C39.2207 205.37 39.3848 204.942 39.4805 204.454C39.5807 203.966 39.6423 203.451 39.665 202.909H39.5762C39.485 203.073 39.3757 203.226 39.248 203.367C39.1204 203.508 38.9701 203.632 38.7969 203.736C38.6237 203.841 38.4277 203.923 38.209 203.982C37.9902 204.042 37.7464 204.071 37.4775 204.071C37.0446 204.071 36.6527 204.005 36.3018 203.873C35.9508 203.736 35.6523 203.538 35.4062 203.278C35.1602 203.019 34.9688 202.702 34.832 202.328C34.6999 201.95 34.6338 201.519 34.6338 201.036C34.6338 200.517 34.7044 200.049 34.8457 199.635C34.9915 199.215 35.1943 198.862 35.4541 198.575C35.7184 198.284 36.0374 198.06 36.4111 197.905C36.7894 197.75 37.2109 197.673 37.6758 197.673C38.1361 197.673 38.5645 197.762 38.9609 197.939C39.3574 198.117 39.7015 198.388 39.9932 198.753C40.2848 199.118 40.515 199.578 40.6836 200.134C40.8522 200.685 40.9365 201.335 40.9365 202.082ZM37.6895 198.726C37.416 198.726 37.1654 198.771 36.9375 198.862C36.7142 198.953 36.5205 199.095 36.3564 199.286C36.1924 199.478 36.0648 199.719 35.9736 200.011C35.887 200.298 35.8438 200.64 35.8438 201.036C35.8438 201.355 35.8802 201.642 35.9531 201.897C36.0306 202.148 36.1445 202.362 36.2949 202.54C36.4453 202.718 36.6322 202.854 36.8555 202.95C37.0833 203.046 37.3477 203.094 37.6484 203.094C37.9583 203.094 38.2386 203.041 38.4893 202.937C38.7399 202.827 38.9541 202.688 39.1318 202.52C39.3096 202.346 39.4463 202.15 39.542 201.932C39.6423 201.713 39.6924 201.494 39.6924 201.275C39.6924 200.97 39.6491 200.667 39.5625 200.366C39.4805 200.061 39.3551 199.787 39.1865 199.546C39.0225 199.3 38.8151 199.102 38.5645 198.951C38.3138 198.801 38.0221 198.726 37.6895 198.726ZM42.625 207.052C42.625 206.879 42.6478 206.733 42.6934 206.614C42.7389 206.491 42.8005 206.393 42.8779 206.32C42.9554 206.243 43.0465 206.188 43.1514 206.156C43.2562 206.12 43.3701 206.102 43.4932 206.102C43.6117 206.102 43.7233 206.12 43.8281 206.156C43.9375 206.188 44.0309 206.243 44.1084 206.32C44.1859 206.393 44.2474 206.491 44.293 206.614C44.3385 206.733 44.3613 206.879 44.3613 207.052C44.3613 207.22 44.3385 207.366 44.293 207.489C44.2474 207.608 44.1859 207.706 44.1084 207.783C44.0309 207.861 43.9375 207.918 43.8281 207.954C43.7233 207.991 43.6117 208.009 43.4932 208.009C43.3701 208.009 43.2562 207.991 43.1514 207.954C43.0465 207.918 42.9554 207.861 42.8779 207.783C42.8005 207.706 42.7389 207.608 42.6934 207.489C42.6478 207.366 42.625 207.22 42.625 207.052ZM52.2705 207.811H46.0361V206.744L48.4287 204.14C48.7705 203.771 49.0758 203.433 49.3447 203.128C49.6136 202.823 49.8415 202.524 50.0283 202.232C50.2197 201.941 50.3656 201.649 50.4658 201.357C50.5661 201.061 50.6162 200.74 50.6162 200.394C50.6162 200.125 50.5775 199.888 50.5 199.683C50.4225 199.478 50.3109 199.304 50.165 199.163C50.0238 199.017 49.8551 198.908 49.6592 198.835C49.4632 198.762 49.2445 198.726 49.0029 198.726C48.57 198.726 48.1781 198.814 47.8271 198.992C47.4808 199.165 47.1504 199.389 46.8359 199.662L46.1387 198.849C46.321 198.685 46.5169 198.532 46.7266 198.391C46.9362 198.245 47.1618 198.119 47.4033 198.015C47.6449 197.91 47.9001 197.828 48.1689 197.769C48.4378 197.705 48.7204 197.673 49.0166 197.673C49.4541 197.673 49.8483 197.734 50.1992 197.857C50.5547 197.98 50.8555 198.158 51.1016 198.391C51.3477 198.618 51.5368 198.899 51.6689 199.231C51.8057 199.56 51.874 199.931 51.874 200.346C51.874 200.733 51.8125 201.102 51.6895 201.453C51.571 201.804 51.4046 202.15 51.1904 202.492C50.9808 202.829 50.7279 203.169 50.4316 203.511C50.14 203.853 49.8232 204.208 49.4814 204.577L47.5605 206.621V206.676H52.2705V207.811Z" fill="white"/>
<path d="M58.1523 198.035V207.811H56.8877V198.035H58.1523ZM60.6885 207.811V198.035H62.2949L65.8838 206.19L69.4043 198.035H70.9424V207.811H69.8145V199.792L66.3418 207.811H65.3438L61.8164 199.792V207.811H60.6885ZM76.8213 206.785C79.2139 206.785 80.4102 205.409 80.4102 202.656C80.4102 200.259 79.2139 199.061 76.8213 199.061H74.5312V206.785H76.8213ZM73.2666 207.811V198.035H76.8213C80.057 198.035 81.6748 199.576 81.6748 202.656C81.6748 206.092 80.057 207.811 76.8213 207.811H73.2666ZM84.6484 206.56C85.0632 206.692 85.5667 206.758 86.1592 206.758C87.7542 206.758 88.5518 205.849 88.5518 204.03C88.5518 202.494 87.8294 201.727 86.3848 201.727C85.7285 201.727 85.1497 201.85 84.6484 202.096V206.56ZM83.3838 198.035H84.6484V200.975C85.1908 200.747 85.7718 200.633 86.3916 200.633C88.6611 200.633 89.7959 201.781 89.7959 204.078C89.7959 206.566 88.6042 207.811 86.2207 207.811C85.1908 207.811 84.2451 207.713 83.3838 207.517V198.035Z" fill="white"/>
<path d="M26.2666 231.811H19.5605V230.341L21.9121 227.805C22.2083 227.486 22.4772 227.192 22.7188 226.923C22.9603 226.654 23.1676 226.392 23.3408 226.137C23.514 225.882 23.6484 225.622 23.7441 225.357C23.8398 225.093 23.8877 224.808 23.8877 224.503C23.8877 224.166 23.7852 223.904 23.5801 223.717C23.3796 223.53 23.1084 223.437 22.7666 223.437C22.4066 223.437 22.0602 223.525 21.7275 223.703C21.3949 223.881 21.0462 224.134 20.6816 224.462L19.5332 223.102C19.7383 222.915 19.9525 222.737 20.1758 222.568C20.3991 222.395 20.6452 222.243 20.9141 222.11C21.1829 221.978 21.4792 221.873 21.8027 221.796C22.1263 221.714 22.4886 221.673 22.8896 221.673C23.3682 221.673 23.7965 221.739 24.1748 221.871C24.5576 222.003 24.8835 222.192 25.1523 222.438C25.4212 222.68 25.6263 222.974 25.7676 223.32C25.9134 223.667 25.9863 224.056 25.9863 224.489C25.9863 224.881 25.918 225.257 25.7812 225.617C25.6445 225.973 25.4577 226.324 25.2207 226.67C24.9837 227.012 24.708 227.354 24.3936 227.695C24.0837 228.033 23.751 228.377 23.3955 228.728L22.1924 229.938V230.033H26.2666V231.811ZM38.0723 231.811H35.9873V227.347C35.9873 226.795 35.9007 226.383 35.7275 226.109C35.5589 225.831 35.2969 225.692 34.9414 225.692C34.6725 225.692 34.4469 225.747 34.2646 225.856C34.0824 225.966 33.9365 226.128 33.8271 226.342C33.7178 226.556 33.6403 226.82 33.5947 227.135C33.5492 227.449 33.5264 227.809 33.5264 228.215V231.811H31.4414V221.174H33.5264V223.341C33.5264 223.532 33.5218 223.735 33.5127 223.949C33.5036 224.159 33.4922 224.353 33.4785 224.53C33.4603 224.74 33.4443 224.945 33.4307 225.146H33.54C33.7633 224.749 34.0482 224.464 34.3945 224.291C34.7409 224.113 35.1328 224.024 35.5703 224.024C35.9486 224.024 36.2904 224.079 36.5957 224.188C36.9056 224.293 37.1699 224.46 37.3887 224.688C37.6074 224.915 37.776 225.207 37.8945 225.562C38.013 225.913 38.0723 226.335 38.0723 226.827V231.811ZM44.2041 224.024C44.2588 224.024 44.318 224.027 44.3818 224.031C44.4502 224.031 44.514 224.036 44.5732 224.045C44.637 224.049 44.694 224.056 44.7441 224.065C44.7988 224.07 44.8398 224.077 44.8672 224.086V226.041C44.8307 226.032 44.7806 226.023 44.7168 226.014C44.653 226.005 44.5846 225.998 44.5117 225.993C44.4434 225.984 44.375 225.979 44.3066 225.979C44.2383 225.975 44.1813 225.973 44.1357 225.973C43.8669 225.973 43.6185 226.007 43.3906 226.075C43.1673 226.144 42.9736 226.255 42.8096 226.41C42.6501 226.561 42.5247 226.761 42.4336 227.012C42.347 227.258 42.3037 227.561 42.3037 227.921V231.811H40.2188V224.168H41.7979L42.1055 225.316H42.208C42.3174 225.12 42.4359 224.943 42.5635 224.783C42.6911 224.624 42.8324 224.489 42.9873 224.38C43.1468 224.266 43.3245 224.179 43.5205 224.12C43.721 224.056 43.9489 224.024 44.2041 224.024ZM56.1123 231.811H49.4062V230.341L51.7578 227.805C52.054 227.486 52.3229 227.192 52.5645 226.923C52.806 226.654 53.0133 226.392 53.1865 226.137C53.3597 225.882 53.4941 225.622 53.5898 225.357C53.6855 225.093 53.7334 224.808 53.7334 224.503C53.7334 224.166 53.6309 223.904 53.4258 223.717C53.2253 223.53 52.9541 223.437 52.6123 223.437C52.2523 223.437 51.9059 223.525 51.5732 223.703C51.2406 223.881 50.8919 224.134 50.5273 224.462L49.3789 223.102C49.584 222.915 49.7982 222.737 50.0215 222.568C50.2448 222.395 50.4909 222.243 50.7598 222.11C51.0286 221.978 51.3249 221.873 51.6484 221.796C51.972 221.714 52.3343 221.673 52.7354 221.673C53.2139 221.673 53.6423 221.739 54.0205 221.871C54.4033 222.003 54.7292 222.192 54.998 222.438C55.2669 222.68 55.472 222.974 55.6133 223.32C55.7591 223.667 55.832 224.056 55.832 224.489C55.832 224.881 55.7637 225.257 55.627 225.617C55.4902 225.973 55.3034 226.324 55.0664 226.67C54.8294 227.012 54.5537 227.354 54.2393 227.695C53.9294 228.033 53.5967 228.377 53.2412 228.728L52.0381 229.938V230.033H56.1123V231.811ZM63.8232 231.811H57.1172V230.341L59.4688 227.805C59.765 227.486 60.0339 227.192 60.2754 226.923C60.5169 226.654 60.7243 226.392 60.8975 226.137C61.0706 225.882 61.2051 225.622 61.3008 225.357C61.3965 225.093 61.4443 224.808 61.4443 224.503C61.4443 224.166 61.3418 223.904 61.1367 223.717C60.9362 223.53 60.665 223.437 60.3232 223.437C59.9632 223.437 59.6169 223.525 59.2842 223.703C58.9515 223.881 58.6029 224.134 58.2383 224.462L57.0898 223.102C57.2949 222.915 57.5091 222.737 57.7324 222.568C57.9557 222.395 58.2018 222.243 58.4707 222.11C58.7396 221.978 59.0358 221.873 59.3594 221.796C59.6829 221.714 60.0452 221.673 60.4463 221.673C60.9248 221.673 61.3532 221.739 61.7314 221.871C62.1143 222.003 62.4401 222.192 62.709 222.438C62.9779 222.68 63.1829 222.974 63.3242 223.32C63.4701 223.667 63.543 224.056 63.543 224.489C63.543 224.881 63.4746 225.257 63.3379 225.617C63.2012 225.973 63.0143 226.324 62.7773 226.67C62.5404 227.012 62.2646 227.354 61.9502 227.695C61.6403 228.033 61.3076 228.377 60.9521 228.728L59.749 229.938V230.033H63.8232V231.811ZM75.5605 231.811H73.4756V227.347C73.4756 226.795 73.3936 226.383 73.2295 226.109C73.0654 225.831 72.8079 225.692 72.457 225.692C72.1927 225.692 71.9717 225.747 71.7939 225.856C71.6208 225.966 71.4818 226.128 71.377 226.342C71.2721 226.556 71.1969 226.82 71.1514 227.135C71.1058 227.449 71.083 227.809 71.083 228.215V231.811H68.998V224.168H70.5908L70.8711 225.146H70.9873C71.0967 224.95 71.2266 224.781 71.377 224.64C71.5319 224.498 71.7005 224.382 71.8828 224.291C72.0651 224.2 72.2588 224.134 72.4639 224.093C72.6689 224.047 72.8763 224.024 73.0859 224.024C73.61 224.024 74.0544 224.116 74.4189 224.298C74.7881 224.476 75.0706 224.758 75.2666 225.146H75.4375C75.5469 224.95 75.679 224.781 75.834 224.64C75.9889 224.498 76.1598 224.382 76.3467 224.291C76.5335 224.2 76.7295 224.134 76.9346 224.093C77.1442 224.047 77.3538 224.024 77.5635 224.024C78.3838 224.024 79.0013 224.248 79.416 224.694C79.8353 225.136 80.0449 225.847 80.0449 226.827V231.811H77.9531V227.347C77.9531 226.795 77.8711 226.383 77.707 226.109C77.543 225.831 77.2855 225.692 76.9346 225.692C76.4378 225.692 76.0846 225.891 75.875 226.287C75.6654 226.679 75.5605 227.242 75.5605 227.976V231.811ZM82.1025 222.192C82.1025 221.996 82.1322 221.835 82.1914 221.707C82.2507 221.575 82.3304 221.47 82.4307 221.393C82.5355 221.311 82.6562 221.254 82.793 221.222C82.9342 221.19 83.0824 221.174 83.2373 221.174C83.3923 221.174 83.5381 221.19 83.6748 221.222C83.8115 221.254 83.93 221.311 84.0303 221.393C84.1351 221.47 84.2171 221.575 84.2764 221.707C84.3402 221.835 84.3721 221.996 84.3721 222.192C84.3721 222.384 84.3402 222.546 84.2764 222.678C84.2171 222.81 84.1351 222.917 84.0303 222.999C83.93 223.076 83.8115 223.133 83.6748 223.17C83.5381 223.202 83.3923 223.218 83.2373 223.218C83.0824 223.218 82.9342 223.202 82.793 223.17C82.6562 223.133 82.5355 223.076 82.4307 222.999C82.3304 222.917 82.2507 222.81 82.1914 222.678C82.1322 222.546 82.1025 222.384 82.1025 222.192ZM84.2764 231.811H82.1914V224.168H84.2764V231.811ZM93.1016 231.811H91.0166V227.347C91.0166 226.795 90.9323 226.383 90.7637 226.109C90.5996 225.831 90.3353 225.692 89.9707 225.692C89.6973 225.692 89.4694 225.747 89.2871 225.856C89.1048 225.966 88.959 226.128 88.8496 226.342C88.7448 226.556 88.6696 226.82 88.624 227.135C88.5785 227.449 88.5557 227.809 88.5557 228.215V231.811H86.4707V224.168H88.0635L88.3438 225.146H88.46C88.5693 224.95 88.7015 224.781 88.8564 224.64C89.016 224.498 89.1891 224.382 89.376 224.291C89.5628 224.2 89.7611 224.134 89.9707 224.093C90.1803 224.047 90.3945 224.024 90.6133 224.024C90.987 224.024 91.3265 224.079 91.6318 224.188C91.9372 224.293 92.1992 224.46 92.418 224.688C92.6367 224.915 92.8053 225.207 92.9238 225.562C93.0423 225.913 93.1016 226.335 93.1016 226.827V231.811Z" fill="white"/>
<path d="M110.267 231.811H103.561V230.341L105.912 227.805C106.208 227.486 106.477 227.192 106.719 226.923C106.96 226.654 107.168 226.392 107.341 226.137C107.514 225.882 107.648 225.622 107.744 225.357C107.84 225.093 107.888 224.808 107.888 224.503C107.888 224.166 107.785 223.904 107.58 223.717C107.38 223.53 107.108 223.437 106.767 223.437C106.407 223.437 106.06 223.525 105.728 223.703C105.395 223.881 105.046 224.134 104.682 224.462L103.533 223.102C103.738 222.915 103.952 222.737 104.176 222.568C104.399 222.395 104.645 222.243 104.914 222.11C105.183 221.978 105.479 221.873 105.803 221.796C106.126 221.714 106.489 221.673 106.89 221.673C107.368 221.673 107.797 221.739 108.175 221.871C108.558 222.003 108.883 222.192 109.152 222.438C109.421 222.68 109.626 222.974 109.768 223.32C109.913 223.667 109.986 224.056 109.986 224.489C109.986 224.881 109.918 225.257 109.781 225.617C109.645 225.973 109.458 226.324 109.221 226.67C108.984 227.012 108.708 227.354 108.394 227.695C108.084 228.033 107.751 228.377 107.396 228.728L106.192 229.938V230.033H110.267V231.811ZM117.991 226.813C117.991 227.62 117.927 228.34 117.8 228.974C117.677 229.607 117.476 230.145 117.198 230.587C116.925 231.029 116.569 231.366 116.132 231.599C115.699 231.831 115.175 231.947 114.56 231.947C113.981 231.947 113.477 231.831 113.049 231.599C112.62 231.366 112.265 231.029 111.982 230.587C111.7 230.145 111.488 229.607 111.347 228.974C111.21 228.34 111.142 227.62 111.142 226.813C111.142 226.007 111.203 225.285 111.326 224.646C111.454 224.008 111.654 223.468 111.928 223.026C112.201 222.584 112.554 222.247 112.987 222.015C113.42 221.778 113.944 221.659 114.56 221.659C115.134 221.659 115.635 221.775 116.063 222.008C116.492 222.24 116.85 222.577 117.137 223.02C117.424 223.462 117.638 224.002 117.779 224.64C117.921 225.278 117.991 226.002 117.991 226.813ZM113.247 226.813C113.247 227.953 113.345 228.81 113.541 229.384C113.737 229.958 114.076 230.245 114.56 230.245C115.034 230.245 115.373 229.96 115.578 229.391C115.788 228.821 115.893 227.962 115.893 226.813C115.893 225.67 115.788 224.811 115.578 224.236C115.373 223.658 115.034 223.368 114.56 223.368C114.318 223.368 114.113 223.441 113.944 223.587C113.78 223.733 113.646 223.949 113.541 224.236C113.436 224.523 113.361 224.883 113.315 225.316C113.27 225.745 113.247 226.244 113.247 226.813ZM124.007 231.811H121.895V226.027C121.895 225.909 121.895 225.768 121.895 225.604C121.899 225.435 121.904 225.262 121.908 225.084C121.917 224.902 121.924 224.719 121.929 224.537C121.938 224.355 121.945 224.188 121.949 224.038C121.926 224.065 121.888 224.106 121.833 224.161C121.778 224.216 121.717 224.277 121.648 224.346C121.58 224.41 121.509 224.476 121.437 224.544C121.364 224.612 121.293 224.674 121.225 224.729L120.076 225.651L119.051 224.38L122.271 221.816H124.007V231.811ZM126.652 227.565C126.652 227.087 126.677 226.611 126.728 226.137C126.782 225.663 126.876 225.209 127.008 224.776C127.145 224.339 127.327 223.933 127.555 223.56C127.787 223.186 128.079 222.862 128.43 222.589C128.785 222.311 129.209 222.094 129.701 221.939C130.198 221.78 130.777 221.7 131.438 221.7C131.533 221.7 131.638 221.702 131.752 221.707C131.866 221.712 131.98 221.718 132.094 221.728C132.212 221.732 132.326 221.741 132.436 221.755C132.545 221.769 132.643 221.785 132.729 221.803V223.491C132.556 223.45 132.372 223.418 132.176 223.396C131.984 223.368 131.791 223.354 131.595 223.354C130.979 223.354 130.474 223.432 130.077 223.587C129.681 223.737 129.366 223.949 129.134 224.223C128.901 224.496 128.735 224.824 128.635 225.207C128.539 225.59 128.48 226.014 128.457 226.479H128.539C128.63 226.314 128.74 226.162 128.867 226.021C128.999 225.875 129.152 225.752 129.325 225.651C129.498 225.547 129.692 225.465 129.906 225.405C130.125 225.346 130.369 225.316 130.638 225.316C131.071 225.316 131.46 225.387 131.807 225.528C132.153 225.67 132.445 225.875 132.682 226.144C132.923 226.412 133.108 226.743 133.235 227.135C133.363 227.527 133.427 227.976 133.427 228.481C133.427 229.024 133.349 229.509 133.194 229.938C133.044 230.366 132.827 230.73 132.545 231.031C132.262 231.327 131.921 231.555 131.52 231.715C131.118 231.87 130.667 231.947 130.166 231.947C129.674 231.947 129.214 231.861 128.785 231.688C128.357 231.51 127.983 231.241 127.664 230.881C127.35 230.521 127.101 230.067 126.919 229.521C126.741 228.969 126.652 228.317 126.652 227.565ZM130.125 230.259C130.312 230.259 130.48 230.225 130.631 230.156C130.786 230.083 130.918 229.976 131.027 229.835C131.141 229.689 131.228 229.507 131.287 229.288C131.351 229.069 131.383 228.81 131.383 228.509C131.383 228.021 131.28 227.638 131.075 227.36C130.875 227.078 130.567 226.937 130.152 226.937C129.943 226.937 129.751 226.978 129.578 227.06C129.405 227.142 129.257 227.249 129.134 227.381C129.011 227.513 128.915 227.661 128.847 227.825C128.783 227.989 128.751 228.156 128.751 228.324C128.751 228.557 128.778 228.789 128.833 229.021C128.892 229.249 128.979 229.457 129.093 229.644C129.211 229.826 129.355 229.974 129.523 230.088C129.697 230.202 129.897 230.259 130.125 230.259Z" fill="white"/>
<path d="M150.939 223.87C150.591 223.87 150.275 223.937 149.992 224.07C149.709 224.201 149.466 224.389 149.265 224.637C149.066 224.884 148.911 225.185 148.801 225.54C148.693 225.895 148.64 226.295 148.64 226.741C148.64 227.2 148.687 227.609 148.781 227.967C148.879 228.322 149.024 228.621 149.216 228.865C149.408 229.109 149.647 229.295 149.934 229.422C150.22 229.549 150.555 229.612 150.939 229.612C151.229 229.612 151.504 229.585 151.765 229.529C152.025 229.471 152.282 229.404 152.536 229.329V230.12C152.409 230.169 152.282 230.213 152.155 230.252C152.028 230.288 151.895 230.317 151.755 230.34C151.618 230.363 151.47 230.379 151.311 230.389C151.154 230.402 150.98 230.408 150.788 230.408C150.254 230.408 149.792 230.32 149.401 230.145C149.011 229.969 148.687 229.72 148.43 229.397C148.176 229.075 147.987 228.688 147.863 228.235C147.74 227.783 147.678 227.282 147.678 226.731C147.678 226.191 147.748 225.696 147.888 225.247C148.031 224.798 148.239 224.412 148.513 224.09C148.789 223.768 149.131 223.517 149.538 223.338C149.945 223.159 150.412 223.069 150.939 223.069C151.291 223.069 151.626 223.105 151.945 223.177C152.264 223.248 152.552 223.353 152.81 223.489L152.429 224.251C152.224 224.147 152.001 224.057 151.76 223.982C151.519 223.908 151.245 223.87 150.939 223.87ZM156.77 223.87C156.421 223.87 156.105 223.937 155.822 224.07C155.539 224.201 155.297 224.389 155.095 224.637C154.896 224.884 154.742 225.185 154.631 225.54C154.523 225.895 154.47 226.295 154.47 226.741C154.47 227.2 154.517 227.609 154.611 227.967C154.709 228.322 154.854 228.621 155.046 228.865C155.238 229.109 155.477 229.295 155.764 229.422C156.05 229.549 156.385 229.612 156.77 229.612C157.059 229.612 157.334 229.585 157.595 229.529C157.855 229.471 158.112 229.404 158.366 229.329V230.12C158.239 230.169 158.112 230.213 157.985 230.252C157.858 230.288 157.725 230.317 157.585 230.34C157.448 230.363 157.3 230.379 157.141 230.389C156.984 230.402 156.81 230.408 156.618 230.408C156.084 230.408 155.622 230.32 155.231 230.145C154.841 229.969 154.517 229.72 154.26 229.397C154.006 229.075 153.817 228.688 153.693 228.235C153.57 227.783 153.508 227.282 153.508 226.731C153.508 226.191 153.578 225.696 153.718 225.247C153.861 224.798 154.069 224.412 154.343 224.09C154.619 223.768 154.961 223.517 155.368 223.338C155.775 223.159 156.242 223.069 156.77 223.069C157.121 223.069 157.456 223.105 157.775 223.177C158.094 223.248 158.382 223.353 158.64 223.489L158.259 224.251C158.054 224.147 157.831 224.057 157.59 223.982C157.349 223.908 157.076 223.87 156.77 223.87Z" fill="white"/>
<path d="M145 220.811H161V218.811H145V220.811ZM163 222.811V230.811H165V222.811H163ZM161 232.811H145V234.811H161V232.811ZM143 230.811V222.811H141V230.811H143ZM145 232.811C143.895 232.811 143 231.915 143 230.811H141C141 233.02 142.791 234.811 145 234.811V232.811ZM163 230.811C163 231.915 162.105 232.811 161 232.811V234.811C163.209 234.811 165 233.02 165 230.811H163ZM161 220.811C162.105 220.811 163 221.706 163 222.811H165C165 220.601 163.209 218.811 161 218.811V220.811ZM145 218.811C142.791 218.811 141 220.601 141 222.811H143C143 221.706 143.895 220.811 145 220.811V218.811Z" fill="white"/>
<path d="M182.297 225.262C182.297 225.558 182.251 225.843 182.16 226.116C182.072 226.39 181.926 226.632 181.721 226.844C181.516 227.052 181.244 227.22 180.905 227.347C180.57 227.47 180.155 227.532 179.66 227.532H178.928V230.311H178.02V223.172H179.787C180.223 223.172 180.599 223.219 180.915 223.313C181.231 223.405 181.491 223.54 181.696 223.719C181.901 223.895 182.053 224.113 182.15 224.373C182.248 224.633 182.297 224.93 182.297 225.262ZM178.928 226.761H179.558C179.86 226.761 180.124 226.735 180.349 226.683C180.576 226.631 180.764 226.548 180.91 226.434C181.06 226.316 181.172 226.167 181.247 225.984C181.322 225.799 181.359 225.574 181.359 225.311C181.359 224.848 181.226 224.507 180.959 224.285C180.692 224.061 180.275 223.948 179.709 223.948H178.928V226.761ZM186.628 226.541H188.991V230.042C188.812 230.101 188.632 230.153 188.449 230.198C188.267 230.244 188.08 230.281 187.888 230.311C187.696 230.343 187.494 230.368 187.282 230.384C187.071 230.4 186.843 230.408 186.599 230.408C186.088 230.408 185.635 230.324 185.241 230.154C184.847 229.982 184.515 229.738 184.245 229.422C183.975 229.103 183.77 228.717 183.63 228.265C183.49 227.809 183.42 227.298 183.42 226.731C183.42 226.172 183.496 225.665 183.649 225.213C183.806 224.76 184.032 224.376 184.328 224.061C184.624 223.742 184.989 223.497 185.422 223.328C185.858 223.156 186.354 223.069 186.911 223.069C187.272 223.069 187.619 223.105 187.951 223.177C188.283 223.248 188.592 223.353 188.879 223.489L188.527 224.28C188.41 224.225 188.283 224.173 188.146 224.124C188.013 224.075 187.875 224.033 187.731 223.997C187.588 223.958 187.44 223.927 187.287 223.904C187.137 223.882 186.988 223.87 186.838 223.87C186.441 223.87 186.089 223.937 185.783 224.07C185.477 224.201 185.22 224.389 185.012 224.637C184.807 224.884 184.65 225.185 184.543 225.54C184.436 225.895 184.382 226.295 184.382 226.741C184.382 227.164 184.426 227.552 184.514 227.903C184.605 228.255 184.748 228.558 184.943 228.812C185.139 229.065 185.391 229.262 185.7 229.402C186.009 229.542 186.382 229.612 186.818 229.612C186.962 229.612 187.092 229.609 187.209 229.603C187.329 229.593 187.44 229.581 187.541 229.568C187.642 229.555 187.736 229.541 187.824 229.524C187.915 229.505 188.003 229.487 188.088 229.471V227.342H186.628V226.541ZM190.114 228.04V227.22H192.536V228.04H190.114ZM196.408 230.311H195.549V225.853C195.549 225.713 195.549 225.563 195.549 225.403C195.552 225.244 195.555 225.086 195.559 224.93C195.565 224.77 195.57 224.619 195.573 224.476C195.58 224.329 195.585 224.201 195.588 224.09C195.533 224.148 195.484 224.199 195.441 224.241C195.399 224.284 195.355 224.324 195.31 224.363C195.267 224.402 195.222 224.445 195.173 224.49C195.124 224.533 195.065 224.583 194.997 224.642L194.274 225.232L193.806 224.632L195.676 223.172H196.408V230.311ZM203.137 224.842C203.137 225.079 203.099 225.296 203.024 225.491C202.95 225.687 202.844 225.856 202.707 225.999C202.574 226.142 202.412 226.261 202.224 226.355C202.035 226.447 201.825 226.512 201.594 226.551V226.58C202.17 226.652 202.608 226.836 202.907 227.132C203.207 227.425 203.356 227.807 203.356 228.279C203.356 228.592 203.303 228.878 203.195 229.139C203.091 229.399 202.932 229.624 202.717 229.812C202.502 230.001 202.23 230.148 201.901 230.252C201.573 230.356 201.184 230.408 200.734 230.408C200.38 230.408 200.044 230.381 199.729 230.325C199.416 230.27 199.121 230.169 198.845 230.022V229.192C199.128 229.342 199.434 229.458 199.763 229.539C200.095 229.62 200.412 229.661 200.715 229.661C201.014 229.661 201.273 229.629 201.491 229.563C201.709 229.498 201.888 229.406 202.028 229.285C202.172 229.165 202.276 229.017 202.341 228.841C202.409 228.665 202.443 228.468 202.443 228.25C202.443 228.029 202.399 227.84 202.312 227.684C202.227 227.524 202.105 227.394 201.945 227.293C201.786 227.189 201.59 227.112 201.359 227.063C201.132 227.015 200.873 226.99 200.583 226.99H199.934V226.253H200.583C200.847 226.253 201.081 226.22 201.286 226.155C201.491 226.09 201.662 225.997 201.799 225.877C201.939 225.757 202.045 225.613 202.116 225.447C202.188 225.281 202.224 225.099 202.224 224.9C202.224 224.731 202.194 224.58 202.136 224.446C202.077 224.313 201.994 224.201 201.887 224.109C201.779 224.015 201.651 223.943 201.501 223.895C201.351 223.846 201.185 223.821 201.003 223.821C200.655 223.821 200.347 223.877 200.08 223.987C199.816 224.095 199.564 224.236 199.323 224.412L198.874 223.802C198.998 223.701 199.134 223.606 199.284 223.519C199.437 223.431 199.603 223.354 199.782 223.289C199.961 223.221 200.152 223.167 200.354 223.128C200.559 223.089 200.775 223.069 201.003 223.069C201.354 223.069 201.662 223.113 201.926 223.201C202.193 223.289 202.416 223.413 202.595 223.572C202.774 223.729 202.909 223.916 203 224.134C203.091 224.349 203.137 224.585 203.137 224.842Z" fill="white"/>
<path d="M175 220.811H206V218.811H175V220.811ZM208 222.811V230.811H210V222.811H208ZM206 232.811H175V234.811H206V232.811ZM173 230.811V222.811H171V230.811H173ZM175 232.811C173.895 232.811 173 231.915 173 230.811H171C171 233.02 172.791 234.811 175 234.811V232.811ZM208 230.811C208 231.915 207.105 232.811 206 232.811V234.811C208.209 234.811 210 233.02 210 230.811H208ZM206 220.811C207.105 220.811 208 221.706 208 222.811H210C210 220.601 208.209 218.811 206 218.811V220.811ZM175 218.811C172.791 218.811 171 220.601 171 222.811H173C173 221.706 173.895 220.811 175 220.811V218.811Z" fill="white"/>
<circle cx="20.5" cy="250.811" r="1.5" fill="#E1E1E1" fill-opacity="0.5"/>
<path d="M34.7227 250.718C34.7227 251.561 34.6133 252.301 34.3945 252.939C34.1758 253.573 33.859 254.104 33.4443 254.532C33.0296 254.956 32.5192 255.275 31.9131 255.489C31.3115 255.703 30.6279 255.811 29.8623 255.811H27.3604V245.816H30.1426C30.8398 245.816 31.471 245.921 32.0361 246.131C32.6012 246.34 33.082 246.653 33.4785 247.067C33.875 247.478 34.1803 247.988 34.3945 248.599C34.6133 249.209 34.7227 249.916 34.7227 250.718ZM33.376 250.759C33.376 250.093 33.3008 249.519 33.1504 249.036C33 248.549 32.7812 248.147 32.4941 247.833C32.207 247.519 31.8538 247.286 31.4346 247.136C31.0153 246.981 30.5391 246.903 30.0059 246.903H28.6318V254.717H29.7393C30.9424 254.717 31.8493 254.384 32.46 253.719C33.0706 253.053 33.376 252.067 33.376 250.759ZM40.0205 248.168C40.1527 248.168 40.3008 248.175 40.4648 248.188C40.6289 248.198 40.7702 248.214 40.8887 248.236L40.7246 249.385C40.597 249.362 40.4648 249.344 40.3281 249.33C40.196 249.312 40.0706 249.303 39.9521 249.303C39.665 249.303 39.403 249.362 39.166 249.48C38.929 249.594 38.724 249.761 38.5508 249.979C38.3822 250.194 38.25 250.453 38.1543 250.759C38.0632 251.06 38.0176 251.395 38.0176 251.764V255.811H36.7734V248.305H37.7852L37.9355 249.679H37.9902C38.1042 249.483 38.2249 249.294 38.3525 249.111C38.4847 248.929 38.6305 248.77 38.79 248.633C38.9541 248.492 39.1364 248.38 39.3369 248.298C39.5374 248.211 39.7653 248.168 40.0205 248.168ZM46.46 255.811L46.207 254.771H46.1523C46.002 254.977 45.8516 255.154 45.7012 255.305C45.5508 255.451 45.3867 255.571 45.209 255.667C45.0312 255.763 44.833 255.833 44.6143 255.879C44.3955 255.924 44.1426 255.947 43.8555 255.947C43.541 255.947 43.2516 255.902 42.9873 255.811C42.723 255.724 42.4928 255.59 42.2969 255.407C42.1055 255.22 41.9551 254.988 41.8457 254.71C41.7363 254.427 41.6816 254.095 41.6816 253.712C41.6816 252.965 41.9437 252.39 42.4678 251.989C42.9964 251.588 43.7985 251.369 44.874 251.333L46.1318 251.285V250.813C46.1318 250.508 46.0977 250.253 46.0293 250.048C45.9655 249.843 45.8698 249.679 45.7422 249.556C45.6191 249.428 45.4642 249.337 45.2773 249.282C45.0951 249.228 44.8854 249.2 44.6484 249.2C44.2702 249.2 43.917 249.255 43.5889 249.364C43.2653 249.474 42.9531 249.606 42.6523 249.761L42.2148 248.824C42.5521 248.642 42.9281 248.487 43.3428 248.359C43.7575 248.232 44.1927 248.168 44.6484 248.168C45.1133 248.168 45.5143 248.216 45.8516 248.312C46.1934 248.403 46.4736 248.551 46.6924 248.756C46.9157 248.956 47.082 249.214 47.1914 249.528C47.3008 249.843 47.3555 250.223 47.3555 250.67V255.811H46.46ZM44.1768 254.942C44.4548 254.942 44.7122 254.899 44.9492 254.812C45.1862 254.726 45.3913 254.596 45.5645 254.423C45.7376 254.245 45.8721 254.024 45.9678 253.76C46.068 253.491 46.1182 253.176 46.1182 252.816V252.14L45.1406 252.188C44.7305 252.206 44.3864 252.251 44.1084 252.324C43.8304 252.397 43.6071 252.5 43.4385 252.632C43.2744 252.759 43.1559 252.917 43.083 253.104C43.0101 253.286 42.9736 253.493 42.9736 253.726C42.9736 254.145 43.083 254.452 43.3018 254.648C43.5251 254.844 43.8167 254.942 44.1768 254.942ZM58.6553 255.811V250.978C58.6553 250.385 58.5413 249.941 58.3135 249.645C58.0856 249.348 57.7324 249.2 57.2539 249.2C56.9212 249.2 56.6387 249.255 56.4062 249.364C56.1738 249.469 55.9824 249.626 55.832 249.836C55.6862 250.041 55.5791 250.299 55.5107 250.608C55.4424 250.914 55.4082 251.267 55.4082 251.668V255.811H54.1572V250.978C54.1572 250.385 54.0433 249.941 53.8154 249.645C53.5921 249.348 53.2412 249.2 52.7627 249.2C52.4118 249.2 52.1178 249.259 51.8809 249.378C51.6439 249.496 51.4525 249.672 51.3066 249.904C51.1654 250.137 51.0628 250.422 50.999 250.759C50.9398 251.096 50.9102 251.483 50.9102 251.921V255.811H49.666V248.305H50.6777L50.8555 249.316H50.9238C51.0332 249.12 51.1631 248.952 51.3135 248.811C51.4639 248.665 51.6279 248.544 51.8057 248.448C51.988 248.353 52.1794 248.282 52.3799 248.236C52.585 248.191 52.7923 248.168 53.002 248.168C53.5488 248.168 54.0023 248.268 54.3623 248.469C54.7269 248.669 54.9958 248.984 55.1689 249.412H55.2236C55.3421 249.198 55.4834 249.013 55.6475 248.858C55.8161 248.703 55.9984 248.576 56.1943 248.476C56.3949 248.371 56.6045 248.293 56.8232 248.243C57.042 248.193 57.2653 248.168 57.4932 248.168C58.2907 248.168 58.89 248.387 59.291 248.824C59.6966 249.257 59.8994 249.952 59.8994 250.909V255.811H58.6553ZM66.4482 255.811L66.1953 254.771H66.1406C65.9902 254.977 65.8398 255.154 65.6895 255.305C65.5391 255.451 65.375 255.571 65.1973 255.667C65.0195 255.763 64.8213 255.833 64.6025 255.879C64.3838 255.924 64.1309 255.947 63.8438 255.947C63.5293 255.947 63.2399 255.902 62.9756 255.811C62.7113 255.724 62.4811 255.59 62.2852 255.407C62.0938 255.22 61.9434 254.988 61.834 254.71C61.7246 254.427 61.6699 254.095 61.6699 253.712C61.6699 252.965 61.932 252.39 62.4561 251.989C62.9847 251.588 63.7868 251.369 64.8623 251.333L66.1201 251.285V250.813C66.1201 250.508 66.0859 250.253 66.0176 250.048C65.9538 249.843 65.8581 249.679 65.7305 249.556C65.6074 249.428 65.4525 249.337 65.2656 249.282C65.0833 249.228 64.8737 249.2 64.6367 249.2C64.2585 249.2 63.9053 249.255 63.5771 249.364C63.2536 249.474 62.9414 249.606 62.6406 249.761L62.2031 248.824C62.5404 248.642 62.9163 248.487 63.3311 248.359C63.7458 248.232 64.181 248.168 64.6367 248.168C65.1016 248.168 65.5026 248.216 65.8398 248.312C66.1816 248.403 66.4619 248.551 66.6807 248.756C66.904 248.956 67.0703 249.214 67.1797 249.528C67.2891 249.843 67.3438 250.223 67.3438 250.67V255.811H66.4482ZM64.165 254.942C64.443 254.942 64.7005 254.899 64.9375 254.812C65.1745 254.726 65.3796 254.596 65.5527 254.423C65.7259 254.245 65.8604 254.024 65.9561 253.76C66.0563 253.491 66.1064 253.176 66.1064 252.816V252.14L65.1289 252.188C64.7188 252.206 64.3747 252.251 64.0967 252.324C63.8187 252.397 63.5954 252.5 63.4268 252.632C63.2627 252.759 63.1442 252.917 63.0713 253.104C62.9984 253.286 62.9619 253.493 62.9619 253.726C62.9619 254.145 63.0713 254.452 63.29 254.648C63.5133 254.844 63.805 254.942 64.165 254.942Z" fill="white"/>
<g clip-path="url(#clip2)">
<circle cx="80.5" cy="250.811" r="1.5" fill="#E1E1E1" fill-opacity="0.5"/>
<path d="M92.624 253.138C92.624 253.58 92.5443 253.976 92.3848 254.327C92.2298 254.674 92.0065 254.967 91.7148 255.209C91.4232 255.451 91.0677 255.635 90.6484 255.763C90.2292 255.886 89.7575 255.947 89.2334 255.947C88.7275 255.947 88.2536 255.906 87.8115 255.824C87.374 255.747 87.0072 255.631 86.7109 255.476V254.259C86.8659 254.332 87.0413 254.405 87.2373 254.478C87.4378 254.546 87.6475 254.607 87.8662 254.662C88.085 254.717 88.3105 254.762 88.543 254.799C88.7754 254.831 89.0055 254.847 89.2334 254.847C89.9626 254.847 90.5003 254.71 90.8467 254.437C91.1976 254.163 91.373 253.771 91.373 253.261C91.373 253.015 91.3389 252.8 91.2705 252.618C91.2067 252.436 91.0905 252.27 90.9219 252.119C90.7578 251.964 90.5368 251.816 90.2588 251.675C89.9808 251.529 89.6299 251.372 89.2061 251.203C88.8005 251.044 88.4473 250.87 88.1465 250.684C87.8503 250.492 87.6042 250.278 87.4082 250.041C87.2168 249.804 87.0732 249.535 86.9775 249.234C86.8864 248.934 86.8408 248.592 86.8408 248.209C86.8408 247.808 86.9137 247.45 87.0596 247.136C87.2054 246.821 87.4105 246.557 87.6748 246.343C87.9391 246.124 88.2536 245.958 88.6182 245.844C88.9873 245.73 89.3929 245.673 89.835 245.673C90.3773 245.673 90.8649 245.725 91.2979 245.83C91.7308 245.93 92.1159 246.06 92.4531 246.22L91.9951 247.286C91.6989 247.154 91.3617 247.04 90.9834 246.944C90.6097 246.844 90.2223 246.794 89.8213 246.794C89.2653 246.794 88.8346 246.924 88.5293 247.184C88.224 247.439 88.0713 247.785 88.0713 248.223C88.0713 248.482 88.1055 248.708 88.1738 248.899C88.2422 249.086 88.3561 249.257 88.5156 249.412C88.6751 249.562 88.8848 249.706 89.1445 249.843C89.4089 249.975 89.7324 250.116 90.1152 250.267C90.5299 250.431 90.8923 250.599 91.2021 250.772C91.5166 250.946 91.7786 251.142 91.9883 251.36C92.1979 251.579 92.3551 251.832 92.46 252.119C92.5693 252.406 92.624 252.746 92.624 253.138ZM99.3232 255.811L99.1387 254.806H99.0703C98.9564 255.002 98.8197 255.173 98.6602 255.318C98.5052 255.46 98.3343 255.578 98.1475 255.674C97.9606 255.765 97.7624 255.833 97.5527 255.879C97.3431 255.924 97.1289 255.947 96.9102 255.947C96.4954 255.947 96.1309 255.895 95.8164 255.79C95.502 255.685 95.2399 255.521 95.0303 255.298C94.8206 255.075 94.6611 254.79 94.5518 254.443C94.4469 254.097 94.3945 253.685 94.3945 253.206V248.305H95.6387V253.138C95.6387 253.73 95.7594 254.174 96.001 254.471C96.2425 254.767 96.6162 254.915 97.1221 254.915C97.4912 254.915 97.8011 254.856 98.0518 254.737C98.3024 254.619 98.5029 254.446 98.6533 254.218C98.8083 253.985 98.9176 253.701 98.9814 253.363C99.0498 253.026 99.084 252.639 99.084 252.201V248.305H100.328V255.811H99.3232ZM107.198 253.753C107.198 254.118 107.132 254.437 107 254.71C106.868 254.983 106.676 255.214 106.426 255.4C106.18 255.583 105.881 255.719 105.53 255.811C105.179 255.902 104.785 255.947 104.348 255.947C103.851 255.947 103.425 255.906 103.069 255.824C102.714 255.747 102.402 255.631 102.133 255.476V254.341C102.274 254.414 102.431 254.487 102.604 254.56C102.778 254.628 102.96 254.689 103.151 254.744C103.343 254.799 103.539 254.844 103.739 254.881C103.944 254.913 104.147 254.929 104.348 254.929C104.644 254.929 104.895 254.904 105.1 254.854C105.309 254.803 105.478 254.733 105.605 254.642C105.738 254.546 105.833 254.432 105.893 254.3C105.952 254.163 105.981 254.013 105.981 253.849C105.981 253.707 105.959 253.58 105.913 253.466C105.868 253.352 105.783 253.24 105.66 253.131C105.542 253.017 105.378 252.903 105.168 252.789C104.958 252.675 104.689 252.548 104.361 252.406C104.033 252.265 103.737 252.126 103.473 251.989C103.213 251.853 102.992 251.7 102.81 251.531C102.627 251.363 102.486 251.169 102.386 250.95C102.29 250.727 102.242 250.463 102.242 250.157C102.242 249.838 102.304 249.556 102.427 249.31C102.554 249.059 102.732 248.849 102.96 248.681C103.188 248.512 103.461 248.384 103.78 248.298C104.099 248.211 104.455 248.168 104.847 248.168C105.289 248.168 105.692 248.216 106.057 248.312C106.426 248.407 106.774 248.533 107.103 248.688L106.672 249.692C106.376 249.56 106.07 249.446 105.756 249.351C105.446 249.25 105.129 249.2 104.806 249.2C104.341 249.2 103.997 249.278 103.773 249.433C103.55 249.583 103.438 249.799 103.438 250.082C103.438 250.242 103.464 250.381 103.514 250.499C103.568 250.618 103.66 250.729 103.787 250.834C103.915 250.939 104.086 251.046 104.3 251.155C104.514 251.26 104.781 251.379 105.1 251.511C105.428 251.647 105.719 251.784 105.975 251.921C106.234 252.058 106.455 252.213 106.638 252.386C106.82 252.554 106.959 252.748 107.055 252.967C107.15 253.186 107.198 253.448 107.198 253.753ZM112.414 255.947C112.145 255.947 111.901 255.918 111.683 255.858C111.464 255.799 111.266 255.722 111.088 255.626C110.915 255.526 110.76 255.41 110.623 255.277C110.491 255.145 110.372 255.006 110.268 254.86H110.186C110.199 255.015 110.213 255.163 110.227 255.305C110.236 255.423 110.245 255.546 110.254 255.674C110.263 255.797 110.268 255.895 110.268 255.968V259.174H109.023V248.305H110.035L110.213 249.316H110.268C110.372 249.157 110.491 249.009 110.623 248.872C110.755 248.731 110.908 248.61 111.081 248.51C111.259 248.405 111.457 248.323 111.676 248.264C111.895 248.2 112.141 248.168 112.414 248.168C112.842 248.168 113.232 248.25 113.583 248.414C113.934 248.578 114.232 248.824 114.479 249.152C114.729 249.476 114.923 249.879 115.06 250.362C115.196 250.845 115.265 251.406 115.265 252.044C115.265 252.687 115.196 253.252 115.06 253.739C114.923 254.222 114.729 254.628 114.479 254.956C114.232 255.284 113.934 255.533 113.583 255.701C113.232 255.865 112.842 255.947 112.414 255.947ZM112.175 249.2C111.828 249.2 111.535 249.253 111.293 249.357C111.056 249.462 110.862 249.622 110.712 249.836C110.566 250.05 110.457 250.317 110.384 250.636C110.315 250.955 110.277 251.331 110.268 251.764V252.044C110.268 252.504 110.297 252.914 110.356 253.274C110.42 253.63 110.525 253.931 110.671 254.177C110.821 254.418 111.02 254.603 111.266 254.73C111.512 254.854 111.819 254.915 112.188 254.915C112.804 254.915 113.255 254.667 113.542 254.17C113.834 253.673 113.979 252.96 113.979 252.03C113.979 251.082 113.834 250.374 113.542 249.904C113.255 249.435 112.799 249.2 112.175 249.2ZM120.193 255.947C119.692 255.947 119.234 255.863 118.819 255.694C118.405 255.526 118.047 255.28 117.746 254.956C117.45 254.632 117.22 254.231 117.056 253.753C116.892 253.274 116.81 252.728 116.81 252.112C116.81 251.493 116.885 250.939 117.035 250.451C117.186 249.964 117.397 249.551 117.671 249.214C117.944 248.872 118.27 248.612 118.648 248.435C119.031 248.257 119.453 248.168 119.913 248.168C120.364 248.168 120.77 248.25 121.13 248.414C121.49 248.574 121.795 248.801 122.046 249.098C122.297 249.389 122.488 249.743 122.62 250.157C122.757 250.567 122.825 251.023 122.825 251.524V252.297H118.095C118.118 253.176 118.302 253.824 118.648 254.238C118.999 254.653 119.519 254.86 120.207 254.86C120.439 254.86 120.654 254.849 120.85 254.826C121.05 254.803 121.242 254.771 121.424 254.73C121.611 254.685 121.791 254.63 121.964 254.566C122.137 254.498 122.312 254.423 122.49 254.341V255.448C122.308 255.535 122.128 255.61 121.95 255.674C121.777 255.738 121.597 255.79 121.41 255.831C121.228 255.872 121.036 255.902 120.836 255.92C120.64 255.938 120.426 255.947 120.193 255.947ZM119.886 249.2C119.366 249.2 118.954 249.378 118.648 249.733C118.348 250.089 118.172 250.606 118.122 251.285H121.485C121.485 250.975 121.453 250.693 121.39 250.438C121.33 250.178 121.235 249.957 121.103 249.774C120.975 249.592 120.811 249.451 120.61 249.351C120.41 249.25 120.168 249.2 119.886 249.2ZM129.408 255.811V250.978C129.408 250.385 129.287 249.941 129.046 249.645C128.809 249.348 128.435 249.2 127.925 249.2C127.556 249.2 127.246 249.259 126.995 249.378C126.744 249.496 126.542 249.672 126.387 249.904C126.236 250.137 126.127 250.422 126.059 250.759C125.995 251.096 125.963 251.483 125.963 251.921V255.811H124.719V248.305H125.73L125.908 249.316H125.977C126.09 249.12 126.225 248.952 126.38 248.811C126.539 248.665 126.713 248.544 126.899 248.448C127.086 248.353 127.285 248.282 127.494 248.236C127.704 248.191 127.918 248.168 128.137 248.168C128.971 248.168 129.597 248.387 130.017 248.824C130.44 249.257 130.652 249.952 130.652 250.909V255.811H129.408ZM137.454 253.753C137.454 254.118 137.388 254.437 137.256 254.71C137.124 254.983 136.932 255.214 136.682 255.4C136.436 255.583 136.137 255.719 135.786 255.811C135.435 255.902 135.041 255.947 134.604 255.947C134.107 255.947 133.681 255.906 133.325 255.824C132.97 255.747 132.658 255.631 132.389 255.476V254.341C132.53 254.414 132.687 254.487 132.86 254.56C133.034 254.628 133.216 254.689 133.407 254.744C133.599 254.799 133.795 254.844 133.995 254.881C134.2 254.913 134.403 254.929 134.604 254.929C134.9 254.929 135.15 254.904 135.355 254.854C135.565 254.803 135.734 254.733 135.861 254.642C135.993 254.546 136.089 254.432 136.148 254.3C136.208 254.163 136.237 254.013 136.237 253.849C136.237 253.707 136.215 253.58 136.169 253.466C136.123 253.352 136.039 253.24 135.916 253.131C135.798 253.017 135.633 252.903 135.424 252.789C135.214 252.675 134.945 252.548 134.617 252.406C134.289 252.265 133.993 252.126 133.729 251.989C133.469 251.853 133.248 251.7 133.065 251.531C132.883 251.363 132.742 251.169 132.642 250.95C132.546 250.727 132.498 250.463 132.498 250.157C132.498 249.838 132.56 249.556 132.683 249.31C132.81 249.059 132.988 248.849 133.216 248.681C133.444 248.512 133.717 248.384 134.036 248.298C134.355 248.211 134.711 248.168 135.103 248.168C135.545 248.168 135.948 248.216 136.312 248.312C136.682 248.407 137.03 248.533 137.358 248.688L136.928 249.692C136.632 249.56 136.326 249.446 136.012 249.351C135.702 249.25 135.385 249.2 135.062 249.2C134.597 249.2 134.253 249.278 134.029 249.433C133.806 249.583 133.694 249.799 133.694 250.082C133.694 250.242 133.719 250.381 133.77 250.499C133.824 250.618 133.915 250.729 134.043 250.834C134.171 250.939 134.341 251.046 134.556 251.155C134.77 251.26 135.036 251.379 135.355 251.511C135.684 251.647 135.975 251.784 136.23 251.921C136.49 252.058 136.711 252.213 136.894 252.386C137.076 252.554 137.215 252.748 137.311 252.967C137.406 253.186 137.454 253.448 137.454 253.753ZM142.246 255.947C141.745 255.947 141.287 255.863 140.872 255.694C140.457 255.526 140.1 255.28 139.799 254.956C139.503 254.632 139.272 254.231 139.108 253.753C138.944 253.274 138.862 252.728 138.862 252.112C138.862 251.493 138.938 250.939 139.088 250.451C139.238 249.964 139.45 249.551 139.724 249.214C139.997 248.872 140.323 248.612 140.701 248.435C141.084 248.257 141.506 248.168 141.966 248.168C142.417 248.168 142.823 248.25 143.183 248.414C143.543 248.574 143.848 248.801 144.099 249.098C144.349 249.389 144.541 249.743 144.673 250.157C144.81 250.567 144.878 251.023 144.878 251.524V252.297H140.147C140.17 253.176 140.355 253.824 140.701 254.238C141.052 254.653 141.572 254.86 142.26 254.86C142.492 254.86 142.706 254.849 142.902 254.826C143.103 254.803 143.294 254.771 143.477 254.73C143.663 254.685 143.843 254.63 144.017 254.566C144.19 254.498 144.365 254.423 144.543 254.341V255.448C144.361 255.535 144.181 255.61 144.003 255.674C143.83 255.738 143.65 255.79 143.463 255.831C143.281 255.872 143.089 255.902 142.889 255.92C142.693 255.938 142.479 255.947 142.246 255.947ZM141.938 249.2C141.419 249.2 141.007 249.378 140.701 249.733C140.4 250.089 140.225 250.606 140.175 251.285H143.538C143.538 250.975 143.506 250.693 143.442 250.438C143.383 250.178 143.287 249.957 143.155 249.774C143.028 249.592 142.864 249.451 142.663 249.351C142.463 249.25 142.221 249.2 141.938 249.2Z" fill="white"/>
</g>
<path d="M343.4 239.75C347.937 239.75 351.65 243.463 351.65 248C351.65 252.538 347.937 256.25 343.4 256.25C338.862 256.25 335.15 252.538 335.15 248C335.15 243.463 338.862 239.75 343.4 239.75ZM343.4 238.375C338.106 238.375 333.775 242.706 333.775 248C333.775 253.294 338.106 257.625 343.4 257.625C348.694 257.625 353.025 253.294 353.025 248C353.025 242.706 348.694 238.375 343.4 238.375Z" fill="white"/>
<path d="M348.9 247.312H344.087V242.5H342.712V247.312H337.9V248.688H342.712V253.5H344.087V248.688H348.9V247.312Z" fill="white"/>
<path d="M375.667 244.276C375.005 243.608 374.316 243.026 373.598 242.532C372.881 242.037 372.209 241.666 371.582 241.419C370.955 241.172 370.381 241.053 369.859 241.063C369.336 241.073 368.929 241.228 368.636 241.529C368.567 241.596 368.508 241.671 368.459 241.755C368.41 241.838 368.375 241.903 368.354 241.95C368.333 241.997 368.306 242.081 368.271 242.201C368.236 242.321 368.212 242.398 368.198 242.432L364.312 254.703L364.552 254.944C364.28 255.124 364.038 255.335 363.826 255.576C363.613 255.816 363.427 256.013 363.267 256.167C363.107 256.321 362.915 256.428 362.692 256.488C362.644 256.501 362.583 256.547 362.51 256.623C362.436 256.7 362.4 256.769 362.4 256.829C362.4 256.949 362.463 257.049 362.588 257.13C362.713 257.21 362.853 257.25 363.006 257.25C363.201 257.25 363.389 257.175 363.57 257.024C363.751 256.874 363.934 256.682 364.118 256.448C364.303 256.214 364.437 256.06 364.521 255.987C364.702 255.833 364.904 255.686 365.126 255.546L365.398 255.796L377.746 251.776C378.017 251.696 378.226 251.575 378.372 251.415C378.665 251.114 378.816 250.698 378.827 250.167C378.837 249.635 378.721 249.05 378.477 248.412C378.233 247.774 377.869 247.092 377.385 246.367C376.901 245.642 376.328 244.945 375.667 244.276ZM374.539 245.369C375.604 246.412 376.414 247.409 376.967 248.362C377.521 249.314 377.655 249.941 377.37 250.242C377.084 250.543 376.461 250.432 375.5 249.911C374.539 249.39 373.529 248.611 372.47 247.575C371.398 246.532 370.585 245.536 370.031 244.587C369.477 243.638 369.343 243.01 369.629 242.702C369.914 242.401 370.539 242.512 371.504 243.033C372.468 243.554 373.48 244.333 374.539 245.369ZM372.251 249.52C372.759 249.954 373.264 250.335 373.766 250.663C373.772 250.676 373.947 250.99 374.288 251.605L373.41 251.896C372.992 251.141 372.606 250.349 372.251 249.52ZM368.689 244.928C368.842 245.256 369.054 245.653 369.326 246.121C369.549 247.084 369.899 248.126 370.376 249.249C370.853 250.372 371.373 251.425 371.937 252.407L371.07 252.688C370.416 251.525 369.845 250.307 369.357 249.034C368.87 247.76 368.57 246.636 368.459 245.66L368.689 244.928ZM367.477 248.598C367.964 250.095 368.65 251.632 369.535 253.21L368.678 253.5C367.989 252.23 367.445 251.037 367.049 249.921L367.477 248.598ZM366.275 252.257C366.547 252.872 366.836 253.457 367.143 254.012L366.286 254.302C366.188 254.122 366.049 253.844 365.868 253.47L366.275 252.257ZM373.954 238L374.476 239.514L373.128 240.456H374.789L375.301 241.97L375.813 240.456H377.464L376.126 239.514L376.649 238.01L375.301 238.942L373.954 238ZM371.029 238L370.747 239.374L372.178 239.644L372.46 238.271L371.029 238ZM380.441 242.131L381.59 240.978L383.084 241.68L382.311 240.276L383.47 239.143L381.83 239.414L381.057 238L380.827 239.584L379.187 239.855L380.681 240.547L380.441 242.131ZM380.054 244.597L381.444 245.479L381.005 247.023L382.3 246.021L383.679 246.903L383.105 245.399L384.4 244.417L382.739 244.487L382.154 242.993L381.726 244.527L380.054 244.597ZM379.459 240.877L376.346 243.324L376.732 243.775L379.845 241.329L379.459 240.877ZM380.545 245.61L378.111 245.399L378.049 245.981L380.493 246.191L380.545 245.61ZM380.785 248.417L380.336 249.761L381.726 250.192L382.185 248.858L380.785 248.417Z" fill="white"/>
<path d="M403.15 243.833C403.656 243.833 404.067 243.423 404.067 242.917C404.067 242.41 403.656 242 403.15 242C402.644 242 402.233 242.41 402.233 242.917C402.233 243.423 402.644 243.833 403.15 243.833Z" fill="white"/>
<path d="M405.747 251.41H404.219V245.055H401.928C401.725 245.055 401.531 245.138 401.388 245.287C401.244 245.436 401.164 245.638 401.164 245.849C401.164 246.06 401.244 246.262 401.388 246.411C401.531 246.56 401.725 246.644 401.928 246.644H402.692V251.41H401.164C400.961 251.41 400.767 251.494 400.624 251.643C400.48 251.792 400.4 251.994 400.4 252.205C400.4 252.415 400.48 252.617 400.624 252.766C400.767 252.915 400.961 252.999 401.164 252.999H405.747C405.95 252.999 406.144 252.915 406.287 252.766C406.431 252.617 406.511 252.415 406.511 252.205C406.511 251.994 406.431 251.792 406.287 251.643C406.144 251.494 405.95 251.41 405.747 251.41Z" fill="white"/>
<path d="M403.025 238C401.121 238 399.26 238.564 397.678 239.622C396.095 240.68 394.861 242.183 394.133 243.942C393.404 245.7 393.213 247.636 393.585 249.503C393.956 251.37 394.873 253.085 396.219 254.431C397.565 255.777 399.28 256.694 401.147 257.065C403.014 257.436 404.95 257.246 406.708 256.517C408.467 255.789 409.97 254.555 411.028 252.972C412.085 251.39 412.65 249.529 412.65 247.625C412.65 245.072 411.636 242.624 409.831 240.819C408.026 239.014 405.578 238 403.025 238ZM403.025 255.646C401.439 255.646 399.888 255.175 398.569 254.294C397.25 253.413 396.222 252.16 395.615 250.694C395.008 249.229 394.849 247.616 395.158 246.06C395.468 244.504 396.232 243.075 397.353 241.953C398.475 240.832 399.904 240.068 401.46 239.758C403.016 239.449 404.629 239.608 406.094 240.215C407.56 240.822 408.813 241.85 409.694 243.169C410.575 244.488 411.046 246.039 411.046 247.625C411.046 248.678 410.838 249.721 410.435 250.694C410.032 251.668 409.441 252.552 408.697 253.297C407.952 254.041 407.068 254.632 406.094 255.035C405.121 255.438 404.078 255.646 403.025 255.646Z" fill="white"/>
<path d="M438.213 250.75C437.698 250.753 437.191 250.871 436.728 251.096C436.265 251.321 435.858 251.647 435.538 252.05L430.513 248.908C430.696 248.317 430.696 247.684 430.513 247.093L435.538 243.951C436.048 244.582 436.766 245.013 437.563 245.167C438.36 245.32 439.186 245.186 439.894 244.789C440.602 244.392 441.147 243.757 441.432 242.997C441.716 242.237 441.723 241.4 441.45 240.636C441.177 239.871 440.642 239.228 439.941 238.819C439.239 238.411 438.415 238.265 437.616 238.406C436.816 238.547 436.092 238.966 435.572 239.59C435.053 240.213 434.77 241.001 434.775 241.813C434.778 242.12 434.825 242.426 434.913 242.72L429.887 245.862C429.443 245.303 428.837 244.897 428.152 244.698C427.467 244.5 426.737 244.52 426.063 244.754C425.39 244.989 424.806 245.428 424.393 246.01C423.98 246.591 423.758 247.287 423.758 248C423.758 248.713 423.98 249.409 424.393 249.991C424.806 250.572 425.39 251.011 426.063 251.246C426.737 251.481 427.467 251.5 428.152 251.302C428.837 251.103 429.443 250.697 429.887 250.138L434.913 253.28C434.825 253.575 434.778 253.88 434.775 254.188C434.775 254.868 434.977 255.532 435.355 256.097C435.732 256.663 436.269 257.103 436.897 257.363C437.525 257.624 438.217 257.692 438.883 257.559C439.55 257.426 440.163 257.099 440.643 256.618C441.124 256.138 441.452 255.525 441.584 254.858C441.717 254.191 441.649 253.5 441.389 252.872C441.128 252.244 440.688 251.707 440.122 251.329C439.557 250.952 438.893 250.75 438.213 250.75ZM438.213 239.75C438.621 239.75 439.019 239.871 439.359 240.098C439.698 240.324 439.962 240.646 440.118 241.023C440.274 241.4 440.315 241.815 440.236 242.215C440.156 242.615 439.96 242.983 439.671 243.271C439.383 243.559 439.015 243.756 438.615 243.836C438.215 243.915 437.8 243.874 437.423 243.718C437.047 243.562 436.724 243.298 436.498 242.959C436.271 242.619 436.15 242.221 436.15 241.813C436.15 241.266 436.368 240.741 436.754 240.354C437.141 239.967 437.666 239.75 438.213 239.75ZM427.213 250.063C426.805 250.063 426.406 249.942 426.067 249.715C425.728 249.488 425.463 249.166 425.307 248.789C425.151 248.413 425.11 247.998 425.19 247.598C425.269 247.198 425.466 246.83 425.754 246.542C426.043 246.253 426.41 246.057 426.81 245.977C427.21 245.898 427.625 245.939 428.002 246.095C428.379 246.251 428.701 246.515 428.928 246.854C429.154 247.193 429.275 247.592 429.275 248C429.275 248.547 429.058 249.072 428.671 249.459C428.284 249.845 427.76 250.063 427.213 250.063ZM438.213 256.25C437.805 256.25 437.406 256.129 437.067 255.903C436.728 255.676 436.463 255.354 436.307 254.977C436.151 254.6 436.11 254.185 436.19 253.785C436.269 253.385 436.466 253.018 436.754 252.729C437.043 252.441 437.41 252.244 437.81 252.165C438.21 252.085 438.625 252.126 439.002 252.282C439.379 252.438 439.701 252.703 439.928 253.042C440.154 253.381 440.275 253.78 440.275 254.188C440.275 254.735 440.058 255.259 439.671 255.646C439.284 256.033 438.76 256.25 438.213 256.25Z" fill="white"/>
<path d="M469.816 238.834H458.147C457.503 238.834 456.88 239.06 456.386 239.472C455.892 239.884 455.558 240.456 455.442 241.089L454.278 247.506C454.206 247.902 454.221 248.31 454.324 248.699C454.426 249.089 454.613 249.452 454.871 249.761C455.129 250.071 455.452 250.32 455.816 250.491C456.181 250.662 456.579 250.751 456.982 250.751H461.162L460.649 252.061C460.436 252.635 460.364 253.253 460.442 253.86C460.519 254.468 460.743 255.047 461.093 255.549C461.444 256.051 461.911 256.461 462.455 256.743C462.999 257.024 463.603 257.17 464.215 257.167C464.391 257.167 464.564 257.116 464.712 257.02C464.86 256.924 464.977 256.787 465.049 256.626L467.662 250.751H469.816C470.545 250.751 471.245 250.461 471.76 249.945C472.276 249.429 472.566 248.73 472.566 248.001V241.584C472.566 240.855 472.276 240.155 471.76 239.639C471.245 239.124 470.545 238.834 469.816 238.834ZM466.149 249.641L463.656 255.251C463.401 255.174 463.164 255.046 462.96 254.874C462.757 254.701 462.591 254.49 462.472 254.251C462.354 254.012 462.285 253.752 462.271 253.485C462.257 253.219 462.298 252.953 462.391 252.703L462.877 251.392C462.98 251.115 463.015 250.817 462.978 250.524C462.942 250.23 462.835 249.95 462.666 249.707C462.498 249.464 462.273 249.265 462.011 249.127C461.749 248.99 461.458 248.918 461.162 248.917H456.982C456.848 248.918 456.715 248.888 456.593 248.831C456.471 248.774 456.363 248.691 456.277 248.587C456.188 248.485 456.124 248.365 456.087 248.235C456.051 248.105 456.043 247.969 456.066 247.836L457.23 241.419C457.269 241.205 457.383 241.013 457.55 240.875C457.718 240.737 457.93 240.664 458.147 240.667H466.149V249.641ZM470.732 248.001C470.732 248.244 470.636 248.477 470.464 248.649C470.292 248.821 470.059 248.917 469.816 248.917H467.982V240.667H469.816C470.059 240.667 470.292 240.764 470.464 240.936C470.636 241.108 470.732 241.341 470.732 241.584V248.001Z" fill="white"/>
</g>
<path d="M247 117C251.747 117 256.387 118.408 260.334 121.045C264.28 123.682 267.357 127.43 269.173 131.816C270.99 136.201 271.465 141.027 270.539 145.682C269.613 150.338 267.327 154.614 263.971 157.971C260.614 161.327 256.338 163.613 251.682 164.539C247.027 165.465 242.201 164.99 237.816 163.173C233.43 161.357 229.682 158.28 227.045 154.334C224.408 150.387 223 145.747 223 141C223 134.635 225.529 128.53 230.029 124.029C234.53 119.529 240.635 117 247 117ZM247 113C241.462 113 236.049 114.642 231.444 117.719C226.839 120.796 223.251 125.169 221.131 130.285C219.012 135.401 218.458 141.031 219.538 146.463C220.618 151.894 223.285 156.883 227.201 160.799C231.117 164.715 236.106 167.382 241.537 168.462C246.969 169.542 252.599 168.988 257.715 166.869C262.831 164.749 267.204 161.161 270.281 156.556C273.358 151.951 275 146.538 275 141C275 133.574 272.05 126.452 266.799 121.201C261.548 115.95 254.426 113 247 113Z" fill="white" fill-opacity="0.6"/>
<path d="M239 155C238.641 155 238.289 154.903 237.98 154.72C237.681 154.543 237.434 154.291 237.262 153.989C237.09 153.688 237 153.347 237 153V129C237 128.653 237.09 128.311 237.262 128.01C237.434 127.708 237.681 127.457 237.98 127.28C238.284 127.104 238.629 127.012 238.98 127.012C239.331 127.012 239.676 127.104 239.98 127.28L261.98 139.28C262.298 139.451 262.563 139.705 262.748 140.015C262.932 140.325 263.03 140.679 263.03 141.04C263.03 141.4 262.932 141.755 262.748 142.064C262.563 142.374 262.298 142.628 261.98 142.8L239.98 154.8C239.676 154.948 239.338 155.017 239 155ZM241 132.36V149.64L256.82 141L241 132.36Z" fill="white" fill-opacity="0.6"/>
<path d="M20 31C20 24.9249 24.9249 20 31 20H53C59.0751 20 64 24.9249 64 31C64 37.0751 59.0751 42 53 42H31C24.9249 42 20 37.0751 20 31Z" fill="white" fill-opacity="0.8"/>
<path fill-rule="evenodd" clip-rule="evenodd" d="M27 27.7191V36H28.3736C28.4165 36 28.5195 35.9753 28.5882 35.8764V33.2397C30.1335 34.3109 32.8807 33.7753 32.8807 30.5206C32.8807 27.5131 30.2193 26.8127 28.4165 28.2135C28.4022 28.0762 28.3221 27.785 28.116 27.7191H27ZM30.6915 29.1199C29.9704 28.4936 28.9888 28.8589 28.5882 29.1199V32.0861C29.6871 32.8112 30.4483 32.3883 30.6915 32.0861C31.0006 31.9543 31.0778 30.9875 31.0778 30.5206C31.1122 29.7955 30.8346 29.2846 30.6915 29.1199Z" fill="#00A8E1"/>
<path d="M34.0396 33.4457V27.8839C34.0396 27.829 34.074 27.7109 34.2113 27.6779H35.2844C35.3417 27.6367 35.499 27.7356 35.6707 28.4607C35.6851 28.5019 35.7308 28.5678 35.7995 28.5019C35.8854 28.4195 36.7009 27.5543 37.5594 27.6367C37.9028 27.6367 37.9887 27.774 37.9887 27.8427V28.9963C37.9744 29.0649 37.9114 29.2022 37.774 29.2022C36.5722 29.1363 35.9569 29.3396 35.7995 29.4494V33.4457C35.7995 33.4869 35.7738 33.5775 35.6707 33.6105H34.1684C34.1255 33.6105 34.0396 33.5775 34.0396 33.4457Z" fill="#00A8E1"/>
<path d="M39.0189 27.6779H40.3066C40.3781 27.6916 40.5212 27.7521 40.5212 27.8839V33.4457C40.5069 33.4869 40.4525 33.5775 40.3495 33.6105H38.9759C38.9187 33.5968 38.7956 33.5446 38.7613 33.4457L38.8042 27.8839C38.8042 27.829 38.8472 27.7109 39.0189 27.6779Z" fill="#00A8E1"/>
<path d="M39.3622 26.7303C39.491 26.7441 39.7915 26.7633 39.9632 26.7303C40.1349 26.6974 40.3209 26.5793 40.3924 26.5243C40.5641 26.3596 40.65 26.1124 40.65 25.8652C40.65 25.5356 40.5641 25.412 40.4354 25.2472C40.3495 25.1785 40.1778 25 39.9632 25H39.3622C39.2049 25.0412 38.8643 25.1483 38.7613 25.412C38.6583 25.6757 38.6755 25.7553 38.6755 25.9064C38.6755 26.0574 38.7579 26.3563 38.933 26.5243C39.1081 26.6924 39.2907 26.7166 39.3622 26.7303Z" fill="#00A8E1"/>
<path d="M43.6547 28.2547C43.6118 28.0899 43.4916 27.7521 43.3542 27.7191C43.2169 27.6861 42.5244 27.7054 42.1953 27.7191C42.138 27.7191 42.0236 27.7521 42.0236 27.8839V33.4457C42.0379 33.4869 42.0922 33.5775 42.1953 33.6105C42.2983 33.6434 43.1539 33.6242 43.5688 33.6105C43.6261 33.5968 43.7577 33.5446 43.8264 33.4457L43.7835 29.161C44.0267 29.0237 44.6248 28.7655 45.0712 28.8315C45.6292 28.8727 45.8009 29.1336 45.8438 29.2846L45.8868 33.4457C45.9011 33.5006 45.9554 33.6105 46.0585 33.6105H47.475C47.5179 33.5968 47.6123 33.5446 47.6467 33.4457V29.161C47.847 29.01 48.3764 28.7243 48.8915 28.7903C49.4066 28.8562 49.6212 29.1748 49.6641 29.3258V33.3633C49.6641 33.432 49.6985 33.5775 49.8358 33.6105H51.3382C51.3811 33.583 51.467 33.4951 51.467 33.3633V29.0787C51.4383 28.5705 51.0549 27.5461 49.75 27.5131C48.4451 27.4801 47.661 27.9938 47.4321 28.2547C47.2747 28.0075 46.7453 27.5131 45.8868 27.5131C45.0283 27.5131 44.041 28.0075 43.6547 28.2547Z" fill="#00A8E1"/>
<path fill-rule="evenodd" clip-rule="evenodd" d="M54.1283 31.0974C54.071 31.8252 54.6605 33.0831 57.4764 32.2921C57.6481 32.2262 57.691 32.4569 57.691 32.5805V33.1985C57.5336 33.4045 56.9098 33.8165 55.6735 33.8165C53.2698 33.8165 52.583 32.2235 52.5401 31.427C52.3827 30.7678 52.3598 29.194 53.5273 28.1723C55.1756 26.9858 56.8182 27.6779 57.4335 28.1723C57.8198 28.5156 58.395 29.4494 57.6052 30.4382C56.8153 31.427 54.9581 31.2896 54.1283 31.0974ZM55.4589 28.7079C54.3944 28.7079 54.1283 29.6417 54.1283 30.1086C54.4574 30.1498 55.21 30.224 55.5877 30.191C55.9654 30.1581 56.203 29.9301 56.2745 29.8202C56.4462 29.4494 56.5235 28.7079 55.4589 28.7079Z" fill="#00A8E1"/>
<path fill-rule="evenodd" clip-rule="evenodd" d="M27 27.7191V36H28.3736C28.4165 36 28.5195 35.9753 28.5882 35.8764V33.2397C30.1335 34.3109 32.8807 33.7753 32.8807 30.5206C32.8807 27.5131 30.2193 26.8127 28.4165 28.2135C28.4022 28.0762 28.3221 27.785 28.116 27.7191H27ZM30.6915 29.1199C29.9704 28.4936 28.9888 28.8589 28.5882 29.1199V32.0861C29.6871 32.8112 30.4483 32.3883 30.6915 32.0861C31.0006 31.9543 31.0778 30.9875 31.0778 30.5206C31.1122 29.7955 30.8346 29.2846 30.6915 29.1199Z" fill="#00A8E1"/>
<defs>
<linearGradient id="paint0_linear" x1="92.75" y1="81.1765" x2="52.8637" y2="38.8258" gradientUnits="userSpaceOnUse">
<stop stop-color="#1B1B1B"/>
<stop offset="1" stop-color="#1B1B1B" stop-opacity="0"/>
</linearGradient>
<linearGradient id="paint1_linear" x1="16.9914" y1="224.27" x2="184.124" y2="224.938" gradientUnits="userSpaceOnUse">
<stop stop-opacity="0"/>
<stop stop-opacity="0"/>
<stop offset="1"/>
</linearGradient>
<clipPath id="clip0">
<rect width="219" height="494" fill="white" transform="translate(494 64) rotate(90)"/>
</clipPath>
<clipPath id="clip1">
<rect width="60.0157" height="15.1496" fill="white" transform="translate(25.9922 139.33)"/>
</clipPath>
<clipPath id="clip2">
<rect width="67" height="16" fill="white" transform="translate(79 242.811)"/>
</clipPath>
</defs>
</svg>
