<svg width="326" height="200" viewBox="0 0 326 200" fill="none" xmlns="http://www.w3.org/2000/svg">
<path d="M20 31C20 24.9249 24.9249 20 31 20H53C59.0751 20 64 24.9249 64 31C64 37.0751 59.0751 42 53 42H31C24.9249 42 20 37.0751 20 31Z" fill="white" fill-opacity="0.8"/>
<path fill-rule="evenodd" clip-rule="evenodd" d="M27 27.7191V36H28.3736C28.4165 36 28.5195 35.9753 28.5882 35.8764V33.2397C30.1335 34.3109 32.8807 33.7753 32.8807 30.5206C32.8807 27.5131 30.2193 26.8127 28.4165 28.2135C28.4022 28.0762 28.3221 27.785 28.116 27.7191H27ZM30.6915 29.1199C29.9704 28.4936 28.9888 28.8589 28.5882 29.1199V32.0861C29.6871 32.8112 30.4483 32.3883 30.6915 32.0861C31.0006 31.9543 31.0778 30.9875 31.0778 30.5206C31.1122 29.7955 30.8346 29.2846 30.6915 29.1199Z" fill="#00A8E1"/>
<path d="M34.0396 33.4457V27.8839C34.0396 27.829 34.074 27.7109 34.2113 27.6779H35.2844C35.3417 27.6367 35.499 27.7356 35.6707 28.4607C35.6851 28.5019 35.7308 28.5678 35.7995 28.5019C35.8854 28.4195 36.7009 27.5543 37.5594 27.6367C37.9028 27.6367 37.9887 27.774 37.9887 27.8427V28.9963C37.9744 29.0649 37.9114 29.2022 37.774 29.2022C36.5722 29.1363 35.9569 29.3396 35.7995 29.4494V33.4457C35.7995 33.4869 35.7738 33.5775 35.6707 33.6105H34.1684C34.1255 33.6105 34.0396 33.5775 34.0396 33.4457Z" fill="#00A8E1"/>
<path d="M39.0189 27.6779H40.3066C40.3781 27.6916 40.5212 27.7521 40.5212 27.8839V33.4457C40.5069 33.4869 40.4525 33.5775 40.3495 33.6105H38.9759C38.9187 33.5968 38.7956 33.5446 38.7613 33.4457L38.8042 27.8839C38.8042 27.829 38.8472 27.7109 39.0189 27.6779Z" fill="#00A8E1"/>
<path d="M39.3622 26.7303C39.491 26.7441 39.7915 26.7633 39.9632 26.7303C40.1349 26.6974 40.3209 26.5793 40.3924 26.5243C40.5641 26.3596 40.65 26.1124 40.65 25.8652C40.65 25.5356 40.5641 25.412 40.4354 25.2472C40.3495 25.1785 40.1778 25 39.9632 25H39.3622C39.2049 25.0412 38.8643 25.1483 38.7613 25.412C38.6583 25.6757 38.6755 25.7553 38.6755 25.9064C38.6755 26.0574 38.7579 26.3563 38.933 26.5243C39.1081 26.6924 39.2907 26.7166 39.3622 26.7303Z" fill="#00A8E1"/>
<path d="M43.6547 28.2547C43.6118 28.0899 43.4916 27.7521 43.3542 27.7191C43.2169 27.6861 42.5244 27.7054 42.1953 27.7191C42.138 27.7191 42.0236 27.7521 42.0236 27.8839V33.4457C42.0379 33.4869 42.0922 33.5775 42.1953 33.6105C42.2983 33.6434 43.1539 33.6242 43.5688 33.6105C43.6261 33.5968 43.7577 33.5446 43.8264 33.4457L43.7835 29.161C44.0267 29.0237 44.6248 28.7655 45.0712 28.8315C45.6292 28.8727 45.8009 29.1336 45.8438 29.2846L45.8868 33.4457C45.9011 33.5006 45.9554 33.6105 46.0585 33.6105H47.475C47.5179 33.5968 47.6123 33.5446 47.6467 33.4457V29.161C47.847 29.01 48.3764 28.7243 48.8915 28.7903C49.4066 28.8562 49.6212 29.1748 49.6641 29.3258V33.3633C49.6641 33.432 49.6985 33.5775 49.8358 33.6105H51.3382C51.3811 33.583 51.467 33.4951 51.467 33.3633V29.0787C51.4383 28.5705 51.0549 27.5461 49.75 27.5131C48.4451 27.4801 47.661 27.9938 47.4321 28.2547C47.2747 28.0075 46.7453 27.5131 45.8868 27.5131C45.0283 27.5131 44.041 28.0075 43.6547 28.2547Z" fill="#00A8E1"/>
<path fill-rule="evenodd" clip-rule="evenodd" d="M54.1283 31.0974C54.071 31.8252 54.6605 33.0831 57.4764 32.2921C57.6481 32.2262 57.691 32.4569 57.691 32.5805V33.1985C57.5336 33.4045 56.9098 33.8165 55.6735 33.8165C53.2698 33.8165 52.583 32.2235 52.5401 31.427C52.3827 30.7678 52.3598 29.194 53.5273 28.1723C55.1756 26.9858 56.8182 27.6779 57.4335 28.1723C57.8198 28.5156 58.395 29.4494 57.6052 30.4382C56.8153 31.427 54.9581 31.2896 54.1283 31.0974ZM55.4589 28.7079C54.3944 28.7079 54.1283 29.6417 54.1283 30.1086C54.4574 30.1498 55.21 30.224 55.5877 30.191C55.9654 30.1581 56.203 29.9301 56.2745 29.8202C56.4462 29.4494 56.5235 28.7079 55.4589 28.7079Z" fill="#00A8E1"/>
<path fill-rule="evenodd" clip-rule="evenodd" d="M27 27.7191V36H28.3736C28.4165 36 28.5195 35.9753 28.5882 35.8764V33.2397C30.1335 34.3109 32.8807 33.7753 32.8807 30.5206C32.8807 27.5131 30.2193 26.8127 28.4165 28.2135C28.4022 28.0762 28.3221 27.785 28.116 27.7191H27ZM30.6915 29.1199C29.9704 28.4936 28.9888 28.8589 28.5882 29.1199V32.0861C29.6871 32.8112 30.4483 32.3883 30.6915 32.0861C31.0006 31.9543 31.0778 30.9875 31.0778 30.5206C31.1122 29.7955 30.8346 29.2846 30.6915 29.1199Z" fill="#00A8E1"/>
<g clip-path="url(#clip0)">
<rect width="179" height="326" transform="translate(326 21) rotate(90)" fill="url(#paint0_linear)"/>
<path d="M26.9336 150.754C29.8307 150.754 31.2793 149.048 31.2793 145.637C31.2793 142.733 29.8307 141.281 26.9336 141.281H24.0527V150.754H26.9336ZM21.4648 153V139.035H26.9336C31.556 139.035 33.8672 141.236 33.8672 145.637C33.8672 150.546 31.556 153 26.9336 153H21.4648ZM38.418 139.035V141.086H35.8301V139.035H38.418ZM38.418 142.746V153H35.8301V142.746H38.418ZM40.8691 153V142.746H42.8711L43.1934 144.055C44.0918 143.182 45.0423 142.746 46.0449 142.746V144.836C45.0814 144.836 44.2188 145.236 43.457 146.037V153H40.8691ZM47.3633 141.086H49.2773L49.668 142.746H52.2461V144.797H49.9512V149.514C49.9512 150.471 50.3646 150.949 51.1914 150.949H52.2461V153H49.9414C48.2227 153 47.3633 152.079 47.3633 150.236V141.086ZM52.793 142.746H55.5371L58.125 150.129L60.6543 142.746H63.3496L59.0918 153.303C58.3366 155.165 57.1289 156.49 55.4688 157.277L54.2188 155.51C55.3646 155.008 56.1979 154.191 56.7188 153.059L52.793 142.746ZM74.6875 150.754C77.5846 150.754 79.0332 149.048 79.0332 145.637C79.0332 142.733 77.5846 141.281 74.6875 141.281H71.8066V150.754H74.6875ZM69.2188 153V139.035H74.6875C79.3099 139.035 81.6211 141.236 81.6211 145.637C81.6211 150.546 79.3099 153 74.6875 153H69.2188ZM83.0957 149.807C83.0957 147.769 84.5801 146.75 87.5488 146.75C88.2454 146.75 88.9421 146.815 89.6387 146.945V146.174C89.6387 145.256 88.9779 144.797 87.6562 144.797C86.5365 144.797 85.293 144.96 83.9258 145.285V143.234C85.293 142.909 86.5365 142.746 87.6562 142.746C90.7031 142.746 92.2266 143.872 92.2266 146.125V153H90.7227L89.8047 152.082C88.9128 152.694 87.9297 153 86.8555 153C84.349 153 83.0957 151.936 83.0957 149.807ZM89.6387 148.703C88.9876 148.573 88.291 148.508 87.5488 148.508C86.3053 148.508 85.6836 148.931 85.6836 149.777C85.6836 150.689 86.2044 151.145 87.2461 151.145C88.1055 151.145 88.903 150.878 89.6387 150.344V148.703ZM94.6777 153V142.746H96.6797L97.002 144.25C97.985 143.247 99.1048 142.746 100.361 142.746C102.79 142.746 104.004 144.009 104.004 146.535V153H101.416V146.535C101.416 145.402 100.853 144.836 99.7266 144.836C98.8867 144.836 98.0664 145.171 97.2656 145.842V153H94.6777ZM114.023 152.707C113.177 152.902 112.298 153 111.387 153C107.741 153 105.918 151.226 105.918 147.678C105.918 144.39 107.741 142.746 111.387 142.746C112.298 142.746 113.177 142.844 114.023 143.039V145.09C113.177 144.895 112.363 144.797 111.582 144.797C109.531 144.797 108.506 145.757 108.506 147.678C108.506 149.859 109.531 150.949 111.582 150.949C112.363 150.949 113.177 150.852 114.023 150.656V152.707ZM118.32 139.035V141.086H115.732V139.035H118.32ZM118.32 142.746V153H115.732V142.746H118.32ZM120.771 153V142.746H122.773L123.096 144.25C124.079 143.247 125.199 142.746 126.455 142.746C128.883 142.746 130.098 144.009 130.098 146.535V153H127.51V146.535C127.51 145.402 126.947 144.836 125.82 144.836C124.98 144.836 124.16 145.171 123.359 145.842V153H120.771ZM139.111 145.07C138.688 144.914 138.086 144.836 137.305 144.836C135.514 144.836 134.619 145.822 134.619 147.795C134.619 149.702 135.391 150.656 136.934 150.656C137.676 150.656 138.402 150.48 139.111 150.129V145.07ZM141.699 152.219C141.699 155.214 139.899 156.711 136.299 156.711C135.036 156.711 133.916 156.548 132.939 156.223V154.172C133.936 154.497 135.062 154.66 136.318 154.66C138.18 154.66 139.111 153.879 139.111 152.316C138.343 152.642 137.516 152.805 136.631 152.805C133.584 152.805 132.061 151.141 132.061 147.814C132.061 144.436 133.835 142.746 137.383 142.746C138.574 142.746 140.013 142.886 141.699 143.166V152.219Z" fill="white"/>
<path d="M24.8604 174H23.6572V167.759C23.6572 167.563 23.6572 167.353 23.6572 167.13C23.6618 166.907 23.6663 166.686 23.6709 166.467C23.68 166.243 23.6868 166.032 23.6914 165.831C23.7005 165.626 23.7074 165.446 23.7119 165.291C23.6344 165.373 23.5661 165.444 23.5068 165.503C23.4476 165.562 23.3861 165.619 23.3223 165.674C23.263 165.729 23.1992 165.788 23.1309 165.852C23.0625 165.911 22.9805 165.981 22.8848 166.063L21.873 166.891L21.2168 166.05L23.835 164.006H24.8604V174ZM34.7383 168.271C34.7383 168.75 34.7132 169.229 34.6631 169.707C34.6175 170.181 34.5332 170.634 34.4102 171.067C34.2917 171.5 34.1276 171.906 33.918 172.284C33.7083 172.658 33.4417 172.981 33.1182 173.255C32.7946 173.528 32.4072 173.745 31.9561 173.904C31.5049 174.059 30.9762 174.137 30.3701 174.137C30.2835 174.137 30.1878 174.134 30.083 174.13C29.9782 174.125 29.8734 174.116 29.7686 174.103C29.6637 174.093 29.5612 174.082 29.4609 174.068C29.3607 174.055 29.2718 174.036 29.1943 174.014V172.947C29.3538 173.007 29.5339 173.05 29.7344 173.077C29.9349 173.104 30.1331 173.118 30.3291 173.118C30.9443 173.118 31.4502 173.011 31.8467 172.797C32.2432 172.583 32.5576 172.293 32.79 171.929C33.0225 171.56 33.1865 171.131 33.2822 170.644C33.3825 170.156 33.444 169.641 33.4668 169.099H33.3779C33.2868 169.263 33.1774 169.415 33.0498 169.557C32.9222 169.698 32.7718 169.821 32.5986 169.926C32.4255 170.031 32.2295 170.113 32.0107 170.172C31.792 170.231 31.5482 170.261 31.2793 170.261C30.8464 170.261 30.4544 170.195 30.1035 170.062C29.7526 169.926 29.4541 169.728 29.208 169.468C28.9619 169.208 28.7705 168.891 28.6338 168.518C28.5016 168.139 28.4355 167.709 28.4355 167.226C28.4355 166.706 28.5062 166.239 28.6475 165.824C28.7933 165.405 28.9961 165.052 29.2559 164.765C29.5202 164.473 29.8392 164.25 30.2129 164.095C30.5911 163.94 31.0127 163.862 31.4775 163.862C31.9378 163.862 32.3662 163.951 32.7627 164.129C33.1592 164.307 33.5033 164.578 33.7949 164.942C34.0866 165.307 34.3167 165.767 34.4854 166.323C34.654 166.875 34.7383 167.524 34.7383 168.271ZM31.4912 164.915C31.2178 164.915 30.9671 164.961 30.7393 165.052C30.516 165.143 30.3223 165.284 30.1582 165.476C29.9941 165.667 29.8665 165.909 29.7754 166.2C29.6888 166.487 29.6455 166.829 29.6455 167.226C29.6455 167.545 29.682 167.832 29.7549 168.087C29.8324 168.338 29.9463 168.552 30.0967 168.729C30.2471 168.907 30.4339 169.044 30.6572 169.14C30.8851 169.235 31.1494 169.283 31.4502 169.283C31.7601 169.283 32.0404 169.231 32.291 169.126C32.5417 169.017 32.7559 168.878 32.9336 168.709C33.1113 168.536 33.248 168.34 33.3438 168.121C33.444 167.902 33.4941 167.684 33.4941 167.465C33.4941 167.16 33.4508 166.856 33.3643 166.556C33.2822 166.25 33.1569 165.977 32.9883 165.735C32.8242 165.489 32.6169 165.291 32.3662 165.141C32.1156 164.99 31.8239 164.915 31.4912 164.915ZM39.2842 163.849C39.667 163.849 40.027 163.899 40.3643 163.999C40.7061 164.099 41.0046 164.25 41.2598 164.45C41.5195 164.651 41.7246 164.901 41.875 165.202C42.0254 165.503 42.1006 165.854 42.1006 166.255C42.1006 166.56 42.055 166.836 41.9639 167.082C41.8727 167.328 41.7474 167.551 41.5879 167.752C41.4284 167.948 41.2393 168.126 41.0205 168.285C40.8018 168.44 40.5648 168.581 40.3096 168.709C40.5739 168.85 40.8314 169.007 41.082 169.181C41.3372 169.354 41.5628 169.55 41.7588 169.769C41.9593 169.983 42.1188 170.224 42.2373 170.493C42.3604 170.762 42.4219 171.063 42.4219 171.396C42.4219 171.815 42.3444 172.195 42.1895 172.537C42.0391 172.874 41.8249 173.161 41.5469 173.398C41.2734 173.635 40.943 173.818 40.5557 173.945C40.1729 174.073 39.749 174.137 39.2842 174.137C38.7829 174.137 38.3363 174.075 37.9443 173.952C37.557 173.829 37.2288 173.654 36.96 173.426C36.6956 173.193 36.4928 172.911 36.3516 172.578C36.2148 172.245 36.1465 171.869 36.1465 171.45C36.1465 171.108 36.1966 170.801 36.2969 170.527C36.4017 170.254 36.5407 170.008 36.7139 169.789C36.887 169.57 37.0921 169.377 37.3291 169.208C37.5661 169.039 37.8167 168.891 38.0811 168.764C37.8577 168.622 37.6481 168.47 37.4521 168.306C37.2562 168.137 37.0853 167.95 36.9395 167.745C36.7982 167.54 36.6842 167.314 36.5977 167.068C36.5156 166.818 36.4746 166.542 36.4746 166.241C36.4746 165.845 36.5498 165.498 36.7002 165.202C36.8551 164.901 37.0625 164.651 37.3223 164.45C37.582 164.25 37.8805 164.099 38.2178 163.999C38.5596 163.899 38.915 163.849 39.2842 163.849ZM37.3701 171.464C37.3701 171.705 37.4066 171.929 37.4795 172.134C37.5524 172.334 37.6663 172.507 37.8213 172.653C37.9762 172.795 38.1722 172.906 38.4092 172.988C38.6462 173.066 38.9287 173.104 39.2568 173.104C39.5758 173.104 39.8561 173.066 40.0977 172.988C40.3438 172.906 40.5488 172.792 40.7129 172.646C40.877 172.496 41 172.316 41.082 172.106C41.1641 171.897 41.2051 171.664 41.2051 171.409C41.2051 171.172 41.1595 170.958 41.0684 170.767C40.9818 170.575 40.8542 170.397 40.6855 170.233C40.5215 170.069 40.3232 169.914 40.0908 169.769C39.8584 169.623 39.5986 169.479 39.3115 169.338L39.1064 169.242C38.5322 169.516 38.0993 169.83 37.8076 170.186C37.516 170.536 37.3701 170.963 37.3701 171.464ZM39.2705 164.888C38.7874 164.888 38.4023 165.008 38.1152 165.25C37.8327 165.492 37.6914 165.842 37.6914 166.303C37.6914 166.562 37.7301 166.786 37.8076 166.973C37.8896 167.16 38.0013 167.326 38.1426 167.472C38.2839 167.618 38.4525 167.75 38.6484 167.868C38.849 167.982 39.0654 168.094 39.2979 168.203C39.5166 168.103 39.7217 167.993 39.9131 167.875C40.109 167.757 40.2777 167.622 40.4189 167.472C40.5648 167.321 40.6787 167.15 40.7607 166.959C40.8428 166.768 40.8838 166.549 40.8838 166.303C40.8838 165.842 40.7402 165.492 40.4531 165.25C40.166 165.008 39.7718 164.888 39.2705 164.888ZM45.0537 174L48.9023 165.141H43.748V164.006H50.1738V164.997L46.3799 174H45.0537Z" fill="white"/>
<path d="M65.8906 174H59.6562V172.934L62.0488 170.329C62.3906 169.96 62.696 169.623 62.9648 169.317C63.2337 169.012 63.4616 168.714 63.6484 168.422C63.8398 168.13 63.9857 167.839 64.0859 167.547C64.1862 167.251 64.2363 166.929 64.2363 166.583C64.2363 166.314 64.1976 166.077 64.1201 165.872C64.0426 165.667 63.931 165.494 63.7852 165.353C63.6439 165.207 63.4753 165.097 63.2793 165.024C63.0833 164.951 62.8646 164.915 62.623 164.915C62.1901 164.915 61.7982 165.004 61.4473 165.182C61.1009 165.355 60.7705 165.578 60.4561 165.852L59.7588 165.038C59.9411 164.874 60.137 164.721 60.3467 164.58C60.5563 164.434 60.7819 164.309 61.0234 164.204C61.265 164.099 61.5202 164.017 61.7891 163.958C62.0579 163.894 62.3405 163.862 62.6367 163.862C63.0742 163.862 63.4684 163.924 63.8193 164.047C64.1748 164.17 64.4756 164.348 64.7217 164.58C64.9678 164.808 65.1569 165.088 65.2891 165.421C65.4258 165.749 65.4941 166.12 65.4941 166.535C65.4941 166.923 65.4326 167.292 65.3096 167.643C65.1911 167.993 65.0247 168.34 64.8105 168.682C64.6009 169.019 64.348 169.358 64.0518 169.7C63.7601 170.042 63.4434 170.397 63.1016 170.767L61.1807 172.811V172.865H65.8906V174ZM73.6016 174H67.3672V172.934L69.7598 170.329C70.1016 169.96 70.4069 169.623 70.6758 169.317C70.9447 169.012 71.1725 168.714 71.3594 168.422C71.5508 168.13 71.6966 167.839 71.7969 167.547C71.8971 167.251 71.9473 166.929 71.9473 166.583C71.9473 166.314 71.9085 166.077 71.8311 165.872C71.7536 165.667 71.6419 165.494 71.4961 165.353C71.3548 165.207 71.1862 165.097 70.9902 165.024C70.7943 164.951 70.5755 164.915 70.334 164.915C69.901 164.915 69.5091 165.004 69.1582 165.182C68.8118 165.355 68.4814 165.578 68.167 165.852L67.4697 165.038C67.652 164.874 67.848 164.721 68.0576 164.58C68.2673 164.434 68.4928 164.309 68.7344 164.204C68.9759 164.099 69.2311 164.017 69.5 163.958C69.7689 163.894 70.0514 163.862 70.3477 163.862C70.7852 163.862 71.1794 163.924 71.5303 164.047C71.8857 164.17 72.1865 164.348 72.4326 164.58C72.6787 164.808 72.8678 165.088 73 165.421C73.1367 165.749 73.2051 166.12 73.2051 166.535C73.2051 166.923 73.1436 167.292 73.0205 167.643C72.902 167.993 72.7357 168.34 72.5215 168.682C72.3118 169.019 72.0589 169.358 71.7627 169.7C71.471 170.042 71.1543 170.397 70.8125 170.767L68.8916 172.811V172.865H73.6016V174ZM88.2373 174V169.167C88.2373 168.575 88.1234 168.13 87.8955 167.834C87.6676 167.538 87.3145 167.39 86.8359 167.39C86.5033 167.39 86.2207 167.444 85.9883 167.554C85.7559 167.659 85.5645 167.816 85.4141 168.025C85.2682 168.23 85.1611 168.488 85.0928 168.798C85.0244 169.103 84.9902 169.456 84.9902 169.857V174H83.7393V169.167C83.7393 168.575 83.6253 168.13 83.3975 167.834C83.1742 167.538 82.8232 167.39 82.3447 167.39C81.9938 167.39 81.6999 167.449 81.4629 167.567C81.2259 167.686 81.0345 167.861 80.8887 168.094C80.7474 168.326 80.6449 168.611 80.5811 168.948C80.5218 169.285 80.4922 169.673 80.4922 170.11V174H79.248V166.494H80.2598L80.4375 167.506H80.5059C80.6152 167.31 80.7451 167.141 80.8955 167C81.0459 166.854 81.21 166.733 81.3877 166.638C81.57 166.542 81.7614 166.471 81.9619 166.426C82.167 166.38 82.3743 166.357 82.584 166.357C83.1309 166.357 83.5843 166.458 83.9443 166.658C84.3089 166.859 84.5778 167.173 84.751 167.602H84.8057C84.9242 167.387 85.0654 167.203 85.2295 167.048C85.3981 166.893 85.5804 166.765 85.7764 166.665C85.9769 166.56 86.1865 166.483 86.4053 166.433C86.624 166.382 86.8473 166.357 87.0752 166.357C87.8727 166.357 88.472 166.576 88.873 167.014C89.2786 167.447 89.4814 168.142 89.4814 169.099V174H88.2373ZM93.043 174H91.7988V166.494H93.043V174ZM91.7031 164.464C91.7031 164.19 91.7715 163.992 91.9082 163.869C92.0495 163.746 92.2227 163.685 92.4277 163.685C92.528 163.685 92.6214 163.701 92.708 163.732C92.7992 163.76 92.8766 163.805 92.9404 163.869C93.0088 163.933 93.0612 164.015 93.0977 164.115C93.1387 164.211 93.1592 164.327 93.1592 164.464C93.1592 164.728 93.0863 164.926 92.9404 165.059C92.7992 165.186 92.6283 165.25 92.4277 165.25C92.2227 165.25 92.0495 165.186 91.9082 165.059C91.7715 164.931 91.7031 164.733 91.7031 164.464ZM100.111 174V169.167C100.111 168.575 99.9906 168.13 99.749 167.834C99.512 167.538 99.1383 167.39 98.6279 167.39C98.2588 167.39 97.9489 167.449 97.6982 167.567C97.4476 167.686 97.2448 167.861 97.0898 168.094C96.9395 168.326 96.8301 168.611 96.7617 168.948C96.6979 169.285 96.666 169.673 96.666 170.11V174H95.4219V166.494H96.4336L96.6113 167.506H96.6797C96.7936 167.31 96.9281 167.141 97.083 167C97.2425 166.854 97.4157 166.733 97.6025 166.638C97.7894 166.542 97.9876 166.471 98.1973 166.426C98.4069 166.38 98.6211 166.357 98.8398 166.357C99.6738 166.357 100.3 166.576 100.72 167.014C101.144 167.447 101.355 168.142 101.355 169.099V174H100.111ZM108.547 174H107.303V163.363H108.547V174ZM113.893 174.137C113.391 174.137 112.933 174.052 112.519 173.884C112.104 173.715 111.746 173.469 111.445 173.146C111.149 172.822 110.919 172.421 110.755 171.942C110.591 171.464 110.509 170.917 110.509 170.302C110.509 169.682 110.584 169.128 110.734 168.641C110.885 168.153 111.097 167.741 111.37 167.403C111.644 167.062 111.969 166.802 112.348 166.624C112.73 166.446 113.152 166.357 113.612 166.357C114.063 166.357 114.469 166.439 114.829 166.604C115.189 166.763 115.494 166.991 115.745 167.287C115.996 167.579 116.187 167.932 116.319 168.347C116.456 168.757 116.524 169.213 116.524 169.714V170.486H111.794C111.817 171.366 112.001 172.013 112.348 172.428C112.699 172.842 113.218 173.05 113.906 173.05C114.139 173.05 114.353 173.038 114.549 173.016C114.749 172.993 114.941 172.961 115.123 172.92C115.31 172.874 115.49 172.82 115.663 172.756C115.836 172.688 116.012 172.612 116.189 172.53V173.638C116.007 173.724 115.827 173.799 115.649 173.863C115.476 173.927 115.296 173.979 115.109 174.021C114.927 174.062 114.736 174.091 114.535 174.109C114.339 174.128 114.125 174.137 113.893 174.137ZM113.585 167.39C113.065 167.39 112.653 167.567 112.348 167.923C112.047 168.278 111.871 168.796 111.821 169.475H115.185C115.185 169.165 115.153 168.882 115.089 168.627C115.03 168.367 114.934 168.146 114.802 167.964C114.674 167.782 114.51 167.64 114.31 167.54C114.109 167.44 113.868 167.39 113.585 167.39ZM121.679 167.431H120.004V174H118.753V167.431H117.427V166.918L118.753 166.453V165.797C118.753 165.309 118.803 164.906 118.903 164.587C119.008 164.263 119.156 164.006 119.348 163.814C119.544 163.623 119.783 163.489 120.065 163.411C120.348 163.329 120.667 163.288 121.022 163.288C121.291 163.288 121.537 163.315 121.761 163.37C121.989 163.42 122.191 163.477 122.369 163.541L122.048 164.505C121.907 164.455 121.752 164.411 121.583 164.375C121.419 164.334 121.246 164.313 121.063 164.313C120.881 164.313 120.724 164.336 120.592 164.382C120.46 164.423 120.35 164.498 120.264 164.607C120.177 164.717 120.111 164.867 120.065 165.059C120.024 165.245 120.004 165.487 120.004 165.783V166.494H121.679V167.431ZM125.295 173.118C125.377 173.118 125.468 173.114 125.568 173.104C125.673 173.095 125.773 173.084 125.869 173.07C125.965 173.057 126.051 173.041 126.129 173.022C126.211 173.004 126.272 172.988 126.313 172.975V173.918C126.254 173.945 126.179 173.973 126.088 174C125.997 174.027 125.896 174.05 125.787 174.068C125.678 174.091 125.564 174.107 125.445 174.116C125.327 174.13 125.211 174.137 125.097 174.137C124.814 174.137 124.552 174.1 124.311 174.027C124.069 173.954 123.859 173.829 123.682 173.651C123.508 173.474 123.372 173.234 123.271 172.934C123.171 172.628 123.121 172.245 123.121 171.785V167.431H122.062V166.877L123.121 166.344L123.654 164.771H124.372V166.494H126.259V167.431H124.372V171.785C124.372 172.227 124.443 172.56 124.584 172.783C124.73 173.007 124.967 173.118 125.295 173.118Z" fill="white"/>
<rect x="-88" y="194" width="368" height="6" fill="#00A8E1"/>
<path d="M175 153.1C169.5 153.1 165.1 157.5 165.1 163C165.1 168.5 169.5 172.9 175 172.9C180.5 172.9 184.9 168.5 184.9 163C184.9 157.5 180.5 153.1 175 153.1ZM175 171.7C170.245 171.7 166.3 167.755 166.3 163C166.3 158.245 170.245 154.3 175 154.3C179.755 154.3 183.7 158.245 183.7 163C183.7 167.755 179.755 171.7 175 171.7ZM170.6 161.9V164.1H179.4V161.9H170.6Z" fill="white"/>
<path d="M207.267 159.276C206.605 158.608 205.916 158.026 205.198 157.532C204.481 157.037 203.809 156.666 203.182 156.419C202.556 156.172 201.981 156.053 201.459 156.063C200.936 156.073 200.529 156.228 200.236 156.529C200.167 156.596 200.108 156.671 200.059 156.755C200.01 156.838 199.975 156.903 199.954 156.95C199.934 156.997 199.906 157.081 199.871 157.201C199.836 157.321 199.812 157.398 199.798 157.432L195.912 169.703L196.152 169.944C195.88 170.124 195.638 170.335 195.426 170.576C195.214 170.816 195.027 171.013 194.867 171.167C194.707 171.321 194.515 171.428 194.292 171.488C194.244 171.501 194.183 171.547 194.11 171.623C194.037 171.7 194 171.769 194 171.829C194 171.949 194.063 172.049 194.188 172.13C194.313 172.21 194.453 172.25 194.606 172.25C194.801 172.25 194.989 172.175 195.17 172.024C195.351 171.874 195.534 171.682 195.718 171.448C195.903 171.214 196.037 171.06 196.121 170.987C196.302 170.833 196.504 170.686 196.726 170.546L196.998 170.796L209.346 166.776C209.617 166.696 209.826 166.575 209.972 166.415C210.265 166.114 210.416 165.698 210.427 165.167C210.437 164.635 210.321 164.05 210.077 163.412C209.833 162.774 209.469 162.092 208.985 161.367C208.501 160.642 207.928 159.945 207.267 159.276ZM206.139 160.369C207.204 161.412 208.014 162.409 208.567 163.362C209.121 164.314 209.255 164.941 208.97 165.242C208.684 165.543 208.061 165.432 207.1 164.911C206.139 164.39 205.129 163.611 204.07 162.575C202.998 161.532 202.185 160.536 201.631 159.587C201.077 158.638 200.943 158.01 201.229 157.702C201.514 157.401 202.139 157.512 203.104 158.033C204.069 158.554 205.08 159.333 206.139 160.369ZM203.851 164.52C204.359 164.954 204.864 165.335 205.366 165.663C205.373 165.676 205.547 165.99 205.888 166.605L205.01 166.896C204.593 166.141 204.206 165.349 203.851 164.52ZM200.289 159.928C200.442 160.256 200.654 160.653 200.926 161.121C201.149 162.084 201.499 163.126 201.976 164.249C202.453 165.372 202.973 166.425 203.538 167.407L202.67 167.688C202.016 166.525 201.445 165.307 200.957 164.034C200.47 162.76 200.17 161.636 200.059 160.66L200.289 159.928ZM199.077 163.598C199.564 165.095 200.25 166.632 201.135 168.21L200.278 168.5C199.589 167.23 199.046 166.037 198.649 164.921L199.077 163.598ZM197.876 167.257C198.147 167.872 198.436 168.457 198.743 169.012L197.886 169.302C197.789 169.122 197.649 168.844 197.468 168.47L197.876 167.257ZM205.554 153L206.076 154.514L204.728 155.456H206.389L206.901 156.97L207.413 155.456H209.064L207.726 154.514L208.249 153.01L206.901 153.942L205.554 153ZM202.629 153L202.347 154.374L203.778 154.644L204.06 153.271L202.629 153ZM212.041 157.131L213.19 155.978L214.684 156.68L213.911 155.276L215.07 154.143L213.43 154.414L212.657 153L212.427 154.584L210.787 154.855L212.281 155.547L212.041 157.131ZM211.654 159.597L213.044 160.479L212.605 162.023L213.9 161.021L215.279 161.903L214.705 160.399L216 159.417L214.339 159.487L213.754 157.993L213.326 159.527L211.654 159.597ZM211.059 155.877L207.946 158.324L208.332 158.775L211.445 156.329L211.059 155.877ZM212.145 160.61L209.711 160.399L209.649 160.981L212.093 161.191L212.145 160.61ZM212.386 163.417L211.936 164.761L213.326 165.192L213.785 163.858L212.386 163.417Z" fill="white"/>
<path d="M269.813 165.75C269.298 165.752 268.791 165.87 268.328 166.095C267.865 166.32 267.459 166.646 267.139 167.049L262.113 163.907C262.296 163.316 262.296 162.683 262.113 162.092L267.139 158.95C267.649 159.582 268.366 160.013 269.163 160.166C269.96 160.32 270.786 160.186 271.494 159.789C272.202 159.392 272.747 158.757 273.032 157.997C273.317 157.236 273.323 156.4 273.05 155.635C272.777 154.871 272.243 154.227 271.541 153.819C270.839 153.411 270.015 153.264 269.216 153.405C268.416 153.546 267.692 153.966 267.173 154.589C266.653 155.213 266.37 156 266.375 156.812C266.379 157.12 266.425 157.425 266.513 157.72L261.487 160.862C261.044 160.303 260.437 159.896 259.752 159.698C259.067 159.5 258.337 159.519 257.663 159.754C256.99 159.989 256.406 160.428 255.993 161.009C255.58 161.591 255.358 162.286 255.358 163C255.358 163.713 255.58 164.409 255.993 164.99C256.406 165.572 256.99 166.011 257.663 166.245C258.337 166.48 259.067 166.5 259.752 166.302C260.437 166.103 261.044 165.696 261.487 165.138L266.513 168.28C266.425 168.574 266.379 168.88 266.375 169.187C266.375 169.867 266.577 170.532 266.955 171.097C267.332 171.662 267.869 172.103 268.497 172.363C269.126 172.623 269.817 172.691 270.484 172.559C271.15 172.426 271.763 172.099 272.244 171.618C272.724 171.137 273.052 170.525 273.184 169.858C273.317 169.191 273.249 168.5 272.989 167.872C272.729 167.244 272.288 166.707 271.723 166.329C271.157 165.951 270.493 165.75 269.813 165.75ZM269.813 154.75C270.221 154.75 270.62 154.871 270.959 155.097C271.298 155.324 271.562 155.646 271.718 156.023C271.875 156.4 271.915 156.815 271.836 157.215C271.756 157.615 271.56 157.982 271.271 158.271C270.983 158.559 270.615 158.756 270.215 158.835C269.815 158.915 269.4 158.874 269.024 158.718C268.647 158.562 268.325 158.297 268.098 157.958C267.871 157.619 267.75 157.22 267.75 156.812C267.75 156.265 267.968 155.741 268.354 155.354C268.741 154.967 269.266 154.75 269.813 154.75ZM258.813 165.062C258.405 165.062 258.006 164.941 257.667 164.715C257.328 164.488 257.064 164.166 256.907 163.789C256.751 163.412 256.71 162.997 256.79 162.597C256.87 162.197 257.066 161.83 257.354 161.541C257.643 161.253 258.01 161.056 258.411 160.977C258.811 160.897 259.225 160.938 259.602 161.094C259.979 161.25 260.301 161.515 260.528 161.854C260.754 162.193 260.875 162.592 260.875 163C260.875 163.547 260.658 164.071 260.271 164.458C259.885 164.845 259.36 165.062 258.813 165.062ZM269.813 171.25C269.405 171.25 269.006 171.129 268.667 170.902C268.328 170.676 268.064 170.353 267.907 169.977C267.751 169.6 267.71 169.185 267.79 168.785C267.87 168.385 268.066 168.017 268.354 167.729C268.643 167.44 269.01 167.244 269.411 167.164C269.811 167.085 270.225 167.126 270.602 167.282C270.979 167.438 271.301 167.702 271.528 168.041C271.754 168.381 271.875 168.779 271.875 169.187C271.875 169.734 271.658 170.259 271.271 170.646C270.885 171.032 270.36 171.25 269.813 171.25Z" fill="white"/>
<path d="M301.416 153.833H289.747C289.103 153.834 288.481 154.059 287.986 154.471C287.492 154.883 287.158 155.455 287.043 156.088L285.878 162.505C285.806 162.901 285.821 163.309 285.924 163.699C286.026 164.088 286.213 164.451 286.471 164.76C286.729 165.07 287.052 165.319 287.417 165.49C287.782 165.661 288.18 165.75 288.583 165.75H292.763L292.249 167.061C292.036 167.635 291.965 168.252 292.042 168.859C292.119 169.467 292.343 170.046 292.694 170.549C293.044 171.051 293.511 171.46 294.055 171.742C294.599 172.024 295.203 172.169 295.815 172.167C295.991 172.166 296.164 172.115 296.312 172.019C296.46 171.923 296.577 171.787 296.649 171.626L299.262 165.75H301.416C302.145 165.75 302.845 165.46 303.36 164.945C303.876 164.429 304.166 163.729 304.166 163V156.583C304.166 155.854 303.876 155.154 303.36 154.639C302.845 154.123 302.145 153.833 301.416 153.833ZM297.749 164.641L295.256 170.251C295.001 170.174 294.764 170.045 294.561 169.873C294.357 169.701 294.191 169.489 294.072 169.25C293.954 169.011 293.886 168.751 293.872 168.485C293.858 168.219 293.898 167.952 293.991 167.702L294.477 166.392C294.58 166.115 294.615 165.817 294.579 165.523C294.542 165.23 294.435 164.949 294.267 164.706C294.098 164.463 293.873 164.264 293.611 164.127C293.35 163.989 293.058 163.917 292.763 163.917H288.583C288.448 163.917 288.315 163.887 288.193 163.83C288.071 163.773 287.963 163.69 287.877 163.587C287.788 163.485 287.724 163.364 287.687 163.234C287.651 163.104 287.644 162.968 287.666 162.835L288.83 156.418C288.869 156.205 288.983 156.012 289.151 155.874C289.318 155.737 289.53 155.663 289.747 155.667H297.749V164.641ZM302.333 163C302.333 163.243 302.236 163.476 302.064 163.648C301.892 163.82 301.659 163.917 301.416 163.917H299.583V155.667H301.416C301.659 155.667 301.892 155.763 302.064 155.935C302.236 156.107 302.333 156.34 302.333 156.583V163Z" fill="white"/>
<path d="M234.75 158.833C235.256 158.833 235.667 158.423 235.667 157.917C235.667 157.41 235.256 157 234.75 157C234.244 157 233.833 157.41 233.833 157.917C233.833 158.423 234.244 158.833 234.75 158.833Z" fill="white"/>
<path d="M237.347 166.411H235.819V160.056H233.528C233.325 160.056 233.131 160.139 232.988 160.288C232.844 160.437 232.764 160.639 232.764 160.85C232.764 161.061 232.844 161.263 232.988 161.412C233.131 161.561 233.325 161.644 233.528 161.644H234.292V166.411H232.764C232.561 166.411 232.367 166.495 232.224 166.644C232.08 166.793 232 166.995 232 167.206C232 167.416 232.08 167.618 232.224 167.767C232.367 167.916 232.561 168 232.764 168H237.347C237.55 168 237.744 167.916 237.887 167.767C238.031 167.618 238.111 167.416 238.111 167.206C238.111 166.995 238.031 166.793 237.887 166.644C237.744 166.495 237.55 166.411 237.347 166.411Z" fill="white"/>
<path d="M234.625 153C232.721 153 230.86 153.564 229.278 154.622C227.695 155.68 226.461 157.183 225.733 158.942C225.004 160.7 224.814 162.636 225.185 164.503C225.556 166.37 226.473 168.085 227.819 169.431C229.165 170.777 230.88 171.694 232.747 172.065C234.614 172.436 236.55 172.246 238.308 171.517C240.067 170.789 241.57 169.555 242.628 167.972C243.686 166.39 244.25 164.529 244.25 162.625C244.25 160.072 243.236 157.624 241.431 155.819C239.626 154.014 237.178 153 234.625 153ZM234.625 170.646C233.039 170.646 231.488 170.175 230.169 169.294C228.85 168.413 227.822 167.16 227.215 165.694C226.608 164.229 226.449 162.616 226.758 161.06C227.068 159.504 227.832 158.075 228.953 156.953C230.075 155.832 231.504 155.068 233.06 154.758C234.616 154.449 236.229 154.608 237.694 155.215C239.16 155.822 240.413 156.85 241.294 158.169C242.175 159.488 242.646 161.039 242.646 162.625C242.646 163.678 242.438 164.721 242.035 165.694C241.632 166.668 241.041 167.552 240.297 168.297C239.552 169.041 238.668 169.632 237.694 170.035C236.721 170.438 235.678 170.646 234.625 170.646Z" fill="white"/>
<path d="M234.75 158.833C235.256 158.833 235.667 158.423 235.667 157.917C235.667 157.41 235.256 157 234.75 157C234.244 157 233.833 157.41 233.833 157.917C233.833 158.423 234.244 158.833 234.75 158.833Z" fill="white"/>
<path d="M237.347 166.411H235.819V160.056H233.528C233.325 160.056 233.131 160.139 232.988 160.288C232.844 160.437 232.764 160.639 232.764 160.85C232.764 161.061 232.844 161.263 232.988 161.412C233.131 161.561 233.325 161.644 233.528 161.644H234.292V166.411H232.764C232.561 166.411 232.367 166.495 232.224 166.644C232.08 166.793 232 166.995 232 167.206C232 167.416 232.08 167.618 232.224 167.767C232.367 167.916 232.561 168 232.764 168H237.347C237.55 168 237.744 167.916 237.887 167.767C238.031 167.618 238.111 167.416 238.111 167.206C238.111 166.995 238.031 166.793 237.887 166.644C237.744 166.495 237.55 166.411 237.347 166.411Z" fill="white"/>
<path d="M234.625 153C232.721 153 230.86 153.564 229.278 154.622C227.695 155.68 226.461 157.183 225.733 158.942C225.004 160.7 224.814 162.636 225.185 164.503C225.556 166.37 226.473 168.085 227.819 169.431C229.165 170.777 230.88 171.694 232.747 172.065C234.614 172.436 236.55 172.246 238.308 171.517C240.067 170.789 241.57 169.555 242.628 167.972C243.686 166.39 244.25 164.529 244.25 162.625C244.25 160.072 243.236 157.624 241.431 155.819C239.626 154.014 237.178 153 234.625 153ZM234.625 170.646C233.039 170.646 231.488 170.175 230.169 169.294C228.85 168.413 227.822 167.16 227.215 165.694C226.608 164.229 226.449 162.616 226.758 161.06C227.068 159.504 227.832 158.075 228.953 156.953C230.075 155.832 231.504 155.068 233.06 154.758C234.616 154.449 236.229 154.608 237.694 155.215C239.16 155.822 240.413 156.85 241.294 158.169C242.175 159.488 242.646 161.039 242.646 162.625C242.646 163.678 242.438 164.721 242.035 165.694C241.632 166.668 241.041 167.552 240.297 168.297C239.552 169.041 238.668 169.632 237.694 170.035C236.721 170.438 235.678 170.646 234.625 170.646Z" fill="white"/>
</g>
<path d="M162.578 76.0037C167.324 75.9203 171.988 77.2461 175.981 79.8135C179.973 82.3809 183.115 86.0745 185.008 90.4274C186.902 94.7802 187.462 99.5967 186.617 104.268C185.773 108.939 183.563 113.255 180.266 116.67C176.969 120.085 172.734 122.445 168.095 123.453C163.456 124.461 158.623 124.07 154.207 122.331C149.79 120.592 145.988 117.582 143.282 113.682C140.576 109.782 139.087 105.168 139.004 100.422C138.892 94.0575 141.313 87.9095 145.734 83.3303C150.155 78.751 156.214 76.1156 162.578 76.0037ZM162.508 72.0043C156.971 72.1016 151.587 73.8387 147.037 76.9958C142.487 80.1529 138.976 84.5883 136.947 89.7411C134.918 94.8939 134.463 100.533 135.638 105.944C136.814 111.356 139.568 116.297 143.552 120.144C147.536 123.99 152.571 126.569 158.021 127.554C163.47 128.539 169.09 127.885 174.168 125.676C179.246 123.467 183.556 119.802 186.551 115.144C189.546 110.487 191.093 105.045 190.996 99.508C190.865 92.083 187.79 85.0141 182.448 79.8561C177.105 74.6982 169.933 71.8738 162.508 72.0043Z" fill="white" fill-opacity="0.6"/>
<path d="M155.247 114.138C154.888 114.145 154.534 114.054 154.223 113.876C153.921 113.705 153.669 113.457 153.492 113.159C153.315 112.86 153.219 112.521 153.213 112.174L152.791 88.1776C152.785 87.8306 152.869 87.4879 153.036 87.1834C153.202 86.8788 153.445 86.6229 153.74 86.4406C154.041 86.2598 154.385 86.1613 154.736 86.1552C155.087 86.149 155.433 86.2353 155.74 86.4055L177.948 98.017C178.268 98.1828 178.538 98.4322 178.728 98.7387C178.918 99.0453 179.022 99.3976 179.028 99.7583C179.035 100.119 178.943 100.475 178.764 100.788C178.585 101.101 178.324 101.36 178.009 101.536L156.224 113.921C155.922 114.075 155.586 114.15 155.247 114.138ZM156.849 91.4668L157.153 108.744L172.819 99.8275L156.849 91.4668Z" fill="white" fill-opacity="0.6"/>
<defs>
<linearGradient id="paint0_linear" x1="13.8879" y1="148" x2="150.493" y2="148.676" gradientUnits="userSpaceOnUse">
<stop stop-opacity="0"/>
<stop stop-opacity="0"/>
<stop offset="1"/>
</linearGradient>
<clipPath id="clip0">
<rect width="179" height="326" fill="white" transform="translate(326 21) rotate(90)"/>
</clipPath>
</defs>
</svg>
