<svg width="494" height="283" viewBox="0 0 494 283" fill="none" xmlns="http://www.w3.org/2000/svg">
<rect width="106" height="90" transform="translate(404 106) rotate(-90)" fill="url(#paint0_linear)"/>
<path d="M454.822 21.6639C455.814 21.4569 458.507 21.1317 459.262 21.7526C459.706 22.1178 459.262 24.0585 458.285 26.4088C458.241 26.5861 458.25 26.8966 458.641 26.7192C459.129 26.4975 461.127 23.9255 460.994 20.7326C460.905 20.3779 460.579 20.2659 460.505 20.2449C459.262 19.8901 456.732 19.7127 454.689 21.2204C454.547 21.5042 454.719 21.6343 454.822 21.6639Z" fill="white"/>
<path d="M427.03 20.8213C426.971 20.6735 426.959 20.3779 427.385 20.3779C432.624 23.5707 443.501 28.5373 457.486 22.4177C458.285 22.2404 458.378 23.0726 457.93 23.3933C446.165 31.8188 432.668 27.1183 427.03 20.8213Z" fill="white"/>
<path d="M432.019 35.3662C432.019 35.9163 431.952 36.4176 431.818 36.8701C431.688 37.3226 431.493 37.71 431.232 38.0322C430.972 38.3545 430.648 38.6035 430.261 38.7793C429.877 38.9551 429.432 39.043 428.928 39.043C428.397 39.043 427.937 38.9551 427.546 38.7793C427.159 38.6035 426.836 38.3545 426.579 38.0322C426.325 37.71 426.136 37.3226 426.013 36.8701C425.889 36.4144 425.827 35.9098 425.827 35.3564C425.827 34.8031 425.889 34.3018 426.013 33.8525C426.136 33.4001 426.327 33.0143 426.584 32.6953C426.841 32.3763 427.165 32.1305 427.556 31.958C427.946 31.7822 428.407 31.6943 428.938 31.6943C429.442 31.6943 429.885 31.7822 430.266 31.958C430.65 32.1305 430.972 32.3779 431.232 32.7002C431.493 33.0192 431.688 33.4049 431.818 33.8574C431.952 34.3066 432.019 34.8096 432.019 35.3662ZM426.789 35.3662C426.789 35.8122 426.831 36.2142 426.916 36.5723C427.001 36.9271 427.129 37.2298 427.302 37.4805C427.478 37.7279 427.699 37.9183 427.966 38.0518C428.236 38.182 428.557 38.2471 428.928 38.2471C429.299 38.2471 429.618 38.182 429.885 38.0518C430.155 37.9183 430.376 37.7279 430.549 37.4805C430.725 37.2298 430.853 36.9271 430.935 36.5723C431.016 36.2142 431.057 35.8122 431.057 35.3662C431.057 34.917 431.016 34.515 430.935 34.1602C430.853 33.8053 430.726 33.5059 430.554 33.2617C430.381 33.0143 430.161 32.8255 429.895 32.6953C429.628 32.5618 429.309 32.4951 428.938 32.4951C428.566 32.4951 428.246 32.5618 427.976 32.6953C427.705 32.8255 427.482 33.0143 427.307 33.2617C427.131 33.5059 427.001 33.8053 426.916 34.1602C426.831 34.515 426.789 34.917 426.789 35.3662ZM435.808 33.4863C435.902 33.4863 436.008 33.4912 436.125 33.501C436.242 33.5075 436.343 33.5189 436.428 33.5352L436.311 34.3555C436.219 34.3392 436.125 34.3262 436.027 34.3164C435.933 34.3034 435.843 34.2969 435.759 34.2969C435.554 34.2969 435.367 34.3392 435.197 34.4238C435.028 34.5052 434.882 34.624 434.758 34.7803C434.637 34.9333 434.543 35.1188 434.475 35.3369C434.41 35.5518 434.377 35.791 434.377 36.0547V38.9453H433.488V33.584H434.211L434.318 34.5654H434.357C434.439 34.4255 434.525 34.2904 434.616 34.1602C434.711 34.0299 434.815 33.916 434.929 33.8184C435.046 33.7174 435.176 33.6377 435.319 33.5791C435.463 33.5173 435.625 33.4863 435.808 33.4863ZM438.371 38.9453H437.482V33.584H438.371V38.9453ZM437.414 32.1338C437.414 31.9385 437.463 31.7969 437.561 31.709C437.661 31.6211 437.785 31.5771 437.932 31.5771C438.003 31.5771 438.07 31.5885 438.132 31.6113C438.197 31.6309 438.252 31.6634 438.298 31.709C438.347 31.7546 438.384 31.8132 438.41 31.8848C438.439 31.9531 438.454 32.0361 438.454 32.1338C438.454 32.3226 438.402 32.4642 438.298 32.5586C438.197 32.6497 438.075 32.6953 437.932 32.6953C437.785 32.6953 437.661 32.6497 437.561 32.5586C437.463 32.4674 437.414 32.3258 437.414 32.1338ZM444.201 33.584V34.1357L443.239 34.2676C443.33 34.3815 443.407 34.528 443.469 34.707C443.531 34.8828 443.562 35.083 443.562 35.3076C443.562 35.555 443.522 35.7845 443.444 35.9961C443.369 36.2044 443.254 36.3851 443.098 36.5381C442.945 36.6911 442.754 36.8115 442.526 36.8994C442.299 36.984 442.033 37.0264 441.73 37.0264C441.659 37.0264 441.587 37.0264 441.516 37.0264C441.444 37.0231 441.385 37.0166 441.34 37.0068C441.285 37.0394 441.229 37.0768 441.174 37.1191C441.122 37.1582 441.073 37.2038 441.027 37.2559C440.985 37.3079 440.949 37.3665 440.92 37.4316C440.894 37.4967 440.881 37.5684 440.881 37.6465C440.881 37.7344 440.9 37.806 440.939 37.8613C440.979 37.9134 441.031 37.9541 441.096 37.9834C441.164 38.0127 441.244 38.0322 441.335 38.042C441.426 38.0518 441.522 38.0566 441.623 38.0566H442.482C442.785 38.0566 443.041 38.0957 443.249 38.1738C443.457 38.2487 443.627 38.3512 443.757 38.4814C443.89 38.6117 443.986 38.7663 444.045 38.9453C444.104 39.1211 444.133 39.3083 444.133 39.5068C444.133 39.7933 444.079 40.0505 443.972 40.2783C443.868 40.5062 443.706 40.6982 443.488 40.8545C443.27 41.014 442.993 41.1361 442.658 41.2207C442.326 41.3053 441.934 41.3477 441.481 41.3477C441.133 41.3477 440.829 41.3135 440.568 41.2451C440.308 41.1768 440.091 41.0775 439.919 40.9473C439.746 40.8171 439.616 40.6592 439.528 40.4736C439.444 40.2913 439.401 40.0846 439.401 39.8535C439.401 39.6582 439.432 39.4857 439.494 39.3359C439.559 39.1895 439.646 39.0625 439.753 38.9551C439.86 38.8477 439.984 38.7598 440.124 38.6914C440.267 38.623 440.415 38.571 440.568 38.5352C440.432 38.4733 440.319 38.3757 440.231 38.2422C440.144 38.1087 440.1 37.9557 440.1 37.7832C440.1 37.5846 440.152 37.4137 440.256 37.2705C440.36 37.124 440.524 36.9824 440.749 36.8457C440.609 36.7871 440.48 36.7074 440.363 36.6064C440.249 36.5023 440.152 36.3851 440.07 36.2549C439.992 36.1214 439.93 35.9766 439.885 35.8203C439.842 35.6641 439.821 35.5029 439.821 35.3369C439.821 35.0472 439.862 34.7884 439.943 34.5605C440.025 34.3327 440.145 34.139 440.305 33.9795C440.464 33.82 440.663 33.6979 440.9 33.6133C441.138 33.5286 441.415 33.4863 441.73 33.4863C441.851 33.4863 441.975 33.4961 442.102 33.5156C442.232 33.5319 442.341 33.5547 442.429 33.584H444.201ZM440.241 39.8242C440.241 39.9447 440.262 40.057 440.305 40.1611C440.347 40.2653 440.415 40.3548 440.51 40.4297C440.607 40.5046 440.734 40.5632 440.891 40.6055C441.05 40.651 441.247 40.6738 441.481 40.6738C442.087 40.6738 442.539 40.5794 442.839 40.3906C443.142 40.2051 443.293 39.9365 443.293 39.585C443.293 39.4352 443.273 39.3132 443.234 39.2188C443.195 39.1243 443.13 39.0495 443.039 38.9941C442.951 38.9421 442.834 38.9062 442.688 38.8867C442.541 38.8672 442.362 38.8574 442.15 38.8574H441.291C441.177 38.8574 441.058 38.8704 440.935 38.8965C440.811 38.9225 440.697 38.9714 440.593 39.043C440.492 39.1146 440.407 39.2122 440.339 39.3359C440.274 39.4629 440.241 39.6257 440.241 39.8242ZM440.69 35.3076C440.69 35.682 440.778 35.9603 440.954 36.1426C441.13 36.3249 441.379 36.416 441.701 36.416C442.027 36.416 442.272 36.3265 442.438 36.1475C442.608 35.9652 442.692 35.6803 442.692 35.293C442.692 34.8926 442.606 34.598 442.434 34.4092C442.264 34.2204 442.017 34.126 441.691 34.126C441.369 34.126 441.122 34.2236 440.949 34.4189C440.777 34.6143 440.69 34.9105 440.69 35.3076ZM446.145 38.9453H445.256V33.584H446.145V38.9453ZM445.188 32.1338C445.188 31.9385 445.236 31.7969 445.334 31.709C445.435 31.6211 445.559 31.5771 445.705 31.5771C445.777 31.5771 445.843 31.5885 445.905 31.6113C445.97 31.6309 446.026 31.6634 446.071 31.709C446.12 31.7546 446.158 31.8132 446.184 31.8848C446.213 31.9531 446.228 32.0361 446.228 32.1338C446.228 32.3226 446.175 32.4642 446.071 32.5586C445.97 32.6497 445.848 32.6953 445.705 32.6953C445.559 32.6953 445.435 32.6497 445.334 32.5586C445.236 32.4674 445.188 32.3258 445.188 32.1338ZM451.193 38.9453V35.4932C451.193 35.07 451.107 34.7526 450.935 34.541C450.765 34.3294 450.498 34.2236 450.134 34.2236C449.87 34.2236 449.649 34.266 449.47 34.3506C449.291 34.4352 449.146 34.5605 449.035 34.7266C448.928 34.8926 448.85 35.096 448.801 35.3369C448.755 35.5778 448.732 35.8545 448.732 36.167V38.9453H447.844V33.584H448.566L448.693 34.3066H448.742C448.824 34.1667 448.92 34.0462 449.03 33.9453C449.144 33.8411 449.268 33.7549 449.401 33.6865C449.535 33.6182 449.676 33.5677 449.826 33.5352C449.976 33.5026 450.129 33.4863 450.285 33.4863C450.881 33.4863 451.328 33.6426 451.628 33.9551C451.931 34.2643 452.082 34.7607 452.082 35.4443V38.9453H451.193ZM456.755 38.9453L456.574 38.2031H456.535C456.428 38.3496 456.32 38.4766 456.213 38.584C456.105 38.6882 455.988 38.7744 455.861 38.8428C455.734 38.9111 455.593 38.9616 455.437 38.9941C455.28 39.0267 455.1 39.043 454.895 39.043C454.67 39.043 454.463 39.0104 454.274 38.9453C454.086 38.8835 453.921 38.7874 453.781 38.6572C453.645 38.5238 453.537 38.3577 453.459 38.1592C453.381 37.9574 453.342 37.7197 453.342 37.4463C453.342 36.9124 453.529 36.5023 453.903 36.2158C454.281 35.9294 454.854 35.7731 455.622 35.7471L456.521 35.7129V35.376C456.521 35.1579 456.496 34.9756 456.447 34.8291C456.402 34.6826 456.333 34.5654 456.242 34.4775C456.154 34.3864 456.044 34.3213 455.91 34.2822C455.78 34.2432 455.63 34.2236 455.461 34.2236C455.191 34.2236 454.938 34.2627 454.704 34.3408C454.473 34.4189 454.25 34.5133 454.035 34.624L453.723 33.9551C453.964 33.8249 454.232 33.7142 454.528 33.623C454.825 33.5319 455.135 33.4863 455.461 33.4863C455.793 33.4863 456.079 33.5205 456.32 33.5889C456.564 33.654 456.765 33.7598 456.921 33.9063C457.08 34.0495 457.199 34.2334 457.277 34.458C457.355 34.6826 457.395 34.9544 457.395 35.2734V38.9453L456.755 38.9453ZM455.124 38.3252C455.323 38.3252 455.507 38.2943 455.676 38.2324C455.845 38.1706 455.992 38.0778 456.115 37.9541C456.239 37.8271 456.335 37.6693 456.403 37.4805C456.475 37.2884 456.511 37.0638 456.511 36.8066V36.3232L455.812 36.3574C455.52 36.3704 455.274 36.403 455.075 36.4551C454.877 36.5072 454.717 36.5804 454.597 36.6748C454.479 36.766 454.395 36.8783 454.343 37.0117C454.291 37.1419 454.265 37.29 454.265 37.4561C454.265 37.7555 454.343 37.9753 454.499 38.1152C454.659 38.2552 454.867 38.3252 455.124 38.3252ZM459.934 38.9453H459.045V31.3477H459.934V38.9453Z" fill="white"/>
<g clip-path="url(#clip0)">
<rect width="219" height="494" transform="translate(494 64) rotate(90)" fill="url(#paint1_linear)"/>
<path d="M19 146.906C19 141.435 23.4349 137 28.9055 137H83.0945C88.5651 137 93 141.435 93 146.906V146.906C93 152.376 88.5651 156.811 83.0945 156.811H28.9055C23.4349 156.811 19 152.376 19 146.906V146.906Z" fill="#111111" fill-opacity="0.2"/>
<g clip-path="url(#clip1)">
<path d="M36.8511 146.044C36.8511 145.433 36.4178 144.921 35.8436 144.798C36.073 144.415 36.2138 143.973 36.2138 143.495C36.2138 142.089 35.0705 140.945 33.6646 140.945C32.6978 140.945 31.8668 141.491 31.4341 142.286C31.0013 141.491 30.1703 140.945 29.2035 140.945C27.7976 140.945 26.6543 142.089 26.6543 143.495C26.6543 144.069 26.8531 144.595 27.175 145.022C27.0141 145.139 26.8832 145.293 26.7927 145.471C26.7023 145.648 26.6549 145.844 26.6543 146.044V151.142C26.6543 151.845 27.226 152.417 27.9289 152.417H35.5765C36.2795 152.417 36.8511 151.845 36.8511 151.142V149.461L39.4004 150.736V146.274L36.8511 147.549V146.044ZM33.6646 142.22C34.3676 142.22 34.9392 142.792 34.9392 143.495C34.9392 144.197 34.3676 144.769 33.6646 144.769C32.9617 144.769 32.39 144.197 32.39 143.495C32.39 142.792 32.9617 142.22 33.6646 142.22ZM29.2035 142.22C29.9065 142.22 30.4781 142.792 30.4781 143.495C30.4781 144.197 29.9065 144.769 29.2035 144.769C28.5006 144.769 27.9289 144.197 27.9289 143.495C27.9289 142.792 28.5006 142.22 29.2035 142.22ZM27.9289 151.142V146.044H35.5765L35.5778 151.142H27.9289Z" fill="white"/>
<path d="M53.4395 142.566V143.59H50.3668V152.33H49.1036V143.59H46.0309V142.566H53.4395ZM54.812 152.33V145.16H55.6655L55.8909 146.075C56.5191 145.465 57.2747 145.16 58.1578 145.16V146.212C57.302 146.212 56.6078 146.515 56.0752 147.12V152.33H54.812ZM59.0865 150.166C59.0865 148.695 60.0561 147.96 61.9953 147.96C62.619 147.96 63.2426 148.006 63.8662 148.097V147.421C63.8662 146.597 63.2221 146.185 61.9339 146.185C61.1964 146.185 60.4407 146.298 59.6669 146.526V145.502C60.4407 145.274 61.1964 145.16 61.9339 145.16C64.0643 145.16 65.1295 145.902 65.1295 147.386V152.33H64.4193L63.9823 151.62C63.2676 152.093 62.4892 152.33 61.6471 152.33C59.94 152.33 59.0865 151.609 59.0865 150.166ZM61.9953 148.984C60.8982 148.984 60.3497 149.371 60.3497 150.145C60.3497 150.919 60.7822 151.306 61.6471 151.306C62.5211 151.306 63.2608 151.074 63.8662 150.609V149.121C63.2426 149.03 62.619 148.984 61.9953 148.984ZM68.5846 145.16V152.33H67.3213V145.16H68.5846ZM68.5846 142.566V143.761H67.3213V142.566H68.5846ZM72.1079 142.566V152.33H70.8447V142.566H72.1079ZM77.1882 145.16C79.2275 145.16 80.2472 146.169 80.2472 148.185C80.2472 148.472 80.2267 148.779 80.1858 149.107H75.1533C75.1533 150.573 76.0092 151.306 77.7208 151.306C78.5356 151.306 79.2594 151.215 79.8921 151.033V152.057C79.2594 152.239 78.4901 152.33 77.5842 152.33C75.1215 152.33 73.8901 151.108 73.8901 148.663C73.8901 146.328 74.9895 145.16 77.1882 145.16ZM75.1533 148.056H79.0318C79.0045 146.799 78.3899 146.171 77.1882 146.171C75.9136 146.171 75.2353 146.799 75.1533 148.056ZM81.9475 152.33V145.16H82.801L83.0263 146.075C83.6545 145.465 84.4102 145.16 85.2933 145.16V146.212C84.4375 146.212 83.7433 146.515 83.2107 147.12V152.33H81.9475Z" fill="white"/>
</g>
<path d="M28.9055 138.165H83.0945V135.835H28.9055V138.165ZM83.0945 155.646H28.9055V157.976H83.0945V155.646ZM28.9055 155.646C24.0785 155.646 20.1654 151.733 20.1654 146.906H17.8346C17.8346 153.02 22.7912 157.976 28.9055 157.976V155.646ZM91.8346 146.906C91.8346 151.733 87.9215 155.646 83.0945 155.646V157.976C89.2088 157.976 94.1654 153.02 94.1654 146.906H91.8346ZM83.0945 138.165C87.9215 138.165 91.8346 142.078 91.8346 146.906H94.1654C94.1654 140.791 89.2088 135.835 83.0945 135.835V138.165ZM28.9055 135.835C22.7912 135.835 17.8346 140.791 17.8346 146.906H20.1654C20.1654 142.078 24.0785 138.165 28.9055 138.165V135.835Z" fill="white"/>
<path d="M25.9336 180.564C28.8307 180.564 30.2793 178.859 30.2793 175.447C30.2793 172.544 28.8307 171.092 25.9336 171.092H23.0527V180.564H25.9336ZM20.4648 182.811V168.846H25.9336C30.556 168.846 32.8672 171.046 32.8672 175.447C32.8672 180.356 30.556 182.811 25.9336 182.811H20.4648ZM37.418 168.846V170.896H34.8301V168.846H37.418ZM37.418 172.557V182.811H34.8301V172.557H37.418ZM39.8691 182.811V172.557H41.8711L42.1934 173.865C43.0918 172.993 44.0423 172.557 45.0449 172.557V174.646C44.0814 174.646 43.2188 175.047 42.457 175.848V182.811H39.8691ZM46.3633 170.896H48.2773L48.668 172.557H51.2461V174.607H48.9512V179.324C48.9512 180.281 49.3646 180.76 50.1914 180.76H51.2461V182.811H48.9414C47.2227 182.811 46.3633 181.889 46.3633 180.047V170.896ZM51.793 172.557H54.5371L57.125 179.939L59.6543 172.557H62.3496L58.0918 183.113C57.3366 184.975 56.1289 186.3 54.4688 187.088L53.2188 185.32C54.3646 184.819 55.1979 184.002 55.7188 182.869L51.793 172.557ZM73.6875 180.564C76.5846 180.564 78.0332 178.859 78.0332 175.447C78.0332 172.544 76.5846 171.092 73.6875 171.092H70.8066V180.564H73.6875ZM68.2188 182.811V168.846H73.6875C78.3099 168.846 80.6211 171.046 80.6211 175.447C80.6211 180.356 78.3099 182.811 73.6875 182.811H68.2188ZM82.0957 179.617C82.0957 177.579 83.5801 176.561 86.5488 176.561C87.2454 176.561 87.9421 176.626 88.6387 176.756V175.984C88.6387 175.066 87.9779 174.607 86.6562 174.607C85.5365 174.607 84.293 174.77 82.9258 175.096V173.045C84.293 172.719 85.5365 172.557 86.6562 172.557C89.7031 172.557 91.2266 173.683 91.2266 175.936V182.811H89.7227L88.8047 181.893C87.9128 182.505 86.9297 182.811 85.8555 182.811C83.349 182.811 82.0957 181.746 82.0957 179.617ZM88.6387 178.514C87.9876 178.383 87.291 178.318 86.5488 178.318C85.3053 178.318 84.6836 178.742 84.6836 179.588C84.6836 180.499 85.2044 180.955 86.2461 180.955C87.1055 180.955 87.903 180.688 88.6387 180.154V178.514ZM93.6777 182.811V172.557H95.6797L96.002 174.061C96.985 173.058 98.1048 172.557 99.3613 172.557C101.79 172.557 103.004 173.82 103.004 176.346V182.811H100.416V176.346C100.416 175.213 99.8529 174.646 98.7266 174.646C97.8867 174.646 97.0664 174.982 96.2656 175.652V182.811H93.6777ZM113.023 182.518C112.177 182.713 111.298 182.811 110.387 182.811C106.741 182.811 104.918 181.036 104.918 177.488C104.918 174.201 106.741 172.557 110.387 172.557C111.298 172.557 112.177 172.654 113.023 172.85V174.9C112.177 174.705 111.363 174.607 110.582 174.607C108.531 174.607 107.506 175.568 107.506 177.488C107.506 179.669 108.531 180.76 110.582 180.76C111.363 180.76 112.177 180.662 113.023 180.467V182.518ZM117.32 168.846V170.896H114.732V168.846H117.32ZM117.32 172.557V182.811H114.732V172.557H117.32ZM119.771 182.811V172.557H121.773L122.096 174.061C123.079 173.058 124.199 172.557 125.455 172.557C127.883 172.557 129.098 173.82 129.098 176.346V182.811H126.51V176.346C126.51 175.213 125.947 174.646 124.82 174.646C123.98 174.646 123.16 174.982 122.359 175.652V182.811H119.771ZM138.111 174.881C137.688 174.725 137.086 174.646 136.305 174.646C134.514 174.646 133.619 175.633 133.619 177.605C133.619 179.513 134.391 180.467 135.934 180.467C136.676 180.467 137.402 180.291 138.111 179.939V174.881ZM140.699 182.029C140.699 185.024 138.899 186.521 135.299 186.521C134.036 186.521 132.916 186.359 131.939 186.033V183.982C132.936 184.308 134.062 184.471 135.318 184.471C137.18 184.471 138.111 183.689 138.111 182.127C137.343 182.452 136.516 182.615 135.631 182.615C132.584 182.615 131.061 180.952 131.061 177.625C131.061 174.246 132.835 172.557 136.383 172.557C137.574 172.557 139.013 172.697 140.699 172.977V182.029Z" fill="white"/>
<path d="M25.25 197.342L23.4727 200.943L19.5 201.518L22.375 204.322L21.6953 208.279L25.25 206.412L28.8047 208.279L28.125 204.322L31 201.521L27.0273 200.943L25.25 197.342Z" fill="#F39B13"/>
<path d="M40.9365 202.082C40.9365 202.561 40.9115 203.039 40.8613 203.518C40.8158 203.992 40.7314 204.445 40.6084 204.878C40.4899 205.311 40.3258 205.716 40.1162 206.095C39.9066 206.468 39.64 206.792 39.3164 207.065C38.9928 207.339 38.6055 207.555 38.1543 207.715C37.7031 207.87 37.1745 207.947 36.5684 207.947C36.4818 207.947 36.3861 207.945 36.2812 207.94C36.1764 207.936 36.0716 207.927 35.9668 207.913C35.862 207.904 35.7594 207.893 35.6592 207.879C35.5589 207.865 35.4701 207.847 35.3926 207.824V206.758C35.5521 206.817 35.7321 206.86 35.9326 206.888C36.1331 206.915 36.3314 206.929 36.5273 206.929C37.1426 206.929 37.6484 206.822 38.0449 206.607C38.4414 206.393 38.7559 206.104 38.9883 205.739C39.2207 205.37 39.3848 204.942 39.4805 204.454C39.5807 203.966 39.6423 203.451 39.665 202.909H39.5762C39.485 203.073 39.3757 203.226 39.248 203.367C39.1204 203.508 38.9701 203.632 38.7969 203.736C38.6237 203.841 38.4277 203.923 38.209 203.982C37.9902 204.042 37.7464 204.071 37.4775 204.071C37.0446 204.071 36.6527 204.005 36.3018 203.873C35.9508 203.736 35.6523 203.538 35.4062 203.278C35.1602 203.019 34.9688 202.702 34.832 202.328C34.6999 201.95 34.6338 201.519 34.6338 201.036C34.6338 200.517 34.7044 200.049 34.8457 199.635C34.9915 199.215 35.1943 198.862 35.4541 198.575C35.7184 198.284 36.0374 198.06 36.4111 197.905C36.7894 197.75 37.2109 197.673 37.6758 197.673C38.1361 197.673 38.5645 197.762 38.9609 197.939C39.3574 198.117 39.7015 198.388 39.9932 198.753C40.2848 199.118 40.515 199.578 40.6836 200.134C40.8522 200.685 40.9365 201.335 40.9365 202.082ZM37.6895 198.726C37.416 198.726 37.1654 198.771 36.9375 198.862C36.7142 198.953 36.5205 199.095 36.3564 199.286C36.1924 199.478 36.0648 199.719 35.9736 200.011C35.887 200.298 35.8438 200.64 35.8438 201.036C35.8438 201.355 35.8802 201.642 35.9531 201.897C36.0306 202.148 36.1445 202.362 36.2949 202.54C36.4453 202.718 36.6322 202.854 36.8555 202.95C37.0833 203.046 37.3477 203.094 37.6484 203.094C37.9583 203.094 38.2386 203.041 38.4893 202.937C38.7399 202.827 38.9541 202.688 39.1318 202.52C39.3096 202.346 39.4463 202.15 39.542 201.932C39.6423 201.713 39.6924 201.494 39.6924 201.275C39.6924 200.97 39.6491 200.667 39.5625 200.366C39.4805 200.061 39.3551 199.787 39.1865 199.546C39.0225 199.3 38.8151 199.102 38.5645 198.951C38.3138 198.801 38.0221 198.726 37.6895 198.726ZM42.625 207.052C42.625 206.879 42.6478 206.733 42.6934 206.614C42.7389 206.491 42.8005 206.393 42.8779 206.32C42.9554 206.243 43.0465 206.188 43.1514 206.156C43.2562 206.12 43.3701 206.102 43.4932 206.102C43.6117 206.102 43.7233 206.12 43.8281 206.156C43.9375 206.188 44.0309 206.243 44.1084 206.32C44.1859 206.393 44.2474 206.491 44.293 206.614C44.3385 206.733 44.3613 206.879 44.3613 207.052C44.3613 207.22 44.3385 207.366 44.293 207.489C44.2474 207.608 44.1859 207.706 44.1084 207.783C44.0309 207.861 43.9375 207.918 43.8281 207.954C43.7233 207.991 43.6117 208.009 43.4932 208.009C43.3701 208.009 43.2562 207.991 43.1514 207.954C43.0465 207.918 42.9554 207.861 42.8779 207.783C42.8005 207.706 42.7389 207.608 42.6934 207.489C42.6478 207.366 42.625 207.22 42.625 207.052ZM52.2705 207.811H46.0361V206.744L48.4287 204.14C48.7705 203.771 49.0758 203.433 49.3447 203.128C49.6136 202.823 49.8415 202.524 50.0283 202.232C50.2197 201.941 50.3656 201.649 50.4658 201.357C50.5661 201.061 50.6162 200.74 50.6162 200.394C50.6162 200.125 50.5775 199.888 50.5 199.683C50.4225 199.478 50.3109 199.304 50.165 199.163C50.0238 199.017 49.8551 198.908 49.6592 198.835C49.4632 198.762 49.2445 198.726 49.0029 198.726C48.57 198.726 48.1781 198.814 47.8271 198.992C47.4808 199.165 47.1504 199.389 46.8359 199.662L46.1387 198.849C46.321 198.685 46.5169 198.532 46.7266 198.391C46.9362 198.245 47.1618 198.119 47.4033 198.015C47.6449 197.91 47.9001 197.828 48.1689 197.769C48.4378 197.705 48.7204 197.673 49.0166 197.673C49.4541 197.673 49.8483 197.734 50.1992 197.857C50.5547 197.98 50.8555 198.158 51.1016 198.391C51.3477 198.618 51.5368 198.899 51.6689 199.231C51.8057 199.56 51.874 199.931 51.874 200.346C51.874 200.733 51.8125 201.102 51.6895 201.453C51.571 201.804 51.4046 202.15 51.1904 202.492C50.9808 202.829 50.7279 203.169 50.4316 203.511C50.14 203.853 49.8232 204.208 49.4814 204.577L47.5605 206.621V206.676H52.2705V207.811Z" fill="white"/>
<path d="M58.1523 198.035V207.811H56.8877V198.035H58.1523ZM60.6885 207.811V198.035H62.2949L65.8838 206.19L69.4043 198.035H70.9424V207.811H69.8145V199.792L66.3418 207.811H65.3438L61.8164 199.792V207.811H60.6885ZM76.8213 206.785C79.2139 206.785 80.4102 205.409 80.4102 202.656C80.4102 200.259 79.2139 199.061 76.8213 199.061H74.5312V206.785H76.8213ZM73.2666 207.811V198.035H76.8213C80.057 198.035 81.6748 199.576 81.6748 202.656C81.6748 206.092 80.057 207.811 76.8213 207.811H73.2666ZM84.6484 206.56C85.0632 206.692 85.5667 206.758 86.1592 206.758C87.7542 206.758 88.5518 205.849 88.5518 204.03C88.5518 202.494 87.8294 201.727 86.3848 201.727C85.7285 201.727 85.1497 201.85 84.6484 202.096V206.56ZM83.3838 198.035H84.6484V200.975C85.1908 200.747 85.7718 200.633 86.3916 200.633C88.6611 200.633 89.7959 201.781 89.7959 204.078C89.7959 206.566 88.6042 207.811 86.2207 207.811C85.1908 207.811 84.2451 207.713 83.3838 207.517V198.035Z" fill="white"/>
<path d="M24.585 231.811H22.4727V226.027C22.4727 225.909 22.4727 225.768 22.4727 225.604C22.4772 225.435 22.4818 225.262 22.4863 225.084C22.4954 224.902 22.5023 224.719 22.5068 224.537C22.516 224.355 22.5228 224.188 22.5273 224.038C22.5046 224.065 22.4658 224.106 22.4111 224.161C22.3564 224.216 22.2949 224.277 22.2266 224.346C22.1582 224.41 22.0876 224.476 22.0146 224.544C21.9417 224.612 21.8711 224.674 21.8027 224.729L20.6543 225.651L19.6289 224.38L22.8486 221.816H24.585V231.811ZM38.0723 231.811H35.9873V227.347C35.9873 226.795 35.9007 226.383 35.7275 226.109C35.5589 225.831 35.2969 225.692 34.9414 225.692C34.6725 225.692 34.4469 225.747 34.2646 225.856C34.0824 225.966 33.9365 226.128 33.8271 226.342C33.7178 226.556 33.6403 226.82 33.5947 227.135C33.5492 227.449 33.5264 227.809 33.5264 228.215V231.811H31.4414V221.174H33.5264V223.341C33.5264 223.532 33.5218 223.735 33.5127 223.949C33.5036 224.159 33.4922 224.353 33.4785 224.53C33.4603 224.74 33.4443 224.945 33.4307 225.146H33.54C33.7633 224.749 34.0482 224.464 34.3945 224.291C34.7409 224.113 35.1328 224.024 35.5703 224.024C35.9486 224.024 36.2904 224.079 36.5957 224.188C36.9056 224.293 37.1699 224.46 37.3887 224.688C37.6074 224.915 37.776 225.207 37.8945 225.562C38.013 225.913 38.0723 226.335 38.0723 226.827V231.811ZM44.2041 224.024C44.2588 224.024 44.318 224.027 44.3818 224.031C44.4502 224.031 44.514 224.036 44.5732 224.045C44.637 224.049 44.694 224.056 44.7441 224.065C44.7988 224.07 44.8398 224.077 44.8672 224.086V226.041C44.8307 226.032 44.7806 226.023 44.7168 226.014C44.653 226.005 44.5846 225.998 44.5117 225.993C44.4434 225.984 44.375 225.979 44.3066 225.979C44.2383 225.975 44.1813 225.973 44.1357 225.973C43.8669 225.973 43.6185 226.007 43.3906 226.075C43.1673 226.144 42.9736 226.255 42.8096 226.41C42.6501 226.561 42.5247 226.761 42.4336 227.012C42.347 227.258 42.3037 227.561 42.3037 227.921V231.811H40.2188V224.168H41.7979L42.1055 225.316H42.208C42.3174 225.12 42.4359 224.943 42.5635 224.783C42.6911 224.624 42.8324 224.489 42.9873 224.38C43.1468 224.266 43.3245 224.179 43.5205 224.12C43.721 224.056 43.9489 224.024 44.2041 224.024ZM56.2627 229.739H55.0596V231.811H53.002V229.739H48.873V228.27L53.1182 221.816H55.0596V228.099H56.2627V229.739ZM53.002 228.099V226.403C53.002 226.344 53.002 226.26 53.002 226.15C53.0065 226.036 53.0111 225.909 53.0156 225.768C53.0202 225.626 53.0247 225.48 53.0293 225.33C53.0384 225.18 53.0452 225.036 53.0498 224.899C53.0589 224.763 53.0658 224.644 53.0703 224.544C53.0794 224.439 53.0863 224.364 53.0908 224.318H53.0293C52.9473 224.51 52.8538 224.713 52.749 224.927C52.6488 225.141 52.5326 225.355 52.4004 225.569L50.7324 228.099H53.002ZM60.4189 221.687C60.8337 221.687 61.2256 221.737 61.5947 221.837C61.9639 221.937 62.2874 222.088 62.5654 222.288C62.8434 222.489 63.0645 222.739 63.2285 223.04C63.3926 223.341 63.4746 223.694 63.4746 224.1C63.4746 224.4 63.429 224.674 63.3379 224.92C63.2467 225.161 63.1214 225.382 62.9619 225.583C62.8024 225.779 62.6133 225.954 62.3945 226.109C62.1758 226.264 61.9388 226.406 61.6836 226.533C61.9479 226.674 62.2054 226.832 62.4561 227.005C62.7113 227.178 62.9368 227.374 63.1328 227.593C63.3288 227.807 63.486 228.049 63.6045 228.317C63.723 228.586 63.7822 228.887 63.7822 229.22C63.7822 229.634 63.7002 230.01 63.5361 230.348C63.3721 230.685 63.1419 230.972 62.8457 231.209C62.5495 231.446 62.194 231.628 61.7793 231.756C61.3691 231.883 60.9157 231.947 60.4189 231.947C59.8812 231.947 59.4027 231.886 58.9834 231.763C58.5641 231.64 58.2109 231.464 57.9238 231.236C57.6367 231.008 57.418 230.728 57.2676 230.396C57.1217 230.063 57.0488 229.689 57.0488 229.274C57.0488 228.933 57.099 228.625 57.1992 228.352C57.2995 228.078 57.4362 227.832 57.6094 227.613C57.7826 227.395 57.9854 227.201 58.2178 227.032C58.4502 226.864 58.6986 226.715 58.9629 226.588C58.7396 226.447 58.5299 226.294 58.334 226.13C58.138 225.961 57.9671 225.777 57.8213 225.576C57.68 225.371 57.5661 225.146 57.4795 224.899C57.3975 224.653 57.3564 224.382 57.3564 224.086C57.3564 223.689 57.4385 223.343 57.6025 223.047C57.7712 222.746 57.9967 222.495 58.2793 222.295C58.5618 222.09 58.8877 221.937 59.2568 221.837C59.626 221.737 60.0133 221.687 60.4189 221.687ZM59.0039 229.151C59.0039 229.334 59.0335 229.502 59.0928 229.657C59.152 229.808 59.2386 229.938 59.3525 230.047C59.471 230.156 59.6169 230.243 59.79 230.307C59.9632 230.366 60.1637 230.396 60.3916 230.396C60.8701 230.396 61.2279 230.284 61.4648 230.061C61.7018 229.833 61.8203 229.534 61.8203 229.165C61.8203 228.974 61.7793 228.803 61.6973 228.652C61.6198 228.497 61.5173 228.356 61.3896 228.229C61.2666 228.096 61.1253 227.976 60.9658 227.866C60.8063 227.757 60.6468 227.652 60.4873 227.552L60.3369 227.456C60.1364 227.556 59.9541 227.666 59.79 227.784C59.626 227.898 59.4847 228.026 59.3662 228.167C59.2523 228.304 59.1634 228.454 59.0996 228.618C59.0358 228.782 59.0039 228.96 59.0039 229.151ZM60.4053 223.231C60.2549 223.231 60.1136 223.254 59.9814 223.3C59.8538 223.345 59.7422 223.411 59.6465 223.498C59.5553 223.585 59.4824 223.692 59.4277 223.819C59.373 223.947 59.3457 224.09 59.3457 224.25C59.3457 224.441 59.373 224.608 59.4277 224.749C59.487 224.886 59.5645 225.009 59.6602 225.118C59.7604 225.223 59.8743 225.319 60.002 225.405C60.1341 225.487 60.2731 225.569 60.4189 225.651C60.5602 225.578 60.6947 225.499 60.8223 225.412C60.9499 225.326 61.0615 225.228 61.1572 225.118C61.2575 225.004 61.3372 224.877 61.3965 224.735C61.4557 224.594 61.4854 224.432 61.4854 224.25C61.4854 224.09 61.458 223.947 61.4033 223.819C61.3486 223.692 61.2734 223.585 61.1777 223.498C61.082 223.411 60.9681 223.345 60.8359 223.3C60.7038 223.254 60.5602 223.231 60.4053 223.231ZM75.5605 231.811H73.4756V227.347C73.4756 226.795 73.3936 226.383 73.2295 226.109C73.0654 225.831 72.8079 225.692 72.457 225.692C72.1927 225.692 71.9717 225.747 71.7939 225.856C71.6208 225.966 71.4818 226.128 71.377 226.342C71.2721 226.556 71.1969 226.82 71.1514 227.135C71.1058 227.449 71.083 227.809 71.083 228.215V231.811H68.998V224.168H70.5908L70.8711 225.146H70.9873C71.0967 224.95 71.2266 224.781 71.377 224.64C71.5319 224.498 71.7005 224.382 71.8828 224.291C72.0651 224.2 72.2588 224.134 72.4639 224.093C72.6689 224.047 72.8763 224.024 73.0859 224.024C73.61 224.024 74.0544 224.116 74.4189 224.298C74.7881 224.476 75.0706 224.758 75.2666 225.146H75.4375C75.5469 224.95 75.679 224.781 75.834 224.64C75.9889 224.498 76.1598 224.382 76.3467 224.291C76.5335 224.2 76.7295 224.134 76.9346 224.093C77.1442 224.047 77.3538 224.024 77.5635 224.024C78.3838 224.024 79.0013 224.248 79.416 224.694C79.8353 225.136 80.0449 225.847 80.0449 226.827V231.811H77.9531V227.347C77.9531 226.795 77.8711 226.383 77.707 226.109C77.543 225.831 77.2855 225.692 76.9346 225.692C76.4378 225.692 76.0846 225.891 75.875 226.287C75.6654 226.679 75.5605 227.242 75.5605 227.976V231.811ZM82.1025 222.192C82.1025 221.996 82.1322 221.835 82.1914 221.707C82.2507 221.575 82.3304 221.47 82.4307 221.393C82.5355 221.311 82.6562 221.254 82.793 221.222C82.9342 221.19 83.0824 221.174 83.2373 221.174C83.3923 221.174 83.5381 221.19 83.6748 221.222C83.8115 221.254 83.93 221.311 84.0303 221.393C84.1351 221.47 84.2171 221.575 84.2764 221.707C84.3402 221.835 84.3721 221.996 84.3721 222.192C84.3721 222.384 84.3402 222.546 84.2764 222.678C84.2171 222.81 84.1351 222.917 84.0303 222.999C83.93 223.076 83.8115 223.133 83.6748 223.17C83.5381 223.202 83.3923 223.218 83.2373 223.218C83.0824 223.218 82.9342 223.202 82.793 223.17C82.6562 223.133 82.5355 223.076 82.4307 222.999C82.3304 222.917 82.2507 222.81 82.1914 222.678C82.1322 222.546 82.1025 222.384 82.1025 222.192ZM84.2764 231.811H82.1914V224.168H84.2764V231.811ZM93.1016 231.811H91.0166V227.347C91.0166 226.795 90.9323 226.383 90.7637 226.109C90.5996 225.831 90.3353 225.692 89.9707 225.692C89.6973 225.692 89.4694 225.747 89.2871 225.856C89.1048 225.966 88.959 226.128 88.8496 226.342C88.7448 226.556 88.6696 226.82 88.624 227.135C88.5785 227.449 88.5557 227.809 88.5557 228.215V231.811H86.4707V224.168H88.0635L88.3438 225.146H88.46C88.5693 224.95 88.7015 224.781 88.8564 224.64C89.016 224.498 89.1891 224.382 89.376 224.291C89.5628 224.2 89.7611 224.134 89.9707 224.093C90.1803 224.047 90.3945 224.024 90.6133 224.024C90.987 224.024 91.3265 224.079 91.6318 224.188C91.9372 224.293 92.1992 224.46 92.418 224.688C92.6367 224.915 92.8053 225.207 92.9238 225.562C93.0423 225.913 93.1016 226.335 93.1016 226.827V231.811Z" fill="white"/>
<path d="M108.585 231.811H106.473V226.027C106.473 225.909 106.473 225.768 106.473 225.604C106.477 225.435 106.482 225.262 106.486 225.084C106.495 224.902 106.502 224.719 106.507 224.537C106.516 224.355 106.523 224.188 106.527 224.038C106.505 224.065 106.466 224.106 106.411 224.161C106.356 224.216 106.295 224.277 106.227 224.346C106.158 224.41 106.088 224.476 106.015 224.544C105.942 224.612 105.871 224.674 105.803 224.729L104.654 225.651L103.629 224.38L106.849 221.816H108.585V231.811ZM117.923 226.082C117.923 226.561 117.896 227.039 117.841 227.518C117.791 227.992 117.697 228.445 117.561 228.878C117.428 229.311 117.246 229.716 117.014 230.095C116.786 230.468 116.494 230.792 116.139 231.065C115.788 231.339 115.364 231.555 114.867 231.715C114.375 231.87 113.796 231.947 113.131 231.947C113.035 231.947 112.93 231.945 112.816 231.94C112.702 231.936 112.586 231.929 112.468 231.92C112.354 231.915 112.242 231.906 112.133 231.893C112.023 231.883 111.928 231.87 111.846 231.852V230.156C112.014 230.202 112.194 230.238 112.386 230.266C112.582 230.288 112.78 230.3 112.98 230.3C113.596 230.3 114.102 230.225 114.498 230.074C114.895 229.919 115.209 229.705 115.441 229.432C115.674 229.154 115.838 228.823 115.934 228.44C116.034 228.058 116.095 227.636 116.118 227.176H116.029C115.938 227.34 115.829 227.493 115.701 227.634C115.574 227.775 115.423 227.898 115.25 228.003C115.077 228.108 114.881 228.19 114.662 228.249C114.443 228.308 114.2 228.338 113.931 228.338C113.498 228.338 113.108 228.267 112.762 228.126C112.415 227.985 112.121 227.78 111.88 227.511C111.643 227.242 111.461 226.911 111.333 226.52C111.205 226.128 111.142 225.679 111.142 225.173C111.142 224.631 111.217 224.145 111.367 223.717C111.522 223.288 111.741 222.926 112.023 222.63C112.306 222.329 112.648 222.099 113.049 221.939C113.454 221.78 113.908 221.7 114.409 221.7C114.901 221.7 115.362 221.789 115.79 221.967C116.218 222.14 116.59 222.407 116.904 222.767C117.219 223.127 117.467 223.582 117.649 224.134C117.832 224.685 117.923 225.335 117.923 226.082ZM114.45 223.396C114.263 223.396 114.092 223.43 113.938 223.498C113.783 223.566 113.648 223.674 113.534 223.819C113.425 223.961 113.338 224.143 113.274 224.366C113.215 224.585 113.186 224.845 113.186 225.146C113.186 225.629 113.288 226.011 113.493 226.294C113.698 226.576 114.008 226.718 114.423 226.718C114.632 226.718 114.824 226.677 114.997 226.595C115.17 226.513 115.318 226.406 115.441 226.273C115.564 226.141 115.658 225.993 115.722 225.829C115.79 225.665 115.824 225.499 115.824 225.33C115.824 225.098 115.795 224.868 115.735 224.64C115.681 224.407 115.594 224.2 115.476 224.018C115.362 223.831 115.218 223.68 115.045 223.566C114.876 223.452 114.678 223.396 114.45 223.396ZM125.634 226.082C125.634 226.561 125.606 227.039 125.552 227.518C125.502 227.992 125.408 228.445 125.271 228.878C125.139 229.311 124.957 229.716 124.725 230.095C124.497 230.468 124.205 230.792 123.85 231.065C123.499 231.339 123.075 231.555 122.578 231.715C122.086 231.87 121.507 231.947 120.842 231.947C120.746 231.947 120.641 231.945 120.527 231.94C120.413 231.936 120.297 231.929 120.179 231.92C120.065 231.915 119.953 231.906 119.844 231.893C119.734 231.883 119.639 231.87 119.557 231.852V230.156C119.725 230.202 119.905 230.238 120.097 230.266C120.293 230.288 120.491 230.3 120.691 230.3C121.307 230.3 121.812 230.225 122.209 230.074C122.605 229.919 122.92 229.705 123.152 229.432C123.385 229.154 123.549 228.823 123.645 228.44C123.745 228.058 123.806 227.636 123.829 227.176H123.74C123.649 227.34 123.54 227.493 123.412 227.634C123.285 227.775 123.134 227.898 122.961 228.003C122.788 228.108 122.592 228.19 122.373 228.249C122.154 228.308 121.91 228.338 121.642 228.338C121.209 228.338 120.819 228.267 120.473 228.126C120.126 227.985 119.832 227.78 119.591 227.511C119.354 227.242 119.172 226.911 119.044 226.52C118.916 226.128 118.853 225.679 118.853 225.173C118.853 224.631 118.928 224.145 119.078 223.717C119.233 223.288 119.452 222.926 119.734 222.63C120.017 222.329 120.359 222.099 120.76 221.939C121.165 221.78 121.619 221.7 122.12 221.7C122.612 221.7 123.073 221.789 123.501 221.967C123.929 222.14 124.301 222.407 124.615 222.767C124.93 223.127 125.178 223.582 125.36 224.134C125.543 224.685 125.634 225.335 125.634 226.082ZM122.161 223.396C121.974 223.396 121.803 223.43 121.648 223.498C121.493 223.566 121.359 223.674 121.245 223.819C121.136 223.961 121.049 224.143 120.985 224.366C120.926 224.585 120.896 224.845 120.896 225.146C120.896 225.629 120.999 226.011 121.204 226.294C121.409 226.576 121.719 226.718 122.134 226.718C122.343 226.718 122.535 226.677 122.708 226.595C122.881 226.513 123.029 226.406 123.152 226.273C123.275 226.141 123.369 225.993 123.433 225.829C123.501 225.665 123.535 225.499 123.535 225.33C123.535 225.098 123.506 224.868 123.446 224.64C123.392 224.407 123.305 224.2 123.187 224.018C123.073 223.831 122.929 223.68 122.756 223.566C122.587 223.452 122.389 223.396 122.161 223.396ZM133.413 226.813C133.413 227.62 133.349 228.34 133.222 228.974C133.099 229.607 132.898 230.145 132.62 230.587C132.347 231.029 131.991 231.366 131.554 231.599C131.121 231.831 130.597 231.947 129.981 231.947C129.403 231.947 128.899 231.831 128.471 231.599C128.042 231.366 127.687 231.029 127.404 230.587C127.122 230.145 126.91 229.607 126.769 228.974C126.632 228.34 126.563 227.62 126.563 226.813C126.563 226.007 126.625 225.285 126.748 224.646C126.876 224.008 127.076 223.468 127.35 223.026C127.623 222.584 127.976 222.247 128.409 222.015C128.842 221.778 129.366 221.659 129.981 221.659C130.556 221.659 131.057 221.775 131.485 222.008C131.914 222.24 132.271 222.577 132.559 223.02C132.846 223.462 133.06 224.002 133.201 224.64C133.342 225.278 133.413 226.002 133.413 226.813ZM128.669 226.813C128.669 227.953 128.767 228.81 128.963 229.384C129.159 229.958 129.498 230.245 129.981 230.245C130.455 230.245 130.795 229.96 131 229.391C131.21 228.821 131.314 227.962 131.314 226.813C131.314 225.67 131.21 224.811 131 224.236C130.795 223.658 130.455 223.368 129.981 223.368C129.74 223.368 129.535 223.441 129.366 223.587C129.202 223.733 129.068 223.949 128.963 224.236C128.858 224.523 128.783 224.883 128.737 225.316C128.692 225.745 128.669 226.244 128.669 226.813Z" fill="white"/>
<path d="M150.939 223.87C150.591 223.87 150.275 223.937 149.992 224.07C149.709 224.201 149.466 224.389 149.265 224.637C149.066 224.884 148.911 225.185 148.801 225.54C148.693 225.895 148.64 226.295 148.64 226.741C148.64 227.2 148.687 227.609 148.781 227.967C148.879 228.322 149.024 228.621 149.216 228.865C149.408 229.109 149.647 229.295 149.934 229.422C150.22 229.549 150.555 229.612 150.939 229.612C151.229 229.612 151.504 229.585 151.765 229.529C152.025 229.471 152.282 229.404 152.536 229.329V230.12C152.409 230.169 152.282 230.213 152.155 230.252C152.028 230.288 151.895 230.317 151.755 230.34C151.618 230.363 151.47 230.379 151.311 230.389C151.154 230.402 150.98 230.408 150.788 230.408C150.254 230.408 149.792 230.32 149.401 230.145C149.011 229.969 148.687 229.72 148.43 229.397C148.176 229.075 147.987 228.688 147.863 228.235C147.74 227.783 147.678 227.282 147.678 226.731C147.678 226.191 147.748 225.696 147.888 225.247C148.031 224.798 148.239 224.412 148.513 224.09C148.789 223.768 149.131 223.517 149.538 223.338C149.945 223.159 150.412 223.069 150.939 223.069C151.291 223.069 151.626 223.105 151.945 223.177C152.264 223.248 152.552 223.353 152.81 223.489L152.429 224.251C152.224 224.147 152.001 224.057 151.76 223.982C151.519 223.908 151.245 223.87 150.939 223.87ZM156.77 223.87C156.421 223.87 156.105 223.937 155.822 224.07C155.539 224.201 155.297 224.389 155.095 224.637C154.896 224.884 154.742 225.185 154.631 225.54C154.523 225.895 154.47 226.295 154.47 226.741C154.47 227.2 154.517 227.609 154.611 227.967C154.709 228.322 154.854 228.621 155.046 228.865C155.238 229.109 155.477 229.295 155.764 229.422C156.05 229.549 156.385 229.612 156.77 229.612C157.059 229.612 157.334 229.585 157.595 229.529C157.855 229.471 158.112 229.404 158.366 229.329V230.12C158.239 230.169 158.112 230.213 157.985 230.252C157.858 230.288 157.725 230.317 157.585 230.34C157.448 230.363 157.3 230.379 157.141 230.389C156.984 230.402 156.81 230.408 156.618 230.408C156.084 230.408 155.622 230.32 155.231 230.145C154.841 229.969 154.517 229.72 154.26 229.397C154.006 229.075 153.817 228.688 153.693 228.235C153.57 227.783 153.508 227.282 153.508 226.731C153.508 226.191 153.578 225.696 153.718 225.247C153.861 224.798 154.069 224.412 154.343 224.09C154.619 223.768 154.961 223.517 155.368 223.338C155.775 223.159 156.242 223.069 156.77 223.069C157.121 223.069 157.456 223.105 157.775 223.177C158.094 223.248 158.382 223.353 158.64 223.489L158.259 224.251C158.054 224.147 157.831 224.057 157.59 223.982C157.349 223.908 157.076 223.87 156.77 223.87Z" fill="white"/>
<path d="M145 220.811H161V218.811H145V220.811ZM163 222.811V230.811H165V222.811H163ZM161 232.811H145V234.811H161V232.811ZM143 230.811V222.811H141V230.811H143ZM145 232.811C143.895 232.811 143 231.915 143 230.811H141C141 233.02 142.791 234.811 145 234.811V232.811ZM163 230.811C163 231.915 162.105 232.811 161 232.811V234.811C163.209 234.811 165 233.02 165 230.811H163ZM161 220.811C162.105 220.811 163 221.706 163 222.811H165C165 220.601 163.209 218.811 161 218.811V220.811ZM145 218.811C142.791 218.811 141 220.601 141 222.811H143C143 221.706 143.895 220.811 145 220.811V218.811Z" fill="white"/>
<path d="M182.297 225.262C182.297 225.558 182.251 225.843 182.16 226.116C182.072 226.39 181.926 226.632 181.721 226.844C181.516 227.052 181.244 227.22 180.905 227.347C180.57 227.47 180.155 227.532 179.66 227.532H178.928V230.311H178.02V223.172H179.787C180.223 223.172 180.599 223.219 180.915 223.313C181.231 223.405 181.491 223.54 181.696 223.719C181.901 223.895 182.053 224.113 182.15 224.373C182.248 224.633 182.297 224.93 182.297 225.262ZM178.928 226.761H179.558C179.86 226.761 180.124 226.735 180.349 226.683C180.576 226.631 180.764 226.548 180.91 226.434C181.06 226.316 181.172 226.167 181.247 225.984C181.322 225.799 181.359 225.574 181.359 225.311C181.359 224.848 181.226 224.507 180.959 224.285C180.692 224.061 180.275 223.948 179.709 223.948H178.928V226.761ZM186.628 226.541H188.991V230.042C188.812 230.101 188.632 230.153 188.449 230.198C188.267 230.244 188.08 230.281 187.888 230.311C187.696 230.343 187.494 230.368 187.282 230.384C187.071 230.4 186.843 230.408 186.599 230.408C186.088 230.408 185.635 230.324 185.241 230.154C184.847 229.982 184.515 229.738 184.245 229.422C183.975 229.103 183.77 228.717 183.63 228.265C183.49 227.809 183.42 227.298 183.42 226.731C183.42 226.172 183.496 225.665 183.649 225.213C183.806 224.76 184.032 224.376 184.328 224.061C184.624 223.742 184.989 223.497 185.422 223.328C185.858 223.156 186.354 223.069 186.911 223.069C187.272 223.069 187.619 223.105 187.951 223.177C188.283 223.248 188.592 223.353 188.879 223.489L188.527 224.28C188.41 224.225 188.283 224.173 188.146 224.124C188.013 224.075 187.875 224.033 187.731 223.997C187.588 223.958 187.44 223.927 187.287 223.904C187.137 223.882 186.988 223.87 186.838 223.87C186.441 223.87 186.089 223.937 185.783 224.07C185.477 224.201 185.22 224.389 185.012 224.637C184.807 224.884 184.65 225.185 184.543 225.54C184.436 225.895 184.382 226.295 184.382 226.741C184.382 227.164 184.426 227.552 184.514 227.903C184.605 228.255 184.748 228.558 184.943 228.812C185.139 229.065 185.391 229.262 185.7 229.402C186.009 229.542 186.382 229.612 186.818 229.612C186.962 229.612 187.092 229.609 187.209 229.603C187.329 229.593 187.44 229.581 187.541 229.568C187.642 229.555 187.736 229.541 187.824 229.524C187.915 229.505 188.003 229.487 188.088 229.471V227.342H186.628V226.541ZM190.114 228.04V227.22H192.536V228.04H190.114ZM196.408 230.311H195.549V225.853C195.549 225.713 195.549 225.563 195.549 225.403C195.552 225.244 195.555 225.086 195.559 224.93C195.565 224.77 195.57 224.619 195.573 224.476C195.58 224.329 195.585 224.201 195.588 224.09C195.533 224.148 195.484 224.199 195.441 224.241C195.399 224.284 195.355 224.324 195.31 224.363C195.267 224.402 195.222 224.445 195.173 224.49C195.124 224.533 195.065 224.583 194.997 224.642L194.274 225.232L193.806 224.632L195.676 223.172H196.408V230.311ZM203.137 224.842C203.137 225.079 203.099 225.296 203.024 225.491C202.95 225.687 202.844 225.856 202.707 225.999C202.574 226.142 202.412 226.261 202.224 226.355C202.035 226.447 201.825 226.512 201.594 226.551V226.58C202.17 226.652 202.608 226.836 202.907 227.132C203.207 227.425 203.356 227.807 203.356 228.279C203.356 228.592 203.303 228.878 203.195 229.139C203.091 229.399 202.932 229.624 202.717 229.812C202.502 230.001 202.23 230.148 201.901 230.252C201.573 230.356 201.184 230.408 200.734 230.408C200.38 230.408 200.044 230.381 199.729 230.325C199.416 230.27 199.121 230.169 198.845 230.022V229.192C199.128 229.342 199.434 229.458 199.763 229.539C200.095 229.62 200.412 229.661 200.715 229.661C201.014 229.661 201.273 229.629 201.491 229.563C201.709 229.498 201.888 229.406 202.028 229.285C202.172 229.165 202.276 229.017 202.341 228.841C202.409 228.665 202.443 228.468 202.443 228.25C202.443 228.029 202.399 227.84 202.312 227.684C202.227 227.524 202.105 227.394 201.945 227.293C201.786 227.189 201.59 227.112 201.359 227.063C201.132 227.015 200.873 226.99 200.583 226.99H199.934V226.253H200.583C200.847 226.253 201.081 226.22 201.286 226.155C201.491 226.09 201.662 225.997 201.799 225.877C201.939 225.757 202.045 225.613 202.116 225.447C202.188 225.281 202.224 225.099 202.224 224.9C202.224 224.731 202.194 224.58 202.136 224.446C202.077 224.313 201.994 224.201 201.887 224.109C201.779 224.015 201.651 223.943 201.501 223.895C201.351 223.846 201.185 223.821 201.003 223.821C200.655 223.821 200.347 223.877 200.08 223.987C199.816 224.095 199.564 224.236 199.323 224.412L198.874 223.802C198.998 223.701 199.134 223.606 199.284 223.519C199.437 223.431 199.603 223.354 199.782 223.289C199.961 223.221 200.152 223.167 200.354 223.128C200.559 223.089 200.775 223.069 201.003 223.069C201.354 223.069 201.662 223.113 201.926 223.201C202.193 223.289 202.416 223.413 202.595 223.572C202.774 223.729 202.909 223.916 203 224.134C203.091 224.349 203.137 224.585 203.137 224.842Z" fill="white"/>
<path d="M175 220.811H206V218.811H175V220.811ZM208 222.811V230.811H210V222.811H208ZM206 232.811H175V234.811H206V232.811ZM173 230.811V222.811H171V230.811H173ZM175 232.811C173.895 232.811 173 231.915 173 230.811H171C171 233.02 172.791 234.811 175 234.811V232.811ZM208 230.811C208 231.915 207.105 232.811 206 232.811V234.811C208.209 234.811 210 233.02 210 230.811H208ZM206 220.811C207.105 220.811 208 221.706 208 222.811H210C210 220.601 208.209 218.811 206 218.811V220.811ZM175 218.811C172.791 218.811 171 220.601 171 222.811H173C173 221.706 173.895 220.811 175 220.811V218.811Z" fill="white"/>
<circle cx="20.5" cy="250.811" r="1.5" fill="#E1E1E1" fill-opacity="0.5"/>
<path d="M28.6318 251.682V255.811H27.3604V245.816H29.7939C31.0062 245.816 31.9017 246.051 32.4805 246.521C33.0592 246.99 33.3486 247.701 33.3486 248.653C33.3486 249.05 33.2917 249.396 33.1777 249.692C33.0684 249.989 32.9202 250.244 32.7334 250.458C32.5511 250.668 32.3415 250.843 32.1045 250.984C31.8675 251.126 31.6237 251.242 31.373 251.333L34.0938 255.811H32.5967L30.1973 251.682H28.6318ZM28.6318 250.602H29.7529C30.1631 250.602 30.5117 250.563 30.7988 250.485C31.0859 250.403 31.3206 250.285 31.5029 250.13C31.6898 249.97 31.8242 249.774 31.9062 249.542C31.9928 249.305 32.0361 249.029 32.0361 248.715C32.0361 248.387 31.9883 248.109 31.8926 247.881C31.8014 247.653 31.6602 247.466 31.4688 247.32C31.2819 247.174 31.0426 247.07 30.751 247.006C30.4639 246.938 30.1221 246.903 29.7256 246.903H28.6318V250.602ZM41.5654 252.044C41.5654 252.668 41.488 253.224 41.333 253.712C41.1826 254.195 40.9639 254.603 40.6768 254.936C40.3942 255.264 40.0501 255.514 39.6445 255.688C39.2389 255.861 38.7832 255.947 38.2773 255.947C37.8079 255.947 37.375 255.861 36.9785 255.688C36.582 255.514 36.238 255.264 35.9463 254.936C35.6592 254.603 35.4336 254.195 35.2695 253.712C35.11 253.224 35.0303 252.668 35.0303 252.044C35.0303 251.424 35.1055 250.875 35.2559 250.396C35.4108 249.913 35.6296 249.508 35.9121 249.18C36.1947 248.847 36.5387 248.596 36.9443 248.428C37.3545 248.255 37.8125 248.168 38.3184 248.168C38.7878 248.168 39.2207 248.255 39.6172 248.428C40.0137 248.596 40.3555 248.847 40.6426 249.18C40.9342 249.508 41.1598 249.913 41.3193 250.396C41.4834 250.875 41.5654 251.424 41.5654 252.044ZM36.3154 252.044C36.3154 252.996 36.4704 253.714 36.7803 254.197C37.0947 254.676 37.6029 254.915 38.3047 254.915C39.0065 254.915 39.5101 254.676 39.8154 254.197C40.1253 253.714 40.2803 252.996 40.2803 252.044C40.2803 251.091 40.123 250.381 39.8086 249.911C39.4987 249.437 38.9928 249.2 38.291 249.2C37.5892 249.2 37.0833 249.437 36.7734 249.911C36.4681 250.381 36.3154 251.091 36.3154 252.044ZM52.5166 255.811V250.978C52.5166 250.385 52.4027 249.941 52.1748 249.645C51.9469 249.348 51.5938 249.2 51.1152 249.2C50.7826 249.2 50.5 249.255 50.2676 249.364C50.0352 249.469 49.8438 249.626 49.6934 249.836C49.5475 250.041 49.4404 250.299 49.3721 250.608C49.3037 250.914 49.2695 251.267 49.2695 251.668V255.811H48.0186V250.978C48.0186 250.385 47.9046 249.941 47.6768 249.645C47.4535 249.348 47.1025 249.2 46.624 249.2C46.2731 249.2 45.9792 249.259 45.7422 249.378C45.5052 249.496 45.3138 249.672 45.168 249.904C45.0267 250.137 44.9242 250.422 44.8604 250.759C44.8011 251.096 44.7715 251.483 44.7715 251.921V255.811H43.5273V248.305H44.5391L44.7168 249.316H44.7852C44.8945 249.12 45.0244 248.952 45.1748 248.811C45.3252 248.665 45.4893 248.544 45.667 248.448C45.8493 248.353 46.0407 248.282 46.2412 248.236C46.4463 248.191 46.6536 248.168 46.8633 248.168C47.4102 248.168 47.8636 248.268 48.2236 248.469C48.5882 248.669 48.8571 248.984 49.0303 249.412H49.085C49.2035 249.198 49.3447 249.013 49.5088 248.858C49.6774 248.703 49.8597 248.576 50.0557 248.476C50.2562 248.371 50.4658 248.293 50.6846 248.243C50.9033 248.193 51.1266 248.168 51.3545 248.168C52.152 248.168 52.7513 248.387 53.1523 248.824C53.5579 249.257 53.7607 249.952 53.7607 250.909V255.811H52.5166ZM60.3096 255.811L60.0566 254.771H60.002C59.8516 254.977 59.7012 255.154 59.5508 255.305C59.4004 255.451 59.2363 255.571 59.0586 255.667C58.8809 255.763 58.6826 255.833 58.4639 255.879C58.2451 255.924 57.9922 255.947 57.7051 255.947C57.3906 255.947 57.1012 255.902 56.8369 255.811C56.5726 255.724 56.3424 255.59 56.1465 255.407C55.9551 255.22 55.8047 254.988 55.6953 254.71C55.5859 254.427 55.5312 254.095 55.5312 253.712C55.5312 252.965 55.7933 252.39 56.3174 251.989C56.846 251.588 57.6481 251.369 58.7236 251.333L59.9814 251.285V250.813C59.9814 250.508 59.9473 250.253 59.8789 250.048C59.8151 249.843 59.7194 249.679 59.5918 249.556C59.4688 249.428 59.3138 249.337 59.127 249.282C58.9447 249.228 58.735 249.2 58.498 249.2C58.1198 249.2 57.7666 249.255 57.4385 249.364C57.1149 249.474 56.8027 249.606 56.502 249.761L56.0645 248.824C56.4017 248.642 56.7777 248.487 57.1924 248.359C57.6071 248.232 58.0423 248.168 58.498 248.168C58.9629 248.168 59.3639 248.216 59.7012 248.312C60.043 248.403 60.3232 248.551 60.542 248.756C60.7653 248.956 60.9316 249.214 61.041 249.528C61.1504 249.843 61.2051 250.223 61.2051 250.67V255.811H60.3096ZM58.0264 254.942C58.3044 254.942 58.5618 254.899 58.7988 254.812C59.0358 254.726 59.2409 254.596 59.4141 254.423C59.5872 254.245 59.7217 254.024 59.8174 253.76C59.9176 253.491 59.9678 253.176 59.9678 252.816V252.14L58.9902 252.188C58.5801 252.206 58.236 252.251 57.958 252.324C57.68 252.397 57.4567 252.5 57.2881 252.632C57.124 252.759 57.0055 252.917 56.9326 253.104C56.8597 253.286 56.8232 253.493 56.8232 253.726C56.8232 254.145 56.9326 254.452 57.1514 254.648C57.3747 254.844 57.6663 254.942 58.0264 254.942ZM68.2051 255.811V250.978C68.2051 250.385 68.0843 249.941 67.8428 249.645C67.6058 249.348 67.2321 249.2 66.7217 249.2C66.3525 249.2 66.0426 249.259 65.792 249.378C65.5413 249.496 65.3385 249.672 65.1836 249.904C65.0332 250.137 64.9238 250.422 64.8555 250.759C64.7917 251.096 64.7598 251.483 64.7598 251.921V255.811H63.5156V248.305H64.5273L64.7051 249.316H64.7734C64.8874 249.12 65.0218 248.952 65.1768 248.811C65.3363 248.665 65.5094 248.544 65.6963 248.448C65.8831 248.353 66.0814 248.282 66.291 248.236C66.5007 248.191 66.7148 248.168 66.9336 248.168C67.7676 248.168 68.3942 248.387 68.8135 248.824C69.2373 249.257 69.4492 249.952 69.4492 250.909V255.811H68.2051ZM74.6309 255.947C74.1706 255.947 73.7399 255.877 73.3389 255.735C72.9378 255.59 72.5892 255.362 72.293 255.052C71.9967 254.737 71.7643 254.339 71.5957 253.855C71.4271 253.368 71.3428 252.782 71.3428 252.099C71.3428 251.383 71.4294 250.777 71.6025 250.28C71.7757 249.779 72.0127 249.373 72.3135 249.063C72.6188 248.749 72.9743 248.521 73.3799 248.38C73.7855 248.239 74.2207 248.168 74.6855 248.168C75.041 248.168 75.3874 248.207 75.7246 248.284C76.0664 248.362 76.3512 248.457 76.5791 248.571L76.21 249.624C76.1051 249.578 75.9889 249.535 75.8613 249.494C75.7337 249.449 75.6016 249.41 75.4648 249.378C75.3281 249.341 75.1937 249.314 75.0615 249.296C74.9294 249.273 74.804 249.262 74.6855 249.262C73.9701 249.262 73.4482 249.492 73.1201 249.952C72.792 250.408 72.6279 251.119 72.6279 252.085C72.6279 253.047 72.792 253.751 73.1201 254.197C73.4528 254.639 73.9564 254.86 74.6309 254.86C75 254.86 75.3327 254.819 75.6289 254.737C75.9297 254.651 76.2031 254.55 76.4492 254.437V255.544C76.2031 255.676 75.9388 255.776 75.6562 255.845C75.3783 255.913 75.0365 255.947 74.6309 255.947ZM81.207 255.947C80.7057 255.947 80.2477 255.863 79.833 255.694C79.4183 255.526 79.0605 255.28 78.7598 254.956C78.4635 254.632 78.2334 254.231 78.0693 253.753C77.9053 253.274 77.8232 252.728 77.8232 252.112C77.8232 251.493 77.8984 250.939 78.0488 250.451C78.1992 249.964 78.4111 249.551 78.6846 249.214C78.958 248.872 79.2839 248.612 79.6621 248.435C80.0449 248.257 80.4665 248.168 80.9268 248.168C81.3779 248.168 81.7835 248.25 82.1436 248.414C82.5036 248.574 82.8089 248.801 83.0596 249.098C83.3102 249.389 83.5016 249.743 83.6338 250.157C83.7705 250.567 83.8389 251.023 83.8389 251.524V252.297H79.1084C79.1312 253.176 79.3158 253.824 79.6621 254.238C80.013 254.653 80.5326 254.86 81.2207 254.86C81.4531 254.86 81.6673 254.849 81.8633 254.826C82.0638 254.803 82.2552 254.771 82.4375 254.73C82.6243 254.685 82.8044 254.63 82.9775 254.566C83.1507 254.498 83.3262 254.423 83.5039 254.341V255.448C83.3216 255.535 83.1416 255.61 82.9639 255.674C82.7907 255.738 82.6107 255.79 82.4238 255.831C82.2415 255.872 82.0501 255.902 81.8496 255.92C81.6536 255.938 81.4395 255.947 81.207 255.947ZM80.8994 249.2C80.3799 249.2 79.9674 249.378 79.6621 249.733C79.3613 250.089 79.1859 250.606 79.1357 251.285H82.499C82.499 250.975 82.4671 250.693 82.4033 250.438C82.3441 250.178 82.2484 249.957 82.1162 249.774C81.9886 249.592 81.8245 249.451 81.624 249.351C81.4235 249.25 81.182 249.2 80.8994 249.2Z" fill="white"/>
<circle cx="96.5" cy="250.811" r="1.5" fill="#E1E1E1" fill-opacity="0.5"/>
<path d="M110.723 250.718C110.723 251.561 110.613 252.301 110.395 252.939C110.176 253.573 109.859 254.104 109.444 254.532C109.03 254.956 108.519 255.275 107.913 255.489C107.312 255.703 106.628 255.811 105.862 255.811H103.36V245.816H106.143C106.84 245.816 107.471 245.921 108.036 246.131C108.601 246.34 109.082 246.653 109.479 247.067C109.875 247.478 110.18 247.988 110.395 248.599C110.613 249.209 110.723 249.916 110.723 250.718ZM109.376 250.759C109.376 250.093 109.301 249.519 109.15 249.036C109 248.549 108.781 248.147 108.494 247.833C108.207 247.519 107.854 247.286 107.435 247.136C107.015 246.981 106.539 246.903 106.006 246.903H104.632V254.717H105.739C106.942 254.717 107.849 254.384 108.46 253.719C109.071 253.053 109.376 252.067 109.376 250.759ZM116.021 248.168C116.153 248.168 116.301 248.175 116.465 248.188C116.629 248.198 116.77 248.214 116.889 248.236L116.725 249.385C116.597 249.362 116.465 249.344 116.328 249.33C116.196 249.312 116.071 249.303 115.952 249.303C115.665 249.303 115.403 249.362 115.166 249.48C114.929 249.594 114.724 249.761 114.551 249.979C114.382 250.194 114.25 250.453 114.154 250.759C114.063 251.06 114.018 251.395 114.018 251.764V255.811H112.773V248.305H113.785L113.936 249.679H113.99C114.104 249.483 114.225 249.294 114.353 249.111C114.485 248.929 114.631 248.77 114.79 248.633C114.954 248.492 115.136 248.38 115.337 248.298C115.537 248.211 115.765 248.168 116.021 248.168ZM122.46 255.811L122.207 254.771H122.152C122.002 254.977 121.852 255.154 121.701 255.305C121.551 255.451 121.387 255.571 121.209 255.667C121.031 255.763 120.833 255.833 120.614 255.879C120.396 255.924 120.143 255.947 119.855 255.947C119.541 255.947 119.252 255.902 118.987 255.811C118.723 255.724 118.493 255.59 118.297 255.407C118.105 255.22 117.955 254.988 117.846 254.71C117.736 254.427 117.682 254.095 117.682 253.712C117.682 252.965 117.944 252.39 118.468 251.989C118.996 251.588 119.799 251.369 120.874 251.333L122.132 251.285V250.813C122.132 250.508 122.098 250.253 122.029 250.048C121.965 249.843 121.87 249.679 121.742 249.556C121.619 249.428 121.464 249.337 121.277 249.282C121.095 249.228 120.885 249.2 120.648 249.2C120.27 249.2 119.917 249.255 119.589 249.364C119.265 249.474 118.953 249.606 118.652 249.761L118.215 248.824C118.552 248.642 118.928 248.487 119.343 248.359C119.757 248.232 120.193 248.168 120.648 248.168C121.113 248.168 121.514 248.216 121.852 248.312C122.193 248.403 122.474 248.551 122.692 248.756C122.916 248.956 123.082 249.214 123.191 249.528C123.301 249.843 123.355 250.223 123.355 250.67V255.811H122.46ZM120.177 254.942C120.455 254.942 120.712 254.899 120.949 254.812C121.186 254.726 121.391 254.596 121.564 254.423C121.738 254.245 121.872 254.024 121.968 253.76C122.068 253.491 122.118 253.176 122.118 252.816V252.14L121.141 252.188C120.73 252.206 120.386 252.251 120.108 252.324C119.83 252.397 119.607 252.5 119.438 252.632C119.274 252.759 119.156 252.917 119.083 253.104C119.01 253.286 118.974 253.493 118.974 253.726C118.974 254.145 119.083 254.452 119.302 254.648C119.525 254.844 119.817 254.942 120.177 254.942ZM134.655 255.811V250.978C134.655 250.385 134.541 249.941 134.313 249.645C134.086 249.348 133.732 249.2 133.254 249.2C132.921 249.2 132.639 249.255 132.406 249.364C132.174 249.469 131.982 249.626 131.832 249.836C131.686 250.041 131.579 250.299 131.511 250.608C131.442 250.914 131.408 251.267 131.408 251.668V255.811H130.157V250.978C130.157 250.385 130.043 249.941 129.815 249.645C129.592 249.348 129.241 249.2 128.763 249.2C128.412 249.2 128.118 249.259 127.881 249.378C127.644 249.496 127.452 249.672 127.307 249.904C127.165 250.137 127.063 250.422 126.999 250.759C126.94 251.096 126.91 251.483 126.91 251.921V255.811H125.666V248.305H126.678L126.855 249.316H126.924C127.033 249.12 127.163 248.952 127.313 248.811C127.464 248.665 127.628 248.544 127.806 248.448C127.988 248.353 128.179 248.282 128.38 248.236C128.585 248.191 128.792 248.168 129.002 248.168C129.549 248.168 130.002 248.268 130.362 248.469C130.727 248.669 130.996 248.984 131.169 249.412H131.224C131.342 249.198 131.483 249.013 131.647 248.858C131.816 248.703 131.998 248.576 132.194 248.476C132.395 248.371 132.604 248.293 132.823 248.243C133.042 248.193 133.265 248.168 133.493 248.168C134.291 248.168 134.89 248.387 135.291 248.824C135.697 249.257 135.899 249.952 135.899 250.909V255.811H134.655ZM142.448 255.811L142.195 254.771H142.141C141.99 254.977 141.84 255.154 141.689 255.305C141.539 255.451 141.375 255.571 141.197 255.667C141.02 255.763 140.821 255.833 140.603 255.879C140.384 255.924 140.131 255.947 139.844 255.947C139.529 255.947 139.24 255.902 138.976 255.811C138.711 255.724 138.481 255.59 138.285 255.407C138.094 255.22 137.943 254.988 137.834 254.71C137.725 254.427 137.67 254.095 137.67 253.712C137.67 252.965 137.932 252.39 138.456 251.989C138.985 251.588 139.787 251.369 140.862 251.333L142.12 251.285V250.813C142.12 250.508 142.086 250.253 142.018 250.048C141.954 249.843 141.858 249.679 141.73 249.556C141.607 249.428 141.452 249.337 141.266 249.282C141.083 249.228 140.874 249.2 140.637 249.2C140.258 249.2 139.905 249.255 139.577 249.364C139.254 249.474 138.941 249.606 138.641 249.761L138.203 248.824C138.54 248.642 138.916 248.487 139.331 248.359C139.746 248.232 140.181 248.168 140.637 248.168C141.102 248.168 141.503 248.216 141.84 248.312C142.182 248.403 142.462 248.551 142.681 248.756C142.904 248.956 143.07 249.214 143.18 249.528C143.289 249.843 143.344 250.223 143.344 250.67V255.811H142.448ZM140.165 254.942C140.443 254.942 140.701 254.899 140.938 254.812C141.174 254.726 141.38 254.596 141.553 254.423C141.726 254.245 141.86 254.024 141.956 253.76C142.056 253.491 142.106 253.176 142.106 252.816V252.14L141.129 252.188C140.719 252.206 140.375 252.251 140.097 252.324C139.819 252.397 139.595 252.5 139.427 252.632C139.263 252.759 139.144 252.917 139.071 253.104C138.998 253.286 138.962 253.493 138.962 253.726C138.962 254.145 139.071 254.452 139.29 254.648C139.513 254.844 139.805 254.942 140.165 254.942Z" fill="white"/>
<path d="M343.4 239.75C347.937 239.75 351.65 243.463 351.65 248C351.65 252.538 347.937 256.25 343.4 256.25C338.862 256.25 335.15 252.538 335.15 248C335.15 243.463 338.862 239.75 343.4 239.75ZM343.4 238.375C338.106 238.375 333.775 242.706 333.775 248C333.775 253.294 338.106 257.625 343.4 257.625C348.694 257.625 353.025 253.294 353.025 248C353.025 242.706 348.694 238.375 343.4 238.375Z" fill="white"/>
<path d="M348.9 247.312H344.087V242.5H342.712V247.312H337.9V248.688H342.712V253.5H344.087V248.688H348.9V247.312Z" fill="white"/>
<path d="M375.667 244.276C375.005 243.608 374.316 243.026 373.598 242.532C372.881 242.037 372.209 241.666 371.582 241.419C370.955 241.172 370.381 241.053 369.859 241.063C369.336 241.073 368.929 241.228 368.636 241.529C368.567 241.596 368.508 241.671 368.459 241.755C368.41 241.838 368.375 241.903 368.354 241.95C368.333 241.997 368.306 242.081 368.271 242.201C368.236 242.321 368.212 242.398 368.198 242.432L364.312 254.703L364.552 254.944C364.28 255.124 364.038 255.335 363.826 255.576C363.613 255.816 363.427 256.013 363.267 256.167C363.107 256.321 362.915 256.428 362.692 256.488C362.644 256.501 362.583 256.547 362.51 256.623C362.436 256.7 362.4 256.769 362.4 256.829C362.4 256.949 362.463 257.049 362.588 257.13C362.713 257.21 362.853 257.25 363.006 257.25C363.201 257.25 363.389 257.175 363.57 257.024C363.751 256.874 363.934 256.682 364.118 256.448C364.303 256.214 364.437 256.06 364.521 255.987C364.702 255.833 364.904 255.686 365.126 255.546L365.398 255.796L377.746 251.776C378.017 251.696 378.226 251.575 378.372 251.415C378.665 251.114 378.816 250.698 378.827 250.167C378.837 249.635 378.721 249.05 378.477 248.412C378.233 247.774 377.869 247.092 377.385 246.367C376.901 245.642 376.328 244.945 375.667 244.276ZM374.539 245.369C375.604 246.412 376.414 247.409 376.967 248.362C377.521 249.314 377.655 249.941 377.37 250.242C377.084 250.543 376.461 250.432 375.5 249.911C374.539 249.39 373.529 248.611 372.47 247.575C371.398 246.532 370.585 245.536 370.031 244.587C369.477 243.638 369.343 243.01 369.629 242.702C369.914 242.401 370.539 242.512 371.504 243.033C372.468 243.554 373.48 244.333 374.539 245.369ZM372.251 249.52C372.759 249.954 373.264 250.335 373.766 250.663C373.772 250.676 373.947 250.99 374.288 251.605L373.41 251.896C372.992 251.141 372.606 250.349 372.251 249.52ZM368.689 244.928C368.842 245.256 369.054 245.653 369.326 246.121C369.549 247.084 369.899 248.126 370.376 249.249C370.853 250.372 371.373 251.425 371.937 252.407L371.07 252.688C370.416 251.525 369.845 250.307 369.357 249.034C368.87 247.76 368.57 246.636 368.459 245.66L368.689 244.928ZM367.477 248.598C367.964 250.095 368.65 251.632 369.535 253.21L368.678 253.5C367.989 252.23 367.445 251.037 367.049 249.921L367.477 248.598ZM366.275 252.257C366.547 252.872 366.836 253.457 367.143 254.012L366.286 254.302C366.188 254.122 366.049 253.844 365.868 253.47L366.275 252.257ZM373.954 238L374.476 239.514L373.128 240.456H374.789L375.301 241.97L375.813 240.456H377.464L376.126 239.514L376.649 238.01L375.301 238.942L373.954 238ZM371.029 238L370.747 239.374L372.178 239.644L372.46 238.271L371.029 238ZM380.441 242.131L381.59 240.978L383.084 241.68L382.311 240.276L383.47 239.143L381.83 239.414L381.057 238L380.827 239.584L379.187 239.855L380.681 240.547L380.441 242.131ZM380.054 244.597L381.444 245.479L381.005 247.023L382.3 246.021L383.679 246.903L383.105 245.399L384.4 244.417L382.739 244.487L382.154 242.993L381.726 244.527L380.054 244.597ZM379.459 240.877L376.346 243.324L376.732 243.775L379.845 241.329L379.459 240.877ZM380.545 245.61L378.111 245.399L378.049 245.981L380.493 246.191L380.545 245.61ZM380.785 248.417L380.336 249.761L381.726 250.192L382.185 248.858L380.785 248.417Z" fill="white"/>
<path d="M403.15 243.833C403.656 243.833 404.067 243.423 404.067 242.917C404.067 242.41 403.656 242 403.15 242C402.644 242 402.233 242.41 402.233 242.917C402.233 243.423 402.644 243.833 403.15 243.833Z" fill="white"/>
<path d="M405.747 251.41H404.219V245.055H401.928C401.725 245.055 401.531 245.138 401.388 245.287C401.244 245.436 401.164 245.638 401.164 245.849C401.164 246.06 401.244 246.262 401.388 246.411C401.531 246.56 401.725 246.644 401.928 246.644H402.692V251.41H401.164C400.961 251.41 400.767 251.494 400.624 251.643C400.48 251.792 400.4 251.994 400.4 252.205C400.4 252.415 400.48 252.617 400.624 252.766C400.767 252.915 400.961 252.999 401.164 252.999H405.747C405.95 252.999 406.144 252.915 406.287 252.766C406.431 252.617 406.511 252.415 406.511 252.205C406.511 251.994 406.431 251.792 406.287 251.643C406.144 251.494 405.95 251.41 405.747 251.41Z" fill="white"/>
<path d="M403.025 238C401.121 238 399.26 238.564 397.678 239.622C396.095 240.68 394.861 242.183 394.133 243.942C393.404 245.7 393.213 247.636 393.585 249.503C393.956 251.37 394.873 253.085 396.219 254.431C397.565 255.777 399.28 256.694 401.147 257.065C403.014 257.436 404.949 257.246 406.708 256.517C408.467 255.789 409.97 254.555 411.028 252.972C412.085 251.39 412.65 249.529 412.65 247.625C412.65 245.072 411.636 242.624 409.831 240.819C408.026 239.014 405.578 238 403.025 238ZM403.025 255.646C401.439 255.646 399.888 255.175 398.569 254.294C397.25 253.413 396.222 252.16 395.615 250.694C395.008 249.229 394.849 247.616 395.158 246.06C395.468 244.504 396.232 243.075 397.353 241.953C398.475 240.832 399.904 240.068 401.46 239.758C403.016 239.449 404.629 239.608 406.094 240.215C407.56 240.822 408.813 241.85 409.694 243.169C410.575 244.488 411.046 246.039 411.046 247.625C411.046 248.678 410.838 249.721 410.435 250.694C410.032 251.668 409.441 252.552 408.696 253.297C407.952 254.041 407.067 254.632 406.094 255.035C405.121 255.438 404.078 255.646 403.025 255.646Z" fill="white"/>
<path d="M438.213 250.75C437.698 250.753 437.191 250.871 436.728 251.096C436.265 251.321 435.858 251.647 435.538 252.05L430.513 248.908C430.696 248.317 430.696 247.684 430.513 247.093L435.538 243.951C436.048 244.582 436.766 245.013 437.563 245.167C438.36 245.32 439.186 245.186 439.894 244.789C440.602 244.392 441.147 243.757 441.432 242.997C441.716 242.237 441.723 241.4 441.45 240.636C441.177 239.871 440.642 239.228 439.941 238.819C439.239 238.411 438.415 238.265 437.616 238.406C436.816 238.547 436.092 238.966 435.572 239.59C435.052 240.213 434.77 241.001 434.775 241.813C434.778 242.12 434.825 242.426 434.913 242.72L429.887 245.862C429.443 245.303 428.837 244.897 428.152 244.698C427.467 244.5 426.737 244.52 426.063 244.754C425.39 244.989 424.806 245.428 424.393 246.01C423.98 246.591 423.758 247.287 423.758 248C423.758 248.713 423.98 249.409 424.393 249.991C424.806 250.572 425.39 251.011 426.063 251.246C426.737 251.481 427.467 251.5 428.152 251.302C428.837 251.103 429.443 250.697 429.887 250.138L434.913 253.28C434.825 253.575 434.778 253.88 434.775 254.188C434.775 254.868 434.977 255.532 435.355 256.097C435.732 256.663 436.269 257.103 436.897 257.363C437.525 257.624 438.216 257.692 438.883 257.559C439.55 257.426 440.163 257.099 440.643 256.618C441.124 256.138 441.451 255.525 441.584 254.858C441.717 254.191 441.649 253.5 441.389 252.872C441.128 252.244 440.688 251.707 440.122 251.329C439.557 250.952 438.893 250.75 438.213 250.75ZM438.213 239.75C438.621 239.75 439.019 239.871 439.359 240.098C439.698 240.324 439.962 240.646 440.118 241.023C440.274 241.4 440.315 241.815 440.236 242.215C440.156 242.615 439.96 242.983 439.671 243.271C439.383 243.559 439.015 243.756 438.615 243.836C438.215 243.915 437.8 243.874 437.423 243.718C437.047 243.562 436.724 243.298 436.498 242.959C436.271 242.619 436.15 242.221 436.15 241.813C436.15 241.266 436.367 240.741 436.754 240.354C437.141 239.967 437.666 239.75 438.213 239.75ZM427.213 250.063C426.805 250.063 426.406 249.942 426.067 249.715C425.728 249.488 425.463 249.166 425.307 248.789C425.151 248.413 425.11 247.998 425.19 247.598C425.269 247.198 425.466 246.83 425.754 246.542C426.043 246.253 426.41 246.057 426.81 245.977C427.21 245.898 427.625 245.939 428.002 246.095C428.379 246.251 428.701 246.515 428.928 246.854C429.154 247.193 429.275 247.592 429.275 248C429.275 248.547 429.058 249.072 428.671 249.459C428.284 249.845 427.76 250.063 427.213 250.063ZM438.213 256.25C437.805 256.25 437.406 256.129 437.067 255.903C436.728 255.676 436.463 255.354 436.307 254.977C436.151 254.6 436.11 254.185 436.19 253.785C436.269 253.385 436.466 253.018 436.754 252.729C437.043 252.441 437.41 252.244 437.81 252.165C438.21 252.085 438.625 252.126 439.002 252.282C439.379 252.438 439.701 252.703 439.928 253.042C440.154 253.381 440.275 253.78 440.275 254.188C440.275 254.735 440.058 255.259 439.671 255.646C439.284 256.033 438.76 256.25 438.213 256.25Z" fill="white"/>
<path d="M469.816 238.834H458.147C457.503 238.834 456.88 239.06 456.386 239.472C455.892 239.884 455.558 240.456 455.442 241.089L454.278 247.506C454.206 247.902 454.221 248.31 454.324 248.699C454.426 249.089 454.613 249.452 454.871 249.761C455.129 250.071 455.452 250.32 455.816 250.491C456.181 250.662 456.579 250.751 456.982 250.751H461.162L460.649 252.061C460.436 252.635 460.364 253.253 460.442 253.86C460.519 254.468 460.743 255.047 461.093 255.549C461.444 256.051 461.911 256.461 462.455 256.743C462.999 257.024 463.602 257.17 464.215 257.167C464.391 257.167 464.564 257.116 464.712 257.02C464.86 256.924 464.977 256.787 465.049 256.626L467.662 250.751H469.816C470.545 250.751 471.245 250.461 471.76 249.945C472.276 249.429 472.566 248.73 472.566 248.001V241.584C472.566 240.855 472.276 240.155 471.76 239.639C471.245 239.124 470.545 238.834 469.816 238.834ZM466.149 249.641L463.656 255.251C463.401 255.174 463.164 255.046 462.96 254.874C462.757 254.701 462.591 254.49 462.472 254.251C462.354 254.012 462.285 253.752 462.271 253.485C462.257 253.219 462.298 252.953 462.391 252.703L462.877 251.392C462.98 251.115 463.015 250.817 462.978 250.524C462.942 250.23 462.835 249.95 462.666 249.707C462.498 249.464 462.273 249.265 462.011 249.127C461.749 248.99 461.458 248.918 461.162 248.917H456.982C456.848 248.918 456.715 248.888 456.593 248.831C456.471 248.774 456.363 248.691 456.277 248.587C456.188 248.485 456.124 248.365 456.087 248.235C456.051 248.105 456.043 247.969 456.066 247.836L457.23 241.419C457.269 241.205 457.382 241.013 457.55 240.875C457.718 240.737 457.929 240.664 458.147 240.667H466.149V249.641ZM470.732 248.001C470.732 248.244 470.636 248.477 470.464 248.649C470.292 248.821 470.059 248.917 469.816 248.917H467.982V240.667H469.816C470.059 240.667 470.292 240.764 470.464 240.936C470.636 241.108 470.732 241.341 470.732 241.584V248.001Z" fill="white"/>
</g>
<path d="M247 117C251.747 117 256.387 118.408 260.334 121.045C264.28 123.682 267.357 127.43 269.173 131.816C270.99 136.201 271.465 141.027 270.539 145.682C269.613 150.338 267.327 154.614 263.971 157.971C260.614 161.327 256.338 163.613 251.682 164.539C247.027 165.465 242.201 164.99 237.816 163.173C233.43 161.357 229.682 158.28 227.045 154.334C224.408 150.387 223 145.747 223 141C223 134.635 225.529 128.53 230.029 124.029C234.53 119.529 240.635 117 247 117ZM247 113C241.462 113 236.049 114.642 231.444 117.719C226.839 120.796 223.251 125.169 221.131 130.285C219.012 135.401 218.458 141.031 219.538 146.463C220.618 151.894 223.285 156.883 227.201 160.799C231.117 164.715 236.106 167.382 241.537 168.462C246.969 169.542 252.599 168.988 257.715 166.869C262.831 164.749 267.204 161.161 270.281 156.556C273.358 151.951 275 146.538 275 141C275 133.574 272.05 126.452 266.799 121.201C261.548 115.95 254.426 113 247 113Z" fill="white" fill-opacity="0.6"/>
<path d="M239 155C238.641 155 238.289 154.903 237.98 154.72C237.681 154.543 237.434 154.291 237.262 153.989C237.09 153.688 237 153.347 237 153V129C237 128.653 237.09 128.311 237.262 128.01C237.434 127.708 237.681 127.457 237.98 127.28C238.284 127.104 238.629 127.012 238.98 127.012C239.331 127.012 239.676 127.104 239.98 127.28L261.98 139.28C262.298 139.451 262.563 139.705 262.748 140.015C262.932 140.325 263.03 140.679 263.03 141.04C263.03 141.4 262.932 141.755 262.748 142.064C262.563 142.374 262.298 142.628 261.98 142.8L239.98 154.8C239.676 154.948 239.338 155.017 239 155ZM241 132.36V149.64L256.82 141L241 132.36Z" fill="white" fill-opacity="0.6"/>
<path d="M20 31C20 24.9249 24.9249 20 31 20H53C59.0751 20 64 24.9249 64 31C64 37.0751 59.0751 42 53 42H31C24.9249 42 20 37.0751 20 31Z" fill="white" fill-opacity="0.8"/>
<path fill-rule="evenodd" clip-rule="evenodd" d="M27 27.7191V36H28.3736C28.4165 36 28.5195 35.9753 28.5882 35.8764V33.2397C30.1335 34.3109 32.8807 33.7753 32.8807 30.5206C32.8807 27.5131 30.2193 26.8127 28.4165 28.2135C28.4022 28.0762 28.3221 27.785 28.116 27.7191H27ZM30.6915 29.1199C29.9704 28.4936 28.9888 28.8589 28.5882 29.1199V32.0861C29.6871 32.8112 30.4483 32.3883 30.6915 32.0861C31.0006 31.9543 31.0778 30.9875 31.0778 30.5206C31.1122 29.7955 30.8346 29.2846 30.6915 29.1199Z" fill="#00A8E1"/>
<path d="M34.0396 33.4457V27.8839C34.0396 27.829 34.074 27.7109 34.2113 27.6779H35.2844C35.3417 27.6367 35.499 27.7356 35.6707 28.4607C35.6851 28.5019 35.7308 28.5678 35.7995 28.5019C35.8854 28.4195 36.7009 27.5543 37.5594 27.6367C37.9028 27.6367 37.9887 27.774 37.9887 27.8427V28.9963C37.9744 29.0649 37.9114 29.2022 37.774 29.2022C36.5722 29.1363 35.9569 29.3396 35.7995 29.4494V33.4457C35.7995 33.4869 35.7738 33.5775 35.6707 33.6105H34.1684C34.1255 33.6105 34.0396 33.5775 34.0396 33.4457Z" fill="#00A8E1"/>
<path d="M39.0189 27.6779H40.3066C40.3781 27.6916 40.5212 27.7521 40.5212 27.8839V33.4457C40.5069 33.4869 40.4525 33.5775 40.3495 33.6105H38.9759C38.9187 33.5968 38.7956 33.5446 38.7613 33.4457L38.8042 27.8839C38.8042 27.829 38.8472 27.7109 39.0189 27.6779Z" fill="#00A8E1"/>
<path d="M39.3622 26.7303C39.491 26.7441 39.7915 26.7633 39.9632 26.7303C40.1349 26.6974 40.3209 26.5793 40.3924 26.5243C40.5641 26.3596 40.65 26.1124 40.65 25.8652C40.65 25.5356 40.5641 25.412 40.4354 25.2472C40.3495 25.1785 40.1778 25 39.9632 25H39.3622C39.2049 25.0412 38.8643 25.1483 38.7613 25.412C38.6583 25.6757 38.6755 25.7553 38.6755 25.9064C38.6755 26.0574 38.7579 26.3563 38.933 26.5243C39.1081 26.6924 39.2907 26.7166 39.3622 26.7303Z" fill="#00A8E1"/>
<path d="M43.6547 28.2547C43.6118 28.0899 43.4916 27.7521 43.3542 27.7191C43.2169 27.6861 42.5244 27.7054 42.1953 27.7191C42.138 27.7191 42.0236 27.7521 42.0236 27.8839V33.4457C42.0379 33.4869 42.0922 33.5775 42.1953 33.6105C42.2983 33.6434 43.1539 33.6242 43.5688 33.6105C43.6261 33.5968 43.7577 33.5446 43.8264 33.4457L43.7835 29.161C44.0267 29.0237 44.6248 28.7655 45.0712 28.8315C45.6292 28.8727 45.8009 29.1336 45.8438 29.2846L45.8868 33.4457C45.9011 33.5006 45.9554 33.6105 46.0585 33.6105H47.475C47.5179 33.5968 47.6123 33.5446 47.6467 33.4457V29.161C47.847 29.01 48.3764 28.7243 48.8915 28.7903C49.4066 28.8562 49.6212 29.1748 49.6641 29.3258V33.3633C49.6641 33.432 49.6985 33.5775 49.8358 33.6105H51.3382C51.3811 33.583 51.467 33.4951 51.467 33.3633V29.0787C51.4383 28.5705 51.0549 27.5461 49.75 27.5131C48.4451 27.4801 47.661 27.9938 47.4321 28.2547C47.2747 28.0075 46.7453 27.5131 45.8868 27.5131C45.0283 27.5131 44.041 28.0075 43.6547 28.2547Z" fill="#00A8E1"/>
<path fill-rule="evenodd" clip-rule="evenodd" d="M54.1283 31.0974C54.071 31.8252 54.6605 33.0831 57.4764 32.2921C57.6481 32.2262 57.691 32.4569 57.691 32.5805V33.1985C57.5336 33.4045 56.9098 33.8165 55.6735 33.8165C53.2698 33.8165 52.583 32.2235 52.5401 31.427C52.3827 30.7678 52.3598 29.194 53.5273 28.1723C55.1756 26.9858 56.8182 27.6779 57.4335 28.1723C57.8198 28.5156 58.395 29.4494 57.6052 30.4382C56.8153 31.427 54.9581 31.2896 54.1283 31.0974ZM55.4589 28.7079C54.3944 28.7079 54.1283 29.6417 54.1283 30.1086C54.4574 30.1498 55.21 30.224 55.5877 30.191C55.9654 30.1581 56.203 29.9301 56.2745 29.8202C56.4462 29.4494 56.5235 28.7079 55.4589 28.7079Z" fill="#00A8E1"/>
<path fill-rule="evenodd" clip-rule="evenodd" d="M27 27.7191V36H28.3736C28.4165 36 28.5195 35.9753 28.5882 35.8764V33.2397C30.1335 34.3109 32.8807 33.7753 32.8807 30.5206C32.8807 27.5131 30.2193 26.8127 28.4165 28.2135C28.4022 28.0762 28.3221 27.785 28.116 27.7191H27ZM30.6915 29.1199C29.9704 28.4936 28.9888 28.8589 28.5882 29.1199V32.0861C29.6871 32.8112 30.4483 32.3883 30.6915 32.0861C31.0006 31.9543 31.0778 30.9875 31.0778 30.5206C31.1122 29.7955 30.8346 29.2846 30.6915 29.1199Z" fill="#00A8E1"/>
<defs>
<linearGradient id="paint0_linear" x1="92.75" y1="81.1765" x2="52.8637" y2="38.8258" gradientUnits="userSpaceOnUse">
<stop stop-color="#1B1B1B"/>
<stop offset="1" stop-color="#1B1B1B" stop-opacity="0"/>
</linearGradient>
<linearGradient id="paint1_linear" x1="16.9914" y1="224.27" x2="184.124" y2="224.938" gradientUnits="userSpaceOnUse">
<stop stop-opacity="0"/>
<stop stop-opacity="0"/>
<stop offset="1"/>
</linearGradient>
<clipPath id="clip0">
<rect width="219" height="494" fill="white" transform="translate(494 64) rotate(90)"/>
</clipPath>
<clipPath id="clip1">
<rect width="60.0157" height="15.1496" fill="white" transform="translate(25.9922 139.33)"/>
</clipPath>
</defs>
</svg>
