<svg width="494" height="283" viewBox="0 0 494 283" fill="none" xmlns="http://www.w3.org/2000/svg">
<rect width="106" height="90" transform="translate(404 106) rotate(-90)" fill="url(#paint0_linear)"/>
<path d="M454.822 21.6639C455.814 21.4569 458.507 21.1317 459.262 21.7526C459.706 22.1178 459.262 24.0585 458.285 26.4088C458.241 26.5861 458.25 26.8966 458.641 26.7192C459.129 26.4975 461.127 23.9255 460.994 20.7326C460.905 20.3779 460.579 20.2659 460.505 20.2449C459.262 19.8901 456.732 19.7127 454.689 21.2204C454.547 21.5042 454.719 21.6343 454.822 21.6639Z" fill="white"/>
<path d="M427.03 20.8213C426.971 20.6735 426.959 20.3779 427.385 20.3779C432.624 23.5707 443.501 28.5373 457.486 22.4177C458.285 22.2404 458.378 23.0726 457.93 23.3933C446.165 31.8188 432.668 27.1183 427.03 20.8213Z" fill="white"/>
<path d="M432.019 35.3662C432.019 35.9163 431.952 36.4176 431.818 36.8701C431.688 37.3226 431.493 37.71 431.232 38.0322C430.972 38.3545 430.648 38.6035 430.261 38.7793C429.877 38.9551 429.432 39.043 428.928 39.043C428.397 39.043 427.937 38.9551 427.546 38.7793C427.159 38.6035 426.836 38.3545 426.579 38.0322C426.325 37.71 426.136 37.3226 426.013 36.8701C425.889 36.4144 425.827 35.9098 425.827 35.3564C425.827 34.8031 425.889 34.3018 426.013 33.8525C426.136 33.4001 426.327 33.0143 426.584 32.6953C426.841 32.3763 427.165 32.1305 427.556 31.958C427.946 31.7822 428.407 31.6943 428.938 31.6943C429.442 31.6943 429.885 31.7822 430.266 31.958C430.65 32.1305 430.972 32.3779 431.232 32.7002C431.493 33.0192 431.688 33.4049 431.818 33.8574C431.952 34.3066 432.019 34.8096 432.019 35.3662ZM426.789 35.3662C426.789 35.8122 426.831 36.2142 426.916 36.5723C427.001 36.9271 427.129 37.2298 427.302 37.4805C427.478 37.7279 427.699 37.9183 427.966 38.0518C428.236 38.182 428.557 38.2471 428.928 38.2471C429.299 38.2471 429.618 38.182 429.885 38.0518C430.155 37.9183 430.376 37.7279 430.549 37.4805C430.725 37.2298 430.853 36.9271 430.935 36.5723C431.016 36.2142 431.057 35.8122 431.057 35.3662C431.057 34.917 431.016 34.515 430.935 34.1602C430.853 33.8053 430.726 33.5059 430.554 33.2617C430.381 33.0143 430.161 32.8255 429.895 32.6953C429.628 32.5618 429.309 32.4951 428.938 32.4951C428.566 32.4951 428.246 32.5618 427.976 32.6953C427.705 32.8255 427.482 33.0143 427.307 33.2617C427.131 33.5059 427.001 33.8053 426.916 34.1602C426.831 34.515 426.789 34.917 426.789 35.3662ZM435.808 33.4863C435.902 33.4863 436.008 33.4912 436.125 33.501C436.242 33.5075 436.343 33.5189 436.428 33.5352L436.311 34.3555C436.219 34.3392 436.125 34.3262 436.027 34.3164C435.933 34.3034 435.843 34.2969 435.759 34.2969C435.554 34.2969 435.367 34.3392 435.197 34.4238C435.028 34.5052 434.882 34.624 434.758 34.7803C434.637 34.9333 434.543 35.1188 434.475 35.3369C434.41 35.5518 434.377 35.791 434.377 36.0547V38.9453H433.488V33.584H434.211L434.318 34.5654H434.357C434.439 34.4255 434.525 34.2904 434.616 34.1602C434.711 34.0299 434.815 33.916 434.929 33.8184C435.046 33.7174 435.176 33.6377 435.319 33.5791C435.463 33.5173 435.625 33.4863 435.808 33.4863ZM438.371 38.9453H437.482V33.584H438.371V38.9453ZM437.414 32.1338C437.414 31.9385 437.463 31.7969 437.561 31.709C437.661 31.6211 437.785 31.5771 437.932 31.5771C438.003 31.5771 438.07 31.5885 438.132 31.6113C438.197 31.6309 438.252 31.6634 438.298 31.709C438.347 31.7546 438.384 31.8132 438.41 31.8848C438.439 31.9531 438.454 32.0361 438.454 32.1338C438.454 32.3226 438.402 32.4642 438.298 32.5586C438.197 32.6497 438.075 32.6953 437.932 32.6953C437.785 32.6953 437.661 32.6497 437.561 32.5586C437.463 32.4674 437.414 32.3258 437.414 32.1338ZM444.201 33.584V34.1357L443.239 34.2676C443.33 34.3815 443.407 34.528 443.469 34.707C443.531 34.8828 443.562 35.083 443.562 35.3076C443.562 35.555 443.522 35.7845 443.444 35.9961C443.369 36.2044 443.254 36.3851 443.098 36.5381C442.945 36.6911 442.754 36.8115 442.526 36.8994C442.299 36.984 442.033 37.0264 441.73 37.0264C441.659 37.0264 441.587 37.0264 441.516 37.0264C441.444 37.0231 441.385 37.0166 441.34 37.0068C441.285 37.0394 441.229 37.0768 441.174 37.1191C441.122 37.1582 441.073 37.2038 441.027 37.2559C440.985 37.3079 440.949 37.3665 440.92 37.4316C440.894 37.4967 440.881 37.5684 440.881 37.6465C440.881 37.7344 440.9 37.806 440.939 37.8613C440.979 37.9134 441.031 37.9541 441.096 37.9834C441.164 38.0127 441.244 38.0322 441.335 38.042C441.426 38.0518 441.522 38.0566 441.623 38.0566H442.482C442.785 38.0566 443.041 38.0957 443.249 38.1738C443.457 38.2487 443.627 38.3512 443.757 38.4814C443.89 38.6117 443.986 38.7663 444.045 38.9453C444.104 39.1211 444.133 39.3083 444.133 39.5068C444.133 39.7933 444.079 40.0505 443.972 40.2783C443.868 40.5062 443.706 40.6982 443.488 40.8545C443.27 41.014 442.993 41.1361 442.658 41.2207C442.326 41.3053 441.934 41.3477 441.481 41.3477C441.133 41.3477 440.829 41.3135 440.568 41.2451C440.308 41.1768 440.091 41.0775 439.919 40.9473C439.746 40.8171 439.616 40.6592 439.528 40.4736C439.444 40.2913 439.401 40.0846 439.401 39.8535C439.401 39.6582 439.432 39.4857 439.494 39.3359C439.559 39.1895 439.646 39.0625 439.753 38.9551C439.86 38.8477 439.984 38.7598 440.124 38.6914C440.267 38.623 440.415 38.571 440.568 38.5352C440.432 38.4733 440.319 38.3757 440.231 38.2422C440.144 38.1087 440.1 37.9557 440.1 37.7832C440.1 37.5846 440.152 37.4137 440.256 37.2705C440.36 37.124 440.524 36.9824 440.749 36.8457C440.609 36.7871 440.48 36.7074 440.363 36.6064C440.249 36.5023 440.152 36.3851 440.07 36.2549C439.992 36.1214 439.93 35.9766 439.885 35.8203C439.842 35.6641 439.821 35.5029 439.821 35.3369C439.821 35.0472 439.862 34.7884 439.943 34.5605C440.025 34.3327 440.145 34.139 440.305 33.9795C440.464 33.82 440.663 33.6979 440.9 33.6133C441.138 33.5286 441.415 33.4863 441.73 33.4863C441.851 33.4863 441.975 33.4961 442.102 33.5156C442.232 33.5319 442.341 33.5547 442.429 33.584H444.201ZM440.241 39.8242C440.241 39.9447 440.262 40.057 440.305 40.1611C440.347 40.2653 440.415 40.3548 440.51 40.4297C440.607 40.5046 440.734 40.5632 440.891 40.6055C441.05 40.651 441.247 40.6738 441.481 40.6738C442.087 40.6738 442.539 40.5794 442.839 40.3906C443.142 40.2051 443.293 39.9365 443.293 39.585C443.293 39.4352 443.273 39.3132 443.234 39.2188C443.195 39.1243 443.13 39.0495 443.039 38.9941C442.951 38.9421 442.834 38.9062 442.688 38.8867C442.541 38.8672 442.362 38.8574 442.15 38.8574H441.291C441.177 38.8574 441.058 38.8704 440.935 38.8965C440.811 38.9225 440.697 38.9714 440.593 39.043C440.492 39.1146 440.407 39.2122 440.339 39.3359C440.274 39.4629 440.241 39.6257 440.241 39.8242ZM440.69 35.3076C440.69 35.682 440.778 35.9603 440.954 36.1426C441.13 36.3249 441.379 36.416 441.701 36.416C442.027 36.416 442.272 36.3265 442.438 36.1475C442.608 35.9652 442.692 35.6803 442.692 35.293C442.692 34.8926 442.606 34.598 442.434 34.4092C442.264 34.2204 442.017 34.126 441.691 34.126C441.369 34.126 441.122 34.2236 440.949 34.4189C440.777 34.6143 440.69 34.9105 440.69 35.3076ZM446.145 38.9453H445.256V33.584H446.145V38.9453ZM445.188 32.1338C445.188 31.9385 445.236 31.7969 445.334 31.709C445.435 31.6211 445.559 31.5771 445.705 31.5771C445.777 31.5771 445.843 31.5885 445.905 31.6113C445.97 31.6309 446.026 31.6634 446.071 31.709C446.12 31.7546 446.158 31.8132 446.184 31.8848C446.213 31.9531 446.228 32.0361 446.228 32.1338C446.228 32.3226 446.175 32.4642 446.071 32.5586C445.97 32.6497 445.848 32.6953 445.705 32.6953C445.559 32.6953 445.435 32.6497 445.334 32.5586C445.236 32.4674 445.188 32.3258 445.188 32.1338ZM451.193 38.9453V35.4932C451.193 35.07 451.107 34.7526 450.935 34.541C450.765 34.3294 450.498 34.2236 450.134 34.2236C449.87 34.2236 449.649 34.266 449.47 34.3506C449.291 34.4352 449.146 34.5605 449.035 34.7266C448.928 34.8926 448.85 35.096 448.801 35.3369C448.755 35.5778 448.732 35.8545 448.732 36.167V38.9453H447.844V33.584H448.566L448.693 34.3066H448.742C448.824 34.1667 448.92 34.0462 449.03 33.9453C449.144 33.8411 449.268 33.7549 449.401 33.6865C449.535 33.6182 449.676 33.5677 449.826 33.5352C449.976 33.5026 450.129 33.4863 450.285 33.4863C450.881 33.4863 451.328 33.6426 451.628 33.9551C451.931 34.2643 452.082 34.7607 452.082 35.4443V38.9453H451.193ZM456.755 38.9453L456.574 38.2031H456.535C456.428 38.3496 456.32 38.4766 456.213 38.584C456.105 38.6882 455.988 38.7744 455.861 38.8428C455.734 38.9111 455.593 38.9616 455.437 38.9941C455.28 39.0267 455.1 39.043 454.895 39.043C454.67 39.043 454.463 39.0104 454.274 38.9453C454.086 38.8835 453.921 38.7874 453.781 38.6572C453.645 38.5238 453.537 38.3577 453.459 38.1592C453.381 37.9574 453.342 37.7197 453.342 37.4463C453.342 36.9124 453.529 36.5023 453.903 36.2158C454.281 35.9294 454.854 35.7731 455.622 35.7471L456.521 35.7129V35.376C456.521 35.1579 456.496 34.9756 456.447 34.8291C456.402 34.6826 456.333 34.5654 456.242 34.4775C456.154 34.3864 456.044 34.3213 455.91 34.2822C455.78 34.2432 455.63 34.2236 455.461 34.2236C455.191 34.2236 454.938 34.2627 454.704 34.3408C454.473 34.4189 454.25 34.5133 454.035 34.624L453.723 33.9551C453.964 33.8249 454.232 33.7142 454.528 33.623C454.825 33.5319 455.135 33.4863 455.461 33.4863C455.793 33.4863 456.079 33.5205 456.32 33.5889C456.564 33.654 456.765 33.7598 456.921 33.9063C457.08 34.0495 457.199 34.2334 457.277 34.458C457.355 34.6826 457.395 34.9544 457.395 35.2734V38.9453L456.755 38.9453ZM455.124 38.3252C455.323 38.3252 455.507 38.2943 455.676 38.2324C455.845 38.1706 455.992 38.0778 456.115 37.9541C456.239 37.8271 456.335 37.6693 456.403 37.4805C456.475 37.2884 456.511 37.0638 456.511 36.8066V36.3232L455.812 36.3574C455.52 36.3704 455.274 36.403 455.075 36.4551C454.877 36.5072 454.717 36.5804 454.597 36.6748C454.479 36.766 454.395 36.8783 454.343 37.0117C454.291 37.1419 454.265 37.29 454.265 37.4561C454.265 37.7555 454.343 37.9753 454.499 38.1152C454.659 38.2552 454.867 38.3252 455.124 38.3252ZM459.934 38.9453H459.045V31.3477H459.934V38.9453Z" fill="white"/>
<g clip-path="url(#clip0)">
<rect width="219" height="494" transform="translate(494 64) rotate(90)" fill="url(#paint1_linear)"/>
<path d="M19 146.906C19 141.435 23.4349 137 28.9055 137H83.0945C88.5651 137 93 141.435 93 146.906V146.906C93 152.376 88.5651 156.811 83.0945 156.811H28.9055C23.4349 156.811 19 152.376 19 146.906V146.906Z" fill="#111111" fill-opacity="0.2"/>
<g clip-path="url(#clip1)">
<path d="M36.8511 146.044C36.8511 145.433 36.4177 144.921 35.8435 144.798C36.0729 144.415 36.2138 143.973 36.2138 143.495C36.2138 142.089 35.0705 140.945 33.6646 140.945C32.6978 140.945 31.8667 141.491 31.434 142.286C31.0013 141.491 30.1702 140.945 29.2034 140.945C27.7976 140.945 26.6542 142.089 26.6542 143.495C26.6542 144.069 26.8531 144.595 27.1749 145.022C27.014 145.139 26.8831 145.293 26.7927 145.471C26.7022 145.648 26.6548 145.844 26.6542 146.044V151.142C26.6542 151.845 27.2259 152.417 27.9288 152.417H35.5765C36.2794 152.417 36.8511 151.845 36.8511 151.142V149.461L39.4003 150.736V146.274L36.8511 147.549V146.044ZM33.6646 142.22C34.3675 142.22 34.9392 142.792 34.9392 143.495C34.9392 144.197 34.3675 144.769 33.6646 144.769C32.9616 144.769 32.39 144.197 32.39 143.495C32.39 142.792 32.9616 142.22 33.6646 142.22ZM29.2034 142.22C29.9064 142.22 30.4781 142.792 30.4781 143.495C30.4781 144.197 29.9064 144.769 29.2034 144.769C28.5005 144.769 27.9288 144.197 27.9288 143.495C27.9288 142.792 28.5005 142.22 29.2034 142.22ZM27.9288 151.142V146.044H35.5765L35.5778 151.142H27.9288Z" fill="white"/>
<path d="M53.4395 142.566V143.59H50.3667V152.33H49.1035V143.59H46.0308V142.566H53.4395ZM54.8119 152.33V145.16H55.6655L55.8908 146.075C56.519 145.465 57.2747 145.16 58.1578 145.16V146.212C57.302 146.212 56.6078 146.515 56.0752 147.12V152.33H54.8119ZM59.0864 150.166C59.0864 148.695 60.056 147.96 61.9952 147.96C62.6189 147.96 63.2425 148.006 63.8662 148.097V147.421C63.8662 146.597 63.2221 146.185 61.9338 146.185C61.1963 146.185 60.4407 146.298 59.6668 146.526V145.502C60.4407 145.274 61.1963 145.16 61.9338 145.16C64.0642 145.16 65.1294 145.902 65.1294 147.386V152.33H64.4193L63.9823 151.62C63.2676 152.093 62.4892 152.33 61.647 152.33C59.9399 152.33 59.0864 151.609 59.0864 150.166ZM61.9952 148.984C60.8982 148.984 60.3496 149.371 60.3496 150.145C60.3496 150.919 60.7821 151.306 61.647 151.306C62.521 151.306 63.2607 151.074 63.8662 150.609V149.121C63.2425 149.03 62.6189 148.984 61.9952 148.984ZM68.5845 145.16V152.33H67.3213V145.16H68.5845ZM68.5845 142.566V143.761H67.3213V142.566H68.5845ZM72.1079 142.566V152.33H70.8447V142.566H72.1079ZM77.1881 145.16C79.2275 145.16 80.2472 146.169 80.2472 148.185C80.2472 148.472 80.2267 148.779 80.1857 149.107H75.1533C75.1533 150.573 76.0091 151.306 77.7207 151.306C78.5355 151.306 79.2593 151.215 79.8921 151.033V152.057C79.2593 152.239 78.49 152.33 77.5841 152.33C75.1214 152.33 73.8901 151.108 73.8901 148.663C73.8901 146.328 74.9894 145.16 77.1881 145.16ZM75.1533 148.056H79.0317C79.0044 146.799 78.3899 146.171 77.1881 146.171C75.9135 146.171 75.2352 146.799 75.1533 148.056ZM81.9474 152.33V145.16H82.8009L83.0263 146.075C83.6545 145.465 84.4101 145.16 85.2932 145.16V146.212C84.4374 146.212 83.7432 146.515 83.2106 147.12V152.33H81.9474Z" fill="white"/>
</g>
<path d="M28.9055 138.165H83.0945V135.835H28.9055V138.165ZM83.0945 155.646H28.9055V157.976H83.0945V155.646ZM28.9055 155.646C24.0785 155.646 20.1654 151.733 20.1654 146.906H17.8346C17.8346 153.02 22.7912 157.976 28.9055 157.976V155.646ZM91.8346 146.906C91.8346 151.733 87.9215 155.646 83.0945 155.646V157.976C89.2088 157.976 94.1654 153.02 94.1654 146.906H91.8346ZM83.0945 138.165C87.9215 138.165 91.8346 142.078 91.8346 146.906H94.1654C94.1654 140.791 89.2088 135.835 83.0945 135.835V138.165ZM28.9055 135.835C22.7912 135.835 17.8346 140.791 17.8346 146.906H20.1654C20.1654 142.078 24.0785 138.165 28.9055 138.165V135.835Z" fill="white"/>
<path d="M30.0254 168.846V171.072H23.0332V174.588H29.6934V176.902H23.0039V180.564H30.1621V182.811H20.4648V168.846H30.0254ZM39.8789 182.518C39.0326 182.713 38.1536 182.811 37.2422 182.811C33.5964 182.811 31.7734 181.036 31.7734 177.488C31.7734 174.201 33.5964 172.557 37.2422 172.557C38.1536 172.557 39.0326 172.654 39.8789 172.85V174.9C39.0326 174.705 38.2188 174.607 37.4375 174.607C35.3867 174.607 34.3613 175.568 34.3613 177.488C34.3613 179.669 35.3867 180.76 37.4375 180.76C38.2188 180.76 39.0326 180.662 39.8789 180.467V182.518ZM44.1758 168.846V182.811H41.5879V168.846H44.1758ZM49.2148 168.846V170.896H46.627V168.846H49.2148ZM49.2148 172.557V182.811H46.627V172.557H49.2148ZM54.2539 180.135C54.8984 180.486 55.5918 180.662 56.334 180.662C57.877 180.662 58.6484 179.578 58.6484 177.41C58.6484 175.568 57.7956 174.646 56.0898 174.646C55.3542 174.646 54.7422 174.692 54.2539 174.783V180.135ZM51.666 172.977C53.0267 172.697 54.4655 172.557 55.9824 172.557C59.4655 172.557 61.207 174.181 61.207 177.43C61.207 181.017 59.5859 182.811 56.3438 182.811C55.6536 182.811 54.957 182.648 54.2539 182.322V186.521H51.666V172.977ZM63.1699 182.322V180.174C64.3092 180.63 65.6243 180.857 67.1152 180.857C68.2285 180.857 68.7852 180.499 68.7852 179.783C68.7852 179.1 68.4108 178.758 67.6621 178.758H65.8066C63.7233 178.758 62.6816 177.732 62.6816 175.682C62.6816 173.533 64.2018 172.459 67.2422 172.459C68.5312 172.459 69.7454 172.654 70.8848 173.045V175.193C69.7454 174.738 68.5085 174.51 67.1738 174.51C65.7741 174.51 65.0742 174.868 65.0742 175.584C65.0742 176.268 65.4811 176.609 66.2949 176.609H67.9551C70.2337 176.609 71.373 177.635 71.373 179.686C71.373 181.834 69.9212 182.908 67.0176 182.908C65.5918 182.908 64.3092 182.713 63.1699 182.322ZM77.5156 172.557C80.6276 172.557 82.1836 174.145 82.1836 177.322C82.1836 177.745 82.1543 178.169 82.0957 178.592H75.2891C75.2891 180.037 76.3503 180.76 78.4727 180.76C79.5078 180.76 80.543 180.662 81.5781 180.467V182.518C80.6732 182.713 79.5729 182.811 78.2773 182.811C74.5599 182.811 72.7012 181.062 72.7012 177.566C72.7012 174.227 74.306 172.557 77.5156 172.557ZM75.2891 176.795H79.6641V176.717C79.6641 175.298 78.9479 174.588 77.5156 174.588C76.1484 174.588 75.4062 175.324 75.2891 176.795Z" fill="white"/>
<path d="M25.25 197.342L23.4727 200.943L19.5 201.518L22.375 204.322L21.6953 208.279L25.25 206.412L28.8047 208.279L28.125 204.322L31 201.521L27.0273 200.943L25.25 197.342Z" fill="#F39B13"/>
<path d="M35.8301 207.811L39.6787 198.951H34.5244V197.816H40.9502V198.808L37.1562 207.811H35.8301ZM42.625 207.052C42.625 206.879 42.6478 206.733 42.6934 206.614C42.7389 206.491 42.8005 206.393 42.8779 206.32C42.9554 206.243 43.0465 206.188 43.1514 206.156C43.2562 206.12 43.3701 206.102 43.4932 206.102C43.6117 206.102 43.7233 206.12 43.8281 206.156C43.9375 206.188 44.0309 206.243 44.1084 206.32C44.1859 206.393 44.2474 206.491 44.293 206.614C44.3385 206.733 44.3613 206.879 44.3613 207.052C44.3613 207.22 44.3385 207.366 44.293 207.489C44.2474 207.608 44.1859 207.706 44.1084 207.783C44.0309 207.861 43.9375 207.918 43.8281 207.954C43.7233 207.991 43.6117 208.009 43.4932 208.009C43.3701 208.009 43.2562 207.991 43.1514 207.954C43.0465 207.918 42.9554 207.861 42.8779 207.783C42.8005 207.706 42.7389 207.608 42.6934 207.489C42.6478 207.366 42.625 207.22 42.625 207.052ZM46.1523 203.538C46.1523 203.06 46.1751 202.583 46.2207 202.109C46.2708 201.635 46.3551 201.182 46.4736 200.749C46.5967 200.312 46.763 199.906 46.9727 199.532C47.1823 199.159 47.4489 198.835 47.7725 198.562C48.096 198.284 48.4834 198.067 48.9346 197.912C49.3857 197.753 49.9144 197.673 50.5205 197.673C50.6071 197.673 50.7028 197.675 50.8076 197.68C50.9124 197.684 51.0173 197.693 51.1221 197.707C51.2314 197.716 51.334 197.73 51.4297 197.748C51.5299 197.762 51.6188 197.78 51.6963 197.803V198.862C51.5368 198.808 51.3568 198.767 51.1562 198.739C50.9557 198.712 50.7575 198.698 50.5615 198.698C50.1514 198.698 49.7891 198.748 49.4746 198.849C49.1647 198.944 48.8958 199.081 48.668 199.259C48.4401 199.437 48.2487 199.648 48.0938 199.895C47.9434 200.141 47.8203 200.414 47.7246 200.715C47.6289 201.011 47.5583 201.328 47.5127 201.665C47.4671 202.002 47.4375 202.353 47.4238 202.718H47.5059C47.597 202.554 47.7064 202.401 47.834 202.26C47.9661 202.114 48.1188 201.991 48.292 201.891C48.4652 201.786 48.6589 201.704 48.873 201.645C49.0918 201.585 49.3356 201.556 49.6045 201.556C50.0374 201.556 50.4294 201.624 50.7803 201.761C51.1312 201.893 51.4297 202.089 51.6758 202.349C51.9219 202.608 52.111 202.927 52.2432 203.306C52.3799 203.679 52.4482 204.108 52.4482 204.591C52.4482 205.11 52.3776 205.577 52.2363 205.992C52.0951 206.407 51.8923 206.76 51.6279 207.052C51.3636 207.339 51.0446 207.56 50.6709 207.715C50.2972 207.87 49.8779 207.947 49.4131 207.947C48.9574 207.947 48.529 207.858 48.1279 207.681C47.7314 207.503 47.3874 207.232 47.0957 206.867C46.804 206.503 46.5739 206.045 46.4053 205.493C46.2367 204.942 46.1523 204.29 46.1523 203.538ZM49.3994 206.901C49.6729 206.901 49.9212 206.856 50.1445 206.765C50.3724 206.669 50.5684 206.528 50.7324 206.341C50.8965 206.149 51.0218 205.91 51.1084 205.623C51.1995 205.331 51.2451 204.987 51.2451 204.591C51.2451 204.272 51.2064 203.987 51.1289 203.736C51.056 203.481 50.9443 203.265 50.7939 203.087C50.6436 202.909 50.4544 202.772 50.2266 202.677C50.0033 202.581 49.7412 202.533 49.4404 202.533C49.1351 202.533 48.8548 202.588 48.5996 202.697C48.349 202.802 48.1348 202.941 47.957 203.114C47.7793 203.283 47.6403 203.477 47.54 203.695C47.4443 203.914 47.3965 204.133 47.3965 204.352C47.3965 204.657 47.4375 204.962 47.5195 205.268C47.6061 205.568 47.7314 205.84 47.8955 206.081C48.0641 206.323 48.2738 206.521 48.5244 206.676C48.7751 206.826 49.0667 206.901 49.3994 206.901Z" fill="white"/>
<path d="M58.1523 198.035V207.811H56.8877V198.035H58.1523ZM60.6885 207.811V198.035H62.2949L65.8838 206.19L69.4043 198.035H70.9424V207.811H69.8145V199.792L66.3418 207.811H65.3438L61.8164 199.792V207.811H60.6885ZM76.8213 206.785C79.2139 206.785 80.4102 205.409 80.4102 202.656C80.4102 200.259 79.2139 199.061 76.8213 199.061H74.5312V206.785H76.8213ZM73.2666 207.811V198.035H76.8213C80.057 198.035 81.6748 199.576 81.6748 202.656C81.6748 206.092 80.057 207.811 76.8213 207.811H73.2666ZM84.6484 206.56C85.0632 206.692 85.5667 206.758 86.1592 206.758C87.7542 206.758 88.5518 205.849 88.5518 204.03C88.5518 202.494 87.8294 201.727 86.3848 201.727C85.7285 201.727 85.1497 201.85 84.6484 202.096V206.56ZM83.3838 198.035H84.6484V200.975C85.1908 200.747 85.7718 200.633 86.3916 200.633C88.6611 200.633 89.7959 201.781 89.7959 204.078C89.7959 206.566 88.6042 207.811 86.2207 207.811C85.1908 207.811 84.2451 207.713 83.3838 207.517V198.035Z" fill="white"/>
<path d="M26.2666 231.811H19.5605V230.341L21.9121 227.805C22.2083 227.486 22.4772 227.192 22.7188 226.923C22.9603 226.654 23.1676 226.392 23.3408 226.137C23.514 225.882 23.6484 225.622 23.7441 225.357C23.8398 225.093 23.8877 224.808 23.8877 224.503C23.8877 224.166 23.7852 223.904 23.5801 223.717C23.3796 223.53 23.1084 223.437 22.7666 223.437C22.4066 223.437 22.0602 223.525 21.7275 223.703C21.3949 223.881 21.0462 224.134 20.6816 224.462L19.5332 223.102C19.7383 222.915 19.9525 222.737 20.1758 222.568C20.3991 222.395 20.6452 222.243 20.9141 222.11C21.1829 221.978 21.4792 221.873 21.8027 221.796C22.1263 221.714 22.4886 221.673 22.8896 221.673C23.3682 221.673 23.7965 221.739 24.1748 221.871C24.5576 222.003 24.8835 222.192 25.1523 222.438C25.4212 222.68 25.6263 222.974 25.7676 223.32C25.9134 223.667 25.9863 224.056 25.9863 224.489C25.9863 224.881 25.918 225.257 25.7812 225.617C25.6445 225.973 25.4577 226.324 25.2207 226.67C24.9837 227.012 24.708 227.354 24.3936 227.695C24.0837 228.033 23.751 228.377 23.3955 228.728L22.1924 229.938V230.033H26.2666V231.811ZM38.0723 231.811H35.9873V227.347C35.9873 226.795 35.9007 226.383 35.7275 226.109C35.5589 225.831 35.2969 225.692 34.9414 225.692C34.6725 225.692 34.4469 225.747 34.2646 225.856C34.0824 225.966 33.9365 226.128 33.8271 226.342C33.7178 226.556 33.6403 226.82 33.5947 227.135C33.5492 227.449 33.5264 227.809 33.5264 228.215V231.811H31.4414V221.174H33.5264V223.341C33.5264 223.532 33.5218 223.735 33.5127 223.949C33.5036 224.159 33.4922 224.353 33.4785 224.53C33.4603 224.74 33.4443 224.945 33.4307 225.146H33.54C33.7633 224.749 34.0482 224.464 34.3945 224.291C34.7409 224.113 35.1328 224.024 35.5703 224.024C35.9486 224.024 36.2904 224.079 36.5957 224.188C36.9056 224.293 37.1699 224.46 37.3887 224.688C37.6074 224.915 37.776 225.207 37.8945 225.562C38.013 225.913 38.0723 226.335 38.0723 226.827V231.811ZM44.2041 224.024C44.2588 224.024 44.318 224.027 44.3818 224.031C44.4502 224.031 44.514 224.036 44.5732 224.045C44.637 224.049 44.694 224.056 44.7441 224.065C44.7988 224.07 44.8398 224.077 44.8672 224.086V226.041C44.8307 226.032 44.7806 226.023 44.7168 226.014C44.653 226.005 44.5846 225.998 44.5117 225.993C44.4434 225.984 44.375 225.979 44.3066 225.979C44.2383 225.975 44.1813 225.973 44.1357 225.973C43.8669 225.973 43.6185 226.007 43.3906 226.075C43.1673 226.144 42.9736 226.255 42.8096 226.41C42.6501 226.561 42.5247 226.761 42.4336 227.012C42.347 227.258 42.3037 227.561 42.3037 227.921V231.811H40.2188V224.168H41.7979L42.1055 225.316H42.208C42.3174 225.12 42.4359 224.943 42.5635 224.783C42.6911 224.624 42.8324 224.489 42.9873 224.38C43.1468 224.266 43.3245 224.179 43.5205 224.12C43.721 224.056 43.9489 224.024 44.2041 224.024ZM55.7227 224.052C55.7227 224.398 55.6657 224.71 55.5518 224.988C55.4424 225.262 55.2897 225.503 55.0938 225.713C54.9023 225.918 54.6745 226.091 54.4102 226.232C54.1504 226.369 53.8678 226.474 53.5625 226.547V226.588C54.3691 226.688 54.9798 226.934 55.3945 227.326C55.8092 227.714 56.0166 228.238 56.0166 228.898C56.0166 229.336 55.9368 229.742 55.7773 230.115C55.6224 230.484 55.3809 230.806 55.0527 231.079C54.7292 231.353 54.319 231.567 53.8223 231.722C53.3301 231.872 52.749 231.947 52.0791 231.947C51.5413 231.947 51.0355 231.902 50.5615 231.811C50.0876 231.724 49.6455 231.59 49.2354 231.407V229.609C49.4404 229.719 49.6569 229.814 49.8848 229.896C50.1126 229.979 50.3405 230.049 50.5684 230.108C50.7962 230.163 51.0195 230.204 51.2383 230.231C51.4616 230.259 51.6712 230.272 51.8672 230.272C52.2591 230.272 52.585 230.236 52.8447 230.163C53.1045 230.09 53.3118 229.988 53.4668 229.855C53.6217 229.723 53.7311 229.566 53.7949 229.384C53.8633 229.197 53.8975 228.994 53.8975 228.775C53.8975 228.57 53.8542 228.386 53.7676 228.222C53.6855 228.053 53.5488 227.912 53.3574 227.798C53.1706 227.679 52.9245 227.588 52.6191 227.524C52.3138 227.461 51.9378 227.429 51.4912 227.429H50.7803V225.945H51.4775C51.8968 225.945 52.2454 225.909 52.5234 225.836C52.8014 225.758 53.0225 225.656 53.1865 225.528C53.3551 225.396 53.4736 225.243 53.542 225.07C53.6104 224.897 53.6445 224.713 53.6445 224.517C53.6445 224.161 53.5329 223.883 53.3096 223.683C53.0908 223.482 52.7422 223.382 52.2637 223.382C52.0449 223.382 51.8398 223.405 51.6484 223.45C51.4616 223.491 51.2861 223.546 51.1221 223.614C50.9626 223.678 50.8145 223.751 50.6777 223.833C50.5456 223.91 50.4248 223.988 50.3154 224.065L49.249 222.657C49.4404 222.516 49.6478 222.386 49.8711 222.268C50.099 222.149 50.3451 222.047 50.6094 221.96C50.8737 221.869 51.1585 221.798 51.4639 221.748C51.7692 221.698 52.0951 221.673 52.4414 221.673C52.9336 221.673 53.3802 221.728 53.7812 221.837C54.1868 221.942 54.5332 222.097 54.8203 222.302C55.1074 222.502 55.3285 222.751 55.4834 223.047C55.6429 223.339 55.7227 223.674 55.7227 224.052ZM67.8496 231.811H65.7646V227.347C65.7646 226.795 65.6826 226.383 65.5186 226.109C65.3545 225.831 65.097 225.692 64.7461 225.692C64.4818 225.692 64.2607 225.747 64.083 225.856C63.9098 225.966 63.7708 226.128 63.666 226.342C63.5612 226.556 63.486 226.82 63.4404 227.135C63.3949 227.449 63.3721 227.809 63.3721 228.215V231.811H61.2871V224.168H62.8799L63.1602 225.146H63.2764C63.3857 224.95 63.5156 224.781 63.666 224.64C63.821 224.498 63.9896 224.382 64.1719 224.291C64.3542 224.2 64.5479 224.134 64.7529 224.093C64.958 224.047 65.1654 224.024 65.375 224.024C65.8991 224.024 66.3434 224.116 66.708 224.298C67.0771 224.476 67.3597 224.758 67.5557 225.146H67.7266C67.8359 224.95 67.9681 224.781 68.123 224.64C68.278 224.498 68.4489 224.382 68.6357 224.291C68.8226 224.2 69.0186 224.134 69.2236 224.093C69.4333 224.047 69.6429 224.024 69.8525 224.024C70.6729 224.024 71.2904 224.248 71.7051 224.694C72.1243 225.136 72.334 225.847 72.334 226.827V231.811H70.2422V227.347C70.2422 226.795 70.1602 226.383 69.9961 226.109C69.832 225.831 69.5745 225.692 69.2236 225.692C68.7269 225.692 68.3737 225.891 68.1641 226.287C67.9544 226.679 67.8496 227.242 67.8496 227.976V231.811ZM74.3916 222.192C74.3916 221.996 74.4212 221.835 74.4805 221.707C74.5397 221.575 74.6195 221.47 74.7197 221.393C74.8245 221.311 74.9453 221.254 75.082 221.222C75.2233 221.19 75.3714 221.174 75.5264 221.174C75.6813 221.174 75.8271 221.19 75.9639 221.222C76.1006 221.254 76.2191 221.311 76.3193 221.393C76.4242 221.47 76.5062 221.575 76.5654 221.707C76.6292 221.835 76.6611 221.996 76.6611 222.192C76.6611 222.384 76.6292 222.546 76.5654 222.678C76.5062 222.81 76.4242 222.917 76.3193 222.999C76.2191 223.076 76.1006 223.133 75.9639 223.17C75.8271 223.202 75.6813 223.218 75.5264 223.218C75.3714 223.218 75.2233 223.202 75.082 223.17C74.9453 223.133 74.8245 223.076 74.7197 222.999C74.6195 222.917 74.5397 222.81 74.4805 222.678C74.4212 222.546 74.3916 222.384 74.3916 222.192ZM76.5654 231.811H74.4805V224.168H76.5654V231.811ZM85.3906 231.811H83.3057V227.347C83.3057 226.795 83.2214 226.383 83.0527 226.109C82.8887 225.831 82.6243 225.692 82.2598 225.692C81.9863 225.692 81.7585 225.747 81.5762 225.856C81.3939 225.966 81.248 226.128 81.1387 226.342C81.0339 226.556 80.9587 226.82 80.9131 227.135C80.8675 227.449 80.8447 227.809 80.8447 228.215V231.811H78.7598V224.168H80.3525L80.6328 225.146H80.749C80.8584 224.95 80.9906 224.781 81.1455 224.64C81.305 224.498 81.4782 224.382 81.665 224.291C81.8519 224.2 82.0501 224.134 82.2598 224.093C82.4694 224.047 82.6836 224.024 82.9023 224.024C83.276 224.024 83.6156 224.079 83.9209 224.188C84.2262 224.293 84.4883 224.46 84.707 224.688C84.9258 224.915 85.0944 225.207 85.2129 225.562C85.3314 225.913 85.3906 226.335 85.3906 226.827V231.811Z" fill="white"/>
<path d="M102.267 231.811H95.5605V230.341L97.9121 227.805C98.2083 227.486 98.4772 227.192 98.7188 226.923C98.9603 226.654 99.1676 226.392 99.3408 226.137C99.514 225.882 99.6484 225.622 99.7441 225.357C99.8398 225.093 99.8877 224.808 99.8877 224.503C99.8877 224.166 99.7852 223.904 99.5801 223.717C99.3796 223.53 99.1084 223.437 98.7666 223.437C98.4066 223.437 98.0602 223.525 97.7275 223.703C97.3949 223.881 97.0462 224.134 96.6816 224.462L95.5332 223.102C95.7383 222.915 95.9525 222.737 96.1758 222.568C96.3991 222.395 96.6452 222.243 96.9141 222.11C97.1829 221.978 97.4792 221.873 97.8027 221.796C98.1263 221.714 98.4886 221.673 98.8896 221.673C99.3682 221.673 99.7965 221.739 100.175 221.871C100.558 222.003 100.883 222.192 101.152 222.438C101.421 222.68 101.626 222.974 101.768 223.32C101.913 223.667 101.986 224.056 101.986 224.489C101.986 224.881 101.918 225.257 101.781 225.617C101.645 225.973 101.458 226.324 101.221 226.67C100.984 227.012 100.708 227.354 100.394 227.695C100.084 228.033 99.751 228.377 99.3955 228.728L98.1924 229.938V230.033H102.267V231.811ZM109.991 226.813C109.991 227.62 109.927 228.34 109.8 228.974C109.677 229.607 109.476 230.145 109.198 230.587C108.925 231.029 108.569 231.366 108.132 231.599C107.699 231.831 107.175 231.947 106.56 231.947C105.981 231.947 105.477 231.831 105.049 231.599C104.62 231.366 104.265 231.029 103.982 230.587C103.7 230.145 103.488 229.607 103.347 228.974C103.21 228.34 103.142 227.62 103.142 226.813C103.142 226.007 103.203 225.285 103.326 224.646C103.454 224.008 103.654 223.468 103.928 223.026C104.201 222.584 104.554 222.247 104.987 222.015C105.42 221.778 105.944 221.659 106.56 221.659C107.134 221.659 107.635 221.775 108.063 222.008C108.492 222.24 108.85 222.577 109.137 223.02C109.424 223.462 109.638 224.002 109.779 224.64C109.921 225.278 109.991 226.002 109.991 226.813ZM105.247 226.813C105.247 227.953 105.345 228.81 105.541 229.384C105.737 229.958 106.076 230.245 106.56 230.245C107.034 230.245 107.373 229.96 107.578 229.391C107.788 228.821 107.893 227.962 107.893 226.813C107.893 225.67 107.788 224.811 107.578 224.236C107.373 223.658 107.034 223.368 106.56 223.368C106.318 223.368 106.113 223.441 105.944 223.587C105.78 223.733 105.646 223.949 105.541 224.236C105.436 224.523 105.361 224.883 105.315 225.316C105.27 225.745 105.247 226.244 105.247 226.813ZM117.702 226.813C117.702 227.62 117.638 228.34 117.511 228.974C117.388 229.607 117.187 230.145 116.909 230.587C116.636 231.029 116.28 231.366 115.843 231.599C115.41 231.831 114.886 231.947 114.271 231.947C113.692 231.947 113.188 231.831 112.76 231.599C112.331 231.366 111.976 231.029 111.693 230.587C111.411 230.145 111.199 229.607 111.058 228.974C110.921 228.34 110.853 227.62 110.853 226.813C110.853 226.007 110.914 225.285 111.037 224.646C111.165 224.008 111.365 223.468 111.639 223.026C111.912 222.584 112.265 222.247 112.698 222.015C113.131 221.778 113.655 221.659 114.271 221.659C114.845 221.659 115.346 221.775 115.774 222.008C116.203 222.24 116.561 222.577 116.848 223.02C117.135 223.462 117.349 224.002 117.49 224.64C117.632 225.278 117.702 226.002 117.702 226.813ZM112.958 226.813C112.958 227.953 113.056 228.81 113.252 229.384C113.448 229.958 113.787 230.245 114.271 230.245C114.744 230.245 115.084 229.96 115.289 229.391C115.499 228.821 115.604 227.962 115.604 226.813C115.604 225.67 115.499 224.811 115.289 224.236C115.084 223.658 114.744 223.368 114.271 223.368C114.029 223.368 113.824 223.441 113.655 223.587C113.491 223.733 113.357 223.949 113.252 224.236C113.147 224.523 113.072 224.883 113.026 225.316C112.981 225.745 112.958 226.244 112.958 226.813ZM122.221 225.426C122.649 225.426 123.048 225.492 123.417 225.624C123.786 225.756 124.107 225.95 124.381 226.205C124.654 226.46 124.868 226.779 125.023 227.162C125.178 227.54 125.256 227.976 125.256 228.468C125.256 229.01 125.172 229.498 125.003 229.931C124.834 230.359 124.586 230.724 124.258 231.024C123.93 231.321 123.522 231.549 123.034 231.708C122.551 231.868 121.995 231.947 121.366 231.947C121.116 231.947 120.867 231.936 120.621 231.913C120.375 231.89 120.138 231.856 119.91 231.811C119.687 231.77 119.473 231.715 119.268 231.646C119.067 231.578 118.885 231.498 118.721 231.407V229.582C118.88 229.673 119.065 229.76 119.274 229.842C119.484 229.919 119.701 229.988 119.924 230.047C120.152 230.102 120.38 230.147 120.607 230.184C120.835 230.215 121.052 230.231 121.257 230.231C121.868 230.231 122.332 230.106 122.651 229.855C122.97 229.6 123.13 229.197 123.13 228.646C123.13 228.153 122.973 227.78 122.658 227.524C122.348 227.265 121.868 227.135 121.216 227.135C121.097 227.135 120.97 227.142 120.833 227.155C120.701 227.169 120.569 227.187 120.437 227.21C120.309 227.233 120.186 227.258 120.067 227.285C119.949 227.308 119.846 227.333 119.76 227.36L118.919 226.909L119.295 221.816H124.572V223.607H121.127L120.963 225.569C121.109 225.537 121.277 225.506 121.469 225.474C121.665 225.442 121.915 225.426 122.221 225.426Z" fill="white"/>
<path d="M142.939 223.87C142.591 223.87 142.275 223.937 141.992 224.07C141.709 224.201 141.466 224.389 141.265 224.637C141.066 224.884 140.911 225.185 140.801 225.54C140.693 225.895 140.64 226.295 140.64 226.741C140.64 227.2 140.687 227.609 140.781 227.967C140.879 228.322 141.024 228.621 141.216 228.865C141.408 229.109 141.647 229.295 141.934 229.422C142.22 229.549 142.555 229.612 142.939 229.612C143.229 229.612 143.504 229.585 143.765 229.529C144.025 229.471 144.282 229.404 144.536 229.329V230.12C144.409 230.169 144.282 230.213 144.155 230.252C144.028 230.288 143.895 230.317 143.755 230.34C143.618 230.363 143.47 230.379 143.311 230.389C143.154 230.402 142.98 230.408 142.788 230.408C142.254 230.408 141.792 230.32 141.401 230.145C141.011 229.969 140.687 229.72 140.43 229.397C140.176 229.075 139.987 228.688 139.863 228.235C139.74 227.783 139.678 227.282 139.678 226.731C139.678 226.191 139.748 225.696 139.888 225.247C140.031 224.798 140.239 224.412 140.513 224.09C140.789 223.768 141.131 223.517 141.538 223.338C141.945 223.159 142.412 223.069 142.939 223.069C143.291 223.069 143.626 223.105 143.945 223.177C144.264 223.248 144.552 223.353 144.81 223.489L144.429 224.251C144.224 224.147 144.001 224.057 143.76 223.982C143.519 223.908 143.245 223.87 142.939 223.87ZM148.77 223.87C148.421 223.87 148.105 223.937 147.822 224.07C147.539 224.201 147.297 224.389 147.095 224.637C146.896 224.884 146.742 225.185 146.631 225.54C146.523 225.895 146.47 226.295 146.47 226.741C146.47 227.2 146.517 227.609 146.611 227.967C146.709 228.322 146.854 228.621 147.046 228.865C147.238 229.109 147.477 229.295 147.764 229.422C148.05 229.549 148.385 229.612 148.77 229.612C149.059 229.612 149.334 229.585 149.595 229.529C149.855 229.471 150.112 229.404 150.366 229.329V230.12C150.239 230.169 150.112 230.213 149.985 230.252C149.858 230.288 149.725 230.317 149.585 230.34C149.448 230.363 149.3 230.379 149.141 230.389C148.984 230.402 148.81 230.408 148.618 230.408C148.084 230.408 147.622 230.32 147.231 230.145C146.841 229.969 146.517 229.72 146.26 229.397C146.006 229.075 145.817 228.688 145.693 228.235C145.57 227.783 145.508 227.282 145.508 226.731C145.508 226.191 145.578 225.696 145.718 225.247C145.861 224.798 146.069 224.412 146.343 224.09C146.619 223.768 146.961 223.517 147.368 223.338C147.775 223.159 148.242 223.069 148.77 223.069C149.121 223.069 149.456 223.105 149.775 223.177C150.094 223.248 150.382 223.353 150.64 223.489L150.259 224.251C150.054 224.147 149.831 224.057 149.59 223.982C149.349 223.908 149.076 223.87 148.77 223.87Z" fill="white"/>
<path d="M137 220.811H153V218.811H137V220.811ZM155 222.811V230.811H157V222.811H155ZM153 232.811H137V234.811H153V232.811ZM135 230.811V222.811H133V230.811H135ZM137 232.811C135.895 232.811 135 231.915 135 230.811H133C133 233.02 134.791 234.811 137 234.811V232.811ZM155 230.811C155 231.915 154.105 232.811 153 232.811V234.811C155.209 234.811 157 233.02 157 230.811H155ZM153 220.811C154.105 220.811 155 221.706 155 222.811H157C157 220.601 155.209 218.811 153 218.811V220.811ZM137 218.811C134.791 218.811 133 220.601 133 222.811H135C135 221.706 135.895 220.811 137 220.811V218.811Z" fill="white"/>
<path d="M174.297 225.262C174.297 225.558 174.251 225.843 174.16 226.116C174.072 226.39 173.926 226.632 173.721 226.844C173.516 227.052 173.244 227.22 172.905 227.347C172.57 227.47 172.155 227.532 171.66 227.532H170.928V230.311H170.02V223.172H171.787C172.223 223.172 172.599 223.219 172.915 223.313C173.231 223.405 173.491 223.54 173.696 223.719C173.901 223.895 174.053 224.113 174.15 224.373C174.248 224.633 174.297 224.93 174.297 225.262ZM170.928 226.761H171.558C171.86 226.761 172.124 226.735 172.349 226.683C172.576 226.631 172.764 226.548 172.91 226.434C173.06 226.316 173.172 226.167 173.247 225.984C173.322 225.799 173.359 225.574 173.359 225.311C173.359 224.848 173.226 224.507 172.959 224.285C172.692 224.061 172.275 223.948 171.709 223.948H170.928V226.761ZM178.628 226.541H180.991V230.042C180.812 230.101 180.632 230.153 180.449 230.198C180.267 230.244 180.08 230.281 179.888 230.311C179.696 230.343 179.494 230.368 179.282 230.384C179.071 230.4 178.843 230.408 178.599 230.408C178.088 230.408 177.635 230.324 177.241 230.154C176.847 229.982 176.515 229.738 176.245 229.422C175.975 229.103 175.77 228.717 175.63 228.265C175.49 227.809 175.42 227.298 175.42 226.731C175.42 226.172 175.496 225.665 175.649 225.213C175.806 224.76 176.032 224.376 176.328 224.061C176.624 223.742 176.989 223.497 177.422 223.328C177.858 223.156 178.354 223.069 178.911 223.069C179.272 223.069 179.619 223.105 179.951 223.177C180.283 223.248 180.592 223.353 180.879 223.489L180.527 224.28C180.41 224.225 180.283 224.173 180.146 224.124C180.013 224.075 179.875 224.033 179.731 223.997C179.588 223.958 179.44 223.927 179.287 223.904C179.137 223.882 178.988 223.87 178.838 223.87C178.441 223.87 178.089 223.937 177.783 224.07C177.477 224.201 177.22 224.389 177.012 224.637C176.807 224.884 176.65 225.185 176.543 225.54C176.436 225.895 176.382 226.295 176.382 226.741C176.382 227.164 176.426 227.552 176.514 227.903C176.605 228.255 176.748 228.558 176.943 228.812C177.139 229.065 177.391 229.262 177.7 229.402C178.009 229.542 178.382 229.612 178.818 229.612C178.962 229.612 179.092 229.609 179.209 229.603C179.329 229.593 179.44 229.581 179.541 229.568C179.642 229.555 179.736 229.541 179.824 229.524C179.915 229.505 180.003 229.487 180.088 229.471V227.342H178.628V226.541ZM182.114 228.04V227.22H184.536V228.04H182.114ZM188.408 230.311H187.549V225.853C187.549 225.713 187.549 225.563 187.549 225.403C187.552 225.244 187.555 225.086 187.559 224.93C187.565 224.77 187.57 224.619 187.573 224.476C187.58 224.329 187.585 224.201 187.588 224.09C187.533 224.148 187.484 224.199 187.441 224.241C187.399 224.284 187.355 224.324 187.31 224.363C187.267 224.402 187.222 224.445 187.173 224.49C187.124 224.533 187.065 224.583 186.997 224.642L186.274 225.232L185.806 224.632L187.676 223.172H188.408V230.311ZM195.137 224.842C195.137 225.079 195.099 225.296 195.024 225.491C194.95 225.687 194.844 225.856 194.707 225.999C194.574 226.142 194.412 226.261 194.224 226.355C194.035 226.447 193.825 226.512 193.594 226.551V226.58C194.17 226.652 194.608 226.836 194.907 227.132C195.207 227.425 195.356 227.807 195.356 228.279C195.356 228.592 195.303 228.878 195.195 229.139C195.091 229.399 194.932 229.624 194.717 229.812C194.502 230.001 194.23 230.148 193.901 230.252C193.573 230.356 193.184 230.408 192.734 230.408C192.38 230.408 192.044 230.381 191.729 230.325C191.416 230.27 191.121 230.169 190.845 230.022V229.192C191.128 229.342 191.434 229.458 191.763 229.539C192.095 229.62 192.412 229.661 192.715 229.661C193.014 229.661 193.273 229.629 193.491 229.563C193.709 229.498 193.888 229.406 194.028 229.285C194.172 229.165 194.276 229.017 194.341 228.841C194.409 228.665 194.443 228.468 194.443 228.25C194.443 228.029 194.399 227.84 194.312 227.684C194.227 227.524 194.105 227.394 193.945 227.293C193.786 227.189 193.59 227.112 193.359 227.063C193.132 227.015 192.873 226.99 192.583 226.99H191.934V226.253H192.583C192.847 226.253 193.081 226.22 193.286 226.155C193.491 226.09 193.662 225.997 193.799 225.877C193.939 225.757 194.045 225.613 194.116 225.447C194.188 225.281 194.224 225.099 194.224 224.9C194.224 224.731 194.194 224.58 194.136 224.446C194.077 224.313 193.994 224.201 193.887 224.109C193.779 224.015 193.651 223.943 193.501 223.895C193.351 223.846 193.185 223.821 193.003 223.821C192.655 223.821 192.347 223.877 192.08 223.987C191.816 224.095 191.564 224.236 191.323 224.412L190.874 223.802C190.998 223.701 191.134 223.606 191.284 223.519C191.437 223.431 191.603 223.354 191.782 223.289C191.961 223.221 192.152 223.167 192.354 223.128C192.559 223.089 192.775 223.069 193.003 223.069C193.354 223.069 193.662 223.113 193.926 223.201C194.193 223.289 194.416 223.413 194.595 223.572C194.774 223.729 194.909 223.916 195 224.134C195.091 224.349 195.137 224.585 195.137 224.842Z" fill="white"/>
<path d="M167 220.811H198V218.811H167V220.811ZM200 222.811V230.811H202V222.811H200ZM198 232.811H167V234.811H198V232.811ZM165 230.811V222.811H163V230.811H165ZM167 232.811C165.895 232.811 165 231.915 165 230.811H163C163 233.02 164.791 234.811 167 234.811V232.811ZM200 230.811C200 231.915 199.105 232.811 198 232.811V234.811C200.209 234.811 202 233.02 202 230.811H200ZM198 220.811C199.105 220.811 200 221.706 200 222.811H202C202 220.601 200.209 218.811 198 218.811V220.811ZM167 218.811C164.791 218.811 163 220.601 163 222.811H165C165 221.706 165.895 220.811 167 220.811V218.811Z" fill="white"/>
<circle cx="20.5" cy="250.811" r="1.5" fill="#E1E1E1" fill-opacity="0.5"/>
<path d="M34.7227 250.718C34.7227 251.561 34.6133 252.301 34.3945 252.939C34.1758 253.573 33.859 254.104 33.4443 254.532C33.0296 254.956 32.5192 255.275 31.9131 255.489C31.3115 255.703 30.6279 255.811 29.8623 255.811H27.3604V245.816H30.1426C30.8398 245.816 31.471 245.921 32.0361 246.131C32.6012 246.34 33.082 246.653 33.4785 247.067C33.875 247.478 34.1803 247.988 34.3945 248.599C34.6133 249.209 34.7227 249.916 34.7227 250.718ZM33.376 250.759C33.376 250.093 33.3008 249.519 33.1504 249.036C33 248.549 32.7812 248.147 32.4941 247.833C32.207 247.519 31.8538 247.286 31.4346 247.136C31.0153 246.981 30.5391 246.903 30.0059 246.903H28.6318V254.717H29.7393C30.9424 254.717 31.8493 254.384 32.46 253.719C33.0706 253.053 33.376 252.067 33.376 250.759ZM40.0205 248.168C40.1527 248.168 40.3008 248.175 40.4648 248.188C40.6289 248.198 40.7702 248.214 40.8887 248.236L40.7246 249.385C40.597 249.362 40.4648 249.344 40.3281 249.33C40.196 249.312 40.0706 249.303 39.9521 249.303C39.665 249.303 39.403 249.362 39.166 249.48C38.929 249.594 38.724 249.761 38.5508 249.979C38.3822 250.194 38.25 250.453 38.1543 250.759C38.0632 251.06 38.0176 251.395 38.0176 251.764V255.811H36.7734V248.305H37.7852L37.9355 249.679H37.9902C38.1042 249.483 38.2249 249.294 38.3525 249.111C38.4847 248.929 38.6305 248.77 38.79 248.633C38.9541 248.492 39.1364 248.38 39.3369 248.298C39.5374 248.211 39.7653 248.168 40.0205 248.168ZM46.46 255.811L46.207 254.771H46.1523C46.002 254.977 45.8516 255.154 45.7012 255.305C45.5508 255.451 45.3867 255.571 45.209 255.667C45.0312 255.763 44.833 255.833 44.6143 255.879C44.3955 255.924 44.1426 255.947 43.8555 255.947C43.541 255.947 43.2516 255.902 42.9873 255.811C42.723 255.724 42.4928 255.59 42.2969 255.407C42.1055 255.22 41.9551 254.988 41.8457 254.71C41.7363 254.427 41.6816 254.095 41.6816 253.712C41.6816 252.965 41.9437 252.39 42.4678 251.989C42.9964 251.588 43.7985 251.369 44.874 251.333L46.1318 251.285V250.813C46.1318 250.508 46.0977 250.253 46.0293 250.048C45.9655 249.843 45.8698 249.679 45.7422 249.556C45.6191 249.428 45.4642 249.337 45.2773 249.282C45.0951 249.228 44.8854 249.2 44.6484 249.2C44.2702 249.2 43.917 249.255 43.5889 249.364C43.2653 249.474 42.9531 249.606 42.6523 249.761L42.2148 248.824C42.5521 248.642 42.9281 248.487 43.3428 248.359C43.7575 248.232 44.1927 248.168 44.6484 248.168C45.1133 248.168 45.5143 248.216 45.8516 248.312C46.1934 248.403 46.4736 248.551 46.6924 248.756C46.9157 248.956 47.082 249.214 47.1914 249.528C47.3008 249.843 47.3555 250.223 47.3555 250.67V255.811H46.46ZM44.1768 254.942C44.4548 254.942 44.7122 254.899 44.9492 254.812C45.1862 254.726 45.3913 254.596 45.5645 254.423C45.7376 254.245 45.8721 254.024 45.9678 253.76C46.068 253.491 46.1182 253.176 46.1182 252.816V252.14L45.1406 252.188C44.7305 252.206 44.3864 252.251 44.1084 252.324C43.8304 252.397 43.6071 252.5 43.4385 252.632C43.2744 252.759 43.1559 252.917 43.083 253.104C43.0101 253.286 42.9736 253.493 42.9736 253.726C42.9736 254.145 43.083 254.452 43.3018 254.648C43.5251 254.844 43.8167 254.942 44.1768 254.942ZM58.6553 255.811V250.978C58.6553 250.385 58.5413 249.941 58.3135 249.645C58.0856 249.348 57.7324 249.2 57.2539 249.2C56.9212 249.2 56.6387 249.255 56.4062 249.364C56.1738 249.469 55.9824 249.626 55.832 249.836C55.6862 250.041 55.5791 250.299 55.5107 250.608C55.4424 250.914 55.4082 251.267 55.4082 251.668V255.811H54.1572V250.978C54.1572 250.385 54.0433 249.941 53.8154 249.645C53.5921 249.348 53.2412 249.2 52.7627 249.2C52.4118 249.2 52.1178 249.259 51.8809 249.378C51.6439 249.496 51.4525 249.672 51.3066 249.904C51.1654 250.137 51.0628 250.422 50.999 250.759C50.9398 251.096 50.9102 251.483 50.9102 251.921V255.811H49.666V248.305H50.6777L50.8555 249.316H50.9238C51.0332 249.12 51.1631 248.952 51.3135 248.811C51.4639 248.665 51.6279 248.544 51.8057 248.448C51.988 248.353 52.1794 248.282 52.3799 248.236C52.585 248.191 52.7923 248.168 53.002 248.168C53.5488 248.168 54.0023 248.268 54.3623 248.469C54.7269 248.669 54.9958 248.984 55.1689 249.412H55.2236C55.3421 249.198 55.4834 249.013 55.6475 248.858C55.8161 248.703 55.9984 248.576 56.1943 248.476C56.3949 248.371 56.6045 248.293 56.8232 248.243C57.042 248.193 57.2653 248.168 57.4932 248.168C58.2907 248.168 58.89 248.387 59.291 248.824C59.6966 249.257 59.8994 249.952 59.8994 250.909V255.811H58.6553ZM66.4482 255.811L66.1953 254.771H66.1406C65.9902 254.977 65.8398 255.154 65.6895 255.305C65.5391 255.451 65.375 255.571 65.1973 255.667C65.0195 255.763 64.8213 255.833 64.6025 255.879C64.3838 255.924 64.1309 255.947 63.8438 255.947C63.5293 255.947 63.2399 255.902 62.9756 255.811C62.7113 255.724 62.4811 255.59 62.2852 255.407C62.0938 255.22 61.9434 254.988 61.834 254.71C61.7246 254.427 61.6699 254.095 61.6699 253.712C61.6699 252.965 61.932 252.39 62.4561 251.989C62.9847 251.588 63.7868 251.369 64.8623 251.333L66.1201 251.285V250.813C66.1201 250.508 66.0859 250.253 66.0176 250.048C65.9538 249.843 65.8581 249.679 65.7305 249.556C65.6074 249.428 65.4525 249.337 65.2656 249.282C65.0833 249.228 64.8737 249.2 64.6367 249.2C64.2585 249.2 63.9053 249.255 63.5771 249.364C63.2536 249.474 62.9414 249.606 62.6406 249.761L62.2031 248.824C62.5404 248.642 62.9163 248.487 63.3311 248.359C63.7458 248.232 64.181 248.168 64.6367 248.168C65.1016 248.168 65.5026 248.216 65.8398 248.312C66.1816 248.403 66.4619 248.551 66.6807 248.756C66.904 248.956 67.0703 249.214 67.1797 249.528C67.2891 249.843 67.3438 250.223 67.3438 250.67V255.811H66.4482ZM64.165 254.942C64.443 254.942 64.7005 254.899 64.9375 254.812C65.1745 254.726 65.3796 254.596 65.5527 254.423C65.7259 254.245 65.8604 254.024 65.9561 253.76C66.0563 253.491 66.1064 253.176 66.1064 252.816V252.14L65.1289 252.188C64.7188 252.206 64.3747 252.251 64.0967 252.324C63.8187 252.397 63.5954 252.5 63.4268 252.632C63.2627 252.759 63.1442 252.917 63.0713 253.104C62.9984 253.286 62.9619 253.493 62.9619 253.726C62.9619 254.145 63.0713 254.452 63.29 254.648C63.5133 254.844 63.805 254.942 64.165 254.942Z" fill="white"/>
<circle cx="80.5" cy="250.811" r="1.5" fill="#E1E1E1" fill-opacity="0.5"/>
<path d="M88.6318 251.682V255.811H87.3604V245.816H89.7939C91.0062 245.816 91.9017 246.051 92.4805 246.521C93.0592 246.99 93.3486 247.701 93.3486 248.653C93.3486 249.05 93.2917 249.396 93.1777 249.692C93.0684 249.989 92.9202 250.244 92.7334 250.458C92.5511 250.668 92.3415 250.843 92.1045 250.984C91.8675 251.126 91.6237 251.242 91.373 251.333L94.0938 255.811H92.5967L90.1973 251.682H88.6318ZM88.6318 250.602H89.7529C90.1631 250.602 90.5117 250.563 90.7988 250.485C91.0859 250.403 91.3206 250.285 91.5029 250.13C91.6898 249.97 91.8242 249.774 91.9062 249.542C91.9928 249.305 92.0361 249.029 92.0361 248.715C92.0361 248.387 91.9883 248.109 91.8926 247.881C91.8014 247.653 91.6602 247.466 91.4688 247.32C91.2819 247.174 91.0426 247.07 90.751 247.006C90.4639 246.938 90.1221 246.903 89.7256 246.903H88.6318V250.602ZM101.565 252.044C101.565 252.668 101.488 253.224 101.333 253.712C101.183 254.195 100.964 254.603 100.677 254.936C100.394 255.264 100.05 255.514 99.6445 255.688C99.2389 255.861 98.7832 255.947 98.2773 255.947C97.8079 255.947 97.375 255.861 96.9785 255.688C96.582 255.514 96.238 255.264 95.9463 254.936C95.6592 254.603 95.4336 254.195 95.2695 253.712C95.11 253.224 95.0303 252.668 95.0303 252.044C95.0303 251.424 95.1055 250.875 95.2559 250.396C95.4108 249.913 95.6296 249.508 95.9121 249.18C96.1947 248.847 96.5387 248.596 96.9443 248.428C97.3545 248.255 97.8125 248.168 98.3184 248.168C98.7878 248.168 99.2207 248.255 99.6172 248.428C100.014 248.596 100.355 248.847 100.643 249.18C100.934 249.508 101.16 249.913 101.319 250.396C101.483 250.875 101.565 251.424 101.565 252.044ZM96.3154 252.044C96.3154 252.996 96.4704 253.714 96.7803 254.197C97.0947 254.676 97.6029 254.915 98.3047 254.915C99.0065 254.915 99.5101 254.676 99.8154 254.197C100.125 253.714 100.28 252.996 100.28 252.044C100.28 251.091 100.123 250.381 99.8086 249.911C99.4987 249.437 98.9928 249.2 98.291 249.2C97.5892 249.2 97.0833 249.437 96.7734 249.911C96.4681 250.381 96.3154 251.091 96.3154 252.044ZM112.517 255.811V250.978C112.517 250.385 112.403 249.941 112.175 249.645C111.947 249.348 111.594 249.2 111.115 249.2C110.783 249.2 110.5 249.255 110.268 249.364C110.035 249.469 109.844 249.626 109.693 249.836C109.548 250.041 109.44 250.299 109.372 250.608C109.304 250.914 109.27 251.267 109.27 251.668V255.811H108.019V250.978C108.019 250.385 107.905 249.941 107.677 249.645C107.453 249.348 107.103 249.2 106.624 249.2C106.273 249.2 105.979 249.259 105.742 249.378C105.505 249.496 105.314 249.672 105.168 249.904C105.027 250.137 104.924 250.422 104.86 250.759C104.801 251.096 104.771 251.483 104.771 251.921V255.811H103.527V248.305H104.539L104.717 249.316H104.785C104.895 249.12 105.024 248.952 105.175 248.811C105.325 248.665 105.489 248.544 105.667 248.448C105.849 248.353 106.041 248.282 106.241 248.236C106.446 248.191 106.654 248.168 106.863 248.168C107.41 248.168 107.864 248.268 108.224 248.469C108.588 248.669 108.857 248.984 109.03 249.412H109.085C109.203 249.198 109.345 249.013 109.509 248.858C109.677 248.703 109.86 248.576 110.056 248.476C110.256 248.371 110.466 248.293 110.685 248.243C110.903 248.193 111.127 248.168 111.354 248.168C112.152 248.168 112.751 248.387 113.152 248.824C113.558 249.257 113.761 249.952 113.761 250.909V255.811H112.517ZM120.31 255.811L120.057 254.771H120.002C119.852 254.977 119.701 255.154 119.551 255.305C119.4 255.451 119.236 255.571 119.059 255.667C118.881 255.763 118.683 255.833 118.464 255.879C118.245 255.924 117.992 255.947 117.705 255.947C117.391 255.947 117.101 255.902 116.837 255.811C116.573 255.724 116.342 255.59 116.146 255.407C115.955 255.22 115.805 254.988 115.695 254.71C115.586 254.427 115.531 254.095 115.531 253.712C115.531 252.965 115.793 252.39 116.317 251.989C116.846 251.588 117.648 251.369 118.724 251.333L119.981 251.285V250.813C119.981 250.508 119.947 250.253 119.879 250.048C119.815 249.843 119.719 249.679 119.592 249.556C119.469 249.428 119.314 249.337 119.127 249.282C118.945 249.228 118.735 249.2 118.498 249.2C118.12 249.2 117.767 249.255 117.438 249.364C117.115 249.474 116.803 249.606 116.502 249.761L116.064 248.824C116.402 248.642 116.778 248.487 117.192 248.359C117.607 248.232 118.042 248.168 118.498 248.168C118.963 248.168 119.364 248.216 119.701 248.312C120.043 248.403 120.323 248.551 120.542 248.756C120.765 248.956 120.932 249.214 121.041 249.528C121.15 249.843 121.205 250.223 121.205 250.67V255.811H120.31ZM118.026 254.942C118.304 254.942 118.562 254.899 118.799 254.812C119.036 254.726 119.241 254.596 119.414 254.423C119.587 254.245 119.722 254.024 119.817 253.76C119.918 253.491 119.968 253.176 119.968 252.816V252.14L118.99 252.188C118.58 252.206 118.236 252.251 117.958 252.324C117.68 252.397 117.457 252.5 117.288 252.632C117.124 252.759 117.006 252.917 116.933 253.104C116.86 253.286 116.823 253.493 116.823 253.726C116.823 254.145 116.933 254.452 117.151 254.648C117.375 254.844 117.666 254.942 118.026 254.942ZM128.205 255.811V250.978C128.205 250.385 128.084 249.941 127.843 249.645C127.606 249.348 127.232 249.2 126.722 249.2C126.353 249.2 126.043 249.259 125.792 249.378C125.541 249.496 125.339 249.672 125.184 249.904C125.033 250.137 124.924 250.422 124.855 250.759C124.792 251.096 124.76 251.483 124.76 251.921V255.811H123.516V248.305H124.527L124.705 249.316H124.773C124.887 249.12 125.022 248.952 125.177 248.811C125.336 248.665 125.509 248.544 125.696 248.448C125.883 248.353 126.081 248.282 126.291 248.236C126.501 248.191 126.715 248.168 126.934 248.168C127.768 248.168 128.394 248.387 128.813 248.824C129.237 249.257 129.449 249.952 129.449 250.909V255.811H128.205ZM134.631 255.947C134.171 255.947 133.74 255.877 133.339 255.735C132.938 255.59 132.589 255.362 132.293 255.052C131.997 254.737 131.764 254.339 131.596 253.855C131.427 253.368 131.343 252.782 131.343 252.099C131.343 251.383 131.429 250.777 131.603 250.28C131.776 249.779 132.013 249.373 132.313 249.063C132.619 248.749 132.974 248.521 133.38 248.38C133.785 248.239 134.221 248.168 134.686 248.168C135.041 248.168 135.387 248.207 135.725 248.284C136.066 248.362 136.351 248.457 136.579 248.571L136.21 249.624C136.105 249.578 135.989 249.535 135.861 249.494C135.734 249.449 135.602 249.41 135.465 249.378C135.328 249.341 135.194 249.314 135.062 249.296C134.929 249.273 134.804 249.262 134.686 249.262C133.97 249.262 133.448 249.492 133.12 249.952C132.792 250.408 132.628 251.119 132.628 252.085C132.628 253.047 132.792 253.751 133.12 254.197C133.453 254.639 133.956 254.86 134.631 254.86C135 254.86 135.333 254.819 135.629 254.737C135.93 254.651 136.203 254.55 136.449 254.437V255.544C136.203 255.676 135.939 255.776 135.656 255.845C135.378 255.913 135.036 255.947 134.631 255.947ZM141.207 255.947C140.706 255.947 140.248 255.863 139.833 255.694C139.418 255.526 139.061 255.28 138.76 254.956C138.464 254.632 138.233 254.231 138.069 253.753C137.905 253.274 137.823 252.728 137.823 252.112C137.823 251.493 137.898 250.939 138.049 250.451C138.199 249.964 138.411 249.551 138.685 249.214C138.958 248.872 139.284 248.612 139.662 248.435C140.045 248.257 140.466 248.168 140.927 248.168C141.378 248.168 141.784 248.25 142.144 248.414C142.504 248.574 142.809 248.801 143.06 249.098C143.31 249.389 143.502 249.743 143.634 250.157C143.771 250.567 143.839 251.023 143.839 251.524V252.297H139.108C139.131 253.176 139.316 253.824 139.662 254.238C140.013 254.653 140.533 254.86 141.221 254.86C141.453 254.86 141.667 254.849 141.863 254.826C142.064 254.803 142.255 254.771 142.438 254.73C142.624 254.685 142.804 254.63 142.978 254.566C143.151 254.498 143.326 254.423 143.504 254.341V255.448C143.322 255.535 143.142 255.61 142.964 255.674C142.791 255.738 142.611 255.79 142.424 255.831C142.242 255.872 142.05 255.902 141.85 255.92C141.654 255.938 141.439 255.947 141.207 255.947ZM140.899 249.2C140.38 249.2 139.967 249.378 139.662 249.733C139.361 250.089 139.186 250.606 139.136 251.285H142.499C142.499 250.975 142.467 250.693 142.403 250.438C142.344 250.178 142.248 249.957 142.116 249.774C141.989 249.592 141.825 249.451 141.624 249.351C141.424 249.25 141.182 249.2 140.899 249.2Z" fill="white"/>
<path d="M343.4 239.75C347.937 239.75 351.65 243.463 351.65 248C351.65 252.538 347.937 256.25 343.4 256.25C338.862 256.25 335.15 252.538 335.15 248C335.15 243.463 338.862 239.75 343.4 239.75ZM343.4 238.375C338.106 238.375 333.775 242.706 333.775 248C333.775 253.294 338.106 257.625 343.4 257.625C348.694 257.625 353.025 253.294 353.025 248C353.025 242.706 348.694 238.375 343.4 238.375Z" fill="white"/>
<path d="M348.9 247.312H344.087V242.5H342.712V247.312H337.9V248.688H342.712V253.5H344.087V248.688H348.9V247.312Z" fill="white"/>
<path d="M375.667 244.276C375.005 243.608 374.316 243.026 373.598 242.532C372.881 242.037 372.209 241.666 371.582 241.419C370.955 241.172 370.381 241.053 369.859 241.063C369.336 241.073 368.929 241.228 368.636 241.529C368.567 241.596 368.508 241.671 368.459 241.755C368.41 241.838 368.375 241.903 368.354 241.95C368.333 241.997 368.306 242.081 368.271 242.201C368.236 242.321 368.212 242.398 368.198 242.432L364.312 254.703L364.552 254.944C364.28 255.124 364.038 255.335 363.826 255.576C363.613 255.816 363.427 256.013 363.267 256.167C363.107 256.321 362.915 256.428 362.692 256.488C362.644 256.501 362.583 256.547 362.51 256.623C362.436 256.7 362.4 256.769 362.4 256.829C362.4 256.949 362.463 257.049 362.588 257.13C362.713 257.21 362.853 257.25 363.006 257.25C363.201 257.25 363.389 257.175 363.57 257.024C363.751 256.874 363.934 256.682 364.118 256.448C364.303 256.214 364.437 256.06 364.521 255.987C364.702 255.833 364.904 255.686 365.126 255.546L365.398 255.796L377.746 251.776C378.017 251.696 378.226 251.575 378.372 251.415C378.665 251.114 378.816 250.698 378.827 250.167C378.837 249.635 378.721 249.05 378.477 248.412C378.233 247.774 377.869 247.092 377.385 246.367C376.901 245.642 376.328 244.945 375.667 244.276ZM374.539 245.369C375.604 246.412 376.414 247.409 376.967 248.362C377.521 249.314 377.655 249.941 377.37 250.242C377.084 250.543 376.461 250.432 375.5 249.911C374.539 249.39 373.529 248.611 372.47 247.575C371.398 246.532 370.585 245.536 370.031 244.587C369.477 243.638 369.343 243.01 369.629 242.702C369.914 242.401 370.539 242.512 371.504 243.033C372.468 243.554 373.48 244.333 374.539 245.369ZM372.251 249.52C372.759 249.954 373.264 250.335 373.766 250.663C373.772 250.676 373.947 250.99 374.288 251.605L373.41 251.896C372.992 251.141 372.606 250.349 372.251 249.52ZM368.689 244.928C368.842 245.256 369.054 245.653 369.326 246.121C369.549 247.084 369.899 248.126 370.376 249.249C370.853 250.372 371.373 251.425 371.937 252.407L371.07 252.688C370.416 251.525 369.845 250.307 369.357 249.034C368.87 247.76 368.57 246.636 368.459 245.66L368.689 244.928ZM367.477 248.598C367.964 250.095 368.65 251.632 369.535 253.21L368.678 253.5C367.989 252.23 367.445 251.037 367.049 249.921L367.477 248.598ZM366.275 252.257C366.547 252.872 366.836 253.457 367.143 254.012L366.286 254.302C366.188 254.122 366.049 253.844 365.868 253.47L366.275 252.257ZM373.954 238L374.476 239.514L373.128 240.456H374.789L375.301 241.97L375.813 240.456H377.464L376.126 239.514L376.649 238.01L375.301 238.942L373.954 238ZM371.029 238L370.747 239.374L372.178 239.644L372.46 238.271L371.029 238ZM380.441 242.131L381.59 240.978L383.084 241.68L382.311 240.276L383.47 239.143L381.83 239.414L381.057 238L380.827 239.584L379.187 239.855L380.681 240.547L380.441 242.131ZM380.054 244.597L381.444 245.479L381.005 247.023L382.3 246.021L383.679 246.903L383.105 245.399L384.4 244.417L382.739 244.487L382.154 242.993L381.726 244.527L380.054 244.597ZM379.459 240.877L376.346 243.324L376.732 243.775L379.845 241.329L379.459 240.877ZM380.545 245.61L378.111 245.399L378.049 245.981L380.493 246.191L380.545 245.61ZM380.785 248.417L380.336 249.761L381.726 250.192L382.185 248.858L380.785 248.417Z" fill="white"/>
<path d="M403.15 243.833C403.656 243.833 404.067 243.423 404.067 242.917C404.067 242.41 403.656 242 403.15 242C402.644 242 402.233 242.41 402.233 242.917C402.233 243.423 402.644 243.833 403.15 243.833Z" fill="white"/>
<path d="M405.747 251.41H404.219V245.055H401.928C401.725 245.055 401.531 245.138 401.388 245.287C401.244 245.436 401.164 245.638 401.164 245.849C401.164 246.06 401.244 246.262 401.388 246.411C401.531 246.56 401.725 246.644 401.928 246.644H402.692V251.41H401.164C400.961 251.41 400.767 251.494 400.624 251.643C400.48 251.792 400.4 251.994 400.4 252.205C400.4 252.415 400.48 252.617 400.624 252.766C400.767 252.915 400.961 252.999 401.164 252.999H405.747C405.95 252.999 406.144 252.915 406.287 252.766C406.431 252.617 406.511 252.415 406.511 252.205C406.511 251.994 406.431 251.792 406.287 251.643C406.144 251.494 405.95 251.41 405.747 251.41Z" fill="white"/>
<path d="M403.025 238C401.121 238 399.26 238.564 397.678 239.622C396.095 240.68 394.861 242.183 394.133 243.942C393.404 245.7 393.213 247.636 393.585 249.503C393.956 251.37 394.873 253.085 396.219 254.431C397.565 255.777 399.28 256.694 401.147 257.065C403.014 257.436 404.949 257.246 406.708 256.517C408.467 255.789 409.97 254.555 411.028 252.972C412.085 251.39 412.65 249.529 412.65 247.625C412.65 245.072 411.636 242.624 409.831 240.819C408.026 239.014 405.578 238 403.025 238ZM403.025 255.646C401.439 255.646 399.888 255.175 398.569 254.294C397.25 253.413 396.222 252.16 395.615 250.694C395.008 249.229 394.849 247.616 395.158 246.06C395.468 244.504 396.232 243.075 397.353 241.953C398.475 240.832 399.904 240.068 401.46 239.758C403.016 239.449 404.629 239.608 406.094 240.215C407.56 240.822 408.813 241.85 409.694 243.169C410.575 244.488 411.046 246.039 411.046 247.625C411.046 248.678 410.838 249.721 410.435 250.694C410.032 251.668 409.441 252.552 408.696 253.297C407.952 254.041 407.067 254.632 406.094 255.035C405.121 255.438 404.078 255.646 403.025 255.646Z" fill="white"/>
<path d="M438.213 250.75C437.698 250.753 437.191 250.871 436.728 251.096C436.265 251.321 435.858 251.647 435.538 252.05L430.513 248.908C430.696 248.317 430.696 247.684 430.513 247.093L435.538 243.951C436.048 244.582 436.766 245.013 437.563 245.167C438.36 245.32 439.186 245.186 439.894 244.789C440.602 244.392 441.147 243.757 441.432 242.997C441.717 242.237 441.723 241.4 441.45 240.636C441.177 239.871 440.643 239.228 439.941 238.819C439.239 238.411 438.415 238.265 437.616 238.406C436.816 238.547 436.092 238.966 435.572 239.59C435.053 240.213 434.77 241.001 434.775 241.813C434.778 242.12 434.825 242.426 434.913 242.72L429.887 245.862C429.443 245.303 428.837 244.897 428.152 244.698C427.467 244.5 426.737 244.52 426.063 244.754C425.39 244.989 424.806 245.428 424.393 246.01C423.98 246.591 423.758 247.287 423.758 248C423.758 248.713 423.98 249.409 424.393 249.991C424.806 250.572 425.39 251.011 426.063 251.246C426.737 251.481 427.467 251.5 428.152 251.302C428.837 251.103 429.443 250.697 429.887 250.138L434.913 253.28C434.825 253.575 434.778 253.88 434.775 254.188C434.775 254.868 434.977 255.532 435.355 256.097C435.732 256.663 436.269 257.103 436.897 257.363C437.525 257.624 438.217 257.692 438.883 257.559C439.55 257.426 440.163 257.099 440.643 256.618C441.124 256.138 441.452 255.525 441.584 254.858C441.717 254.191 441.649 253.5 441.389 252.872C441.128 252.244 440.688 251.707 440.123 251.329C439.557 250.952 438.893 250.75 438.213 250.75ZM438.213 239.75C438.621 239.75 439.019 239.871 439.359 240.098C439.698 240.324 439.962 240.646 440.118 241.023C440.274 241.4 440.315 241.815 440.236 242.215C440.156 242.615 439.96 242.983 439.671 243.271C439.383 243.559 439.015 243.756 438.615 243.836C438.215 243.915 437.8 243.874 437.423 243.718C437.047 243.562 436.724 243.298 436.498 242.959C436.271 242.619 436.15 242.221 436.15 241.813C436.15 241.266 436.368 240.741 436.754 240.354C437.141 239.967 437.666 239.75 438.213 239.75ZM427.213 250.063C426.805 250.063 426.406 249.942 426.067 249.715C425.728 249.488 425.463 249.166 425.307 248.789C425.151 248.413 425.11 247.998 425.19 247.598C425.269 247.198 425.466 246.83 425.754 246.542C426.043 246.253 426.41 246.057 426.81 245.977C427.21 245.898 427.625 245.939 428.002 246.095C428.379 246.251 428.701 246.515 428.928 246.854C429.154 247.193 429.275 247.592 429.275 248C429.275 248.547 429.058 249.072 428.671 249.459C428.284 249.845 427.76 250.063 427.213 250.063ZM438.213 256.25C437.805 256.25 437.406 256.129 437.067 255.903C436.728 255.676 436.463 255.354 436.307 254.977C436.151 254.6 436.11 254.185 436.19 253.785C436.269 253.385 436.466 253.018 436.754 252.729C437.043 252.441 437.41 252.244 437.81 252.165C438.21 252.085 438.625 252.126 439.002 252.282C439.379 252.438 439.701 252.703 439.928 253.042C440.154 253.381 440.275 253.78 440.275 254.188C440.275 254.735 440.058 255.259 439.671 255.646C439.284 256.033 438.76 256.25 438.213 256.25Z" fill="white"/>
<path d="M469.816 238.834H458.147C457.503 238.834 456.88 239.06 456.386 239.472C455.892 239.884 455.558 240.456 455.442 241.089L454.278 247.506C454.206 247.902 454.221 248.31 454.324 248.699C454.426 249.089 454.613 249.452 454.871 249.761C455.129 250.071 455.452 250.32 455.816 250.491C456.181 250.662 456.579 250.751 456.982 250.751H461.162L460.649 252.061C460.436 252.635 460.364 253.253 460.442 253.86C460.519 254.468 460.743 255.047 461.093 255.549C461.444 256.051 461.911 256.461 462.455 256.743C462.999 257.024 463.603 257.17 464.215 257.167C464.391 257.167 464.564 257.116 464.712 257.02C464.86 256.924 464.977 256.787 465.049 256.626L467.662 250.751H469.816C470.545 250.751 471.245 250.461 471.76 249.945C472.276 249.429 472.566 248.73 472.566 248.001V241.584C472.566 240.855 472.276 240.155 471.76 239.639C471.245 239.124 470.545 238.834 469.816 238.834ZM466.149 249.641L463.656 255.251C463.401 255.174 463.164 255.046 462.96 254.874C462.757 254.701 462.591 254.49 462.472 254.251C462.354 254.012 462.285 253.752 462.271 253.485C462.257 253.219 462.298 252.953 462.391 252.703L462.877 251.392C462.98 251.115 463.015 250.817 462.978 250.524C462.942 250.23 462.835 249.95 462.666 249.707C462.498 249.464 462.273 249.265 462.011 249.127C461.749 248.99 461.458 248.918 461.162 248.917H456.982C456.848 248.918 456.715 248.888 456.593 248.831C456.471 248.774 456.363 248.691 456.277 248.587C456.188 248.485 456.124 248.365 456.087 248.235C456.051 248.105 456.043 247.969 456.066 247.836L457.23 241.419C457.269 241.205 457.383 241.013 457.55 240.875C457.718 240.737 457.93 240.664 458.147 240.667H466.149V249.641ZM470.732 248.001C470.732 248.244 470.636 248.477 470.464 248.649C470.292 248.821 470.059 248.917 469.816 248.917H467.982V240.667H469.816C470.059 240.667 470.292 240.764 470.464 240.936C470.636 241.108 470.732 241.341 470.732 241.584V248.001Z" fill="white"/>
</g>
<path d="M247 117C251.747 117 256.387 118.408 260.334 121.045C264.28 123.682 267.357 127.43 269.173 131.816C270.99 136.201 271.465 141.027 270.539 145.682C269.613 150.338 267.327 154.614 263.971 157.971C260.614 161.327 256.338 163.613 251.682 164.539C247.027 165.465 242.201 164.99 237.816 163.173C233.43 161.357 229.682 158.28 227.045 154.334C224.408 150.387 223 145.747 223 141C223 134.635 225.529 128.53 230.029 124.029C234.53 119.529 240.635 117 247 117ZM247 113C241.462 113 236.049 114.642 231.444 117.719C226.839 120.796 223.251 125.169 221.131 130.285C219.012 135.401 218.458 141.031 219.538 146.463C220.618 151.894 223.285 156.883 227.201 160.799C231.117 164.715 236.106 167.382 241.537 168.462C246.969 169.542 252.599 168.988 257.715 166.869C262.831 164.749 267.204 161.161 270.281 156.556C273.358 151.951 275 146.538 275 141C275 133.574 272.05 126.452 266.799 121.201C261.548 115.95 254.426 113 247 113Z" fill="white" fill-opacity="0.6"/>
<path d="M239 155C238.641 155 238.289 154.903 237.98 154.72C237.681 154.543 237.434 154.291 237.262 153.989C237.09 153.688 237 153.347 237 153V129C237 128.653 237.09 128.311 237.262 128.01C237.434 127.708 237.681 127.457 237.98 127.28C238.284 127.104 238.629 127.012 238.98 127.012C239.331 127.012 239.676 127.104 239.98 127.28L261.98 139.28C262.298 139.451 262.563 139.705 262.748 140.015C262.932 140.325 263.03 140.679 263.03 141.04C263.03 141.4 262.932 141.755 262.748 142.064C262.563 142.374 262.298 142.628 261.98 142.8L239.98 154.8C239.676 154.948 239.338 155.017 239 155ZM241 132.36V149.64L256.82 141L241 132.36Z" fill="white" fill-opacity="0.6"/>
<path d="M20 31C20 24.9249 24.9249 20 31 20H53C59.0751 20 64 24.9249 64 31C64 37.0751 59.0751 42 53 42H31C24.9249 42 20 37.0751 20 31Z" fill="white" fill-opacity="0.8"/>
<path fill-rule="evenodd" clip-rule="evenodd" d="M27 27.7191V36H28.3736C28.4165 36 28.5195 35.9753 28.5882 35.8764V33.2397C30.1335 34.3109 32.8807 33.7753 32.8807 30.5206C32.8807 27.5131 30.2193 26.8127 28.4165 28.2135C28.4022 28.0762 28.3221 27.785 28.116 27.7191H27ZM30.6915 29.1199C29.9704 28.4936 28.9888 28.8589 28.5882 29.1199V32.0861C29.6871 32.8112 30.4483 32.3883 30.6915 32.0861C31.0006 31.9543 31.0778 30.9875 31.0778 30.5206C31.1122 29.7955 30.8346 29.2846 30.6915 29.1199Z" fill="#00A8E1"/>
<path d="M34.0396 33.4457V27.8839C34.0396 27.829 34.074 27.7109 34.2113 27.6779H35.2844C35.3417 27.6367 35.499 27.7356 35.6707 28.4607C35.6851 28.5019 35.7308 28.5678 35.7995 28.5019C35.8854 28.4195 36.7009 27.5543 37.5594 27.6367C37.9028 27.6367 37.9887 27.774 37.9887 27.8427V28.9963C37.9744 29.0649 37.9114 29.2022 37.774 29.2022C36.5722 29.1363 35.9569 29.3396 35.7995 29.4494V33.4457C35.7995 33.4869 35.7738 33.5775 35.6707 33.6105H34.1684C34.1255 33.6105 34.0396 33.5775 34.0396 33.4457Z" fill="#00A8E1"/>
<path d="M39.0189 27.6779H40.3066C40.3781 27.6916 40.5212 27.7521 40.5212 27.8839V33.4457C40.5069 33.4869 40.4525 33.5775 40.3495 33.6105H38.9759C38.9187 33.5968 38.7956 33.5446 38.7613 33.4457L38.8042 27.8839C38.8042 27.829 38.8472 27.7109 39.0189 27.6779Z" fill="#00A8E1"/>
<path d="M39.3622 26.7303C39.491 26.7441 39.7915 26.7633 39.9632 26.7303C40.1349 26.6974 40.3209 26.5793 40.3924 26.5243C40.5641 26.3596 40.65 26.1124 40.65 25.8652C40.65 25.5356 40.5641 25.412 40.4354 25.2472C40.3495 25.1785 40.1778 25 39.9632 25H39.3622C39.2049 25.0412 38.8643 25.1483 38.7613 25.412C38.6583 25.6757 38.6755 25.7553 38.6755 25.9064C38.6755 26.0574 38.7579 26.3563 38.933 26.5243C39.1081 26.6924 39.2907 26.7166 39.3622 26.7303Z" fill="#00A8E1"/>
<path d="M43.6547 28.2547C43.6118 28.0899 43.4916 27.7521 43.3542 27.7191C43.2169 27.6861 42.5244 27.7054 42.1953 27.7191C42.138 27.7191 42.0236 27.7521 42.0236 27.8839V33.4457C42.0379 33.4869 42.0922 33.5775 42.1953 33.6105C42.2983 33.6434 43.1539 33.6242 43.5688 33.6105C43.6261 33.5968 43.7577 33.5446 43.8264 33.4457L43.7835 29.161C44.0267 29.0237 44.6248 28.7655 45.0712 28.8315C45.6292 28.8727 45.8009 29.1336 45.8438 29.2846L45.8868 33.4457C45.9011 33.5006 45.9554 33.6105 46.0585 33.6105H47.475C47.5179 33.5968 47.6123 33.5446 47.6467 33.4457V29.161C47.847 29.01 48.3764 28.7243 48.8915 28.7903C49.4066 28.8562 49.6212 29.1748 49.6641 29.3258V33.3633C49.6641 33.432 49.6985 33.5775 49.8358 33.6105H51.3382C51.3811 33.583 51.467 33.4951 51.467 33.3633V29.0787C51.4383 28.5705 51.0549 27.5461 49.75 27.5131C48.4451 27.4801 47.661 27.9938 47.4321 28.2547C47.2747 28.0075 46.7453 27.5131 45.8868 27.5131C45.0283 27.5131 44.041 28.0075 43.6547 28.2547Z" fill="#00A8E1"/>
<path fill-rule="evenodd" clip-rule="evenodd" d="M54.1283 31.0974C54.071 31.8252 54.6605 33.0831 57.4764 32.2921C57.6481 32.2262 57.691 32.4569 57.691 32.5805V33.1985C57.5336 33.4045 56.9098 33.8165 55.6735 33.8165C53.2698 33.8165 52.583 32.2235 52.5401 31.427C52.3827 30.7678 52.3598 29.194 53.5273 28.1723C55.1756 26.9858 56.8182 27.6779 57.4335 28.1723C57.8198 28.5156 58.395 29.4494 57.6052 30.4382C56.8153 31.427 54.9581 31.2896 54.1283 31.0974ZM55.4589 28.7079C54.3944 28.7079 54.1283 29.6417 54.1283 30.1086C54.4574 30.1498 55.21 30.224 55.5877 30.191C55.9654 30.1581 56.203 29.9301 56.2745 29.8202C56.4462 29.4494 56.5235 28.7079 55.4589 28.7079Z" fill="#00A8E1"/>
<path fill-rule="evenodd" clip-rule="evenodd" d="M27 27.7191V36H28.3736C28.4165 36 28.5195 35.9753 28.5882 35.8764V33.2397C30.1335 34.3109 32.8807 33.7753 32.8807 30.5206C32.8807 27.5131 30.2193 26.8127 28.4165 28.2135C28.4022 28.0762 28.3221 27.785 28.116 27.7191H27ZM30.6915 29.1199C29.9704 28.4936 28.9888 28.8589 28.5882 29.1199V32.0861C29.6871 32.8112 30.4483 32.3883 30.6915 32.0861C31.0006 31.9543 31.0778 30.9875 31.0778 30.5206C31.1122 29.7955 30.8346 29.2846 30.6915 29.1199Z" fill="#00A8E1"/>
<defs>
<linearGradient id="paint0_linear" x1="92.75" y1="81.1765" x2="52.8637" y2="38.8258" gradientUnits="userSpaceOnUse">
<stop stop-color="#1B1B1B"/>
<stop offset="1" stop-color="#1B1B1B" stop-opacity="0"/>
</linearGradient>
<linearGradient id="paint1_linear" x1="16.9914" y1="224.27" x2="184.124" y2="224.938" gradientUnits="userSpaceOnUse">
<stop stop-opacity="0"/>
<stop stop-opacity="0"/>
<stop offset="1"/>
</linearGradient>
<clipPath id="clip0">
<rect width="219" height="494" fill="white" transform="translate(494 64) rotate(90)"/>
</clipPath>
<clipPath id="clip1">
<rect width="60.0157" height="15.1496" fill="white" transform="translate(25.9922 139.33)"/>
</clipPath>
</defs>
</svg>
