<svg width="326" height="200" viewBox="0 0 326 200" fill="none" xmlns="http://www.w3.org/2000/svg">
<path d="M20 31C20 24.9249 24.9249 20 31 20H53C59.0751 20 64 24.9249 64 31V31C64 37.0751 59.0751 42 53 42H31C24.9249 42 20 37.0751 20 31V31Z" fill="white" fill-opacity="0.8"/>
<path fill-rule="evenodd" clip-rule="evenodd" d="M27 27.7191V36H28.3736C28.4165 36 28.5195 35.9753 28.5882 35.8764V33.2397C30.1335 34.3109 32.8807 33.7753 32.8807 30.5206C32.8807 27.5131 30.2193 26.8127 28.4165 28.2135C28.4022 28.0762 28.3221 27.785 28.116 27.7191H27ZM30.6915 29.1199C29.9704 28.4936 28.9888 28.8589 28.5882 29.1199V32.0861C29.6871 32.8112 30.4483 32.3883 30.6915 32.0861C31.0006 31.9543 31.0778 30.9875 31.0778 30.5206C31.1122 29.7955 30.8346 29.2846 30.6915 29.1199Z" fill="#00A8E1"/>
<path d="M34.0396 33.4457V27.8839C34.0396 27.829 34.074 27.7109 34.2113 27.6779H35.2844C35.3417 27.6367 35.499 27.7356 35.6707 28.4607C35.6851 28.5019 35.7308 28.5678 35.7995 28.5019C35.8854 28.4195 36.7009 27.5543 37.5594 27.6367C37.9028 27.6367 37.9887 27.774 37.9887 27.8427V28.9963C37.9744 29.0649 37.9114 29.2022 37.774 29.2022C36.5722 29.1363 35.9569 29.3396 35.7995 29.4494V33.4457C35.7995 33.4869 35.7738 33.5775 35.6707 33.6105H34.1684C34.1255 33.6105 34.0396 33.5775 34.0396 33.4457Z" fill="#00A8E1"/>
<path d="M39.0189 27.6779H40.3066C40.3781 27.6916 40.5212 27.7521 40.5212 27.8839V33.4457C40.5069 33.4869 40.4525 33.5775 40.3495 33.6105H38.9759C38.9187 33.5968 38.7956 33.5446 38.7613 33.4457L38.8042 27.8839C38.8042 27.829 38.8472 27.7109 39.0189 27.6779Z" fill="#00A8E1"/>
<path d="M39.3622 26.7303C39.491 26.7441 39.7915 26.7633 39.9632 26.7303C40.1349 26.6974 40.3209 26.5793 40.3924 26.5243C40.5641 26.3596 40.65 26.1124 40.65 25.8652C40.65 25.5356 40.5641 25.412 40.4354 25.2472C40.3495 25.1785 40.1778 25 39.9632 25H39.3622C39.2049 25.0412 38.8643 25.1483 38.7613 25.412C38.6583 25.6757 38.6755 25.7553 38.6755 25.9064C38.6755 26.0574 38.7579 26.3563 38.933 26.5243C39.1081 26.6924 39.2907 26.7166 39.3622 26.7303Z" fill="#00A8E1"/>
<path d="M43.6547 28.2547C43.6118 28.0899 43.4916 27.7521 43.3542 27.7191C43.2169 27.6861 42.5244 27.7054 42.1953 27.7191C42.138 27.7191 42.0236 27.7521 42.0236 27.8839V33.4457C42.0379 33.4869 42.0922 33.5775 42.1953 33.6105C42.2983 33.6434 43.1539 33.6242 43.5688 33.6105C43.6261 33.5968 43.7577 33.5446 43.8264 33.4457L43.7835 29.161C44.0267 29.0237 44.6248 28.7655 45.0712 28.8315C45.6292 28.8727 45.8009 29.1336 45.8438 29.2846L45.8868 33.4457C45.9011 33.5006 45.9554 33.6105 46.0585 33.6105H47.475C47.5179 33.5968 47.6123 33.5446 47.6467 33.4457V29.161C47.847 29.01 48.3764 28.7243 48.8915 28.7903C49.4066 28.8562 49.6212 29.1748 49.6641 29.3258V33.3633C49.6641 33.432 49.6985 33.5775 49.8358 33.6105H51.3382C51.3811 33.583 51.467 33.4951 51.467 33.3633V29.0787C51.4383 28.5705 51.0549 27.5461 49.75 27.5131C48.4451 27.4801 47.661 27.9938 47.4321 28.2547C47.2747 28.0075 46.7453 27.5131 45.8868 27.5131C45.0283 27.5131 44.041 28.0075 43.6547 28.2547Z" fill="#00A8E1"/>
<path fill-rule="evenodd" clip-rule="evenodd" d="M54.1283 31.0974C54.071 31.8252 54.6605 33.0831 57.4764 32.2921C57.6481 32.2262 57.691 32.4569 57.691 32.5805V33.1985C57.5336 33.4045 56.9098 33.8165 55.6735 33.8165C53.2698 33.8165 52.583 32.2235 52.5401 31.427C52.3827 30.7678 52.3598 29.194 53.5273 28.1723C55.1756 26.9858 56.8182 27.6779 57.4335 28.1723C57.8198 28.5156 58.395 29.4494 57.6052 30.4382C56.8153 31.427 54.9581 31.2896 54.1283 31.0974ZM55.4589 28.7079C54.3944 28.7079 54.1283 29.6417 54.1283 30.1086C54.4574 30.1498 55.21 30.224 55.5877 30.191C55.9654 30.1581 56.203 29.9301 56.2745 29.8202C56.4462 29.4494 56.5235 28.7079 55.4589 28.7079Z" fill="#00A8E1"/>
<path fill-rule="evenodd" clip-rule="evenodd" d="M27 27.7191V36H28.3736C28.4165 36 28.5195 35.9753 28.5882 35.8764V33.2397C30.1335 34.3109 32.8807 33.7753 32.8807 30.5206C32.8807 27.5131 30.2193 26.8127 28.4165 28.2135C28.4022 28.0762 28.3221 27.785 28.116 27.7191H27ZM30.6915 29.1199C29.9704 28.4936 28.9888 28.8589 28.5882 29.1199V32.0861C29.6871 32.8112 30.4483 32.3883 30.6915 32.0861C31.0006 31.9543 31.0778 30.9875 31.0778 30.5206C31.1122 29.7955 30.8346 29.2846 30.6915 29.1199Z" fill="#00A8E1"/>
<g clip-path="url(#clip0)">
<rect width="179" height="326" transform="translate(326 21) rotate(90)" fill="url(#paint0_linear)"/>
<rect x="24.4313" y="89.4313" width="53.9091" height="13.8007" rx="6.90036" fill="#111111" fill-opacity="0.2"/>
<g clip-path="url(#clip1)">
<g clip-path="url(#clip2)">
<path d="M37.2124 95.6945C37.2124 95.2422 36.8917 94.8639 36.4667 94.7728C36.6365 94.4893 36.7407 94.1615 36.7407 93.8077C36.7407 92.7671 35.8945 91.9209 34.8539 91.9209C34.1383 91.9209 33.5232 92.3251 33.2029 92.9134C32.8827 92.3251 32.2676 91.9209 31.552 91.9209C30.5114 91.9209 29.6652 92.7671 29.6652 93.8077C29.6652 94.2332 29.8123 94.6224 30.0505 94.9379C29.9315 95.025 29.8346 95.1388 29.7676 95.2703C29.7007 95.4017 29.6656 95.547 29.6652 95.6945V99.4682C29.6652 99.9885 30.0883 100.412 30.6086 100.412H36.269C36.7893 100.412 37.2124 99.9885 37.2124 99.4682V98.2238L39.0993 99.1672V95.8653L37.2124 96.8087V95.6945ZM34.8539 92.8643C35.3742 92.8643 35.7973 93.2874 35.7973 93.8077C35.7973 94.328 35.3742 94.7511 34.8539 94.7511C34.3336 94.7511 33.9105 94.328 33.9105 93.8077C33.9105 93.2874 34.3336 92.8643 34.8539 92.8643ZM31.552 92.8643C32.0723 92.8643 32.4954 93.2874 32.4954 93.8077C32.4954 94.328 32.0723 94.7511 31.552 94.7511C31.0317 94.7511 30.6086 94.328 30.6086 93.8077C30.6086 93.2874 31.0317 92.8643 31.552 92.8643ZM30.6086 99.4682V95.6945H36.269L36.27 99.4682H30.6086Z" fill="white"/>
</g>
<path d="M49.4907 93.4978V94.2559H47.2164V100.725H46.2814V94.2559H44.0071V93.4978H49.4907ZM50.5065 100.725V95.4184H51.1383L51.305 96.0956C51.77 95.6441 52.3293 95.4184 52.983 95.4184V96.1967C52.3495 96.1967 51.8357 96.4207 51.4415 96.8689V100.725H50.5065ZM53.6703 99.1229C53.6703 98.0346 54.388 97.4905 55.8233 97.4905C56.2849 97.4905 56.7465 97.5242 57.2081 97.5916V97.0912C57.2081 96.4814 56.7313 96.1765 55.7778 96.1765C55.232 96.1765 54.6727 96.2607 54.0999 96.4292V95.6711C54.6727 95.5026 55.232 95.4184 55.7778 95.4184C57.3546 95.4184 58.1431 95.9676 58.1431 97.066V100.725H57.6175L57.294 100.199C56.765 100.55 56.1889 100.725 55.5655 100.725C54.302 100.725 53.6703 100.191 53.6703 99.1229ZM55.8233 98.2486C55.0113 98.2486 54.6053 98.535 54.6053 99.1078C54.6053 99.6805 54.9254 99.9669 55.5655 99.9669C56.2124 99.9669 56.76 99.7951 57.2081 99.4514V98.3497C56.7465 98.2823 56.2849 98.2486 55.8233 98.2486ZM60.7004 95.4184V100.725H59.7654V95.4184H60.7004ZM60.7004 93.4978V94.3823H59.7654V93.4978H60.7004ZM63.3082 93.4978V100.725H62.3732V93.4978H63.3082ZM67.0684 95.4184C68.5778 95.4184 69.3326 96.1647 69.3326 97.6573C69.3326 97.8695 69.3174 98.097 69.2871 98.3396H65.5623C65.5623 99.4245 66.1957 99.9669 67.4626 99.9669C68.0657 99.9669 68.6014 99.8996 69.0698 99.7648V100.523C68.6014 100.658 68.032 100.725 67.3615 100.725C65.5387 100.725 64.6273 99.8204 64.6273 98.011C64.6273 96.2826 65.441 95.4184 67.0684 95.4184ZM65.5623 97.5612H68.433C68.4128 96.6313 67.9579 96.1663 67.0684 96.1663C66.125 96.1663 65.623 96.6313 65.5623 97.5612ZM70.591 100.725V95.4184H71.2228L71.3895 96.0956C71.8545 95.6441 72.4138 95.4184 73.0675 95.4184V96.1967C72.434 96.1967 71.9202 96.4207 71.526 96.8689V100.725H70.591Z" fill="white"/>
</g>
<rect x="24.4313" y="89.4313" width="53.9091" height="13.8007" rx="6.90036" stroke="white" stroke-width="0.862546"/>
<path d="M32.1605 112.248V113.896H26.9852V116.498H31.9148V118.211H26.9635V120.922H32.2617V122.584H25.0842V112.248H32.1605ZM39.4537 122.368C38.8272 122.512 38.1767 122.584 37.5021 122.584C34.8036 122.584 33.4544 121.271 33.4544 118.645C33.4544 116.212 34.8036 114.995 37.5021 114.995C38.1767 114.995 38.8272 115.067 39.4537 115.212V116.73C38.8272 116.585 38.2249 116.513 37.6467 116.513C36.1288 116.513 35.3698 117.224 35.3698 118.645C35.3698 120.259 36.1288 121.067 37.6467 121.067C38.2249 121.067 38.8272 120.994 39.4537 120.85V122.368ZM42.634 112.248V122.584H40.7186V112.248H42.634ZM46.3637 112.248V113.766H44.4483V112.248H46.3637ZM46.3637 114.995V122.584H44.4483V114.995H46.3637ZM50.0934 120.604C50.5705 120.864 51.0837 120.994 51.633 120.994C52.7751 120.994 53.3461 120.192 53.3461 118.587C53.3461 117.224 52.7148 116.542 51.4523 116.542C50.9078 116.542 50.4548 116.576 50.0934 116.643V120.604ZM48.178 115.306C49.1851 115.099 50.2501 114.995 51.3728 114.995C53.9508 114.995 55.2399 116.197 55.2399 118.602C55.2399 121.257 54.04 122.584 51.6403 122.584C51.1295 122.584 50.6139 122.464 50.0934 122.223V125.331H48.178V115.306ZM56.6927 122.223V120.633C57.536 120.97 58.5094 121.139 59.6129 121.139C60.4369 121.139 60.8489 120.874 60.8489 120.344C60.8489 119.838 60.5718 119.585 60.0176 119.585H58.6443C57.1023 119.585 56.3313 118.826 56.3313 117.308C56.3313 115.718 57.4565 114.923 59.7068 114.923C60.6609 114.923 61.5596 115.067 62.4029 115.356V116.947C61.5596 116.609 60.6441 116.441 59.6562 116.441C58.6202 116.441 58.1022 116.706 58.1022 117.236C58.1022 117.742 58.4033 117.995 59.0057 117.995H60.2345C61.921 117.995 62.7643 118.754 62.7643 120.271C62.7643 121.862 61.6897 122.657 59.5406 122.657C58.4853 122.657 57.536 122.512 56.6927 122.223ZM67.3108 114.995C69.6141 114.995 70.7658 116.171 70.7658 118.522C70.7658 118.835 70.7441 119.149 70.7008 119.462H65.6628C65.6628 120.532 66.4482 121.067 68.0191 121.067C68.7853 121.067 69.5515 120.994 70.3177 120.85V122.368C69.6479 122.512 68.8335 122.584 67.8746 122.584C65.1231 122.584 63.7473 121.291 63.7473 118.703C63.7473 116.231 64.9351 114.995 67.3108 114.995ZM65.6628 118.132H68.901V118.074C68.901 117.024 68.3709 116.498 67.3108 116.498C66.2988 116.498 65.7495 117.043 65.6628 118.132Z" fill="white"/>
<path d="M28.6259 133.663L27.3104 136.328L24.37 136.753L26.4979 138.829L25.9949 141.758L28.6259 140.376L31.2569 141.758L30.7539 138.829L32.8818 136.756L29.9414 136.328L28.6259 133.663Z" fill="#F39B13"/>
<path d="M35.6068 138.627C35.6068 138.273 35.6236 137.92 35.6574 137.569C35.6945 137.219 35.7569 136.883 35.8446 136.563C35.9357 136.239 36.0588 135.939 36.2139 135.662C36.3691 135.385 36.5664 135.146 36.8059 134.943C37.0454 134.738 37.3321 134.577 37.6661 134.463C38 134.345 38.3913 134.286 38.8399 134.286C38.904 134.286 38.9748 134.287 39.0524 134.291C39.13 134.294 39.2076 134.301 39.2852 134.311C39.3661 134.318 39.442 134.328 39.5128 134.341C39.5871 134.351 39.6528 134.365 39.7102 134.382V135.166C39.5921 135.126 39.4589 135.095 39.3105 135.075C39.162 135.055 39.0153 135.045 38.8703 135.045C38.5667 135.045 38.2985 135.082 38.0658 135.156C37.8364 135.227 37.6374 135.328 37.4687 135.46C37.3001 135.591 37.1584 135.748 37.0437 135.93C36.9324 136.112 36.8413 136.315 36.7705 136.537C36.6997 136.756 36.6474 136.991 36.6137 137.241C36.5799 137.49 36.558 137.75 36.5479 138.02H36.6086C36.6761 137.898 36.757 137.785 36.8515 137.681C36.9493 137.573 37.0623 137.482 37.1905 137.408C37.3186 137.33 37.462 137.269 37.6205 137.225C37.7824 137.182 37.9629 137.16 38.1619 137.16C38.4824 137.16 38.7724 137.21 39.0322 137.311C39.2919 137.409 39.5128 137.554 39.695 137.747C39.8771 137.939 40.0171 138.175 40.1149 138.455C40.2161 138.731 40.2667 139.049 40.2667 139.406C40.2667 139.791 40.2145 140.136 40.1099 140.443C40.0053 140.75 39.8552 141.012 39.6596 141.228C39.4639 141.44 39.2278 141.604 38.9512 141.718C38.6746 141.833 38.3643 141.89 38.0202 141.89C37.6829 141.89 37.3659 141.825 37.069 141.693C36.7756 141.561 36.5209 141.361 36.305 141.091C36.0891 140.821 35.9188 140.482 35.794 140.074C35.6692 139.666 35.6068 139.183 35.6068 138.627ZM38.0101 141.116C38.2125 141.116 38.3963 141.083 38.5616 141.015C38.7303 140.944 38.8753 140.84 38.9968 140.701C39.1182 140.56 39.211 140.383 39.275 140.17C39.3425 139.954 39.3762 139.7 39.3762 139.406C39.3762 139.17 39.3476 138.959 39.2902 138.774C39.2362 138.585 39.1536 138.425 39.0423 138.293C38.931 138.161 38.791 138.06 38.6223 137.989C38.4571 137.919 38.2631 137.883 38.0405 137.883C37.8145 137.883 37.607 137.924 37.4181 138.005C37.2326 138.082 37.0741 138.185 36.9425 138.313C36.811 138.438 36.7081 138.581 36.6339 138.743C36.5631 138.905 36.5276 139.067 36.5276 139.229C36.5276 139.455 36.558 139.681 36.6187 139.907C36.6828 140.13 36.7756 140.33 36.897 140.509C37.0218 140.688 37.177 140.835 37.3625 140.949C37.548 141.061 37.7639 141.116 38.0101 141.116ZM41.4861 141.228C41.4861 141.099 41.503 140.991 41.5367 140.904C41.5704 140.813 41.616 140.74 41.6733 140.686C41.7307 140.629 41.7981 140.588 41.8757 140.565C41.9533 140.538 42.0376 140.524 42.1287 140.524C42.2164 140.524 42.299 140.538 42.3766 140.565C42.4576 140.588 42.5267 140.629 42.5841 140.686C42.6414 140.74 42.6869 140.813 42.7207 140.904C42.7544 140.991 42.7713 141.099 42.7713 141.228C42.7713 141.352 42.7544 141.46 42.7207 141.551C42.6869 141.639 42.6414 141.712 42.5841 141.769C42.5267 141.826 42.4576 141.868 42.3766 141.895C42.299 141.922 42.2164 141.936 42.1287 141.936C42.0376 141.936 41.9533 141.922 41.8757 141.895C41.7981 141.868 41.7307 141.826 41.6733 141.769C41.616 141.712 41.5704 141.639 41.5367 141.551C41.503 141.46 41.4861 141.352 41.4861 141.228ZM46.2827 137.251C46.6166 137.251 46.9269 137.298 47.2137 137.392C47.5038 137.483 47.755 137.62 47.9676 137.802C48.1834 137.984 48.3521 138.21 48.4735 138.48C48.595 138.75 48.6557 139.062 48.6557 139.416C48.6557 139.801 48.5983 140.146 48.4836 140.453C48.369 140.76 48.1986 141.02 47.9726 141.233C47.7466 141.445 47.4666 141.609 47.1327 141.723C46.8021 141.835 46.421 141.89 45.9892 141.89C45.8172 141.89 45.6469 141.882 45.4782 141.865C45.3129 141.848 45.1527 141.823 44.9975 141.789C44.8457 141.759 44.7007 141.718 44.5624 141.668C44.4241 141.617 44.2993 141.558 44.188 141.491V140.62C44.2993 140.698 44.4292 140.767 44.5776 140.828C44.7294 140.889 44.8879 140.939 45.0532 140.98C45.2185 141.02 45.3837 141.052 45.549 141.076C45.7177 141.096 45.8729 141.106 46.0145 141.106C46.281 141.106 46.5188 141.076 46.7279 141.015C46.9371 140.951 47.1142 140.853 47.2592 140.722C47.4042 140.59 47.5156 140.425 47.5931 140.226C47.6707 140.027 47.7095 139.791 47.7095 139.517C47.7095 139.035 47.5611 138.667 47.2643 138.414C46.9674 138.158 46.5357 138.03 45.969 138.03C45.8779 138.03 45.7784 138.035 45.6705 138.045C45.5659 138.052 45.4596 138.062 45.3517 138.075C45.2471 138.089 45.1459 138.104 45.0481 138.121C44.9537 138.134 44.871 138.148 44.8002 138.161L44.3448 137.873L44.6231 134.392H48.1143V135.232H45.4225L45.2252 137.352C45.3332 137.332 45.4748 137.31 45.6502 137.286C45.829 137.262 46.0398 137.251 46.2827 137.251Z" fill="white"/>
<path d="M52.9789 134.554V141.789H52.0429V134.554H52.9789ZM54.856 141.789V134.554H56.0451L58.7014 140.59L61.3071 134.554H62.4455V141.789H61.6107V135.854L59.0404 141.789H58.3017L55.6909 135.854V141.789H54.856ZM66.7969 141.03C68.5677 141.03 69.4532 140.012 69.4532 137.974C69.4532 136.2 68.5677 135.313 66.7969 135.313H65.1019V141.03H66.7969ZM64.1658 141.789V134.554H66.7969C69.1918 134.554 70.3892 135.694 70.3892 137.974C70.3892 140.518 69.1918 141.789 66.7969 141.789H64.1658ZM72.5902 140.863C72.8971 140.961 73.2699 141.01 73.7084 141.01C74.889 141.01 75.4793 140.337 75.4793 138.991C75.4793 137.854 74.9446 137.286 73.8753 137.286C73.3896 137.286 72.9612 137.377 72.5902 137.559V140.863ZM71.6541 134.554H72.5902V136.73C72.9916 136.561 73.4217 136.477 73.8804 136.477C75.5602 136.477 76.4001 137.327 76.4001 139.027C76.4001 140.868 75.518 141.789 73.7539 141.789C72.9916 141.789 72.2917 141.717 71.6541 141.572V134.554Z" fill="white"/>
<path d="M29.3784 158.553H24.4149V157.465L26.1554 155.588C26.3747 155.352 26.5737 155.134 26.7525 154.935C26.9312 154.736 27.0847 154.542 27.2129 154.354C27.3411 154.165 27.4406 153.972 27.5114 153.777C27.5822 153.581 27.6177 153.37 27.6177 153.144C27.6177 152.895 27.5418 152.701 27.39 152.562C27.2416 152.424 27.0409 152.355 26.7879 152.355C26.5214 152.355 26.265 152.421 26.0188 152.552C25.7726 152.684 25.5145 152.871 25.2447 153.114L24.3947 152.107C24.5464 151.969 24.705 151.837 24.8703 151.712C25.0355 151.584 25.2177 151.471 25.4167 151.373C25.6157 151.276 25.835 151.198 26.0745 151.141C26.314 151.08 26.5821 151.05 26.879 151.05C27.2331 151.05 27.5502 151.098 27.8302 151.196C28.1135 151.294 28.3547 151.434 28.5537 151.616C28.7527 151.795 28.9045 152.013 29.0091 152.269C29.117 152.525 29.171 152.814 29.171 153.134C29.171 153.424 29.1204 153.703 29.0192 153.969C28.918 154.232 28.7797 154.492 28.6043 154.748C28.4289 155.001 28.2248 155.254 27.9921 155.507C27.7627 155.757 27.5165 156.011 27.2534 156.271L26.3629 157.167V157.238H29.3784V158.553ZM35.0959 154.854C35.0959 155.451 35.0486 155.984 34.9542 156.453C34.8631 156.922 34.7147 157.32 34.5089 157.647C34.3065 157.975 34.0434 158.224 33.7196 158.396C33.3992 158.568 33.0113 158.654 32.5559 158.654C32.1275 158.654 31.7548 158.568 31.4377 158.396C31.1206 158.224 30.8575 157.975 30.6484 157.647C30.4393 157.32 30.2824 156.922 30.1779 156.453C30.0767 155.984 30.0261 155.451 30.0261 154.854C30.0261 154.257 30.0716 153.723 30.1627 153.251C30.2571 152.778 30.4055 152.379 30.6079 152.051C30.8103 151.724 31.0717 151.475 31.3922 151.303C31.7126 151.127 32.1005 151.039 32.5559 151.039C32.9809 151.039 33.352 151.125 33.669 151.297C33.9861 151.47 34.2509 151.719 34.4634 152.046C34.6759 152.373 34.8344 152.773 34.939 153.245C35.0436 153.718 35.0959 154.254 35.0959 154.854ZM31.5844 154.854C31.5844 155.698 31.657 156.332 31.802 156.757C31.9471 157.182 32.1984 157.394 32.5559 157.394C32.9067 157.394 33.158 157.184 33.3098 156.762C33.465 156.34 33.5425 155.704 33.5425 154.854C33.5425 154.008 33.465 153.372 33.3098 152.947C33.158 152.519 32.9067 152.304 32.5559 152.304C32.3771 152.304 32.2253 152.358 32.1005 152.466C31.9791 152.574 31.8796 152.734 31.802 152.947C31.7244 153.159 31.6688 153.426 31.635 153.746C31.6013 154.063 31.5844 154.433 31.5844 154.854ZM39.5484 158.553H37.9849V154.273C37.9849 154.185 37.9849 154.08 37.9849 153.959C37.9883 153.834 37.9917 153.706 37.995 153.574C38.0018 153.439 38.0069 153.304 38.0102 153.17C38.017 153.035 38.022 152.912 38.0254 152.8C38.0085 152.82 37.9799 152.851 37.9394 152.891C37.8989 152.932 37.8534 152.977 37.8028 153.028C37.7522 153.075 37.6999 153.124 37.6459 153.175C37.592 153.225 37.5397 153.271 37.4891 153.311L36.6391 153.994L35.8801 153.053L38.2632 151.156H39.5484V158.553ZM41.5065 155.411C41.5065 155.057 41.525 154.704 41.5621 154.354C41.6026 154.003 41.6717 153.667 41.7696 153.347C41.8708 153.023 42.0057 152.723 42.1743 152.446C42.3464 152.169 42.5622 151.93 42.822 151.728C43.0851 151.522 43.3988 151.362 43.7631 151.247C44.1307 151.129 44.5591 151.07 45.0482 151.07C45.1191 151.07 45.1966 151.071 45.281 151.075C45.3653 151.078 45.4496 151.083 45.534 151.09C45.6217 151.093 45.706 151.1 45.7869 151.11C45.8679 151.12 45.9404 151.132 46.0045 151.146V152.395C45.8763 152.365 45.7397 152.341 45.5947 152.325C45.453 152.304 45.3096 152.294 45.1646 152.294C44.7092 152.294 44.3348 152.352 44.0414 152.466C43.7479 152.578 43.5151 152.734 43.3431 152.937C43.1711 153.139 43.048 153.382 42.9738 153.665C42.9029 153.949 42.8591 154.262 42.8422 154.606H42.9029C42.9704 154.485 43.0513 154.372 43.1458 154.267C43.2436 154.16 43.3566 154.068 43.4848 153.994C43.613 153.917 43.7563 153.856 43.9149 153.812C44.0768 153.768 44.2572 153.746 44.4562 153.746C44.7767 153.746 45.0651 153.799 45.3215 153.903C45.5778 154.008 45.7937 154.16 45.9691 154.359C46.1479 154.558 46.2845 154.802 46.3789 155.092C46.4734 155.382 46.5206 155.715 46.5206 156.089C46.5206 156.49 46.4633 156.85 46.3486 157.167C46.2373 157.484 46.077 157.754 45.8679 157.976C45.6588 158.195 45.4058 158.364 45.1089 158.482C44.8121 158.597 44.4782 158.654 44.1071 158.654C43.7428 158.654 43.4022 158.59 43.0851 158.462C42.768 158.33 42.4914 158.131 42.2553 157.865C42.0225 157.598 41.8387 157.263 41.7038 156.858C41.5722 156.45 41.5065 155.968 41.5065 155.411ZM44.0768 157.404C44.2151 157.404 44.3399 157.379 44.4512 157.329C44.5659 157.275 44.6637 157.195 44.7446 157.091C44.829 156.983 44.8931 156.848 44.9369 156.686C44.9841 156.524 45.0078 156.332 45.0078 156.109C45.0078 155.748 44.9319 155.465 44.7801 155.259C44.6317 155.05 44.404 154.945 44.097 154.945C43.9418 154.945 43.8002 154.976 43.672 155.037C43.5438 155.097 43.4342 155.177 43.3431 155.274C43.252 155.372 43.1812 155.482 43.1306 155.603C43.0834 155.725 43.0598 155.848 43.0598 155.973C43.0598 156.145 43.08 156.317 43.1205 156.489C43.1643 156.657 43.2284 156.811 43.3128 156.949C43.4005 157.084 43.5067 157.194 43.6315 157.278C43.7597 157.362 43.9081 157.404 44.0768 157.404Z" fill="white"/>
<path d="M64.5378 153.215C64.28 153.215 64.0463 153.265 63.8366 153.363C63.627 153.46 63.4475 153.6 63.2981 153.783C63.1512 153.966 63.0367 154.189 62.9548 154.451C62.8753 154.714 62.8355 155.01 62.8355 155.34C62.8355 155.68 62.8705 155.982 62.9404 156.247C63.0126 156.51 63.1199 156.732 63.262 156.912C63.4042 157.093 63.5812 157.23 63.7933 157.324C64.0053 157.418 64.2535 157.465 64.5378 157.465C64.7522 157.465 64.9558 157.445 65.1485 157.404C65.3413 157.361 65.5316 157.311 65.7196 157.256V157.841C65.6256 157.877 65.5316 157.91 65.4377 157.939C65.3437 157.965 65.2449 157.987 65.1413 158.004C65.0401 158.021 64.9305 158.033 64.8124 158.04C64.6968 158.05 64.5679 158.054 64.4257 158.054C64.0306 158.054 63.6885 157.989 63.3993 157.859C63.1102 157.729 62.8705 157.545 62.6801 157.306C62.4922 157.068 62.3525 156.781 62.2609 156.446C62.1694 156.111 62.1236 155.74 62.1236 155.333C62.1236 154.933 62.1754 154.567 62.279 154.234C62.385 153.902 62.5392 153.616 62.7416 153.378C62.9464 153.139 63.1994 152.954 63.5005 152.821C63.8017 152.689 64.1474 152.623 64.5378 152.623C64.798 152.623 65.0461 152.649 65.2823 152.702C65.5184 152.755 65.7316 152.832 65.9219 152.933L65.64 153.497C65.4883 153.42 65.3232 153.354 65.1449 153.298C64.9666 153.243 64.7642 153.215 64.5378 153.215ZM68.8529 153.215C68.5951 153.215 68.3614 153.265 68.1518 153.363C67.9422 153.46 67.7627 153.6 67.6133 153.783C67.4663 153.966 67.3519 154.189 67.27 154.451C67.1905 154.714 67.1507 155.01 67.1507 155.34C67.1507 155.68 67.1857 155.982 67.2555 156.247C67.3278 156.51 67.435 156.732 67.5772 156.912C67.7193 157.093 67.8964 157.23 68.1084 157.324C68.3205 157.418 68.5686 157.465 68.8529 157.465C69.0674 157.465 69.271 157.445 69.4637 157.404C69.6565 157.361 69.8468 157.311 70.0347 157.256V157.841C69.9408 157.877 69.8468 157.91 69.7528 157.939C69.6589 157.965 69.5601 157.987 69.4565 158.004C69.3553 158.021 69.2457 158.033 69.1276 158.04C69.012 158.05 68.8831 158.054 68.7409 158.054C68.3458 158.054 68.0036 157.989 67.7145 157.859C67.4254 157.729 67.1857 157.545 66.9953 157.306C66.8074 157.068 66.6676 156.781 66.5761 156.446C66.4845 156.111 66.4388 155.74 66.4388 155.333C66.4388 154.933 66.4906 154.567 66.5942 154.234C66.7002 153.902 66.8544 153.616 67.0568 153.378C67.2616 153.139 67.5145 152.954 67.8157 152.821C68.1169 152.689 68.4626 152.623 68.8529 152.623C69.1132 152.623 69.3613 152.649 69.5974 152.702C69.8336 152.755 70.0468 152.832 70.2371 152.933L69.9552 153.497C69.8034 153.42 69.6384 153.354 69.4601 153.298C69.2818 153.243 69.0794 153.215 68.8529 153.215Z" fill="white"/>
<rect x="58.2913" y="150.242" width="15.5433" height="9.62205" rx="1.85039" stroke="white" stroke-width="0.740158"/>
<path d="M86.5726 157.982H85.9365V154.683C85.9365 154.579 85.9365 154.468 85.9365 154.35C85.939 154.232 85.9414 154.115 85.9438 153.999C85.9486 153.881 85.9522 153.769 85.9546 153.663C85.9594 153.555 85.963 153.46 85.9655 153.378C85.9245 153.421 85.8884 153.459 85.857 153.49C85.8257 153.521 85.7932 153.551 85.7595 153.58C85.7281 153.609 85.6944 153.64 85.6583 153.674C85.6221 153.706 85.5788 153.743 85.5282 153.786L84.9933 154.224L84.6463 153.779L86.0305 152.698H86.5726V157.982ZM88.4881 155.723C88.4881 155.47 88.5001 155.219 88.5242 154.968C88.5507 154.717 88.5953 154.478 88.6579 154.249C88.723 154.018 88.8109 153.803 88.9217 153.606C89.0326 153.408 89.1735 153.237 89.3446 153.092C89.5157 152.945 89.7205 152.831 89.959 152.749C90.1975 152.665 90.477 152.623 90.7974 152.623C90.8432 152.623 90.8938 152.624 90.9492 152.626C91.0046 152.629 91.0601 152.633 91.1155 152.641C91.1733 152.645 91.2275 152.653 91.2781 152.662C91.3311 152.67 91.3781 152.679 91.4191 152.691V153.251C91.3347 153.222 91.2396 153.201 91.1335 153.186C91.0275 153.172 90.9227 153.165 90.8191 153.165C90.6023 153.165 90.4107 153.191 90.2445 153.244C90.0807 153.295 89.9385 153.367 89.818 153.461C89.6976 153.555 89.5964 153.667 89.5145 153.797C89.4349 153.927 89.3699 154.072 89.3193 154.231C89.2687 154.387 89.2314 154.555 89.2073 154.733C89.1832 154.911 89.1675 155.097 89.1603 155.29H89.2036C89.2518 155.203 89.3097 155.122 89.3771 155.048C89.447 154.97 89.5277 154.905 89.6193 154.852C89.7108 154.797 89.8132 154.754 89.9265 154.722C90.0421 154.691 90.171 154.675 90.3132 154.675C90.542 154.675 90.7493 154.711 90.9348 154.784C91.1203 154.854 91.2781 154.957 91.4082 155.095C91.5383 155.232 91.6383 155.401 91.7082 155.601C91.7805 155.798 91.8166 156.025 91.8166 156.28C91.8166 156.555 91.7793 156.802 91.7046 157.021C91.6299 157.24 91.5227 157.427 91.3829 157.581C91.2432 157.733 91.0745 157.85 90.8769 157.932C90.6794 158.013 90.4577 158.054 90.212 158.054C89.971 158.054 89.7445 158.007 89.5325 157.914C89.3229 157.82 89.141 157.676 88.9868 157.483C88.8326 157.291 88.7109 157.049 88.6218 156.757C88.5326 156.465 88.4881 156.121 88.4881 155.723ZM90.2047 157.502C90.3493 157.502 90.4806 157.477 90.5987 157.429C90.7191 157.379 90.8227 157.304 90.9095 157.205C90.9962 157.104 91.0625 156.977 91.1082 156.826C91.1564 156.671 91.1805 156.49 91.1805 156.28C91.1805 156.111 91.1601 155.961 91.1191 155.828C91.0805 155.693 91.0215 155.579 90.942 155.485C90.8625 155.391 90.7625 155.319 90.642 155.268C90.524 155.217 90.3854 155.192 90.2264 155.192C90.065 155.192 89.9168 155.221 89.7819 155.279C89.6494 155.334 89.5361 155.408 89.4422 155.499C89.3482 155.588 89.2747 155.691 89.2217 155.807C89.1711 155.922 89.1458 156.038 89.1458 156.153C89.1458 156.315 89.1675 156.476 89.2109 156.638C89.2567 156.797 89.3229 156.94 89.4096 157.068C89.4988 157.196 89.6096 157.3 89.7421 157.382C89.8747 157.462 90.0289 157.502 90.2047 157.502ZM93.9236 155.644H92.525V155.102H93.9236V153.696H94.4657V155.102H95.8643V155.644H94.4657V157.035H93.9236V155.644Z" fill="white"/>
<rect x="80.4961" y="150.242" width="19.2441" height="9.62205" rx="1.85039" stroke="white" stroke-width="0.740158"/>
<circle cx="25.1102" cy="172.396" r="1.11024" fill="#E1E1E1" fill-opacity="0.5"/>
<path d="M31.1291 172.84V175.896H30.188V168.498H31.9893C32.8865 168.498 33.5493 168.672 33.9777 169.019C34.4061 169.367 34.6203 169.893 34.6203 170.598C34.6203 170.892 34.5781 171.148 34.4938 171.367C34.4129 171.586 34.3032 171.775 34.1649 171.934C34.03 172.089 33.8748 172.219 33.6994 172.323C33.524 172.428 33.3436 172.514 33.1581 172.581L35.1718 175.896H34.0637L32.2878 172.84H31.1291ZM31.1291 172.04H31.9589C32.2625 172.04 32.5205 172.011 32.733 171.954C32.9455 171.893 33.1193 171.806 33.2542 171.691C33.3925 171.573 33.492 171.428 33.5527 171.256C33.6168 171.08 33.6488 170.876 33.6488 170.644C33.6488 170.401 33.6134 170.195 33.5426 170.026C33.4751 169.858 33.3706 169.719 33.2289 169.611C33.0906 169.504 32.9135 169.426 32.6976 169.379C32.4851 169.328 32.2321 169.303 31.9387 169.303H31.1291V172.04ZM40.702 173.108C40.702 173.57 40.6447 173.981 40.53 174.342C40.4187 174.7 40.2568 175.002 40.0443 175.248C39.8351 175.491 39.5805 175.676 39.2803 175.804C38.98 175.933 38.6427 175.997 38.2683 175.997C37.9209 175.997 37.6004 175.933 37.307 175.804C37.0135 175.676 36.7589 175.491 36.543 175.248C36.3305 175.002 36.1635 174.7 36.0421 174.342C35.924 173.981 35.865 173.57 35.865 173.108C35.865 172.649 35.9206 172.242 36.0319 171.888C36.1466 171.531 36.3085 171.231 36.5177 170.988C36.7268 170.741 36.9815 170.556 37.2817 170.431C37.5853 170.303 37.9243 170.239 38.2987 170.239C38.6461 170.239 38.9666 170.303 39.26 170.431C39.5535 170.556 39.8065 170.741 40.019 170.988C40.2348 171.231 40.4018 171.531 40.5199 171.888C40.6413 172.242 40.702 172.649 40.702 173.108ZM36.8162 173.108C36.8162 173.813 36.9309 174.344 37.1603 174.701C37.393 175.056 37.7691 175.233 38.2886 175.233C38.808 175.233 39.1807 175.056 39.4067 174.701C39.6361 174.344 39.7508 173.813 39.7508 173.108C39.7508 172.403 39.6344 171.877 39.4017 171.529C39.1723 171.178 38.7979 171.003 38.2784 171.003C37.759 171.003 37.3846 171.178 37.1552 171.529C36.9292 171.877 36.8162 172.403 36.8162 173.108ZM48.8076 175.896V172.318C48.8076 171.88 48.7233 171.551 48.5546 171.332C48.386 171.112 48.1246 171.003 47.7704 171.003C47.5241 171.003 47.315 171.043 47.143 171.124C46.971 171.202 46.8293 171.318 46.718 171.473C46.61 171.625 46.5308 171.816 46.4802 172.045C46.4296 172.271 46.4043 172.533 46.4043 172.829V175.896H45.4784V172.318C45.4784 171.88 45.394 171.551 45.2254 171.332C45.0601 171.112 44.8004 171.003 44.4462 171.003C44.1864 171.003 43.9689 171.047 43.7935 171.134C43.6181 171.222 43.4764 171.352 43.3685 171.524C43.2639 171.696 43.188 171.907 43.1408 172.156C43.0969 172.406 43.075 172.693 43.075 173.017V175.896H42.1541V170.34H42.903L43.0345 171.089H43.0851C43.1661 170.944 43.2622 170.819 43.3735 170.714C43.4848 170.607 43.6063 170.517 43.7378 170.446C43.8727 170.375 44.0144 170.323 44.1628 170.289C44.3146 170.256 44.4681 170.239 44.6233 170.239C45.028 170.239 45.3637 170.313 45.6301 170.461C45.9 170.61 46.099 170.843 46.2272 171.16H46.2677C46.3554 171.001 46.4599 170.865 46.5814 170.75C46.7062 170.635 46.8411 170.541 46.9861 170.467C47.1346 170.389 47.2897 170.332 47.4516 170.295C47.6135 170.257 47.7788 170.239 47.9475 170.239C48.5378 170.239 48.9813 170.401 49.2782 170.725C49.5784 171.045 49.7285 171.559 49.7285 172.268V175.896H48.8076ZM54.5756 175.896L54.3884 175.126H54.348C54.2366 175.278 54.1253 175.41 54.014 175.521C53.9027 175.629 53.7813 175.718 53.6497 175.789C53.5182 175.86 53.3714 175.912 53.2095 175.946C53.0476 175.98 52.8604 175.997 52.6479 175.997C52.4152 175.997 52.201 175.963 52.0053 175.896C51.8097 175.831 51.6393 175.732 51.4943 175.597C51.3526 175.459 51.2413 175.287 51.1604 175.081C51.0794 174.872 51.0389 174.626 51.0389 174.342C51.0389 173.789 51.2329 173.364 51.6208 173.067C52.0121 172.77 52.6057 172.608 53.4018 172.581L54.3328 172.546V172.197C54.3328 171.971 54.3075 171.782 54.2569 171.63C54.2097 171.478 54.1388 171.357 54.0444 171.266C53.9533 171.172 53.8386 171.104 53.7003 171.064C53.5654 171.023 53.4102 171.003 53.2348 171.003C52.9549 171.003 52.6934 171.043 52.4506 171.124C52.2111 171.205 51.98 171.303 51.7574 171.418L51.4336 170.725C51.6832 170.59 51.9615 170.475 52.2684 170.381C52.5754 170.286 52.8975 170.239 53.2348 170.239C53.5789 170.239 53.8757 170.274 54.1253 170.345C54.3783 170.413 54.5858 170.522 54.7477 170.674C54.913 170.822 55.0361 171.013 55.117 171.246C55.198 171.478 55.2385 171.76 55.2385 172.091V175.896H54.5756ZM52.8857 175.253C53.0915 175.253 53.282 175.221 53.4575 175.157C53.6329 175.093 53.7846 174.997 53.9128 174.868C54.041 174.737 54.1405 174.573 54.2113 174.378C54.2856 174.179 54.3227 173.946 54.3227 173.679V173.179L53.5991 173.214C53.2955 173.227 53.0409 173.261 52.8351 173.315C52.6294 173.369 52.4641 173.445 52.3393 173.543C52.2178 173.637 52.1301 173.754 52.0762 173.892C52.0222 174.027 51.9952 174.18 51.9952 174.352C51.9952 174.663 52.0762 174.89 52.2381 175.035C52.4034 175.18 52.6192 175.253 52.8857 175.253ZM60.4196 175.896V172.318C60.4196 171.88 60.3302 171.551 60.1514 171.332C59.976 171.112 59.6994 171.003 59.3216 171.003C59.0484 171.003 58.819 171.047 58.6335 171.134C58.448 171.222 58.2979 171.352 58.1832 171.524C58.0719 171.696 57.9909 171.907 57.9403 172.156C57.8931 172.406 57.8695 172.693 57.8695 173.017V175.896H56.9486V170.34H57.6975L57.829 171.089H57.8796C57.9639 170.944 58.0634 170.819 58.1781 170.714C58.2962 170.607 58.4244 170.517 58.5627 170.446C58.701 170.375 58.8477 170.323 59.0029 170.289C59.158 170.256 59.3166 170.239 59.4785 170.239C60.0957 170.239 60.5595 170.401 60.8699 170.725C61.1836 171.045 61.3404 171.559 61.3404 172.268V175.896H60.4196ZM65.1756 175.997C64.835 175.997 64.5162 175.944 64.2194 175.84C63.9225 175.732 63.6645 175.563 63.4452 175.334C63.226 175.101 63.054 174.806 62.9292 174.449C62.8043 174.088 62.7419 173.654 62.7419 173.148C62.7419 172.619 62.806 172.17 62.9342 171.802C63.0624 171.431 63.2378 171.131 63.4604 170.902C63.6864 170.669 63.9495 170.5 64.2497 170.396C64.5499 170.291 64.8721 170.239 65.2161 170.239C65.4792 170.239 65.7356 170.268 65.9852 170.325C66.2382 170.382 66.449 170.453 66.6177 170.537L66.3444 171.317C66.2669 171.283 66.1808 171.251 66.0864 171.22C65.9919 171.187 65.8941 171.158 65.7929 171.134C65.6917 171.107 65.5922 171.087 65.4944 171.074C65.3966 171.057 65.3038 171.048 65.2161 171.048C64.6865 171.048 64.3003 171.219 64.0575 171.559C63.8146 171.897 63.6932 172.423 63.6932 173.138C63.6932 173.85 63.8146 174.371 64.0575 174.701C64.3037 175.029 64.6764 175.192 65.1756 175.192C65.4489 175.192 65.6951 175.162 65.9144 175.101C66.137 175.037 66.3394 174.963 66.5215 174.879V175.698C66.3394 175.796 66.1437 175.87 65.9346 175.921C65.7288 175.971 65.4759 175.997 65.1756 175.997ZM70.0431 175.997C69.672 175.997 69.333 175.934 69.0261 175.81C68.7191 175.685 68.4543 175.503 68.2317 175.263C68.0124 175.024 67.8421 174.727 67.7207 174.373C67.5992 174.018 67.5385 173.614 67.5385 173.158C67.5385 172.7 67.5942 172.29 67.7055 171.929C67.8168 171.568 67.9736 171.263 68.176 171.013C68.3784 170.76 68.6196 170.568 68.8996 170.436C69.1829 170.305 69.4949 170.239 69.8356 170.239C70.1695 170.239 70.4698 170.3 70.7362 170.421C71.0027 170.539 71.2287 170.708 71.4142 170.927C71.5997 171.143 71.7414 171.404 71.8392 171.711C71.9404 172.015 71.991 172.352 71.991 172.723V173.295H68.4897C68.5066 173.946 68.6432 174.425 68.8996 174.732C69.1593 175.039 69.5438 175.192 70.0532 175.192C70.2252 175.192 70.3837 175.184 70.5288 175.167C70.6772 175.15 70.8189 175.126 70.9538 175.096C71.0921 175.062 71.2253 175.022 71.3535 174.975C71.4817 174.924 71.6116 174.868 71.7431 174.808V175.627C71.6082 175.691 71.4749 175.747 71.3434 175.794C71.2152 175.842 71.082 175.88 70.9437 175.911C70.8088 175.941 70.6671 175.963 70.5187 175.977C70.3736 175.99 70.2151 175.997 70.0431 175.997ZM69.8154 171.003C69.4308 171.003 69.1256 171.134 68.8996 171.398C68.6769 171.661 68.5471 172.043 68.51 172.546H70.9993C70.9993 172.317 70.9757 172.108 70.9285 171.919C70.8846 171.726 70.8138 171.563 70.716 171.428C70.6215 171.293 70.5001 171.188 70.3517 171.114C70.2033 171.04 70.0245 171.003 69.8154 171.003Z" fill="white"/>
<g clip-path="url(#clip3)">
<circle cx="85.6929" cy="172.396" r="1.11024" fill="#E1E1E1" fill-opacity="0.5"/>
<path d="M96.2199 172.705C96.2199 173.329 96.139 173.877 95.9771 174.349C95.8152 174.818 95.5807 175.211 95.2738 175.528C94.9668 175.842 94.589 176.078 94.1404 176.236C93.6952 176.395 93.1892 176.474 92.6225 176.474H90.7707V169.077H92.83C93.346 169.077 93.8132 169.155 94.2315 169.31C94.6497 169.465 95.0056 169.696 95.2991 170.003C95.5925 170.307 95.8185 170.684 95.9771 171.136C96.139 171.588 96.2199 172.111 96.2199 172.705ZM95.2232 172.735C95.2232 172.243 95.1675 171.818 95.0562 171.46C94.9449 171.099 94.783 170.802 94.5705 170.57C94.358 170.337 94.0966 170.165 93.7862 170.054C93.4759 169.939 93.1234 169.882 92.7288 169.882H91.7118V175.665H92.5314C93.4219 175.665 94.0932 175.419 94.5452 174.926C94.9972 174.434 95.2232 173.703 95.2232 172.735ZM100.141 170.818C100.239 170.818 100.349 170.823 100.47 170.833C100.591 170.84 100.696 170.851 100.784 170.868L100.662 171.718C100.568 171.701 100.47 171.688 100.369 171.678C100.271 171.664 100.178 171.657 100.091 171.657C99.8781 171.657 99.6841 171.701 99.5087 171.789C99.3333 171.873 99.1815 171.996 99.0533 172.158C98.9285 172.317 98.8307 172.509 98.7599 172.735C98.6924 172.958 98.6587 173.206 98.6587 173.479V176.474H97.7378V170.919H98.4867L98.598 171.936H98.6385C98.7228 171.791 98.8122 171.651 98.9066 171.516C99.0044 171.381 99.1124 171.263 99.2304 171.162C99.3519 171.057 99.4868 170.974 99.6352 170.914C99.7836 170.85 99.9523 170.818 100.141 170.818ZM104.907 176.474L104.72 175.705H104.68C104.568 175.857 104.457 175.989 104.346 176.1C104.234 176.208 104.113 176.297 103.981 176.368C103.85 176.439 103.703 176.491 103.541 176.525C103.379 176.559 103.192 176.575 102.98 176.575C102.747 176.575 102.533 176.542 102.337 176.474C102.141 176.41 101.971 176.311 101.826 176.176C101.684 176.037 101.573 175.865 101.492 175.66C101.411 175.451 101.371 175.204 101.371 174.921C101.371 174.368 101.565 173.943 101.953 173.646C102.344 173.349 102.937 173.187 103.734 173.16L104.665 173.125V172.776C104.665 172.55 104.639 172.361 104.589 172.209C104.541 172.057 104.471 171.936 104.376 171.845C104.285 171.75 104.17 171.683 104.032 171.642C103.897 171.602 103.742 171.582 103.567 171.582C103.287 171.582 103.025 171.622 102.782 171.703C102.543 171.784 102.312 171.882 102.089 171.996L101.765 171.303C102.015 171.168 102.293 171.054 102.6 170.959C102.907 170.865 103.229 170.818 103.567 170.818C103.911 170.818 104.207 170.853 104.457 170.924C104.71 170.991 104.918 171.101 105.079 171.253C105.245 171.401 105.368 171.592 105.449 171.824C105.53 172.057 105.57 172.339 105.57 172.669V176.474H104.907ZM103.217 175.832C103.423 175.832 103.614 175.8 103.789 175.736C103.965 175.672 104.116 175.575 104.245 175.447C104.373 175.316 104.472 175.152 104.543 174.956C104.617 174.757 104.654 174.525 104.654 174.258V173.757L103.931 173.793C103.627 173.806 103.373 173.84 103.167 173.894C102.961 173.948 102.796 174.024 102.671 174.122C102.55 174.216 102.462 174.332 102.408 174.471C102.354 174.606 102.327 174.759 102.327 174.931C102.327 175.241 102.408 175.469 102.57 175.614C102.735 175.759 102.951 175.832 103.217 175.832ZM113.934 176.474V172.897C113.934 172.459 113.85 172.13 113.681 171.91C113.512 171.691 113.251 171.582 112.897 171.582C112.65 171.582 112.441 171.622 112.269 171.703C112.097 171.781 111.956 171.897 111.844 172.052C111.736 172.204 111.657 172.395 111.606 172.624C111.556 172.85 111.53 173.111 111.53 173.408V176.474H110.605V172.897C110.605 172.459 110.52 172.13 110.352 171.91C110.186 171.691 109.927 171.582 109.572 171.582C109.313 171.582 109.095 171.625 108.92 171.713C108.744 171.801 108.603 171.931 108.495 172.103C108.39 172.275 108.314 172.486 108.267 172.735C108.223 172.985 108.201 173.272 108.201 173.595V176.474H107.28V170.919H108.029L108.161 171.668H108.211C108.292 171.523 108.388 171.398 108.5 171.293C108.611 171.185 108.733 171.096 108.864 171.025C108.999 170.954 109.141 170.902 109.289 170.868C109.441 170.834 109.594 170.818 109.749 170.818C110.154 170.818 110.49 170.892 110.756 171.04C111.026 171.189 111.225 171.421 111.353 171.738H111.394C111.482 171.58 111.586 171.443 111.708 171.329C111.832 171.214 111.967 171.119 112.112 171.045C112.261 170.968 112.416 170.91 112.578 170.873C112.74 170.836 112.905 170.818 113.074 170.818C113.664 170.818 114.108 170.98 114.404 171.303C114.705 171.624 114.855 172.138 114.855 172.847V176.474H113.934ZM119.702 176.474L119.515 175.705H119.474C119.363 175.857 119.252 175.989 119.14 176.1C119.029 176.208 118.907 176.297 118.776 176.368C118.644 176.439 118.498 176.491 118.336 176.525C118.174 176.559 117.987 176.575 117.774 176.575C117.541 176.575 117.327 176.542 117.132 176.474C116.936 176.41 116.766 176.311 116.621 176.176C116.479 176.037 116.368 175.865 116.287 175.66C116.206 175.451 116.165 175.204 116.165 174.921C116.165 174.368 116.359 173.943 116.747 173.646C117.138 173.349 117.732 173.187 118.528 173.16L119.459 173.125V172.776C119.459 172.55 119.434 172.361 119.383 172.209C119.336 172.057 119.265 171.936 119.171 171.845C119.08 171.75 118.965 171.683 118.827 171.642C118.692 171.602 118.536 171.582 118.361 171.582C118.081 171.582 117.82 171.622 117.577 171.703C117.337 171.784 117.106 171.882 116.884 171.996L116.56 171.303C116.809 171.168 117.088 171.054 117.395 170.959C117.702 170.865 118.024 170.818 118.361 170.818C118.705 170.818 119.002 170.853 119.252 170.924C119.505 170.991 119.712 171.101 119.874 171.253C120.039 171.401 120.162 171.592 120.243 171.824C120.324 172.057 120.365 172.339 120.365 172.669V176.474H119.702ZM118.012 175.832C118.218 175.832 118.408 175.8 118.584 175.736C118.759 175.672 118.911 175.575 119.039 175.447C119.167 175.316 119.267 175.152 119.338 174.956C119.412 174.757 119.449 174.525 119.449 174.258V173.757L118.725 173.793C118.422 173.806 118.167 173.84 117.961 173.894C117.756 173.948 117.59 174.024 117.465 174.122C117.344 174.216 117.256 174.332 117.202 174.471C117.148 174.606 117.121 174.759 117.121 174.931C117.121 175.241 117.202 175.469 117.364 175.614C117.53 175.759 117.745 175.832 118.012 175.832Z" fill="white"/>
</g>
<g clip-path="url(#clip4)">
<path d="M202.444 162.957C198.222 162.957 194.844 166.335 194.844 170.556C194.844 174.778 198.222 178.156 202.444 178.156C206.666 178.156 210.043 174.778 210.043 170.556C210.043 166.335 206.666 162.957 202.444 162.957ZM202.444 177.235C198.794 177.235 195.766 174.206 195.766 170.556C195.766 166.907 198.794 163.878 202.444 163.878C206.094 163.878 209.122 166.907 209.122 170.556C209.122 174.206 206.094 177.235 202.444 177.235ZM199.066 169.712V171.401H205.821V169.712H199.066Z" fill="white"/>
</g>
<path d="M227.212 167.698C226.704 167.185 226.175 166.739 225.624 166.359C225.074 165.979 224.558 165.694 224.077 165.505C223.595 165.315 223.154 165.224 222.754 165.231C222.353 165.239 222.04 165.358 221.815 165.589C221.762 165.641 221.716 165.698 221.679 165.762C221.642 165.827 221.615 165.877 221.599 165.912C221.583 165.948 221.561 166.013 221.535 166.105C221.508 166.197 221.489 166.256 221.479 166.282L218.496 175.702L218.68 175.887C218.472 176.025 218.286 176.187 218.123 176.371C217.96 176.556 217.817 176.707 217.694 176.825C217.571 176.943 217.424 177.026 217.253 177.072C217.215 177.082 217.169 177.117 217.112 177.176C217.056 177.235 217.028 177.287 217.028 177.333C217.028 177.426 217.076 177.503 217.173 177.564C217.269 177.626 217.376 177.657 217.493 177.657C217.643 177.657 217.787 177.599 217.926 177.483C218.065 177.368 218.206 177.221 218.347 177.041C218.489 176.861 218.592 176.743 218.656 176.687C218.795 176.569 218.95 176.456 219.121 176.348L219.33 176.541L228.808 173.455C229.016 173.393 229.176 173.301 229.289 173.178C229.513 172.947 229.63 172.627 229.638 172.219C229.646 171.812 229.556 171.363 229.369 170.873C229.182 170.383 228.903 169.859 228.531 169.303C228.159 168.746 227.72 168.211 227.212 167.698ZM226.346 168.537C227.164 169.337 227.785 170.103 228.21 170.834C228.635 171.565 228.738 172.046 228.519 172.277C228.3 172.508 227.821 172.423 227.084 172.023C226.346 171.623 225.571 171.025 224.758 170.23C223.935 169.43 223.311 168.665 222.886 167.937C222.461 167.208 222.358 166.726 222.577 166.49C222.796 166.259 223.276 166.343 224.016 166.744C224.757 167.144 225.533 167.742 226.346 168.537ZM224.59 171.723C224.98 172.057 225.368 172.349 225.753 172.6C225.758 172.611 225.892 172.852 226.153 173.324L225.48 173.547C225.159 172.967 224.862 172.359 224.59 171.723ZM221.855 168.198C221.973 168.45 222.136 168.755 222.345 169.114C222.516 169.853 222.784 170.653 223.15 171.515C223.517 172.377 223.916 173.185 224.349 173.939L223.684 174.155C223.181 173.262 222.743 172.327 222.369 171.35C221.994 170.372 221.765 169.509 221.679 168.76L221.855 168.198ZM220.925 171.015C221.299 172.164 221.826 173.344 222.505 174.555L221.847 174.778C221.318 173.804 220.901 172.888 220.597 172.031L220.925 171.015ZM220.003 173.824C220.212 174.296 220.433 174.745 220.669 175.171L220.011 175.394C219.936 175.255 219.829 175.043 219.69 174.755L220.003 173.824ZM225.897 162.88L226.298 164.042L225.263 164.766H226.538L226.931 165.928L227.324 164.766H228.591L227.565 164.042L227.966 162.888L226.931 163.604L225.897 162.88ZM223.652 162.88L223.435 163.935L224.534 164.142L224.75 163.088L223.652 162.88ZM230.876 166.051L231.758 165.166L232.905 165.705L232.312 164.627L233.202 163.758L231.943 163.965L231.35 162.88L231.173 164.096L229.914 164.304L231.061 164.835L230.876 166.051ZM230.58 167.944L231.646 168.621L231.309 169.807L232.304 169.037L233.362 169.714L232.921 168.56L233.916 167.806L232.641 167.86L232.192 166.713L231.863 167.89L230.58 167.944ZM230.123 165.089L227.733 166.967L228.03 167.313L230.419 165.435L230.123 165.089ZM230.957 168.722L229.088 168.56L229.04 169.006L230.917 169.168L230.957 168.722ZM231.141 170.876L230.796 171.908L231.863 172.239L232.216 171.215L231.141 170.876Z" fill="white"/>
<path d="M275.222 172.667C274.827 172.669 274.438 172.76 274.083 172.932C273.727 173.105 273.415 173.355 273.17 173.664L269.312 171.253C269.453 170.799 269.453 170.313 269.312 169.86L273.17 167.448C273.561 167.933 274.112 168.263 274.724 168.381C275.336 168.499 275.97 168.396 276.513 168.091C277.057 167.787 277.475 167.299 277.693 166.716C277.912 166.132 277.917 165.49 277.708 164.903C277.498 164.316 277.088 163.822 276.549 163.509C276.01 163.196 275.378 163.083 274.764 163.191C274.15 163.3 273.595 163.622 273.196 164.1C272.797 164.579 272.58 165.183 272.584 165.807C272.586 166.043 272.622 166.277 272.689 166.503L268.832 168.915C268.491 168.486 268.026 168.174 267.5 168.022C266.974 167.869 266.413 167.884 265.896 168.065C265.379 168.245 264.931 168.582 264.614 169.028C264.297 169.475 264.127 170.009 264.127 170.556C264.127 171.104 264.297 171.638 264.614 172.084C264.931 172.531 265.379 172.867 265.896 173.048C266.413 173.228 266.974 173.243 267.5 173.091C268.026 172.938 268.491 172.626 268.832 172.197L272.689 174.609C272.622 174.835 272.586 175.07 272.584 175.306C272.584 175.828 272.739 176.338 273.029 176.772C273.318 177.206 273.731 177.544 274.213 177.744C274.695 177.943 275.225 177.995 275.737 177.894C276.249 177.792 276.719 177.541 277.088 177.172C277.457 176.803 277.709 176.332 277.81 175.821C277.912 175.309 277.86 174.778 277.66 174.296C277.461 173.814 277.122 173.402 276.688 173.112C276.255 172.822 275.744 172.667 275.222 172.667V172.667ZM275.222 164.223C275.536 164.223 275.842 164.316 276.102 164.49C276.362 164.664 276.565 164.911 276.685 165.201C276.805 165.49 276.836 165.808 276.775 166.115C276.714 166.423 276.563 166.705 276.342 166.926C276.121 167.148 275.838 167.298 275.531 167.359C275.224 167.42 274.906 167.389 274.617 167.269C274.327 167.149 274.08 166.947 273.906 166.686C273.732 166.426 273.639 166.12 273.639 165.807C273.639 165.387 273.806 164.984 274.103 164.687C274.4 164.39 274.803 164.223 275.222 164.223V164.223ZM266.779 172.139C266.466 172.139 266.16 172.047 265.899 171.873C265.639 171.699 265.436 171.451 265.316 171.162C265.196 170.873 265.165 170.554 265.226 170.247C265.287 169.94 265.438 169.658 265.659 169.437C265.881 169.215 266.163 169.064 266.47 169.003C266.777 168.942 267.095 168.974 267.385 169.093C267.674 169.213 267.921 169.416 268.095 169.677C268.269 169.937 268.362 170.243 268.362 170.556C268.362 170.976 268.195 171.379 267.898 171.676C267.601 171.973 267.199 172.139 266.779 172.139ZM275.222 176.889C274.909 176.889 274.603 176.796 274.343 176.622C274.083 176.448 273.88 176.201 273.76 175.912C273.64 175.622 273.609 175.304 273.67 174.997C273.731 174.69 273.882 174.408 274.103 174.186C274.324 173.965 274.607 173.814 274.914 173.753C275.221 173.692 275.539 173.723 275.828 173.843C276.118 173.963 276.365 174.166 276.539 174.426C276.713 174.687 276.806 174.993 276.806 175.306C276.806 175.726 276.639 176.128 276.342 176.425C276.045 176.722 275.642 176.889 275.222 176.889V176.889Z" fill="white"/>
<path d="M299.481 163.52H290.524C290.03 163.52 289.552 163.693 289.173 164.01C288.793 164.326 288.537 164.765 288.448 165.251L287.554 170.176C287.499 170.481 287.511 170.793 287.589 171.093C287.668 171.392 287.811 171.67 288.009 171.908C288.207 172.145 288.455 172.337 288.735 172.468C289.015 172.599 289.321 172.667 289.63 172.667H292.839L292.445 173.673C292.281 174.114 292.226 174.588 292.286 175.054C292.345 175.52 292.517 175.965 292.786 176.351C293.055 176.736 293.414 177.05 293.831 177.267C294.248 177.483 294.712 177.595 295.182 177.593C295.317 177.592 295.45 177.553 295.563 177.479C295.677 177.406 295.767 177.301 295.822 177.178L297.828 172.667H299.481C300.041 172.667 300.578 172.445 300.974 172.049C301.37 171.653 301.592 171.116 301.592 170.556V165.631C301.592 165.071 301.37 164.534 300.974 164.138C300.578 163.742 300.041 163.52 299.481 163.52ZM296.667 171.816L294.753 176.122C294.557 176.063 294.375 175.964 294.219 175.832C294.063 175.7 293.935 175.537 293.844 175.354C293.753 175.171 293.701 174.971 293.69 174.766C293.679 174.562 293.71 174.358 293.782 174.166L294.155 173.16C294.234 172.947 294.261 172.718 294.233 172.493C294.205 172.268 294.123 172.053 293.993 171.866C293.864 171.679 293.691 171.527 293.49 171.421C293.289 171.316 293.066 171.26 292.839 171.26H289.63C289.527 171.26 289.425 171.238 289.331 171.194C289.237 171.15 289.155 171.086 289.088 171.007C289.021 170.928 288.971 170.836 288.943 170.736C288.915 170.637 288.909 170.532 288.927 170.43L289.82 165.504C289.85 165.34 289.937 165.192 290.066 165.087C290.195 164.981 290.357 164.925 290.524 164.927H296.667V171.816ZM300.185 170.556C300.185 170.743 300.111 170.922 299.979 171.054C299.847 171.186 299.668 171.26 299.481 171.26H298.074V164.927H299.481C299.668 164.927 299.847 165.001 299.979 165.133C300.111 165.265 300.185 165.444 300.185 165.631V170.556Z" fill="white"/>
<g clip-path="url(#clip5)">
<path d="M248.308 167.358C248.697 167.358 249.012 167.043 249.012 166.654C249.012 166.266 248.697 165.951 248.308 165.951C247.92 165.951 247.605 166.266 247.605 166.654C247.605 167.043 247.92 167.358 248.308 167.358Z" fill="white"/>
<path d="M250.302 173.175H249.129V168.296H247.37C247.214 168.296 247.065 168.36 246.955 168.475C246.845 168.589 246.784 168.744 246.784 168.906C246.784 169.068 246.845 169.223 246.955 169.337C247.065 169.452 247.214 169.516 247.37 169.516H247.956V173.175H246.784C246.628 173.175 246.479 173.239 246.369 173.353C246.259 173.468 246.197 173.623 246.197 173.785C246.197 173.946 246.259 174.101 246.369 174.216C246.479 174.33 246.628 174.394 246.784 174.394H250.302C250.457 174.394 250.606 174.33 250.716 174.216C250.826 174.101 250.888 173.946 250.888 173.785C250.888 173.623 250.826 173.468 250.716 173.353C250.606 173.239 250.457 173.175 250.302 173.175Z" fill="white"/>
<path d="M248.212 162.88C246.751 162.88 245.322 163.314 244.108 164.125C242.893 164.937 241.946 166.091 241.386 167.441C240.827 168.791 240.681 170.277 240.966 171.71C241.251 173.143 241.955 174.459 242.988 175.493C244.021 176.526 245.338 177.23 246.771 177.515C248.204 177.8 249.69 177.653 251.04 177.094C252.39 176.535 253.543 175.588 254.355 174.373C255.167 173.158 255.6 171.73 255.6 170.268C255.6 168.309 254.822 166.43 253.436 165.044C252.051 163.659 250.172 162.88 248.212 162.88V162.88ZM248.212 176.425C246.994 176.425 245.804 176.064 244.792 175.388C243.779 174.711 242.99 173.75 242.524 172.625C242.058 171.5 241.936 170.262 242.174 169.067C242.411 167.873 242.998 166.776 243.859 165.915C244.72 165.054 245.817 164.467 247.011 164.23C248.205 163.992 249.443 164.114 250.568 164.58C251.693 165.046 252.655 165.835 253.331 166.848C254.008 167.86 254.369 169.051 254.369 170.268C254.369 171.077 254.21 171.878 253.9 172.625C253.591 173.372 253.137 174.05 252.566 174.622C251.994 175.194 251.315 175.647 250.568 175.957C249.821 176.266 249.021 176.425 248.212 176.425V176.425Z" fill="white"/>
</g>
</g>
<path d="M162.578 65.5611C167.324 65.4776 171.988 66.8035 175.981 69.3709C179.974 71.9382 183.115 75.6319 185.008 79.9847C186.902 84.3376 187.462 89.1541 186.618 93.8252C185.773 98.4963 183.563 102.812 180.266 106.227C176.969 109.642 172.734 112.003 168.095 113.01C163.457 114.018 158.623 113.628 154.207 111.888C149.79 110.149 145.988 107.139 143.282 103.24C140.576 99.3398 139.087 94.7251 139.004 89.9791C138.892 83.6149 141.313 77.4669 145.734 72.8876C150.155 68.3084 156.214 65.6729 162.578 65.5611V65.5611ZM162.508 61.5617C156.971 61.659 151.587 63.396 147.037 66.5532C142.488 69.7103 138.976 74.1457 136.947 79.2985C134.918 84.4512 134.463 90.09 135.638 95.5016C136.814 100.913 139.568 105.855 143.552 109.701C147.536 113.548 152.571 116.126 158.021 117.111C163.471 118.096 169.09 117.443 174.168 115.234C179.246 113.025 183.556 109.36 186.551 104.702C189.546 100.044 191.093 94.6023 190.996 89.0653C190.865 81.6404 187.791 74.5714 182.448 69.4135C177.106 64.2556 169.933 61.4312 162.508 61.5617V61.5617Z" fill="white" fill-opacity="0.6"/>
<path d="M155.247 103.696C154.888 103.702 154.534 103.611 154.222 103.434C153.921 103.262 153.669 103.015 153.492 102.716C153.315 102.418 153.219 102.078 153.212 101.731L152.791 77.735C152.785 77.3879 152.869 77.0453 153.036 76.7407C153.202 76.4362 153.445 76.1802 153.74 75.998C154.041 75.8171 154.384 75.7187 154.735 75.7125C155.086 75.7064 155.433 75.7927 155.74 75.9629L177.947 87.5744C178.268 87.7402 178.538 87.9895 178.728 88.2961C178.918 88.6026 179.022 88.9549 179.028 89.3157C179.035 89.6764 178.943 90.0322 178.764 90.3452C178.584 90.6582 178.324 90.9169 178.009 91.0939L156.224 103.479C155.922 103.633 155.586 103.707 155.247 103.696V103.696ZM156.849 81.0241L157.153 98.3015L172.818 89.3848L156.849 81.0241Z" fill="white" fill-opacity="0.6"/>
<defs>
<linearGradient id="paint0_linear" x1="13.8879" y1="148" x2="150.493" y2="148.676" gradientUnits="userSpaceOnUse">
<stop stop-opacity="0"/>
<stop stop-opacity="0"/>
<stop offset="1"/>
</linearGradient>
<clipPath id="clip0">
<rect width="179" height="326" fill="white" transform="translate(326 21) rotate(90)"/>
</clipPath>
<clipPath id="clip1">
<rect width="44.4211" height="11.2131" fill="white" transform="translate(29.1753 90.725)"/>
</clipPath>
<clipPath id="clip2">
<rect width="10.7818" height="10.7818" fill="white" transform="translate(29.1753 90.9407)"/>
</clipPath>
<clipPath id="clip3">
<rect width="37.0079" height="11.8425" fill="white" transform="translate(84.5826 166.474)"/>
</clipPath>
<clipPath id="clip4">
<rect width="16.8873" height="16.8873" fill="white" transform="translate(194 162.113)"/>
</clipPath>
<clipPath id="clip5">
<rect width="16.8873" height="16.8873" fill="white" transform="translate(240.056 162.113)"/>
</clipPath>
</defs>
</svg>
