<svg width="326" height="200" viewBox="0 0 326 200" fill="none" xmlns="http://www.w3.org/2000/svg">
<rect width="106" height="90" transform="translate(236 106) rotate(-90)" fill="url(#paint0_linear)"/>
<path d="M299.822 21.6639C300.814 21.4569 303.507 21.1317 304.262 21.7526C304.706 22.1178 304.262 24.0585 303.285 26.4088C303.241 26.5861 303.25 26.8966 303.641 26.7192C304.129 26.4975 306.127 23.9255 305.994 20.7326C305.905 20.3779 305.579 20.2659 305.505 20.2449C304.262 19.8901 301.732 19.7127 299.689 21.2204C299.547 21.5042 299.719 21.6343 299.822 21.6639Z" fill="white"/>
<path d="M272.03 20.8213C271.971 20.6735 271.959 20.3779 272.385 20.3779C277.624 23.5707 288.501 28.5373 302.486 22.4177C303.285 22.2404 303.378 23.0726 302.93 23.3933C291.165 31.8188 277.668 27.1183 272.03 20.8213Z" fill="white"/>
<path d="M277.019 35.3669C277.019 35.917 276.952 36.4183 276.818 36.8708C276.688 37.3233 276.493 37.7106 276.232 38.0329C275.972 38.3552 275.648 38.6042 275.261 38.78C274.877 38.9557 274.432 39.0436 273.928 39.0436C273.397 39.0436 272.937 38.9557 272.546 38.78C272.159 38.6042 271.836 38.3552 271.579 38.0329C271.325 37.7106 271.136 37.3233 271.013 36.8708C270.889 36.4151 270.827 35.9105 270.827 35.3571C270.827 34.8037 270.889 34.3024 271.013 33.8532C271.136 33.4007 271.327 33.015 271.584 32.696C271.841 32.377 272.165 32.1312 272.556 31.9587C272.946 31.7829 273.407 31.695 273.938 31.695C274.442 31.695 274.885 31.7829 275.266 31.9587C275.65 32.1312 275.972 32.3786 276.232 32.7009C276.493 33.0199 276.688 33.4056 276.818 33.8581C276.952 34.3073 277.019 34.8102 277.019 35.3669ZM271.789 35.3669C271.789 35.8128 271.831 36.2149 271.916 36.5729C272.001 36.9278 272.129 37.2305 272.302 37.4811C272.478 37.7285 272.699 37.919 272.966 38.0524C273.236 38.1826 273.557 38.2477 273.928 38.2477C274.299 38.2477 274.618 38.1826 274.885 38.0524C275.155 37.919 275.376 37.7285 275.549 37.4811C275.725 37.2305 275.853 36.9278 275.935 36.5729C276.016 36.2149 276.057 35.8128 276.057 35.3669C276.057 34.9177 276.016 34.5156 275.935 34.1608C275.853 33.806 275.726 33.5065 275.554 33.2624C275.381 33.015 275.161 32.8262 274.895 32.696C274.628 32.5625 274.309 32.4958 273.938 32.4958C273.566 32.4958 273.246 32.5625 272.976 32.696C272.705 32.8262 272.482 33.015 272.307 33.2624C272.131 33.5065 272.001 33.806 271.916 34.1608C271.831 34.5156 271.789 34.9177 271.789 35.3669ZM280.808 33.487C280.902 33.487 281.008 33.4919 281.125 33.5016C281.242 33.5082 281.343 33.5196 281.428 33.5358L281.311 34.3561C281.219 34.3399 281.125 34.3268 281.027 34.3171C280.933 34.3041 280.843 34.2975 280.759 34.2975C280.554 34.2975 280.367 34.3399 280.197 34.4245C280.028 34.5059 279.882 34.6247 279.758 34.7809C279.637 34.9339 279.543 35.1195 279.475 35.3376C279.41 35.5524 279.377 35.7917 279.377 36.0554V38.946H278.488V33.5847H279.211L279.318 34.5661H279.357C279.439 34.4261 279.525 34.291 279.616 34.1608C279.711 34.0306 279.815 33.9167 279.929 33.819C280.046 33.7181 280.176 33.6384 280.319 33.5798C280.463 33.5179 280.625 33.487 280.808 33.487ZM283.371 38.946H282.482V33.5847H283.371V38.946ZM282.414 32.1345C282.414 31.9391 282.463 31.7975 282.561 31.7097C282.661 31.6218 282.785 31.5778 282.932 31.5778C283.003 31.5778 283.07 31.5892 283.132 31.612C283.197 31.6315 283.252 31.6641 283.298 31.7097C283.347 31.7552 283.384 31.8138 283.41 31.8854C283.439 31.9538 283.454 32.0368 283.454 32.1345C283.454 32.3233 283.402 32.4649 283.298 32.5593C283.197 32.6504 283.075 32.696 282.932 32.696C282.785 32.696 282.661 32.6504 282.561 32.5593C282.463 32.4681 282.414 32.3265 282.414 32.1345ZM289.201 33.5847V34.1364L288.239 34.2682C288.33 34.3822 288.407 34.5287 288.469 34.7077C288.531 34.8835 288.562 35.0837 288.562 35.3083C288.562 35.5557 288.522 35.7852 288.444 35.9968C288.369 36.2051 288.254 36.3858 288.098 36.5388C287.945 36.6918 287.754 36.8122 287.526 36.9001C287.299 36.9847 287.033 37.027 286.73 37.027C286.659 37.027 286.587 37.027 286.516 37.027C286.444 37.0238 286.385 37.0173 286.34 37.0075C286.285 37.0401 286.229 37.0775 286.174 37.1198C286.122 37.1589 286.073 37.2044 286.027 37.2565C285.985 37.3086 285.949 37.3672 285.92 37.4323C285.894 37.4974 285.881 37.569 285.881 37.6472C285.881 37.735 285.9 37.8067 285.939 37.862C285.979 37.9141 286.031 37.9548 286.096 37.9841C286.164 38.0134 286.244 38.0329 286.335 38.0427C286.426 38.0524 286.522 38.0573 286.623 38.0573H287.482C287.785 38.0573 288.041 38.0964 288.249 38.1745C288.457 38.2494 288.627 38.3519 288.757 38.4821C288.89 38.6123 288.986 38.7669 289.045 38.946C289.104 39.1218 289.133 39.3089 289.133 39.5075C289.133 39.794 289.079 40.0511 288.972 40.279C288.868 40.5069 288.706 40.6989 288.488 40.8552C288.27 41.0147 287.993 41.1367 287.658 41.2214C287.326 41.306 286.934 41.3483 286.481 41.3483C286.133 41.3483 285.829 41.3141 285.568 41.2458C285.308 41.1774 285.091 41.0781 284.919 40.9479C284.746 40.8177 284.616 40.6599 284.528 40.4743C284.444 40.292 284.401 40.0853 284.401 39.8542C284.401 39.6589 284.432 39.4863 284.494 39.3366C284.559 39.1901 284.646 39.0632 284.753 38.9557C284.86 38.8483 284.984 38.7604 285.124 38.6921C285.267 38.6237 285.415 38.5716 285.568 38.5358C285.432 38.474 285.319 38.3763 285.231 38.2429C285.144 38.1094 285.1 37.9564 285.1 37.7839C285.1 37.5853 285.152 37.4144 285.256 37.2712C285.36 37.1247 285.524 36.9831 285.749 36.8464C285.609 36.7878 285.48 36.708 285.363 36.6071C285.249 36.503 285.152 36.3858 285.07 36.2556C284.992 36.1221 284.93 35.9772 284.885 35.821C284.842 35.6647 284.821 35.5036 284.821 35.3376C284.821 35.0479 284.862 34.7891 284.943 34.5612C285.025 34.3334 285.145 34.1397 285.305 33.9802C285.464 33.8207 285.663 33.6986 285.9 33.614C286.138 33.5293 286.415 33.487 286.73 33.487C286.851 33.487 286.975 33.4968 287.102 33.5163C287.232 33.5326 287.341 33.5554 287.429 33.5847H289.201ZM285.241 39.8249C285.241 39.9453 285.262 40.0576 285.305 40.1618C285.347 40.266 285.415 40.3555 285.51 40.4304C285.607 40.5052 285.734 40.5638 285.891 40.6061C286.05 40.6517 286.247 40.6745 286.481 40.6745C287.087 40.6745 287.539 40.5801 287.839 40.3913C288.142 40.2057 288.293 39.9372 288.293 39.5856C288.293 39.4359 288.273 39.3138 288.234 39.2194C288.195 39.125 288.13 39.0502 288.039 38.9948C287.951 38.9427 287.834 38.9069 287.688 38.8874C287.541 38.8679 287.362 38.8581 287.15 38.8581H286.291C286.177 38.8581 286.058 38.8711 285.935 38.8972C285.811 38.9232 285.697 38.972 285.593 39.0436C285.492 39.1153 285.407 39.2129 285.339 39.3366C285.274 39.4636 285.241 39.6263 285.241 39.8249ZM285.69 35.3083C285.69 35.6826 285.778 35.961 285.954 36.1432C286.13 36.3255 286.379 36.4167 286.701 36.4167C287.027 36.4167 287.272 36.3272 287.438 36.1481C287.608 35.9658 287.692 35.681 287.692 35.2936C287.692 34.8932 287.606 34.5987 287.434 34.4099C287.264 34.221 287.017 34.1266 286.691 34.1266C286.369 34.1266 286.122 34.2243 285.949 34.4196C285.777 34.6149 285.69 34.9112 285.69 35.3083ZM291.145 38.946H290.256V33.5847H291.145V38.946ZM290.188 32.1345C290.188 31.9391 290.236 31.7975 290.334 31.7097C290.435 31.6218 290.559 31.5778 290.705 31.5778C290.777 31.5778 290.843 31.5892 290.905 31.612C290.97 31.6315 291.026 31.6641 291.071 31.7097C291.12 31.7552 291.158 31.8138 291.184 31.8854C291.213 31.9538 291.228 32.0368 291.228 32.1345C291.228 32.3233 291.175 32.4649 291.071 32.5593C290.97 32.6504 290.848 32.696 290.705 32.696C290.559 32.696 290.435 32.6504 290.334 32.5593C290.236 32.4681 290.188 32.3265 290.188 32.1345ZM296.193 38.946V35.4938C296.193 35.0707 296.107 34.7533 295.935 34.5417C295.765 34.3301 295.498 34.2243 295.134 34.2243C294.87 34.2243 294.649 34.2666 294.47 34.3513C294.291 34.4359 294.146 34.5612 294.035 34.7272C293.928 34.8932 293.85 35.0967 293.801 35.3376C293.755 35.5785 293.732 35.8552 293.732 36.1677V38.946H292.844V33.5847H293.566L293.693 34.3073H293.742C293.824 34.1673 293.92 34.0469 294.03 33.946C294.144 33.8418 294.268 33.7556 294.401 33.6872C294.535 33.6188 294.676 33.5684 294.826 33.5358C294.976 33.5033 295.129 33.487 295.285 33.487C295.881 33.487 296.328 33.6432 296.628 33.9557C296.931 34.265 297.082 34.7614 297.082 35.445V38.946H296.193ZM301.755 38.946L301.574 38.2038H301.535C301.428 38.3503 301.32 38.4772 301.213 38.5847C301.105 38.6888 300.988 38.7751 300.861 38.8434C300.734 38.9118 300.593 38.9623 300.437 38.9948C300.28 39.0274 300.1 39.0436 299.895 39.0436C299.67 39.0436 299.463 39.0111 299.274 38.946C299.086 38.8841 298.921 38.7881 298.781 38.6579C298.645 38.5244 298.537 38.3584 298.459 38.1599C298.381 37.958 298.342 37.7204 298.342 37.447C298.342 36.9131 298.529 36.503 298.903 36.2165C299.281 35.93 299.854 35.7738 300.622 35.7477L301.521 35.7136V35.3766C301.521 35.1585 301.496 34.9763 301.447 34.8298C301.402 34.6833 301.333 34.5661 301.242 34.4782C301.154 34.3871 301.044 34.322 300.91 34.2829C300.78 34.2438 300.63 34.2243 300.461 34.2243C300.191 34.2243 299.938 34.2634 299.704 34.3415C299.473 34.4196 299.25 34.514 299.035 34.6247L298.723 33.9557C298.964 33.8255 299.232 33.7149 299.528 33.6237C299.825 33.5326 300.135 33.487 300.461 33.487C300.793 33.487 301.079 33.5212 301.32 33.5895C301.564 33.6546 301.765 33.7604 301.921 33.9069C302.08 34.0502 302.199 34.2341 302.277 34.4587C302.355 34.6833 302.395 34.9551 302.395 35.2741V38.946L301.755 38.946ZM300.124 38.3259C300.323 38.3259 300.507 38.2949 300.676 38.2331C300.845 38.1712 300.992 38.0785 301.115 37.9548C301.239 37.8278 301.335 37.6699 301.403 37.4811C301.475 37.2891 301.511 37.0645 301.511 36.8073V36.3239L300.812 36.3581C300.52 36.3711 300.274 36.4037 300.075 36.4557C299.877 36.5078 299.717 36.5811 299.597 36.6755C299.479 36.7666 299.395 36.8789 299.343 37.0124C299.291 37.1426 299.265 37.2907 299.265 37.4567C299.265 37.7562 299.343 37.9759 299.499 38.1159C299.659 38.2559 299.867 38.3259 300.124 38.3259ZM304.934 38.946H304.045V31.3483H304.934V38.946Z" fill="white"/>
<path d="M20 31C20 24.9249 24.9249 20 31 20H53C59.0751 20 64 24.9249 64 31V31C64 37.0751 59.0751 42 53 42H31C24.9249 42 20 37.0751 20 31V31Z" fill="white" fill-opacity="0.8"/>
<path fill-rule="evenodd" clip-rule="evenodd" d="M27 27.7191V36H28.3736C28.4165 36 28.5195 35.9753 28.5882 35.8764V33.2397C30.1335 34.3109 32.8807 33.7753 32.8807 30.5206C32.8807 27.5131 30.2193 26.8127 28.4165 28.2135C28.4022 28.0762 28.3221 27.785 28.116 27.7191H27ZM30.6915 29.1199C29.9704 28.4936 28.9888 28.8589 28.5882 29.1199V32.0861C29.6871 32.8112 30.4483 32.3883 30.6915 32.0861C31.0006 31.9543 31.0778 30.9875 31.0778 30.5206C31.1122 29.7955 30.8346 29.2846 30.6915 29.1199Z" fill="#00A8E1"/>
<path d="M34.0396 33.4457V27.8839C34.0396 27.829 34.074 27.7109 34.2113 27.6779H35.2844C35.3417 27.6367 35.499 27.7356 35.6707 28.4607C35.6851 28.5019 35.7308 28.5678 35.7995 28.5019C35.8854 28.4195 36.7009 27.5543 37.5594 27.6367C37.9028 27.6367 37.9887 27.774 37.9887 27.8427V28.9963C37.9744 29.0649 37.9114 29.2022 37.774 29.2022C36.5722 29.1363 35.9569 29.3396 35.7995 29.4494V33.4457C35.7995 33.4869 35.7738 33.5775 35.6707 33.6105H34.1684C34.1255 33.6105 34.0396 33.5775 34.0396 33.4457Z" fill="#00A8E1"/>
<path d="M39.0189 27.6779H40.3066C40.3781 27.6916 40.5212 27.7521 40.5212 27.8839V33.4457C40.5069 33.4869 40.4525 33.5775 40.3495 33.6105H38.9759C38.9187 33.5968 38.7956 33.5446 38.7613 33.4457L38.8042 27.8839C38.8042 27.829 38.8472 27.7109 39.0189 27.6779Z" fill="#00A8E1"/>
<path d="M39.3622 26.7303C39.491 26.7441 39.7915 26.7633 39.9632 26.7303C40.1349 26.6974 40.3209 26.5793 40.3924 26.5243C40.5641 26.3596 40.65 26.1124 40.65 25.8652C40.65 25.5356 40.5641 25.412 40.4354 25.2472C40.3495 25.1785 40.1778 25 39.9632 25H39.3622C39.2049 25.0412 38.8643 25.1483 38.7613 25.412C38.6583 25.6757 38.6755 25.7553 38.6755 25.9064C38.6755 26.0574 38.7579 26.3563 38.933 26.5243C39.1081 26.6924 39.2907 26.7166 39.3622 26.7303Z" fill="#00A8E1"/>
<path d="M43.6547 28.2547C43.6118 28.0899 43.4916 27.7521 43.3542 27.7191C43.2169 27.6861 42.5244 27.7054 42.1953 27.7191C42.138 27.7191 42.0236 27.7521 42.0236 27.8839V33.4457C42.0379 33.4869 42.0922 33.5775 42.1953 33.6105C42.2983 33.6434 43.1539 33.6242 43.5688 33.6105C43.6261 33.5968 43.7577 33.5446 43.8264 33.4457L43.7835 29.161C44.0267 29.0237 44.6248 28.7655 45.0712 28.8315C45.6292 28.8727 45.8009 29.1336 45.8438 29.2846L45.8868 33.4457C45.9011 33.5006 45.9554 33.6105 46.0585 33.6105H47.475C47.5179 33.5968 47.6123 33.5446 47.6467 33.4457V29.161C47.847 29.01 48.3764 28.7243 48.8915 28.7903C49.4066 28.8562 49.6212 29.1748 49.6641 29.3258V33.3633C49.6641 33.432 49.6985 33.5775 49.8358 33.6105H51.3382C51.3811 33.583 51.467 33.4951 51.467 33.3633V29.0787C51.4383 28.5705 51.0549 27.5461 49.75 27.5131C48.4451 27.4801 47.661 27.9938 47.4321 28.2547C47.2747 28.0075 46.7453 27.5131 45.8868 27.5131C45.0283 27.5131 44.041 28.0075 43.6547 28.2547Z" fill="#00A8E1"/>
<path fill-rule="evenodd" clip-rule="evenodd" d="M54.1283 31.0974C54.071 31.8252 54.6605 33.0831 57.4764 32.2921C57.6481 32.2262 57.691 32.4569 57.691 32.5805V33.1985C57.5336 33.4045 56.9098 33.8165 55.6735 33.8165C53.2698 33.8165 52.583 32.2235 52.5401 31.427C52.3827 30.7678 52.3598 29.194 53.5273 28.1723C55.1756 26.9858 56.8182 27.6779 57.4335 28.1723C57.8198 28.5156 58.395 29.4494 57.6052 30.4382C56.8153 31.427 54.9581 31.2896 54.1283 31.0974ZM55.4589 28.7079C54.3944 28.7079 54.1283 29.6417 54.1283 30.1086C54.4574 30.1498 55.21 30.224 55.5877 30.191C55.9654 30.1581 56.203 29.9301 56.2745 29.8202C56.4462 29.4494 56.5235 28.7079 55.4589 28.7079Z" fill="#00A8E1"/>
<path fill-rule="evenodd" clip-rule="evenodd" d="M27 27.7191V36H28.3736C28.4165 36 28.5195 35.9753 28.5882 35.8764V33.2397C30.1335 34.3109 32.8807 33.7753 32.8807 30.5206C32.8807 27.5131 30.2193 26.8127 28.4165 28.2135C28.4022 28.0762 28.3221 27.785 28.116 27.7191H27ZM30.6915 29.1199C29.9704 28.4936 28.9888 28.8589 28.5882 29.1199V32.0861C29.6871 32.8112 30.4483 32.3883 30.6915 32.0861C31.0006 31.9543 31.0778 30.9875 31.0778 30.5206C31.1122 29.7955 30.8346 29.2846 30.6915 29.1199Z" fill="#00A8E1"/>
<g clip-path="url(#clip0)">
<rect width="179" height="326" transform="translate(326 21) rotate(90)" fill="url(#paint1_linear)"/>
<rect x="24.4313" y="89.4313" width="53.9091" height="13.8007" rx="6.90036" fill="#111111" fill-opacity="0.2"/>
<g clip-path="url(#clip1)">
<g clip-path="url(#clip2)">
<path d="M37.2124 95.6945C37.2124 95.2422 36.8917 94.8639 36.4667 94.7728C36.6365 94.4893 36.7407 94.1615 36.7407 93.8077C36.7407 92.7671 35.8945 91.9209 34.8539 91.9209C34.1383 91.9209 33.5232 92.3251 33.2029 92.9134C32.8827 92.3251 32.2676 91.9209 31.552 91.9209C30.5114 91.9209 29.6652 92.7671 29.6652 93.8077C29.6652 94.2332 29.8123 94.6224 30.0505 94.9379C29.9315 95.025 29.8346 95.1388 29.7676 95.2703C29.7007 95.4017 29.6656 95.547 29.6652 95.6945V99.4682C29.6652 99.9885 30.0883 100.412 30.6086 100.412H36.269C36.7893 100.412 37.2124 99.9885 37.2124 99.4682V98.2238L39.0993 99.1672V95.8653L37.2124 96.8087V95.6945ZM34.8539 92.8643C35.3742 92.8643 35.7973 93.2874 35.7973 93.8077C35.7973 94.328 35.3742 94.7511 34.8539 94.7511C34.3336 94.7511 33.9105 94.328 33.9105 93.8077C33.9105 93.2874 34.3336 92.8643 34.8539 92.8643ZM31.552 92.8643C32.0723 92.8643 32.4954 93.2874 32.4954 93.8077C32.4954 94.328 32.0723 94.7511 31.552 94.7511C31.0317 94.7511 30.6086 94.328 30.6086 93.8077C30.6086 93.2874 31.0317 92.8643 31.552 92.8643ZM30.6086 99.4682V95.6945H36.269L36.27 99.4682H30.6086Z" fill="white"/>
</g>
<path d="M49.4907 93.4978V94.2559H47.2164V100.725H46.2814V94.2559H44.0071V93.4978H49.4907ZM50.5065 100.725V95.4184H51.1383L51.305 96.0956C51.77 95.6441 52.3293 95.4184 52.983 95.4184V96.1967C52.3495 96.1967 51.8357 96.4207 51.4415 96.8689V100.725H50.5065ZM53.6703 99.1229C53.6703 98.0346 54.388 97.4905 55.8233 97.4905C56.2849 97.4905 56.7465 97.5242 57.2081 97.5916V97.0912C57.2081 96.4814 56.7313 96.1765 55.7778 96.1765C55.232 96.1765 54.6727 96.2607 54.0999 96.4292V95.6711C54.6727 95.5026 55.232 95.4184 55.7778 95.4184C57.3546 95.4184 58.1431 95.9676 58.1431 97.066V100.725H57.6175L57.294 100.199C56.765 100.55 56.1889 100.725 55.5655 100.725C54.302 100.725 53.6703 100.191 53.6703 99.1229ZM55.8233 98.2486C55.0113 98.2486 54.6053 98.535 54.6053 99.1078C54.6053 99.6805 54.9254 99.9669 55.5655 99.9669C56.2124 99.9669 56.76 99.7951 57.2081 99.4514V98.3497C56.7465 98.2823 56.2849 98.2486 55.8233 98.2486ZM60.7004 95.4184V100.725H59.7654V95.4184H60.7004ZM60.7004 93.4978V94.3823H59.7654V93.4978H60.7004ZM63.3082 93.4978V100.725H62.3732V93.4978H63.3082ZM67.0684 95.4184C68.5778 95.4184 69.3326 96.1647 69.3326 97.6573C69.3326 97.8695 69.3174 98.097 69.2871 98.3396H65.5623C65.5623 99.4245 66.1957 99.9669 67.4626 99.9669C68.0657 99.9669 68.6014 99.8996 69.0698 99.7648V100.523C68.6014 100.658 68.032 100.725 67.3615 100.725C65.5387 100.725 64.6273 99.8204 64.6273 98.011C64.6273 96.2826 65.441 95.4184 67.0684 95.4184ZM65.5623 97.5612H68.433C68.4128 96.6313 67.9579 96.1663 67.0684 96.1663C66.125 96.1663 65.623 96.6313 65.5623 97.5612ZM70.591 100.725V95.4184H71.2228L71.3895 96.0956C71.8545 95.6441 72.4138 95.4184 73.0675 95.4184V96.1967C72.434 96.1967 71.9202 96.4207 71.526 96.8689V100.725H70.591Z" fill="white"/>
</g>
<rect x="24.4313" y="89.4313" width="53.9091" height="13.8007" rx="6.90036" stroke="white" stroke-width="0.862546"/>
<path d="M32.1605 112.248V113.896H26.9852V116.498H31.9148V118.211H26.9635V120.922H32.2617V122.584H25.0842V112.248H32.1605ZM33.8519 122.584V114.995H35.3337L35.5577 116.094C36.2372 115.361 37.054 114.995 38.0081 114.995C38.9622 114.995 39.6151 115.342 39.9669 116.036C40.7427 115.342 41.5546 114.995 42.4027 114.995C44.1471 114.995 45.0193 115.956 45.0193 117.879V122.584H43.1039V117.807C43.1039 116.963 42.7232 116.542 41.9618 116.542C41.3932 116.542 40.8463 116.797 40.3211 117.308V122.584H38.4056V117.828C38.4056 116.971 38.0538 116.542 37.3503 116.542C36.7913 116.542 36.2637 116.797 35.7673 117.308V122.584H33.8519ZM46.8336 122.584V114.995H48.3153L48.5394 116.094C49.2188 115.361 50.0356 114.995 50.9897 114.995C51.9438 114.995 52.5968 115.342 52.9485 116.036C53.7244 115.342 54.5363 114.995 55.3844 114.995C57.1288 114.995 58.001 115.956 58.001 117.879V122.584H56.0855V117.807C56.0855 116.963 55.7049 116.542 54.9435 116.542C54.3749 116.542 53.828 116.797 53.3027 117.308V122.584H51.3873V117.828C51.3873 116.971 51.0355 116.542 50.332 116.542C49.773 116.542 49.2453 116.797 48.749 117.308V122.584H46.8336ZM59.4538 120.221C59.4538 118.713 60.5525 117.958 62.7498 117.958C63.2655 117.958 63.7811 118.007 64.2967 118.103V117.532C64.2967 116.853 63.8076 116.513 62.8294 116.513C62.0005 116.513 61.0802 116.633 60.0682 116.874V115.356C61.0802 115.115 62.0005 114.995 62.8294 114.995C65.0845 114.995 66.2121 115.829 66.2121 117.496V122.584H65.099L64.4195 121.905C63.7594 122.358 63.0317 122.584 62.2367 122.584C60.3814 122.584 59.4538 121.797 59.4538 120.221ZM64.2967 119.404C63.8148 119.308 63.2992 119.26 62.7498 119.26C61.8295 119.26 61.3693 119.573 61.3693 120.199C61.3693 120.874 61.7548 121.211 62.5258 121.211C63.1619 121.211 63.7521 121.014 64.2967 120.618V119.404Z" fill="white"/>
<path d="M28.6259 133.663L27.3104 136.328L24.37 136.753L26.4979 138.829L25.9949 141.758L28.6259 140.376L31.2569 141.758L30.7539 138.829L32.8818 136.756L29.9414 136.328L28.6259 133.663Z" fill="#F39B13"/>
<path d="M37.8937 134.276C38.1771 134.276 38.4436 134.313 38.6932 134.387C38.9462 134.461 39.1671 134.572 39.356 134.721C39.5483 134.869 39.7001 135.055 39.8114 135.277C39.9227 135.5 39.9783 135.76 39.9783 136.057C39.9783 136.283 39.9446 136.487 39.8771 136.669C39.8097 136.851 39.7169 137.016 39.5989 137.165C39.4808 137.31 39.3408 137.441 39.1789 137.559C39.017 137.674 38.8416 137.779 38.6527 137.873C38.8483 137.978 39.0389 138.094 39.2244 138.222C39.4133 138.35 39.5803 138.495 39.7254 138.657C39.8738 138.816 39.9918 138.995 40.0795 139.194C40.1706 139.393 40.2161 139.615 40.2161 139.861C40.2161 140.172 40.1588 140.453 40.0441 140.706C39.9328 140.956 39.7743 141.169 39.5685 141.344C39.3661 141.519 39.1216 141.654 38.8348 141.749C38.5515 141.843 38.2378 141.89 37.8937 141.89C37.5227 141.89 37.1921 141.845 36.9021 141.754C36.6153 141.663 36.3725 141.533 36.1735 141.364C35.9778 141.192 35.8277 140.983 35.7232 140.737C35.622 140.491 35.5714 140.212 35.5714 139.902C35.5714 139.649 35.6085 139.421 35.6827 139.219C35.7603 139.016 35.8631 138.834 35.9913 138.672C36.1195 138.511 36.2713 138.367 36.4467 138.242C36.6221 138.118 36.8076 138.008 37.0032 137.913C36.838 137.809 36.6828 137.696 36.5378 137.574C36.3927 137.45 36.2662 137.311 36.1583 137.16C36.0537 137.008 35.9694 136.841 35.9053 136.659C35.8446 136.473 35.8142 136.269 35.8142 136.046C35.8142 135.753 35.8699 135.497 35.9812 135.277C36.0959 135.055 36.2494 134.869 36.4416 134.721C36.6339 134.572 36.8548 134.461 37.1044 134.387C37.3574 134.313 37.6205 134.276 37.8937 134.276ZM36.477 139.912C36.477 140.091 36.504 140.256 36.558 140.408C36.612 140.556 36.6963 140.684 36.811 140.792C36.9257 140.897 37.0707 140.98 37.2461 141.04C37.4215 141.098 37.6306 141.126 37.8735 141.126C38.1096 141.126 38.3171 141.098 38.4959 141.04C38.678 140.98 38.8298 140.895 38.9512 140.787C39.0727 140.676 39.1637 140.543 39.2244 140.388C39.2852 140.232 39.3155 140.06 39.3155 139.872C39.3155 139.696 39.2818 139.538 39.2143 139.396C39.1502 139.254 39.0558 139.123 38.931 139.001C38.8095 138.88 38.6628 138.765 38.4908 138.657C38.3188 138.549 38.1265 138.443 37.914 138.338L37.7622 138.268C37.3372 138.47 37.0167 138.703 36.8009 138.966C36.585 139.226 36.477 139.541 36.477 139.912ZM37.8836 135.045C37.5261 135.045 37.2411 135.134 37.0285 135.313C36.8194 135.492 36.7148 135.751 36.7148 136.092C36.7148 136.284 36.7435 136.45 36.8009 136.588C36.8616 136.726 36.9442 136.849 37.0488 136.957C37.1534 137.065 37.2782 137.163 37.4232 137.251C37.5716 137.335 37.7318 137.418 37.9039 137.499C38.0658 137.424 38.2176 137.343 38.3592 137.256C38.5043 137.168 38.6291 137.069 38.7337 136.957C38.8416 136.846 38.9259 136.719 38.9866 136.578C39.0474 136.436 39.0777 136.274 39.0777 136.092C39.0777 135.751 38.9715 135.492 38.759 135.313C38.5464 135.134 38.2547 135.045 37.8836 135.045ZM41.4861 141.228C41.4861 141.099 41.503 140.991 41.5367 140.904C41.5704 140.813 41.616 140.74 41.6733 140.686C41.7307 140.629 41.7981 140.588 41.8757 140.565C41.9533 140.538 42.0376 140.524 42.1287 140.524C42.2164 140.524 42.299 140.538 42.3766 140.565C42.4576 140.588 42.5267 140.629 42.5841 140.686C42.6414 140.74 42.6869 140.813 42.7207 140.904C42.7544 140.991 42.7713 141.099 42.7713 141.228C42.7713 141.352 42.7544 141.46 42.7207 141.551C42.6869 141.639 42.6414 141.712 42.5841 141.769C42.5267 141.826 42.4576 141.868 42.3766 141.895C42.299 141.922 42.2164 141.936 42.1287 141.936C42.0376 141.936 41.9533 141.922 41.8757 141.895C41.7981 141.868 41.7307 141.826 41.6733 141.769C41.616 141.712 41.5704 141.639 41.5367 141.551C41.503 141.46 41.4861 141.352 41.4861 141.228ZM48.7265 137.549C48.7265 137.903 48.708 138.258 48.6708 138.612C48.6371 138.963 48.5747 139.298 48.4836 139.619C48.3959 139.939 48.2745 140.239 48.1193 140.519C47.9642 140.796 47.7669 141.035 47.5274 141.238C47.2879 141.44 47.0012 141.6 46.6672 141.718C46.3333 141.833 45.942 141.89 45.4934 141.89C45.4293 141.89 45.3585 141.889 45.2809 141.885C45.2033 141.882 45.1257 141.875 45.0481 141.865C44.9705 141.858 44.8946 141.85 44.8204 141.84C44.7462 141.83 44.6805 141.816 44.6231 141.799V141.01C44.7412 141.054 44.8744 141.086 45.0228 141.106C45.1712 141.126 45.318 141.136 45.463 141.136C45.9184 141.136 46.2928 141.057 46.5863 140.899C46.8797 140.74 47.1125 140.526 47.2845 140.256C47.4565 139.983 47.578 139.666 47.6488 139.305C47.723 138.944 47.7685 138.563 47.7854 138.161H47.7196C47.6522 138.283 47.5712 138.396 47.4768 138.5C47.3823 138.605 47.271 138.696 47.1428 138.774C47.0146 138.851 46.8696 138.912 46.7077 138.956C46.5458 139 46.3653 139.022 46.1663 139.022C45.8459 139.022 45.5558 138.973 45.296 138.875C45.0363 138.774 44.8154 138.627 44.6332 138.435C44.4511 138.242 44.3094 138.008 44.2082 137.731C44.1104 137.451 44.0615 137.133 44.0615 136.775C44.0615 136.391 44.1138 136.045 44.2183 135.738C44.3263 135.427 44.4764 135.166 44.6686 134.954C44.8643 134.738 45.1004 134.572 45.377 134.458C45.657 134.343 45.969 134.286 46.313 134.286C46.6537 134.286 46.9708 134.351 47.2643 134.483C47.5577 134.615 47.8124 134.815 48.0283 135.085C48.2441 135.355 48.4145 135.696 48.5393 136.107C48.6641 136.515 48.7265 136.996 48.7265 137.549ZM46.3232 135.065C46.1208 135.065 45.9353 135.099 45.7666 135.166C45.6013 135.234 45.458 135.338 45.3365 135.48C45.2151 135.621 45.1206 135.8 45.0532 136.016C44.9891 136.229 44.9571 136.482 44.9571 136.775C44.9571 137.011 44.984 137.224 45.038 137.413C45.0953 137.598 45.1797 137.757 45.291 137.888C45.4023 138.02 45.5406 138.121 45.7059 138.192C45.8745 138.263 46.0702 138.298 46.2928 138.298C46.5222 138.298 46.7296 138.259 46.9151 138.182C47.1007 138.101 47.2592 137.998 47.3908 137.873C47.5223 137.745 47.6235 137.6 47.6943 137.438C47.7685 137.276 47.8056 137.114 47.8056 136.952C47.8056 136.726 47.7736 136.502 47.7095 136.279C47.6488 136.053 47.556 135.851 47.4312 135.672C47.3098 135.49 47.1563 135.343 46.9708 135.232C46.7853 135.121 46.5694 135.065 46.3232 135.065Z" fill="white"/>
<path d="M52.9789 134.554V141.789H52.0429V134.554H52.9789ZM54.856 141.789V134.554H56.0451L58.7014 140.59L61.3071 134.554H62.4455V141.789H61.6107V135.854L59.0404 141.789H58.3017L55.6909 135.854V141.789H54.856ZM66.7969 141.03C68.5677 141.03 69.4532 140.012 69.4532 137.974C69.4532 136.2 68.5677 135.313 66.7969 135.313H65.1019V141.03H66.7969ZM64.1658 141.789V134.554H66.7969C69.1918 134.554 70.3892 135.694 70.3892 137.974C70.3892 140.518 69.1918 141.789 66.7969 141.789H64.1658ZM72.5902 140.863C72.8971 140.961 73.2699 141.01 73.7084 141.01C74.889 141.01 75.4793 140.337 75.4793 138.991C75.4793 137.854 74.9446 137.286 73.8753 137.286C73.3896 137.286 72.9612 137.377 72.5902 137.559V140.863ZM71.6541 134.554H72.5902V136.73C72.9916 136.561 73.4217 136.477 73.8804 136.477C75.5602 136.477 76.4001 137.327 76.4001 139.027C76.4001 140.868 75.518 141.789 73.7539 141.789C72.9916 141.789 72.2917 141.717 71.6541 141.572V134.554Z" fill="white"/>
<path d="M29.3784 158.553H24.4149V157.465L26.1554 155.588C26.3747 155.352 26.5737 155.134 26.7525 154.935C26.9312 154.736 27.0847 154.542 27.2129 154.354C27.3411 154.165 27.4406 153.972 27.5114 153.777C27.5822 153.581 27.6177 153.37 27.6177 153.144C27.6177 152.895 27.5418 152.701 27.39 152.562C27.2416 152.424 27.0409 152.355 26.7879 152.355C26.5214 152.355 26.265 152.421 26.0188 152.552C25.7726 152.684 25.5145 152.871 25.2447 153.114L24.3947 152.107C24.5464 151.969 24.705 151.837 24.8703 151.712C25.0355 151.584 25.2177 151.471 25.4167 151.373C25.6157 151.276 25.835 151.198 26.0745 151.141C26.314 151.08 26.5821 151.05 26.879 151.05C27.2331 151.05 27.5502 151.098 27.8302 151.196C28.1135 151.294 28.3547 151.434 28.5537 151.616C28.7527 151.795 28.9045 152.013 29.0091 152.269C29.117 152.525 29.171 152.814 29.171 153.134C29.171 153.424 29.1204 153.703 29.0192 153.969C28.918 154.232 28.7797 154.492 28.6043 154.748C28.4289 155.001 28.2248 155.254 27.9921 155.507C27.7627 155.757 27.5165 156.011 27.2534 156.271L26.3629 157.167V157.238H29.3784V158.553ZM35.0959 154.854C35.0959 155.451 35.0486 155.984 34.9542 156.453C34.8631 156.922 34.7147 157.32 34.5089 157.647C34.3065 157.975 34.0434 158.224 33.7196 158.396C33.3992 158.568 33.0113 158.654 32.5559 158.654C32.1275 158.654 31.7548 158.568 31.4377 158.396C31.1206 158.224 30.8575 157.975 30.6484 157.647C30.4393 157.32 30.2824 156.922 30.1779 156.453C30.0767 155.984 30.0261 155.451 30.0261 154.854C30.0261 154.257 30.0716 153.723 30.1627 153.251C30.2571 152.778 30.4055 152.379 30.6079 152.051C30.8103 151.724 31.0717 151.475 31.3922 151.303C31.7126 151.127 32.1005 151.039 32.5559 151.039C32.9809 151.039 33.352 151.125 33.669 151.297C33.9861 151.47 34.2509 151.719 34.4634 152.046C34.6759 152.373 34.8344 152.773 34.939 153.245C35.0436 153.718 35.0959 154.254 35.0959 154.854ZM31.5844 154.854C31.5844 155.698 31.657 156.332 31.802 156.757C31.9471 157.182 32.1984 157.394 32.5559 157.394C32.9067 157.394 33.158 157.184 33.3098 156.762C33.465 156.34 33.5425 155.704 33.5425 154.854C33.5425 154.008 33.465 153.372 33.3098 152.947C33.158 152.519 32.9067 152.304 32.5559 152.304C32.3771 152.304 32.2253 152.358 32.1005 152.466C31.9791 152.574 31.8796 152.734 31.802 152.947C31.7244 153.159 31.6688 153.426 31.635 153.746C31.6013 154.063 31.5844 154.433 31.5844 154.854ZM40.793 158.553H35.8295V157.465L37.57 155.588C37.7893 155.352 37.9883 155.134 38.1671 154.935C38.3459 154.736 38.4993 154.542 38.6275 154.354C38.7557 154.165 38.8552 153.972 38.926 153.777C38.9969 153.581 39.0323 153.37 39.0323 153.144C39.0323 152.895 38.9564 152.701 38.8046 152.562C38.6562 152.424 38.4555 152.355 38.2025 152.355C37.936 152.355 37.6797 152.421 37.4334 152.552C37.1872 152.684 36.9291 152.871 36.6593 153.114L35.8093 152.107C35.9611 151.969 36.1196 151.837 36.2849 151.712C36.4502 151.584 36.6323 151.471 36.8313 151.373C37.0303 151.276 37.2496 151.198 37.4891 151.141C37.7286 151.08 37.9967 151.05 38.2936 151.05C38.6477 151.05 38.9648 151.098 39.2448 151.196C39.5281 151.294 39.7693 151.434 39.9683 151.616C40.1673 151.795 40.3191 152.013 40.4237 152.269C40.5316 152.525 40.5856 152.814 40.5856 153.134C40.5856 153.424 40.535 153.703 40.4338 153.969C40.3326 154.232 40.1943 154.492 40.0189 154.748C39.8435 155.001 39.6394 155.254 39.4067 155.507C39.1773 155.757 38.9311 156.011 38.668 156.271L37.7775 157.167V157.238H40.793V158.553ZM46.5105 154.854C46.5105 155.451 46.4633 155.984 46.3688 156.453C46.2777 156.922 46.1293 157.32 45.9236 157.647C45.7212 157.975 45.4581 158.224 45.1342 158.396C44.8138 158.568 44.4259 158.654 43.9705 158.654C43.5421 158.654 43.1694 158.568 42.8523 158.396C42.5353 158.224 42.2722 157.975 42.063 157.647C41.8539 157.32 41.697 156.922 41.5925 156.453C41.4913 155.984 41.4407 155.451 41.4407 154.854C41.4407 154.257 41.4862 153.723 41.5773 153.251C41.6717 152.778 41.8202 152.379 42.0225 152.051C42.2249 151.724 42.4863 151.475 42.8068 151.303C43.1272 151.127 43.5151 151.039 43.9705 151.039C44.3955 151.039 44.7666 151.125 45.0836 151.297C45.4007 151.47 45.6655 151.719 45.878 152.046C46.0905 152.373 46.2491 152.773 46.3536 153.245C46.4582 153.718 46.5105 154.254 46.5105 154.854ZM42.9991 154.854C42.9991 155.698 43.0716 156.332 43.2166 156.757C43.3617 157.182 43.613 157.394 43.9705 157.394C44.3213 157.394 44.5726 157.184 44.7244 156.762C44.8796 156.34 44.9572 155.704 44.9572 154.854C44.9572 154.008 44.8796 153.372 44.7244 152.947C44.5726 152.519 44.3213 152.304 43.9705 152.304C43.7917 152.304 43.64 152.358 43.5151 152.466C43.3937 152.574 43.2942 152.734 43.2166 152.947C43.139 153.159 43.0834 153.426 43.0497 153.746C43.0159 154.063 42.9991 154.433 42.9991 154.854Z" fill="white"/>
<path d="M62.5378 153.215C62.28 153.215 62.0463 153.265 61.8366 153.363C61.627 153.46 61.4475 153.6 61.2981 153.783C61.1512 153.966 61.0367 154.189 60.9548 154.451C60.8753 154.714 60.8355 155.01 60.8355 155.34C60.8355 155.68 60.8705 155.982 60.9404 156.247C61.0126 156.51 61.1199 156.732 61.262 156.912C61.4042 157.093 61.5812 157.23 61.7933 157.324C62.0053 157.418 62.2535 157.465 62.5378 157.465C62.7522 157.465 62.9558 157.445 63.1485 157.404C63.3413 157.361 63.5316 157.311 63.7196 157.256V157.841C63.6256 157.877 63.5316 157.91 63.4377 157.939C63.3437 157.965 63.2449 157.987 63.1413 158.004C63.0401 158.021 62.9305 158.033 62.8124 158.04C62.6968 158.05 62.5679 158.054 62.4257 158.054C62.0306 158.054 61.6885 157.989 61.3993 157.859C61.1102 157.729 60.8705 157.545 60.6801 157.306C60.4922 157.068 60.3525 156.781 60.2609 156.446C60.1694 156.111 60.1236 155.74 60.1236 155.333C60.1236 154.933 60.1754 154.567 60.279 154.234C60.385 153.902 60.5392 153.616 60.7416 153.378C60.9464 153.139 61.1994 152.954 61.5005 152.821C61.8017 152.689 62.1474 152.623 62.5378 152.623C62.798 152.623 63.0461 152.649 63.2823 152.702C63.5184 152.755 63.7316 152.832 63.9219 152.933L63.64 153.497C63.4883 153.42 63.3232 153.354 63.1449 153.298C62.9666 153.243 62.7642 153.215 62.5378 153.215ZM66.8529 153.215C66.5951 153.215 66.3614 153.265 66.1518 153.363C65.9422 153.46 65.7627 153.6 65.6133 153.783C65.4663 153.966 65.3519 154.189 65.27 154.451C65.1905 154.714 65.1507 155.01 65.1507 155.34C65.1507 155.68 65.1857 155.982 65.2555 156.247C65.3278 156.51 65.435 156.732 65.5772 156.912C65.7193 157.093 65.8964 157.23 66.1084 157.324C66.3205 157.418 66.5686 157.465 66.8529 157.465C67.0674 157.465 67.271 157.445 67.4637 157.404C67.6565 157.361 67.8468 157.311 68.0347 157.256V157.841C67.9408 157.877 67.8468 157.91 67.7528 157.939C67.6589 157.965 67.5601 157.987 67.4565 158.004C67.3553 158.021 67.2457 158.033 67.1276 158.04C67.012 158.05 66.8831 158.054 66.7409 158.054C66.3458 158.054 66.0036 157.989 65.7145 157.859C65.4254 157.729 65.1857 157.545 64.9953 157.306C64.8074 157.068 64.6676 156.781 64.5761 156.446C64.4845 156.111 64.4388 155.74 64.4388 155.333C64.4388 154.933 64.4906 154.567 64.5942 154.234C64.7002 153.902 64.8544 153.616 65.0568 153.378C65.2616 153.139 65.5145 152.954 65.8157 152.821C66.1169 152.689 66.4626 152.623 66.8529 152.623C67.1132 152.623 67.3613 152.649 67.5974 152.702C67.8336 152.755 68.0468 152.832 68.2371 152.933L67.9552 153.497C67.8034 153.42 67.6384 153.354 67.4601 153.298C67.2818 153.243 67.0794 153.215 66.8529 153.215Z" fill="white"/>
<rect x="56.2913" y="150.242" width="15.5433" height="9.62205" rx="1.85039" stroke="white" stroke-width="0.740158"/>
<path d="M84.5726 157.982H83.9365V154.683C83.9365 154.579 83.9365 154.468 83.9365 154.35C83.939 154.232 83.9414 154.115 83.9438 153.999C83.9486 153.881 83.9522 153.769 83.9546 153.663C83.9594 153.555 83.963 153.46 83.9655 153.378C83.9245 153.421 83.8884 153.459 83.857 153.49C83.8257 153.521 83.7932 153.551 83.7595 153.58C83.7281 153.609 83.6944 153.64 83.6583 153.674C83.6221 153.706 83.5788 153.743 83.5282 153.786L82.9933 154.224L82.6463 153.779L84.0305 152.698H84.5726V157.982ZM86.4881 155.723C86.4881 155.47 86.5001 155.219 86.5242 154.968C86.5507 154.717 86.5953 154.478 86.6579 154.249C86.723 154.018 86.8109 153.803 86.9217 153.606C87.0326 153.408 87.1735 153.237 87.3446 153.092C87.5157 152.945 87.7205 152.831 87.959 152.749C88.1975 152.665 88.477 152.623 88.7974 152.623C88.8432 152.623 88.8938 152.624 88.9492 152.626C89.0046 152.629 89.0601 152.633 89.1155 152.641C89.1733 152.645 89.2275 152.653 89.2781 152.662C89.3311 152.67 89.3781 152.679 89.4191 152.691V153.251C89.3347 153.222 89.2396 153.201 89.1335 153.186C89.0275 153.172 88.9227 153.165 88.8191 153.165C88.6023 153.165 88.4107 153.191 88.2445 153.244C88.0807 153.295 87.9385 153.367 87.818 153.461C87.6976 153.555 87.5964 153.667 87.5145 153.797C87.4349 153.927 87.3699 154.072 87.3193 154.231C87.2687 154.387 87.2314 154.555 87.2073 154.733C87.1832 154.911 87.1675 155.097 87.1603 155.29H87.2036C87.2518 155.203 87.3097 155.122 87.3771 155.048C87.447 154.97 87.5277 154.905 87.6193 154.852C87.7108 154.797 87.8132 154.754 87.9265 154.722C88.0421 154.691 88.171 154.675 88.3132 154.675C88.542 154.675 88.7493 154.711 88.9348 154.784C89.1203 154.854 89.2781 154.957 89.4082 155.095C89.5383 155.232 89.6383 155.401 89.7082 155.601C89.7805 155.798 89.8166 156.025 89.8166 156.28C89.8166 156.555 89.7793 156.802 89.7046 157.021C89.6299 157.24 89.5227 157.427 89.3829 157.581C89.2432 157.733 89.0745 157.85 88.8769 157.932C88.6794 158.013 88.4577 158.054 88.212 158.054C87.971 158.054 87.7445 158.007 87.5325 157.914C87.3229 157.82 87.141 157.676 86.9868 157.483C86.8326 157.291 86.7109 157.049 86.6218 156.757C86.5326 156.465 86.4881 156.121 86.4881 155.723ZM88.2047 157.502C88.3493 157.502 88.4806 157.477 88.5987 157.429C88.7191 157.379 88.8227 157.304 88.9095 157.205C88.9962 157.104 89.0625 156.977 89.1082 156.826C89.1564 156.671 89.1805 156.49 89.1805 156.28C89.1805 156.111 89.1601 155.961 89.1191 155.828C89.0805 155.693 89.0215 155.579 88.942 155.485C88.8625 155.391 88.7625 155.319 88.642 155.268C88.524 155.217 88.3854 155.192 88.2264 155.192C88.065 155.192 87.9168 155.221 87.7819 155.279C87.6494 155.334 87.5361 155.408 87.4422 155.499C87.3482 155.588 87.2747 155.691 87.2217 155.807C87.1711 155.922 87.1458 156.038 87.1458 156.153C87.1458 156.315 87.1675 156.476 87.2109 156.638C87.2567 156.797 87.3229 156.94 87.4096 157.068C87.4988 157.196 87.6096 157.3 87.7421 157.382C87.8747 157.462 88.0289 157.502 88.2047 157.502ZM91.9236 155.644H90.525V155.102H91.9236V153.696H92.4657V155.102H93.8643V155.644H92.4657V157.035H91.9236V155.644Z" fill="white"/>
<rect x="78.4961" y="150.242" width="19.2441" height="9.62205" rx="1.85039" stroke="white" stroke-width="0.740158"/>
<circle cx="25.1102" cy="172.474" r="1.11024" fill="#E1E1E1" fill-opacity="0.5"/>
<path d="M34.6203 170.743C34.6203 171.05 34.5731 171.345 34.4786 171.628C34.3876 171.911 34.2358 172.163 34.0233 172.382C33.8108 172.598 33.5291 172.772 33.1783 172.903C32.8309 173.031 32.4008 173.095 31.8881 173.095H31.1291V175.974H30.188V168.577H32.0196C32.4716 168.577 32.8612 168.626 33.1884 168.724C33.5156 168.818 33.7855 168.958 33.998 169.144C34.2105 169.326 34.3673 169.552 34.4685 169.822C34.5697 170.092 34.6203 170.399 34.6203 170.743ZM31.1291 172.296H31.7818C32.0955 172.296 32.3687 172.269 32.6015 172.215C32.8376 172.161 33.0316 172.075 33.1834 171.957C33.3385 171.835 33.4549 171.68 33.5325 171.491C33.6101 171.299 33.6488 171.066 33.6488 170.793C33.6488 170.314 33.5105 169.96 33.2339 169.731C32.9574 169.498 32.5256 169.382 31.9387 169.382H31.1291V172.296ZM38.2278 176.075C37.8568 176.075 37.5178 176.013 37.2108 175.888C36.9039 175.763 36.6391 175.581 36.4165 175.342C36.1972 175.102 36.0269 174.806 35.9055 174.451C35.784 174.097 35.7233 173.692 35.7233 173.237C35.7233 172.778 35.779 172.368 35.8903 172.008C36.0016 171.647 36.1584 171.341 36.3608 171.092C36.5632 170.839 36.8044 170.646 37.0844 170.515C37.3677 170.383 37.6797 170.318 38.0204 170.318C38.3543 170.318 38.6545 170.378 38.921 170.5C39.1875 170.618 39.4135 170.786 39.599 171.006C39.7845 171.222 39.9262 171.483 40.024 171.79C40.1252 172.094 40.1758 172.431 40.1758 172.802V173.374H36.6745C36.6914 174.025 36.828 174.504 37.0844 174.811C37.3441 175.118 37.7286 175.271 38.238 175.271C38.41 175.271 38.5685 175.263 38.7136 175.246C38.862 175.229 39.0037 175.205 39.1386 175.175C39.2769 175.141 39.4101 175.101 39.5383 175.053C39.6665 175.003 39.7963 174.947 39.9279 174.886V175.706C39.793 175.77 39.6597 175.826 39.5282 175.873C39.4 175.92 39.2668 175.959 39.1285 175.989C38.9935 176.02 38.8519 176.042 38.7035 176.055C38.5584 176.069 38.3999 176.075 38.2278 176.075ZM38.0002 171.082C37.6156 171.082 37.3104 171.213 37.0844 171.476C36.8617 171.739 36.7319 172.122 36.6948 172.625H39.1841C39.1841 172.395 39.1605 172.186 39.1133 171.997C39.0694 171.805 38.9986 171.642 38.9008 171.507C38.8063 171.372 38.6849 171.267 38.5365 171.193C38.3881 171.119 38.2093 171.082 38.0002 171.082ZM43.9807 170.318C44.0785 170.318 44.1881 170.323 44.3096 170.333C44.431 170.34 44.5356 170.351 44.6233 170.368L44.5018 171.218C44.4074 171.201 44.3096 171.188 44.2084 171.178C44.1106 171.164 44.0178 171.157 43.9301 171.157C43.7176 171.157 43.5236 171.201 43.3482 171.289C43.1728 171.373 43.021 171.496 42.8929 171.658C42.7681 171.817 42.6702 172.009 42.5994 172.235C42.5319 172.458 42.4982 172.706 42.4982 172.979V175.974H41.5773V170.419H42.3262L42.4375 171.436H42.478C42.5623 171.291 42.6517 171.151 42.7461 171.016C42.8439 170.881 42.9519 170.763 43.0699 170.662C43.1914 170.557 43.3263 170.474 43.4747 170.414C43.6231 170.35 43.7918 170.318 43.9807 170.318ZM46.637 175.974H45.7162V170.419H46.637V175.974ZM45.6453 168.916C45.6453 168.714 45.6959 168.567 45.7971 168.476C45.9017 168.385 46.0299 168.339 46.1816 168.339C46.2559 168.339 46.325 168.351 46.3891 168.375C46.4566 168.395 46.5139 168.429 46.5611 168.476C46.6117 168.523 46.6505 168.584 46.6775 168.658C46.7079 168.729 46.723 168.815 46.723 168.916C46.723 169.112 46.6691 169.258 46.5611 169.356C46.4566 169.451 46.3301 169.498 46.1816 169.498C46.0299 169.498 45.9017 169.451 45.7971 169.356C45.6959 169.262 45.6453 169.115 45.6453 168.916ZM52.9262 173.186C52.9262 173.649 52.8688 174.06 52.7542 174.421C52.6428 174.779 52.4809 175.08 52.2684 175.327C52.0593 175.57 51.8046 175.755 51.5044 175.883C51.2042 176.011 50.8669 176.075 50.4925 176.075C50.1451 176.075 49.8246 176.011 49.5311 175.883C49.2377 175.755 48.983 175.57 48.7671 175.327C48.5546 175.08 48.3877 174.779 48.2662 174.421C48.1482 174.06 48.0891 173.649 48.0891 173.186C48.0891 172.728 48.1448 172.321 48.2561 171.967C48.3708 171.609 48.5327 171.309 48.7418 171.066C48.951 170.82 49.2056 170.635 49.5058 170.51C49.8094 170.382 50.1484 170.318 50.5228 170.318C50.8703 170.318 51.1907 170.382 51.4842 170.51C51.7776 170.635 52.0306 170.82 52.2431 171.066C52.459 171.309 52.626 171.609 52.744 171.967C52.8655 172.321 52.9262 172.728 52.9262 173.186ZM49.0404 173.186C49.0404 173.891 49.155 174.423 49.3844 174.78C49.6172 175.134 49.9933 175.311 50.5127 175.311C51.0322 175.311 51.4049 175.134 51.6309 174.78C51.8603 174.423 51.975 173.891 51.975 173.186C51.975 172.481 51.8586 171.955 51.6259 171.608C51.3965 171.257 51.0221 171.082 50.5026 171.082C49.9831 171.082 49.6087 171.257 49.3794 171.608C49.1534 171.955 49.0404 172.481 49.0404 173.186ZM57.8088 175.231H57.7683C57.6941 175.345 57.6064 175.455 57.5052 175.559C57.4074 175.661 57.2927 175.75 57.1611 175.828C57.033 175.905 56.8879 175.966 56.726 176.01C56.5641 176.054 56.3819 176.075 56.1796 176.075C55.8659 176.075 55.5791 176.015 55.3194 175.893C55.0597 175.772 54.8371 175.591 54.6515 175.352C54.466 175.109 54.3227 174.809 54.2215 174.451C54.1203 174.094 54.0697 173.679 54.0697 173.207C54.0697 172.731 54.1203 172.314 54.2215 171.957C54.3227 171.596 54.466 171.294 54.6515 171.051C54.8371 170.808 55.0597 170.626 55.3194 170.505C55.5791 170.38 55.8659 170.318 56.1796 170.318C56.3786 170.318 56.559 170.34 56.7209 170.383C56.8828 170.427 57.0279 170.486 57.1561 170.56C57.2876 170.635 57.404 170.721 57.5052 170.818C57.6064 170.916 57.6941 171.019 57.7683 171.127H57.829C57.8189 171.012 57.8088 170.903 57.7986 170.798C57.7919 170.711 57.7852 170.621 57.7784 170.53C57.7717 170.436 57.7683 170.361 57.7683 170.307V168.101H58.6892V175.974H57.9454L57.8088 175.231ZM56.3566 175.311C56.613 175.311 56.8289 175.273 57.0043 175.195C57.1831 175.118 57.3264 174.999 57.4344 174.841C57.5457 174.682 57.6266 174.485 57.6772 174.249C57.7312 174.009 57.7615 173.731 57.7683 173.414V173.207C57.7683 172.866 57.7447 172.564 57.6975 172.301C57.6536 172.035 57.576 171.812 57.4647 171.633C57.3568 171.451 57.2117 171.314 57.0296 171.223C56.8474 171.129 56.6197 171.082 56.3465 171.082C55.8912 171.082 55.5555 171.265 55.3396 171.633C55.1271 172.001 55.0209 172.529 55.0209 173.217C55.0209 173.922 55.1271 174.448 55.3396 174.795C55.5555 175.139 55.8945 175.311 56.3566 175.311ZM66.5721 175.231H66.5316C66.4574 175.345 66.3697 175.455 66.2685 175.559C66.1707 175.661 66.056 175.75 65.9245 175.828C65.7963 175.905 65.6513 175.966 65.4893 176.01C65.3274 176.054 65.1453 176.075 64.9429 176.075C64.6292 176.075 64.3425 176.015 64.0828 175.893C63.823 175.772 63.6004 175.591 63.4149 175.352C63.2294 175.109 63.086 174.809 62.9848 174.451C62.8836 174.094 62.833 173.679 62.833 173.207C62.833 172.731 62.8836 172.314 62.9848 171.957C63.086 171.596 63.2294 171.294 63.4149 171.051C63.6004 170.808 63.823 170.626 64.0828 170.505C64.3425 170.38 64.6292 170.318 64.9429 170.318C65.1419 170.318 65.3224 170.34 65.4843 170.383C65.6462 170.427 65.7912 170.486 65.9194 170.56C66.051 170.635 66.1673 170.721 66.2685 170.818C66.3697 170.916 66.4574 171.019 66.5316 171.127H66.5924C66.5822 171.012 66.5721 170.903 66.562 170.798C66.5553 170.711 66.5485 170.621 66.5418 170.53C66.535 170.436 66.5316 170.361 66.5316 170.307V168.101H67.4525V175.974H66.7087L66.5721 175.231ZM65.12 175.311C65.3764 175.311 65.5922 175.273 65.7676 175.195C65.9464 175.118 66.0898 174.999 66.1977 174.841C66.309 174.682 66.39 174.485 66.4406 174.249C66.4945 174.009 66.5249 173.731 66.5316 173.414V173.207C66.5316 172.866 66.508 172.564 66.4608 172.301C66.417 172.035 66.3394 171.812 66.2281 171.633C66.1201 171.451 65.9751 171.314 65.7929 171.223C65.6108 171.129 65.3831 171.082 65.1099 171.082C64.6545 171.082 64.3189 171.265 64.103 171.633C63.8905 172.001 63.7842 172.529 63.7842 173.217C63.7842 173.922 63.8905 174.448 64.103 174.795C64.3189 175.139 64.6579 175.311 65.12 175.311ZM71.6166 170.318C71.7144 170.318 71.8241 170.323 71.9455 170.333C72.0669 170.34 72.1715 170.351 72.2592 170.368L72.1378 171.218C72.0433 171.201 71.9455 171.188 71.8443 171.178C71.7465 171.164 71.6537 171.157 71.566 171.157C71.3535 171.157 71.1596 171.201 70.9842 171.289C70.8088 171.373 70.657 171.496 70.5288 171.658C70.404 171.817 70.3062 172.009 70.2353 172.235C70.1679 172.458 70.1341 172.706 70.1341 172.979V175.974H69.2133V170.419H69.9621L70.0734 171.436H70.1139C70.1982 171.291 70.2876 171.151 70.3821 171.016C70.4799 170.881 70.5878 170.763 70.7059 170.662C70.8273 170.557 70.9622 170.474 71.1106 170.414C71.2591 170.35 71.4277 170.318 71.6166 170.318ZM76.3828 175.974L76.1956 175.205H76.1551C76.0438 175.357 75.9325 175.489 75.8212 175.6C75.7099 175.708 75.5885 175.797 75.4569 175.868C75.3254 175.939 75.1786 175.991 75.0167 176.025C74.8548 176.059 74.6676 176.075 74.4551 176.075C74.2223 176.075 74.0081 176.042 73.8125 175.974C73.6169 175.91 73.4465 175.811 73.3015 175.676C73.1598 175.537 73.0485 175.365 72.9675 175.16C72.8866 174.951 72.8461 174.704 72.8461 174.421C72.8461 173.868 73.0401 173.443 73.428 173.146C73.8193 172.849 74.4129 172.687 75.209 172.66L76.14 172.625V172.276C76.14 172.05 76.1147 171.861 76.0641 171.709C76.0168 171.557 75.946 171.436 75.8516 171.345C75.7605 171.25 75.6458 171.183 75.5075 171.142C75.3726 171.102 75.2174 171.082 75.042 171.082C74.762 171.082 74.5006 171.122 74.2578 171.203C74.0183 171.284 73.7872 171.382 73.5646 171.496L73.2408 170.803C73.4904 170.668 73.7687 170.554 74.0756 170.459C74.3826 170.365 74.7047 170.318 75.042 170.318C75.3861 170.318 75.6829 170.353 75.9325 170.424C76.1855 170.491 76.3929 170.601 76.5549 170.753C76.7201 170.901 76.8433 171.092 76.9242 171.324C77.0052 171.557 77.0456 171.839 77.0456 172.169V175.974H76.3828ZM74.6929 175.332C74.8987 175.332 75.0892 175.3 75.2646 175.236C75.44 175.172 75.5918 175.075 75.72 174.947C75.8482 174.816 75.9477 174.652 76.0185 174.456C76.0927 174.257 76.1298 174.025 76.1298 173.758V173.257L75.4063 173.293C75.1027 173.306 74.8481 173.34 74.6423 173.394C74.4365 173.448 74.2713 173.524 74.1464 173.622C74.025 173.716 73.9373 173.832 73.8833 173.971C73.8294 174.106 73.8024 174.259 73.8024 174.431C73.8024 174.741 73.8833 174.969 74.0453 175.114C74.2105 175.259 74.4264 175.332 74.6929 175.332ZM85.4093 175.974V172.397C85.4093 171.959 85.3249 171.63 85.1563 171.41C84.9876 171.191 84.7262 171.082 84.372 171.082C84.1258 171.082 83.9167 171.122 83.7446 171.203C83.5726 171.281 83.4309 171.397 83.3196 171.552C83.2117 171.704 83.1324 171.895 83.0818 172.124C83.0312 172.35 83.0059 172.611 83.0059 172.908V175.974H82.08V172.397C82.08 171.959 81.9957 171.63 81.827 171.41C81.6617 171.191 81.402 171.082 81.0478 171.082C80.7881 171.082 80.5705 171.125 80.3951 171.213C80.2197 171.301 80.0781 171.431 79.9701 171.603C79.8656 171.775 79.7897 171.986 79.7424 172.235C79.6986 172.485 79.6767 172.772 79.6767 173.095V175.974H78.7558V170.419H79.5046L79.6362 171.168H79.6868C79.7677 171.023 79.8639 170.898 79.9752 170.793C80.0865 170.685 80.2079 170.596 80.3395 170.525C80.4744 170.454 80.6161 170.402 80.7645 170.368C80.9163 170.334 81.0698 170.318 81.2249 170.318C81.6297 170.318 81.9653 170.392 82.2318 170.54C82.5016 170.689 82.7007 170.921 82.8288 171.238H82.8693C82.957 171.08 83.0616 170.943 83.183 170.829C83.3078 170.714 83.4427 170.619 83.5878 170.545C83.7362 170.468 83.8914 170.41 84.0533 170.373C84.2152 170.336 84.3805 170.318 84.5491 170.318C85.1394 170.318 85.583 170.48 85.8798 170.803C86.18 171.124 86.3301 171.638 86.3301 172.347V175.974H85.4093ZM91.1773 175.974L90.9901 175.205H90.9496C90.8383 175.357 90.727 175.489 90.6157 175.6C90.5044 175.708 90.3829 175.797 90.2514 175.868C90.1198 175.939 89.9731 175.991 89.8112 176.025C89.6493 176.059 89.4621 176.075 89.2496 176.075C89.0168 176.075 88.8026 176.042 88.607 175.974C88.4113 175.91 88.241 175.811 88.096 175.676C87.9543 175.537 87.843 175.365 87.762 175.16C87.6811 174.951 87.6406 174.704 87.6406 174.421C87.6406 173.868 87.8345 173.443 88.2224 173.146C88.6137 172.849 89.2074 172.687 90.0035 172.66L90.9344 172.625V172.276C90.9344 172.05 90.9091 171.861 90.8585 171.709C90.8113 171.557 90.7405 171.436 90.646 171.345C90.555 171.25 90.4403 171.183 90.302 171.142C90.167 171.102 90.0119 171.082 89.8365 171.082C89.5565 171.082 89.2951 171.122 89.0522 171.203C88.8127 171.284 88.5817 171.382 88.3591 171.496L88.0352 170.803C88.2849 170.668 88.5631 170.554 88.8701 170.459C89.177 170.365 89.4992 170.318 89.8365 170.318C90.1805 170.318 90.4774 170.353 90.727 170.424C90.98 170.491 91.1874 170.601 91.3493 170.753C91.5146 170.901 91.6377 171.092 91.7187 171.324C91.7996 171.557 91.8401 171.839 91.8401 172.169V175.974H91.1773ZM89.4874 175.332C89.6931 175.332 89.8837 175.3 90.0591 175.236C90.2345 175.172 90.3863 175.075 90.5145 174.947C90.6427 174.816 90.7422 174.652 90.813 174.456C90.8872 174.257 90.9243 174.025 90.9243 173.758V173.257L90.2008 173.293C89.8972 173.306 89.6425 173.34 89.4368 173.394C89.231 173.448 89.0657 173.524 88.9409 173.622C88.8195 173.716 88.7318 173.832 88.6778 173.971C88.6238 174.106 88.5969 174.259 88.5969 174.431C88.5969 174.741 88.6778 174.969 88.8397 175.114C89.005 175.259 89.2209 175.332 89.4874 175.332Z" fill="white"/>
<g clip-path="url(#clip3)">
<circle cx="104.693" cy="172.474" r="1.11024" fill="#E1E1E1" fill-opacity="0.5"/>
<path d="M111.926 176.474H110.98V169.907H108.865V169.077H114.036V169.907H111.926V176.474ZM118.499 176.474V172.897C118.499 172.459 118.409 172.13 118.23 171.91C118.055 171.691 117.778 171.582 117.401 171.582C117.127 171.582 116.898 171.625 116.713 171.713C116.527 171.801 116.377 171.931 116.262 172.103C116.151 172.275 116.07 172.486 116.019 172.735C115.972 172.985 115.949 173.272 115.949 173.595V176.474H115.028V168.601H115.949V170.939L115.908 171.668H115.959C116.043 171.523 116.142 171.398 116.257 171.293C116.375 171.185 116.503 171.096 116.642 171.025C116.78 170.954 116.927 170.902 117.082 170.868C117.237 170.834 117.396 170.818 117.558 170.818C118.175 170.818 118.639 170.98 118.949 171.303C119.263 171.624 119.419 172.138 119.419 172.847V176.474H118.499ZM123.533 170.818C123.631 170.818 123.74 170.823 123.862 170.833C123.983 170.84 124.088 170.851 124.176 170.868L124.054 171.718C123.96 171.701 123.862 171.688 123.761 171.678C123.663 171.664 123.57 171.657 123.482 171.657C123.27 171.657 123.076 171.701 122.901 171.789C122.725 171.873 122.573 171.996 122.445 172.158C122.32 172.317 122.223 172.509 122.152 172.735C122.084 172.958 122.05 173.206 122.05 173.479V176.474H121.13V170.919H121.878L121.99 171.936H122.03C122.115 171.791 122.204 171.651 122.298 171.516C122.396 171.381 122.504 171.263 122.622 171.162C122.744 171.057 122.879 170.974 123.027 170.914C123.175 170.85 123.344 170.818 123.533 170.818ZM126.189 176.474H125.268V170.919H126.189V176.474ZM125.198 169.416C125.198 169.214 125.248 169.067 125.349 168.976C125.454 168.885 125.582 168.839 125.734 168.839C125.808 168.839 125.877 168.851 125.941 168.875C126.009 168.895 126.066 168.929 126.113 168.976C126.164 169.023 126.203 169.084 126.23 169.158C126.26 169.229 126.275 169.315 126.275 169.416C126.275 169.612 126.221 169.758 126.113 169.856C126.009 169.951 125.882 169.998 125.734 169.998C125.582 169.998 125.454 169.951 125.349 169.856C125.248 169.762 125.198 169.615 125.198 169.416ZM128.871 176.474H127.95V168.601H128.871V176.474ZM131.553 176.474H130.632V168.601H131.553V176.474ZM135.509 176.575C135.138 176.575 134.799 176.513 134.492 176.388C134.185 176.263 133.92 176.081 133.698 175.842C133.479 175.602 133.308 175.306 133.187 174.951C133.065 174.597 133.005 174.192 133.005 173.737C133.005 173.278 133.06 172.868 133.172 172.508C133.283 172.147 133.44 171.841 133.642 171.592C133.845 171.339 134.086 171.146 134.366 171.015C134.649 170.883 134.961 170.818 135.302 170.818C135.636 170.818 135.936 170.878 136.202 171C136.469 171.118 136.695 171.286 136.88 171.506C137.066 171.722 137.208 171.983 137.305 172.29C137.407 172.594 137.457 172.931 137.457 173.302V173.874H133.956C133.973 174.525 134.109 175.004 134.366 175.311C134.625 175.618 135.01 175.771 135.519 175.771C135.691 175.771 135.85 175.763 135.995 175.746C136.143 175.729 136.285 175.705 136.42 175.675C136.558 175.641 136.691 175.601 136.82 175.553C136.948 175.503 137.078 175.447 137.209 175.386V176.206C137.074 176.27 136.941 176.326 136.81 176.373C136.681 176.42 136.548 176.459 136.41 176.489C136.275 176.52 136.133 176.542 135.985 176.555C135.84 176.569 135.681 176.575 135.509 176.575ZM135.282 171.582C134.897 171.582 134.592 171.713 134.366 171.976C134.143 172.239 134.013 172.622 133.976 173.125H136.465C136.465 172.895 136.442 172.686 136.395 172.497C136.351 172.305 136.28 172.142 136.182 172.007C136.088 171.872 135.966 171.767 135.818 171.693C135.669 171.619 135.491 171.582 135.282 171.582ZM141.262 170.818C141.36 170.818 141.47 170.823 141.591 170.833C141.712 170.84 141.817 170.851 141.905 170.868L141.783 171.718C141.689 171.701 141.591 171.688 141.49 171.678C141.392 171.664 141.299 171.657 141.211 171.657C140.999 171.657 140.805 171.701 140.63 171.789C140.454 171.873 140.302 171.996 140.174 172.158C140.049 172.317 139.952 172.509 139.881 172.735C139.813 172.958 139.78 173.206 139.78 173.479V176.474H138.859V170.919H139.608L139.719 171.936H139.759C139.844 171.791 139.933 171.651 140.027 171.516C140.125 171.381 140.233 171.263 140.351 171.162C140.473 171.057 140.608 170.974 140.756 170.914C140.905 170.85 141.073 170.818 141.262 170.818Z" fill="white"/>
</g>
<g clip-path="url(#clip4)">
<path d="M202.444 162.957C198.222 162.957 194.844 166.335 194.844 170.556C194.844 174.778 198.222 178.156 202.444 178.156C206.666 178.156 210.043 174.778 210.043 170.556C210.043 166.335 206.666 162.957 202.444 162.957ZM202.444 177.235C198.794 177.235 195.766 174.206 195.766 170.556C195.766 166.907 198.794 163.878 202.444 163.878C206.094 163.878 209.122 166.907 209.122 170.556C209.122 174.206 206.094 177.235 202.444 177.235ZM199.066 169.712V171.401H205.821V169.712H199.066Z" fill="white"/>
</g>
<path d="M227.212 167.698C226.704 167.185 226.175 166.739 225.624 166.359C225.074 165.979 224.558 165.694 224.077 165.505C223.595 165.315 223.154 165.224 222.754 165.231C222.353 165.239 222.04 165.358 221.815 165.589C221.762 165.641 221.716 165.698 221.679 165.762C221.642 165.827 221.615 165.877 221.599 165.912C221.583 165.948 221.561 166.013 221.535 166.105C221.508 166.197 221.489 166.256 221.479 166.282L218.496 175.702L218.68 175.887C218.472 176.025 218.286 176.187 218.123 176.371C217.96 176.556 217.817 176.707 217.694 176.825C217.571 176.943 217.424 177.026 217.253 177.072C217.215 177.082 217.169 177.117 217.112 177.176C217.056 177.235 217.028 177.287 217.028 177.333C217.028 177.426 217.076 177.503 217.173 177.564C217.269 177.626 217.376 177.657 217.493 177.657C217.643 177.657 217.787 177.599 217.926 177.483C218.065 177.368 218.206 177.221 218.347 177.041C218.489 176.861 218.592 176.743 218.656 176.687C218.795 176.569 218.95 176.456 219.121 176.348L219.33 176.541L228.808 173.455C229.016 173.393 229.176 173.301 229.289 173.178C229.513 172.947 229.63 172.627 229.638 172.219C229.646 171.812 229.556 171.363 229.369 170.873C229.182 170.383 228.903 169.859 228.531 169.303C228.159 168.746 227.72 168.211 227.212 167.698ZM226.346 168.537C227.164 169.337 227.785 170.103 228.21 170.834C228.635 171.565 228.738 172.046 228.519 172.277C228.3 172.508 227.821 172.423 227.084 172.023C226.346 171.623 225.571 171.025 224.758 170.23C223.935 169.43 223.311 168.665 222.886 167.937C222.461 167.208 222.358 166.726 222.577 166.49C222.796 166.259 223.276 166.343 224.016 166.744C224.757 167.144 225.533 167.742 226.346 168.537ZM224.59 171.723C224.98 172.057 225.368 172.349 225.753 172.6C225.758 172.611 225.892 172.852 226.153 173.324L225.48 173.547C225.159 172.967 224.862 172.359 224.59 171.723ZM221.855 168.198C221.973 168.45 222.136 168.755 222.345 169.114C222.516 169.853 222.784 170.653 223.15 171.515C223.517 172.377 223.916 173.185 224.349 173.939L223.684 174.155C223.181 173.262 222.743 172.327 222.369 171.35C221.994 170.372 221.765 169.509 221.679 168.76L221.855 168.198ZM220.925 171.015C221.299 172.164 221.826 173.344 222.505 174.555L221.847 174.778C221.318 173.804 220.901 172.888 220.597 172.031L220.925 171.015ZM220.003 173.824C220.212 174.296 220.433 174.745 220.669 175.171L220.011 175.394C219.936 175.255 219.829 175.043 219.69 174.755L220.003 173.824ZM225.897 162.88L226.298 164.042L225.263 164.766H226.538L226.931 165.928L227.324 164.766H228.591L227.565 164.042L227.966 162.888L226.931 163.604L225.897 162.88ZM223.652 162.88L223.435 163.935L224.534 164.142L224.75 163.088L223.652 162.88ZM230.876 166.051L231.758 165.166L232.905 165.705L232.312 164.627L233.202 163.758L231.943 163.965L231.35 162.88L231.173 164.096L229.914 164.304L231.061 164.835L230.876 166.051ZM230.58 167.944L231.646 168.621L231.309 169.807L232.304 169.037L233.362 169.714L232.921 168.56L233.916 167.806L232.641 167.86L232.192 166.713L231.863 167.89L230.58 167.944ZM230.123 165.089L227.733 166.967L228.03 167.313L230.419 165.435L230.123 165.089ZM230.957 168.722L229.088 168.56L229.04 169.006L230.917 169.168L230.957 168.722ZM231.141 170.876L230.796 171.908L231.863 172.239L232.216 171.215L231.141 170.876Z" fill="white"/>
<path d="M275.222 172.667C274.827 172.669 274.438 172.76 274.083 172.932C273.727 173.105 273.415 173.355 273.17 173.664L269.312 171.253C269.453 170.799 269.453 170.313 269.312 169.86L273.17 167.448C273.561 167.933 274.112 168.263 274.724 168.381C275.336 168.499 275.97 168.396 276.513 168.091C277.057 167.787 277.475 167.299 277.693 166.716C277.912 166.132 277.917 165.49 277.708 164.903C277.498 164.316 277.088 163.822 276.549 163.509C276.01 163.196 275.378 163.083 274.764 163.191C274.15 163.3 273.595 163.622 273.196 164.1C272.797 164.579 272.58 165.183 272.584 165.807C272.586 166.043 272.622 166.277 272.689 166.503L268.832 168.915C268.491 168.486 268.026 168.174 267.5 168.022C266.974 167.869 266.413 167.884 265.896 168.065C265.379 168.245 264.931 168.582 264.614 169.028C264.297 169.475 264.127 170.009 264.127 170.556C264.127 171.104 264.297 171.638 264.614 172.084C264.931 172.531 265.379 172.867 265.896 173.048C266.413 173.228 266.974 173.243 267.5 173.091C268.026 172.938 268.491 172.626 268.832 172.197L272.689 174.609C272.622 174.835 272.586 175.07 272.584 175.306C272.584 175.828 272.739 176.338 273.029 176.772C273.318 177.206 273.731 177.544 274.213 177.744C274.695 177.943 275.225 177.995 275.737 177.894C276.249 177.792 276.719 177.541 277.088 177.172C277.457 176.803 277.709 176.332 277.81 175.821C277.912 175.309 277.86 174.778 277.66 174.296C277.461 173.814 277.122 173.402 276.688 173.112C276.255 172.822 275.744 172.667 275.222 172.667V172.667ZM275.222 164.223C275.536 164.223 275.842 164.316 276.102 164.49C276.362 164.664 276.565 164.911 276.685 165.201C276.805 165.49 276.836 165.808 276.775 166.115C276.714 166.423 276.563 166.705 276.342 166.926C276.121 167.148 275.838 167.298 275.531 167.359C275.224 167.42 274.906 167.389 274.617 167.269C274.327 167.149 274.08 166.947 273.906 166.686C273.732 166.426 273.639 166.12 273.639 165.807C273.639 165.387 273.806 164.984 274.103 164.687C274.4 164.39 274.803 164.223 275.222 164.223V164.223ZM266.779 172.139C266.466 172.139 266.16 172.047 265.899 171.873C265.639 171.699 265.436 171.451 265.316 171.162C265.196 170.873 265.165 170.554 265.226 170.247C265.287 169.94 265.438 169.658 265.659 169.437C265.881 169.215 266.163 169.064 266.47 169.003C266.777 168.942 267.095 168.974 267.385 169.093C267.674 169.213 267.921 169.416 268.095 169.677C268.269 169.937 268.362 170.243 268.362 170.556C268.362 170.976 268.195 171.379 267.898 171.676C267.601 171.973 267.199 172.139 266.779 172.139ZM275.222 176.889C274.909 176.889 274.603 176.796 274.343 176.622C274.083 176.448 273.88 176.201 273.76 175.912C273.64 175.622 273.609 175.304 273.67 174.997C273.731 174.69 273.882 174.408 274.103 174.186C274.324 173.965 274.607 173.814 274.914 173.753C275.221 173.692 275.539 173.723 275.828 173.843C276.118 173.963 276.365 174.166 276.539 174.426C276.713 174.687 276.806 174.993 276.806 175.306C276.806 175.726 276.639 176.128 276.342 176.425C276.045 176.722 275.642 176.889 275.222 176.889V176.889Z" fill="white"/>
<path d="M299.481 163.52H290.524C290.03 163.52 289.552 163.693 289.173 164.01C288.793 164.326 288.537 164.765 288.448 165.251L287.554 170.176C287.499 170.481 287.511 170.793 287.589 171.093C287.668 171.392 287.811 171.67 288.009 171.908C288.207 172.145 288.455 172.337 288.735 172.468C289.015 172.599 289.321 172.667 289.63 172.667H292.839L292.445 173.673C292.281 174.114 292.226 174.588 292.286 175.054C292.345 175.52 292.517 175.965 292.786 176.351C293.055 176.736 293.414 177.05 293.831 177.267C294.248 177.483 294.712 177.595 295.182 177.593C295.317 177.592 295.45 177.553 295.563 177.479C295.677 177.406 295.767 177.301 295.822 177.178L297.828 172.667H299.481C300.041 172.667 300.578 172.445 300.974 172.049C301.37 171.653 301.592 171.116 301.592 170.556V165.631C301.592 165.071 301.37 164.534 300.974 164.138C300.578 163.742 300.041 163.52 299.481 163.52ZM296.667 171.816L294.753 176.122C294.557 176.063 294.375 175.964 294.219 175.832C294.063 175.7 293.935 175.537 293.844 175.354C293.753 175.171 293.701 174.971 293.69 174.766C293.679 174.562 293.71 174.358 293.782 174.166L294.155 173.16C294.234 172.947 294.261 172.718 294.233 172.493C294.205 172.268 294.123 172.053 293.993 171.866C293.864 171.679 293.691 171.527 293.49 171.421C293.289 171.316 293.066 171.26 292.839 171.26H289.63C289.527 171.26 289.425 171.238 289.331 171.194C289.237 171.15 289.155 171.086 289.088 171.007C289.021 170.928 288.971 170.836 288.943 170.736C288.915 170.637 288.909 170.532 288.927 170.43L289.82 165.504C289.85 165.34 289.937 165.192 290.066 165.087C290.195 164.981 290.357 164.925 290.524 164.927H296.667V171.816ZM300.185 170.556C300.185 170.743 300.111 170.922 299.979 171.054C299.847 171.186 299.668 171.26 299.481 171.26H298.074V164.927H299.481C299.668 164.927 299.847 165.001 299.979 165.133C300.111 165.265 300.185 165.444 300.185 165.631V170.556Z" fill="white"/>
<g clip-path="url(#clip5)">
<path d="M248.308 167.358C248.697 167.358 249.012 167.043 249.012 166.654C249.012 166.266 248.697 165.951 248.308 165.951C247.92 165.951 247.605 166.266 247.605 166.654C247.605 167.043 247.92 167.358 248.308 167.358Z" fill="white"/>
<path d="M250.302 173.175H249.129V168.296H247.37C247.214 168.296 247.065 168.36 246.955 168.475C246.845 168.589 246.784 168.744 246.784 168.906C246.784 169.068 246.845 169.223 246.955 169.337C247.065 169.452 247.214 169.516 247.37 169.516H247.956V173.175H246.784C246.628 173.175 246.479 173.239 246.369 173.353C246.259 173.468 246.197 173.623 246.197 173.785C246.197 173.946 246.259 174.101 246.369 174.216C246.479 174.33 246.628 174.394 246.784 174.394H250.302C250.457 174.394 250.606 174.33 250.716 174.216C250.826 174.101 250.888 173.946 250.888 173.785C250.888 173.623 250.826 173.468 250.716 173.353C250.606 173.239 250.457 173.175 250.302 173.175Z" fill="white"/>
<path d="M248.212 162.88C246.751 162.88 245.322 163.314 244.108 164.125C242.893 164.937 241.946 166.091 241.386 167.441C240.827 168.791 240.681 170.277 240.966 171.71C241.251 173.143 241.955 174.459 242.988 175.493C244.021 176.526 245.338 177.23 246.771 177.515C248.204 177.8 249.69 177.653 251.04 177.094C252.39 176.535 253.543 175.588 254.355 174.373C255.167 173.158 255.6 171.73 255.6 170.268C255.6 168.309 254.822 166.43 253.436 165.044C252.051 163.659 250.172 162.88 248.212 162.88V162.88ZM248.212 176.425C246.994 176.425 245.804 176.064 244.792 175.388C243.779 174.711 242.99 173.75 242.524 172.625C242.058 171.5 241.936 170.262 242.174 169.067C242.411 167.873 242.998 166.776 243.859 165.915C244.72 165.054 245.817 164.467 247.011 164.23C248.205 163.992 249.443 164.114 250.568 164.58C251.693 165.046 252.655 165.835 253.331 166.848C254.008 167.86 254.369 169.051 254.369 170.268C254.369 171.077 254.21 171.878 253.9 172.625C253.591 173.372 253.137 174.05 252.566 174.622C251.994 175.194 251.315 175.647 250.568 175.957C249.821 176.266 249.021 176.425 248.212 176.425V176.425Z" fill="white"/>
</g>
</g>
<path d="M162.578 65.5611C167.324 65.4776 171.988 66.8035 175.981 69.3709C179.974 71.9382 183.115 75.6319 185.008 79.9847C186.902 84.3376 187.462 89.1541 186.618 93.8252C185.773 98.4963 183.563 102.812 180.266 106.227C176.969 109.642 172.734 112.003 168.095 113.01C163.457 114.018 158.623 113.628 154.207 111.888C149.79 110.149 145.988 107.139 143.282 103.24C140.576 99.3398 139.087 94.7251 139.004 89.9791C138.892 83.6149 141.313 77.4669 145.734 72.8876C150.155 68.3084 156.214 65.6729 162.578 65.5611V65.5611ZM162.508 61.5617C156.971 61.659 151.587 63.396 147.037 66.5532C142.488 69.7103 138.976 74.1457 136.947 79.2985C134.918 84.4512 134.463 90.09 135.638 95.5016C136.814 100.913 139.568 105.855 143.552 109.701C147.536 113.548 152.571 116.126 158.021 117.111C163.471 118.096 169.09 117.443 174.168 115.234C179.246 113.025 183.556 109.36 186.551 104.702C189.546 100.044 191.093 94.6023 190.996 89.0653C190.865 81.6404 187.791 74.5714 182.448 69.4135C177.106 64.2556 169.933 61.4312 162.508 61.5617V61.5617Z" fill="white" fill-opacity="0.6"/>
<path d="M155.247 103.696C154.888 103.702 154.534 103.611 154.222 103.434C153.921 103.262 153.669 103.015 153.492 102.716C153.315 102.418 153.219 102.078 153.212 101.731L152.791 77.735C152.785 77.3879 152.869 77.0453 153.036 76.7407C153.202 76.4362 153.445 76.1802 153.74 75.998C154.041 75.8171 154.384 75.7187 154.735 75.7125C155.086 75.7064 155.433 75.7927 155.74 75.9629L177.947 87.5744C178.268 87.7402 178.538 87.9895 178.728 88.2961C178.918 88.6026 179.022 88.9549 179.028 89.3157C179.035 89.6764 178.943 90.0322 178.764 90.3452C178.584 90.6582 178.324 90.9169 178.009 91.0939L156.224 103.479C155.922 103.633 155.586 103.707 155.247 103.696V103.696ZM156.849 81.0241L157.153 98.3015L172.818 89.3848L156.849 81.0241Z" fill="white" fill-opacity="0.6"/>
<defs>
<linearGradient id="paint0_linear" x1="92.75" y1="81.1765" x2="52.8637" y2="38.8258" gradientUnits="userSpaceOnUse">
<stop stop-color="#1B1B1B"/>
<stop offset="1" stop-color="#1B1B1B" stop-opacity="0"/>
</linearGradient>
<linearGradient id="paint1_linear" x1="13.8879" y1="148" x2="150.493" y2="148.676" gradientUnits="userSpaceOnUse">
<stop stop-opacity="0"/>
<stop stop-opacity="0"/>
<stop offset="1"/>
</linearGradient>
<clipPath id="clip0">
<rect width="179" height="326" fill="white" transform="translate(326 21) rotate(90)"/>
</clipPath>
<clipPath id="clip1">
<rect width="44.4211" height="11.2131" fill="white" transform="translate(29.1753 90.725)"/>
</clipPath>
<clipPath id="clip2">
<rect width="10.7818" height="10.7818" fill="white" transform="translate(29.1753 90.9407)"/>
</clipPath>
<clipPath id="clip3">
<rect width="51.1811" height="12" fill="white" transform="translate(103.583 166.474)"/>
</clipPath>
<clipPath id="clip4">
<rect width="16.8873" height="16.8873" fill="white" transform="translate(194 162.113)"/>
</clipPath>
<clipPath id="clip5">
<rect width="16.8873" height="16.8873" fill="white" transform="translate(240.056 162.113)"/>
</clipPath>
</defs>
</svg>
