<svg width="326" height="500" viewBox="0 0 326 500" fill="none" xmlns="http://www.w3.org/2000/svg">
<g filter="url(#filter0_b)">
<rect width="314" height="326" transform="translate(326 186) rotate(90)" fill="url(#paint0_linear)"/>
<path d="M21 368.906C21 363.435 25.4349 359 30.9055 359H85.0945C90.5651 359 95 363.435 95 368.906V368.906C95 374.376 90.5651 378.811 85.0945 378.811H30.9055C25.4349 378.811 21 374.376 21 368.906V368.906Z" fill="#111111" fill-opacity="0.2"/>
<g clip-path="url(#clip0)">
<path d="M38.8511 368.045C38.8511 367.434 38.4178 366.922 37.8436 366.799C38.073 366.416 38.2138 365.974 38.2138 365.496C38.2138 364.09 37.0705 362.946 35.6646 362.946C34.6978 362.946 33.8668 363.493 33.4341 364.287C33.0013 363.493 32.1703 362.946 31.2035 362.946C29.7976 362.946 28.6543 364.09 28.6543 365.496C28.6543 366.07 28.8531 366.596 29.175 367.023C29.0141 367.14 28.8832 367.294 28.7927 367.472C28.7023 367.649 28.6549 367.845 28.6543 368.045V373.143C28.6543 373.846 29.226 374.418 29.9289 374.418H37.5765C38.2795 374.418 38.8511 373.846 38.8511 373.143V371.462L41.4004 372.737V368.275L38.8511 369.55V368.045ZM35.6646 364.221C36.3676 364.221 36.9392 364.793 36.9392 365.496C36.9392 366.199 36.3676 366.77 35.6646 366.77C34.9617 366.77 34.39 366.199 34.39 365.496C34.39 364.793 34.9617 364.221 35.6646 364.221ZM31.2035 364.221C31.9065 364.221 32.4781 364.793 32.4781 365.496C32.4781 366.199 31.9065 366.77 31.2035 366.77C30.5006 366.77 29.9289 366.199 29.9289 365.496C29.9289 364.793 30.5006 364.221 31.2035 364.221ZM29.9289 373.143V368.045H37.5765L37.5778 373.143H29.9289Z" fill="white"/>
<path d="M55.4394 364.566V365.591H52.3667V374.331H51.1035V365.591H48.0307V364.566H55.4394ZM56.8119 374.331V367.161H57.6654L57.8907 368.076C58.5189 367.466 59.2746 367.161 60.1577 367.161V368.213C59.3019 368.213 58.6077 368.515 58.0751 369.121V374.331H56.8119ZM61.0864 372.166C61.0864 370.696 62.056 369.961 63.9952 369.961C64.6188 369.961 65.2425 370.006 65.8661 370.097V369.421C65.8661 368.597 65.222 368.185 63.9337 368.185C63.1963 368.185 62.4406 368.299 61.6668 368.527V367.502C62.4406 367.275 63.1963 367.161 63.9337 367.161C66.0641 367.161 67.1294 367.903 67.1294 369.387V374.331H66.4192L65.9822 373.621C65.2675 374.094 64.4891 374.331 63.6469 374.331C61.9399 374.331 61.0864 373.609 61.0864 372.166ZM63.9952 370.985C62.8981 370.985 62.3496 371.372 62.3496 372.146C62.3496 372.92 62.782 373.306 63.6469 373.306C64.521 373.306 65.2607 373.074 65.8661 372.61V371.121C65.2425 371.03 64.6188 370.985 63.9952 370.985ZM70.5844 367.161V374.331H69.3212V367.161H70.5844ZM70.5844 364.566V365.761H69.3212V364.566H70.5844ZM74.1078 364.566V374.331H72.8446V364.566H74.1078ZM79.188 367.161C81.2274 367.161 82.2471 368.169 82.2471 370.186C82.2471 370.473 82.2266 370.78 82.1856 371.108H77.1532C77.1532 372.574 78.009 373.306 79.7206 373.306C80.5355 373.306 81.2593 373.215 81.892 373.033V374.058C81.2593 374.24 80.49 374.331 79.5841 374.331C77.1214 374.331 75.89 373.108 75.89 370.664C75.89 368.329 76.9893 367.161 79.188 367.161ZM77.1532 370.056H81.0317C81.0044 368.8 80.3898 368.172 79.188 368.172C77.9134 368.172 77.2352 368.8 77.1532 370.056ZM83.9473 374.331V367.161H84.8009L85.0262 368.076C85.6544 367.466 86.4101 367.161 87.2932 367.161V368.213C86.4374 368.213 85.7432 368.515 85.2106 369.121V374.331H83.9473Z" fill="white"/>
</g>
<path d="M30.9055 360.165H85.0945V357.835H30.9055V360.165ZM85.0945 377.646H30.9055V379.976H85.0945V377.646ZM30.9055 377.646C26.0785 377.646 22.1654 373.733 22.1654 368.906H19.8346C19.8346 375.02 24.7912 379.976 30.9055 379.976V377.646ZM93.8346 368.906C93.8346 373.733 89.9215 377.646 85.0945 377.646V379.976C91.2088 379.976 96.1654 375.02 96.1654 368.906H93.8346ZM85.0945 360.165C89.9215 360.165 93.8346 364.078 93.8346 368.906H96.1654C96.1654 362.791 91.2088 357.835 85.0945 357.835V360.165ZM30.9055 357.835C24.7912 357.835 19.8346 362.791 19.8346 368.906H22.1654C22.1654 364.078 26.0785 360.165 30.9055 360.165V357.835Z" fill="white"/>
<path d="M31.6348 390.846V393.073H25.0332V396.588H31.3027V398.903H25.0039V404.811H22.4648V390.846H31.6348ZM35.6875 399.645C35.6875 401.787 36.5176 402.858 38.1777 402.858C39.8379 402.858 40.668 401.787 40.668 399.645C40.668 397.555 39.8379 396.51 38.1777 396.51C36.5176 396.51 35.6875 397.555 35.6875 399.645ZM33.0996 399.684C33.0996 396.247 34.7923 394.528 38.1777 394.528C41.5632 394.528 43.2559 396.247 43.2559 399.684C43.2559 403.115 41.5632 404.831 38.1777 404.831C34.8053 404.831 33.1126 403.115 33.0996 399.684ZM47.3086 399.645C47.3086 401.787 48.1387 402.858 49.7988 402.858C51.459 402.858 52.2891 401.787 52.2891 399.645C52.2891 397.555 51.459 396.51 49.7988 396.51C48.1387 396.51 47.3086 397.555 47.3086 399.645ZM44.7207 399.684C44.7207 396.247 46.4134 394.528 49.7988 394.528C53.1842 394.528 54.877 396.247 54.877 399.684C54.877 403.115 53.1842 404.831 49.7988 404.831C46.4264 404.831 44.7337 403.115 44.7207 399.684ZM56.6836 392.897H58.5977L58.9883 394.557H61.5664V396.608H59.2715V401.325C59.2715 402.282 59.6849 402.76 60.5117 402.76H61.5664V404.811H59.2617C57.543 404.811 56.6836 403.89 56.6836 402.047V392.897ZM65.9219 390.846V404.811H63.334V390.846H65.9219ZM70.4727 399.645C70.4727 401.787 71.3027 402.858 72.9629 402.858C74.623 402.858 75.4531 401.787 75.4531 399.645C75.4531 397.555 74.623 396.51 72.9629 396.51C71.3027 396.51 70.4727 397.555 70.4727 399.645ZM67.8848 399.684C67.8848 396.247 69.5775 394.528 72.9629 394.528C76.3483 394.528 78.041 396.247 78.041 399.684C78.041 403.115 76.3483 404.831 72.9629 404.831C69.5905 404.831 67.8978 403.115 67.8848 399.684ZM82.0938 399.645C82.0938 401.787 82.9238 402.858 84.584 402.858C86.2441 402.858 87.0742 401.787 87.0742 399.645C87.0742 397.555 86.2441 396.51 84.584 396.51C82.9238 396.51 82.0938 397.555 82.0938 399.645ZM79.5059 399.684C79.5059 396.247 81.1986 394.528 84.584 394.528C87.9694 394.528 89.6621 396.247 89.6621 399.684C89.6621 403.115 87.9694 404.831 84.584 404.831C81.2116 404.831 79.5189 403.115 79.5059 399.684ZM91.6152 404.323V402.174C92.7546 402.63 94.0697 402.858 95.5605 402.858C96.6738 402.858 97.2305 402.5 97.2305 401.784C97.2305 401.1 96.8561 400.758 96.1074 400.758H94.252C92.1686 400.758 91.127 399.733 91.127 397.682C91.127 395.534 92.6471 394.459 95.6875 394.459C96.9766 394.459 98.1908 394.655 99.3301 395.045V397.194C98.1908 396.738 96.9538 396.51 95.6191 396.51C94.2194 396.51 93.5195 396.868 93.5195 397.584C93.5195 398.268 93.9264 398.61 94.7402 398.61H96.4004C98.679 398.61 99.8184 399.635 99.8184 401.686C99.8184 403.834 98.3665 404.909 95.4629 404.909C94.0371 404.909 92.7546 404.713 91.6152 404.323ZM105.961 394.557C109.073 394.557 110.629 396.146 110.629 399.323C110.629 399.746 110.6 400.169 110.541 400.592H103.734C103.734 402.038 104.796 402.76 106.918 402.76C107.953 402.76 108.988 402.663 110.023 402.467V404.518C109.118 404.713 108.018 404.811 106.723 404.811C103.005 404.811 101.146 403.063 101.146 399.567C101.146 396.227 102.751 394.557 105.961 394.557ZM103.734 398.795H108.109V398.717C108.109 397.298 107.393 396.588 105.961 396.588C104.594 396.588 103.852 397.324 103.734 398.795Z" fill="white"/>
<path d="M27.25 419.342L25.4727 422.944L21.5 423.518L24.375 426.323L23.6953 430.28L27.25 428.413L30.8047 430.28L30.125 426.323L33 423.522L29.0273 422.944L27.25 419.342Z" fill="#F39B13"/>
<path d="M42.9365 424.083C42.9365 424.561 42.9115 425.04 42.8613 425.518C42.8158 425.992 42.7314 426.445 42.6084 426.878C42.4899 427.311 42.3258 427.717 42.1162 428.095C41.9066 428.469 41.64 428.792 41.3164 429.066C40.9928 429.339 40.6055 429.556 40.1543 429.715C39.7031 429.87 39.1745 429.948 38.5684 429.948C38.4818 429.948 38.3861 429.945 38.2812 429.941C38.1764 429.936 38.0716 429.927 37.9668 429.914C37.862 429.904 37.7594 429.893 37.6592 429.879C37.5589 429.866 37.4701 429.847 37.3926 429.825V428.758C37.5521 428.818 37.7321 428.861 37.9326 428.888C38.1331 428.916 38.3314 428.929 38.5273 428.929C39.1426 428.929 39.6484 428.822 40.0449 428.608C40.4414 428.394 40.7559 428.104 40.9883 427.74C41.2207 427.371 41.3848 426.942 41.4805 426.455C41.5807 425.967 41.6423 425.452 41.665 424.91H41.5762C41.485 425.074 41.3757 425.226 41.248 425.368C41.1204 425.509 40.9701 425.632 40.7969 425.737C40.6237 425.842 40.4277 425.924 40.209 425.983C39.9902 426.042 39.7464 426.072 39.4775 426.072C39.0446 426.072 38.6527 426.006 38.3018 425.874C37.9508 425.737 37.6523 425.539 37.4062 425.279C37.1602 425.019 36.9688 424.702 36.832 424.329C36.6999 423.95 36.6338 423.52 36.6338 423.037C36.6338 422.517 36.7044 422.05 36.8457 421.635C36.9915 421.216 37.1943 420.863 37.4541 420.576C37.7184 420.284 38.0374 420.061 38.4111 419.906C38.7894 419.751 39.2109 419.673 39.6758 419.673C40.1361 419.673 40.5645 419.762 40.9609 419.94C41.3574 420.118 41.7015 420.389 41.9932 420.753C42.2848 421.118 42.515 421.578 42.6836 422.134C42.8522 422.686 42.9365 423.335 42.9365 424.083ZM39.6895 420.726C39.416 420.726 39.1654 420.772 38.9375 420.863C38.7142 420.954 38.5205 421.095 38.3564 421.287C38.1924 421.478 38.0648 421.72 37.9736 422.011C37.887 422.298 37.8438 422.64 37.8438 423.037C37.8438 423.356 37.8802 423.643 37.9531 423.898C38.0306 424.149 38.1445 424.363 38.2949 424.541C38.4453 424.718 38.6322 424.855 38.8555 424.951C39.0833 425.046 39.3477 425.094 39.6484 425.094C39.9583 425.094 40.2386 425.042 40.4893 424.937C40.7399 424.828 40.9541 424.689 41.1318 424.52C41.3096 424.347 41.4463 424.151 41.542 423.932C41.6423 423.713 41.6924 423.495 41.6924 423.276C41.6924 422.971 41.6491 422.667 41.5625 422.367C41.4805 422.061 41.3551 421.788 41.1865 421.546C41.0225 421.3 40.8151 421.102 40.5645 420.952C40.3138 420.801 40.0221 420.726 39.6895 420.726ZM44.625 429.052C44.625 428.879 44.6478 428.733 44.6934 428.615C44.7389 428.492 44.8005 428.394 44.8779 428.321C44.9554 428.243 45.0465 428.189 45.1514 428.157C45.2562 428.12 45.3701 428.102 45.4932 428.102C45.6117 428.102 45.7233 428.12 45.8281 428.157C45.9375 428.189 46.0309 428.243 46.1084 428.321C46.1859 428.394 46.2474 428.492 46.293 428.615C46.3385 428.733 46.3613 428.879 46.3613 429.052C46.3613 429.221 46.3385 429.367 46.293 429.49C46.2474 429.608 46.1859 429.706 46.1084 429.784C46.0309 429.861 45.9375 429.918 45.8281 429.955C45.7233 429.991 45.6117 430.009 45.4932 430.009C45.3701 430.009 45.2562 429.991 45.1514 429.955C45.0465 429.918 44.9554 429.861 44.8779 429.784C44.8005 429.706 44.7389 429.608 44.6934 429.49C44.6478 429.367 44.625 429.221 44.625 429.052ZM53.9492 422.155C53.9492 422.487 53.8968 422.791 53.792 423.064C53.6872 423.337 53.5391 423.574 53.3477 423.775C53.1608 423.975 52.9352 424.142 52.6709 424.274C52.4066 424.402 52.1126 424.493 51.7891 424.547V424.588C52.5957 424.689 53.2087 424.946 53.6279 425.361C54.0472 425.771 54.2568 426.306 54.2568 426.967C54.2568 427.405 54.1816 427.806 54.0312 428.17C53.8854 428.535 53.6621 428.849 53.3613 429.114C53.0605 429.378 52.68 429.583 52.2197 429.729C51.7594 429.875 51.2148 429.948 50.5859 429.948C50.0892 429.948 49.6198 429.909 49.1777 429.832C48.7402 429.754 48.3278 429.613 47.9404 429.408V428.246C48.3369 428.455 48.7653 428.617 49.2256 428.731C49.6904 428.845 50.1348 428.902 50.5586 428.902C50.9779 428.902 51.3402 428.856 51.6455 428.765C51.9508 428.674 52.2015 428.544 52.3975 428.375C52.598 428.207 52.7438 428 52.835 427.753C52.9307 427.507 52.9785 427.232 52.9785 426.926C52.9785 426.616 52.917 426.352 52.7939 426.133C52.6755 425.91 52.5046 425.728 52.2812 425.586C52.0579 425.441 51.7845 425.333 51.4609 425.265C51.1419 425.197 50.7796 425.163 50.374 425.163H49.4648V424.13H50.374C50.7432 424.13 51.0713 424.085 51.3584 423.994C51.6455 423.903 51.8848 423.773 52.0762 423.604C52.2721 423.435 52.4202 423.235 52.5205 423.002C52.6208 422.77 52.6709 422.515 52.6709 422.237C52.6709 422 52.6299 421.788 52.5479 421.601C52.4658 421.414 52.3496 421.257 52.1992 421.129C52.0488 420.997 51.8688 420.897 51.6592 420.829C51.4495 420.76 51.2171 420.726 50.9619 420.726C50.4743 420.726 50.0436 420.804 49.6699 420.958C49.3008 421.109 48.9476 421.307 48.6104 421.553L47.9814 420.699C48.1546 420.557 48.346 420.425 48.5557 420.302C48.7699 420.179 49.0023 420.072 49.2529 419.981C49.5036 419.885 49.7702 419.81 50.0527 419.755C50.3398 419.701 50.6429 419.673 50.9619 419.673C51.4541 419.673 51.8848 419.735 52.2539 419.858C52.6276 419.981 52.9398 420.154 53.1904 420.377C53.4411 420.596 53.6302 420.858 53.7578 421.164C53.8854 421.464 53.9492 421.795 53.9492 422.155Z" fill="white"/>
<path d="M60.1523 420.036V429.811H58.8877V420.036H60.1523ZM62.6885 429.811V420.036H64.2949L67.8838 428.191L71.4043 420.036H72.9424V429.811H71.8145V421.792L68.3418 429.811H67.3438L63.8164 421.792V429.811H62.6885ZM78.8213 428.786C81.2139 428.786 82.4102 427.409 82.4102 424.657C82.4102 422.26 81.2139 421.061 78.8213 421.061H76.5312V428.786H78.8213ZM75.2666 429.811V420.036H78.8213C82.057 420.036 83.6748 421.576 83.6748 424.657C83.6748 428.093 82.057 429.811 78.8213 429.811H75.2666ZM86.6484 428.56C87.0632 428.692 87.5667 428.758 88.1592 428.758C89.7542 428.758 90.5518 427.849 90.5518 426.031C90.5518 424.495 89.8294 423.727 88.3848 423.727C87.7285 423.727 87.1497 423.85 86.6484 424.096V428.56ZM85.3838 420.036H86.6484V422.975C87.1908 422.747 87.7718 422.633 88.3916 422.633C90.6611 422.633 91.7959 423.782 91.7959 426.079C91.7959 428.567 90.6042 429.811 88.2207 429.811C87.1908 429.811 86.2451 429.713 85.3838 429.517V420.036Z" fill="white"/>
<path d="M28.2666 453.811H21.5605V452.341L23.9121 449.805C24.2083 449.486 24.4772 449.192 24.7188 448.923C24.9603 448.654 25.1676 448.392 25.3408 448.137C25.514 447.882 25.6484 447.622 25.7441 447.358C25.8398 447.094 25.8877 446.809 25.8877 446.503C25.8877 446.166 25.7852 445.904 25.5801 445.717C25.3796 445.53 25.1084 445.437 24.7666 445.437C24.4066 445.437 24.0602 445.526 23.7275 445.704C23.3949 445.881 23.0462 446.134 22.6816 446.462L21.5332 445.102C21.7383 444.915 21.9525 444.737 22.1758 444.569C22.3991 444.396 22.6452 444.243 22.9141 444.111C23.1829 443.979 23.4792 443.874 23.8027 443.796C24.1263 443.714 24.4886 443.673 24.8896 443.673C25.3682 443.673 25.7965 443.739 26.1748 443.872C26.5576 444.004 26.8835 444.193 27.1523 444.439C27.4212 444.681 27.6263 444.974 27.7676 445.321C27.9134 445.667 27.9863 446.057 27.9863 446.49C27.9863 446.882 27.918 447.258 27.7812 447.618C27.6445 447.973 27.4577 448.324 27.2207 448.67C26.9837 449.012 26.708 449.354 26.3936 449.696C26.0837 450.033 25.751 450.377 25.3955 450.728L24.1924 451.938V452.034H28.2666V453.811ZM40.0723 453.811H37.9873V449.347C37.9873 448.796 37.9007 448.383 37.7275 448.11C37.5589 447.832 37.2969 447.693 36.9414 447.693C36.6725 447.693 36.4469 447.748 36.2646 447.857C36.0824 447.966 35.9365 448.128 35.8271 448.342C35.7178 448.556 35.6403 448.821 35.5947 449.135C35.5492 449.45 35.5264 449.81 35.5264 450.215V453.811H33.4414V443.174H35.5264V445.341C35.5264 445.533 35.5218 445.736 35.5127 445.95C35.5036 446.159 35.4922 446.353 35.4785 446.531C35.4603 446.74 35.4443 446.945 35.4307 447.146H35.54C35.7633 446.75 36.0482 446.465 36.3945 446.292C36.7409 446.114 37.1328 446.025 37.5703 446.025C37.9486 446.025 38.2904 446.08 38.5957 446.189C38.9056 446.294 39.1699 446.46 39.3887 446.688C39.6074 446.916 39.776 447.208 39.8945 447.563C40.013 447.914 40.0723 448.335 40.0723 448.828V453.811ZM46.2041 446.025C46.2588 446.025 46.318 446.027 46.3818 446.032C46.4502 446.032 46.514 446.036 46.5732 446.045C46.637 446.05 46.694 446.057 46.7441 446.066C46.7988 446.07 46.8398 446.077 46.8672 446.086V448.042C46.8307 448.032 46.7806 448.023 46.7168 448.014C46.653 448.005 46.5846 447.998 46.5117 447.994C46.4434 447.985 46.375 447.98 46.3066 447.98C46.2383 447.975 46.1813 447.973 46.1357 447.973C45.8669 447.973 45.6185 448.007 45.3906 448.076C45.1673 448.144 44.9736 448.256 44.8096 448.411C44.6501 448.561 44.5247 448.762 44.4336 449.012C44.347 449.258 44.3037 449.561 44.3037 449.921V453.811H42.2188V446.168H43.7979L44.1055 447.317H44.208C44.3174 447.121 44.4359 446.943 44.5635 446.784C44.6911 446.624 44.8324 446.49 44.9873 446.38C45.1468 446.266 45.3245 446.18 45.5205 446.121C45.721 446.057 45.9489 446.025 46.2041 446.025ZM54.9336 447.426C55.362 447.426 55.7607 447.492 56.1299 447.625C56.499 447.757 56.8203 447.95 57.0938 448.206C57.3672 448.461 57.5814 448.78 57.7363 449.163C57.8913 449.541 57.9688 449.976 57.9688 450.468C57.9688 451.011 57.8844 451.498 57.7158 451.931C57.5472 452.36 57.2988 452.724 56.9707 453.025C56.6426 453.321 56.2347 453.549 55.7471 453.708C55.264 453.868 54.708 453.948 54.0791 453.948C53.8285 453.948 53.5801 453.936 53.334 453.914C53.0879 453.891 52.8509 453.857 52.623 453.811C52.3997 453.77 52.1855 453.715 51.9805 453.647C51.7799 453.579 51.5977 453.499 51.4336 453.408V451.583C51.5931 451.674 51.7777 451.76 51.9873 451.842C52.1969 451.92 52.4134 451.988 52.6367 452.047C52.8646 452.102 53.0924 452.148 53.3203 452.184C53.5482 452.216 53.7646 452.232 53.9697 452.232C54.5804 452.232 55.0452 452.107 55.3643 451.856C55.6833 451.601 55.8428 451.197 55.8428 450.646C55.8428 450.154 55.6855 449.78 55.3711 449.525C55.0612 449.265 54.5804 449.135 53.9287 449.135C53.8102 449.135 53.6826 449.142 53.5459 449.156C53.4137 449.169 53.2816 449.188 53.1494 449.21C53.0218 449.233 52.8988 449.258 52.7803 449.286C52.6618 449.308 52.5592 449.333 52.4727 449.361L51.6318 448.91L52.0078 443.817H57.2852V445.608H53.8398L53.6758 447.57C53.8216 447.538 53.9902 447.506 54.1816 447.474C54.3776 447.442 54.6283 447.426 54.9336 447.426ZM69.8496 453.811H67.7646V449.347C67.7646 448.796 67.6826 448.383 67.5186 448.11C67.3545 447.832 67.097 447.693 66.7461 447.693C66.4818 447.693 66.2607 447.748 66.083 447.857C65.9098 447.966 65.7708 448.128 65.666 448.342C65.5612 448.556 65.486 448.821 65.4404 449.135C65.3949 449.45 65.3721 449.81 65.3721 450.215V453.811H63.2871V446.168H64.8799L65.1602 447.146H65.2764C65.3857 446.95 65.5156 446.781 65.666 446.64C65.821 446.499 65.9896 446.383 66.1719 446.292C66.3542 446.2 66.5479 446.134 66.7529 446.093C66.958 446.048 67.1654 446.025 67.375 446.025C67.8991 446.025 68.3434 446.116 68.708 446.298C69.0771 446.476 69.3597 446.759 69.5557 447.146H69.7266C69.8359 446.95 69.9681 446.781 70.123 446.64C70.278 446.499 70.4489 446.383 70.6357 446.292C70.8226 446.2 71.0186 446.134 71.2236 446.093C71.4333 446.048 71.6429 446.025 71.8525 446.025C72.6729 446.025 73.2904 446.248 73.7051 446.695C74.1243 447.137 74.334 447.848 74.334 448.828V453.811H72.2422V449.347C72.2422 448.796 72.1602 448.383 71.9961 448.11C71.832 447.832 71.5745 447.693 71.2236 447.693C70.7269 447.693 70.3737 447.891 70.1641 448.288C69.9544 448.68 69.8496 449.242 69.8496 449.976V453.811ZM76.3916 444.193C76.3916 443.997 76.4212 443.835 76.4805 443.708C76.5397 443.575 76.6195 443.471 76.7197 443.393C76.8245 443.311 76.9453 443.254 77.082 443.222C77.2233 443.19 77.3714 443.174 77.5264 443.174C77.6813 443.174 77.8271 443.19 77.9639 443.222C78.1006 443.254 78.2191 443.311 78.3193 443.393C78.4242 443.471 78.5062 443.575 78.5654 443.708C78.6292 443.835 78.6611 443.997 78.6611 444.193C78.6611 444.384 78.6292 444.546 78.5654 444.678C78.5062 444.81 78.4242 444.917 78.3193 445C78.2191 445.077 78.1006 445.134 77.9639 445.17C77.8271 445.202 77.6813 445.218 77.5264 445.218C77.3714 445.218 77.2233 445.202 77.082 445.17C76.9453 445.134 76.8245 445.077 76.7197 445C76.6195 444.917 76.5397 444.81 76.4805 444.678C76.4212 444.546 76.3916 444.384 76.3916 444.193ZM78.5654 453.811H76.4805V446.168H78.5654V453.811ZM87.3906 453.811H85.3057V449.347C85.3057 448.796 85.2214 448.383 85.0527 448.11C84.8887 447.832 84.6243 447.693 84.2598 447.693C83.9863 447.693 83.7585 447.748 83.5762 447.857C83.3939 447.966 83.248 448.128 83.1387 448.342C83.0339 448.556 82.9587 448.821 82.9131 449.135C82.8675 449.45 82.8447 449.81 82.8447 450.215V453.811H80.7598V446.168H82.3525L82.6328 447.146H82.749C82.8584 446.95 82.9906 446.781 83.1455 446.64C83.305 446.499 83.4782 446.383 83.665 446.292C83.8519 446.2 84.0501 446.134 84.2598 446.093C84.4694 446.048 84.6836 446.025 84.9023 446.025C85.276 446.025 85.6156 446.08 85.9209 446.189C86.2262 446.294 86.4883 446.46 86.707 446.688C86.9258 446.916 87.0944 447.208 87.2129 447.563C87.3314 447.914 87.3906 448.335 87.3906 448.828V453.811Z" fill="white"/>
<path d="M102.585 453.811H100.473V448.028C100.473 447.909 100.473 447.768 100.473 447.604C100.477 447.435 100.482 447.262 100.486 447.084C100.495 446.902 100.502 446.72 100.507 446.538C100.516 446.355 100.523 446.189 100.527 446.039C100.505 446.066 100.466 446.107 100.411 446.162C100.356 446.216 100.295 446.278 100.227 446.346C100.158 446.41 100.088 446.476 100.015 446.544C99.9417 446.613 99.8711 446.674 99.8027 446.729L98.6543 447.652L97.6289 446.38L100.849 443.817H102.585V453.811ZM111.923 448.083C111.923 448.561 111.896 449.04 111.841 449.518C111.791 449.992 111.697 450.445 111.561 450.878C111.428 451.311 111.246 451.717 111.014 452.095C110.786 452.469 110.494 452.792 110.139 453.066C109.788 453.339 109.364 453.556 108.867 453.715C108.375 453.87 107.796 453.948 107.131 453.948C107.035 453.948 106.93 453.945 106.816 453.941C106.702 453.936 106.586 453.93 106.468 453.92C106.354 453.916 106.242 453.907 106.133 453.893C106.023 453.884 105.928 453.87 105.846 453.852V452.157C106.014 452.202 106.194 452.239 106.386 452.266C106.582 452.289 106.78 452.3 106.98 452.3C107.596 452.3 108.102 452.225 108.498 452.075C108.895 451.92 109.209 451.706 109.441 451.432C109.674 451.154 109.838 450.824 109.934 450.441C110.034 450.058 110.095 449.637 110.118 449.176H110.029C109.938 449.34 109.829 449.493 109.701 449.634C109.574 449.776 109.423 449.899 109.25 450.003C109.077 450.108 108.881 450.19 108.662 450.25C108.443 450.309 108.2 450.338 107.931 450.338C107.498 450.338 107.108 450.268 106.762 450.126C106.415 449.985 106.121 449.78 105.88 449.511C105.643 449.242 105.461 448.912 105.333 448.52C105.205 448.128 105.142 447.679 105.142 447.173C105.142 446.631 105.217 446.146 105.367 445.717C105.522 445.289 105.741 444.927 106.023 444.63C106.306 444.33 106.648 444.099 107.049 443.94C107.454 443.78 107.908 443.701 108.409 443.701C108.901 443.701 109.362 443.79 109.79 443.967C110.218 444.14 110.59 444.407 110.904 444.767C111.219 445.127 111.467 445.583 111.649 446.134C111.832 446.686 111.923 447.335 111.923 448.083ZM108.45 445.396C108.263 445.396 108.092 445.43 107.938 445.499C107.783 445.567 107.648 445.674 107.534 445.82C107.425 445.961 107.338 446.143 107.274 446.367C107.215 446.585 107.186 446.845 107.186 447.146C107.186 447.629 107.288 448.012 107.493 448.294C107.698 448.577 108.008 448.718 108.423 448.718C108.632 448.718 108.824 448.677 108.997 448.595C109.17 448.513 109.318 448.406 109.441 448.274C109.564 448.142 109.658 447.994 109.722 447.83C109.79 447.666 109.824 447.499 109.824 447.331C109.824 447.098 109.795 446.868 109.735 446.64C109.681 446.408 109.594 446.2 109.476 446.018C109.362 445.831 109.218 445.681 109.045 445.567C108.876 445.453 108.678 445.396 108.45 445.396ZM116.284 443.687C116.699 443.687 117.091 443.737 117.46 443.837C117.829 443.938 118.153 444.088 118.431 444.289C118.709 444.489 118.93 444.74 119.094 445.041C119.258 445.341 119.34 445.694 119.34 446.1C119.34 446.401 119.294 446.674 119.203 446.92C119.112 447.162 118.987 447.383 118.827 447.583C118.668 447.779 118.479 447.955 118.26 448.11C118.041 448.265 117.804 448.406 117.549 448.534C117.813 448.675 118.071 448.832 118.321 449.005C118.576 449.179 118.802 449.375 118.998 449.593C119.194 449.807 119.351 450.049 119.47 450.318C119.588 450.587 119.647 450.888 119.647 451.22C119.647 451.635 119.565 452.011 119.401 452.348C119.237 452.685 119.007 452.972 118.711 453.209C118.415 453.446 118.059 453.629 117.645 453.756C117.234 453.884 116.781 453.948 116.284 453.948C115.746 453.948 115.268 453.886 114.849 453.763C114.429 453.64 114.076 453.465 113.789 453.237C113.502 453.009 113.283 452.729 113.133 452.396C112.987 452.063 112.914 451.69 112.914 451.275C112.914 450.933 112.964 450.625 113.064 450.352C113.165 450.079 113.301 449.833 113.475 449.614C113.648 449.395 113.851 449.201 114.083 449.033C114.315 448.864 114.564 448.716 114.828 448.588C114.605 448.447 114.395 448.294 114.199 448.13C114.003 447.962 113.832 447.777 113.687 447.577C113.545 447.372 113.431 447.146 113.345 446.9C113.263 446.654 113.222 446.383 113.222 446.086C113.222 445.69 113.304 445.344 113.468 445.047C113.636 444.747 113.862 444.496 114.145 444.295C114.427 444.09 114.753 443.938 115.122 443.837C115.491 443.737 115.879 443.687 116.284 443.687ZM114.869 451.152C114.869 451.334 114.899 451.503 114.958 451.658C115.017 451.808 115.104 451.938 115.218 452.047C115.336 452.157 115.482 452.243 115.655 452.307C115.828 452.366 116.029 452.396 116.257 452.396C116.735 452.396 117.093 452.284 117.33 452.061C117.567 451.833 117.686 451.535 117.686 451.166C117.686 450.974 117.645 450.803 117.562 450.653C117.485 450.498 117.382 450.357 117.255 450.229C117.132 450.097 116.991 449.976 116.831 449.867C116.672 449.757 116.512 449.653 116.353 449.552L116.202 449.457C116.002 449.557 115.819 449.666 115.655 449.785C115.491 449.899 115.35 450.026 115.231 450.167C115.118 450.304 115.029 450.455 114.965 450.619C114.901 450.783 114.869 450.96 114.869 451.152ZM116.271 445.232C116.12 445.232 115.979 445.255 115.847 445.3C115.719 445.346 115.607 445.412 115.512 445.499C115.421 445.585 115.348 445.692 115.293 445.82C115.238 445.947 115.211 446.091 115.211 446.25C115.211 446.442 115.238 446.608 115.293 446.75C115.352 446.886 115.43 447.009 115.525 447.119C115.626 447.223 115.74 447.319 115.867 447.406C115.999 447.488 116.138 447.57 116.284 447.652C116.425 447.579 116.56 447.499 116.688 447.413C116.815 447.326 116.927 447.228 117.022 447.119C117.123 447.005 117.202 446.877 117.262 446.736C117.321 446.595 117.351 446.433 117.351 446.25C117.351 446.091 117.323 445.947 117.269 445.82C117.214 445.692 117.139 445.585 117.043 445.499C116.947 445.412 116.833 445.346 116.701 445.3C116.569 445.255 116.425 445.232 116.271 445.232ZM127.55 451.74H126.347V453.811H124.289V451.74H120.16V450.27L124.405 443.817H126.347V450.099H127.55V451.74ZM124.289 450.099V448.404C124.289 448.345 124.289 448.26 124.289 448.151C124.294 448.037 124.298 447.909 124.303 447.768C124.307 447.627 124.312 447.481 124.316 447.331C124.326 447.18 124.332 447.037 124.337 446.9C124.346 446.763 124.353 446.645 124.357 446.544C124.367 446.44 124.373 446.364 124.378 446.319H124.316C124.234 446.51 124.141 446.713 124.036 446.927C123.936 447.141 123.82 447.356 123.688 447.57L122.02 450.099H124.289Z" fill="white"/>
<path d="M144.939 445.871C144.591 445.871 144.275 445.937 143.992 446.071C143.709 446.201 143.466 446.39 143.265 446.637C143.066 446.885 142.911 447.186 142.801 447.541C142.693 447.895 142.64 448.296 142.64 448.742C142.64 449.201 142.687 449.609 142.781 449.967C142.879 450.322 143.024 450.622 143.216 450.866C143.408 451.11 143.647 451.295 143.934 451.422C144.22 451.549 144.555 451.613 144.939 451.613C145.229 451.613 145.504 451.585 145.765 451.53C146.025 451.471 146.282 451.404 146.536 451.33V452.121C146.409 452.169 146.282 452.213 146.155 452.252C146.028 452.288 145.895 452.318 145.755 452.34C145.618 452.363 145.47 452.379 145.311 452.389C145.154 452.402 144.98 452.409 144.788 452.409C144.254 452.409 143.792 452.321 143.401 452.145C143.011 451.969 142.687 451.72 142.43 451.398C142.176 451.076 141.987 450.688 141.863 450.236C141.74 449.783 141.678 449.282 141.678 448.732C141.678 448.192 141.748 447.697 141.888 447.248C142.031 446.798 142.239 446.413 142.513 446.09C142.789 445.768 143.131 445.517 143.538 445.338C143.945 445.159 144.412 445.07 144.939 445.07C145.291 445.07 145.626 445.106 145.945 445.177C146.264 445.249 146.552 445.353 146.81 445.49L146.429 446.251C146.224 446.147 146.001 446.058 145.76 445.983C145.519 445.908 145.245 445.871 144.939 445.871ZM150.77 445.871C150.421 445.871 150.105 445.937 149.822 446.071C149.539 446.201 149.297 446.39 149.095 446.637C148.896 446.885 148.742 447.186 148.631 447.541C148.523 447.895 148.47 448.296 148.47 448.742C148.47 449.201 148.517 449.609 148.611 449.967C148.709 450.322 148.854 450.622 149.046 450.866C149.238 451.11 149.477 451.295 149.764 451.422C150.05 451.549 150.385 451.613 150.77 451.613C151.059 451.613 151.334 451.585 151.595 451.53C151.855 451.471 152.112 451.404 152.366 451.33V452.121C152.239 452.169 152.112 452.213 151.985 452.252C151.858 452.288 151.725 452.318 151.585 452.34C151.448 452.363 151.3 452.379 151.141 452.389C150.984 452.402 150.81 452.409 150.618 452.409C150.084 452.409 149.622 452.321 149.231 452.145C148.841 451.969 148.517 451.72 148.26 451.398C148.006 451.076 147.817 450.688 147.693 450.236C147.57 449.783 147.508 449.282 147.508 448.732C147.508 448.192 147.578 447.697 147.718 447.248C147.861 446.798 148.069 446.413 148.343 446.09C148.619 445.768 148.961 445.517 149.368 445.338C149.775 445.159 150.242 445.07 150.77 445.07C151.121 445.07 151.456 445.106 151.775 445.177C152.094 445.249 152.382 445.353 152.64 445.49L152.259 446.251C152.054 446.147 151.831 446.058 151.59 445.983C151.349 445.908 151.076 445.871 150.77 445.871Z" fill="white"/>
<path d="M139 442.811H155V440.811H139V442.811ZM157 444.811V452.811H159V444.811H157ZM155 454.811H139V456.811H155V454.811ZM137 452.811V444.811H135V452.811H137ZM139 454.811C137.895 454.811 137 453.916 137 452.811H135C135 455.02 136.791 456.811 139 456.811V454.811ZM157 452.811C157 453.916 156.105 454.811 155 454.811V456.811C157.209 456.811 159 455.02 159 452.811H157ZM155 442.811C156.105 442.811 157 443.706 157 444.811H159C159 442.602 157.209 440.811 155 440.811V442.811ZM139 440.811C136.791 440.811 135 442.602 135 444.811H137C137 443.706 137.895 442.811 139 442.811V440.811Z" fill="white"/>
<path d="M172.931 449.362V452.311H172.022V445.172H173.761C174.627 445.172 175.266 445.34 175.68 445.675C176.093 446.011 176.3 446.518 176.3 447.199C176.3 447.482 176.259 447.729 176.178 447.941C176.1 448.153 175.994 448.335 175.86 448.488C175.73 448.638 175.58 448.763 175.411 448.864C175.242 448.965 175.068 449.048 174.889 449.113L176.832 452.311H175.763L174.049 449.362H172.931ZM172.931 448.59H173.731C174.024 448.59 174.273 448.563 174.479 448.507C174.684 448.449 174.851 448.364 174.981 448.253C175.115 448.139 175.211 448 175.27 447.833C175.331 447.664 175.362 447.467 175.362 447.243C175.362 447.008 175.328 446.81 175.26 446.647C175.195 446.484 175.094 446.351 174.957 446.247C174.824 446.142 174.653 446.068 174.444 446.022C174.239 445.973 173.995 445.949 173.712 445.949H172.931V448.59Z" fill="white"/>
<path d="M169 442.811H179V440.811H169V442.811ZM181 444.811V452.811H183V444.811H181ZM179 454.811H169V456.811H179V454.811ZM167 452.811V444.811H165V452.811H167ZM169 454.811C167.895 454.811 167 453.916 167 452.811H165C165 455.02 166.791 456.811 169 456.811V454.811ZM181 452.811C181 453.916 180.105 454.811 179 454.811V456.811C181.209 456.811 183 455.02 183 452.811H181ZM179 442.811C180.105 442.811 181 443.706 181 444.811H183C183 442.602 181.209 440.811 179 440.811V442.811ZM169 440.811C166.791 440.811 165 442.602 165 444.811H167C167 443.706 167.895 442.811 169 442.811V440.811Z" fill="white"/>
<circle cx="22.5" cy="472.811" r="1.5" fill="#E1E1E1" fill-opacity="0.5"/>
<path d="M33.4893 477.811L30.4609 469.061H30.4062C30.4336 469.398 30.4564 469.733 30.4746 470.066C30.4928 470.353 30.5065 470.656 30.5156 470.975C30.5293 471.29 30.5361 471.577 30.5361 471.836V477.811H29.3604V467.817H31.2471L34.0635 475.965H34.1045L36.9346 467.817H38.8213V477.811H37.5498V471.748C37.5498 471.511 37.5544 471.239 37.5635 470.934C37.5726 470.629 37.584 470.337 37.5977 470.059C37.6159 469.736 37.6318 469.407 37.6455 469.075H37.5908L34.5352 477.811H33.4893ZM46.2314 477.811L46.0469 476.806H45.9785C45.8646 477.002 45.7279 477.173 45.5684 477.319C45.4134 477.46 45.2425 477.579 45.0557 477.674C44.8688 477.765 44.6706 477.834 44.4609 477.879C44.2513 477.925 44.0371 477.948 43.8184 477.948C43.4036 477.948 43.0391 477.895 42.7246 477.791C42.4102 477.686 42.1481 477.522 41.9385 477.298C41.7288 477.075 41.5693 476.79 41.46 476.444C41.3551 476.097 41.3027 475.685 41.3027 475.207V470.305H42.5469V475.138C42.5469 475.731 42.6676 476.175 42.9092 476.471C43.1507 476.767 43.5244 476.916 44.0303 476.916C44.3994 476.916 44.7093 476.856 44.96 476.738C45.2106 476.619 45.4111 476.446 45.5615 476.218C45.7165 475.986 45.8258 475.701 45.8896 475.364C45.958 475.027 45.9922 474.639 45.9922 474.202V470.305H47.2363V477.811H46.2314ZM54.1064 475.753C54.1064 476.118 54.0404 476.437 53.9082 476.71C53.776 476.984 53.5846 477.214 53.334 477.401C53.0879 477.583 52.7894 477.72 52.4385 477.811C52.0876 477.902 51.6934 477.948 51.2559 477.948C50.7591 477.948 50.333 477.907 49.9775 477.825C49.6221 477.747 49.3099 477.631 49.041 477.476V476.341C49.1823 476.414 49.3395 476.487 49.5127 476.56C49.6859 476.628 49.8682 476.69 50.0596 476.745C50.251 476.799 50.4469 476.845 50.6475 476.881C50.8525 476.913 51.0553 476.929 51.2559 476.929C51.5521 476.929 51.8027 476.904 52.0078 476.854C52.2174 476.804 52.3861 476.733 52.5137 476.642C52.6458 476.546 52.7415 476.432 52.8008 476.3C52.86 476.164 52.8896 476.013 52.8896 475.849C52.8896 475.708 52.8669 475.58 52.8213 475.466C52.7757 475.352 52.6914 475.241 52.5684 475.131C52.4499 475.017 52.2858 474.903 52.0762 474.79C51.8665 474.676 51.5977 474.548 51.2695 474.407C50.9414 474.265 50.6452 474.126 50.3809 473.99C50.1211 473.853 49.9001 473.7 49.7178 473.532C49.5355 473.363 49.3942 473.169 49.2939 472.951C49.1982 472.727 49.1504 472.463 49.1504 472.158C49.1504 471.839 49.2119 471.556 49.335 471.31C49.4626 471.059 49.6403 470.85 49.8682 470.681C50.096 470.513 50.3695 470.385 50.6885 470.298C51.0075 470.212 51.363 470.168 51.7549 470.168C52.1969 470.168 52.6003 470.216 52.9648 470.312C53.334 470.408 53.6826 470.533 54.0107 470.688L53.5801 471.693C53.2839 471.561 52.9785 471.447 52.6641 471.351C52.3542 471.251 52.0374 471.201 51.7139 471.201C51.249 471.201 50.9049 471.278 50.6816 471.433C50.4583 471.583 50.3467 471.8 50.3467 472.083C50.3467 472.242 50.3717 472.381 50.4219 472.5C50.4766 472.618 50.5677 472.73 50.6953 472.834C50.8229 472.939 50.9938 473.046 51.208 473.156C51.4222 473.261 51.6888 473.379 52.0078 473.511C52.3359 473.648 52.6276 473.785 52.8828 473.921C53.1426 474.058 53.3636 474.213 53.5459 474.386C53.7282 474.555 53.8672 474.749 53.9629 474.967C54.0586 475.186 54.1064 475.448 54.1064 475.753ZM57.1758 477.811H55.9316V470.305H57.1758V477.811ZM55.8359 468.275C55.8359 468.001 55.9043 467.803 56.041 467.68C56.1823 467.557 56.3555 467.496 56.5605 467.496C56.6608 467.496 56.7542 467.512 56.8408 467.543C56.932 467.571 57.0094 467.616 57.0732 467.68C57.1416 467.744 57.194 467.826 57.2305 467.926C57.2715 468.022 57.292 468.138 57.292 468.275C57.292 468.539 57.2191 468.737 57.0732 468.87C56.932 468.997 56.7611 469.061 56.5605 469.061C56.3555 469.061 56.1823 468.997 56.041 468.87C55.9043 468.742 55.8359 468.544 55.8359 468.275ZM62.4258 477.948C61.9655 477.948 61.5348 477.877 61.1338 477.736C60.7327 477.59 60.3841 477.362 60.0879 477.052C59.7917 476.738 59.5592 476.339 59.3906 475.856C59.222 475.368 59.1377 474.783 59.1377 474.099C59.1377 473.384 59.2243 472.778 59.3975 472.281C59.5706 471.779 59.8076 471.374 60.1084 471.064C60.4137 470.75 60.7692 470.522 61.1748 470.38C61.5804 470.239 62.0156 470.168 62.4805 470.168C62.8359 470.168 63.1823 470.207 63.5195 470.285C63.8613 470.362 64.1462 470.458 64.374 470.572L64.0049 471.625C63.9001 471.579 63.7839 471.536 63.6562 471.495C63.5286 471.449 63.3965 471.41 63.2598 471.378C63.123 471.342 62.9886 471.315 62.8564 471.296C62.7243 471.274 62.599 471.262 62.4805 471.262C61.765 471.262 61.2432 471.492 60.915 471.953C60.5869 472.408 60.4229 473.119 60.4229 474.085C60.4229 475.047 60.5869 475.751 60.915 476.198C61.2477 476.64 61.7513 476.861 62.4258 476.861C62.7949 476.861 63.1276 476.82 63.4238 476.738C63.7246 476.651 63.998 476.551 64.2441 476.437V477.544C63.998 477.677 63.7337 477.777 63.4512 477.845C63.1732 477.914 62.8314 477.948 62.4258 477.948ZM70.2666 477.811L70.0137 476.772H69.959C69.8086 476.977 69.6582 477.155 69.5078 477.305C69.3574 477.451 69.1934 477.572 69.0156 477.667C68.8379 477.763 68.6396 477.834 68.4209 477.879C68.2021 477.925 67.9492 477.948 67.6621 477.948C67.3477 477.948 67.0583 477.902 66.7939 477.811C66.5296 477.724 66.2995 477.59 66.1035 477.408C65.9121 477.221 65.7617 476.988 65.6523 476.71C65.543 476.428 65.4883 476.095 65.4883 475.712C65.4883 474.965 65.7503 474.391 66.2744 473.99C66.8031 473.589 67.6051 473.37 68.6807 473.333L69.9385 473.286V472.814C69.9385 472.509 69.9043 472.253 69.8359 472.048C69.7721 471.843 69.6764 471.679 69.5488 471.556C69.4258 471.429 69.2708 471.337 69.084 471.283C68.9017 471.228 68.6921 471.201 68.4551 471.201C68.0768 471.201 67.7236 471.255 67.3955 471.365C67.0719 471.474 66.7598 471.606 66.459 471.761L66.0215 470.825C66.3587 470.642 66.7347 470.487 67.1494 470.36C67.5641 470.232 67.9993 470.168 68.4551 470.168C68.9199 470.168 69.321 470.216 69.6582 470.312C70 470.403 70.2803 470.551 70.499 470.756C70.7223 470.957 70.8887 471.214 70.998 471.529C71.1074 471.843 71.1621 472.224 71.1621 472.67V477.811H70.2666ZM67.9834 476.943C68.2614 476.943 68.5189 476.9 68.7559 476.813C68.9928 476.726 69.1979 476.597 69.3711 476.423C69.5443 476.246 69.6787 476.025 69.7744 475.76C69.8747 475.491 69.9248 475.177 69.9248 474.817V474.14L68.9473 474.188C68.5371 474.206 68.193 474.252 67.915 474.325C67.637 474.398 67.4137 474.5 67.2451 474.632C67.0811 474.76 66.9626 474.917 66.8896 475.104C66.8167 475.286 66.7803 475.494 66.7803 475.726C66.7803 476.145 66.8896 476.453 67.1084 476.649C67.3317 476.845 67.6234 476.943 67.9834 476.943ZM74.7168 477.811H73.4727V467.174H74.7168V477.811Z" fill="white"/>
<g clip-path="url(#clip1)">
<circle cx="87.5" cy="472.811" r="1.5" fill="#E1E1E1" fill-opacity="0.5"/>
<path d="M99.624 475.138C99.624 475.58 99.5443 475.977 99.3848 476.328C99.2298 476.674 99.0065 476.968 98.7148 477.209C98.4232 477.451 98.0677 477.636 97.6484 477.763C97.2292 477.886 96.7575 477.948 96.2334 477.948C95.7275 477.948 95.2536 477.907 94.8115 477.825C94.374 477.747 94.0072 477.631 93.7109 477.476V476.259C93.8659 476.332 94.0413 476.405 94.2373 476.478C94.4378 476.546 94.6475 476.608 94.8662 476.663C95.085 476.717 95.3105 476.763 95.543 476.799C95.7754 476.831 96.0055 476.847 96.2334 476.847C96.9626 476.847 97.5003 476.71 97.8467 476.437C98.1976 476.164 98.373 475.772 98.373 475.261C98.373 475.015 98.3389 474.801 98.2705 474.619C98.2067 474.436 98.0905 474.27 97.9219 474.12C97.7578 473.965 97.5368 473.817 97.2588 473.675C96.9808 473.529 96.6299 473.372 96.2061 473.204C95.8005 473.044 95.4473 472.871 95.1465 472.684C94.8503 472.493 94.6042 472.278 94.4082 472.042C94.2168 471.805 94.0732 471.536 93.9775 471.235C93.8864 470.934 93.8408 470.592 93.8408 470.209C93.8408 469.808 93.9137 469.451 94.0596 469.136C94.2054 468.822 94.4105 468.557 94.6748 468.343C94.9391 468.125 95.2536 467.958 95.6182 467.844C95.9873 467.73 96.3929 467.673 96.835 467.673C97.3773 467.673 97.8649 467.726 98.2979 467.831C98.7308 467.931 99.1159 468.061 99.4531 468.22L98.9951 469.287C98.6989 469.154 98.3617 469.041 97.9834 468.945C97.6097 468.845 97.2223 468.794 96.8213 468.794C96.2653 468.794 95.8346 468.924 95.5293 469.184C95.224 469.439 95.0713 469.786 95.0713 470.223C95.0713 470.483 95.1055 470.708 95.1738 470.9C95.2422 471.087 95.3561 471.258 95.5156 471.413C95.6751 471.563 95.8848 471.707 96.1445 471.843C96.4089 471.975 96.7324 472.117 97.1152 472.267C97.5299 472.431 97.8923 472.6 98.2021 472.773C98.5166 472.946 98.7786 473.142 98.9883 473.361C99.1979 473.58 99.3551 473.833 99.46 474.12C99.5693 474.407 99.624 474.746 99.624 475.138ZM106.323 477.811L106.139 476.806H106.07C105.956 477.002 105.82 477.173 105.66 477.319C105.505 477.46 105.334 477.579 105.147 477.674C104.961 477.765 104.762 477.834 104.553 477.879C104.343 477.925 104.129 477.948 103.91 477.948C103.495 477.948 103.131 477.895 102.816 477.791C102.502 477.686 102.24 477.522 102.03 477.298C101.821 477.075 101.661 476.79 101.552 476.444C101.447 476.097 101.395 475.685 101.395 475.207V470.305H102.639V475.138C102.639 475.731 102.759 476.175 103.001 476.471C103.243 476.767 103.616 476.916 104.122 476.916C104.491 476.916 104.801 476.856 105.052 476.738C105.302 476.619 105.503 476.446 105.653 476.218C105.808 475.986 105.918 475.701 105.981 475.364C106.05 475.027 106.084 474.639 106.084 474.202V470.305H107.328V477.811H106.323ZM114.198 475.753C114.198 476.118 114.132 476.437 114 476.71C113.868 476.984 113.676 477.214 113.426 477.401C113.18 477.583 112.881 477.72 112.53 477.811C112.179 477.902 111.785 477.948 111.348 477.948C110.851 477.948 110.425 477.907 110.069 477.825C109.714 477.747 109.402 477.631 109.133 477.476V476.341C109.274 476.414 109.431 476.487 109.604 476.56C109.778 476.628 109.96 476.69 110.151 476.745C110.343 476.799 110.539 476.845 110.739 476.881C110.944 476.913 111.147 476.929 111.348 476.929C111.644 476.929 111.895 476.904 112.1 476.854C112.309 476.804 112.478 476.733 112.605 476.642C112.738 476.546 112.833 476.432 112.893 476.3C112.952 476.164 112.981 476.013 112.981 475.849C112.981 475.708 112.959 475.58 112.913 475.466C112.868 475.352 112.783 475.241 112.66 475.131C112.542 475.017 112.378 474.903 112.168 474.79C111.958 474.676 111.689 474.548 111.361 474.407C111.033 474.265 110.737 474.126 110.473 473.99C110.213 473.853 109.992 473.7 109.81 473.532C109.627 473.363 109.486 473.169 109.386 472.951C109.29 472.727 109.242 472.463 109.242 472.158C109.242 471.839 109.304 471.556 109.427 471.31C109.554 471.059 109.732 470.85 109.96 470.681C110.188 470.513 110.461 470.385 110.78 470.298C111.099 470.212 111.455 470.168 111.847 470.168C112.289 470.168 112.692 470.216 113.057 470.312C113.426 470.408 113.774 470.533 114.103 470.688L113.672 471.693C113.376 471.561 113.07 471.447 112.756 471.351C112.446 471.251 112.129 471.201 111.806 471.201C111.341 471.201 110.997 471.278 110.773 471.433C110.55 471.583 110.438 471.8 110.438 472.083C110.438 472.242 110.464 472.381 110.514 472.5C110.568 472.618 110.66 472.73 110.787 472.834C110.915 472.939 111.086 473.046 111.3 473.156C111.514 473.261 111.781 473.379 112.1 473.511C112.428 473.648 112.719 473.785 112.975 473.921C113.234 474.058 113.455 474.213 113.638 474.386C113.82 474.555 113.959 474.749 114.055 474.967C114.15 475.186 114.198 475.448 114.198 475.753ZM119.414 477.948C119.145 477.948 118.901 477.918 118.683 477.859C118.464 477.8 118.266 477.722 118.088 477.626C117.915 477.526 117.76 477.41 117.623 477.278C117.491 477.146 117.372 477.007 117.268 476.861H117.186C117.199 477.016 117.213 477.164 117.227 477.305C117.236 477.424 117.245 477.547 117.254 477.674C117.263 477.797 117.268 477.895 117.268 477.968V481.174H116.023V470.305H117.035L117.213 471.317H117.268C117.372 471.157 117.491 471.009 117.623 470.873C117.755 470.731 117.908 470.611 118.081 470.51C118.259 470.405 118.457 470.323 118.676 470.264C118.895 470.2 119.141 470.168 119.414 470.168C119.842 470.168 120.232 470.25 120.583 470.415C120.934 470.579 121.232 470.825 121.479 471.153C121.729 471.476 121.923 471.88 122.06 472.363C122.196 472.846 122.265 473.406 122.265 474.044C122.265 474.687 122.196 475.252 122.06 475.74C121.923 476.223 121.729 476.628 121.479 476.957C121.232 477.285 120.934 477.533 120.583 477.702C120.232 477.866 119.842 477.948 119.414 477.948ZM119.175 471.201C118.828 471.201 118.535 471.253 118.293 471.358C118.056 471.463 117.862 471.622 117.712 471.836C117.566 472.051 117.457 472.317 117.384 472.636C117.315 472.955 117.277 473.331 117.268 473.764V474.044C117.268 474.505 117.297 474.915 117.356 475.275C117.42 475.63 117.525 475.931 117.671 476.177C117.821 476.419 118.02 476.603 118.266 476.731C118.512 476.854 118.819 476.916 119.188 476.916C119.804 476.916 120.255 476.667 120.542 476.17C120.834 475.674 120.979 474.96 120.979 474.031C120.979 473.083 120.834 472.374 120.542 471.905C120.255 471.435 119.799 471.201 119.175 471.201ZM127.193 477.948C126.692 477.948 126.234 477.863 125.819 477.695C125.405 477.526 125.047 477.28 124.746 476.957C124.45 476.633 124.22 476.232 124.056 475.753C123.892 475.275 123.81 474.728 123.81 474.113C123.81 473.493 123.885 472.939 124.035 472.452C124.186 471.964 124.397 471.552 124.671 471.214C124.944 470.873 125.27 470.613 125.648 470.435C126.031 470.257 126.453 470.168 126.913 470.168C127.364 470.168 127.77 470.25 128.13 470.415C128.49 470.574 128.795 470.802 129.046 471.098C129.297 471.39 129.488 471.743 129.62 472.158C129.757 472.568 129.825 473.024 129.825 473.525V474.297H125.095C125.118 475.177 125.302 475.824 125.648 476.239C125.999 476.653 126.519 476.861 127.207 476.861C127.439 476.861 127.654 476.849 127.85 476.827C128.05 476.804 128.242 476.772 128.424 476.731C128.611 476.685 128.791 476.631 128.964 476.567C129.137 476.499 129.312 476.423 129.49 476.341V477.449C129.308 477.535 129.128 477.611 128.95 477.674C128.777 477.738 128.597 477.791 128.41 477.832C128.228 477.873 128.036 477.902 127.836 477.92C127.64 477.939 127.426 477.948 127.193 477.948ZM126.886 471.201C126.366 471.201 125.954 471.378 125.648 471.734C125.348 472.089 125.172 472.607 125.122 473.286H128.485C128.485 472.976 128.453 472.693 128.39 472.438C128.33 472.178 128.235 471.957 128.103 471.775C127.975 471.593 127.811 471.451 127.61 471.351C127.41 471.251 127.168 471.201 126.886 471.201ZM136.408 477.811V472.978C136.408 472.386 136.287 471.941 136.046 471.645C135.809 471.349 135.435 471.201 134.925 471.201C134.556 471.201 134.246 471.26 133.995 471.378C133.744 471.497 133.542 471.672 133.387 471.905C133.236 472.137 133.127 472.422 133.059 472.759C132.995 473.097 132.963 473.484 132.963 473.921V477.811H131.719V470.305H132.73L132.908 471.317H132.977C133.09 471.121 133.225 470.952 133.38 470.811C133.539 470.665 133.713 470.544 133.899 470.449C134.086 470.353 134.285 470.282 134.494 470.237C134.704 470.191 134.918 470.168 135.137 470.168C135.971 470.168 136.597 470.387 137.017 470.825C137.44 471.258 137.652 471.953 137.652 472.91V477.811H136.408ZM144.454 475.753C144.454 476.118 144.388 476.437 144.256 476.71C144.124 476.984 143.932 477.214 143.682 477.401C143.436 477.583 143.137 477.72 142.786 477.811C142.435 477.902 142.041 477.948 141.604 477.948C141.107 477.948 140.681 477.907 140.325 477.825C139.97 477.747 139.658 477.631 139.389 477.476V476.341C139.53 476.414 139.687 476.487 139.86 476.56C140.034 476.628 140.216 476.69 140.407 476.745C140.599 476.799 140.795 476.845 140.995 476.881C141.2 476.913 141.403 476.929 141.604 476.929C141.9 476.929 142.15 476.904 142.355 476.854C142.565 476.804 142.734 476.733 142.861 476.642C142.993 476.546 143.089 476.432 143.148 476.3C143.208 476.164 143.237 476.013 143.237 475.849C143.237 475.708 143.215 475.58 143.169 475.466C143.123 475.352 143.039 475.241 142.916 475.131C142.798 475.017 142.633 474.903 142.424 474.79C142.214 474.676 141.945 474.548 141.617 474.407C141.289 474.265 140.993 474.126 140.729 473.99C140.469 473.853 140.248 473.7 140.065 473.532C139.883 473.363 139.742 473.169 139.642 472.951C139.546 472.727 139.498 472.463 139.498 472.158C139.498 471.839 139.56 471.556 139.683 471.31C139.81 471.059 139.988 470.85 140.216 470.681C140.444 470.513 140.717 470.385 141.036 470.298C141.355 470.212 141.711 470.168 142.103 470.168C142.545 470.168 142.948 470.216 143.312 470.312C143.682 470.408 144.03 470.533 144.358 470.688L143.928 471.693C143.632 471.561 143.326 471.447 143.012 471.351C142.702 471.251 142.385 471.201 142.062 471.201C141.597 471.201 141.253 471.278 141.029 471.433C140.806 471.583 140.694 471.8 140.694 472.083C140.694 472.242 140.719 472.381 140.77 472.5C140.824 472.618 140.915 472.73 141.043 472.834C141.171 472.939 141.341 473.046 141.556 473.156C141.77 473.261 142.036 473.379 142.355 473.511C142.684 473.648 142.975 473.785 143.23 473.921C143.49 474.058 143.711 474.213 143.894 474.386C144.076 474.555 144.215 474.749 144.311 474.967C144.406 475.186 144.454 475.448 144.454 475.753ZM149.246 477.948C148.745 477.948 148.287 477.863 147.872 477.695C147.457 477.526 147.1 477.28 146.799 476.957C146.503 476.633 146.272 476.232 146.108 475.753C145.944 475.275 145.862 474.728 145.862 474.113C145.862 473.493 145.938 472.939 146.088 472.452C146.238 471.964 146.45 471.552 146.724 471.214C146.997 470.873 147.323 470.613 147.701 470.435C148.084 470.257 148.506 470.168 148.966 470.168C149.417 470.168 149.823 470.25 150.183 470.415C150.543 470.574 150.848 470.802 151.099 471.098C151.349 471.39 151.541 471.743 151.673 472.158C151.81 472.568 151.878 473.024 151.878 473.525V474.297H147.147C147.17 475.177 147.355 475.824 147.701 476.239C148.052 476.653 148.572 476.861 149.26 476.861C149.492 476.861 149.706 476.849 149.902 476.827C150.103 476.804 150.294 476.772 150.477 476.731C150.663 476.685 150.843 476.631 151.017 476.567C151.19 476.499 151.365 476.423 151.543 476.341V477.449C151.361 477.535 151.181 477.611 151.003 477.674C150.83 477.738 150.65 477.791 150.463 477.832C150.281 477.873 150.089 477.902 149.889 477.92C149.693 477.939 149.479 477.948 149.246 477.948ZM148.938 471.201C148.419 471.201 148.007 471.378 147.701 471.734C147.4 472.089 147.225 472.607 147.175 473.286H150.538C150.538 472.976 150.506 472.693 150.442 472.438C150.383 472.178 150.287 471.957 150.155 471.775C150.028 471.593 149.864 471.451 149.663 471.351C149.463 471.251 149.221 471.201 148.938 471.201Z" fill="white"/>
</g>
<path d="M297 341.75C301.537 341.75 305.25 345.463 305.25 350C305.25 354.537 301.537 358.25 297 358.25C292.463 358.25 288.75 354.537 288.75 350C288.75 345.463 292.463 341.75 297 341.75ZM297 340.375C291.706 340.375 287.375 344.706 287.375 350C287.375 355.294 291.706 359.625 297 359.625C302.294 359.625 306.625 355.294 306.625 350C306.625 344.706 302.294 340.375 297 340.375Z" fill="white"/>
<path d="M302.5 349.312H297.688V344.5H296.312V349.312H291.5V350.688H296.312V355.5H297.688V350.688H302.5V349.312Z" fill="white"/>
<path d="M299.267 376.276C298.605 375.608 297.916 375.026 297.198 374.532C296.481 374.037 295.809 373.666 295.182 373.419C294.556 373.172 293.981 373.053 293.459 373.063C292.936 373.073 292.529 373.228 292.236 373.529C292.167 373.596 292.108 373.671 292.059 373.755C292.01 373.838 291.975 373.903 291.954 373.95C291.934 373.997 291.906 374.081 291.871 374.201C291.836 374.321 291.812 374.398 291.798 374.432L287.912 386.703L288.152 386.944C287.88 387.124 287.638 387.335 287.426 387.576C287.214 387.816 287.027 388.013 286.867 388.167C286.707 388.321 286.515 388.428 286.292 388.488C286.244 388.501 286.183 388.547 286.11 388.623C286.037 388.7 286 388.769 286 388.829C286 388.949 286.063 389.049 286.188 389.13C286.313 389.21 286.453 389.25 286.606 389.25C286.801 389.25 286.989 389.175 287.17 389.024C287.351 388.874 287.534 388.682 287.718 388.448C287.903 388.214 288.037 388.06 288.121 387.987C288.302 387.833 288.504 387.686 288.726 387.546L288.998 387.796L301.346 383.776C301.617 383.696 301.826 383.575 301.972 383.415C302.265 383.114 302.416 382.698 302.427 382.167C302.437 381.635 302.321 381.05 302.077 380.412C301.833 379.774 301.469 379.092 300.985 378.367C300.501 377.642 299.928 376.945 299.267 376.276ZM298.139 377.369C299.204 378.412 300.014 379.409 300.567 380.362C301.121 381.314 301.255 381.941 300.97 382.242C300.684 382.543 300.061 382.432 299.1 381.911C298.139 381.39 297.129 380.611 296.07 379.575C294.998 378.532 294.185 377.536 293.631 376.587C293.077 375.638 292.943 375.01 293.229 374.702C293.514 374.401 294.139 374.512 295.104 375.033C296.069 375.554 297.08 376.333 298.139 377.369ZM295.851 381.52C296.359 381.954 296.864 382.335 297.366 382.663C297.373 382.676 297.547 382.99 297.888 383.605L297.01 383.896C296.593 383.141 296.206 382.349 295.851 381.52ZM292.289 376.928C292.442 377.256 292.654 377.653 292.926 378.121C293.149 379.084 293.499 380.126 293.976 381.249C294.453 382.372 294.973 383.425 295.538 384.407L294.67 384.688C294.016 383.525 293.445 382.307 292.957 381.034C292.47 379.76 292.17 378.636 292.059 377.66L292.289 376.928ZM291.077 380.598C291.564 382.095 292.25 383.632 293.135 385.21L292.278 385.5C291.589 384.23 291.046 383.037 290.649 381.921L291.077 380.598ZM289.876 384.257C290.147 384.872 290.436 385.457 290.743 386.012L289.886 386.302C289.789 386.122 289.649 385.844 289.468 385.47L289.876 384.257ZM297.554 370L298.076 371.514L296.728 372.456H298.389L298.901 373.97L299.413 372.456H301.064L299.726 371.514L300.249 370.01L298.901 370.942L297.554 370ZM294.629 370L294.347 371.374L295.778 371.644L296.06 370.271L294.629 370ZM304.041 374.131L305.19 372.978L306.684 373.68L305.911 372.276L307.07 371.143L305.43 371.414L304.657 370L304.427 371.584L302.787 371.855L304.281 372.547L304.041 374.131ZM303.654 376.597L305.044 377.479L304.605 379.023L305.9 378.021L307.279 378.903L306.705 377.399L308 376.417L306.339 376.487L305.754 374.993L305.326 376.527L303.654 376.597ZM303.059 372.877L299.946 375.324L300.332 375.775L303.445 373.329L303.059 372.877ZM304.145 377.61L301.711 377.399L301.649 377.981L304.093 378.191L304.145 377.61ZM304.386 380.417L303.936 381.761L305.326 382.192L305.785 380.858L304.386 380.417Z" fill="white"/>
<path d="M296.75 405.833C297.256 405.833 297.667 405.423 297.667 404.917C297.667 404.41 297.256 404 296.75 404C296.244 404 295.833 404.41 295.833 404.917C295.833 405.423 296.244 405.833 296.75 405.833Z" fill="white"/>
<path d="M299.347 413.411H297.819V407.056H295.528C295.325 407.056 295.131 407.139 294.988 407.288C294.844 407.437 294.764 407.639 294.764 407.85C294.764 408.061 294.844 408.263 294.988 408.412C295.131 408.561 295.325 408.644 295.528 408.644H296.292V413.411H294.764C294.561 413.411 294.367 413.495 294.224 413.644C294.08 413.793 294 413.995 294 414.206C294 414.416 294.08 414.618 294.224 414.767C294.367 414.916 294.561 415 294.764 415H299.347C299.55 415 299.744 414.916 299.887 414.767C300.031 414.618 300.111 414.416 300.111 414.206C300.111 413.995 300.031 413.793 299.887 413.644C299.744 413.495 299.55 413.411 299.347 413.411Z" fill="white"/>
<path d="M296.625 400C294.721 400 292.86 400.564 291.278 401.622C289.695 402.68 288.461 404.183 287.733 405.942C287.004 407.7 286.814 409.636 287.185 411.503C287.556 413.37 288.473 415.085 289.819 416.431C291.165 417.777 292.88 418.694 294.747 419.065C296.614 419.436 298.55 419.246 300.308 418.517C302.067 417.789 303.57 416.555 304.628 414.972C305.686 413.39 306.25 411.529 306.25 409.625C306.25 407.072 305.236 404.624 303.431 402.819C301.626 401.014 299.178 400 296.625 400V400ZM296.625 417.646C295.039 417.646 293.488 417.175 292.169 416.294C290.85 415.413 289.822 414.16 289.215 412.694C288.608 411.229 288.449 409.616 288.758 408.06C289.068 406.504 289.832 405.075 290.953 403.953C292.075 402.832 293.504 402.068 295.06 401.758C296.616 401.449 298.229 401.608 299.694 402.215C301.16 402.822 302.413 403.85 303.294 405.169C304.175 406.488 304.646 408.039 304.646 409.625C304.646 410.678 304.438 411.721 304.035 412.694C303.632 413.668 303.041 414.552 302.297 415.297C301.552 416.041 300.668 416.632 299.694 417.035C298.721 417.438 297.678 417.646 296.625 417.646V417.646Z" fill="white"/>
<path d="M301.813 442.75C301.298 442.752 300.791 442.87 300.328 443.095C299.865 443.32 299.459 443.646 299.139 444.049L294.113 440.907C294.296 440.316 294.296 439.683 294.113 439.092L299.139 435.95C299.649 436.582 300.366 437.013 301.163 437.166C301.96 437.32 302.786 437.186 303.494 436.789C304.202 436.392 304.747 435.757 305.032 434.997C305.317 434.236 305.323 433.4 305.05 432.635C304.777 431.871 304.243 431.227 303.541 430.819C302.839 430.411 302.015 430.264 301.216 430.405C300.416 430.546 299.692 430.966 299.173 431.589C298.653 432.213 298.37 433 298.375 433.812C298.379 434.12 298.425 434.425 298.513 434.72L293.487 437.862C293.044 437.303 292.437 436.896 291.752 436.698C291.067 436.5 290.337 436.519 289.663 436.754C288.99 436.989 288.406 437.428 287.993 438.009C287.58 438.591 287.358 439.286 287.358 440C287.358 440.713 287.58 441.409 287.993 441.99C288.406 442.572 288.99 443.011 289.663 443.245C290.337 443.48 291.067 443.5 291.752 443.302C292.437 443.103 293.044 442.696 293.487 442.138L298.513 445.28C298.425 445.574 298.379 445.88 298.375 446.187C298.375 446.867 298.577 447.532 298.955 448.097C299.332 448.662 299.869 449.103 300.497 449.363C301.126 449.623 301.817 449.691 302.484 449.559C303.15 449.426 303.763 449.099 304.244 448.618C304.724 448.137 305.052 447.525 305.184 446.858C305.317 446.191 305.249 445.5 304.989 444.872C304.729 444.244 304.288 443.707 303.723 443.329C303.157 442.951 302.493 442.75 301.813 442.75V442.75ZM301.813 431.75C302.221 431.75 302.62 431.871 302.959 432.097C303.298 432.324 303.562 432.646 303.718 433.023C303.875 433.4 303.915 433.815 303.836 434.215C303.756 434.615 303.56 434.982 303.271 435.271C302.983 435.559 302.615 435.756 302.215 435.835C301.815 435.915 301.4 435.874 301.024 435.718C300.647 435.562 300.325 435.297 300.098 434.958C299.871 434.619 299.75 434.22 299.75 433.812C299.75 433.265 299.968 432.741 300.354 432.354C300.741 431.967 301.266 431.75 301.813 431.75V431.75ZM290.813 442.062C290.405 442.062 290.006 441.941 289.667 441.715C289.328 441.488 289.064 441.166 288.907 440.789C288.751 440.412 288.71 439.997 288.79 439.597C288.87 439.197 289.066 438.83 289.354 438.541C289.643 438.253 290.01 438.056 290.411 437.977C290.811 437.897 291.225 437.938 291.602 438.094C291.979 438.25 292.301 438.515 292.528 438.854C292.754 439.193 292.875 439.592 292.875 440C292.875 440.547 292.658 441.071 292.271 441.458C291.885 441.845 291.36 442.062 290.813 442.062ZM301.813 448.25C301.405 448.25 301.006 448.129 300.667 447.902C300.328 447.676 300.064 447.353 299.907 446.977C299.751 446.6 299.71 446.185 299.79 445.785C299.87 445.385 300.066 445.017 300.354 444.729C300.643 444.44 301.01 444.244 301.411 444.164C301.811 444.085 302.225 444.126 302.602 444.282C302.979 444.438 303.301 444.702 303.528 445.041C303.754 445.381 303.875 445.779 303.875 446.187C303.875 446.734 303.658 447.259 303.271 447.646C302.885 448.032 302.36 448.25 301.813 448.25V448.25Z" fill="white"/>
<path d="M303.416 460.833H291.747C291.103 460.834 290.481 461.059 289.986 461.471C289.492 461.883 289.158 462.455 289.043 463.088L287.878 469.505C287.806 469.901 287.821 470.309 287.924 470.699C288.026 471.088 288.213 471.451 288.471 471.76C288.729 472.07 289.052 472.319 289.417 472.49C289.782 472.661 290.18 472.75 290.583 472.75H294.763L294.249 474.061C294.036 474.635 293.965 475.252 294.042 475.859C294.119 476.467 294.343 477.046 294.694 477.549C295.044 478.051 295.511 478.46 296.055 478.742C296.599 479.024 297.203 479.169 297.815 479.167C297.991 479.166 298.164 479.115 298.312 479.019C298.46 478.923 298.577 478.787 298.649 478.626L301.262 472.75H303.416C304.145 472.75 304.845 472.46 305.36 471.945C305.876 471.429 306.166 470.729 306.166 470V463.583C306.166 462.854 305.876 462.154 305.36 461.639C304.845 461.123 304.145 460.833 303.416 460.833ZM299.749 471.641L297.256 477.251C297.001 477.174 296.764 477.045 296.561 476.873C296.357 476.701 296.191 476.489 296.072 476.25C295.954 476.011 295.886 475.751 295.872 475.485C295.858 475.219 295.898 474.952 295.991 474.702L296.477 473.392C296.58 473.115 296.615 472.817 296.579 472.523C296.542 472.23 296.435 471.949 296.267 471.706C296.098 471.463 295.873 471.264 295.611 471.127C295.35 470.989 295.058 470.917 294.763 470.917H290.583C290.448 470.917 290.315 470.887 290.193 470.83C290.071 470.773 289.963 470.69 289.877 470.587C289.788 470.485 289.724 470.364 289.687 470.234C289.651 470.104 289.644 469.968 289.666 469.835L290.83 463.418C290.869 463.205 290.983 463.012 291.151 462.874C291.318 462.737 291.53 462.663 291.747 462.667H299.749V471.641ZM304.333 470C304.333 470.243 304.236 470.476 304.064 470.648C303.892 470.82 303.659 470.917 303.416 470.917H301.583V462.667H303.416C303.659 462.667 303.892 462.763 304.064 462.935C304.236 463.107 304.333 463.34 304.333 463.583V470Z" fill="white"/>
<path d="M163 226C167.747 226 172.387 227.408 176.334 230.045C180.28 232.682 183.357 236.43 185.173 240.816C186.99 245.201 187.465 250.027 186.539 254.682C185.613 259.338 183.327 263.614 179.971 266.971C176.614 270.327 172.338 272.613 167.682 273.539C163.027 274.465 158.201 273.99 153.816 272.173C149.43 270.357 145.682 267.28 143.045 263.334C140.408 259.387 139 254.747 139 250C139 243.635 141.529 237.53 146.029 233.029C150.53 228.529 156.635 226 163 226V226ZM163 222C157.462 222 152.049 223.642 147.444 226.719C142.839 229.796 139.251 234.169 137.131 239.285C135.012 244.401 134.458 250.031 135.538 255.463C136.618 260.894 139.285 265.883 143.201 269.799C147.117 273.715 152.106 276.382 157.537 277.462C162.969 278.542 168.599 277.988 173.715 275.869C178.831 273.749 183.204 270.161 186.281 265.556C189.358 260.951 191 255.538 191 250C191 242.574 188.05 235.452 182.799 230.201C177.548 224.95 170.426 222 163 222V222Z" fill="white" fill-opacity="0.6"/>
<path d="M155 264C154.641 264 154.289 263.903 153.98 263.72C153.681 263.543 153.434 263.291 153.262 262.99C153.09 262.688 153 262.347 153 262V238C153 237.653 153.09 237.312 153.262 237.01C153.434 236.709 153.681 236.457 153.98 236.28C154.284 236.104 154.629 236.012 154.98 236.012C155.331 236.012 155.676 236.104 155.98 236.28L177.98 248.28C178.298 248.451 178.563 248.705 178.748 249.015C178.932 249.325 179.03 249.679 179.03 250.04C179.03 250.401 178.932 250.755 178.748 251.065C178.563 251.375 178.298 251.629 177.98 251.8L155.98 263.8C155.676 263.949 155.338 264.017 155 264V264ZM157 241.36V258.64L172.82 250L157 241.36Z" fill="white" fill-opacity="0.6"/>
</g>
<defs>
<filter id="filter0_b" x="-7" y="-7" width="340" height="514" filterUnits="userSpaceOnUse" color-interpolation-filters="sRGB">
<feFlood flood-opacity="0" result="BackgroundImageFix"/>
<feGaussianBlur in="BackgroundImage" stdDeviation="3.5"/>
<feComposite in2="SourceAlpha" operator="in" result="effect1_backgroundBlur"/>
<feBlend mode="normal" in="SourceGraphic" in2="effect1_backgroundBlur" result="shape"/>
</filter>
<linearGradient id="paint0_linear" x1="24.3621" y1="148" x2="263.98" y2="150.08" gradientUnits="userSpaceOnUse">
<stop stop-opacity="0"/>
<stop stop-opacity="0"/>
<stop offset="1"/>
</linearGradient>
<clipPath id="clip0">
<rect width="60.0157" height="15.1496" fill="white" transform="translate(27.9922 361.331)"/>
</clipPath>
<clipPath id="clip1">
<rect width="67" height="16" fill="white" transform="translate(86 464.811)"/>
</clipPath>
</defs>
</svg>
