<svg width="494" height="283" viewBox="0 0 494 283" fill="none" xmlns="http://www.w3.org/2000/svg">
<rect width="106" height="90" transform="translate(404 106) rotate(-90)" fill="url(#paint0_linear)"/>
<path d="M454.822 21.6639C455.814 21.4569 458.507 21.1317 459.262 21.7526C459.706 22.1178 459.262 24.0585 458.285 26.4088C458.241 26.5861 458.25 26.8966 458.641 26.7192C459.129 26.4975 461.127 23.9255 460.994 20.7326C460.905 20.3779 460.579 20.2659 460.505 20.2449C459.262 19.8901 456.732 19.7127 454.689 21.2204C454.547 21.5042 454.719 21.6343 454.822 21.6639Z" fill="white"/>
<path d="M427.03 20.8213C426.971 20.6735 426.959 20.3779 427.385 20.3779C432.624 23.5707 443.501 28.5373 457.486 22.4177C458.285 22.2404 458.378 23.0726 457.93 23.3933C446.165 31.8188 432.668 27.1183 427.03 20.8213Z" fill="white"/>
<path d="M432.019 35.3662C432.019 35.9163 431.952 36.4176 431.818 36.8701C431.688 37.3226 431.493 37.71 431.232 38.0322C430.972 38.3545 430.648 38.6035 430.261 38.7793C429.877 38.9551 429.432 39.043 428.928 39.043C428.397 39.043 427.937 38.9551 427.546 38.7793C427.159 38.6035 426.836 38.3545 426.579 38.0322C426.325 37.71 426.136 37.3226 426.013 36.8701C425.889 36.4144 425.827 35.9098 425.827 35.3564C425.827 34.8031 425.889 34.3018 426.013 33.8525C426.136 33.4001 426.327 33.0143 426.584 32.6953C426.841 32.3763 427.165 32.1305 427.556 31.958C427.946 31.7822 428.407 31.6943 428.938 31.6943C429.442 31.6943 429.885 31.7822 430.266 31.958C430.65 32.1305 430.972 32.3779 431.232 32.7002C431.493 33.0192 431.688 33.4049 431.818 33.8574C431.952 34.3066 432.019 34.8096 432.019 35.3662ZM426.789 35.3662C426.789 35.8122 426.831 36.2142 426.916 36.5723C427.001 36.9271 427.129 37.2298 427.302 37.4805C427.478 37.7279 427.699 37.9183 427.966 38.0518C428.236 38.182 428.557 38.2471 428.928 38.2471C429.299 38.2471 429.618 38.182 429.885 38.0518C430.155 37.9183 430.376 37.7279 430.549 37.4805C430.725 37.2298 430.853 36.9271 430.935 36.5723C431.016 36.2142 431.057 35.8122 431.057 35.3662C431.057 34.917 431.016 34.515 430.935 34.1602C430.853 33.8053 430.726 33.5059 430.554 33.2617C430.381 33.0143 430.161 32.8255 429.895 32.6953C429.628 32.5618 429.309 32.4951 428.938 32.4951C428.566 32.4951 428.246 32.5618 427.976 32.6953C427.705 32.8255 427.482 33.0143 427.307 33.2617C427.131 33.5059 427.001 33.8053 426.916 34.1602C426.831 34.515 426.789 34.917 426.789 35.3662ZM435.808 33.4863C435.902 33.4863 436.008 33.4912 436.125 33.501C436.242 33.5075 436.343 33.5189 436.428 33.5352L436.311 34.3555C436.219 34.3392 436.125 34.3262 436.027 34.3164C435.933 34.3034 435.843 34.2969 435.759 34.2969C435.554 34.2969 435.367 34.3392 435.197 34.4238C435.028 34.5052 434.882 34.624 434.758 34.7803C434.637 34.9333 434.543 35.1188 434.475 35.3369C434.41 35.5518 434.377 35.791 434.377 36.0547V38.9453H433.488V33.584H434.211L434.318 34.5654H434.357C434.439 34.4255 434.525 34.2904 434.616 34.1602C434.711 34.0299 434.815 33.916 434.929 33.8184C435.046 33.7174 435.176 33.6377 435.319 33.5791C435.463 33.5173 435.625 33.4863 435.808 33.4863ZM438.371 38.9453H437.482V33.584H438.371V38.9453ZM437.414 32.1338C437.414 31.9385 437.463 31.7969 437.561 31.709C437.661 31.6211 437.785 31.5771 437.932 31.5771C438.003 31.5771 438.07 31.5885 438.132 31.6113C438.197 31.6309 438.252 31.6634 438.298 31.709C438.347 31.7546 438.384 31.8132 438.41 31.8848C438.439 31.9531 438.454 32.0361 438.454 32.1338C438.454 32.3226 438.402 32.4642 438.298 32.5586C438.197 32.6497 438.075 32.6953 437.932 32.6953C437.785 32.6953 437.661 32.6497 437.561 32.5586C437.463 32.4674 437.414 32.3258 437.414 32.1338ZM444.201 33.584V34.1357L443.239 34.2676C443.33 34.3815 443.407 34.528 443.469 34.707C443.531 34.8828 443.562 35.083 443.562 35.3076C443.562 35.555 443.522 35.7845 443.444 35.9961C443.369 36.2044 443.254 36.3851 443.098 36.5381C442.945 36.6911 442.754 36.8115 442.526 36.8994C442.299 36.984 442.033 37.0264 441.73 37.0264C441.659 37.0264 441.587 37.0264 441.516 37.0264C441.444 37.0231 441.385 37.0166 441.34 37.0068C441.285 37.0394 441.229 37.0768 441.174 37.1191C441.122 37.1582 441.073 37.2038 441.027 37.2559C440.985 37.3079 440.949 37.3665 440.92 37.4316C440.894 37.4967 440.881 37.5684 440.881 37.6465C440.881 37.7344 440.9 37.806 440.939 37.8613C440.979 37.9134 441.031 37.9541 441.096 37.9834C441.164 38.0127 441.244 38.0322 441.335 38.042C441.426 38.0518 441.522 38.0566 441.623 38.0566H442.482C442.785 38.0566 443.041 38.0957 443.249 38.1738C443.457 38.2487 443.627 38.3512 443.757 38.4814C443.89 38.6117 443.986 38.7663 444.045 38.9453C444.104 39.1211 444.133 39.3083 444.133 39.5068C444.133 39.7933 444.079 40.0505 443.972 40.2783C443.868 40.5062 443.706 40.6982 443.488 40.8545C443.27 41.014 442.993 41.1361 442.658 41.2207C442.326 41.3053 441.934 41.3477 441.481 41.3477C441.133 41.3477 440.829 41.3135 440.568 41.2451C440.308 41.1768 440.091 41.0775 439.919 40.9473C439.746 40.8171 439.616 40.6592 439.528 40.4736C439.444 40.2913 439.401 40.0846 439.401 39.8535C439.401 39.6582 439.432 39.4857 439.494 39.3359C439.559 39.1895 439.646 39.0625 439.753 38.9551C439.86 38.8477 439.984 38.7598 440.124 38.6914C440.267 38.623 440.415 38.571 440.568 38.5352C440.432 38.4733 440.319 38.3757 440.231 38.2422C440.144 38.1087 440.1 37.9557 440.1 37.7832C440.1 37.5846 440.152 37.4137 440.256 37.2705C440.36 37.124 440.524 36.9824 440.749 36.8457C440.609 36.7871 440.48 36.7074 440.363 36.6064C440.249 36.5023 440.152 36.3851 440.07 36.2549C439.992 36.1214 439.93 35.9766 439.885 35.8203C439.842 35.6641 439.821 35.5029 439.821 35.3369C439.821 35.0472 439.862 34.7884 439.943 34.5605C440.025 34.3327 440.145 34.139 440.305 33.9795C440.464 33.82 440.663 33.6979 440.9 33.6133C441.138 33.5286 441.415 33.4863 441.73 33.4863C441.851 33.4863 441.975 33.4961 442.102 33.5156C442.232 33.5319 442.341 33.5547 442.429 33.584H444.201ZM440.241 39.8242C440.241 39.9447 440.262 40.057 440.305 40.1611C440.347 40.2653 440.415 40.3548 440.51 40.4297C440.607 40.5046 440.734 40.5632 440.891 40.6055C441.05 40.651 441.247 40.6738 441.481 40.6738C442.087 40.6738 442.539 40.5794 442.839 40.3906C443.142 40.2051 443.293 39.9365 443.293 39.585C443.293 39.4352 443.273 39.3132 443.234 39.2188C443.195 39.1243 443.13 39.0495 443.039 38.9941C442.951 38.9421 442.834 38.9062 442.688 38.8867C442.541 38.8672 442.362 38.8574 442.15 38.8574H441.291C441.177 38.8574 441.058 38.8704 440.935 38.8965C440.811 38.9225 440.697 38.9714 440.593 39.043C440.492 39.1146 440.407 39.2122 440.339 39.3359C440.274 39.4629 440.241 39.6257 440.241 39.8242ZM440.69 35.3076C440.69 35.682 440.778 35.9603 440.954 36.1426C441.13 36.3249 441.379 36.416 441.701 36.416C442.027 36.416 442.272 36.3265 442.438 36.1475C442.608 35.9652 442.692 35.6803 442.692 35.293C442.692 34.8926 442.606 34.598 442.434 34.4092C442.264 34.2204 442.017 34.126 441.691 34.126C441.369 34.126 441.122 34.2236 440.949 34.4189C440.777 34.6143 440.69 34.9105 440.69 35.3076ZM446.145 38.9453H445.256V33.584H446.145V38.9453ZM445.188 32.1338C445.188 31.9385 445.236 31.7969 445.334 31.709C445.435 31.6211 445.559 31.5771 445.705 31.5771C445.777 31.5771 445.843 31.5885 445.905 31.6113C445.97 31.6309 446.026 31.6634 446.071 31.709C446.12 31.7546 446.158 31.8132 446.184 31.8848C446.213 31.9531 446.228 32.0361 446.228 32.1338C446.228 32.3226 446.175 32.4642 446.071 32.5586C445.97 32.6497 445.848 32.6953 445.705 32.6953C445.559 32.6953 445.435 32.6497 445.334 32.5586C445.236 32.4674 445.188 32.3258 445.188 32.1338ZM451.193 38.9453V35.4932C451.193 35.07 451.107 34.7526 450.935 34.541C450.765 34.3294 450.498 34.2236 450.134 34.2236C449.87 34.2236 449.649 34.266 449.47 34.3506C449.291 34.4352 449.146 34.5605 449.035 34.7266C448.928 34.8926 448.85 35.096 448.801 35.3369C448.755 35.5778 448.732 35.8545 448.732 36.167V38.9453H447.844V33.584H448.566L448.693 34.3066H448.742C448.824 34.1667 448.92 34.0462 449.03 33.9453C449.144 33.8411 449.268 33.7549 449.401 33.6865C449.535 33.6182 449.676 33.5677 449.826 33.5352C449.976 33.5026 450.129 33.4863 450.285 33.4863C450.881 33.4863 451.328 33.6426 451.628 33.9551C451.931 34.2643 452.082 34.7607 452.082 35.4443V38.9453H451.193ZM456.755 38.9453L456.574 38.2031H456.535C456.428 38.3496 456.32 38.4766 456.213 38.584C456.105 38.6882 455.988 38.7744 455.861 38.8428C455.734 38.9111 455.593 38.9616 455.437 38.9941C455.28 39.0267 455.1 39.043 454.895 39.043C454.67 39.043 454.463 39.0104 454.274 38.9453C454.086 38.8835 453.921 38.7874 453.781 38.6572C453.645 38.5238 453.537 38.3577 453.459 38.1592C453.381 37.9574 453.342 37.7197 453.342 37.4463C453.342 36.9124 453.529 36.5023 453.903 36.2158C454.281 35.9294 454.854 35.7731 455.622 35.7471L456.521 35.7129V35.376C456.521 35.1579 456.496 34.9756 456.447 34.8291C456.402 34.6826 456.333 34.5654 456.242 34.4775C456.154 34.3864 456.044 34.3213 455.91 34.2822C455.78 34.2432 455.63 34.2236 455.461 34.2236C455.191 34.2236 454.938 34.2627 454.704 34.3408C454.473 34.4189 454.25 34.5133 454.035 34.624L453.723 33.9551C453.964 33.8249 454.232 33.7142 454.528 33.623C454.825 33.5319 455.135 33.4863 455.461 33.4863C455.793 33.4863 456.079 33.5205 456.32 33.5889C456.564 33.654 456.765 33.7598 456.921 33.9063C457.08 34.0495 457.199 34.2334 457.277 34.458C457.355 34.6826 457.395 34.9544 457.395 35.2734V38.9453L456.755 38.9453ZM455.124 38.3252C455.323 38.3252 455.507 38.2943 455.676 38.2324C455.845 38.1706 455.992 38.0778 456.115 37.9541C456.239 37.8271 456.335 37.6693 456.403 37.4805C456.475 37.2884 456.511 37.0638 456.511 36.8066V36.3232L455.812 36.3574C455.52 36.3704 455.274 36.403 455.075 36.4551C454.877 36.5072 454.717 36.5804 454.597 36.6748C454.479 36.766 454.395 36.8783 454.343 37.0117C454.291 37.1419 454.265 37.29 454.265 37.4561C454.265 37.7555 454.343 37.9753 454.499 38.1152C454.659 38.2552 454.867 38.3252 455.124 38.3252ZM459.934 38.9453H459.045V31.3477H459.934V38.9453Z" fill="white"/>
<g clip-path="url(#clip0)">
<rect width="219" height="494" transform="translate(494 64) rotate(90)" fill="url(#paint1_linear)"/>
<path d="M19 146.906C19 141.435 23.4349 137 28.9055 137H83.0945C88.5651 137 93 141.435 93 146.906V146.906C93 152.376 88.5651 156.811 83.0945 156.811H28.9055C23.4349 156.811 19 152.376 19 146.906V146.906Z" fill="#111111" fill-opacity="0.2"/>
<g clip-path="url(#clip1)">
<path d="M36.8511 146.044C36.8511 145.433 36.4178 144.921 35.8436 144.798C36.073 144.415 36.2138 143.973 36.2138 143.495C36.2138 142.089 35.0705 140.945 33.6646 140.945C32.6978 140.945 31.8668 141.491 31.4341 142.286C31.0013 141.491 30.1703 140.945 29.2035 140.945C27.7976 140.945 26.6543 142.089 26.6543 143.495C26.6543 144.069 26.8531 144.595 27.175 145.022C27.0141 145.139 26.8832 145.293 26.7927 145.471C26.7023 145.648 26.6549 145.844 26.6543 146.044V151.142C26.6543 151.845 27.226 152.417 27.9289 152.417H35.5765C36.2795 152.417 36.8511 151.845 36.8511 151.142V149.461L39.4004 150.736V146.274L36.8511 147.549V146.044ZM33.6646 142.22C34.3676 142.22 34.9392 142.792 34.9392 143.495C34.9392 144.197 34.3676 144.769 33.6646 144.769C32.9617 144.769 32.39 144.197 32.39 143.495C32.39 142.792 32.9617 142.22 33.6646 142.22ZM29.2035 142.22C29.9065 142.22 30.4781 142.792 30.4781 143.495C30.4781 144.197 29.9065 144.769 29.2035 144.769C28.5006 144.769 27.9289 144.197 27.9289 143.495C27.9289 142.792 28.5006 142.22 29.2035 142.22ZM27.9289 151.142V146.044H35.5765L35.5778 151.142H27.9289Z" fill="white"/>
<path d="M53.4394 142.566V143.59H50.3667V152.33H49.1035V143.59H46.0307V142.566H53.4394ZM54.8119 152.33V145.16H55.6654L55.8907 146.075C56.5189 145.465 57.2746 145.16 58.1577 145.16V146.212C57.3019 146.212 56.6077 146.515 56.0751 147.12V152.33H54.8119ZM59.0864 150.166C59.0864 148.695 60.056 147.96 61.9952 147.96C62.6188 147.96 63.2425 148.006 63.8661 148.097V147.421C63.8661 146.597 63.222 146.185 61.9337 146.185C61.1963 146.185 60.4406 146.298 59.6668 146.526V145.502C60.4406 145.274 61.1963 145.16 61.9337 145.16C64.0641 145.16 65.1294 145.902 65.1294 147.386V152.33H64.4192L63.9822 151.62C63.2675 152.093 62.4891 152.33 61.6469 152.33C59.9399 152.33 59.0864 151.609 59.0864 150.166ZM61.9952 148.984C60.8981 148.984 60.3496 149.371 60.3496 150.145C60.3496 150.919 60.782 151.306 61.6469 151.306C62.521 151.306 63.2607 151.074 63.8661 150.609V149.121C63.2425 149.03 62.6188 148.984 61.9952 148.984ZM68.5844 145.16V152.33H67.3212V145.16H68.5844ZM68.5844 142.566V143.761H67.3212V142.566H68.5844ZM72.1078 142.566V152.33H70.8446V142.566H72.1078ZM77.188 145.16C79.2274 145.16 80.2471 146.169 80.2471 148.185C80.2471 148.472 80.2266 148.779 80.1856 149.107H75.1532C75.1532 150.573 76.009 151.306 77.7206 151.306C78.5355 151.306 79.2593 151.215 79.892 151.033V152.057C79.2593 152.239 78.49 152.33 77.5841 152.33C75.1214 152.33 73.89 151.108 73.89 148.663C73.89 146.328 74.9893 145.16 77.188 145.16ZM75.1532 148.056H79.0317C79.0044 146.799 78.3898 146.171 77.188 146.171C75.9134 146.171 75.2352 146.799 75.1532 148.056ZM81.9473 152.33V145.16H82.8009L83.0262 146.075C83.6544 145.465 84.4101 145.16 85.2932 145.16V146.212C84.4374 146.212 83.7432 146.515 83.2106 147.12V152.33H81.9473Z" fill="white"/>
</g>
<path d="M28.9055 138.165H83.0945V135.835H28.9055V138.165ZM83.0945 155.646H28.9055V157.976H83.0945V155.646ZM28.9055 155.646C24.0785 155.646 20.1654 151.733 20.1654 146.906H17.8346C17.8346 153.02 22.7912 157.976 28.9055 157.976V155.646ZM91.8346 146.906C91.8346 151.733 87.9215 155.646 83.0945 155.646V157.976C89.2088 157.976 94.1654 153.02 94.1654 146.906H91.8346ZM83.0945 138.165C87.9215 138.165 91.8346 142.078 91.8346 146.906H94.1654C94.1654 140.791 89.2088 135.835 83.0945 135.835V138.165ZM28.9055 135.835C22.7912 135.835 17.8346 140.791 17.8346 146.906H20.1654C20.1654 142.078 24.0785 138.165 28.9055 138.165V135.835Z" fill="white"/>
<path d="M29.5957 168.846V171.092H25.5918V182.811H23.0039V171.092H19V168.846H29.5957ZM30.8262 182.811V168.846H33.4141V173.865C34.2214 172.993 35.2533 172.557 36.5098 172.557C38.9382 172.557 40.1523 173.82 40.1523 176.346V182.811H37.5645V176.346C37.5645 175.213 37.0013 174.646 35.875 174.646C35.0352 174.646 34.2148 174.982 33.4141 175.652V182.811H30.8262ZM46.9297 172.557C50.0417 172.557 51.5977 174.145 51.5977 177.322C51.5977 177.745 51.5684 178.169 51.5098 178.592H44.7031C44.7031 180.037 45.7643 180.76 47.8867 180.76C48.9219 180.76 49.957 180.662 50.9922 180.467V182.518C50.0872 182.713 48.987 182.811 47.6914 182.811C43.974 182.811 42.1152 181.062 42.1152 177.566C42.1152 174.227 43.7201 172.557 46.9297 172.557ZM44.7031 176.795H49.0781V176.717C49.0781 175.298 48.362 174.588 46.9297 174.588C45.5625 174.588 44.8203 175.324 44.7031 176.795ZM67.3496 168.846V171.072H60.748V174.588H67.0176V176.902H60.7188V182.811H58.1797V168.846H67.3496ZM71.4023 177.645C71.4023 179.786 72.2324 180.857 73.8926 180.857C75.5527 180.857 76.3828 179.786 76.3828 177.645C76.3828 175.555 75.5527 174.51 73.8926 174.51C72.2324 174.51 71.4023 175.555 71.4023 177.645ZM68.8145 177.684C68.8145 174.246 70.5072 172.527 73.8926 172.527C77.278 172.527 78.9707 174.246 78.9707 177.684C78.9707 181.115 77.278 182.83 73.8926 182.83C70.5202 182.83 68.8275 181.115 68.8145 177.684ZM80.9238 182.322V180.174C82.0632 180.63 83.3783 180.857 84.8691 180.857C85.9824 180.857 86.5391 180.499 86.5391 179.783C86.5391 179.1 86.1647 178.758 85.416 178.758H83.5605C81.4772 178.758 80.4355 177.732 80.4355 175.682C80.4355 173.533 81.9557 172.459 84.9961 172.459C86.2852 172.459 87.4993 172.654 88.6387 173.045V175.193C87.4993 174.738 86.2624 174.51 84.9277 174.51C83.528 174.51 82.8281 174.868 82.8281 175.584C82.8281 176.268 83.235 176.609 84.0488 176.609H85.709C87.9876 176.609 89.127 177.635 89.127 179.686C89.127 181.834 87.6751 182.908 84.7715 182.908C83.3457 182.908 82.0632 182.713 80.9238 182.322ZM90.7969 170.896H92.7109L93.1016 172.557H95.6797V174.607H93.3848V179.324C93.3848 180.281 93.7982 180.76 94.625 180.76H95.6797V182.811H93.375C91.6562 182.811 90.7969 181.889 90.7969 180.047V170.896ZM101.773 172.557C104.885 172.557 106.441 174.145 106.441 177.322C106.441 177.745 106.412 178.169 106.354 178.592H99.5469C99.5469 180.037 100.608 180.76 102.73 180.76C103.766 180.76 104.801 180.662 105.836 180.467V182.518C104.931 182.713 103.831 182.811 102.535 182.811C98.8177 182.811 96.959 181.062 96.959 177.566C96.959 174.227 98.5638 172.557 101.773 172.557ZM99.5469 176.795H103.922V176.717C103.922 175.298 103.206 174.588 101.773 174.588C100.406 174.588 99.6641 175.324 99.5469 176.795ZM108.385 182.811V172.557H110.387L110.709 173.865C111.607 172.993 112.558 172.557 113.561 172.557V174.646C112.597 174.646 111.734 175.047 110.973 175.848V182.811H108.385ZM115.025 182.322V180.174C116.165 180.63 117.48 180.857 118.971 180.857C120.084 180.857 120.641 180.499 120.641 179.783C120.641 179.1 120.266 178.758 119.518 178.758H117.662C115.579 178.758 114.537 177.732 114.537 175.682C114.537 173.533 116.057 172.459 119.098 172.459C120.387 172.459 121.601 172.654 122.74 173.045V175.193C121.601 174.738 120.364 174.51 119.029 174.51C117.63 174.51 116.93 174.868 116.93 175.584C116.93 176.268 117.337 176.609 118.15 176.609H119.811C122.089 176.609 123.229 177.635 123.229 179.686C123.229 181.834 121.777 182.908 118.873 182.908C117.447 182.908 116.165 182.713 115.025 182.322Z" fill="white"/>
<path d="M25.25 197.342L23.4727 200.943L19.5 201.518L22.375 204.322L21.6953 208.279L25.25 206.412L28.8047 208.279L28.125 204.322L31 201.521L27.0273 200.943L25.25 197.342Z" fill="#F39B13"/>
<path d="M37.7715 197.659C38.1543 197.659 38.5143 197.709 38.8516 197.81C39.1934 197.91 39.4919 198.06 39.7471 198.261C40.0068 198.461 40.2119 198.712 40.3623 199.013C40.5127 199.313 40.5879 199.664 40.5879 200.065C40.5879 200.371 40.5423 200.646 40.4512 200.893C40.36 201.139 40.2347 201.362 40.0752 201.562C39.9157 201.758 39.7266 201.936 39.5078 202.096C39.2891 202.251 39.0521 202.392 38.7969 202.52C39.0612 202.661 39.3187 202.818 39.5693 202.991C39.8245 203.164 40.0501 203.36 40.2461 203.579C40.4466 203.793 40.6061 204.035 40.7246 204.304C40.8477 204.573 40.9092 204.873 40.9092 205.206C40.9092 205.625 40.8317 206.006 40.6768 206.348C40.5264 206.685 40.3122 206.972 40.0342 207.209C39.7607 207.446 39.4303 207.628 39.043 207.756C38.6602 207.883 38.2363 207.947 37.7715 207.947C37.2702 207.947 36.8236 207.886 36.4316 207.763C36.0443 207.64 35.7161 207.464 35.4473 207.236C35.1829 207.004 34.9801 206.721 34.8389 206.389C34.7021 206.056 34.6338 205.68 34.6338 205.261C34.6338 204.919 34.6839 204.611 34.7842 204.338C34.889 204.064 35.028 203.818 35.2012 203.6C35.3743 203.381 35.5794 203.187 35.8164 203.019C36.0534 202.85 36.304 202.702 36.5684 202.574C36.3451 202.433 36.1354 202.28 35.9395 202.116C35.7435 201.948 35.5726 201.761 35.4268 201.556C35.2855 201.351 35.1715 201.125 35.085 200.879C35.0029 200.628 34.9619 200.353 34.9619 200.052C34.9619 199.655 35.0371 199.309 35.1875 199.013C35.3424 198.712 35.5498 198.461 35.8096 198.261C36.0693 198.06 36.3678 197.91 36.7051 197.81C37.0469 197.709 37.4023 197.659 37.7715 197.659ZM35.8574 205.274C35.8574 205.516 35.8939 205.739 35.9668 205.944C36.0397 206.145 36.1536 206.318 36.3086 206.464C36.4635 206.605 36.6595 206.717 36.8965 206.799C37.1335 206.876 37.416 206.915 37.7441 206.915C38.0632 206.915 38.3434 206.876 38.585 206.799C38.8311 206.717 39.0361 206.603 39.2002 206.457C39.3643 206.307 39.4873 206.127 39.5693 205.917C39.6514 205.707 39.6924 205.475 39.6924 205.22C39.6924 204.983 39.6468 204.769 39.5557 204.577C39.4691 204.386 39.3415 204.208 39.1729 204.044C39.0088 203.88 38.8105 203.725 38.5781 203.579C38.3457 203.433 38.0859 203.29 37.7988 203.148L37.5938 203.053C37.0195 203.326 36.5866 203.641 36.2949 203.996C36.0033 204.347 35.8574 204.773 35.8574 205.274ZM37.7578 198.698C37.2747 198.698 36.8896 198.819 36.6025 199.061C36.32 199.302 36.1787 199.653 36.1787 200.113C36.1787 200.373 36.2174 200.596 36.2949 200.783C36.377 200.97 36.4886 201.136 36.6299 201.282C36.7712 201.428 36.9398 201.56 37.1357 201.679C37.3363 201.793 37.5527 201.904 37.7852 202.014C38.0039 201.913 38.209 201.804 38.4004 201.686C38.5964 201.567 38.765 201.433 38.9062 201.282C39.0521 201.132 39.166 200.961 39.248 200.77C39.3301 200.578 39.3711 200.359 39.3711 200.113C39.3711 199.653 39.2275 199.302 38.9404 199.061C38.6533 198.819 38.2591 198.698 37.7578 198.698ZM42.625 207.052C42.625 206.879 42.6478 206.733 42.6934 206.614C42.7389 206.491 42.8005 206.393 42.8779 206.32C42.9554 206.243 43.0465 206.188 43.1514 206.156C43.2562 206.12 43.3701 206.102 43.4932 206.102C43.6117 206.102 43.7233 206.12 43.8281 206.156C43.9375 206.188 44.0309 206.243 44.1084 206.32C44.1859 206.393 44.2474 206.491 44.293 206.614C44.3385 206.733 44.3613 206.879 44.3613 207.052C44.3613 207.22 44.3385 207.366 44.293 207.489C44.2474 207.608 44.1859 207.706 44.1084 207.783C44.0309 207.861 43.9375 207.918 43.8281 207.954C43.7233 207.991 43.6117 208.009 43.4932 208.009C43.3701 208.009 43.2562 207.991 43.1514 207.954C43.0465 207.918 42.9554 207.861 42.8779 207.783C42.8005 207.706 42.7389 207.608 42.6934 207.489C42.6478 207.366 42.625 207.22 42.625 207.052ZM52.4072 202.082C52.4072 202.561 52.3822 203.039 52.332 203.518C52.2865 203.992 52.2021 204.445 52.0791 204.878C51.9606 205.311 51.7965 205.716 51.5869 206.095C51.3773 206.468 51.1107 206.792 50.7871 207.065C50.4635 207.339 50.0762 207.555 49.625 207.715C49.1738 207.87 48.6452 207.947 48.0391 207.947C47.9525 207.947 47.8568 207.945 47.752 207.94C47.6471 207.936 47.5423 207.927 47.4375 207.913C47.3327 207.904 47.2301 207.893 47.1299 207.879C47.0296 207.865 46.9408 207.847 46.8633 207.824V206.758C47.0228 206.817 47.2028 206.86 47.4033 206.888C47.6038 206.915 47.8021 206.929 47.998 206.929C48.6133 206.929 49.1191 206.822 49.5156 206.607C49.9121 206.393 50.2266 206.104 50.459 205.739C50.6914 205.37 50.8555 204.942 50.9512 204.454C51.0514 203.966 51.113 203.451 51.1357 202.909H51.0469C50.9557 203.073 50.8464 203.226 50.7188 203.367C50.5911 203.508 50.4408 203.632 50.2676 203.736C50.0944 203.841 49.8984 203.923 49.6797 203.982C49.4609 204.042 49.2171 204.071 48.9482 204.071C48.5153 204.071 48.1234 204.005 47.7725 203.873C47.4215 203.736 47.123 203.538 46.877 203.278C46.6309 203.019 46.4395 202.702 46.3027 202.328C46.1706 201.95 46.1045 201.519 46.1045 201.036C46.1045 200.517 46.1751 200.049 46.3164 199.635C46.4622 199.215 46.665 198.862 46.9248 198.575C47.1891 198.284 47.5081 198.06 47.8818 197.905C48.2601 197.75 48.6816 197.673 49.1465 197.673C49.6068 197.673 50.0352 197.762 50.4316 197.939C50.8281 198.117 51.1722 198.388 51.4639 198.753C51.7555 199.118 51.9857 199.578 52.1543 200.134C52.3229 200.685 52.4072 201.335 52.4072 202.082ZM49.1602 198.726C48.8867 198.726 48.6361 198.771 48.4082 198.862C48.1849 198.953 47.9912 199.095 47.8271 199.286C47.6631 199.478 47.5355 199.719 47.4443 200.011C47.3577 200.298 47.3145 200.64 47.3145 201.036C47.3145 201.355 47.3509 201.642 47.4238 201.897C47.5013 202.148 47.6152 202.362 47.7656 202.54C47.916 202.718 48.1029 202.854 48.3262 202.95C48.554 203.046 48.8184 203.094 49.1191 203.094C49.429 203.094 49.7093 203.041 49.96 202.937C50.2106 202.827 50.4248 202.688 50.6025 202.52C50.7803 202.346 50.917 202.15 51.0127 201.932C51.113 201.713 51.1631 201.494 51.1631 201.275C51.1631 200.97 51.1198 200.667 51.0332 200.366C50.9512 200.061 50.8258 199.787 50.6572 199.546C50.4932 199.3 50.2858 199.102 50.0352 198.951C49.7845 198.801 49.4928 198.726 49.1602 198.726Z" fill="white"/>
<path d="M58.1523 198.035V207.811H56.8877V198.035H58.1523ZM60.6885 207.811V198.035H62.2949L65.8838 206.19L69.4043 198.035H70.9424V207.811H69.8145V199.792L66.3418 207.811H65.3438L61.8164 199.792V207.811H60.6885ZM76.8213 206.785C79.2139 206.785 80.4102 205.409 80.4102 202.656C80.4102 200.259 79.2139 199.061 76.8213 199.061H74.5312V206.785H76.8213ZM73.2666 207.811V198.035H76.8213C80.057 198.035 81.6748 199.576 81.6748 202.656C81.6748 206.092 80.057 207.811 76.8213 207.811H73.2666ZM84.6484 206.56C85.0632 206.692 85.5667 206.758 86.1592 206.758C87.7542 206.758 88.5518 205.849 88.5518 204.03C88.5518 202.494 87.8294 201.727 86.3848 201.727C85.7285 201.727 85.1497 201.85 84.6484 202.096V206.56ZM83.3838 198.035H84.6484V200.975C85.1908 200.747 85.7718 200.633 86.3916 200.633C88.6611 200.633 89.7959 201.781 89.7959 204.078C89.7959 206.566 88.6042 207.811 86.2207 207.811C85.1908 207.811 84.2451 207.713 83.3838 207.517V198.035Z" fill="white"/>
<path d="M20.415 231.811L23.9697 223.607H19.376V221.83H26.2666V223.156L22.623 231.811H20.415ZM37.0811 229.035C37.0811 229.482 37.0036 229.885 36.8486 230.245C36.6982 230.601 36.4749 230.906 36.1787 231.161C35.887 231.412 35.527 231.605 35.0986 231.742C34.6748 231.879 34.1872 231.947 33.6357 231.947C33.1527 231.947 32.6855 231.897 32.2344 231.797C31.7878 231.697 31.373 231.546 30.9902 231.346V229.377C31.209 229.482 31.43 229.584 31.6533 229.685C31.8766 229.78 32.1022 229.867 32.3301 229.944C32.5625 230.022 32.7926 230.083 33.0205 230.129C33.2529 230.174 33.4831 230.197 33.7109 230.197C33.9434 230.197 34.1416 230.172 34.3057 230.122C34.4743 230.067 34.6087 229.994 34.709 229.903C34.8138 229.808 34.889 229.696 34.9346 229.568C34.9847 229.436 35.0098 229.293 35.0098 229.138C35.0098 228.951 34.9688 228.787 34.8867 228.646C34.8092 228.5 34.6976 228.365 34.5518 228.242C34.4105 228.115 34.2373 227.992 34.0322 227.873C33.8317 227.755 33.6061 227.629 33.3555 227.497C33.1458 227.388 32.9111 227.256 32.6514 227.101C32.3916 226.946 32.1455 226.754 31.9131 226.526C31.6852 226.294 31.4938 226.016 31.3389 225.692C31.1839 225.364 31.1064 224.972 31.1064 224.517C31.1064 224.07 31.1794 223.671 31.3252 223.32C31.4756 222.965 31.6875 222.666 31.9609 222.425C32.2344 222.179 32.5648 221.992 32.9521 221.864C33.3441 221.737 33.7816 221.673 34.2646 221.673C34.5062 221.673 34.7409 221.689 34.9688 221.721C35.2012 221.753 35.429 221.798 35.6523 221.857C35.8802 221.917 36.1081 221.99 36.3359 222.076C36.5638 222.163 36.7985 222.263 37.04 222.377L36.3564 224.024C36.1514 223.929 35.96 223.844 35.7822 223.771C35.6045 223.699 35.4313 223.637 35.2627 223.587C35.0941 223.537 34.9277 223.5 34.7637 223.478C34.6042 223.45 34.4424 223.437 34.2783 223.437C33.9229 223.437 33.6494 223.532 33.458 223.724C33.2712 223.91 33.1777 224.161 33.1777 224.476C33.1777 224.644 33.2051 224.795 33.2598 224.927C33.319 225.054 33.4102 225.175 33.5332 225.289C33.6608 225.403 33.8226 225.519 34.0186 225.638C34.2191 225.756 34.4606 225.891 34.7432 226.041C35.085 226.223 35.3994 226.41 35.6865 226.602C35.9736 226.788 36.2197 226.998 36.4248 227.23C36.6344 227.458 36.7962 227.718 36.9102 228.01C37.0241 228.301 37.0811 228.643 37.0811 229.035ZM41.873 225.508C41.5039 225.508 41.1963 225.638 40.9502 225.897C40.7087 226.157 40.5697 226.565 40.5332 227.121H43.1924C43.1878 226.889 43.1582 226.674 43.1035 226.479C43.0488 226.283 42.9668 226.114 42.8574 225.973C42.748 225.827 42.6113 225.713 42.4473 225.631C42.2832 225.549 42.0918 225.508 41.873 225.508ZM42.1396 231.947C41.5928 231.947 41.0892 231.868 40.6289 231.708C40.1686 231.549 39.7721 231.309 39.4395 230.99C39.1068 230.667 38.847 230.261 38.6602 229.773C38.4779 229.281 38.3867 228.705 38.3867 228.044C38.3867 227.374 38.471 226.788 38.6396 226.287C38.8083 225.786 39.043 225.369 39.3438 225.036C39.6491 224.699 40.0137 224.446 40.4375 224.277C40.8659 224.109 41.3398 224.024 41.8594 224.024C42.3652 224.024 42.821 224.102 43.2266 224.257C43.6367 224.407 43.9831 224.631 44.2656 224.927C44.5527 225.223 44.7715 225.588 44.9219 226.021C45.0768 226.449 45.1543 226.941 45.1543 227.497V228.509H40.4922C40.5013 228.8 40.5469 229.065 40.6289 229.302C40.7155 229.534 40.834 229.732 40.9844 229.896C41.1393 230.056 41.3239 230.179 41.5381 230.266C41.7568 230.352 42.0052 230.396 42.2832 230.396C42.5156 230.396 42.7344 230.384 42.9395 230.361C43.1491 230.334 43.3519 230.295 43.5479 230.245C43.7438 230.195 43.9375 230.133 44.1289 230.061C44.3203 229.983 44.5163 229.894 44.7168 229.794V231.407C44.5345 231.503 44.3499 231.585 44.1631 231.653C43.9808 231.717 43.7871 231.772 43.582 231.817C43.377 231.863 43.1559 231.895 42.9189 231.913C42.682 231.936 42.4222 231.947 42.1396 231.947ZM51.3545 231.811L50.9512 230.771H50.8896C50.7393 230.977 50.5889 231.154 50.4385 231.305C50.2881 231.451 50.124 231.571 49.9463 231.667C49.7686 231.763 49.568 231.833 49.3447 231.879C49.126 231.924 48.8708 231.947 48.5791 231.947C48.2692 231.947 47.9821 231.899 47.7178 231.804C47.4535 231.703 47.2233 231.555 47.0273 231.359C46.8359 231.159 46.6855 230.908 46.5762 230.607C46.4668 230.302 46.4121 229.942 46.4121 229.527C46.4121 228.716 46.6719 228.119 47.1914 227.736C47.7109 227.349 48.488 227.135 49.5225 227.094L50.7393 227.053V226.479C50.7393 226.164 50.6481 225.932 50.4658 225.781C50.2835 225.631 50.0283 225.556 49.7002 225.556C49.3721 225.556 49.0508 225.604 48.7363 225.699C48.4264 225.795 48.1143 225.923 47.7998 226.082L47.123 224.701C47.5059 224.487 47.9297 224.318 48.3945 224.195C48.8594 224.072 49.347 224.011 49.8574 224.011C50.8099 224.011 51.5391 224.234 52.0449 224.681C52.5553 225.127 52.8105 225.806 52.8105 226.718V231.811H51.3545ZM50.7393 228.27L50.0488 228.297C49.7708 228.306 49.5361 228.342 49.3447 228.406C49.1533 228.47 48.9984 228.557 48.8799 228.666C48.766 228.771 48.6816 228.898 48.627 229.049C48.5768 229.195 48.5518 229.359 48.5518 229.541C48.5518 229.86 48.6292 230.088 48.7842 230.225C48.9391 230.357 49.1419 230.423 49.3926 230.423C49.584 230.423 49.7617 230.391 49.9258 230.327C50.0898 230.259 50.2311 230.161 50.3496 230.033C50.4727 229.901 50.5684 229.742 50.6367 229.555C50.7051 229.363 50.7393 229.145 50.7393 228.898V228.27ZM60.0498 229.541C60.0498 229.942 59.9769 230.293 59.8311 230.594C59.6852 230.895 59.4779 231.145 59.209 231.346C58.9401 231.546 58.6143 231.697 58.2314 231.797C57.8486 231.897 57.4202 231.947 56.9463 231.947C56.6956 231.947 56.4632 231.938 56.249 231.92C56.0348 231.906 55.832 231.881 55.6406 231.845C55.4492 231.808 55.2646 231.763 55.0869 231.708C54.9092 231.653 54.7292 231.585 54.5469 231.503V229.78C54.7383 229.876 54.9388 229.963 55.1484 230.04C55.3626 230.118 55.5745 230.186 55.7842 230.245C55.9938 230.3 56.1966 230.343 56.3926 230.375C56.5931 230.407 56.7777 230.423 56.9463 230.423C57.1331 230.423 57.2926 230.407 57.4248 230.375C57.557 230.339 57.6641 230.291 57.7461 230.231C57.8327 230.168 57.8942 230.095 57.9307 230.013C57.9717 229.926 57.9922 229.835 57.9922 229.739C57.9922 229.644 57.9762 229.559 57.9443 229.486C57.917 229.409 57.8509 229.329 57.7461 229.247C57.6413 229.16 57.4863 229.065 57.2812 228.96C57.0807 228.851 56.8096 228.718 56.4678 228.563C56.1351 228.413 55.8457 228.265 55.5996 228.119C55.3581 227.969 55.1576 227.802 54.998 227.62C54.8431 227.438 54.7269 227.23 54.6494 226.998C54.5719 226.761 54.5332 226.481 54.5332 226.157C54.5332 225.802 54.6016 225.492 54.7383 225.228C54.875 224.959 55.0687 224.735 55.3193 224.558C55.57 224.38 55.8708 224.248 56.2217 224.161C56.5771 224.07 56.9714 224.024 57.4043 224.024C57.86 224.024 58.293 224.077 58.7031 224.182C59.1133 224.286 59.5348 224.444 59.9678 224.653L59.3389 226.13C58.9925 225.966 58.6621 225.831 58.3477 225.727C58.0332 225.622 57.7188 225.569 57.4043 225.569C57.1217 225.569 56.9167 225.619 56.7891 225.72C56.666 225.82 56.6045 225.957 56.6045 226.13C56.6045 226.221 56.6204 226.303 56.6523 226.376C56.6842 226.444 56.748 226.517 56.8438 226.595C56.9395 226.668 57.0739 226.75 57.2471 226.841C57.4202 226.927 57.6458 227.035 57.9238 227.162C58.2474 227.303 58.5391 227.445 58.7988 227.586C59.0586 227.723 59.2819 227.88 59.4688 228.058C59.6556 228.235 59.7992 228.443 59.8994 228.68C59.9997 228.917 60.0498 229.204 60.0498 229.541ZM63.4336 227.976C63.4336 228.737 63.5407 229.311 63.7549 229.698C63.9691 230.081 64.3177 230.272 64.8008 230.272C65.2793 230.272 65.6257 230.079 65.8398 229.691C66.054 229.304 66.1611 228.732 66.1611 227.976C66.1611 227.215 66.054 226.647 65.8398 226.273C65.6257 225.895 65.2747 225.706 64.7871 225.706C64.3086 225.706 63.9622 225.895 63.748 226.273C63.5384 226.647 63.4336 227.215 63.4336 227.976ZM68.2871 227.976C68.2871 228.614 68.2051 229.179 68.041 229.671C67.8815 230.163 67.6491 230.578 67.3438 230.915C67.043 231.252 66.6738 231.51 66.2363 231.688C65.8034 231.861 65.3158 231.947 64.7734 231.947C64.2676 231.947 63.8027 231.861 63.3789 231.688C62.9551 231.51 62.5882 231.252 62.2783 230.915C61.973 230.578 61.7337 230.163 61.5605 229.671C61.3874 229.179 61.3008 228.614 61.3008 227.976C61.3008 227.342 61.3805 226.779 61.54 226.287C61.7041 225.795 61.9365 225.382 62.2373 225.05C62.5426 224.713 62.9118 224.457 63.3447 224.284C63.7777 224.111 64.2676 224.024 64.8145 224.024C65.3203 224.024 65.7852 224.111 66.209 224.284C66.6328 224.457 66.9974 224.713 67.3027 225.05C67.6126 225.382 67.8542 225.795 68.0273 226.287C68.2005 226.779 68.2871 227.342 68.2871 227.976ZM75.1846 229.541C75.1846 229.942 75.1117 230.293 74.9658 230.594C74.82 230.895 74.6126 231.145 74.3438 231.346C74.0749 231.546 73.749 231.697 73.3662 231.797C72.9834 231.897 72.555 231.947 72.0811 231.947C71.8304 231.947 71.598 231.938 71.3838 231.92C71.1696 231.906 70.9668 231.881 70.7754 231.845C70.584 231.808 70.3994 231.763 70.2217 231.708C70.0439 231.653 69.8639 231.585 69.6816 231.503V229.78C69.873 229.876 70.0736 229.963 70.2832 230.04C70.4974 230.118 70.7093 230.186 70.9189 230.245C71.1286 230.3 71.3314 230.343 71.5273 230.375C71.7279 230.407 71.9124 230.423 72.0811 230.423C72.2679 230.423 72.4274 230.407 72.5596 230.375C72.6917 230.339 72.7988 230.291 72.8809 230.231C72.9674 230.168 73.029 230.095 73.0654 230.013C73.1064 229.926 73.127 229.835 73.127 229.739C73.127 229.644 73.111 229.559 73.0791 229.486C73.0518 229.409 72.9857 229.329 72.8809 229.247C72.776 229.16 72.6211 229.065 72.416 228.96C72.2155 228.851 71.9443 228.718 71.6025 228.563C71.2699 228.413 70.9805 228.265 70.7344 228.119C70.4928 227.969 70.2923 227.802 70.1328 227.62C69.9779 227.438 69.8617 227.23 69.7842 226.998C69.7067 226.761 69.668 226.481 69.668 226.157C69.668 225.802 69.7363 225.492 69.873 225.228C70.0098 224.959 70.2035 224.735 70.4541 224.558C70.7048 224.38 71.0055 224.248 71.3564 224.161C71.7119 224.07 72.1061 224.024 72.5391 224.024C72.9948 224.024 73.4277 224.077 73.8379 224.182C74.248 224.286 74.6696 224.444 75.1025 224.653L74.4736 226.13C74.1273 225.966 73.7969 225.831 73.4824 225.727C73.168 225.622 72.8535 225.569 72.5391 225.569C72.2565 225.569 72.0514 225.619 71.9238 225.72C71.8008 225.82 71.7393 225.957 71.7393 226.13C71.7393 226.221 71.7552 226.303 71.7871 226.376C71.819 226.444 71.8828 226.517 71.9785 226.595C72.0742 226.668 72.2087 226.75 72.3818 226.841C72.555 226.927 72.7806 227.035 73.0586 227.162C73.3822 227.303 73.6738 227.445 73.9336 227.586C74.1934 227.723 74.4167 227.88 74.6035 228.058C74.7904 228.235 74.9339 228.443 75.0342 228.68C75.1344 228.917 75.1846 229.204 75.1846 229.541ZM83.4629 231.811H81.3779V227.347C81.3779 226.795 81.2936 226.383 81.125 226.109C80.9609 225.831 80.6966 225.692 80.332 225.692C80.0586 225.692 79.8307 225.747 79.6484 225.856C79.4661 225.966 79.3203 226.128 79.2109 226.342C79.1061 226.556 79.0309 226.82 78.9854 227.135C78.9398 227.449 78.917 227.809 78.917 228.215V231.811H76.832V224.168H78.4248L78.7051 225.146H78.8213C78.9307 224.95 79.0628 224.781 79.2178 224.64C79.3773 224.498 79.5505 224.382 79.7373 224.291C79.9242 224.2 80.1224 224.134 80.332 224.093C80.5417 224.047 80.7559 224.024 80.9746 224.024C81.3483 224.024 81.6878 224.079 81.9932 224.188C82.2985 224.293 82.5605 224.46 82.7793 224.688C82.998 224.915 83.1667 225.207 83.2852 225.562C83.4036 225.913 83.4629 226.335 83.4629 226.827V231.811Z" fill="white"/>
<path d="M100.267 231.811H93.5605V230.341L95.9121 227.805C96.2083 227.486 96.4772 227.192 96.7188 226.923C96.9603 226.654 97.1676 226.392 97.3408 226.137C97.514 225.882 97.6484 225.622 97.7441 225.357C97.8398 225.093 97.8877 224.808 97.8877 224.503C97.8877 224.166 97.7852 223.904 97.5801 223.717C97.3796 223.53 97.1084 223.437 96.7666 223.437C96.4066 223.437 96.0602 223.525 95.7275 223.703C95.3949 223.881 95.0462 224.134 94.6816 224.462L93.5332 223.102C93.7383 222.915 93.9525 222.737 94.1758 222.568C94.3991 222.395 94.6452 222.243 94.9141 222.11C95.1829 221.978 95.4792 221.873 95.8027 221.796C96.1263 221.714 96.4886 221.673 96.8896 221.673C97.3682 221.673 97.7965 221.739 98.1748 221.871C98.5576 222.003 98.8835 222.192 99.1523 222.438C99.4212 222.68 99.6263 222.974 99.7676 223.32C99.9134 223.667 99.9863 224.056 99.9863 224.489C99.9863 224.881 99.918 225.257 99.7812 225.617C99.6445 225.973 99.4577 226.324 99.2207 226.67C98.9837 227.012 98.708 227.354 98.3936 227.695C98.0837 228.033 97.751 228.377 97.3955 228.728L96.1924 229.938V230.033H100.267V231.811ZM107.991 226.813C107.991 227.62 107.927 228.34 107.8 228.974C107.677 229.607 107.476 230.145 107.198 230.587C106.925 231.029 106.569 231.366 106.132 231.599C105.699 231.831 105.175 231.947 104.56 231.947C103.981 231.947 103.477 231.831 103.049 231.599C102.62 231.366 102.265 231.029 101.982 230.587C101.7 230.145 101.488 229.607 101.347 228.974C101.21 228.34 101.142 227.62 101.142 226.813C101.142 226.007 101.203 225.285 101.326 224.646C101.454 224.008 101.654 223.468 101.928 223.026C102.201 222.584 102.554 222.247 102.987 222.015C103.42 221.778 103.944 221.659 104.56 221.659C105.134 221.659 105.635 221.775 106.063 222.008C106.492 222.24 106.85 222.577 107.137 223.02C107.424 223.462 107.638 224.002 107.779 224.64C107.921 225.278 107.991 226.002 107.991 226.813ZM103.247 226.813C103.247 227.953 103.345 228.81 103.541 229.384C103.737 229.958 104.076 230.245 104.56 230.245C105.034 230.245 105.373 229.96 105.578 229.391C105.788 228.821 105.893 227.962 105.893 226.813C105.893 225.67 105.788 224.811 105.578 224.236C105.373 223.658 105.034 223.368 104.56 223.368C104.318 223.368 104.113 223.441 103.944 223.587C103.78 223.733 103.646 223.949 103.541 224.236C103.436 224.523 103.361 224.883 103.315 225.316C103.27 225.745 103.247 226.244 103.247 226.813ZM114.007 231.811H111.895V226.027C111.895 225.909 111.895 225.768 111.895 225.604C111.899 225.435 111.904 225.262 111.908 225.084C111.917 224.902 111.924 224.719 111.929 224.537C111.938 224.355 111.945 224.188 111.949 224.038C111.926 224.065 111.888 224.106 111.833 224.161C111.778 224.216 111.717 224.277 111.648 224.346C111.58 224.41 111.509 224.476 111.437 224.544C111.364 224.612 111.293 224.674 111.225 224.729L110.076 225.651L109.051 224.38L112.271 221.816H114.007V231.811ZM123.413 226.813C123.413 227.62 123.349 228.34 123.222 228.974C123.099 229.607 122.898 230.145 122.62 230.587C122.347 231.029 121.991 231.366 121.554 231.599C121.121 231.831 120.597 231.947 119.981 231.947C119.403 231.947 118.899 231.831 118.471 231.599C118.042 231.366 117.687 231.029 117.404 230.587C117.122 230.145 116.91 229.607 116.769 228.974C116.632 228.34 116.563 227.62 116.563 226.813C116.563 226.007 116.625 225.285 116.748 224.646C116.876 224.008 117.076 223.468 117.35 223.026C117.623 222.584 117.976 222.247 118.409 222.015C118.842 221.778 119.366 221.659 119.981 221.659C120.556 221.659 121.057 221.775 121.485 222.008C121.914 222.24 122.271 222.577 122.559 223.02C122.846 223.462 123.06 224.002 123.201 224.64C123.342 225.278 123.413 226.002 123.413 226.813ZM118.669 226.813C118.669 227.953 118.767 228.81 118.963 229.384C119.159 229.958 119.498 230.245 119.981 230.245C120.455 230.245 120.795 229.96 121 229.391C121.21 228.821 121.314 227.962 121.314 226.813C121.314 225.67 121.21 224.811 121 224.236C120.795 223.658 120.455 223.368 119.981 223.368C119.74 223.368 119.535 223.441 119.366 223.587C119.202 223.733 119.068 223.949 118.963 224.236C118.858 224.523 118.783 224.883 118.737 225.316C118.692 225.745 118.669 226.244 118.669 226.813Z" fill="white"/>
<path d="M140.939 223.87C140.591 223.87 140.275 223.937 139.992 224.07C139.709 224.201 139.466 224.389 139.265 224.637C139.066 224.884 138.911 225.185 138.801 225.54C138.693 225.895 138.64 226.295 138.64 226.741C138.64 227.2 138.687 227.609 138.781 227.967C138.879 228.322 139.024 228.621 139.216 228.865C139.408 229.109 139.647 229.295 139.934 229.422C140.22 229.549 140.555 229.612 140.939 229.612C141.229 229.612 141.504 229.585 141.765 229.529C142.025 229.471 142.282 229.404 142.536 229.329V230.12C142.409 230.169 142.282 230.213 142.155 230.252C142.028 230.288 141.895 230.317 141.755 230.34C141.618 230.363 141.47 230.379 141.311 230.389C141.154 230.402 140.98 230.408 140.788 230.408C140.254 230.408 139.792 230.32 139.401 230.145C139.011 229.969 138.687 229.72 138.43 229.397C138.176 229.075 137.987 228.688 137.863 228.235C137.74 227.783 137.678 227.282 137.678 226.731C137.678 226.191 137.748 225.696 137.888 225.247C138.031 224.798 138.239 224.412 138.513 224.09C138.789 223.768 139.131 223.517 139.538 223.338C139.945 223.159 140.412 223.069 140.939 223.069C141.291 223.069 141.626 223.105 141.945 223.177C142.264 223.248 142.552 223.353 142.81 223.489L142.429 224.251C142.224 224.147 142.001 224.057 141.76 223.982C141.519 223.908 141.245 223.87 140.939 223.87ZM146.77 223.87C146.421 223.87 146.105 223.937 145.822 224.07C145.539 224.201 145.297 224.389 145.095 224.637C144.896 224.884 144.742 225.185 144.631 225.54C144.523 225.895 144.47 226.295 144.47 226.741C144.47 227.2 144.517 227.609 144.611 227.967C144.709 228.322 144.854 228.621 145.046 228.865C145.238 229.109 145.477 229.295 145.764 229.422C146.05 229.549 146.385 229.612 146.77 229.612C147.059 229.612 147.334 229.585 147.595 229.529C147.855 229.471 148.112 229.404 148.366 229.329V230.12C148.239 230.169 148.112 230.213 147.985 230.252C147.858 230.288 147.725 230.317 147.585 230.34C147.448 230.363 147.3 230.379 147.141 230.389C146.984 230.402 146.81 230.408 146.618 230.408C146.084 230.408 145.622 230.32 145.231 230.145C144.841 229.969 144.517 229.72 144.26 229.397C144.006 229.075 143.817 228.688 143.693 228.235C143.57 227.783 143.508 227.282 143.508 226.731C143.508 226.191 143.578 225.696 143.718 225.247C143.861 224.798 144.069 224.412 144.343 224.09C144.619 223.768 144.961 223.517 145.368 223.338C145.775 223.159 146.242 223.069 146.77 223.069C147.121 223.069 147.456 223.105 147.775 223.177C148.094 223.248 148.382 223.353 148.64 223.489L148.259 224.251C148.054 224.147 147.831 224.057 147.59 223.982C147.349 223.908 147.076 223.87 146.77 223.87Z" fill="white"/>
<path d="M135 220.811H151V218.811H135V220.811ZM153 222.811V230.811H155V222.811H153ZM151 232.811H135V234.811H151V232.811ZM133 230.811V222.811H131V230.811H133ZM135 232.811C133.895 232.811 133 231.915 133 230.811H131C131 233.02 132.791 234.811 135 234.811V232.811ZM153 230.811C153 231.915 152.105 232.811 151 232.811V234.811C153.209 234.811 155 233.02 155 230.811H153ZM151 220.811C152.105 220.811 153 221.706 153 222.811H155C155 220.601 153.209 218.811 151 218.811V220.811ZM135 218.811C132.791 218.811 131 220.601 131 222.811H133C133 221.706 133.895 220.811 135 220.811V218.811Z" fill="white"/>
<path d="M172.297 225.262C172.297 225.558 172.251 225.843 172.16 226.116C172.072 226.39 171.926 226.632 171.721 226.844C171.516 227.052 171.244 227.22 170.905 227.347C170.57 227.47 170.155 227.532 169.66 227.532H168.928V230.311H168.02V223.172H169.787C170.223 223.172 170.599 223.219 170.915 223.313C171.231 223.405 171.491 223.54 171.696 223.719C171.901 223.895 172.053 224.113 172.15 224.373C172.248 224.633 172.297 224.93 172.297 225.262ZM168.928 226.761H169.558C169.86 226.761 170.124 226.735 170.349 226.683C170.576 226.631 170.764 226.548 170.91 226.434C171.06 226.316 171.172 226.167 171.247 225.984C171.322 225.799 171.359 225.574 171.359 225.311C171.359 224.848 171.226 224.507 170.959 224.285C170.692 224.061 170.275 223.948 169.709 223.948H168.928V226.761ZM176.628 226.541H178.991V230.042C178.812 230.101 178.632 230.153 178.449 230.198C178.267 230.244 178.08 230.281 177.888 230.311C177.696 230.343 177.494 230.368 177.282 230.384C177.071 230.4 176.843 230.408 176.599 230.408C176.088 230.408 175.635 230.324 175.241 230.154C174.847 229.982 174.515 229.738 174.245 229.422C173.975 229.103 173.77 228.717 173.63 228.265C173.49 227.809 173.42 227.298 173.42 226.731C173.42 226.172 173.496 225.665 173.649 225.213C173.806 224.76 174.032 224.376 174.328 224.061C174.624 223.742 174.989 223.497 175.422 223.328C175.858 223.156 176.354 223.069 176.911 223.069C177.272 223.069 177.619 223.105 177.951 223.177C178.283 223.248 178.592 223.353 178.879 223.489L178.527 224.28C178.41 224.225 178.283 224.173 178.146 224.124C178.013 224.075 177.875 224.033 177.731 223.997C177.588 223.958 177.44 223.927 177.287 223.904C177.137 223.882 176.988 223.87 176.838 223.87C176.441 223.87 176.089 223.937 175.783 224.07C175.477 224.201 175.22 224.389 175.012 224.637C174.807 224.884 174.65 225.185 174.543 225.54C174.436 225.895 174.382 226.295 174.382 226.741C174.382 227.164 174.426 227.552 174.514 227.903C174.605 228.255 174.748 228.558 174.943 228.812C175.139 229.065 175.391 229.262 175.7 229.402C176.009 229.542 176.382 229.612 176.818 229.612C176.962 229.612 177.092 229.609 177.209 229.603C177.329 229.593 177.44 229.581 177.541 229.568C177.642 229.555 177.736 229.541 177.824 229.524C177.915 229.505 178.003 229.487 178.088 229.471V227.342H176.628V226.541ZM180.114 228.04V227.22H182.536V228.04H180.114ZM186.408 230.311H185.549V225.853C185.549 225.713 185.549 225.563 185.549 225.403C185.552 225.244 185.555 225.086 185.559 224.93C185.565 224.77 185.57 224.619 185.573 224.476C185.58 224.329 185.585 224.201 185.588 224.09C185.533 224.148 185.484 224.199 185.441 224.241C185.399 224.284 185.355 224.324 185.31 224.363C185.267 224.402 185.222 224.445 185.173 224.49C185.124 224.533 185.065 224.583 184.997 224.642L184.274 225.232L183.806 224.632L185.676 223.172H186.408V230.311ZM193.137 224.842C193.137 225.079 193.099 225.296 193.024 225.491C192.95 225.687 192.844 225.856 192.707 225.999C192.574 226.142 192.412 226.261 192.224 226.355C192.035 226.447 191.825 226.512 191.594 226.551V226.58C192.17 226.652 192.608 226.836 192.907 227.132C193.207 227.425 193.356 227.807 193.356 228.279C193.356 228.592 193.303 228.878 193.195 229.139C193.091 229.399 192.932 229.624 192.717 229.812C192.502 230.001 192.23 230.148 191.901 230.252C191.573 230.356 191.184 230.408 190.734 230.408C190.38 230.408 190.044 230.381 189.729 230.325C189.416 230.27 189.121 230.169 188.845 230.022V229.192C189.128 229.342 189.434 229.458 189.763 229.539C190.095 229.62 190.412 229.661 190.715 229.661C191.014 229.661 191.273 229.629 191.491 229.563C191.709 229.498 191.888 229.406 192.028 229.285C192.172 229.165 192.276 229.017 192.341 228.841C192.409 228.665 192.443 228.468 192.443 228.25C192.443 228.029 192.399 227.84 192.312 227.684C192.227 227.524 192.105 227.394 191.945 227.293C191.786 227.189 191.59 227.112 191.359 227.063C191.132 227.015 190.873 226.99 190.583 226.99H189.934V226.253H190.583C190.847 226.253 191.081 226.22 191.286 226.155C191.491 226.09 191.662 225.997 191.799 225.877C191.939 225.757 192.045 225.613 192.116 225.447C192.188 225.281 192.224 225.099 192.224 224.9C192.224 224.731 192.194 224.58 192.136 224.446C192.077 224.313 191.994 224.201 191.887 224.109C191.779 224.015 191.651 223.943 191.501 223.895C191.351 223.846 191.185 223.821 191.003 223.821C190.655 223.821 190.347 223.877 190.08 223.987C189.816 224.095 189.564 224.236 189.323 224.412L188.874 223.802C188.998 223.701 189.134 223.606 189.284 223.519C189.437 223.431 189.603 223.354 189.782 223.289C189.961 223.221 190.152 223.167 190.354 223.128C190.559 223.089 190.775 223.069 191.003 223.069C191.354 223.069 191.662 223.113 191.926 223.201C192.193 223.289 192.416 223.413 192.595 223.572C192.774 223.729 192.909 223.916 193 224.134C193.091 224.349 193.137 224.585 193.137 224.842Z" fill="white"/>
<path d="M165 220.811H196V218.811H165V220.811ZM198 222.811V230.811H200V222.811H198ZM196 232.811H165V234.811H196V232.811ZM163 230.811V222.811H161V230.811H163ZM165 232.811C163.895 232.811 163 231.915 163 230.811H161C161 233.02 162.791 234.811 165 234.811V232.811ZM198 230.811C198 231.915 197.105 232.811 196 232.811V234.811C198.209 234.811 200 233.02 200 230.811H198ZM196 220.811C197.105 220.811 198 221.706 198 222.811H200C200 220.601 198.209 218.811 196 218.811V220.811ZM165 218.811C162.791 218.811 161 220.601 161 222.811H163C163 221.706 163.895 220.811 165 220.811V218.811Z" fill="white"/>
<circle cx="20.5" cy="250.811" r="1.5" fill="#E1E1E1" fill-opacity="0.5"/>
<path d="M34.7227 250.718C34.7227 251.561 34.6133 252.301 34.3945 252.939C34.1758 253.573 33.859 254.104 33.4443 254.532C33.0296 254.956 32.5192 255.275 31.9131 255.489C31.3115 255.703 30.6279 255.811 29.8623 255.811H27.3604V245.816H30.1426C30.8398 245.816 31.471 245.921 32.0361 246.131C32.6012 246.34 33.082 246.653 33.4785 247.067C33.875 247.478 34.1803 247.988 34.3945 248.599C34.6133 249.209 34.7227 249.916 34.7227 250.718ZM33.376 250.759C33.376 250.093 33.3008 249.519 33.1504 249.036C33 248.549 32.7812 248.147 32.4941 247.833C32.207 247.519 31.8538 247.286 31.4346 247.136C31.0153 246.981 30.5391 246.903 30.0059 246.903H28.6318V254.717H29.7393C30.9424 254.717 31.8493 254.384 32.46 253.719C33.0706 253.053 33.376 252.067 33.376 250.759ZM40.0205 248.168C40.1527 248.168 40.3008 248.175 40.4648 248.188C40.6289 248.198 40.7702 248.214 40.8887 248.236L40.7246 249.385C40.597 249.362 40.4648 249.344 40.3281 249.33C40.196 249.312 40.0706 249.303 39.9521 249.303C39.665 249.303 39.403 249.362 39.166 249.48C38.929 249.594 38.724 249.761 38.5508 249.979C38.3822 250.194 38.25 250.453 38.1543 250.759C38.0632 251.06 38.0176 251.395 38.0176 251.764V255.811H36.7734V248.305H37.7852L37.9355 249.679H37.9902C38.1042 249.483 38.2249 249.294 38.3525 249.111C38.4847 248.929 38.6305 248.77 38.79 248.633C38.9541 248.492 39.1364 248.38 39.3369 248.298C39.5374 248.211 39.7653 248.168 40.0205 248.168ZM46.46 255.811L46.207 254.771H46.1523C46.002 254.977 45.8516 255.154 45.7012 255.305C45.5508 255.451 45.3867 255.571 45.209 255.667C45.0312 255.763 44.833 255.833 44.6143 255.879C44.3955 255.924 44.1426 255.947 43.8555 255.947C43.541 255.947 43.2516 255.902 42.9873 255.811C42.723 255.724 42.4928 255.59 42.2969 255.407C42.1055 255.22 41.9551 254.988 41.8457 254.71C41.7363 254.427 41.6816 254.095 41.6816 253.712C41.6816 252.965 41.9437 252.39 42.4678 251.989C42.9964 251.588 43.7985 251.369 44.874 251.333L46.1318 251.285V250.813C46.1318 250.508 46.0977 250.253 46.0293 250.048C45.9655 249.843 45.8698 249.679 45.7422 249.556C45.6191 249.428 45.4642 249.337 45.2773 249.282C45.0951 249.228 44.8854 249.2 44.6484 249.2C44.2702 249.2 43.917 249.255 43.5889 249.364C43.2653 249.474 42.9531 249.606 42.6523 249.761L42.2148 248.824C42.5521 248.642 42.9281 248.487 43.3428 248.359C43.7575 248.232 44.1927 248.168 44.6484 248.168C45.1133 248.168 45.5143 248.216 45.8516 248.312C46.1934 248.403 46.4736 248.551 46.6924 248.756C46.9157 248.956 47.082 249.214 47.1914 249.528C47.3008 249.843 47.3555 250.223 47.3555 250.67V255.811H46.46ZM44.1768 254.942C44.4548 254.942 44.7122 254.899 44.9492 254.812C45.1862 254.726 45.3913 254.596 45.5645 254.423C45.7376 254.245 45.8721 254.024 45.9678 253.76C46.068 253.491 46.1182 253.176 46.1182 252.816V252.14L45.1406 252.188C44.7305 252.206 44.3864 252.251 44.1084 252.324C43.8304 252.397 43.6071 252.5 43.4385 252.632C43.2744 252.759 43.1559 252.917 43.083 253.104C43.0101 253.286 42.9736 253.493 42.9736 253.726C42.9736 254.145 43.083 254.452 43.3018 254.648C43.5251 254.844 43.8167 254.942 44.1768 254.942ZM58.6553 255.811V250.978C58.6553 250.385 58.5413 249.941 58.3135 249.645C58.0856 249.348 57.7324 249.2 57.2539 249.2C56.9212 249.2 56.6387 249.255 56.4062 249.364C56.1738 249.469 55.9824 249.626 55.832 249.836C55.6862 250.041 55.5791 250.299 55.5107 250.608C55.4424 250.914 55.4082 251.267 55.4082 251.668V255.811H54.1572V250.978C54.1572 250.385 54.0433 249.941 53.8154 249.645C53.5921 249.348 53.2412 249.2 52.7627 249.2C52.4118 249.2 52.1178 249.259 51.8809 249.378C51.6439 249.496 51.4525 249.672 51.3066 249.904C51.1654 250.137 51.0628 250.422 50.999 250.759C50.9398 251.096 50.9102 251.483 50.9102 251.921V255.811H49.666V248.305H50.6777L50.8555 249.316H50.9238C51.0332 249.12 51.1631 248.952 51.3135 248.811C51.4639 248.665 51.6279 248.544 51.8057 248.448C51.988 248.353 52.1794 248.282 52.3799 248.236C52.585 248.191 52.7923 248.168 53.002 248.168C53.5488 248.168 54.0023 248.268 54.3623 248.469C54.7269 248.669 54.9958 248.984 55.1689 249.412H55.2236C55.3421 249.198 55.4834 249.013 55.6475 248.858C55.8161 248.703 55.9984 248.576 56.1943 248.476C56.3949 248.371 56.6045 248.293 56.8232 248.243C57.042 248.193 57.2653 248.168 57.4932 248.168C58.2907 248.168 58.89 248.387 59.291 248.824C59.6966 249.257 59.8994 249.952 59.8994 250.909V255.811H58.6553ZM66.4482 255.811L66.1953 254.771H66.1406C65.9902 254.977 65.8398 255.154 65.6895 255.305C65.5391 255.451 65.375 255.571 65.1973 255.667C65.0195 255.763 64.8213 255.833 64.6025 255.879C64.3838 255.924 64.1309 255.947 63.8438 255.947C63.5293 255.947 63.2399 255.902 62.9756 255.811C62.7113 255.724 62.4811 255.59 62.2852 255.407C62.0938 255.22 61.9434 254.988 61.834 254.71C61.7246 254.427 61.6699 254.095 61.6699 253.712C61.6699 252.965 61.932 252.39 62.4561 251.989C62.9847 251.588 63.7868 251.369 64.8623 251.333L66.1201 251.285V250.813C66.1201 250.508 66.0859 250.253 66.0176 250.048C65.9538 249.843 65.8581 249.679 65.7305 249.556C65.6074 249.428 65.4525 249.337 65.2656 249.282C65.0833 249.228 64.8737 249.2 64.6367 249.2C64.2585 249.2 63.9053 249.255 63.5771 249.364C63.2536 249.474 62.9414 249.606 62.6406 249.761L62.2031 248.824C62.5404 248.642 62.9163 248.487 63.3311 248.359C63.7458 248.232 64.181 248.168 64.6367 248.168C65.1016 248.168 65.5026 248.216 65.8398 248.312C66.1816 248.403 66.4619 248.551 66.6807 248.756C66.904 248.956 67.0703 249.214 67.1797 249.528C67.2891 249.843 67.3438 250.223 67.3438 250.67V255.811H66.4482ZM64.165 254.942C64.443 254.942 64.7005 254.899 64.9375 254.812C65.1745 254.726 65.3796 254.596 65.5527 254.423C65.7259 254.245 65.8604 254.024 65.9561 253.76C66.0563 253.491 66.1064 253.176 66.1064 252.816V252.14L65.1289 252.188C64.7188 252.206 64.3747 252.251 64.0967 252.324C63.8187 252.397 63.5954 252.5 63.4268 252.632C63.2627 252.759 63.1442 252.917 63.0713 253.104C62.9984 253.286 62.9619 253.493 62.9619 253.726C62.9619 254.145 63.0713 254.452 63.29 254.648C63.5133 254.844 63.805 254.942 64.165 254.942Z" fill="white"/>
<g clip-path="url(#clip2)">
<circle cx="80.5" cy="250.811" r="1.5" fill="#E1E1E1" fill-opacity="0.5"/>
<path d="M92.624 253.138C92.624 253.58 92.5443 253.976 92.3848 254.327C92.2298 254.674 92.0065 254.967 91.7148 255.209C91.4232 255.451 91.0677 255.635 90.6484 255.763C90.2292 255.886 89.7575 255.947 89.2334 255.947C88.7275 255.947 88.2536 255.906 87.8115 255.824C87.374 255.747 87.0072 255.631 86.7109 255.476V254.259C86.8659 254.332 87.0413 254.405 87.2373 254.478C87.4378 254.546 87.6475 254.607 87.8662 254.662C88.085 254.717 88.3105 254.762 88.543 254.799C88.7754 254.831 89.0055 254.847 89.2334 254.847C89.9626 254.847 90.5003 254.71 90.8467 254.437C91.1976 254.163 91.373 253.771 91.373 253.261C91.373 253.015 91.3389 252.8 91.2705 252.618C91.2067 252.436 91.0905 252.27 90.9219 252.119C90.7578 251.964 90.5368 251.816 90.2588 251.675C89.9808 251.529 89.6299 251.372 89.2061 251.203C88.8005 251.044 88.4473 250.87 88.1465 250.684C87.8503 250.492 87.6042 250.278 87.4082 250.041C87.2168 249.804 87.0732 249.535 86.9775 249.234C86.8864 248.934 86.8408 248.592 86.8408 248.209C86.8408 247.808 86.9137 247.45 87.0596 247.136C87.2054 246.821 87.4105 246.557 87.6748 246.343C87.9391 246.124 88.2536 245.958 88.6182 245.844C88.9873 245.73 89.3929 245.673 89.835 245.673C90.3773 245.673 90.8649 245.725 91.2979 245.83C91.7308 245.93 92.1159 246.06 92.4531 246.22L91.9951 247.286C91.6989 247.154 91.3617 247.04 90.9834 246.944C90.6097 246.844 90.2223 246.794 89.8213 246.794C89.2653 246.794 88.8346 246.924 88.5293 247.184C88.224 247.439 88.0713 247.785 88.0713 248.223C88.0713 248.482 88.1055 248.708 88.1738 248.899C88.2422 249.086 88.3561 249.257 88.5156 249.412C88.6751 249.562 88.8848 249.706 89.1445 249.843C89.4089 249.975 89.7324 250.116 90.1152 250.267C90.5299 250.431 90.8923 250.599 91.2021 250.772C91.5166 250.946 91.7786 251.142 91.9883 251.36C92.1979 251.579 92.3551 251.832 92.46 252.119C92.5693 252.406 92.624 252.746 92.624 253.138ZM99.3232 255.811L99.1387 254.806H99.0703C98.9564 255.002 98.8197 255.173 98.6602 255.318C98.5052 255.46 98.3343 255.578 98.1475 255.674C97.9606 255.765 97.7624 255.833 97.5527 255.879C97.3431 255.924 97.1289 255.947 96.9102 255.947C96.4954 255.947 96.1309 255.895 95.8164 255.79C95.502 255.685 95.2399 255.521 95.0303 255.298C94.8206 255.075 94.6611 254.79 94.5518 254.443C94.4469 254.097 94.3945 253.685 94.3945 253.206V248.305H95.6387V253.138C95.6387 253.73 95.7594 254.174 96.001 254.471C96.2425 254.767 96.6162 254.915 97.1221 254.915C97.4912 254.915 97.8011 254.856 98.0518 254.737C98.3024 254.619 98.5029 254.446 98.6533 254.218C98.8083 253.985 98.9176 253.701 98.9814 253.363C99.0498 253.026 99.084 252.639 99.084 252.201V248.305H100.328V255.811H99.3232ZM107.198 253.753C107.198 254.118 107.132 254.437 107 254.71C106.868 254.983 106.676 255.214 106.426 255.4C106.18 255.583 105.881 255.719 105.53 255.811C105.179 255.902 104.785 255.947 104.348 255.947C103.851 255.947 103.425 255.906 103.069 255.824C102.714 255.747 102.402 255.631 102.133 255.476V254.341C102.274 254.414 102.431 254.487 102.604 254.56C102.778 254.628 102.96 254.689 103.151 254.744C103.343 254.799 103.539 254.844 103.739 254.881C103.944 254.913 104.147 254.929 104.348 254.929C104.644 254.929 104.895 254.904 105.1 254.854C105.309 254.803 105.478 254.733 105.605 254.642C105.738 254.546 105.833 254.432 105.893 254.3C105.952 254.163 105.981 254.013 105.981 253.849C105.981 253.707 105.959 253.58 105.913 253.466C105.868 253.352 105.783 253.24 105.66 253.131C105.542 253.017 105.378 252.903 105.168 252.789C104.958 252.675 104.689 252.548 104.361 252.406C104.033 252.265 103.737 252.126 103.473 251.989C103.213 251.853 102.992 251.7 102.81 251.531C102.627 251.363 102.486 251.169 102.386 250.95C102.29 250.727 102.242 250.463 102.242 250.157C102.242 249.838 102.304 249.556 102.427 249.31C102.554 249.059 102.732 248.849 102.96 248.681C103.188 248.512 103.461 248.384 103.78 248.298C104.099 248.211 104.455 248.168 104.847 248.168C105.289 248.168 105.692 248.216 106.057 248.312C106.426 248.407 106.774 248.533 107.103 248.688L106.672 249.692C106.376 249.56 106.07 249.446 105.756 249.351C105.446 249.25 105.129 249.2 104.806 249.2C104.341 249.2 103.997 249.278 103.773 249.433C103.55 249.583 103.438 249.799 103.438 250.082C103.438 250.242 103.464 250.381 103.514 250.499C103.568 250.618 103.66 250.729 103.787 250.834C103.915 250.939 104.086 251.046 104.3 251.155C104.514 251.26 104.781 251.379 105.1 251.511C105.428 251.647 105.719 251.784 105.975 251.921C106.234 252.058 106.455 252.213 106.638 252.386C106.82 252.554 106.959 252.748 107.055 252.967C107.15 253.186 107.198 253.448 107.198 253.753ZM112.414 255.947C112.145 255.947 111.901 255.918 111.683 255.858C111.464 255.799 111.266 255.722 111.088 255.626C110.915 255.526 110.76 255.41 110.623 255.277C110.491 255.145 110.372 255.006 110.268 254.86H110.186C110.199 255.015 110.213 255.163 110.227 255.305C110.236 255.423 110.245 255.546 110.254 255.674C110.263 255.797 110.268 255.895 110.268 255.968V259.174H109.023V248.305H110.035L110.213 249.316H110.268C110.372 249.157 110.491 249.009 110.623 248.872C110.755 248.731 110.908 248.61 111.081 248.51C111.259 248.405 111.457 248.323 111.676 248.264C111.895 248.2 112.141 248.168 112.414 248.168C112.842 248.168 113.232 248.25 113.583 248.414C113.934 248.578 114.232 248.824 114.479 249.152C114.729 249.476 114.923 249.879 115.06 250.362C115.196 250.845 115.265 251.406 115.265 252.044C115.265 252.687 115.196 253.252 115.06 253.739C114.923 254.222 114.729 254.628 114.479 254.956C114.232 255.284 113.934 255.533 113.583 255.701C113.232 255.865 112.842 255.947 112.414 255.947ZM112.175 249.2C111.828 249.2 111.535 249.253 111.293 249.357C111.056 249.462 110.862 249.622 110.712 249.836C110.566 250.05 110.457 250.317 110.384 250.636C110.315 250.955 110.277 251.331 110.268 251.764V252.044C110.268 252.504 110.297 252.914 110.356 253.274C110.42 253.63 110.525 253.931 110.671 254.177C110.821 254.418 111.02 254.603 111.266 254.73C111.512 254.854 111.819 254.915 112.188 254.915C112.804 254.915 113.255 254.667 113.542 254.17C113.834 253.673 113.979 252.96 113.979 252.03C113.979 251.082 113.834 250.374 113.542 249.904C113.255 249.435 112.799 249.2 112.175 249.2ZM120.193 255.947C119.692 255.947 119.234 255.863 118.819 255.694C118.405 255.526 118.047 255.28 117.746 254.956C117.45 254.632 117.22 254.231 117.056 253.753C116.892 253.274 116.81 252.728 116.81 252.112C116.81 251.493 116.885 250.939 117.035 250.451C117.186 249.964 117.397 249.551 117.671 249.214C117.944 248.872 118.27 248.612 118.648 248.435C119.031 248.257 119.453 248.168 119.913 248.168C120.364 248.168 120.77 248.25 121.13 248.414C121.49 248.574 121.795 248.801 122.046 249.098C122.297 249.389 122.488 249.743 122.62 250.157C122.757 250.567 122.825 251.023 122.825 251.524V252.297H118.095C118.118 253.176 118.302 253.824 118.648 254.238C118.999 254.653 119.519 254.86 120.207 254.86C120.439 254.86 120.654 254.849 120.85 254.826C121.05 254.803 121.242 254.771 121.424 254.73C121.611 254.685 121.791 254.63 121.964 254.566C122.137 254.498 122.312 254.423 122.49 254.341V255.448C122.308 255.535 122.128 255.61 121.95 255.674C121.777 255.738 121.597 255.79 121.41 255.831C121.228 255.872 121.036 255.902 120.836 255.92C120.64 255.938 120.426 255.947 120.193 255.947ZM119.886 249.2C119.366 249.2 118.954 249.378 118.648 249.733C118.348 250.089 118.172 250.606 118.122 251.285H121.485C121.485 250.975 121.453 250.693 121.39 250.438C121.33 250.178 121.235 249.957 121.103 249.774C120.975 249.592 120.811 249.451 120.61 249.351C120.41 249.25 120.168 249.2 119.886 249.2ZM129.408 255.811V250.978C129.408 250.385 129.287 249.941 129.046 249.645C128.809 249.348 128.435 249.2 127.925 249.2C127.556 249.2 127.246 249.259 126.995 249.378C126.744 249.496 126.542 249.672 126.387 249.904C126.236 250.137 126.127 250.422 126.059 250.759C125.995 251.096 125.963 251.483 125.963 251.921V255.811H124.719V248.305H125.73L125.908 249.316H125.977C126.09 249.12 126.225 248.952 126.38 248.811C126.539 248.665 126.713 248.544 126.899 248.448C127.086 248.353 127.285 248.282 127.494 248.236C127.704 248.191 127.918 248.168 128.137 248.168C128.971 248.168 129.597 248.387 130.017 248.824C130.44 249.257 130.652 249.952 130.652 250.909V255.811H129.408ZM137.454 253.753C137.454 254.118 137.388 254.437 137.256 254.71C137.124 254.983 136.932 255.214 136.682 255.4C136.436 255.583 136.137 255.719 135.786 255.811C135.435 255.902 135.041 255.947 134.604 255.947C134.107 255.947 133.681 255.906 133.325 255.824C132.97 255.747 132.658 255.631 132.389 255.476V254.341C132.53 254.414 132.687 254.487 132.86 254.56C133.034 254.628 133.216 254.689 133.407 254.744C133.599 254.799 133.795 254.844 133.995 254.881C134.2 254.913 134.403 254.929 134.604 254.929C134.9 254.929 135.15 254.904 135.355 254.854C135.565 254.803 135.734 254.733 135.861 254.642C135.993 254.546 136.089 254.432 136.148 254.3C136.208 254.163 136.237 254.013 136.237 253.849C136.237 253.707 136.215 253.58 136.169 253.466C136.123 253.352 136.039 253.24 135.916 253.131C135.798 253.017 135.633 252.903 135.424 252.789C135.214 252.675 134.945 252.548 134.617 252.406C134.289 252.265 133.993 252.126 133.729 251.989C133.469 251.853 133.248 251.7 133.065 251.531C132.883 251.363 132.742 251.169 132.642 250.95C132.546 250.727 132.498 250.463 132.498 250.157C132.498 249.838 132.56 249.556 132.683 249.31C132.81 249.059 132.988 248.849 133.216 248.681C133.444 248.512 133.717 248.384 134.036 248.298C134.355 248.211 134.711 248.168 135.103 248.168C135.545 248.168 135.948 248.216 136.312 248.312C136.682 248.407 137.03 248.533 137.358 248.688L136.928 249.692C136.632 249.56 136.326 249.446 136.012 249.351C135.702 249.25 135.385 249.2 135.062 249.2C134.597 249.2 134.253 249.278 134.029 249.433C133.806 249.583 133.694 249.799 133.694 250.082C133.694 250.242 133.719 250.381 133.77 250.499C133.824 250.618 133.915 250.729 134.043 250.834C134.171 250.939 134.341 251.046 134.556 251.155C134.77 251.26 135.036 251.379 135.355 251.511C135.684 251.647 135.975 251.784 136.23 251.921C136.49 252.058 136.711 252.213 136.894 252.386C137.076 252.554 137.215 252.748 137.311 252.967C137.406 253.186 137.454 253.448 137.454 253.753ZM142.246 255.947C141.745 255.947 141.287 255.863 140.872 255.694C140.457 255.526 140.1 255.28 139.799 254.956C139.503 254.632 139.272 254.231 139.108 253.753C138.944 253.274 138.862 252.728 138.862 252.112C138.862 251.493 138.938 250.939 139.088 250.451C139.238 249.964 139.45 249.551 139.724 249.214C139.997 248.872 140.323 248.612 140.701 248.435C141.084 248.257 141.506 248.168 141.966 248.168C142.417 248.168 142.823 248.25 143.183 248.414C143.543 248.574 143.848 248.801 144.099 249.098C144.349 249.389 144.541 249.743 144.673 250.157C144.81 250.567 144.878 251.023 144.878 251.524V252.297H140.147C140.17 253.176 140.355 253.824 140.701 254.238C141.052 254.653 141.572 254.86 142.26 254.86C142.492 254.86 142.706 254.849 142.902 254.826C143.103 254.803 143.294 254.771 143.477 254.73C143.663 254.685 143.843 254.63 144.017 254.566C144.19 254.498 144.365 254.423 144.543 254.341V255.448C144.361 255.535 144.181 255.61 144.003 255.674C143.83 255.738 143.65 255.79 143.463 255.831C143.281 255.872 143.089 255.902 142.889 255.92C142.693 255.938 142.479 255.947 142.246 255.947ZM141.938 249.2C141.419 249.2 141.007 249.378 140.701 249.733C140.4 250.089 140.225 250.606 140.175 251.285H143.538C143.538 250.975 143.506 250.693 143.442 250.438C143.383 250.178 143.287 249.957 143.155 249.774C143.028 249.592 142.864 249.451 142.663 249.351C142.463 249.25 142.221 249.2 141.938 249.2Z" fill="white"/>
</g>
<path d="M343.4 239.75C347.937 239.75 351.65 243.463 351.65 248C351.65 252.538 347.937 256.25 343.4 256.25C338.862 256.25 335.15 252.538 335.15 248C335.15 243.463 338.862 239.75 343.4 239.75ZM343.4 238.375C338.106 238.375 333.775 242.706 333.775 248C333.775 253.294 338.106 257.625 343.4 257.625C348.694 257.625 353.025 253.294 353.025 248C353.025 242.706 348.694 238.375 343.4 238.375Z" fill="white"/>
<path d="M348.9 247.312H344.087V242.5H342.712V247.312H337.9V248.688H342.712V253.5H344.087V248.688H348.9V247.312Z" fill="white"/>
<path d="M375.667 244.276C375.005 243.608 374.316 243.026 373.598 242.532C372.881 242.037 372.209 241.666 371.582 241.419C370.955 241.172 370.381 241.053 369.859 241.063C369.336 241.073 368.929 241.228 368.636 241.529C368.567 241.596 368.508 241.671 368.459 241.755C368.41 241.838 368.375 241.903 368.354 241.95C368.333 241.997 368.306 242.081 368.271 242.201C368.236 242.321 368.212 242.398 368.198 242.432L364.312 254.703L364.552 254.944C364.28 255.124 364.038 255.335 363.826 255.576C363.613 255.816 363.427 256.013 363.267 256.167C363.107 256.321 362.915 256.428 362.692 256.488C362.644 256.501 362.583 256.547 362.51 256.623C362.436 256.7 362.4 256.769 362.4 256.829C362.4 256.949 362.463 257.049 362.588 257.13C362.713 257.21 362.853 257.25 363.006 257.25C363.201 257.25 363.389 257.175 363.57 257.024C363.751 256.874 363.934 256.682 364.118 256.448C364.303 256.214 364.437 256.06 364.521 255.987C364.702 255.833 364.904 255.686 365.126 255.546L365.398 255.796L377.746 251.776C378.017 251.696 378.226 251.575 378.372 251.415C378.665 251.114 378.816 250.698 378.827 250.167C378.837 249.635 378.721 249.05 378.477 248.412C378.233 247.774 377.869 247.092 377.385 246.367C376.901 245.642 376.328 244.945 375.667 244.276ZM374.539 245.369C375.604 246.412 376.414 247.409 376.967 248.362C377.521 249.314 377.655 249.941 377.37 250.242C377.084 250.543 376.461 250.432 375.5 249.911C374.539 249.39 373.529 248.611 372.47 247.575C371.398 246.532 370.585 245.536 370.031 244.587C369.477 243.638 369.343 243.01 369.629 242.702C369.914 242.401 370.539 242.512 371.504 243.033C372.468 243.554 373.48 244.333 374.539 245.369ZM372.251 249.52C372.759 249.954 373.264 250.335 373.766 250.663C373.772 250.676 373.947 250.99 374.288 251.605L373.41 251.896C372.992 251.141 372.606 250.349 372.251 249.52ZM368.689 244.928C368.842 245.256 369.054 245.653 369.326 246.121C369.549 247.084 369.899 248.126 370.376 249.249C370.853 250.372 371.373 251.425 371.937 252.407L371.07 252.688C370.416 251.525 369.845 250.307 369.357 249.034C368.87 247.76 368.57 246.636 368.459 245.66L368.689 244.928ZM367.477 248.598C367.964 250.095 368.65 251.632 369.535 253.21L368.678 253.5C367.989 252.23 367.445 251.037 367.049 249.921L367.477 248.598ZM366.275 252.257C366.547 252.872 366.836 253.457 367.143 254.012L366.286 254.302C366.188 254.122 366.049 253.844 365.868 253.47L366.275 252.257ZM373.954 238L374.476 239.514L373.128 240.456H374.789L375.301 241.97L375.813 240.456H377.464L376.126 239.514L376.649 238.01L375.301 238.942L373.954 238ZM371.029 238L370.747 239.374L372.178 239.644L372.46 238.271L371.029 238ZM380.441 242.131L381.59 240.978L383.084 241.68L382.311 240.276L383.47 239.143L381.83 239.414L381.057 238L380.827 239.584L379.187 239.855L380.681 240.547L380.441 242.131ZM380.054 244.597L381.444 245.479L381.005 247.023L382.3 246.021L383.679 246.903L383.105 245.399L384.4 244.417L382.739 244.487L382.154 242.993L381.726 244.527L380.054 244.597ZM379.459 240.877L376.346 243.324L376.732 243.775L379.845 241.329L379.459 240.877ZM380.545 245.61L378.111 245.399L378.049 245.981L380.493 246.191L380.545 245.61ZM380.785 248.417L380.336 249.761L381.726 250.192L382.185 248.858L380.785 248.417Z" fill="white"/>
<path d="M403.15 243.833C403.656 243.833 404.067 243.423 404.067 242.917C404.067 242.41 403.656 242 403.15 242C402.644 242 402.233 242.41 402.233 242.917C402.233 243.423 402.644 243.833 403.15 243.833Z" fill="white"/>
<path d="M405.747 251.41H404.219V245.055H401.928C401.725 245.055 401.531 245.138 401.388 245.287C401.244 245.436 401.164 245.638 401.164 245.849C401.164 246.06 401.244 246.262 401.388 246.411C401.531 246.56 401.725 246.644 401.928 246.644H402.692V251.41H401.164C400.961 251.41 400.767 251.494 400.624 251.643C400.48 251.792 400.4 251.994 400.4 252.205C400.4 252.415 400.48 252.617 400.624 252.766C400.767 252.915 400.961 252.999 401.164 252.999H405.747C405.95 252.999 406.144 252.915 406.287 252.766C406.431 252.617 406.511 252.415 406.511 252.205C406.511 251.994 406.431 251.792 406.287 251.643C406.144 251.494 405.95 251.41 405.747 251.41Z" fill="white"/>
<path d="M403.025 238C401.121 238 399.26 238.564 397.678 239.622C396.095 240.68 394.861 242.183 394.133 243.942C393.404 245.7 393.213 247.636 393.585 249.503C393.956 251.37 394.873 253.085 396.219 254.431C397.565 255.777 399.28 256.694 401.147 257.065C403.014 257.436 404.949 257.246 406.708 256.517C408.467 255.789 409.97 254.555 411.028 252.972C412.085 251.39 412.65 249.529 412.65 247.625C412.65 245.072 411.636 242.624 409.831 240.819C408.026 239.014 405.578 238 403.025 238ZM403.025 255.646C401.439 255.646 399.888 255.175 398.569 254.294C397.25 253.413 396.222 252.16 395.615 250.694C395.008 249.229 394.849 247.616 395.158 246.06C395.468 244.504 396.232 243.075 397.353 241.953C398.475 240.832 399.904 240.068 401.46 239.758C403.016 239.449 404.629 239.608 406.094 240.215C407.56 240.822 408.813 241.85 409.694 243.169C410.575 244.488 411.046 246.039 411.046 247.625C411.046 248.678 410.838 249.721 410.435 250.694C410.032 251.668 409.441 252.552 408.696 253.297C407.952 254.041 407.067 254.632 406.094 255.035C405.121 255.438 404.078 255.646 403.025 255.646Z" fill="white"/>
<path d="M438.213 250.75C437.698 250.753 437.191 250.871 436.728 251.096C436.265 251.321 435.859 251.647 435.538 252.05L430.513 248.908C430.696 248.317 430.696 247.684 430.513 247.093L435.538 243.951C436.049 244.582 436.766 245.013 437.563 245.167C438.36 245.32 439.186 245.186 439.894 244.789C440.602 244.392 441.147 243.757 441.432 242.997C441.717 242.237 441.723 241.4 441.45 240.636C441.177 239.871 440.643 239.228 439.941 238.819C439.239 238.411 438.415 238.265 437.616 238.406C436.816 238.547 436.092 238.966 435.572 239.59C435.053 240.213 434.77 241.001 434.775 241.813C434.779 242.12 434.825 242.426 434.913 242.72L429.887 245.862C429.443 245.303 428.837 244.897 428.152 244.698C427.467 244.5 426.737 244.52 426.063 244.754C425.39 244.989 424.806 245.428 424.393 246.01C423.98 246.591 423.758 247.287 423.758 248C423.758 248.713 423.98 249.409 424.393 249.991C424.806 250.572 425.39 251.011 426.063 251.246C426.737 251.481 427.467 251.5 428.152 251.302C428.837 251.103 429.443 250.697 429.887 250.138L434.913 253.28C434.825 253.575 434.779 253.88 434.775 254.188C434.775 254.868 434.977 255.532 435.355 256.097C435.732 256.663 436.269 257.103 436.897 257.363C437.525 257.624 438.217 257.692 438.883 257.559C439.55 257.426 440.163 257.099 440.643 256.618C441.124 256.138 441.452 255.525 441.584 254.858C441.717 254.191 441.649 253.5 441.389 252.872C441.128 252.244 440.688 251.707 440.123 251.329C439.557 250.952 438.893 250.75 438.213 250.75ZM438.213 239.75C438.621 239.75 439.019 239.871 439.359 240.098C439.698 240.324 439.962 240.646 440.118 241.023C440.274 241.4 440.315 241.815 440.236 242.215C440.156 242.615 439.96 242.983 439.671 243.271C439.383 243.559 439.015 243.756 438.615 243.836C438.215 243.915 437.8 243.874 437.424 243.718C437.047 243.562 436.725 243.298 436.498 242.959C436.271 242.619 436.15 242.221 436.15 241.813C436.15 241.266 436.368 240.741 436.754 240.354C437.141 239.967 437.666 239.75 438.213 239.75ZM427.213 250.063C426.805 250.063 426.406 249.942 426.067 249.715C425.728 249.488 425.463 249.166 425.307 248.789C425.151 248.413 425.11 247.998 425.19 247.598C425.27 247.198 425.466 246.83 425.754 246.542C426.043 246.253 426.41 246.057 426.81 245.977C427.211 245.898 427.625 245.939 428.002 246.095C428.379 246.251 428.701 246.515 428.928 246.854C429.154 247.193 429.275 247.592 429.275 248C429.275 248.547 429.058 249.072 428.671 249.459C428.284 249.845 427.76 250.063 427.213 250.063ZM438.213 256.25C437.805 256.25 437.406 256.129 437.067 255.903C436.728 255.676 436.463 255.354 436.307 254.977C436.151 254.6 436.11 254.185 436.19 253.785C436.27 253.385 436.466 253.018 436.754 252.729C437.043 252.441 437.41 252.244 437.81 252.165C438.211 252.085 438.625 252.126 439.002 252.282C439.379 252.438 439.701 252.703 439.928 253.042C440.154 253.381 440.275 253.78 440.275 254.188C440.275 254.735 440.058 255.259 439.671 255.646C439.284 256.033 438.76 256.25 438.213 256.25Z" fill="white"/>
<path d="M469.816 238.834H458.147C457.503 238.834 456.88 239.06 456.386 239.472C455.892 239.884 455.558 240.456 455.442 241.089L454.278 247.506C454.206 247.902 454.221 248.31 454.324 248.699C454.426 249.089 454.613 249.452 454.871 249.761C455.129 250.071 455.452 250.32 455.817 250.491C456.181 250.662 456.579 250.751 456.982 250.751H461.162L460.649 252.061C460.436 252.635 460.365 253.253 460.442 253.86C460.519 254.468 460.743 255.047 461.094 255.549C461.444 256.051 461.911 256.461 462.455 256.743C462.999 257.024 463.603 257.17 464.215 257.167C464.391 257.167 464.564 257.116 464.712 257.02C464.86 256.924 464.977 256.787 465.049 256.626L467.662 250.751H469.816C470.545 250.751 471.245 250.461 471.76 249.945C472.276 249.429 472.566 248.73 472.566 248.001V241.584C472.566 240.855 472.276 240.155 471.76 239.639C471.245 239.124 470.545 238.834 469.816 238.834ZM466.149 249.641L463.656 255.251C463.401 255.174 463.164 255.046 462.961 254.874C462.757 254.701 462.591 254.49 462.472 254.251C462.354 254.012 462.285 253.752 462.271 253.485C462.257 253.219 462.298 252.953 462.391 252.703L462.877 251.392C462.98 251.115 463.015 250.817 462.979 250.524C462.942 250.23 462.835 249.95 462.666 249.707C462.498 249.464 462.273 249.265 462.011 249.127C461.75 248.99 461.458 248.918 461.162 248.917H456.982C456.848 248.918 456.715 248.888 456.593 248.831C456.471 248.774 456.363 248.691 456.277 248.587C456.188 248.485 456.124 248.365 456.087 248.235C456.051 248.105 456.043 247.969 456.066 247.836L457.23 241.419C457.269 241.205 457.383 241.013 457.55 240.875C457.718 240.737 457.93 240.664 458.147 240.667H466.149V249.641ZM470.732 248.001C470.732 248.244 470.636 248.477 470.464 248.649C470.292 248.821 470.059 248.917 469.816 248.917H467.982V240.667H469.816C470.059 240.667 470.292 240.764 470.464 240.936C470.636 241.108 470.732 241.341 470.732 241.584V248.001Z" fill="white"/>
</g>
<path d="M247 117C251.747 117 256.387 118.408 260.334 121.045C264.28 123.682 267.357 127.43 269.173 131.816C270.99 136.201 271.465 141.027 270.539 145.682C269.613 150.338 267.327 154.614 263.971 157.971C260.614 161.327 256.338 163.613 251.682 164.539C247.027 165.465 242.201 164.99 237.816 163.173C233.43 161.357 229.682 158.28 227.045 154.334C224.408 150.387 223 145.747 223 141C223 134.635 225.529 128.53 230.029 124.029C234.53 119.529 240.635 117 247 117ZM247 113C241.462 113 236.049 114.642 231.444 117.719C226.839 120.796 223.251 125.169 221.131 130.285C219.012 135.401 218.458 141.031 219.538 146.463C220.618 151.894 223.285 156.883 227.201 160.799C231.117 164.715 236.106 167.382 241.537 168.462C246.969 169.542 252.599 168.988 257.715 166.869C262.831 164.749 267.204 161.161 270.281 156.556C273.358 151.951 275 146.538 275 141C275 133.574 272.05 126.452 266.799 121.201C261.548 115.95 254.426 113 247 113Z" fill="white" fill-opacity="0.6"/>
<path d="M239 155C238.641 155 238.289 154.903 237.98 154.72C237.681 154.543 237.434 154.291 237.262 153.989C237.09 153.688 237 153.347 237 153V129C237 128.653 237.09 128.311 237.262 128.01C237.434 127.708 237.681 127.457 237.98 127.28C238.284 127.104 238.629 127.012 238.98 127.012C239.331 127.012 239.676 127.104 239.98 127.28L261.98 139.28C262.298 139.451 262.563 139.705 262.748 140.015C262.932 140.325 263.03 140.679 263.03 141.04C263.03 141.4 262.932 141.755 262.748 142.064C262.563 142.374 262.298 142.628 261.98 142.8L239.98 154.8C239.676 154.948 239.338 155.017 239 155ZM241 132.36V149.64L256.82 141L241 132.36Z" fill="white" fill-opacity="0.6"/>
<path d="M20 31C20 24.9249 24.9249 20 31 20H53C59.0751 20 64 24.9249 64 31C64 37.0751 59.0751 42 53 42H31C24.9249 42 20 37.0751 20 31Z" fill="white" fill-opacity="0.8"/>
<path fill-rule="evenodd" clip-rule="evenodd" d="M27 27.7191V36H28.3736C28.4165 36 28.5195 35.9753 28.5882 35.8764V33.2397C30.1335 34.3109 32.8807 33.7753 32.8807 30.5206C32.8807 27.5131 30.2193 26.8127 28.4165 28.2135C28.4022 28.0762 28.3221 27.785 28.116 27.7191H27ZM30.6915 29.1199C29.9704 28.4936 28.9888 28.8589 28.5882 29.1199V32.0861C29.6871 32.8112 30.4483 32.3883 30.6915 32.0861C31.0006 31.9543 31.0778 30.9875 31.0778 30.5206C31.1122 29.7955 30.8346 29.2846 30.6915 29.1199Z" fill="#00A8E1"/>
<path d="M34.0396 33.4457V27.8839C34.0396 27.829 34.074 27.7109 34.2113 27.6779H35.2844C35.3417 27.6367 35.499 27.7356 35.6707 28.4607C35.6851 28.5019 35.7308 28.5678 35.7995 28.5019C35.8854 28.4195 36.7009 27.5543 37.5594 27.6367C37.9028 27.6367 37.9887 27.774 37.9887 27.8427V28.9963C37.9744 29.0649 37.9114 29.2022 37.774 29.2022C36.5722 29.1363 35.9569 29.3396 35.7995 29.4494V33.4457C35.7995 33.4869 35.7738 33.5775 35.6707 33.6105H34.1684C34.1255 33.6105 34.0396 33.5775 34.0396 33.4457Z" fill="#00A8E1"/>
<path d="M39.0189 27.6779H40.3066C40.3781 27.6916 40.5212 27.7521 40.5212 27.8839V33.4457C40.5069 33.4869 40.4525 33.5775 40.3495 33.6105H38.9759C38.9187 33.5968 38.7956 33.5446 38.7613 33.4457L38.8042 27.8839C38.8042 27.829 38.8472 27.7109 39.0189 27.6779Z" fill="#00A8E1"/>
<path d="M39.3622 26.7303C39.491 26.7441 39.7915 26.7633 39.9632 26.7303C40.1349 26.6974 40.3209 26.5793 40.3924 26.5243C40.5641 26.3596 40.65 26.1124 40.65 25.8652C40.65 25.5356 40.5641 25.412 40.4354 25.2472C40.3495 25.1785 40.1778 25 39.9632 25H39.3622C39.2049 25.0412 38.8643 25.1483 38.7613 25.412C38.6583 25.6757 38.6755 25.7553 38.6755 25.9064C38.6755 26.0574 38.7579 26.3563 38.933 26.5243C39.1081 26.6924 39.2907 26.7166 39.3622 26.7303Z" fill="#00A8E1"/>
<path d="M43.6547 28.2547C43.6118 28.0899 43.4916 27.7521 43.3542 27.7191C43.2169 27.6861 42.5244 27.7054 42.1953 27.7191C42.138 27.7191 42.0236 27.7521 42.0236 27.8839V33.4457C42.0379 33.4869 42.0922 33.5775 42.1953 33.6105C42.2983 33.6434 43.1539 33.6242 43.5688 33.6105C43.6261 33.5968 43.7577 33.5446 43.8264 33.4457L43.7835 29.161C44.0267 29.0237 44.6248 28.7655 45.0712 28.8315C45.6292 28.8727 45.8009 29.1336 45.8438 29.2846L45.8868 33.4457C45.9011 33.5006 45.9554 33.6105 46.0585 33.6105H47.475C47.5179 33.5968 47.6123 33.5446 47.6467 33.4457V29.161C47.847 29.01 48.3764 28.7243 48.8915 28.7903C49.4066 28.8562 49.6212 29.1748 49.6641 29.3258V33.3633C49.6641 33.432 49.6985 33.5775 49.8358 33.6105H51.3382C51.3811 33.583 51.467 33.4951 51.467 33.3633V29.0787C51.4383 28.5705 51.0549 27.5461 49.75 27.5131C48.4451 27.4801 47.661 27.9938 47.4321 28.2547C47.2747 28.0075 46.7453 27.5131 45.8868 27.5131C45.0283 27.5131 44.041 28.0075 43.6547 28.2547Z" fill="#00A8E1"/>
<path fill-rule="evenodd" clip-rule="evenodd" d="M54.1283 31.0974C54.071 31.8252 54.6605 33.0831 57.4764 32.2921C57.6481 32.2262 57.691 32.4569 57.691 32.5805V33.1985C57.5336 33.4045 56.9098 33.8165 55.6735 33.8165C53.2698 33.8165 52.583 32.2235 52.5401 31.427C52.3827 30.7678 52.3598 29.194 53.5273 28.1723C55.1756 26.9858 56.8182 27.6779 57.4335 28.1723C57.8198 28.5156 58.395 29.4494 57.6052 30.4382C56.8153 31.427 54.9581 31.2896 54.1283 31.0974ZM55.4589 28.7079C54.3944 28.7079 54.1283 29.6417 54.1283 30.1086C54.4574 30.1498 55.21 30.224 55.5877 30.191C55.9654 30.1581 56.203 29.9301 56.2745 29.8202C56.4462 29.4494 56.5235 28.7079 55.4589 28.7079Z" fill="#00A8E1"/>
<path fill-rule="evenodd" clip-rule="evenodd" d="M27 27.7191V36H28.3736C28.4165 36 28.5195 35.9753 28.5882 35.8764V33.2397C30.1335 34.3109 32.8807 33.7753 32.8807 30.5206C32.8807 27.5131 30.2193 26.8127 28.4165 28.2135C28.4022 28.0762 28.3221 27.785 28.116 27.7191H27ZM30.6915 29.1199C29.9704 28.4936 28.9888 28.8589 28.5882 29.1199V32.0861C29.6871 32.8112 30.4483 32.3883 30.6915 32.0861C31.0006 31.9543 31.0778 30.9875 31.0778 30.5206C31.1122 29.7955 30.8346 29.2846 30.6915 29.1199Z" fill="#00A8E1"/>
<defs>
<linearGradient id="paint0_linear" x1="92.75" y1="81.1765" x2="52.8637" y2="38.8258" gradientUnits="userSpaceOnUse">
<stop stop-color="#1B1B1B"/>
<stop offset="1" stop-color="#1B1B1B" stop-opacity="0"/>
</linearGradient>
<linearGradient id="paint1_linear" x1="16.9914" y1="224.27" x2="184.124" y2="224.938" gradientUnits="userSpaceOnUse">
<stop stop-opacity="0"/>
<stop stop-opacity="0"/>
<stop offset="1"/>
</linearGradient>
<clipPath id="clip0">
<rect width="219" height="494" fill="white" transform="translate(494 64) rotate(90)"/>
</clipPath>
<clipPath id="clip1">
<rect width="60.0157" height="15.1496" fill="white" transform="translate(25.9922 139.33)"/>
</clipPath>
<clipPath id="clip2">
<rect width="67" height="16" fill="white" transform="translate(79 242.811)"/>
</clipPath>
</defs>
</svg>
