<svg width="326" height="200" viewBox="0 0 326 200" fill="none" xmlns="http://www.w3.org/2000/svg">
<rect width="106" height="90" transform="translate(236 106) rotate(-90)" fill="url(#paint0_linear)"/>
<path d="M299.822 21.6639C300.814 21.4569 303.507 21.1317 304.262 21.7526C304.706 22.1178 304.262 24.0585 303.285 26.4088C303.241 26.5861 303.25 26.8966 303.641 26.7192C304.129 26.4975 306.127 23.9255 305.994 20.7326C305.905 20.3779 305.579 20.2659 305.505 20.2449C304.262 19.8901 301.732 19.7127 299.689 21.2204C299.547 21.5042 299.719 21.6343 299.822 21.6639Z" fill="white"/>
<path d="M272.03 20.8213C271.971 20.6735 271.959 20.3779 272.385 20.3779C277.624 23.5707 288.501 28.5373 302.486 22.4177C303.285 22.2404 303.378 23.0726 302.93 23.3933C291.165 31.8188 277.668 27.1183 272.03 20.8213Z" fill="white"/>
<path d="M277.019 35.3669C277.019 35.917 276.952 36.4183 276.818 36.8708C276.688 37.3233 276.493 37.7106 276.232 38.0329C275.972 38.3552 275.648 38.6042 275.261 38.78C274.877 38.9557 274.432 39.0436 273.928 39.0436C273.397 39.0436 272.937 38.9557 272.546 38.78C272.159 38.6042 271.836 38.3552 271.579 38.0329C271.325 37.7106 271.136 37.3233 271.013 36.8708C270.889 36.4151 270.827 35.9105 270.827 35.3571C270.827 34.8037 270.889 34.3024 271.013 33.8532C271.136 33.4007 271.327 33.015 271.584 32.696C271.841 32.377 272.165 32.1312 272.556 31.9587C272.946 31.7829 273.407 31.695 273.938 31.695C274.442 31.695 274.885 31.7829 275.266 31.9587C275.65 32.1312 275.972 32.3786 276.232 32.7009C276.493 33.0199 276.688 33.4056 276.818 33.8581C276.952 34.3073 277.019 34.8102 277.019 35.3669ZM271.789 35.3669C271.789 35.8128 271.831 36.2149 271.916 36.5729C272.001 36.9278 272.129 37.2305 272.302 37.4811C272.478 37.7285 272.699 37.919 272.966 38.0524C273.236 38.1826 273.557 38.2477 273.928 38.2477C274.299 38.2477 274.618 38.1826 274.885 38.0524C275.155 37.919 275.376 37.7285 275.549 37.4811C275.725 37.2305 275.853 36.9278 275.935 36.5729C276.016 36.2149 276.057 35.8128 276.057 35.3669C276.057 34.9177 276.016 34.5156 275.935 34.1608C275.853 33.806 275.726 33.5065 275.554 33.2624C275.381 33.015 275.161 32.8262 274.895 32.696C274.628 32.5625 274.309 32.4958 273.938 32.4958C273.566 32.4958 273.246 32.5625 272.976 32.696C272.705 32.8262 272.482 33.015 272.307 33.2624C272.131 33.5065 272.001 33.806 271.916 34.1608C271.831 34.5156 271.789 34.9177 271.789 35.3669ZM280.808 33.487C280.902 33.487 281.008 33.4919 281.125 33.5016C281.242 33.5082 281.343 33.5196 281.428 33.5358L281.311 34.3561C281.219 34.3399 281.125 34.3268 281.027 34.3171C280.933 34.3041 280.843 34.2975 280.759 34.2975C280.554 34.2975 280.367 34.3399 280.197 34.4245C280.028 34.5059 279.882 34.6247 279.758 34.7809C279.637 34.9339 279.543 35.1195 279.475 35.3376C279.41 35.5524 279.377 35.7917 279.377 36.0554V38.946H278.488V33.5847H279.211L279.318 34.5661H279.357C279.439 34.4261 279.525 34.291 279.616 34.1608C279.711 34.0306 279.815 33.9167 279.929 33.819C280.046 33.7181 280.176 33.6384 280.319 33.5798C280.463 33.5179 280.625 33.487 280.808 33.487ZM283.371 38.946H282.482V33.5847H283.371V38.946ZM282.414 32.1345C282.414 31.9391 282.463 31.7975 282.561 31.7097C282.661 31.6218 282.785 31.5778 282.932 31.5778C283.003 31.5778 283.07 31.5892 283.132 31.612C283.197 31.6315 283.252 31.6641 283.298 31.7097C283.347 31.7552 283.384 31.8138 283.41 31.8854C283.439 31.9538 283.454 32.0368 283.454 32.1345C283.454 32.3233 283.402 32.4649 283.298 32.5593C283.197 32.6504 283.075 32.696 282.932 32.696C282.785 32.696 282.661 32.6504 282.561 32.5593C282.463 32.4681 282.414 32.3265 282.414 32.1345ZM289.201 33.5847V34.1364L288.239 34.2682C288.33 34.3822 288.407 34.5287 288.469 34.7077C288.531 34.8835 288.562 35.0837 288.562 35.3083C288.562 35.5557 288.522 35.7852 288.444 35.9968C288.369 36.2051 288.254 36.3858 288.098 36.5388C287.945 36.6918 287.754 36.8122 287.526 36.9001C287.299 36.9847 287.033 37.027 286.73 37.027C286.659 37.027 286.587 37.027 286.516 37.027C286.444 37.0238 286.385 37.0173 286.34 37.0075C286.285 37.0401 286.229 37.0775 286.174 37.1198C286.122 37.1589 286.073 37.2044 286.027 37.2565C285.985 37.3086 285.949 37.3672 285.92 37.4323C285.894 37.4974 285.881 37.569 285.881 37.6472C285.881 37.735 285.9 37.8067 285.939 37.862C285.979 37.9141 286.031 37.9548 286.096 37.9841C286.164 38.0134 286.244 38.0329 286.335 38.0427C286.426 38.0524 286.522 38.0573 286.623 38.0573H287.482C287.785 38.0573 288.041 38.0964 288.249 38.1745C288.457 38.2494 288.627 38.3519 288.757 38.4821C288.89 38.6123 288.986 38.7669 289.045 38.946C289.104 39.1218 289.133 39.3089 289.133 39.5075C289.133 39.794 289.079 40.0511 288.972 40.279C288.868 40.5069 288.706 40.6989 288.488 40.8552C288.27 41.0147 287.993 41.1367 287.658 41.2214C287.326 41.306 286.934 41.3483 286.481 41.3483C286.133 41.3483 285.829 41.3141 285.568 41.2458C285.308 41.1774 285.091 41.0781 284.919 40.9479C284.746 40.8177 284.616 40.6599 284.528 40.4743C284.444 40.292 284.401 40.0853 284.401 39.8542C284.401 39.6589 284.432 39.4863 284.494 39.3366C284.559 39.1901 284.646 39.0632 284.753 38.9557C284.86 38.8483 284.984 38.7604 285.124 38.6921C285.267 38.6237 285.415 38.5716 285.568 38.5358C285.432 38.474 285.319 38.3763 285.231 38.2429C285.144 38.1094 285.1 37.9564 285.1 37.7839C285.1 37.5853 285.152 37.4144 285.256 37.2712C285.36 37.1247 285.524 36.9831 285.749 36.8464C285.609 36.7878 285.48 36.708 285.363 36.6071C285.249 36.503 285.152 36.3858 285.07 36.2556C284.992 36.1221 284.93 35.9772 284.885 35.821C284.842 35.6647 284.821 35.5036 284.821 35.3376C284.821 35.0479 284.862 34.7891 284.943 34.5612C285.025 34.3334 285.145 34.1397 285.305 33.9802C285.464 33.8207 285.663 33.6986 285.9 33.614C286.138 33.5293 286.415 33.487 286.73 33.487C286.851 33.487 286.975 33.4968 287.102 33.5163C287.232 33.5326 287.341 33.5554 287.429 33.5847H289.201ZM285.241 39.8249C285.241 39.9453 285.262 40.0576 285.305 40.1618C285.347 40.266 285.415 40.3555 285.51 40.4304C285.607 40.5052 285.734 40.5638 285.891 40.6061C286.05 40.6517 286.247 40.6745 286.481 40.6745C287.087 40.6745 287.539 40.5801 287.839 40.3913C288.142 40.2057 288.293 39.9372 288.293 39.5856C288.293 39.4359 288.273 39.3138 288.234 39.2194C288.195 39.125 288.13 39.0502 288.039 38.9948C287.951 38.9427 287.834 38.9069 287.688 38.8874C287.541 38.8679 287.362 38.8581 287.15 38.8581H286.291C286.177 38.8581 286.058 38.8711 285.935 38.8972C285.811 38.9232 285.697 38.972 285.593 39.0436C285.492 39.1153 285.407 39.2129 285.339 39.3366C285.274 39.4636 285.241 39.6263 285.241 39.8249ZM285.69 35.3083C285.69 35.6826 285.778 35.961 285.954 36.1432C286.13 36.3255 286.379 36.4167 286.701 36.4167C287.027 36.4167 287.272 36.3272 287.438 36.1481C287.608 35.9658 287.692 35.681 287.692 35.2936C287.692 34.8932 287.606 34.5987 287.434 34.4099C287.264 34.221 287.017 34.1266 286.691 34.1266C286.369 34.1266 286.122 34.2243 285.949 34.4196C285.777 34.6149 285.69 34.9112 285.69 35.3083ZM291.145 38.946H290.256V33.5847H291.145V38.946ZM290.188 32.1345C290.188 31.9391 290.236 31.7975 290.334 31.7097C290.435 31.6218 290.559 31.5778 290.705 31.5778C290.777 31.5778 290.843 31.5892 290.905 31.612C290.97 31.6315 291.026 31.6641 291.071 31.7097C291.12 31.7552 291.158 31.8138 291.184 31.8854C291.213 31.9538 291.228 32.0368 291.228 32.1345C291.228 32.3233 291.175 32.4649 291.071 32.5593C290.97 32.6504 290.848 32.696 290.705 32.696C290.559 32.696 290.435 32.6504 290.334 32.5593C290.236 32.4681 290.188 32.3265 290.188 32.1345ZM296.193 38.946V35.4938C296.193 35.0707 296.107 34.7533 295.935 34.5417C295.765 34.3301 295.498 34.2243 295.134 34.2243C294.87 34.2243 294.649 34.2666 294.47 34.3513C294.291 34.4359 294.146 34.5612 294.035 34.7272C293.928 34.8932 293.85 35.0967 293.801 35.3376C293.755 35.5785 293.732 35.8552 293.732 36.1677V38.946H292.844V33.5847H293.566L293.693 34.3073H293.742C293.824 34.1673 293.92 34.0469 294.03 33.946C294.144 33.8418 294.268 33.7556 294.401 33.6872C294.535 33.6188 294.676 33.5684 294.826 33.5358C294.976 33.5033 295.129 33.487 295.285 33.487C295.881 33.487 296.328 33.6432 296.628 33.9557C296.931 34.265 297.082 34.7614 297.082 35.445V38.946H296.193ZM301.755 38.946L301.574 38.2038H301.535C301.428 38.3503 301.32 38.4772 301.213 38.5847C301.105 38.6888 300.988 38.7751 300.861 38.8434C300.734 38.9118 300.593 38.9623 300.437 38.9948C300.28 39.0274 300.1 39.0436 299.895 39.0436C299.67 39.0436 299.463 39.0111 299.274 38.946C299.086 38.8841 298.921 38.7881 298.781 38.6579C298.645 38.5244 298.537 38.3584 298.459 38.1599C298.381 37.958 298.342 37.7204 298.342 37.447C298.342 36.9131 298.529 36.503 298.903 36.2165C299.281 35.93 299.854 35.7738 300.622 35.7477L301.521 35.7136V35.3766C301.521 35.1585 301.496 34.9763 301.447 34.8298C301.402 34.6833 301.333 34.5661 301.242 34.4782C301.154 34.3871 301.044 34.322 300.91 34.2829C300.78 34.2438 300.63 34.2243 300.461 34.2243C300.191 34.2243 299.938 34.2634 299.704 34.3415C299.473 34.4196 299.25 34.514 299.035 34.6247L298.723 33.9557C298.964 33.8255 299.232 33.7149 299.528 33.6237C299.825 33.5326 300.135 33.487 300.461 33.487C300.793 33.487 301.079 33.5212 301.32 33.5895C301.564 33.6546 301.765 33.7604 301.921 33.9069C302.08 34.0502 302.199 34.2341 302.277 34.4587C302.355 34.6833 302.395 34.9551 302.395 35.2741V38.946L301.755 38.946ZM300.124 38.3259C300.323 38.3259 300.507 38.2949 300.676 38.2331C300.845 38.1712 300.992 38.0785 301.115 37.9548C301.239 37.8278 301.335 37.6699 301.403 37.4811C301.475 37.2891 301.511 37.0645 301.511 36.8073V36.3239L300.812 36.3581C300.52 36.3711 300.274 36.4037 300.075 36.4557C299.877 36.5078 299.717 36.5811 299.597 36.6755C299.479 36.7666 299.395 36.8789 299.343 37.0124C299.291 37.1426 299.265 37.2907 299.265 37.4567C299.265 37.7562 299.343 37.9759 299.499 38.1159C299.659 38.2559 299.867 38.3259 300.124 38.3259ZM304.934 38.946H304.045V31.3483H304.934V38.946Z" fill="white"/>
<path d="M20 31C20 24.9249 24.9249 20 31 20H53C59.0751 20 64 24.9249 64 31V31C64 37.0751 59.0751 42 53 42H31C24.9249 42 20 37.0751 20 31V31Z" fill="white" fill-opacity="0.8"/>
<path fill-rule="evenodd" clip-rule="evenodd" d="M27 27.7191V36H28.3736C28.4165 36 28.5195 35.9753 28.5882 35.8764V33.2397C30.1335 34.3109 32.8807 33.7753 32.8807 30.5206C32.8807 27.5131 30.2193 26.8127 28.4165 28.2135C28.4022 28.0762 28.3221 27.785 28.116 27.7191H27ZM30.6915 29.1199C29.9704 28.4936 28.9888 28.8589 28.5882 29.1199V32.0861C29.6871 32.8112 30.4483 32.3883 30.6915 32.0861C31.0006 31.9543 31.0778 30.9875 31.0778 30.5206C31.1122 29.7955 30.8346 29.2846 30.6915 29.1199Z" fill="#00A8E1"/>
<path d="M34.0396 33.4457V27.8839C34.0396 27.829 34.074 27.7109 34.2113 27.6779H35.2844C35.3417 27.6367 35.499 27.7356 35.6707 28.4607C35.6851 28.5019 35.7308 28.5678 35.7995 28.5019C35.8854 28.4195 36.7009 27.5543 37.5594 27.6367C37.9028 27.6367 37.9887 27.774 37.9887 27.8427V28.9963C37.9744 29.0649 37.9114 29.2022 37.774 29.2022C36.5722 29.1363 35.9569 29.3396 35.7995 29.4494V33.4457C35.7995 33.4869 35.7738 33.5775 35.6707 33.6105H34.1684C34.1255 33.6105 34.0396 33.5775 34.0396 33.4457Z" fill="#00A8E1"/>
<path d="M39.0189 27.6779H40.3066C40.3781 27.6916 40.5212 27.7521 40.5212 27.8839V33.4457C40.5069 33.4869 40.4525 33.5775 40.3495 33.6105H38.9759C38.9187 33.5968 38.7956 33.5446 38.7613 33.4457L38.8042 27.8839C38.8042 27.829 38.8472 27.7109 39.0189 27.6779Z" fill="#00A8E1"/>
<path d="M39.3622 26.7303C39.491 26.7441 39.7915 26.7633 39.9632 26.7303C40.1349 26.6974 40.3209 26.5793 40.3924 26.5243C40.5641 26.3596 40.65 26.1124 40.65 25.8652C40.65 25.5356 40.5641 25.412 40.4354 25.2472C40.3495 25.1785 40.1778 25 39.9632 25H39.3622C39.2049 25.0412 38.8643 25.1483 38.7613 25.412C38.6583 25.6757 38.6755 25.7553 38.6755 25.9064C38.6755 26.0574 38.7579 26.3563 38.933 26.5243C39.1081 26.6924 39.2907 26.7166 39.3622 26.7303Z" fill="#00A8E1"/>
<path d="M43.6547 28.2547C43.6118 28.0899 43.4916 27.7521 43.3542 27.7191C43.2169 27.6861 42.5244 27.7054 42.1953 27.7191C42.138 27.7191 42.0236 27.7521 42.0236 27.8839V33.4457C42.0379 33.4869 42.0922 33.5775 42.1953 33.6105C42.2983 33.6434 43.1539 33.6242 43.5688 33.6105C43.6261 33.5968 43.7577 33.5446 43.8264 33.4457L43.7835 29.161C44.0267 29.0237 44.6248 28.7655 45.0712 28.8315C45.6292 28.8727 45.8009 29.1336 45.8438 29.2846L45.8868 33.4457C45.9011 33.5006 45.9554 33.6105 46.0585 33.6105H47.475C47.5179 33.5968 47.6123 33.5446 47.6467 33.4457V29.161C47.847 29.01 48.3764 28.7243 48.8915 28.7903C49.4066 28.8562 49.6212 29.1748 49.6641 29.3258V33.3633C49.6641 33.432 49.6985 33.5775 49.8358 33.6105H51.3382C51.3811 33.583 51.467 33.4951 51.467 33.3633V29.0787C51.4383 28.5705 51.0549 27.5461 49.75 27.5131C48.4451 27.4801 47.661 27.9938 47.4321 28.2547C47.2747 28.0075 46.7453 27.5131 45.8868 27.5131C45.0283 27.5131 44.041 28.0075 43.6547 28.2547Z" fill="#00A8E1"/>
<path fill-rule="evenodd" clip-rule="evenodd" d="M54.1283 31.0974C54.071 31.8252 54.6605 33.0831 57.4764 32.2921C57.6481 32.2262 57.691 32.4569 57.691 32.5805V33.1985C57.5336 33.4045 56.9098 33.8165 55.6735 33.8165C53.2698 33.8165 52.583 32.2235 52.5401 31.427C52.3827 30.7678 52.3598 29.194 53.5273 28.1723C55.1756 26.9858 56.8182 27.6779 57.4335 28.1723C57.8198 28.5156 58.395 29.4494 57.6052 30.4382C56.8153 31.427 54.9581 31.2896 54.1283 31.0974ZM55.4589 28.7079C54.3944 28.7079 54.1283 29.6417 54.1283 30.1086C54.4574 30.1498 55.21 30.224 55.5877 30.191C55.9654 30.1581 56.203 29.9301 56.2745 29.8202C56.4462 29.4494 56.5235 28.7079 55.4589 28.7079Z" fill="#00A8E1"/>
<path fill-rule="evenodd" clip-rule="evenodd" d="M27 27.7191V36H28.3736C28.4165 36 28.5195 35.9753 28.5882 35.8764V33.2397C30.1335 34.3109 32.8807 33.7753 32.8807 30.5206C32.8807 27.5131 30.2193 26.8127 28.4165 28.2135C28.4022 28.0762 28.3221 27.785 28.116 27.7191H27ZM30.6915 29.1199C29.9704 28.4936 28.9888 28.8589 28.5882 29.1199V32.0861C29.6871 32.8112 30.4483 32.3883 30.6915 32.0861C31.0006 31.9543 31.0778 30.9875 31.0778 30.5206C31.1122 29.7955 30.8346 29.2846 30.6915 29.1199Z" fill="#00A8E1"/>
<g clip-path="url(#clip0)">
<rect width="179" height="326" transform="translate(326 21) rotate(90)" fill="url(#paint1_linear)"/>
<rect x="24.4313" y="89.4313" width="53.9091" height="13.8007" rx="6.90036" fill="#111111" fill-opacity="0.2"/>
<g clip-path="url(#clip1)">
<g clip-path="url(#clip2)">
<path d="M37.2124 95.6945C37.2124 95.2422 36.8917 94.8639 36.4667 94.7728C36.6365 94.4893 36.7407 94.1615 36.7407 93.8077C36.7407 92.7671 35.8945 91.9209 34.8539 91.9209C34.1383 91.9209 33.5232 92.3251 33.2029 92.9134C32.8827 92.3251 32.2676 91.9209 31.552 91.9209C30.5114 91.9209 29.6652 92.7671 29.6652 93.8077C29.6652 94.2332 29.8123 94.6224 30.0505 94.9379C29.9315 95.025 29.8346 95.1388 29.7676 95.2703C29.7007 95.4017 29.6656 95.547 29.6652 95.6945V99.4682C29.6652 99.9885 30.0883 100.412 30.6086 100.412H36.269C36.7893 100.412 37.2124 99.9885 37.2124 99.4682V98.2238L39.0993 99.1672V95.8653L37.2124 96.8087V95.6945ZM34.8539 92.8643C35.3742 92.8643 35.7973 93.2874 35.7973 93.8077C35.7973 94.328 35.3742 94.7511 34.8539 94.7511C34.3336 94.7511 33.9105 94.328 33.9105 93.8077C33.9105 93.2874 34.3336 92.8643 34.8539 92.8643ZM31.552 92.8643C32.0723 92.8643 32.4954 93.2874 32.4954 93.8077C32.4954 94.328 32.0723 94.7511 31.552 94.7511C31.0317 94.7511 30.6086 94.328 30.6086 93.8077C30.6086 93.2874 31.0317 92.8643 31.552 92.8643ZM30.6086 99.4682V95.6945H36.269L36.27 99.4682H30.6086Z" fill="white"/>
</g>
<path d="M49.4907 93.4978V94.2559H47.2164V100.725H46.2814V94.2559H44.0071V93.4978H49.4907ZM50.5065 100.725V95.4184H51.1383L51.305 96.0956C51.77 95.6441 52.3293 95.4184 52.983 95.4184V96.1967C52.3495 96.1967 51.8357 96.4207 51.4415 96.8689V100.725H50.5065ZM53.6703 99.1229C53.6703 98.0346 54.388 97.4905 55.8233 97.4905C56.2849 97.4905 56.7465 97.5242 57.2081 97.5916V97.0912C57.2081 96.4814 56.7313 96.1765 55.7778 96.1765C55.232 96.1765 54.6727 96.2607 54.0999 96.4292V95.6711C54.6727 95.5026 55.232 95.4184 55.7778 95.4184C57.3546 95.4184 58.1431 95.9676 58.1431 97.066V100.725H57.6175L57.294 100.199C56.765 100.55 56.1889 100.725 55.5655 100.725C54.302 100.725 53.6703 100.191 53.6703 99.1229ZM55.8233 98.2486C55.0113 98.2486 54.6053 98.535 54.6053 99.1078C54.6053 99.6805 54.9254 99.9669 55.5655 99.9669C56.2124 99.9669 56.76 99.7951 57.2081 99.4514V98.3497C56.7465 98.2823 56.2849 98.2486 55.8233 98.2486ZM60.7004 95.4184V100.725H59.7654V95.4184H60.7004ZM60.7004 93.4978V94.3823H59.7654V93.4978H60.7004ZM63.3082 93.4978V100.725H62.3732V93.4978H63.3082ZM67.0684 95.4184C68.5778 95.4184 69.3326 96.1647 69.3326 97.6573C69.3326 97.8695 69.3174 98.097 69.2871 98.3396H65.5623C65.5623 99.4245 66.1957 99.9669 67.4626 99.9669C68.0657 99.9669 68.6014 99.8996 69.0698 99.7648V100.523C68.6014 100.658 68.032 100.725 67.3615 100.725C65.5387 100.725 64.6273 99.8204 64.6273 98.011C64.6273 96.2826 65.441 95.4184 67.0684 95.4184ZM65.5623 97.5612H68.433C68.4128 96.6313 67.9579 96.1663 67.0684 96.1663C66.125 96.1663 65.623 96.6313 65.5623 97.5612ZM70.591 100.725V95.4184H71.2228L71.3895 96.0956C71.8545 95.6441 72.4138 95.4184 73.0675 95.4184V96.1967C72.434 96.1967 71.9202 96.4207 71.526 96.8689V100.725H70.591Z" fill="white"/>
</g>
<rect x="24.4313" y="89.4313" width="53.9091" height="13.8007" rx="6.90036" stroke="white" stroke-width="0.862546"/>
<path d="M25.0842 122.584V112.248H26.9997V116.513H32.0955V112.248H34.0109V122.584H32.0955V118.175H26.9997V122.584H25.0842ZM35.6445 120.221C35.6445 118.713 36.7431 117.958 38.9405 117.958C39.4561 117.958 39.9717 118.007 40.4873 118.103V117.532C40.4873 116.853 39.9982 116.513 39.02 116.513C38.1912 116.513 37.2708 116.633 36.2589 116.874V115.356C37.2708 115.115 38.1912 114.995 39.02 114.995C41.2752 114.995 42.4027 115.829 42.4027 117.496V122.584H41.2896L40.6102 121.905C39.95 122.358 39.2224 122.584 38.4273 122.584C36.5721 122.584 35.6445 121.797 35.6445 120.221ZM40.4873 119.404C40.0054 119.308 39.4898 119.26 38.9405 119.26C38.0201 119.26 37.5599 119.573 37.5599 120.199C37.5599 120.874 37.9454 121.211 38.7164 121.211C39.3525 121.211 39.9428 121.014 40.4873 120.618V119.404ZM44.217 122.584V114.995H45.6988L45.9373 116.108C46.6649 115.366 47.4937 114.995 48.4238 114.995C50.2211 114.995 51.1198 115.93 51.1198 117.799V122.584H49.2044V117.799C49.2044 116.961 48.7876 116.542 47.9539 116.542C47.3323 116.542 46.7251 116.79 46.1324 117.286V122.584H44.217ZM52.9341 122.584V114.995H54.4158L54.6544 116.108C55.382 115.366 56.2108 114.995 57.1408 114.995C58.9382 114.995 59.8369 115.93 59.8369 117.799V122.584H57.9215V117.799C57.9215 116.961 57.5047 116.542 56.671 116.542C56.0494 116.542 55.4422 116.79 54.8495 117.286V122.584H52.9341ZM61.2898 120.221C61.2898 118.713 62.3884 117.958 64.5858 117.958C65.1014 117.958 65.617 118.007 66.1326 118.103V117.532C66.1326 116.853 65.6435 116.513 64.6653 116.513C63.8365 116.513 62.9161 116.633 61.9042 116.874V115.356C62.9161 115.115 63.8365 114.995 64.6653 114.995C66.9205 114.995 68.048 115.829 68.048 117.496V122.584H66.9349L66.2555 121.905C65.5953 122.358 64.8677 122.584 64.0726 122.584C62.2174 122.584 61.2898 121.797 61.2898 120.221ZM66.1326 119.404C65.6507 119.308 65.1351 119.26 64.5858 119.26C63.6654 119.26 63.2052 119.573 63.2052 120.199C63.2052 120.874 63.5907 121.211 64.3617 121.211C64.9978 121.211 65.5881 121.014 66.1326 120.618V119.404Z" fill="white"/>
<path d="M28.6259 133.663L27.3104 136.328L24.37 136.753L26.4979 138.829L25.9949 141.758L28.6259 140.376L31.2569 141.758L30.7539 138.829L32.8818 136.756L29.9414 136.328L28.6259 133.663Z" fill="#F39B13"/>
<path d="M36.4568 141.789L39.3054 135.232H35.4904V134.392H40.2465V135.126L37.4384 141.789H36.4568ZM41.4861 141.228C41.4861 141.099 41.503 140.991 41.5367 140.904C41.5704 140.813 41.616 140.74 41.6733 140.686C41.7307 140.629 41.7981 140.588 41.8757 140.565C41.9533 140.538 42.0376 140.524 42.1287 140.524C42.2164 140.524 42.299 140.538 42.3766 140.565C42.4576 140.588 42.5267 140.629 42.5841 140.686C42.6414 140.74 42.6869 140.813 42.7207 140.904C42.7544 140.991 42.7713 141.099 42.7713 141.228C42.7713 141.352 42.7544 141.46 42.7207 141.551C42.6869 141.639 42.6414 141.712 42.5841 141.769C42.5267 141.826 42.4576 141.868 42.3766 141.895C42.299 141.922 42.2164 141.936 42.1287 141.936C42.0376 141.936 41.9533 141.922 41.8757 141.895C41.7981 141.868 41.7307 141.826 41.6733 141.769C41.616 141.712 41.5704 141.639 41.5367 141.551C41.503 141.46 41.4861 141.352 41.4861 141.228ZM44.0969 138.627C44.0969 138.273 44.1138 137.92 44.1475 137.569C44.1846 137.219 44.247 136.883 44.3347 136.563C44.4258 136.239 44.5489 135.939 44.7041 135.662C44.8592 135.385 45.0566 135.146 45.296 134.943C45.5355 134.738 45.8223 134.577 46.1562 134.463C46.4901 134.345 46.8814 134.286 47.33 134.286C47.3941 134.286 47.465 134.287 47.5425 134.291C47.6201 134.294 47.6977 134.301 47.7753 134.311C47.8562 134.318 47.9321 134.328 48.003 134.341C48.0772 134.351 48.143 134.365 48.2003 134.382V135.166C48.0822 135.126 47.949 135.095 47.8006 135.075C47.6522 135.055 47.5054 135.045 47.3604 135.045C47.0568 135.045 46.7887 135.082 46.5559 135.156C46.3265 135.227 46.1275 135.328 45.9589 135.46C45.7902 135.591 45.6485 135.748 45.5339 135.93C45.4225 136.112 45.3315 136.315 45.2606 136.537C45.1898 136.756 45.1375 136.991 45.1038 137.241C45.07 137.49 45.0481 137.75 45.038 138.02H45.0987C45.1662 137.898 45.2471 137.785 45.3416 137.681C45.4394 137.573 45.5524 137.482 45.6806 137.408C45.8088 137.33 45.9521 137.269 46.1107 137.225C46.2726 137.182 46.453 137.16 46.652 137.16C46.9725 137.16 47.2626 137.21 47.5223 137.311C47.782 137.409 48.003 137.554 48.1851 137.747C48.3673 137.939 48.5073 138.175 48.6051 138.455C48.7063 138.731 48.7569 139.049 48.7569 139.406C48.7569 139.791 48.7046 140.136 48.6 140.443C48.4954 140.75 48.3453 141.012 48.1497 141.228C47.9541 141.44 47.7179 141.604 47.4413 141.718C47.1648 141.833 46.8544 141.89 46.5104 141.89C46.1731 141.89 45.856 141.825 45.5592 141.693C45.2657 141.561 45.011 141.361 44.7951 141.091C44.5793 140.821 44.4089 140.482 44.2841 140.074C44.1593 139.666 44.0969 139.183 44.0969 138.627ZM46.5002 141.116C46.7026 141.116 46.8865 141.083 47.0518 141.015C47.2204 140.944 47.3655 140.84 47.4869 140.701C47.6083 140.56 47.7011 140.383 47.7652 140.17C47.8326 139.954 47.8664 139.7 47.8664 139.406C47.8664 139.17 47.8377 138.959 47.7803 138.774C47.7264 138.585 47.6437 138.425 47.5324 138.293C47.4211 138.161 47.2811 138.06 47.1125 137.989C46.9472 137.919 46.7532 137.883 46.5306 137.883C46.3046 137.883 46.0972 137.924 45.9083 138.005C45.7227 138.082 45.5642 138.185 45.4327 138.313C45.3011 138.438 45.1982 138.581 45.124 138.743C45.0532 138.905 45.0178 139.067 45.0178 139.229C45.0178 139.455 45.0481 139.681 45.1088 139.907C45.1729 140.13 45.2657 140.33 45.3871 140.509C45.5119 140.688 45.6671 140.835 45.8526 140.949C46.0381 141.061 46.254 141.116 46.5002 141.116Z" fill="white"/>
<path d="M52.9789 134.554V141.789H52.0429V134.554H52.9789ZM54.856 141.789V134.554H56.0451L58.7014 140.59L61.3071 134.554H62.4455V141.789H61.6107V135.854L59.0404 141.789H58.3017L55.6909 135.854V141.789H54.856ZM66.7969 141.03C68.5677 141.03 69.4532 140.012 69.4532 137.974C69.4532 136.2 68.5677 135.313 66.7969 135.313H65.1019V141.03H66.7969ZM64.1658 141.789V134.554H66.7969C69.1918 134.554 70.3892 135.694 70.3892 137.974C70.3892 140.518 69.1918 141.789 66.7969 141.789H64.1658ZM72.5902 140.863C72.8971 140.961 73.2699 141.01 73.7084 141.01C74.889 141.01 75.4793 140.337 75.4793 138.991C75.4793 137.854 74.9446 137.286 73.8753 137.286C73.3896 137.286 72.9612 137.377 72.5902 137.559V140.863ZM71.6541 134.554H72.5902V136.73C72.9916 136.561 73.4217 136.477 73.8804 136.477C75.5602 136.477 76.4001 137.327 76.4001 139.027C76.4001 140.868 75.518 141.789 73.7539 141.789C72.9916 141.789 72.2917 141.717 71.6541 141.572V134.554Z" fill="white"/>
<path d="M29.3784 158.553H24.4149V157.465L26.1554 155.588C26.3747 155.352 26.5737 155.134 26.7525 154.935C26.9312 154.736 27.0847 154.542 27.2129 154.354C27.3411 154.165 27.4406 153.972 27.5114 153.777C27.5822 153.581 27.6177 153.37 27.6177 153.144C27.6177 152.895 27.5418 152.701 27.39 152.562C27.2416 152.424 27.0409 152.355 26.7879 152.355C26.5214 152.355 26.265 152.421 26.0188 152.552C25.7726 152.684 25.5145 152.871 25.2447 153.114L24.3947 152.107C24.5464 151.969 24.705 151.837 24.8703 151.712C25.0355 151.584 25.2177 151.471 25.4167 151.373C25.6157 151.276 25.835 151.198 26.0745 151.141C26.314 151.08 26.5821 151.05 26.879 151.05C27.2331 151.05 27.5502 151.098 27.8302 151.196C28.1135 151.294 28.3547 151.434 28.5537 151.616C28.7527 151.795 28.9045 152.013 29.0091 152.269C29.117 152.525 29.171 152.814 29.171 153.134C29.171 153.424 29.1204 153.703 29.0192 153.969C28.918 154.232 28.7797 154.492 28.6043 154.748C28.4289 155.001 28.2248 155.254 27.9921 155.507C27.7627 155.757 27.5165 156.011 27.2534 156.271L26.3629 157.167V157.238H29.3784V158.553ZM37.3828 156.499C37.3828 156.829 37.3255 157.128 37.2108 157.394C37.0995 157.657 36.9342 157.883 36.715 158.072C36.4991 158.258 36.2326 158.401 35.9155 158.502C35.6018 158.604 35.2409 158.654 34.8328 158.654C34.4752 158.654 34.1295 158.617 33.7955 158.543C33.465 158.469 33.158 158.357 32.8747 158.209V156.752C33.0366 156.829 33.2002 156.905 33.3655 156.979C33.5307 157.05 33.6977 157.114 33.8664 157.172C34.0384 157.229 34.2087 157.275 34.3774 157.308C34.5494 157.342 34.7198 157.359 34.8884 157.359C35.0604 157.359 35.2072 157.34 35.3286 157.303C35.4534 157.263 35.5529 157.209 35.6271 157.141C35.7047 157.071 35.7604 156.988 35.7941 156.893C35.8312 156.796 35.8497 156.689 35.8497 156.575C35.8497 156.436 35.8194 156.315 35.7587 156.21C35.7013 156.102 35.6187 156.003 35.5108 155.912C35.4062 155.817 35.278 155.726 35.1262 155.639C34.9778 155.551 34.8108 155.458 34.6253 155.36C34.4701 155.279 34.2964 155.182 34.1042 155.067C33.9119 154.952 33.7297 154.811 33.5577 154.642C33.3891 154.47 33.2474 154.264 33.1327 154.025C33.018 153.782 32.9607 153.492 32.9607 153.154C32.9607 152.824 33.0146 152.529 33.1226 152.269C33.2339 152.006 33.3907 151.785 33.5931 151.606C33.7955 151.424 34.0401 151.286 34.3268 151.191C34.6169 151.097 34.9407 151.05 35.2982 151.05C35.477 151.05 35.6507 151.061 35.8194 151.085C35.9914 151.109 36.1601 151.142 36.3254 151.186C36.494 151.23 36.6627 151.284 36.8313 151.348C37 151.412 37.1737 151.486 37.3525 151.571L36.8465 152.79C36.6947 152.719 36.553 152.657 36.4215 152.603C36.2899 152.549 36.1618 152.503 36.037 152.466C35.9122 152.429 35.789 152.402 35.6676 152.385C35.5495 152.365 35.4298 152.355 35.3084 152.355C35.0453 152.355 34.8429 152.426 34.7012 152.567C34.5629 152.706 34.4938 152.891 34.4938 153.124C34.4938 153.249 34.514 153.36 34.5545 153.458C34.5983 153.552 34.6658 153.642 34.7569 153.726C34.8513 153.81 34.9711 153.896 35.1161 153.984C35.2645 154.072 35.4433 154.171 35.6524 154.283C35.9054 154.418 36.1382 154.556 36.3507 154.698C36.5632 154.836 36.7453 154.991 36.8971 155.163C37.0523 155.332 37.172 155.524 37.2563 155.74C37.3407 155.956 37.3828 156.209 37.3828 156.499ZM40.9297 153.888C40.6564 153.888 40.4288 153.984 40.2466 154.176C40.0678 154.369 39.9649 154.671 39.938 155.082H41.9062C41.9028 154.91 41.8809 154.752 41.8404 154.606C41.7999 154.461 41.7392 154.337 41.6583 154.232C41.5773 154.124 41.4761 154.04 41.3547 153.979C41.2332 153.918 41.0916 153.888 40.9297 153.888ZM41.127 158.654C40.7222 158.654 40.3495 158.595 40.0088 158.477C39.6681 158.359 39.3747 158.182 39.1284 157.946C38.8822 157.706 38.6899 157.406 38.5516 157.045C38.4167 156.681 38.3492 156.254 38.3492 155.765C38.3492 155.269 38.4116 154.836 38.5364 154.465C38.6612 154.094 38.835 153.785 39.0576 153.539C39.2836 153.289 39.5534 153.102 39.8671 152.977C40.1842 152.852 40.535 152.79 40.9195 152.79C41.294 152.79 41.6313 152.847 41.9315 152.962C42.2351 153.073 42.4914 153.239 42.7005 153.458C42.913 153.677 43.075 153.947 43.1863 154.267C43.301 154.585 43.3583 154.949 43.3583 155.36V156.109H39.9076C39.9144 156.325 39.9481 156.521 40.0088 156.696C40.0729 156.868 40.1606 157.015 40.2719 157.136C40.3866 157.254 40.5232 157.345 40.6817 157.41C40.8436 157.474 41.0275 157.506 41.2332 157.506C41.4053 157.506 41.5672 157.497 41.719 157.48C41.8741 157.46 42.0242 157.431 42.1693 157.394C42.3143 157.357 42.4577 157.312 42.5993 157.258C42.741 157.2 42.8861 157.135 43.0345 157.06V158.255C42.8996 158.325 42.7629 158.386 42.6246 158.437C42.4897 158.484 42.3464 158.524 42.1946 158.558C42.0428 158.592 41.8792 158.615 41.7038 158.629C41.5284 158.646 41.3361 158.654 41.127 158.654ZM47.9474 158.553L47.6489 157.784H47.6034C47.4921 157.936 47.3807 158.067 47.2694 158.179C47.1581 158.287 47.0367 158.376 46.9051 158.447C46.7736 158.518 46.6252 158.57 46.4599 158.604C46.298 158.637 46.1091 158.654 45.8932 158.654C45.6638 158.654 45.4513 158.619 45.2557 158.548C45.06 158.474 44.8897 158.364 44.7446 158.219C44.603 158.071 44.4917 157.885 44.4107 157.663C44.3298 157.437 44.2893 157.17 44.2893 156.863C44.2893 156.263 44.4815 155.821 44.8661 155.537C45.2506 155.251 45.8257 155.092 46.5914 155.062L47.4921 155.032V154.606C47.4921 154.374 47.4246 154.202 47.2897 154.09C47.1547 153.979 46.9658 153.923 46.723 153.923C46.4801 153.923 46.2423 153.959 46.0096 154.03C45.7802 154.101 45.5491 154.195 45.3164 154.313L44.8155 153.291C45.0988 153.132 45.4125 153.008 45.7566 152.917C46.1006 152.825 46.4616 152.78 46.8394 152.78C47.5443 152.78 48.084 152.945 48.4584 153.276C48.8362 153.606 49.0251 154.109 49.0251 154.784V158.553H47.9474ZM47.4921 155.932L46.981 155.952C46.7753 155.959 46.6015 155.986 46.4599 156.033C46.3182 156.081 46.2035 156.145 46.1158 156.226C46.0315 156.303 45.9691 156.398 45.9286 156.509C45.8915 156.617 45.873 156.738 45.873 156.873C45.873 157.109 45.9303 157.278 46.045 157.379C46.1597 157.477 46.3098 157.526 46.4953 157.526C46.637 157.526 46.7685 157.502 46.8899 157.455C47.0114 157.404 47.1159 157.332 47.2036 157.238C47.2947 157.14 47.3656 157.022 47.4162 156.883C47.4668 156.742 47.4921 156.58 47.4921 156.398V155.932ZM54.3833 156.873C54.3833 157.17 54.3294 157.43 54.2214 157.652C54.1135 157.875 53.96 158.061 53.761 158.209C53.562 158.357 53.3208 158.469 53.0375 158.543C52.7541 158.617 52.437 158.654 52.0862 158.654C51.9007 158.654 51.7287 158.647 51.5701 158.634C51.4116 158.624 51.2615 158.605 51.1198 158.578C50.9782 158.551 50.8416 158.518 50.71 158.477C50.5785 158.437 50.4452 158.386 50.3103 158.325V157.05C50.452 157.121 50.6004 157.185 50.7555 157.243C50.9141 157.3 51.0709 157.351 51.2261 157.394C51.3813 157.435 51.5314 157.467 51.6764 157.491C51.8248 157.514 51.9614 157.526 52.0862 157.526C52.2245 157.526 52.3426 157.514 52.4404 157.491C52.5382 157.464 52.6175 157.428 52.6782 157.384C52.7423 157.337 52.7878 157.283 52.8148 157.222C52.8452 157.158 52.8604 157.091 52.8604 157.02C52.8604 156.949 52.8486 156.887 52.8249 156.833C52.8047 156.775 52.7558 156.716 52.6782 156.656C52.6006 156.592 52.4859 156.521 52.3342 156.443C52.1857 156.362 51.985 156.264 51.7321 156.15C51.4858 156.038 51.2716 155.929 51.0895 155.821C50.9107 155.71 50.7623 155.586 50.6442 155.451C50.5295 155.317 50.4435 155.163 50.3862 154.991C50.3288 154.816 50.3002 154.608 50.3002 154.369C50.3002 154.106 50.3508 153.876 50.452 153.681C50.5532 153.482 50.6965 153.316 50.882 153.185C51.0676 153.053 51.2902 152.955 51.5499 152.891C51.813 152.824 52.1048 152.79 52.4252 152.79C52.7625 152.79 53.083 152.829 53.3866 152.906C53.6901 152.984 54.0022 153.1 54.3226 153.256L53.8571 154.348C53.6008 154.227 53.3562 154.128 53.1235 154.05C52.8907 153.972 52.658 153.934 52.4252 153.934C52.2161 153.934 52.0643 153.971 51.9699 154.045C51.8788 154.119 51.8332 154.22 51.8332 154.348C51.8332 154.416 51.8451 154.477 51.8687 154.531C51.8923 154.581 51.9395 154.635 52.0103 154.693C52.0812 154.746 52.1807 154.807 52.3089 154.875C52.437 154.939 52.604 155.018 52.8098 155.112C53.0493 155.217 53.2651 155.322 53.4574 155.426C53.6497 155.527 53.815 155.644 53.9533 155.775C54.0915 155.907 54.1978 156.06 54.272 156.236C54.3462 156.411 54.3833 156.624 54.3833 156.873ZM56.8879 155.715C56.8879 156.278 56.9671 156.703 57.1257 156.99C57.2842 157.273 57.5422 157.415 57.8998 157.415C58.254 157.415 58.5103 157.271 58.6689 156.985C58.8274 156.698 58.9067 156.275 58.9067 155.715C58.9067 155.151 58.8274 154.731 58.6689 154.455C58.5103 154.175 58.2506 154.035 57.8897 154.035C57.5355 154.035 57.2791 154.175 57.1206 154.455C56.9654 154.731 56.8879 155.151 56.8879 155.715ZM60.4802 155.715C60.4802 156.187 60.4195 156.605 60.2981 156.969C60.18 157.334 60.008 157.641 59.782 157.89C59.5594 158.14 59.2861 158.33 58.9623 158.462C58.6419 158.59 58.281 158.654 57.8796 158.654C57.5051 158.654 57.1611 158.59 56.8474 158.462C56.5337 158.33 56.2621 158.14 56.0328 157.89C55.8068 157.641 55.6297 157.334 55.5015 156.969C55.3733 156.605 55.3092 156.187 55.3092 155.715C55.3092 155.246 55.3683 154.829 55.4863 154.465C55.6078 154.101 55.7798 153.795 56.0024 153.549C56.2284 153.299 56.5016 153.111 56.8221 152.982C57.1425 152.854 57.5051 152.79 57.9099 152.79C58.2843 152.79 58.6284 152.854 58.9421 152.982C59.2558 153.111 59.5256 153.299 59.7516 153.549C59.981 153.795 60.1598 154.101 60.288 154.465C60.4161 154.829 60.4802 155.246 60.4802 155.715ZM66.7239 158.553H65.1807V155.249C65.1807 154.841 65.1183 154.536 64.9935 154.333C64.872 154.128 64.6764 154.025 64.4065 154.025C64.2041 154.025 64.0355 154.065 63.9006 154.146C63.7656 154.227 63.6577 154.347 63.5767 154.505C63.4992 154.664 63.4435 154.859 63.4098 155.092C63.376 155.325 63.3592 155.591 63.3592 155.892V158.553H61.816V152.896H62.9949L63.2023 153.62H63.2883C63.3693 153.475 63.4671 153.35 63.5818 153.245C63.6999 153.141 63.828 153.055 63.9663 152.987C64.1046 152.92 64.2514 152.871 64.4065 152.841C64.5617 152.807 64.7202 152.79 64.8821 152.79C65.1587 152.79 65.41 152.831 65.636 152.912C65.862 152.989 66.056 153.112 66.2179 153.281C66.3798 153.45 66.5046 153.665 66.5923 153.929C66.68 154.188 66.7239 154.5 66.7239 154.865V158.553ZM72.082 156.873C72.082 157.17 72.0281 157.43 71.9201 157.652C71.8122 157.875 71.6587 158.061 71.4597 158.209C71.2607 158.357 71.0195 158.469 70.7362 158.543C70.4528 158.617 70.1358 158.654 69.785 158.654C69.5994 158.654 69.4274 158.647 69.2689 158.634C69.1103 158.624 68.9602 158.605 68.8186 158.578C68.6769 158.551 68.5403 158.518 68.4087 158.477C68.2772 158.437 68.1439 158.386 68.009 158.325V157.05C68.1507 157.121 68.2991 157.185 68.4543 157.243C68.6128 157.3 68.7697 157.351 68.9248 157.394C69.08 157.435 69.2301 157.467 69.3751 157.491C69.5235 157.514 69.6602 157.526 69.785 157.526C69.9233 157.526 70.0413 157.514 70.1391 157.491C70.237 157.464 70.3162 157.428 70.3769 157.384C70.441 157.337 70.4866 157.283 70.5136 157.222C70.5439 157.158 70.5591 157.091 70.5591 157.02C70.5591 156.949 70.5473 156.887 70.5237 156.833C70.5034 156.775 70.4545 156.716 70.3769 156.656C70.2994 156.592 70.1847 156.521 70.0329 156.443C69.8845 156.362 69.6838 156.264 69.4308 156.15C69.1845 156.038 68.9704 155.929 68.7882 155.821C68.6094 155.71 68.461 155.586 68.343 155.451C68.2283 155.317 68.1423 155.163 68.0849 154.991C68.0276 154.816 67.9989 154.608 67.9989 154.369C67.9989 154.106 68.0495 153.876 68.1507 153.681C68.2519 153.482 68.3952 153.316 68.5808 153.185C68.7663 153.053 68.9889 152.955 69.2486 152.891C69.5117 152.824 69.8035 152.79 70.124 152.79C70.4613 152.79 70.7817 152.829 71.0853 152.906C71.3889 152.984 71.7009 153.1 72.0213 153.256L71.5558 154.348C71.2995 154.227 71.0549 154.128 70.8222 154.05C70.5894 153.972 70.3567 153.934 70.124 153.934C69.9148 153.934 69.763 153.971 69.6686 154.045C69.5775 154.119 69.532 154.22 69.532 154.348C69.532 154.416 69.5438 154.477 69.5674 154.531C69.591 154.581 69.6382 154.635 69.7091 154.693C69.7799 154.746 69.8794 154.807 70.0076 154.875C70.1358 154.939 70.3027 155.018 70.5085 155.112C70.748 155.217 70.9639 155.322 71.1561 155.426C71.3484 155.527 71.5137 155.644 71.652 155.775C71.7903 155.907 71.8965 156.06 71.9707 156.236C72.0449 156.411 72.082 156.624 72.082 156.873Z" fill="white"/>
<path d="M88.5378 153.215C88.28 153.215 88.0463 153.265 87.8366 153.363C87.627 153.46 87.4475 153.6 87.2981 153.783C87.1512 153.966 87.0367 154.189 86.9548 154.451C86.8753 154.714 86.8355 155.01 86.8355 155.34C86.8355 155.68 86.8705 155.982 86.9404 156.247C87.0126 156.51 87.1199 156.732 87.262 156.912C87.4042 157.093 87.5812 157.23 87.7933 157.324C88.0053 157.418 88.2535 157.465 88.5378 157.465C88.7522 157.465 88.9558 157.445 89.1485 157.404C89.3413 157.361 89.5316 157.311 89.7196 157.256V157.841C89.6256 157.877 89.5316 157.91 89.4377 157.939C89.3437 157.965 89.2449 157.987 89.1413 158.004C89.0401 158.021 88.9305 158.033 88.8124 158.04C88.6968 158.05 88.5679 158.054 88.4257 158.054C88.0306 158.054 87.6885 157.989 87.3993 157.859C87.1102 157.729 86.8705 157.545 86.6801 157.306C86.4922 157.068 86.3525 156.781 86.2609 156.446C86.1694 156.111 86.1236 155.74 86.1236 155.333C86.1236 154.933 86.1754 154.567 86.279 154.234C86.385 153.902 86.5392 153.616 86.7416 153.378C86.9464 153.139 87.1994 152.954 87.5005 152.821C87.8017 152.689 88.1474 152.623 88.5378 152.623C88.798 152.623 89.0461 152.649 89.2823 152.702C89.5184 152.755 89.7316 152.832 89.9219 152.933L89.64 153.497C89.4883 153.42 89.3232 153.354 89.1449 153.298C88.9666 153.243 88.7642 153.215 88.5378 153.215ZM92.8529 153.215C92.5951 153.215 92.3614 153.265 92.1518 153.363C91.9422 153.46 91.7627 153.6 91.6133 153.783C91.4663 153.966 91.3519 154.189 91.27 154.451C91.1905 154.714 91.1507 155.01 91.1507 155.34C91.1507 155.68 91.1857 155.982 91.2555 156.247C91.3278 156.51 91.435 156.732 91.5772 156.912C91.7193 157.093 91.8964 157.23 92.1084 157.324C92.3205 157.418 92.5686 157.465 92.8529 157.465C93.0674 157.465 93.271 157.445 93.4637 157.404C93.6565 157.361 93.8468 157.311 94.0347 157.256V157.841C93.9408 157.877 93.8468 157.91 93.7528 157.939C93.6589 157.965 93.5601 157.987 93.4565 158.004C93.3553 158.021 93.2457 158.033 93.1276 158.04C93.012 158.05 92.8831 158.054 92.7409 158.054C92.3458 158.054 92.0036 157.989 91.7145 157.859C91.4254 157.729 91.1857 157.545 90.9953 157.306C90.8074 157.068 90.6676 156.781 90.5761 156.446C90.4845 156.111 90.4388 155.74 90.4388 155.333C90.4388 154.933 90.4906 154.567 90.5942 154.234C90.7002 153.902 90.8544 153.616 91.0568 153.378C91.2616 153.139 91.5145 152.954 91.8157 152.821C92.1169 152.689 92.4626 152.623 92.8529 152.623C93.1132 152.623 93.3613 152.649 93.5974 152.702C93.8336 152.755 94.0468 152.832 94.2371 152.933L93.9552 153.497C93.8034 153.42 93.6384 153.354 93.4601 153.298C93.2818 153.243 93.0794 153.215 92.8529 153.215Z" fill="white"/>
<rect x="82.2913" y="150.242" width="15.5433" height="9.62205" rx="1.85039" stroke="white" stroke-width="0.740158"/>
<path d="M110.573 157.982H109.937V154.683C109.937 154.579 109.937 154.468 109.937 154.35C109.939 154.232 109.941 154.115 109.944 153.999C109.949 153.881 109.952 153.769 109.955 153.663C109.959 153.555 109.963 153.46 109.965 153.378C109.924 153.421 109.888 153.459 109.857 153.49C109.826 153.521 109.793 153.551 109.759 153.58C109.728 153.609 109.694 153.64 109.658 153.674C109.622 153.706 109.579 153.743 109.528 153.786L108.993 154.224L108.646 153.779L110.031 152.698H110.573V157.982ZM112.488 155.723C112.488 155.47 112.5 155.219 112.524 154.968C112.551 154.717 112.595 154.478 112.658 154.249C112.723 154.018 112.811 153.803 112.922 153.606C113.033 153.408 113.174 153.237 113.345 153.092C113.516 152.945 113.72 152.831 113.959 152.749C114.198 152.665 114.477 152.623 114.797 152.623C114.843 152.623 114.894 152.624 114.949 152.626C115.005 152.629 115.06 152.633 115.115 152.641C115.173 152.645 115.228 152.653 115.278 152.662C115.331 152.67 115.378 152.679 115.419 152.691V153.251C115.335 153.222 115.24 153.201 115.134 153.186C115.028 153.172 114.923 153.165 114.819 153.165C114.602 153.165 114.411 153.191 114.244 153.244C114.081 153.295 113.939 153.367 113.818 153.461C113.698 153.555 113.596 153.667 113.514 153.797C113.435 153.927 113.37 154.072 113.319 154.231C113.269 154.387 113.231 154.555 113.207 154.733C113.183 154.911 113.168 155.097 113.16 155.29H113.204C113.252 155.203 113.31 155.122 113.377 155.048C113.447 154.97 113.528 154.905 113.619 154.852C113.711 154.797 113.813 154.754 113.926 154.722C114.042 154.691 114.171 154.675 114.313 154.675C114.542 154.675 114.749 154.711 114.935 154.784C115.12 154.854 115.278 154.957 115.408 155.095C115.538 155.232 115.638 155.401 115.708 155.601C115.78 155.798 115.817 156.025 115.817 156.28C115.817 156.555 115.779 156.802 115.705 157.021C115.63 157.24 115.523 157.427 115.383 157.581C115.243 157.733 115.075 157.85 114.877 157.932C114.679 158.013 114.458 158.054 114.212 158.054C113.971 158.054 113.745 158.007 113.533 157.914C113.323 157.82 113.141 157.676 112.987 157.483C112.833 157.291 112.711 157.049 112.622 156.757C112.533 156.465 112.488 156.121 112.488 155.723ZM114.205 157.502C114.349 157.502 114.481 157.477 114.599 157.429C114.719 157.379 114.823 157.304 114.909 157.205C114.996 157.104 115.062 156.977 115.108 156.826C115.156 156.671 115.181 156.49 115.181 156.28C115.181 156.111 115.16 155.961 115.119 155.828C115.081 155.693 115.022 155.579 114.942 155.485C114.862 155.391 114.763 155.319 114.642 155.268C114.524 155.217 114.385 155.192 114.226 155.192C114.065 155.192 113.917 155.221 113.782 155.279C113.649 155.334 113.536 155.408 113.442 155.499C113.348 155.588 113.275 155.691 113.222 155.807C113.171 155.922 113.146 156.038 113.146 156.153C113.146 156.315 113.168 156.476 113.211 156.638C113.257 156.797 113.323 156.94 113.41 157.068C113.499 157.196 113.61 157.3 113.742 157.382C113.875 157.462 114.029 157.502 114.205 157.502ZM117.924 155.644H116.525V155.102H117.924V153.696H118.466V155.102H119.864V155.644H118.466V157.035H117.924V155.644Z" fill="white"/>
<rect x="104.496" y="150.242" width="19.2441" height="9.62205" rx="1.85039" stroke="white" stroke-width="0.740158"/>
<circle cx="25.1102" cy="172.474" r="1.11024" fill="#E1E1E1" fill-opacity="0.5"/>
<path d="M34.084 173.996C34.084 174.323 34.0249 174.617 33.9069 174.876C33.7922 175.133 33.6269 175.35 33.411 175.529C33.1952 175.708 32.9321 175.844 32.6217 175.939C32.3114 176.03 31.9623 176.075 31.5744 176.075C31.2 176.075 30.8492 176.045 30.522 175.984C30.1981 175.927 29.9266 175.841 29.7074 175.726V174.826C29.822 174.88 29.9519 174.934 30.097 174.988C30.2454 175.038 30.4005 175.084 30.5624 175.124C30.7244 175.165 30.8913 175.198 31.0633 175.225C31.2354 175.249 31.4057 175.261 31.5744 175.261C32.1141 175.261 32.5121 175.16 32.7685 174.957C33.0282 174.755 33.1581 174.465 33.1581 174.087C33.1581 173.905 33.1328 173.746 33.0822 173.611C33.0349 173.477 32.9489 173.353 32.8241 173.242C32.7027 173.127 32.5391 173.018 32.3333 172.913C32.1276 172.805 31.8678 172.689 31.5541 172.564C31.2539 172.446 30.9925 172.318 30.7699 172.18C30.5506 172.038 30.3685 171.879 30.2234 171.704C30.0818 171.529 29.9755 171.33 29.9047 171.107C29.8372 170.884 29.8035 170.631 29.8035 170.348C29.8035 170.051 29.8575 169.786 29.9654 169.554C30.0733 169.321 30.2251 169.125 30.4208 168.967C30.6164 168.805 30.8492 168.682 31.119 168.597C31.3922 168.513 31.6924 168.471 32.0196 168.471C32.421 168.471 32.782 168.51 33.1024 168.587C33.4228 168.661 33.7079 168.758 33.9575 168.876L33.6185 169.665C33.3992 169.567 33.1496 169.483 32.8697 169.412C32.5931 169.338 32.3063 169.301 32.0095 169.301C31.598 169.301 31.2792 169.397 31.0532 169.589C30.8272 169.778 30.7142 170.034 30.7142 170.358C30.7142 170.55 30.7395 170.717 30.7901 170.859C30.8407 170.997 30.9251 171.124 31.0431 171.238C31.1612 171.35 31.3163 171.456 31.5086 171.557C31.7042 171.655 31.9437 171.76 32.2271 171.871C32.534 171.992 32.8022 172.117 33.0316 172.245C33.2643 172.374 33.4583 172.519 33.6134 172.68C33.7686 172.842 33.885 173.03 33.9625 173.242C34.0435 173.455 34.084 173.706 34.084 173.996ZM39.0425 175.974L38.9058 175.231H38.8552C38.7709 175.376 38.6697 175.502 38.5517 175.61C38.437 175.715 38.3105 175.802 38.1722 175.873C38.0339 175.941 37.8872 175.991 37.732 176.025C37.5768 176.059 37.4183 176.075 37.2564 176.075C36.9494 176.075 36.6796 176.037 36.4468 175.959C36.2141 175.882 36.0201 175.76 35.865 175.595C35.7098 175.43 35.5918 175.219 35.5108 174.962C35.4332 174.706 35.3944 174.401 35.3944 174.047V170.419H36.3153V173.996C36.3153 174.434 36.4047 174.763 36.5835 174.983C36.7622 175.202 37.0388 175.311 37.4132 175.311C37.6865 175.311 37.9158 175.268 38.1014 175.18C38.2869 175.092 38.4353 174.964 38.5466 174.795C38.6613 174.623 38.7422 174.413 38.7895 174.163C38.8401 173.913 38.8654 173.627 38.8654 173.303V170.419H39.7862V175.974H39.0425ZM44.0566 176.075C43.8576 176.075 43.6771 176.054 43.5152 176.01C43.3533 175.966 43.2066 175.909 43.075 175.838C42.9468 175.763 42.8321 175.677 42.731 175.58C42.6331 175.482 42.5454 175.379 42.4678 175.271H42.4071C42.4173 175.386 42.4274 175.495 42.4375 175.6C42.4442 175.688 42.451 175.779 42.4577 175.873C42.4645 175.964 42.4678 176.037 42.4678 176.091V178.464H41.547V170.419H42.2958L42.4274 171.168H42.4678C42.5454 171.05 42.6331 170.94 42.731 170.839C42.8288 170.734 42.9418 170.645 43.0699 170.571C43.2015 170.493 43.3482 170.432 43.5101 170.388C43.672 170.341 43.8542 170.318 44.0566 170.318C44.3737 170.318 44.6621 170.378 44.9218 170.5C45.1815 170.621 45.4025 170.803 45.5846 171.046C45.7701 171.286 45.9135 171.584 46.0147 171.942C46.1159 172.299 46.1665 172.714 46.1665 173.186C46.1665 173.662 46.1159 174.08 46.0147 174.441C45.9135 174.799 45.7701 175.099 45.5846 175.342C45.4025 175.585 45.1815 175.769 44.9218 175.893C44.6621 176.015 44.3737 176.075 44.0566 176.075ZM43.8795 171.082C43.6231 171.082 43.4056 171.12 43.2268 171.198C43.0514 171.276 42.908 171.394 42.7967 171.552C42.6888 171.711 42.6078 171.908 42.5539 172.144C42.5033 172.38 42.4746 172.659 42.4678 172.979V173.186C42.4678 173.527 42.4898 173.831 42.5336 174.097C42.5808 174.36 42.6584 174.583 42.7664 174.765C42.8777 174.944 43.0244 175.08 43.2066 175.175C43.3887 175.266 43.6164 175.311 43.8896 175.311C44.345 175.311 44.6789 175.128 44.8914 174.76C45.1073 174.392 45.2152 173.864 45.2152 173.176C45.2152 172.475 45.1073 171.95 44.8914 171.603C44.6789 171.255 44.3416 171.082 43.8795 171.082ZM49.8145 176.075C49.4434 176.075 49.1044 176.013 48.7975 175.888C48.4905 175.763 48.2258 175.581 48.0031 175.342C47.7839 175.102 47.6135 174.806 47.4921 174.451C47.3707 174.097 47.31 173.692 47.31 173.237C47.31 172.778 47.3656 172.368 47.4769 172.008C47.5882 171.647 47.7451 171.341 47.9475 171.092C48.1499 170.839 48.391 170.646 48.671 170.515C48.9543 170.383 49.2664 170.318 49.607 170.318C49.941 170.318 50.2412 170.378 50.5077 170.5C50.7741 170.618 51.0001 170.786 51.1857 171.006C51.3712 171.222 51.5129 171.483 51.6107 171.79C51.7119 172.094 51.7625 172.431 51.7625 172.802V173.374H48.2612C48.278 174.025 48.4146 174.504 48.671 174.811C48.9307 175.118 49.3153 175.271 49.8246 175.271C49.9966 175.271 50.1552 175.263 50.3002 175.246C50.4486 175.229 50.5903 175.205 50.7252 175.175C50.8635 175.141 50.9968 175.101 51.1249 175.053C51.2531 175.003 51.383 174.947 51.5145 174.886V175.706C51.3796 175.77 51.2464 175.826 51.1148 175.873C50.9866 175.92 50.8534 175.959 50.7151 175.989C50.5802 176.02 50.4385 176.042 50.2901 176.055C50.1451 176.069 49.9865 176.075 49.8145 176.075ZM49.5868 171.082C49.2023 171.082 48.897 171.213 48.671 171.476C48.4484 171.739 48.3185 172.122 48.2814 172.625H50.7708C50.7708 172.395 50.7472 172.186 50.6999 171.997C50.6561 171.805 50.5852 171.642 50.4874 171.507C50.393 171.372 50.2715 171.267 50.1231 171.193C49.9747 171.119 49.7959 171.082 49.5868 171.082ZM55.5673 170.318C55.6652 170.318 55.7748 170.323 55.8962 170.333C56.0176 170.34 56.1222 170.351 56.2099 170.368L56.0885 171.218C55.994 171.201 55.8962 171.188 55.795 171.178C55.6972 171.164 55.6044 171.157 55.5167 171.157C55.3042 171.157 55.1103 171.201 54.9349 171.289C54.7595 171.373 54.6077 171.496 54.4795 171.658C54.3547 171.817 54.2569 172.009 54.186 172.235C54.1186 172.458 54.0849 172.706 54.0849 172.979V175.974H53.164V170.419H53.9128L54.0241 171.436H54.0646C54.1489 171.291 54.2383 171.151 54.3328 171.016C54.4306 170.881 54.5385 170.763 54.6566 170.662C54.778 170.557 54.913 170.474 55.0614 170.414C55.2098 170.35 55.3784 170.318 55.5673 170.318ZM60.7737 175.974V172.397C60.7737 171.959 60.6843 171.63 60.5056 171.41C60.3302 171.191 60.0536 171.082 59.6758 171.082C59.4026 171.082 59.1732 171.125 58.9877 171.213C58.8022 171.301 58.652 171.431 58.5374 171.603C58.4261 171.775 58.3451 171.986 58.2945 172.235C58.2473 172.485 58.2237 172.772 58.2237 173.095V175.974H57.3028V170.419H58.0516L58.1832 171.168H58.2338C58.3181 171.023 58.4176 170.898 58.5323 170.793C58.6504 170.685 58.7785 170.596 58.9168 170.525C59.0551 170.454 59.2019 170.402 59.357 170.368C59.5122 170.334 59.6707 170.318 59.8326 170.318C60.4499 170.318 60.9137 170.48 61.224 170.803C61.5377 171.124 61.6946 171.638 61.6946 172.347V175.974H60.7737ZM66.5367 175.974L66.3495 175.205H66.309C66.1977 175.357 66.0864 175.489 65.9751 175.6C65.8638 175.708 65.7423 175.797 65.6108 175.868C65.4792 175.939 65.3325 175.991 65.1706 176.025C65.0087 176.059 64.8215 176.075 64.609 176.075C64.3762 176.075 64.162 176.042 63.9664 175.974C63.7707 175.91 63.6004 175.811 63.4554 175.676C63.3137 175.537 63.2024 175.365 63.1214 175.16C63.0405 174.951 63 174.704 63 174.421C63 173.868 63.1939 173.443 63.5819 173.146C63.9731 172.849 64.5668 172.687 65.3629 172.66L66.2938 172.625V172.276C66.2938 172.05 66.2685 171.861 66.2179 171.709C66.1707 171.557 66.0999 171.436 66.0054 171.345C65.9144 171.25 65.7997 171.183 65.6614 171.142C65.5265 171.102 65.3713 171.082 65.1959 171.082C64.9159 171.082 64.6545 171.122 64.4116 171.203C64.1721 171.284 63.9411 171.382 63.7185 171.496L63.3946 170.803C63.6443 170.668 63.9225 170.554 64.2295 170.459C64.5364 170.365 64.8586 170.318 65.1959 170.318C65.5399 170.318 65.8368 170.353 66.0864 170.424C66.3394 170.491 66.5468 170.601 66.7087 170.753C66.874 170.901 66.9971 171.092 67.0781 171.324C67.159 171.557 67.1995 171.839 67.1995 172.169V175.974H66.5367ZM64.8468 175.332C65.0525 175.332 65.2431 175.3 65.4185 175.236C65.5939 175.172 65.7457 175.075 65.8739 174.947C66.0021 174.816 66.1016 174.652 66.1724 174.456C66.2466 174.257 66.2837 174.025 66.2837 173.758V173.257L65.5602 173.293C65.2566 173.306 65.0019 173.34 64.7962 173.394C64.5904 173.448 64.4251 173.524 64.3003 173.622C64.1789 173.716 64.0912 173.832 64.0372 173.971C63.9833 174.106 63.9563 174.259 63.9563 174.431C63.9563 174.741 64.0372 174.969 64.1991 175.114C64.3644 175.259 64.5803 175.332 64.8468 175.332ZM70.5895 175.322C70.6502 175.322 70.7177 175.318 70.7919 175.311C70.8695 175.305 70.9437 175.296 71.0145 175.286C71.0853 175.276 71.1494 175.264 71.2068 175.251C71.2675 175.237 71.313 175.225 71.3434 175.215V175.914C71.2995 175.934 71.2439 175.954 71.1764 175.974C71.109 175.995 71.0347 176.011 70.9538 176.025C70.8728 176.042 70.7885 176.054 70.7008 176.06C70.6131 176.07 70.5271 176.075 70.4428 176.075C70.2336 176.075 70.0397 176.049 69.8609 175.995C69.6821 175.941 69.527 175.848 69.3954 175.716C69.2672 175.585 69.166 175.408 69.0918 175.185C69.0176 174.959 68.9805 174.676 68.9805 174.335V171.112H68.1963V170.702L68.9805 170.307L69.3752 169.144H69.9064V170.419H71.3029V171.112H69.9064V174.335C69.9064 174.662 69.9587 174.908 70.0633 175.074C70.1712 175.239 70.3466 175.322 70.5895 175.322ZM76.0185 175.974L75.8819 175.231H75.8313C75.747 175.376 75.6458 175.502 75.5277 175.61C75.413 175.715 75.2866 175.802 75.1483 175.873C75.01 175.941 74.8632 175.991 74.7081 176.025C74.5529 176.059 74.3944 176.075 74.2325 176.075C73.9255 176.075 73.6557 176.037 73.4229 175.959C73.1902 175.882 72.9962 175.76 72.841 175.595C72.6859 175.43 72.5678 175.219 72.4869 174.962C72.4093 174.706 72.3705 174.401 72.3705 174.047V170.419H73.2914V173.996C73.2914 174.434 73.3807 174.763 73.5595 174.983C73.7383 175.202 74.0149 175.311 74.3893 175.311C74.6625 175.311 74.8919 175.268 75.0774 175.18C75.2629 175.092 75.4114 174.964 75.5227 174.795C75.6374 174.623 75.7183 174.413 75.7655 174.163C75.8161 173.913 75.8414 173.627 75.8414 173.303V170.419H76.7623V175.974H76.0185ZM80.9264 170.318C81.0242 170.318 81.1339 170.323 81.2553 170.333C81.3767 170.34 81.4813 170.351 81.569 170.368L81.4475 171.218C81.3531 171.201 81.2553 171.188 81.1541 171.178C81.0563 171.164 80.9635 171.157 80.8758 171.157C80.6633 171.157 80.4693 171.201 80.2939 171.289C80.1185 171.373 79.9668 171.496 79.8386 171.658C79.7138 171.817 79.6159 172.009 79.5451 172.235C79.4777 172.458 79.4439 172.706 79.4439 172.979V175.974H78.5231V170.419H79.2719L79.3832 171.436H79.4237C79.508 171.291 79.5974 171.151 79.6918 171.016C79.7897 170.881 79.8976 170.763 80.0157 170.662C80.1371 170.557 80.272 170.474 80.4204 170.414C80.5689 170.35 80.7375 170.318 80.9264 170.318ZM85.6926 175.974L85.5054 175.205H85.4649C85.3536 175.357 85.2423 175.489 85.131 175.6C85.0197 175.708 84.8982 175.797 84.7667 175.868C84.6351 175.939 84.4884 175.991 84.3265 176.025C84.1646 176.059 83.9774 176.075 83.7649 176.075C83.5321 176.075 83.3179 176.042 83.1223 175.974C82.9267 175.91 82.7563 175.811 82.6113 175.676C82.4696 175.537 82.3583 175.365 82.2773 175.16C82.1964 174.951 82.1559 174.704 82.1559 174.421C82.1559 173.868 82.3499 173.443 82.7378 173.146C83.1291 172.849 83.7227 172.687 84.5188 172.66L85.4498 172.625V172.276C85.4498 172.05 85.4245 171.861 85.3739 171.709C85.3266 171.557 85.2558 171.436 85.1614 171.345C85.0703 171.25 84.9556 171.183 84.8173 171.142C84.6824 171.102 84.5272 171.082 84.3518 171.082C84.0718 171.082 83.8104 171.122 83.5676 171.203C83.3281 171.284 83.097 171.382 82.8744 171.496L82.5506 170.803C82.8002 170.668 83.0785 170.554 83.3854 170.459C83.6924 170.365 84.0145 170.318 84.3518 170.318C84.6959 170.318 84.9927 170.353 85.2423 170.424C85.4953 170.491 85.7027 170.601 85.8646 170.753C86.0299 170.901 86.153 171.092 86.234 171.324C86.315 171.557 86.3554 171.839 86.3554 172.169V175.974H85.6926ZM84.0027 175.332C84.2084 175.332 84.399 175.3 84.5744 175.236C84.7498 175.172 84.9016 175.075 85.0298 174.947C85.158 174.816 85.2575 174.652 85.3283 174.456C85.4025 174.257 85.4396 174.025 85.4396 173.758V173.257L84.7161 173.293C84.4125 173.306 84.1578 173.34 83.9521 173.394C83.7463 173.448 83.581 173.524 83.4562 173.622C83.3348 173.716 83.2471 173.832 83.1931 173.971C83.1392 174.106 83.1122 174.259 83.1122 174.431C83.1122 174.741 83.1931 174.969 83.355 175.114C83.5203 175.259 83.7362 175.332 84.0027 175.332ZM88.9865 175.974H88.0656V168.101H88.9865V175.974Z" fill="white"/>
<g clip-path="url(#clip3)">
<circle cx="104.693" cy="172.474" r="1.11024" fill="#E1E1E1" fill-opacity="0.5"/>
<path d="M113.667 174.496C113.667 174.823 113.608 175.117 113.49 175.376C113.375 175.633 113.21 175.85 112.994 176.029C112.778 176.208 112.515 176.344 112.204 176.439C111.894 176.53 111.545 176.575 111.157 176.575C110.783 176.575 110.432 176.545 110.105 176.484C109.781 176.427 109.509 176.341 109.29 176.226V175.326C109.405 175.38 109.535 175.434 109.68 175.488C109.828 175.538 109.983 175.584 110.145 175.624C110.307 175.665 110.474 175.698 110.646 175.725C110.818 175.749 110.988 175.761 111.157 175.761C111.697 175.761 112.095 175.66 112.351 175.457C112.611 175.255 112.741 174.965 112.741 174.587C112.741 174.405 112.715 174.246 112.665 174.111C112.618 173.977 112.532 173.853 112.407 173.742C112.285 173.627 112.122 173.518 111.916 173.413C111.71 173.305 111.45 173.189 111.137 173.064C110.837 172.946 110.575 172.818 110.353 172.68C110.133 172.538 109.951 172.379 109.806 172.204C109.664 172.029 109.558 171.83 109.487 171.607C109.42 171.384 109.386 171.131 109.386 170.848C109.386 170.551 109.44 170.286 109.548 170.054C109.656 169.821 109.808 169.625 110.003 169.467C110.199 169.305 110.432 169.182 110.702 169.097C110.975 169.013 111.275 168.971 111.602 168.971C112.004 168.971 112.365 169.01 112.685 169.087C113.005 169.161 113.291 169.258 113.54 169.376L113.201 170.165C112.982 170.067 112.732 169.983 112.452 169.912C112.176 169.838 111.889 169.801 111.592 169.801C111.181 169.801 110.862 169.897 110.636 170.089C110.41 170.278 110.297 170.534 110.297 170.858C110.297 171.05 110.322 171.217 110.373 171.359C110.423 171.497 110.508 171.624 110.626 171.738C110.744 171.85 110.899 171.956 111.091 172.057C111.287 172.155 111.526 172.26 111.81 172.371C112.117 172.492 112.385 172.617 112.614 172.745C112.847 172.874 113.041 173.019 113.196 173.18C113.351 173.342 113.468 173.53 113.545 173.742C113.626 173.955 113.667 174.206 113.667 174.496ZM118.625 176.474L118.488 175.731H118.438C118.354 175.876 118.252 176.002 118.134 176.11C118.02 176.215 117.893 176.302 117.755 176.373C117.617 176.441 117.47 176.491 117.315 176.525C117.159 176.559 117.001 176.575 116.839 176.575C116.532 176.575 116.262 176.537 116.029 176.459C115.797 176.382 115.603 176.26 115.448 176.095C115.292 175.93 115.174 175.719 115.093 175.462C115.016 175.206 114.977 174.901 114.977 174.547V170.919H115.898V174.496C115.898 174.934 115.987 175.263 116.166 175.483C116.345 175.702 116.621 175.811 116.996 175.811C117.269 175.811 117.498 175.768 117.684 175.68C117.87 175.592 118.018 175.464 118.129 175.295C118.244 175.123 118.325 174.913 118.372 174.663C118.423 174.413 118.448 174.127 118.448 173.803V170.919H119.369V176.474H118.625ZM124.454 174.951C124.454 175.221 124.405 175.457 124.307 175.66C124.209 175.862 124.068 176.032 123.882 176.171C123.7 176.306 123.479 176.407 123.219 176.474C122.96 176.542 122.668 176.575 122.344 176.575C121.976 176.575 121.661 176.545 121.398 176.484C121.135 176.427 120.904 176.341 120.705 176.226V175.386C120.809 175.44 120.926 175.494 121.054 175.548C121.182 175.599 121.317 175.645 121.459 175.685C121.6 175.725 121.745 175.759 121.894 175.786C122.045 175.81 122.196 175.822 122.344 175.822C122.563 175.822 122.749 175.803 122.901 175.766C123.056 175.729 123.18 175.677 123.275 175.609C123.373 175.538 123.444 175.454 123.487 175.356C123.531 175.255 123.553 175.144 123.553 175.022C123.553 174.918 123.536 174.823 123.503 174.739C123.469 174.655 123.406 174.572 123.315 174.491C123.228 174.407 123.106 174.322 122.951 174.238C122.796 174.154 122.597 174.059 122.354 173.955C122.111 173.85 121.892 173.747 121.696 173.646C121.504 173.545 121.34 173.432 121.206 173.307C121.071 173.182 120.966 173.039 120.892 172.877C120.821 172.712 120.786 172.516 120.786 172.29C120.786 172.054 120.831 171.845 120.922 171.663C121.017 171.477 121.148 171.322 121.317 171.197C121.485 171.072 121.688 170.978 121.924 170.914C122.16 170.85 122.423 170.818 122.713 170.818C123.04 170.818 123.339 170.853 123.609 170.924C123.882 170.995 124.14 171.087 124.383 171.202L124.064 171.946C123.845 171.848 123.619 171.764 123.386 171.693C123.157 171.619 122.922 171.582 122.683 171.582C122.339 171.582 122.084 171.639 121.919 171.754C121.754 171.865 121.671 172.025 121.671 172.234C121.671 172.352 121.69 172.455 121.727 172.543C121.767 172.631 121.835 172.713 121.929 172.791C122.024 172.868 122.15 172.948 122.309 173.029C122.467 173.106 122.664 173.194 122.901 173.292C123.143 173.393 123.359 173.494 123.548 173.595C123.74 173.697 123.904 173.811 124.039 173.939C124.174 174.064 124.277 174.208 124.348 174.369C124.418 174.531 124.454 174.725 124.454 174.951ZM128.314 176.575C128.115 176.575 127.935 176.554 127.773 176.51C127.611 176.466 127.464 176.409 127.333 176.338C127.205 176.263 127.09 176.177 126.989 176.08C126.891 175.982 126.803 175.879 126.726 175.771H126.665C126.675 175.886 126.685 175.995 126.695 176.1C126.702 176.188 126.709 176.279 126.716 176.373C126.722 176.464 126.726 176.537 126.726 176.591V178.964H125.805V170.919H126.554L126.685 171.668H126.726C126.803 171.55 126.891 171.44 126.989 171.339C127.087 171.234 127.2 171.145 127.328 171.071C127.459 170.993 127.606 170.932 127.768 170.888C127.93 170.841 128.112 170.818 128.314 170.818C128.631 170.818 128.92 170.878 129.18 171C129.439 171.121 129.66 171.303 129.842 171.546C130.028 171.786 130.171 172.084 130.272 172.442C130.374 172.799 130.424 173.214 130.424 173.686C130.424 174.162 130.374 174.58 130.272 174.941C130.171 175.299 130.028 175.599 129.842 175.842C129.66 176.085 129.439 176.269 129.18 176.393C128.92 176.515 128.631 176.575 128.314 176.575ZM128.137 171.582C127.881 171.582 127.663 171.62 127.485 171.698C127.309 171.776 127.166 171.894 127.055 172.052C126.947 172.211 126.866 172.408 126.812 172.644C126.761 172.88 126.732 173.159 126.726 173.479V173.686C126.726 174.027 126.748 174.331 126.791 174.597C126.839 174.86 126.916 175.083 127.024 175.265C127.135 175.444 127.282 175.58 127.464 175.675C127.646 175.766 127.874 175.811 128.147 175.811C128.603 175.811 128.937 175.628 129.149 175.26C129.365 174.892 129.473 174.364 129.473 173.676C129.473 172.975 129.365 172.45 129.149 172.103C128.937 171.755 128.599 171.582 128.137 171.582ZM134.072 176.575C133.701 176.575 133.362 176.513 133.055 176.388C132.748 176.263 132.484 176.081 132.261 175.842C132.042 175.602 131.871 175.306 131.75 174.951C131.628 174.597 131.568 174.192 131.568 173.737C131.568 173.278 131.623 172.868 131.735 172.508C131.846 172.147 132.003 171.841 132.205 171.592C132.408 171.339 132.649 171.146 132.929 171.015C133.212 170.883 133.524 170.818 133.865 170.818C134.199 170.818 134.499 170.878 134.765 171C135.032 171.118 135.258 171.286 135.443 171.506C135.629 171.722 135.771 171.983 135.868 172.29C135.97 172.594 136.02 172.931 136.02 173.302V173.874H132.519C132.536 174.525 132.672 175.004 132.929 175.311C133.189 175.618 133.573 175.771 134.082 175.771C134.254 175.771 134.413 175.763 134.558 175.746C134.706 175.729 134.848 175.705 134.983 175.675C135.121 175.641 135.255 175.601 135.383 175.553C135.511 175.503 135.641 175.447 135.772 175.386V176.206C135.637 176.27 135.504 176.326 135.373 176.373C135.244 176.42 135.111 176.459 134.973 176.489C134.838 176.52 134.696 176.542 134.548 176.555C134.403 176.569 134.244 176.575 134.072 176.575ZM133.845 171.582C133.46 171.582 133.155 171.713 132.929 171.976C132.706 172.239 132.576 172.622 132.539 173.125H135.029C135.029 172.895 135.005 172.686 134.958 172.497C134.914 172.305 134.843 172.142 134.745 172.007C134.651 171.872 134.529 171.767 134.381 171.693C134.232 171.619 134.054 171.582 133.845 171.582ZM140.893 176.474V172.897C140.893 172.459 140.803 172.13 140.625 171.91C140.449 171.691 140.173 171.582 139.795 171.582C139.522 171.582 139.292 171.625 139.107 171.713C138.921 171.801 138.771 171.931 138.656 172.103C138.545 172.275 138.464 172.486 138.413 172.735C138.366 172.985 138.343 173.272 138.343 173.595V176.474H137.422V170.919H138.171L138.302 171.668H138.353C138.437 171.523 138.537 171.398 138.651 171.293C138.769 171.185 138.898 171.096 139.036 171.025C139.174 170.954 139.321 170.902 139.476 170.868C139.631 170.834 139.79 170.818 139.952 170.818C140.569 170.818 141.033 170.98 141.343 171.303C141.657 171.624 141.814 172.138 141.814 172.847V176.474H140.893ZM146.848 174.951C146.848 175.221 146.799 175.457 146.701 175.66C146.603 175.862 146.462 176.032 146.276 176.171C146.094 176.306 145.873 176.407 145.613 176.474C145.354 176.542 145.062 176.575 144.738 176.575C144.37 176.575 144.055 176.545 143.792 176.484C143.529 176.427 143.298 176.341 143.099 176.226V175.386C143.203 175.44 143.32 175.494 143.448 175.548C143.576 175.599 143.711 175.645 143.853 175.685C143.994 175.725 144.139 175.759 144.288 175.786C144.44 175.81 144.59 175.822 144.738 175.822C144.957 175.822 145.143 175.803 145.295 175.766C145.45 175.729 145.575 175.677 145.669 175.609C145.767 175.538 145.838 175.454 145.882 175.356C145.925 175.255 145.947 175.144 145.947 175.022C145.947 174.918 145.93 174.823 145.897 174.739C145.863 174.655 145.801 174.572 145.71 174.491C145.622 174.407 145.5 174.322 145.345 174.238C145.19 174.154 144.991 174.059 144.748 173.955C144.505 173.85 144.286 173.747 144.09 173.646C143.898 173.545 143.735 173.432 143.6 173.307C143.465 173.182 143.36 173.039 143.286 172.877C143.215 172.712 143.18 172.516 143.18 172.29C143.18 172.054 143.225 171.845 143.316 171.663C143.411 171.477 143.542 171.322 143.711 171.197C143.88 171.072 144.082 170.978 144.318 170.914C144.554 170.85 144.817 170.818 145.107 170.818C145.435 170.818 145.733 170.853 146.003 170.924C146.276 170.995 146.534 171.087 146.777 171.202L146.458 171.946C146.239 171.848 146.013 171.764 145.78 171.693C145.551 171.619 145.317 171.582 145.077 171.582C144.733 171.582 144.478 171.639 144.313 171.754C144.148 171.865 144.065 172.025 144.065 172.234C144.065 172.352 144.084 172.455 144.121 172.543C144.161 172.631 144.229 172.713 144.323 172.791C144.418 172.868 144.544 172.948 144.703 173.029C144.861 173.106 145.058 173.194 145.295 173.292C145.537 173.393 145.753 173.494 145.942 173.595C146.135 173.697 146.298 173.811 146.433 173.939C146.568 174.064 146.671 174.208 146.742 174.369C146.813 174.531 146.848 174.725 146.848 174.951ZM150.395 176.575C150.024 176.575 149.685 176.513 149.378 176.388C149.071 176.263 148.806 176.081 148.583 175.842C148.364 175.602 148.194 175.306 148.072 174.951C147.951 174.597 147.89 174.192 147.89 173.737C147.89 173.278 147.946 172.868 148.057 172.508C148.169 172.147 148.325 171.841 148.528 171.592C148.73 171.339 148.971 171.146 149.251 171.015C149.535 170.883 149.847 170.818 150.187 170.818C150.521 170.818 150.821 170.878 151.088 171C151.354 171.118 151.58 171.286 151.766 171.506C151.951 171.722 152.093 171.983 152.191 172.29C152.292 172.594 152.343 172.931 152.343 173.302V173.874H148.841C148.858 174.525 148.995 175.004 149.251 175.311C149.511 175.618 149.896 175.771 150.405 175.771C150.577 175.771 150.735 175.763 150.88 175.746C151.029 175.729 151.171 175.705 151.306 175.675C151.444 175.641 151.577 175.601 151.705 175.553C151.833 175.503 151.963 175.447 152.095 175.386V176.206C151.96 176.27 151.827 176.326 151.695 176.373C151.567 176.42 151.434 176.459 151.295 176.489C151.16 176.52 151.019 176.542 150.87 176.555C150.725 176.569 150.567 176.575 150.395 176.575ZM150.167 171.582C149.783 171.582 149.477 171.713 149.251 171.976C149.029 172.239 148.899 172.622 148.862 173.125H151.351C151.351 172.895 151.327 172.686 151.28 172.497C151.236 172.305 151.166 172.142 151.068 172.007C150.973 171.872 150.852 171.767 150.703 171.693C150.555 171.619 150.376 171.582 150.167 171.582Z" fill="white"/>
</g>
<g clip-path="url(#clip4)">
<path d="M202.444 162.957C198.222 162.957 194.844 166.335 194.844 170.556C194.844 174.778 198.222 178.156 202.444 178.156C206.666 178.156 210.043 174.778 210.043 170.556C210.043 166.335 206.666 162.957 202.444 162.957ZM202.444 177.235C198.794 177.235 195.766 174.206 195.766 170.556C195.766 166.907 198.794 163.878 202.444 163.878C206.094 163.878 209.122 166.907 209.122 170.556C209.122 174.206 206.094 177.235 202.444 177.235ZM199.066 169.712V171.401H205.821V169.712H199.066Z" fill="white"/>
</g>
<path d="M227.212 167.698C226.704 167.185 226.175 166.739 225.624 166.359C225.074 165.979 224.558 165.694 224.077 165.505C223.595 165.315 223.154 165.224 222.754 165.231C222.353 165.239 222.04 165.358 221.815 165.589C221.762 165.641 221.716 165.698 221.679 165.762C221.642 165.827 221.615 165.877 221.599 165.912C221.583 165.948 221.561 166.013 221.535 166.105C221.508 166.197 221.489 166.256 221.479 166.282L218.496 175.702L218.68 175.887C218.472 176.025 218.286 176.187 218.123 176.371C217.96 176.556 217.817 176.707 217.694 176.825C217.571 176.943 217.424 177.026 217.253 177.072C217.215 177.082 217.169 177.117 217.112 177.176C217.056 177.235 217.028 177.287 217.028 177.333C217.028 177.426 217.076 177.503 217.173 177.564C217.269 177.626 217.376 177.657 217.493 177.657C217.643 177.657 217.787 177.599 217.926 177.483C218.065 177.368 218.206 177.221 218.347 177.041C218.489 176.861 218.592 176.743 218.656 176.687C218.795 176.569 218.95 176.456 219.121 176.348L219.33 176.541L228.808 173.455C229.016 173.393 229.176 173.301 229.289 173.178C229.513 172.947 229.63 172.627 229.638 172.219C229.646 171.812 229.556 171.363 229.369 170.873C229.182 170.383 228.903 169.859 228.531 169.303C228.159 168.746 227.72 168.211 227.212 167.698ZM226.346 168.537C227.164 169.337 227.785 170.103 228.21 170.834C228.635 171.565 228.738 172.046 228.519 172.277C228.3 172.508 227.821 172.423 227.084 172.023C226.346 171.623 225.571 171.025 224.758 170.23C223.935 169.43 223.311 168.665 222.886 167.937C222.461 167.208 222.358 166.726 222.577 166.49C222.796 166.259 223.276 166.343 224.016 166.744C224.757 167.144 225.533 167.742 226.346 168.537ZM224.59 171.723C224.98 172.057 225.368 172.349 225.753 172.6C225.758 172.611 225.892 172.852 226.153 173.324L225.48 173.547C225.159 172.967 224.862 172.359 224.59 171.723ZM221.855 168.198C221.973 168.45 222.136 168.755 222.345 169.114C222.516 169.853 222.784 170.653 223.15 171.515C223.517 172.377 223.916 173.185 224.349 173.939L223.684 174.155C223.181 173.262 222.743 172.327 222.369 171.35C221.994 170.372 221.765 169.509 221.679 168.76L221.855 168.198ZM220.925 171.015C221.299 172.164 221.826 173.344 222.505 174.555L221.847 174.778C221.318 173.804 220.901 172.888 220.597 172.031L220.925 171.015ZM220.003 173.824C220.212 174.296 220.433 174.745 220.669 175.171L220.011 175.394C219.936 175.255 219.829 175.043 219.69 174.755L220.003 173.824ZM225.897 162.88L226.298 164.042L225.263 164.766H226.538L226.931 165.928L227.324 164.766H228.591L227.565 164.042L227.966 162.888L226.931 163.604L225.897 162.88ZM223.652 162.88L223.435 163.935L224.534 164.142L224.75 163.088L223.652 162.88ZM230.876 166.051L231.758 165.166L232.905 165.705L232.312 164.627L233.202 163.758L231.943 163.965L231.35 162.88L231.173 164.096L229.914 164.304L231.061 164.835L230.876 166.051ZM230.58 167.944L231.646 168.621L231.309 169.807L232.304 169.037L233.362 169.714L232.921 168.56L233.916 167.806L232.641 167.86L232.192 166.713L231.863 167.89L230.58 167.944ZM230.123 165.089L227.733 166.967L228.03 167.313L230.419 165.435L230.123 165.089ZM230.957 168.722L229.088 168.56L229.04 169.006L230.917 169.168L230.957 168.722ZM231.141 170.876L230.796 171.908L231.863 172.239L232.216 171.215L231.141 170.876Z" fill="white"/>
<path d="M275.222 172.667C274.827 172.669 274.438 172.76 274.083 172.932C273.727 173.105 273.415 173.355 273.17 173.664L269.312 171.253C269.453 170.799 269.453 170.313 269.312 169.86L273.17 167.448C273.561 167.933 274.112 168.263 274.724 168.381C275.336 168.499 275.97 168.396 276.513 168.091C277.057 167.787 277.475 167.299 277.693 166.716C277.912 166.132 277.917 165.49 277.708 164.903C277.498 164.316 277.088 163.822 276.549 163.509C276.01 163.196 275.378 163.083 274.764 163.191C274.15 163.3 273.595 163.622 273.196 164.1C272.797 164.579 272.58 165.183 272.584 165.807C272.586 166.043 272.622 166.277 272.689 166.503L268.832 168.915C268.491 168.486 268.026 168.174 267.5 168.022C266.974 167.869 266.413 167.884 265.896 168.065C265.379 168.245 264.931 168.582 264.614 169.028C264.297 169.475 264.127 170.009 264.127 170.556C264.127 171.104 264.297 171.638 264.614 172.084C264.931 172.531 265.379 172.867 265.896 173.048C266.413 173.228 266.974 173.243 267.5 173.091C268.026 172.938 268.491 172.626 268.832 172.197L272.689 174.609C272.622 174.835 272.586 175.07 272.584 175.306C272.584 175.828 272.739 176.338 273.029 176.772C273.318 177.206 273.731 177.544 274.213 177.744C274.695 177.943 275.225 177.995 275.737 177.894C276.249 177.792 276.719 177.541 277.088 177.172C277.457 176.803 277.709 176.332 277.81 175.821C277.912 175.309 277.86 174.778 277.66 174.296C277.461 173.814 277.122 173.402 276.688 173.112C276.255 172.822 275.744 172.667 275.222 172.667V172.667ZM275.222 164.223C275.536 164.223 275.842 164.316 276.102 164.49C276.362 164.664 276.565 164.911 276.685 165.201C276.805 165.49 276.836 165.808 276.775 166.115C276.714 166.423 276.563 166.705 276.342 166.926C276.121 167.148 275.838 167.298 275.531 167.359C275.224 167.42 274.906 167.389 274.617 167.269C274.327 167.149 274.08 166.947 273.906 166.686C273.732 166.426 273.639 166.12 273.639 165.807C273.639 165.387 273.806 164.984 274.103 164.687C274.4 164.39 274.803 164.223 275.222 164.223V164.223ZM266.779 172.139C266.466 172.139 266.16 172.047 265.899 171.873C265.639 171.699 265.436 171.451 265.316 171.162C265.196 170.873 265.165 170.554 265.226 170.247C265.287 169.94 265.438 169.658 265.659 169.437C265.881 169.215 266.163 169.064 266.47 169.003C266.777 168.942 267.095 168.974 267.385 169.093C267.674 169.213 267.921 169.416 268.095 169.677C268.269 169.937 268.362 170.243 268.362 170.556C268.362 170.976 268.195 171.379 267.898 171.676C267.601 171.973 267.199 172.139 266.779 172.139ZM275.222 176.889C274.909 176.889 274.603 176.796 274.343 176.622C274.083 176.448 273.88 176.201 273.76 175.912C273.64 175.622 273.609 175.304 273.67 174.997C273.731 174.69 273.882 174.408 274.103 174.186C274.324 173.965 274.607 173.814 274.914 173.753C275.221 173.692 275.539 173.723 275.828 173.843C276.118 173.963 276.365 174.166 276.539 174.426C276.713 174.687 276.806 174.993 276.806 175.306C276.806 175.726 276.639 176.128 276.342 176.425C276.045 176.722 275.642 176.889 275.222 176.889V176.889Z" fill="white"/>
<path d="M299.481 163.52H290.524C290.03 163.52 289.552 163.693 289.173 164.01C288.793 164.326 288.537 164.765 288.448 165.251L287.554 170.176C287.499 170.481 287.511 170.793 287.589 171.093C287.668 171.392 287.811 171.67 288.009 171.908C288.207 172.145 288.455 172.337 288.735 172.468C289.015 172.599 289.321 172.667 289.63 172.667H292.839L292.445 173.673C292.281 174.114 292.226 174.588 292.286 175.054C292.345 175.52 292.517 175.965 292.786 176.351C293.055 176.736 293.414 177.05 293.831 177.267C294.248 177.483 294.712 177.595 295.182 177.593C295.317 177.592 295.45 177.553 295.563 177.479C295.677 177.406 295.767 177.301 295.822 177.178L297.828 172.667H299.481C300.041 172.667 300.578 172.445 300.974 172.049C301.37 171.653 301.592 171.116 301.592 170.556V165.631C301.592 165.071 301.37 164.534 300.974 164.138C300.578 163.742 300.041 163.52 299.481 163.52ZM296.667 171.816L294.753 176.122C294.557 176.063 294.375 175.964 294.219 175.832C294.063 175.7 293.935 175.537 293.844 175.354C293.753 175.171 293.701 174.971 293.69 174.766C293.679 174.562 293.71 174.358 293.782 174.166L294.155 173.16C294.234 172.947 294.261 172.718 294.233 172.493C294.205 172.268 294.123 172.053 293.993 171.866C293.864 171.679 293.691 171.527 293.49 171.421C293.289 171.316 293.066 171.26 292.839 171.26H289.63C289.527 171.26 289.425 171.238 289.331 171.194C289.237 171.15 289.155 171.086 289.088 171.007C289.021 170.928 288.971 170.836 288.943 170.736C288.915 170.637 288.909 170.532 288.927 170.43L289.82 165.504C289.85 165.34 289.937 165.192 290.066 165.087C290.195 164.981 290.357 164.925 290.524 164.927H296.667V171.816ZM300.185 170.556C300.185 170.743 300.111 170.922 299.979 171.054C299.847 171.186 299.668 171.26 299.481 171.26H298.074V164.927H299.481C299.668 164.927 299.847 165.001 299.979 165.133C300.111 165.265 300.185 165.444 300.185 165.631V170.556Z" fill="white"/>
<g clip-path="url(#clip5)">
<path d="M248.308 167.358C248.697 167.358 249.012 167.043 249.012 166.654C249.012 166.266 248.697 165.951 248.308 165.951C247.92 165.951 247.605 166.266 247.605 166.654C247.605 167.043 247.92 167.358 248.308 167.358Z" fill="white"/>
<path d="M250.302 173.175H249.129V168.296H247.37C247.214 168.296 247.065 168.36 246.955 168.475C246.845 168.589 246.784 168.744 246.784 168.906C246.784 169.068 246.845 169.223 246.955 169.337C247.065 169.452 247.214 169.516 247.37 169.516H247.956V173.175H246.784C246.628 173.175 246.479 173.239 246.369 173.353C246.259 173.468 246.197 173.623 246.197 173.785C246.197 173.946 246.259 174.101 246.369 174.216C246.479 174.33 246.628 174.394 246.784 174.394H250.302C250.457 174.394 250.606 174.33 250.716 174.216C250.826 174.101 250.888 173.946 250.888 173.785C250.888 173.623 250.826 173.468 250.716 173.353C250.606 173.239 250.457 173.175 250.302 173.175Z" fill="white"/>
<path d="M248.212 162.88C246.751 162.88 245.322 163.314 244.108 164.125C242.893 164.937 241.946 166.091 241.386 167.441C240.827 168.791 240.681 170.277 240.966 171.71C241.251 173.143 241.955 174.459 242.988 175.493C244.021 176.526 245.338 177.23 246.771 177.515C248.204 177.8 249.69 177.653 251.04 177.094C252.39 176.535 253.543 175.588 254.355 174.373C255.167 173.158 255.6 171.73 255.6 170.268C255.6 168.309 254.822 166.43 253.436 165.044C252.051 163.659 250.172 162.88 248.212 162.88V162.88ZM248.212 176.425C246.994 176.425 245.804 176.064 244.792 175.388C243.779 174.711 242.99 173.75 242.524 172.625C242.058 171.5 241.936 170.262 242.174 169.067C242.411 167.873 242.998 166.776 243.859 165.915C244.72 165.054 245.817 164.467 247.011 164.23C248.205 163.992 249.443 164.114 250.568 164.58C251.693 165.046 252.655 165.835 253.331 166.848C254.008 167.86 254.369 169.051 254.369 170.268C254.369 171.077 254.21 171.878 253.9 172.625C253.591 173.372 253.137 174.05 252.566 174.622C251.994 175.194 251.315 175.647 250.568 175.957C249.821 176.266 249.021 176.425 248.212 176.425V176.425Z" fill="white"/>
</g>
</g>
<path d="M162.578 65.5611C167.324 65.4776 171.988 66.8035 175.981 69.3709C179.974 71.9382 183.115 75.6319 185.008 79.9847C186.902 84.3376 187.462 89.1541 186.618 93.8252C185.773 98.4963 183.563 102.812 180.266 106.227C176.969 109.642 172.734 112.003 168.095 113.01C163.457 114.018 158.623 113.628 154.207 111.888C149.79 110.149 145.988 107.139 143.282 103.24C140.576 99.3398 139.087 94.7251 139.004 89.9791C138.892 83.6149 141.313 77.4669 145.734 72.8876C150.155 68.3084 156.214 65.6729 162.578 65.5611V65.5611ZM162.508 61.5617C156.971 61.659 151.587 63.396 147.037 66.5532C142.488 69.7103 138.976 74.1457 136.947 79.2985C134.918 84.4512 134.463 90.09 135.638 95.5016C136.814 100.913 139.568 105.855 143.552 109.701C147.536 113.548 152.571 116.126 158.021 117.111C163.471 118.096 169.09 117.443 174.168 115.234C179.246 113.025 183.556 109.36 186.551 104.702C189.546 100.044 191.093 94.6023 190.996 89.0653C190.865 81.6404 187.791 74.5714 182.448 69.4135C177.106 64.2556 169.933 61.4312 162.508 61.5617V61.5617Z" fill="white" fill-opacity="0.6"/>
<path d="M155.247 103.696C154.888 103.702 154.534 103.611 154.222 103.434C153.921 103.262 153.669 103.015 153.492 102.716C153.315 102.418 153.219 102.078 153.212 101.731L152.791 77.735C152.785 77.3879 152.869 77.0453 153.036 76.7407C153.202 76.4362 153.445 76.1802 153.74 75.998C154.041 75.8171 154.384 75.7187 154.735 75.7125C155.086 75.7064 155.433 75.7927 155.74 75.9629L177.947 87.5744C178.268 87.7402 178.538 87.9895 178.728 88.2961C178.918 88.6026 179.022 88.9549 179.028 89.3157C179.035 89.6764 178.943 90.0322 178.764 90.3452C178.584 90.6582 178.324 90.9169 178.009 91.0939L156.224 103.479C155.922 103.633 155.586 103.707 155.247 103.696V103.696ZM156.849 81.0241L157.153 98.3015L172.818 89.3848L156.849 81.0241Z" fill="white" fill-opacity="0.6"/>
<defs>
<linearGradient id="paint0_linear" x1="92.75" y1="81.1765" x2="52.8637" y2="38.8258" gradientUnits="userSpaceOnUse">
<stop stop-color="#1B1B1B"/>
<stop offset="1" stop-color="#1B1B1B" stop-opacity="0"/>
</linearGradient>
<linearGradient id="paint1_linear" x1="13.8879" y1="148" x2="150.493" y2="148.676" gradientUnits="userSpaceOnUse">
<stop stop-opacity="0"/>
<stop stop-opacity="0"/>
<stop offset="1"/>
</linearGradient>
<clipPath id="clip0">
<rect width="179" height="326" fill="white" transform="translate(326 21) rotate(90)"/>
</clipPath>
<clipPath id="clip1">
<rect width="44.4211" height="11.2131" fill="white" transform="translate(29.1753 90.725)"/>
</clipPath>
<clipPath id="clip2">
<rect width="10.7818" height="10.7818" fill="white" transform="translate(29.1753 90.9407)"/>
</clipPath>
<clipPath id="clip3">
<rect width="51.1811" height="12" fill="white" transform="translate(103.583 166.474)"/>
</clipPath>
<clipPath id="clip4">
<rect width="16.8873" height="16.8873" fill="white" transform="translate(194 162.113)"/>
</clipPath>
<clipPath id="clip5">
<rect width="16.8873" height="16.8873" fill="white" transform="translate(240.056 162.113)"/>
</clipPath>
</defs>
</svg>
