<svg width="494" height="283" viewBox="0 0 494 283" fill="none" xmlns="http://www.w3.org/2000/svg">
<rect width="106" height="90" transform="translate(404 106) rotate(-90)" fill="url(#paint0_linear)"/>
<path d="M454.822 21.6639C455.814 21.4569 458.507 21.1317 459.262 21.7526C459.706 22.1178 459.262 24.0585 458.285 26.4088C458.241 26.5861 458.25 26.8966 458.641 26.7192C459.129 26.4975 461.127 23.9255 460.994 20.7326C460.905 20.3779 460.579 20.2659 460.505 20.2449C459.262 19.8901 456.732 19.7127 454.689 21.2204C454.547 21.5042 454.719 21.6343 454.822 21.6639Z" fill="white"/>
<path d="M427.03 20.8213C426.971 20.6735 426.959 20.3779 427.385 20.3779C432.624 23.5707 443.501 28.5373 457.486 22.4177C458.285 22.2404 458.378 23.0726 457.93 23.3933C446.165 31.8188 432.668 27.1183 427.03 20.8213Z" fill="white"/>
<path d="M432.019 35.3662C432.019 35.9163 431.952 36.4176 431.818 36.8701C431.688 37.3226 431.493 37.71 431.232 38.0322C430.972 38.3545 430.648 38.6035 430.261 38.7793C429.877 38.9551 429.432 39.043 428.928 39.043C428.397 39.043 427.937 38.9551 427.546 38.7793C427.159 38.6035 426.836 38.3545 426.579 38.0322C426.325 37.71 426.136 37.3226 426.013 36.8701C425.889 36.4144 425.827 35.9098 425.827 35.3564C425.827 34.8031 425.889 34.3018 426.013 33.8525C426.136 33.4001 426.327 33.0143 426.584 32.6953C426.841 32.3763 427.165 32.1305 427.556 31.958C427.946 31.7822 428.407 31.6943 428.938 31.6943C429.442 31.6943 429.885 31.7822 430.266 31.958C430.65 32.1305 430.972 32.3779 431.232 32.7002C431.493 33.0192 431.688 33.4049 431.818 33.8574C431.952 34.3066 432.019 34.8096 432.019 35.3662ZM426.789 35.3662C426.789 35.8122 426.831 36.2142 426.916 36.5723C427.001 36.9271 427.129 37.2298 427.302 37.4805C427.478 37.7279 427.699 37.9183 427.966 38.0518C428.236 38.182 428.557 38.2471 428.928 38.2471C429.299 38.2471 429.618 38.182 429.885 38.0518C430.155 37.9183 430.376 37.7279 430.549 37.4805C430.725 37.2298 430.853 36.9271 430.935 36.5723C431.016 36.2142 431.057 35.8122 431.057 35.3662C431.057 34.917 431.016 34.515 430.935 34.1602C430.853 33.8053 430.726 33.5059 430.554 33.2617C430.381 33.0143 430.161 32.8255 429.895 32.6953C429.628 32.5618 429.309 32.4951 428.938 32.4951C428.566 32.4951 428.246 32.5618 427.976 32.6953C427.705 32.8255 427.482 33.0143 427.307 33.2617C427.131 33.5059 427.001 33.8053 426.916 34.1602C426.831 34.515 426.789 34.917 426.789 35.3662ZM435.808 33.4863C435.902 33.4863 436.008 33.4912 436.125 33.501C436.242 33.5075 436.343 33.5189 436.428 33.5352L436.311 34.3555C436.219 34.3392 436.125 34.3262 436.027 34.3164C435.933 34.3034 435.843 34.2969 435.759 34.2969C435.554 34.2969 435.367 34.3392 435.197 34.4238C435.028 34.5052 434.882 34.624 434.758 34.7803C434.637 34.9333 434.543 35.1188 434.475 35.3369C434.41 35.5518 434.377 35.791 434.377 36.0547V38.9453H433.488V33.584H434.211L434.318 34.5654H434.357C434.439 34.4255 434.525 34.2904 434.616 34.1602C434.711 34.0299 434.815 33.916 434.929 33.8184C435.046 33.7174 435.176 33.6377 435.319 33.5791C435.463 33.5173 435.625 33.4863 435.808 33.4863ZM438.371 38.9453H437.482V33.584H438.371V38.9453ZM437.414 32.1338C437.414 31.9385 437.463 31.7969 437.561 31.709C437.661 31.6211 437.785 31.5771 437.932 31.5771C438.003 31.5771 438.07 31.5885 438.132 31.6113C438.197 31.6309 438.252 31.6634 438.298 31.709C438.347 31.7546 438.384 31.8132 438.41 31.8848C438.439 31.9531 438.454 32.0361 438.454 32.1338C438.454 32.3226 438.402 32.4642 438.298 32.5586C438.197 32.6497 438.075 32.6953 437.932 32.6953C437.785 32.6953 437.661 32.6497 437.561 32.5586C437.463 32.4674 437.414 32.3258 437.414 32.1338ZM444.201 33.584V34.1357L443.239 34.2676C443.33 34.3815 443.407 34.528 443.469 34.707C443.531 34.8828 443.562 35.083 443.562 35.3076C443.562 35.555 443.522 35.7845 443.444 35.9961C443.369 36.2044 443.254 36.3851 443.098 36.5381C442.945 36.6911 442.754 36.8115 442.526 36.8994C442.299 36.984 442.033 37.0264 441.73 37.0264C441.659 37.0264 441.587 37.0264 441.516 37.0264C441.444 37.0231 441.385 37.0166 441.34 37.0068C441.285 37.0394 441.229 37.0768 441.174 37.1191C441.122 37.1582 441.073 37.2038 441.027 37.2559C440.985 37.3079 440.949 37.3665 440.92 37.4316C440.894 37.4967 440.881 37.5684 440.881 37.6465C440.881 37.7344 440.9 37.806 440.939 37.8613C440.979 37.9134 441.031 37.9541 441.096 37.9834C441.164 38.0127 441.244 38.0322 441.335 38.042C441.426 38.0518 441.522 38.0566 441.623 38.0566H442.482C442.785 38.0566 443.041 38.0957 443.249 38.1738C443.457 38.2487 443.627 38.3512 443.757 38.4814C443.89 38.6117 443.986 38.7663 444.045 38.9453C444.104 39.1211 444.133 39.3083 444.133 39.5068C444.133 39.7933 444.079 40.0505 443.972 40.2783C443.868 40.5062 443.706 40.6982 443.488 40.8545C443.27 41.014 442.993 41.1361 442.658 41.2207C442.326 41.3053 441.934 41.3477 441.481 41.3477C441.133 41.3477 440.829 41.3135 440.568 41.2451C440.308 41.1768 440.091 41.0775 439.919 40.9473C439.746 40.8171 439.616 40.6592 439.528 40.4736C439.444 40.2913 439.401 40.0846 439.401 39.8535C439.401 39.6582 439.432 39.4857 439.494 39.3359C439.559 39.1895 439.646 39.0625 439.753 38.9551C439.86 38.8477 439.984 38.7598 440.124 38.6914C440.267 38.623 440.415 38.571 440.568 38.5352C440.432 38.4733 440.319 38.3757 440.231 38.2422C440.144 38.1087 440.1 37.9557 440.1 37.7832C440.1 37.5846 440.152 37.4137 440.256 37.2705C440.36 37.124 440.524 36.9824 440.749 36.8457C440.609 36.7871 440.48 36.7074 440.363 36.6064C440.249 36.5023 440.152 36.3851 440.07 36.2549C439.992 36.1214 439.93 35.9766 439.885 35.8203C439.842 35.6641 439.821 35.5029 439.821 35.3369C439.821 35.0472 439.862 34.7884 439.943 34.5605C440.025 34.3327 440.145 34.139 440.305 33.9795C440.464 33.82 440.663 33.6979 440.9 33.6133C441.138 33.5286 441.415 33.4863 441.73 33.4863C441.851 33.4863 441.975 33.4961 442.102 33.5156C442.232 33.5319 442.341 33.5547 442.429 33.584H444.201ZM440.241 39.8242C440.241 39.9447 440.262 40.057 440.305 40.1611C440.347 40.2653 440.415 40.3548 440.51 40.4297C440.607 40.5046 440.734 40.5632 440.891 40.6055C441.05 40.651 441.247 40.6738 441.481 40.6738C442.087 40.6738 442.539 40.5794 442.839 40.3906C443.142 40.2051 443.293 39.9365 443.293 39.585C443.293 39.4352 443.273 39.3132 443.234 39.2188C443.195 39.1243 443.13 39.0495 443.039 38.9941C442.951 38.9421 442.834 38.9062 442.688 38.8867C442.541 38.8672 442.362 38.8574 442.15 38.8574H441.291C441.177 38.8574 441.058 38.8704 440.935 38.8965C440.811 38.9225 440.697 38.9714 440.593 39.043C440.492 39.1146 440.407 39.2122 440.339 39.3359C440.274 39.4629 440.241 39.6257 440.241 39.8242ZM440.69 35.3076C440.69 35.682 440.778 35.9603 440.954 36.1426C441.13 36.3249 441.379 36.416 441.701 36.416C442.027 36.416 442.272 36.3265 442.438 36.1475C442.608 35.9652 442.692 35.6803 442.692 35.293C442.692 34.8926 442.606 34.598 442.434 34.4092C442.264 34.2204 442.017 34.126 441.691 34.126C441.369 34.126 441.122 34.2236 440.949 34.4189C440.777 34.6143 440.69 34.9105 440.69 35.3076ZM446.145 38.9453H445.256V33.584H446.145V38.9453ZM445.188 32.1338C445.188 31.9385 445.236 31.7969 445.334 31.709C445.435 31.6211 445.559 31.5771 445.705 31.5771C445.777 31.5771 445.843 31.5885 445.905 31.6113C445.97 31.6309 446.026 31.6634 446.071 31.709C446.12 31.7546 446.158 31.8132 446.184 31.8848C446.213 31.9531 446.228 32.0361 446.228 32.1338C446.228 32.3226 446.175 32.4642 446.071 32.5586C445.97 32.6497 445.848 32.6953 445.705 32.6953C445.559 32.6953 445.435 32.6497 445.334 32.5586C445.236 32.4674 445.188 32.3258 445.188 32.1338ZM451.193 38.9453V35.4932C451.193 35.07 451.107 34.7526 450.935 34.541C450.765 34.3294 450.498 34.2236 450.134 34.2236C449.87 34.2236 449.649 34.266 449.47 34.3506C449.291 34.4352 449.146 34.5605 449.035 34.7266C448.928 34.8926 448.85 35.096 448.801 35.3369C448.755 35.5778 448.732 35.8545 448.732 36.167V38.9453H447.844V33.584H448.566L448.693 34.3066H448.742C448.824 34.1667 448.92 34.0462 449.03 33.9453C449.144 33.8411 449.268 33.7549 449.401 33.6865C449.535 33.6182 449.676 33.5677 449.826 33.5352C449.976 33.5026 450.129 33.4863 450.285 33.4863C450.881 33.4863 451.328 33.6426 451.628 33.9551C451.931 34.2643 452.082 34.7607 452.082 35.4443V38.9453H451.193ZM456.755 38.9453L456.574 38.2031H456.535C456.428 38.3496 456.32 38.4766 456.213 38.584C456.105 38.6882 455.988 38.7744 455.861 38.8428C455.734 38.9111 455.593 38.9616 455.437 38.9941C455.28 39.0267 455.1 39.043 454.895 39.043C454.67 39.043 454.463 39.0104 454.274 38.9453C454.086 38.8835 453.921 38.7874 453.781 38.6572C453.645 38.5238 453.537 38.3577 453.459 38.1592C453.381 37.9574 453.342 37.7197 453.342 37.4463C453.342 36.9124 453.529 36.5023 453.903 36.2158C454.281 35.9294 454.854 35.7731 455.622 35.7471L456.521 35.7129V35.376C456.521 35.1579 456.496 34.9756 456.447 34.8291C456.402 34.6826 456.333 34.5654 456.242 34.4775C456.154 34.3864 456.044 34.3213 455.91 34.2822C455.78 34.2432 455.63 34.2236 455.461 34.2236C455.191 34.2236 454.938 34.2627 454.704 34.3408C454.473 34.4189 454.25 34.5133 454.035 34.624L453.723 33.9551C453.964 33.8249 454.232 33.7142 454.528 33.623C454.825 33.5319 455.135 33.4863 455.461 33.4863C455.793 33.4863 456.079 33.5205 456.32 33.5889C456.564 33.654 456.765 33.7598 456.921 33.9063C457.08 34.0495 457.199 34.2334 457.277 34.458C457.355 34.6826 457.395 34.9544 457.395 35.2734V38.9453L456.755 38.9453ZM455.124 38.3252C455.323 38.3252 455.507 38.2943 455.676 38.2324C455.845 38.1706 455.992 38.0778 456.115 37.9541C456.239 37.8271 456.335 37.6693 456.403 37.4805C456.475 37.2884 456.511 37.0638 456.511 36.8066V36.3232L455.812 36.3574C455.52 36.3704 455.274 36.403 455.075 36.4551C454.877 36.5072 454.717 36.5804 454.597 36.6748C454.479 36.766 454.395 36.8783 454.343 37.0117C454.291 37.1419 454.265 37.29 454.265 37.4561C454.265 37.7555 454.343 37.9753 454.499 38.1152C454.659 38.2552 454.867 38.3252 455.124 38.3252ZM459.934 38.9453H459.045V31.3477H459.934V38.9453Z" fill="white"/>
<g clip-path="url(#clip0)">
<rect width="219" height="494" transform="translate(494 64) rotate(90)" fill="url(#paint1_linear)"/>
<path d="M19 146.906C19 141.435 23.4349 137 28.9055 137H83.0945C88.5651 137 93 141.435 93 146.906V146.906C93 152.376 88.5651 156.811 83.0945 156.811H28.9055C23.4349 156.811 19 152.376 19 146.906V146.906Z" fill="#111111" fill-opacity="0.2"/>
<g clip-path="url(#clip1)">
<path d="M36.8511 146.044C36.8511 145.433 36.4178 144.921 35.8436 144.798C36.073 144.415 36.2138 143.973 36.2138 143.495C36.2138 142.089 35.0705 140.945 33.6646 140.945C32.6978 140.945 31.8668 141.491 31.4341 142.286C31.0013 141.491 30.1703 140.945 29.2035 140.945C27.7976 140.945 26.6543 142.089 26.6543 143.495C26.6543 144.069 26.8531 144.595 27.175 145.022C27.0141 145.139 26.8832 145.293 26.7927 145.471C26.7023 145.648 26.6549 145.844 26.6543 146.044V151.142C26.6543 151.845 27.226 152.417 27.9289 152.417H35.5765C36.2795 152.417 36.8511 151.845 36.8511 151.142V149.461L39.4004 150.736V146.274L36.8511 147.549V146.044ZM33.6646 142.22C34.3676 142.22 34.9392 142.792 34.9392 143.495C34.9392 144.197 34.3676 144.769 33.6646 144.769C32.9617 144.769 32.39 144.197 32.39 143.495C32.39 142.792 32.9617 142.22 33.6646 142.22ZM29.2035 142.22C29.9065 142.22 30.4781 142.792 30.4781 143.495C30.4781 144.197 29.9065 144.769 29.2035 144.769C28.5006 144.769 27.9289 144.197 27.9289 143.495C27.9289 142.792 28.5006 142.22 29.2035 142.22ZM27.9289 151.142V146.044H35.5765L35.5778 151.142H27.9289Z" fill="white"/>
<path d="M53.4395 142.566V143.59H50.3668V152.33H49.1036V143.59H46.0309V142.566H53.4395ZM54.812 152.33V145.16H55.6655L55.8909 146.075C56.5191 145.465 57.2747 145.16 58.1578 145.16V146.212C57.302 146.212 56.6078 146.515 56.0752 147.12V152.33H54.812ZM59.0865 150.166C59.0865 148.695 60.0561 147.96 61.9953 147.96C62.619 147.96 63.2426 148.006 63.8662 148.097V147.421C63.8662 146.597 63.2221 146.185 61.9339 146.185C61.1964 146.185 60.4407 146.298 59.6669 146.526V145.502C60.4407 145.274 61.1964 145.16 61.9339 145.16C64.0643 145.16 65.1295 145.902 65.1295 147.386V152.33H64.4193L63.9823 151.62C63.2676 152.093 62.4892 152.33 61.6471 152.33C59.94 152.33 59.0865 151.609 59.0865 150.166ZM61.9953 148.984C60.8982 148.984 60.3497 149.371 60.3497 150.145C60.3497 150.919 60.7822 151.306 61.6471 151.306C62.5211 151.306 63.2608 151.074 63.8662 150.609V149.121C63.2426 149.03 62.619 148.984 61.9953 148.984ZM68.5846 145.16V152.33H67.3213V145.16H68.5846ZM68.5846 142.566V143.761H67.3213V142.566H68.5846ZM72.1079 142.566V152.33H70.8447V142.566H72.1079ZM77.1882 145.16C79.2275 145.16 80.2472 146.169 80.2472 148.185C80.2472 148.472 80.2267 148.779 80.1858 149.107H75.1533C75.1533 150.573 76.0092 151.306 77.7208 151.306C78.5356 151.306 79.2594 151.215 79.8921 151.033V152.057C79.2594 152.239 78.4901 152.33 77.5842 152.33C75.1215 152.33 73.8901 151.108 73.8901 148.663C73.8901 146.328 74.9895 145.16 77.1882 145.16ZM75.1533 148.056H79.0318C79.0045 146.799 78.3899 146.171 77.1882 146.171C75.9136 146.171 75.2353 146.799 75.1533 148.056ZM81.9475 152.33V145.16H82.801L83.0263 146.075C83.6545 145.465 84.4102 145.16 85.2933 145.16V146.212C84.4375 146.212 83.7433 146.515 83.2107 147.12V152.33H81.9475Z" fill="white"/>
</g>
<path d="M28.9055 138.165H83.0945V135.835H28.9055V138.165ZM83.0945 155.646H28.9055V157.976H83.0945V155.646ZM28.9055 155.646C24.0785 155.646 20.1654 151.733 20.1654 146.906H17.8346C17.8346 153.02 22.7912 157.976 28.9055 157.976V155.646ZM91.8346 146.906C91.8346 151.733 87.9215 155.646 83.0945 155.646V157.976C89.2088 157.976 94.1654 153.02 94.1654 146.906H91.8346ZM83.0945 138.165C87.9215 138.165 91.8346 142.078 91.8346 146.906H94.1654C94.1654 140.791 89.2088 135.835 83.0945 135.835V138.165ZM28.9055 135.835C22.7912 135.835 17.8346 140.791 17.8346 146.906H20.1654C20.1654 142.078 24.0785 138.165 28.9055 138.165V135.835Z" fill="white"/>
<path d="M20.4648 182.811V168.846H23.0527V174.607H29.9375V168.846H32.5254V182.811H29.9375V176.854H23.0527V182.811H20.4648ZM34.7324 179.617C34.7324 177.579 36.2168 176.561 39.1855 176.561C39.8822 176.561 40.5788 176.626 41.2754 176.756V175.984C41.2754 175.066 40.6146 174.607 39.293 174.607C38.1732 174.607 36.9297 174.77 35.5625 175.096V173.045C36.9297 172.719 38.1732 172.557 39.293 172.557C42.3398 172.557 43.8633 173.683 43.8633 175.936V182.811H42.3594L41.4414 181.893C40.5495 182.505 39.5664 182.811 38.4922 182.811C35.9857 182.811 34.7324 181.746 34.7324 179.617ZM41.2754 178.514C40.6243 178.383 39.9277 178.318 39.1855 178.318C37.9421 178.318 37.3203 178.742 37.3203 179.588C37.3203 180.499 37.8411 180.955 38.8828 180.955C39.7422 180.955 40.5397 180.688 41.2754 180.154V178.514ZM46.3145 182.811V172.557H48.3164L48.6387 173.865C49.5371 172.993 50.4876 172.557 51.4902 172.557V174.646C50.5267 174.646 49.6641 175.047 48.9023 175.848V182.811H46.3145ZM55.0547 177.645C55.0547 179.786 55.8848 180.857 57.5449 180.857C59.2051 180.857 60.0352 179.786 60.0352 177.645C60.0352 175.555 59.2051 174.51 57.5449 174.51C55.8848 174.51 55.0547 175.555 55.0547 177.645ZM52.4668 177.684C52.4668 174.246 54.1595 172.527 57.5449 172.527C60.9303 172.527 62.623 174.246 62.623 177.684C62.623 181.115 60.9303 182.83 57.5449 182.83C54.1725 182.83 52.4798 181.115 52.4668 177.684ZM67.1641 168.846V182.811H64.5762V168.846H67.1641ZM76.1094 175.232C75.5755 174.881 74.9049 174.705 74.0977 174.705C72.4896 174.705 71.6855 175.607 71.6855 177.41C71.6855 179.552 72.5221 180.623 74.1953 180.623C74.8724 180.623 75.5104 180.529 76.1094 180.34V175.232ZM78.6973 182.195C77.1283 182.605 75.5951 182.811 74.0977 182.811C70.7839 182.811 69.127 181.033 69.127 177.479C69.127 174.197 70.748 172.557 73.9902 172.557C74.6803 172.557 75.3867 172.719 76.1094 173.045V168.846H78.6973V182.195ZM85.0449 179.617C85.0449 177.579 86.5293 176.561 89.498 176.561C90.1947 176.561 90.8913 176.626 91.5879 176.756V175.984C91.5879 175.066 90.9271 174.607 89.6055 174.607C88.4857 174.607 87.2422 174.77 85.875 175.096V173.045C87.2422 172.719 88.4857 172.557 89.6055 172.557C92.6523 172.557 94.1758 173.683 94.1758 175.936V182.811H92.6719L91.7539 181.893C90.862 182.505 89.8789 182.811 88.8047 182.811C86.2982 182.811 85.0449 181.746 85.0449 179.617ZM91.5879 178.514C90.9368 178.383 90.2402 178.318 89.498 178.318C88.2546 178.318 87.6328 178.742 87.6328 179.588C87.6328 180.499 88.1536 180.955 89.1953 180.955C90.0547 180.955 90.8522 180.688 91.5879 180.154V178.514ZM96.627 182.811V172.557H98.6289L98.9512 174.061C99.9342 173.058 101.054 172.557 102.311 172.557C104.739 172.557 105.953 173.82 105.953 176.346V182.811H103.365V176.346C103.365 175.213 102.802 174.646 101.676 174.646C100.836 174.646 100.016 174.982 99.2148 175.652V182.811H96.627ZM114.898 175.232C114.365 174.881 113.694 174.705 112.887 174.705C111.279 174.705 110.475 175.607 110.475 177.41C110.475 179.552 111.311 180.623 112.984 180.623C113.661 180.623 114.299 180.529 114.898 180.34V175.232ZM117.486 182.195C115.917 182.605 114.384 182.811 112.887 182.811C109.573 182.811 107.916 181.033 107.916 177.479C107.916 174.197 109.537 172.557 112.779 172.557C113.469 172.557 114.176 172.719 114.898 173.045V168.846H117.486V182.195ZM124.566 182.811V168.846H127.252L131.988 179.441L136.627 168.846H139.215V182.811H136.822V173.084L133.033 182.811H130.826L126.959 173.084V182.811H124.566ZM141.412 179.617C141.412 177.579 142.896 176.561 145.865 176.561C146.562 176.561 147.258 176.626 147.955 176.756V175.984C147.955 175.066 147.294 174.607 145.973 174.607C144.853 174.607 143.609 174.77 142.242 175.096V173.045C143.609 172.719 144.853 172.557 145.973 172.557C149.02 172.557 150.543 173.683 150.543 175.936V182.811H149.039L148.121 181.893C147.229 182.505 146.246 182.811 145.172 182.811C142.665 182.811 141.412 181.746 141.412 179.617ZM147.955 178.514C147.304 178.383 146.607 178.318 145.865 178.318C144.622 178.318 144 178.742 144 179.588C144 180.499 144.521 180.955 145.562 180.955C146.422 180.955 147.219 180.688 147.955 180.154V178.514ZM162.223 172.557V182.811H160.201L159.889 181.502C158.71 182.374 157.46 182.811 156.139 182.811C154.042 182.811 152.994 181.57 152.994 179.09V172.557H155.582V179.021C155.582 180.154 156.077 180.721 157.066 180.721C157.906 180.721 158.762 180.385 159.635 179.715V172.557H162.223ZM171.168 175.232C170.634 174.881 169.964 174.705 169.156 174.705C167.548 174.705 166.744 175.607 166.744 177.41C166.744 179.552 167.581 180.623 169.254 180.623C169.931 180.623 170.569 180.529 171.168 180.34V175.232ZM173.756 182.195C172.187 182.605 170.654 182.811 169.156 182.811C165.842 182.811 164.186 181.033 164.186 177.479C164.186 174.197 165.807 172.557 169.049 172.557C169.739 172.557 170.445 172.719 171.168 173.045V168.846H173.756V182.195ZM180.523 172.557C183.635 172.557 185.191 174.145 185.191 177.322C185.191 177.745 185.162 178.169 185.104 178.592H178.297C178.297 180.037 179.358 180.76 181.48 180.76C182.516 180.76 183.551 180.662 184.586 180.467V182.518C183.681 182.713 182.581 182.811 181.285 182.811C177.568 182.811 175.709 181.062 175.709 177.566C175.709 174.227 177.314 172.557 180.523 172.557ZM178.297 176.795H182.672V176.717C182.672 175.298 181.956 174.588 180.523 174.588C179.156 174.588 178.414 175.324 178.297 176.795Z" fill="white"/>
<path d="M25.25 197.342L23.4727 200.943L19.5 201.518L22.375 204.322L21.6953 208.279L25.25 206.412L28.8047 208.279L28.125 204.322L31 201.521L27.0273 200.943L25.25 197.342Z" fill="#F39B13"/>
<path d="M37.6348 201.679C38.0859 201.679 38.5052 201.743 38.8926 201.87C39.2845 201.993 39.624 202.178 39.9111 202.424C40.2028 202.67 40.4307 202.975 40.5947 203.34C40.7588 203.704 40.8408 204.126 40.8408 204.604C40.8408 205.124 40.7633 205.591 40.6084 206.006C40.4535 206.421 40.2233 206.771 39.918 207.059C39.6126 207.346 39.2344 207.567 38.7832 207.722C38.3366 207.872 37.8216 207.947 37.2383 207.947C37.0059 207.947 36.7757 207.936 36.5479 207.913C36.3245 207.89 36.1081 207.856 35.8984 207.811C35.6934 207.77 35.4974 207.715 35.3105 207.646C35.1237 207.578 34.9551 207.498 34.8047 207.407V206.231C34.9551 206.336 35.1305 206.43 35.3311 206.512C35.5361 206.594 35.7503 206.662 35.9736 206.717C36.1969 206.771 36.4202 206.815 36.6436 206.847C36.8714 206.874 37.0811 206.888 37.2725 206.888C37.6325 206.888 37.9538 206.847 38.2363 206.765C38.5189 206.678 38.7581 206.546 38.9541 206.368C39.1501 206.19 39.3005 205.967 39.4053 205.698C39.5101 205.429 39.5625 205.11 39.5625 204.741C39.5625 204.09 39.362 203.593 38.9609 203.251C38.5599 202.905 37.9766 202.731 37.2109 202.731C37.0879 202.731 36.9535 202.738 36.8076 202.752C36.6663 202.761 36.5228 202.775 36.377 202.793C36.2357 202.811 36.099 202.832 35.9668 202.854C35.8392 202.873 35.7275 202.891 35.6318 202.909L35.0166 202.52L35.3926 197.816H40.1094V198.951H36.4727L36.2061 201.815C36.3519 201.788 36.5433 201.758 36.7803 201.727C37.0218 201.695 37.3066 201.679 37.6348 201.679ZM42.625 207.052C42.625 206.879 42.6478 206.733 42.6934 206.614C42.7389 206.491 42.8005 206.393 42.8779 206.32C42.9554 206.243 43.0465 206.188 43.1514 206.156C43.2562 206.12 43.3701 206.102 43.4932 206.102C43.6117 206.102 43.7233 206.12 43.8281 206.156C43.9375 206.188 44.0309 206.243 44.1084 206.32C44.1859 206.393 44.2474 206.491 44.293 206.614C44.3385 206.733 44.3613 206.879 44.3613 207.052C44.3613 207.22 44.3385 207.366 44.293 207.489C44.2474 207.608 44.1859 207.706 44.1084 207.783C44.0309 207.861 43.9375 207.918 43.8281 207.954C43.7233 207.991 43.6117 208.009 43.4932 208.009C43.3701 208.009 43.2562 207.991 43.1514 207.954C43.0465 207.918 42.9554 207.861 42.8779 207.783C42.8005 207.706 42.7389 207.608 42.6934 207.489C42.6478 207.366 42.625 207.22 42.625 207.052ZM49.1055 201.679C49.5566 201.679 49.9759 201.743 50.3633 201.87C50.7552 201.993 51.0947 202.178 51.3818 202.424C51.6735 202.67 51.9014 202.975 52.0654 203.34C52.2295 203.704 52.3115 204.126 52.3115 204.604C52.3115 205.124 52.234 205.591 52.0791 206.006C51.9242 206.421 51.694 206.771 51.3887 207.059C51.0833 207.346 50.7051 207.567 50.2539 207.722C49.8073 207.872 49.2923 207.947 48.709 207.947C48.4766 207.947 48.2464 207.936 48.0186 207.913C47.7952 207.89 47.5788 207.856 47.3691 207.811C47.1641 207.77 46.9681 207.715 46.7812 207.646C46.5944 207.578 46.4258 207.498 46.2754 207.407V206.231C46.4258 206.336 46.6012 206.43 46.8018 206.512C47.0068 206.594 47.221 206.662 47.4443 206.717C47.6676 206.771 47.891 206.815 48.1143 206.847C48.3421 206.874 48.5518 206.888 48.7432 206.888C49.1032 206.888 49.4245 206.847 49.707 206.765C49.9896 206.678 50.2288 206.546 50.4248 206.368C50.6208 206.19 50.7712 205.967 50.876 205.698C50.9808 205.429 51.0332 205.11 51.0332 204.741C51.0332 204.09 50.8327 203.593 50.4316 203.251C50.0306 202.905 49.4473 202.731 48.6816 202.731C48.5586 202.731 48.4242 202.738 48.2783 202.752C48.137 202.761 47.9935 202.775 47.8477 202.793C47.7064 202.811 47.5697 202.832 47.4375 202.854C47.3099 202.873 47.1982 202.891 47.1025 202.909L46.4873 202.52L46.8633 197.816H51.5801V198.951H47.9434L47.6768 201.815C47.8226 201.788 48.014 201.758 48.251 201.727C48.4925 201.695 48.7773 201.679 49.1055 201.679Z" fill="white"/>
<path d="M58.1523 198.035V207.811H56.8877V198.035H58.1523ZM60.6885 207.811V198.035H62.2949L65.8838 206.19L69.4043 198.035H70.9424V207.811H69.8145V199.792L66.3418 207.811H65.3438L61.8164 199.792V207.811H60.6885ZM76.8213 206.785C79.2139 206.785 80.4102 205.409 80.4102 202.656C80.4102 200.259 79.2139 199.061 76.8213 199.061H74.5312V206.785H76.8213ZM73.2666 207.811V198.035H76.8213C80.057 198.035 81.6748 199.576 81.6748 202.656C81.6748 206.092 80.057 207.811 76.8213 207.811H73.2666ZM84.6484 206.56C85.0632 206.692 85.5667 206.758 86.1592 206.758C87.7542 206.758 88.5518 205.849 88.5518 204.03C88.5518 202.494 87.8294 201.727 86.3848 201.727C85.7285 201.727 85.1497 201.85 84.6484 202.096V206.56ZM83.3838 198.035H84.6484V200.975C85.1908 200.747 85.7718 200.633 86.3916 200.633C88.6611 200.633 89.7959 201.781 89.7959 204.078C89.7959 206.566 88.6042 207.811 86.2207 207.811C85.1908 207.811 84.2451 207.713 83.3838 207.517V198.035Z" fill="white"/>
<path d="M24.585 231.811H22.4727V226.027C22.4727 225.909 22.4727 225.768 22.4727 225.604C22.4772 225.435 22.4818 225.262 22.4863 225.084C22.4954 224.902 22.5023 224.719 22.5068 224.537C22.516 224.355 22.5228 224.188 22.5273 224.038C22.5046 224.065 22.4658 224.106 22.4111 224.161C22.3564 224.216 22.2949 224.277 22.2266 224.346C22.1582 224.41 22.0876 224.476 22.0146 224.544C21.9417 224.612 21.8711 224.674 21.8027 224.729L20.6543 225.651L19.6289 224.38L22.8486 221.816H24.585V231.811ZM34.4355 231.811H32.3506V227.347C32.3506 226.795 32.264 226.383 32.0908 226.109C31.9222 225.831 31.6602 225.692 31.3047 225.692C31.0358 225.692 30.8102 225.747 30.6279 225.856C30.4456 225.966 30.2998 226.128 30.1904 226.342C30.0811 226.556 30.0036 226.82 29.958 227.135C29.9124 227.449 29.8896 227.809 29.8896 228.215V231.811H27.8047V221.174H29.8896V223.341C29.8896 223.532 29.8851 223.735 29.876 223.949C29.8669 224.159 29.8555 224.353 29.8418 224.53C29.8236 224.74 29.8076 224.945 29.7939 225.146H29.9033C30.1266 224.749 30.4115 224.464 30.7578 224.291C31.1042 224.113 31.4961 224.024 31.9336 224.024C32.3118 224.024 32.6536 224.079 32.959 224.188C33.2689 224.293 33.5332 224.46 33.752 224.688C33.9707 224.915 34.1393 225.207 34.2578 225.562C34.3763 225.913 34.4355 226.335 34.4355 226.827V231.811ZM40.5674 224.024C40.6221 224.024 40.6813 224.027 40.7451 224.031C40.8135 224.031 40.8773 224.036 40.9365 224.045C41.0003 224.049 41.0573 224.056 41.1074 224.065C41.1621 224.07 41.2031 224.077 41.2305 224.086V226.041C41.194 226.032 41.1439 226.023 41.0801 226.014C41.0163 226.005 40.9479 225.998 40.875 225.993C40.8066 225.984 40.7383 225.979 40.6699 225.979C40.6016 225.975 40.5446 225.973 40.499 225.973C40.2301 225.973 39.9818 226.007 39.7539 226.075C39.5306 226.144 39.3369 226.255 39.1729 226.41C39.0133 226.561 38.888 226.761 38.7969 227.012C38.7103 227.258 38.667 227.561 38.667 227.921V231.811H36.582V224.168H38.1611L38.4688 225.316H38.5713C38.6807 225.12 38.7992 224.943 38.9268 224.783C39.0544 224.624 39.1956 224.489 39.3506 224.38C39.5101 224.266 39.6878 224.179 39.8838 224.12C40.0843 224.056 40.3122 224.024 40.5674 224.024ZM52.626 229.739H51.4229V231.811H49.3652V229.739H45.2363V228.27L49.4814 221.816H51.4229V228.099H52.626V229.739ZM49.3652 228.099V226.403C49.3652 226.344 49.3652 226.26 49.3652 226.15C49.3698 226.036 49.3743 225.909 49.3789 225.768C49.3835 225.626 49.388 225.48 49.3926 225.33C49.4017 225.18 49.4085 225.036 49.4131 224.899C49.4222 224.763 49.429 224.644 49.4336 224.544C49.4427 224.439 49.4495 224.364 49.4541 224.318H49.3926C49.3105 224.51 49.2171 224.713 49.1123 224.927C49.012 225.141 48.8958 225.355 48.7637 225.569L47.0957 228.099H49.3652ZM57.0078 225.426C57.4362 225.426 57.835 225.492 58.2041 225.624C58.5732 225.756 58.8945 225.95 59.168 226.205C59.4414 226.46 59.6556 226.779 59.8105 227.162C59.9655 227.54 60.043 227.976 60.043 228.468C60.043 229.01 59.9587 229.498 59.79 229.931C59.6214 230.359 59.373 230.724 59.0449 231.024C58.7168 231.321 58.3089 231.549 57.8213 231.708C57.3382 231.868 56.7822 231.947 56.1533 231.947C55.9027 231.947 55.6543 231.936 55.4082 231.913C55.1621 231.89 54.9251 231.856 54.6973 231.811C54.474 231.77 54.2598 231.715 54.0547 231.646C53.8542 231.578 53.6719 231.498 53.5078 231.407V229.582C53.6673 229.673 53.8519 229.76 54.0615 229.842C54.2712 229.919 54.4876 229.988 54.7109 230.047C54.9388 230.102 55.1667 230.147 55.3945 230.184C55.6224 230.215 55.8389 230.231 56.0439 230.231C56.6546 230.231 57.1195 230.106 57.4385 229.855C57.7575 229.6 57.917 229.197 57.917 228.646C57.917 228.153 57.7598 227.78 57.4453 227.524C57.1354 227.265 56.6546 227.135 56.0029 227.135C55.8844 227.135 55.7568 227.142 55.6201 227.155C55.488 227.169 55.3558 227.187 55.2236 227.21C55.096 227.233 54.973 227.258 54.8545 227.285C54.736 227.308 54.6335 227.333 54.5469 227.36L53.7061 226.909L54.082 221.816H59.3594V223.607H55.9141L55.75 225.569C55.8958 225.537 56.0645 225.506 56.2559 225.474C56.4518 225.442 56.7025 225.426 57.0078 225.426ZM71.9238 231.811H69.8389V227.347C69.8389 226.795 69.7568 226.383 69.5928 226.109C69.4287 225.831 69.1712 225.692 68.8203 225.692C68.556 225.692 68.335 225.747 68.1572 225.856C67.984 225.966 67.8451 226.128 67.7402 226.342C67.6354 226.556 67.5602 226.82 67.5146 227.135C67.4691 227.449 67.4463 227.809 67.4463 228.215V231.811H65.3613V224.168H66.9541L67.2344 225.146H67.3506C67.46 224.95 67.5898 224.781 67.7402 224.64C67.8952 224.498 68.0638 224.382 68.2461 224.291C68.4284 224.2 68.6221 224.134 68.8271 224.093C69.0322 224.047 69.2396 224.024 69.4492 224.024C69.9733 224.024 70.4176 224.116 70.7822 224.298C71.1514 224.476 71.4339 224.758 71.6299 225.146H71.8008C71.9102 224.95 72.0423 224.781 72.1973 224.64C72.3522 224.498 72.5231 224.382 72.71 224.291C72.8968 224.2 73.0928 224.134 73.2979 224.093C73.5075 224.047 73.7171 224.024 73.9268 224.024C74.7471 224.024 75.3646 224.248 75.7793 224.694C76.1986 225.136 76.4082 225.847 76.4082 226.827V231.811H74.3164V227.347C74.3164 226.795 74.2344 226.383 74.0703 226.109C73.9062 225.831 73.6488 225.692 73.2979 225.692C72.8011 225.692 72.4479 225.891 72.2383 226.287C72.0286 226.679 71.9238 227.242 71.9238 227.976V231.811ZM78.4658 222.192C78.4658 221.996 78.4954 221.835 78.5547 221.707C78.6139 221.575 78.6937 221.47 78.7939 221.393C78.8988 221.311 79.0195 221.254 79.1562 221.222C79.2975 221.19 79.4456 221.174 79.6006 221.174C79.7555 221.174 79.9014 221.19 80.0381 221.222C80.1748 221.254 80.2933 221.311 80.3936 221.393C80.4984 221.47 80.5804 221.575 80.6396 221.707C80.7035 221.835 80.7354 221.996 80.7354 222.192C80.7354 222.384 80.7035 222.546 80.6396 222.678C80.5804 222.81 80.4984 222.917 80.3936 222.999C80.2933 223.076 80.1748 223.133 80.0381 223.17C79.9014 223.202 79.7555 223.218 79.6006 223.218C79.4456 223.218 79.2975 223.202 79.1562 223.17C79.0195 223.133 78.8988 223.076 78.7939 222.999C78.6937 222.917 78.6139 222.81 78.5547 222.678C78.4954 222.546 78.4658 222.384 78.4658 222.192ZM80.6396 231.811H78.5547V224.168H80.6396V231.811ZM89.4648 231.811H87.3799V227.347C87.3799 226.795 87.2956 226.383 87.127 226.109C86.9629 225.831 86.6986 225.692 86.334 225.692C86.0605 225.692 85.8327 225.747 85.6504 225.856C85.4681 225.966 85.3223 226.128 85.2129 226.342C85.1081 226.556 85.0329 226.82 84.9873 227.135C84.9417 227.449 84.9189 227.809 84.9189 228.215V231.811H82.834V224.168H84.4268L84.707 225.146H84.8232C84.9326 224.95 85.0648 224.781 85.2197 224.64C85.3792 224.498 85.5524 224.382 85.7393 224.291C85.9261 224.2 86.1243 224.134 86.334 224.093C86.5436 224.047 86.7578 224.024 86.9766 224.024C87.3503 224.024 87.6898 224.079 87.9951 224.188C88.3005 224.293 88.5625 224.46 88.7812 224.688C89 224.915 89.1686 225.207 89.2871 225.562C89.4056 225.913 89.4648 226.335 89.4648 226.827V231.811Z" fill="white"/>
<path d="M104.585 231.811H102.473V226.027C102.473 225.909 102.473 225.768 102.473 225.604C102.477 225.435 102.482 225.262 102.486 225.084C102.495 224.902 102.502 224.719 102.507 224.537C102.516 224.355 102.523 224.188 102.527 224.038C102.505 224.065 102.466 224.106 102.411 224.161C102.356 224.216 102.295 224.277 102.227 224.346C102.158 224.41 102.088 224.476 102.015 224.544C101.942 224.612 101.871 224.674 101.803 224.729L100.654 225.651L99.6289 224.38L102.849 221.816H104.585V231.811ZM113.923 226.082C113.923 226.561 113.896 227.039 113.841 227.518C113.791 227.992 113.697 228.445 113.561 228.878C113.428 229.311 113.246 229.716 113.014 230.095C112.786 230.468 112.494 230.792 112.139 231.065C111.788 231.339 111.364 231.555 110.867 231.715C110.375 231.87 109.796 231.947 109.131 231.947C109.035 231.947 108.93 231.945 108.816 231.94C108.702 231.936 108.586 231.929 108.468 231.92C108.354 231.915 108.242 231.906 108.133 231.893C108.023 231.883 107.928 231.87 107.846 231.852V230.156C108.014 230.202 108.194 230.238 108.386 230.266C108.582 230.288 108.78 230.3 108.98 230.3C109.596 230.3 110.102 230.225 110.498 230.074C110.895 229.919 111.209 229.705 111.441 229.432C111.674 229.154 111.838 228.823 111.934 228.44C112.034 228.058 112.095 227.636 112.118 227.176H112.029C111.938 227.34 111.829 227.493 111.701 227.634C111.574 227.775 111.423 227.898 111.25 228.003C111.077 228.108 110.881 228.19 110.662 228.249C110.443 228.308 110.2 228.338 109.931 228.338C109.498 228.338 109.108 228.267 108.762 228.126C108.415 227.985 108.121 227.78 107.88 227.511C107.643 227.242 107.461 226.911 107.333 226.52C107.205 226.128 107.142 225.679 107.142 225.173C107.142 224.631 107.217 224.145 107.367 223.717C107.522 223.288 107.741 222.926 108.023 222.63C108.306 222.329 108.648 222.099 109.049 221.939C109.454 221.78 109.908 221.7 110.409 221.7C110.901 221.7 111.362 221.789 111.79 221.967C112.218 222.14 112.59 222.407 112.904 222.767C113.219 223.127 113.467 223.582 113.649 224.134C113.832 224.685 113.923 225.335 113.923 226.082ZM110.45 223.396C110.263 223.396 110.092 223.43 109.938 223.498C109.783 223.566 109.648 223.674 109.534 223.819C109.425 223.961 109.338 224.143 109.274 224.366C109.215 224.585 109.186 224.845 109.186 225.146C109.186 225.629 109.288 226.011 109.493 226.294C109.698 226.576 110.008 226.718 110.423 226.718C110.632 226.718 110.824 226.677 110.997 226.595C111.17 226.513 111.318 226.406 111.441 226.273C111.564 226.141 111.658 225.993 111.722 225.829C111.79 225.665 111.824 225.499 111.824 225.33C111.824 225.098 111.795 224.868 111.735 224.64C111.681 224.407 111.594 224.2 111.476 224.018C111.362 223.831 111.218 223.68 111.045 223.566C110.876 223.452 110.678 223.396 110.45 223.396ZM121.634 226.082C121.634 226.561 121.606 227.039 121.552 227.518C121.502 227.992 121.408 228.445 121.271 228.878C121.139 229.311 120.957 229.716 120.725 230.095C120.497 230.468 120.205 230.792 119.85 231.065C119.499 231.339 119.075 231.555 118.578 231.715C118.086 231.87 117.507 231.947 116.842 231.947C116.746 231.947 116.641 231.945 116.527 231.94C116.413 231.936 116.297 231.929 116.179 231.92C116.065 231.915 115.953 231.906 115.844 231.893C115.734 231.883 115.639 231.87 115.557 231.852V230.156C115.725 230.202 115.905 230.238 116.097 230.266C116.293 230.288 116.491 230.3 116.691 230.3C117.307 230.3 117.812 230.225 118.209 230.074C118.605 229.919 118.92 229.705 119.152 229.432C119.385 229.154 119.549 228.823 119.645 228.44C119.745 228.058 119.806 227.636 119.829 227.176H119.74C119.649 227.34 119.54 227.493 119.412 227.634C119.285 227.775 119.134 227.898 118.961 228.003C118.788 228.108 118.592 228.19 118.373 228.249C118.154 228.308 117.91 228.338 117.642 228.338C117.209 228.338 116.819 228.267 116.473 228.126C116.126 227.985 115.832 227.78 115.591 227.511C115.354 227.242 115.172 226.911 115.044 226.52C114.916 226.128 114.853 225.679 114.853 225.173C114.853 224.631 114.928 224.145 115.078 223.717C115.233 223.288 115.452 222.926 115.734 222.63C116.017 222.329 116.359 222.099 116.76 221.939C117.165 221.78 117.619 221.7 118.12 221.7C118.612 221.7 119.073 221.789 119.501 221.967C119.929 222.14 120.301 222.407 120.615 222.767C120.93 223.127 121.178 223.582 121.36 224.134C121.543 224.685 121.634 225.335 121.634 226.082ZM118.161 223.396C117.974 223.396 117.803 223.43 117.648 223.498C117.493 223.566 117.359 223.674 117.245 223.819C117.136 223.961 117.049 224.143 116.985 224.366C116.926 224.585 116.896 224.845 116.896 225.146C116.896 225.629 116.999 226.011 117.204 226.294C117.409 226.576 117.719 226.718 118.134 226.718C118.343 226.718 118.535 226.677 118.708 226.595C118.881 226.513 119.029 226.406 119.152 226.273C119.275 226.141 119.369 225.993 119.433 225.829C119.501 225.665 119.535 225.499 119.535 225.33C119.535 225.098 119.506 224.868 119.446 224.64C119.392 224.407 119.305 224.2 119.187 224.018C119.073 223.831 118.929 223.68 118.756 223.566C118.587 223.452 118.389 223.396 118.161 223.396ZM125.995 221.687C126.41 221.687 126.802 221.737 127.171 221.837C127.54 221.937 127.864 222.088 128.142 222.288C128.42 222.489 128.641 222.739 128.805 223.04C128.969 223.341 129.051 223.694 129.051 224.1C129.051 224.4 129.005 224.674 128.914 224.92C128.823 225.161 128.698 225.382 128.538 225.583C128.379 225.779 128.189 225.954 127.971 226.109C127.752 226.264 127.515 226.406 127.26 226.533C127.524 226.674 127.782 226.832 128.032 227.005C128.287 227.178 128.513 227.374 128.709 227.593C128.905 227.807 129.062 228.049 129.181 228.317C129.299 228.586 129.358 228.887 129.358 229.22C129.358 229.634 129.276 230.01 129.112 230.348C128.948 230.685 128.718 230.972 128.422 231.209C128.126 231.446 127.77 231.628 127.355 231.756C126.945 231.883 126.492 231.947 125.995 231.947C125.457 231.947 124.979 231.886 124.56 231.763C124.14 231.64 123.787 231.464 123.5 231.236C123.213 231.008 122.994 230.728 122.844 230.396C122.698 230.063 122.625 229.689 122.625 229.274C122.625 228.933 122.675 228.625 122.775 228.352C122.876 228.078 123.012 227.832 123.186 227.613C123.359 227.395 123.562 227.201 123.794 227.032C124.026 226.864 124.275 226.715 124.539 226.588C124.316 226.447 124.106 226.294 123.91 226.13C123.714 225.961 123.543 225.777 123.397 225.576C123.256 225.371 123.142 225.146 123.056 224.899C122.974 224.653 122.933 224.382 122.933 224.086C122.933 223.689 123.015 223.343 123.179 223.047C123.347 222.746 123.573 222.495 123.855 222.295C124.138 222.09 124.464 221.937 124.833 221.837C125.202 221.737 125.59 221.687 125.995 221.687ZM124.58 229.151C124.58 229.334 124.61 229.502 124.669 229.657C124.728 229.808 124.815 229.938 124.929 230.047C125.047 230.156 125.193 230.243 125.366 230.307C125.539 230.366 125.74 230.396 125.968 230.396C126.446 230.396 126.804 230.284 127.041 230.061C127.278 229.833 127.396 229.534 127.396 229.165C127.396 228.974 127.355 228.803 127.273 228.652C127.196 228.497 127.093 228.356 126.966 228.229C126.843 228.096 126.701 227.976 126.542 227.866C126.382 227.757 126.223 227.652 126.063 227.552L125.913 227.456C125.713 227.556 125.53 227.666 125.366 227.784C125.202 227.898 125.061 228.026 124.942 228.167C124.828 228.304 124.74 228.454 124.676 228.618C124.612 228.782 124.58 228.96 124.58 229.151ZM125.981 223.231C125.831 223.231 125.69 223.254 125.558 223.3C125.43 223.345 125.318 223.411 125.223 223.498C125.132 223.585 125.059 223.692 125.004 223.819C124.949 223.947 124.922 224.09 124.922 224.25C124.922 224.441 124.949 224.608 125.004 224.749C125.063 224.886 125.141 225.009 125.236 225.118C125.337 225.223 125.451 225.319 125.578 225.405C125.71 225.487 125.849 225.569 125.995 225.651C126.136 225.578 126.271 225.499 126.398 225.412C126.526 225.326 126.638 225.228 126.733 225.118C126.834 225.004 126.913 224.877 126.973 224.735C127.032 224.594 127.062 224.432 127.062 224.25C127.062 224.09 127.034 223.947 126.979 223.819C126.925 223.692 126.85 223.585 126.754 223.498C126.658 223.411 126.544 223.345 126.412 223.3C126.28 223.254 126.136 223.231 125.981 223.231Z" fill="white"/>
<path d="M146.939 223.87C146.591 223.87 146.275 223.937 145.992 224.07C145.709 224.201 145.466 224.389 145.265 224.637C145.066 224.884 144.911 225.185 144.801 225.54C144.693 225.895 144.64 226.295 144.64 226.741C144.64 227.2 144.687 227.609 144.781 227.967C144.879 228.322 145.024 228.621 145.216 228.865C145.408 229.109 145.647 229.295 145.934 229.422C146.22 229.549 146.555 229.612 146.939 229.612C147.229 229.612 147.504 229.585 147.765 229.529C148.025 229.471 148.282 229.404 148.536 229.329V230.12C148.409 230.169 148.282 230.213 148.155 230.252C148.028 230.288 147.895 230.317 147.755 230.34C147.618 230.363 147.47 230.379 147.311 230.389C147.154 230.402 146.98 230.408 146.788 230.408C146.254 230.408 145.792 230.32 145.401 230.145C145.011 229.969 144.687 229.72 144.43 229.397C144.176 229.075 143.987 228.688 143.863 228.235C143.74 227.783 143.678 227.282 143.678 226.731C143.678 226.191 143.748 225.696 143.888 225.247C144.031 224.798 144.239 224.412 144.513 224.09C144.789 223.768 145.131 223.517 145.538 223.338C145.945 223.159 146.412 223.069 146.939 223.069C147.291 223.069 147.626 223.105 147.945 223.177C148.264 223.248 148.552 223.353 148.81 223.489L148.429 224.251C148.224 224.147 148.001 224.057 147.76 223.982C147.519 223.908 147.245 223.87 146.939 223.87ZM152.77 223.87C152.421 223.87 152.105 223.937 151.822 224.07C151.539 224.201 151.297 224.389 151.095 224.637C150.896 224.884 150.742 225.185 150.631 225.54C150.523 225.895 150.47 226.295 150.47 226.741C150.47 227.2 150.517 227.609 150.611 227.967C150.709 228.322 150.854 228.621 151.046 228.865C151.238 229.109 151.477 229.295 151.764 229.422C152.05 229.549 152.385 229.612 152.77 229.612C153.059 229.612 153.334 229.585 153.595 229.529C153.855 229.471 154.112 229.404 154.366 229.329V230.12C154.239 230.169 154.112 230.213 153.985 230.252C153.858 230.288 153.725 230.317 153.585 230.34C153.448 230.363 153.3 230.379 153.141 230.389C152.984 230.402 152.81 230.408 152.618 230.408C152.084 230.408 151.622 230.32 151.231 230.145C150.841 229.969 150.517 229.72 150.26 229.397C150.006 229.075 149.817 228.688 149.693 228.235C149.57 227.783 149.508 227.282 149.508 226.731C149.508 226.191 149.578 225.696 149.718 225.247C149.861 224.798 150.069 224.412 150.343 224.09C150.619 223.768 150.961 223.517 151.368 223.338C151.775 223.159 152.242 223.069 152.77 223.069C153.121 223.069 153.456 223.105 153.775 223.177C154.094 223.248 154.382 223.353 154.64 223.489L154.259 224.251C154.054 224.147 153.831 224.057 153.59 223.982C153.349 223.908 153.076 223.87 152.77 223.87Z" fill="white"/>
<path d="M141 220.811H157V218.811H141V220.811ZM159 222.811V230.811H161V222.811H159ZM157 232.811H141V234.811H157V232.811ZM139 230.811V222.811H137V230.811H139ZM141 232.811C139.895 232.811 139 231.915 139 230.811H137C137 233.02 138.791 234.811 141 234.811V232.811ZM159 230.811C159 231.915 158.105 232.811 157 232.811V234.811C159.209 234.811 161 233.02 161 230.811H159ZM157 220.811C158.105 220.811 159 221.706 159 222.811H161C161 220.601 159.209 218.811 157 218.811V220.811ZM141 218.811C138.791 218.811 137 220.601 137 222.811H139C139 221.706 139.895 220.811 141 220.811V218.811Z" fill="white"/>
<path d="M178.297 225.262C178.297 225.558 178.251 225.843 178.16 226.116C178.072 226.39 177.926 226.632 177.721 226.844C177.516 227.052 177.244 227.22 176.905 227.347C176.57 227.47 176.155 227.532 175.66 227.532H174.928V230.311H174.02V223.172H175.787C176.223 223.172 176.599 223.219 176.915 223.313C177.231 223.405 177.491 223.54 177.696 223.719C177.901 223.895 178.053 224.113 178.15 224.373C178.248 224.633 178.297 224.93 178.297 225.262ZM174.928 226.761H175.558C175.86 226.761 176.124 226.735 176.349 226.683C176.576 226.631 176.764 226.548 176.91 226.434C177.06 226.316 177.172 226.167 177.247 225.984C177.322 225.799 177.359 225.574 177.359 225.311C177.359 224.848 177.226 224.507 176.959 224.285C176.692 224.061 176.275 223.948 175.709 223.948H174.928V226.761ZM182.628 226.541H184.991V230.042C184.812 230.101 184.632 230.153 184.449 230.198C184.267 230.244 184.08 230.281 183.888 230.311C183.696 230.343 183.494 230.368 183.282 230.384C183.071 230.4 182.843 230.408 182.599 230.408C182.088 230.408 181.635 230.324 181.241 230.154C180.847 229.982 180.515 229.738 180.245 229.422C179.975 229.103 179.77 228.717 179.63 228.265C179.49 227.809 179.42 227.298 179.42 226.731C179.42 226.172 179.496 225.665 179.649 225.213C179.806 224.76 180.032 224.376 180.328 224.061C180.624 223.742 180.989 223.497 181.422 223.328C181.858 223.156 182.354 223.069 182.911 223.069C183.272 223.069 183.619 223.105 183.951 223.177C184.283 223.248 184.592 223.353 184.879 223.489L184.527 224.28C184.41 224.225 184.283 224.173 184.146 224.124C184.013 224.075 183.875 224.033 183.731 223.997C183.588 223.958 183.44 223.927 183.287 223.904C183.137 223.882 182.988 223.87 182.838 223.87C182.441 223.87 182.089 223.937 181.783 224.07C181.477 224.201 181.22 224.389 181.012 224.637C180.807 224.884 180.65 225.185 180.543 225.54C180.436 225.895 180.382 226.295 180.382 226.741C180.382 227.164 180.426 227.552 180.514 227.903C180.605 228.255 180.748 228.558 180.943 228.812C181.139 229.065 181.391 229.262 181.7 229.402C182.009 229.542 182.382 229.612 182.818 229.612C182.962 229.612 183.092 229.609 183.209 229.603C183.329 229.593 183.44 229.581 183.541 229.568C183.642 229.555 183.736 229.541 183.824 229.524C183.915 229.505 184.003 229.487 184.088 229.471V227.342H182.628V226.541ZM186.114 228.04V227.22H188.536V228.04H186.114ZM192.408 230.311H191.549V225.853C191.549 225.713 191.549 225.563 191.549 225.403C191.552 225.244 191.555 225.086 191.559 224.93C191.565 224.77 191.57 224.619 191.573 224.476C191.58 224.329 191.585 224.201 191.588 224.09C191.533 224.148 191.484 224.199 191.441 224.241C191.399 224.284 191.355 224.324 191.31 224.363C191.267 224.402 191.222 224.445 191.173 224.49C191.124 224.533 191.065 224.583 190.997 224.642L190.274 225.232L189.806 224.632L191.676 223.172H192.408V230.311ZM199.137 224.842C199.137 225.079 199.099 225.296 199.024 225.491C198.95 225.687 198.844 225.856 198.707 225.999C198.574 226.142 198.412 226.261 198.224 226.355C198.035 226.447 197.825 226.512 197.594 226.551V226.58C198.17 226.652 198.608 226.836 198.907 227.132C199.207 227.425 199.356 227.807 199.356 228.279C199.356 228.592 199.303 228.878 199.195 229.139C199.091 229.399 198.932 229.624 198.717 229.812C198.502 230.001 198.23 230.148 197.901 230.252C197.573 230.356 197.184 230.408 196.734 230.408C196.38 230.408 196.044 230.381 195.729 230.325C195.416 230.27 195.121 230.169 194.845 230.022V229.192C195.128 229.342 195.434 229.458 195.763 229.539C196.095 229.62 196.412 229.661 196.715 229.661C197.014 229.661 197.273 229.629 197.491 229.563C197.709 229.498 197.888 229.406 198.028 229.285C198.172 229.165 198.276 229.017 198.341 228.841C198.409 228.665 198.443 228.468 198.443 228.25C198.443 228.029 198.399 227.84 198.312 227.684C198.227 227.524 198.105 227.394 197.945 227.293C197.786 227.189 197.59 227.112 197.359 227.063C197.132 227.015 196.873 226.99 196.583 226.99H195.934V226.253H196.583C196.847 226.253 197.081 226.22 197.286 226.155C197.491 226.09 197.662 225.997 197.799 225.877C197.939 225.757 198.045 225.613 198.116 225.447C198.188 225.281 198.224 225.099 198.224 224.9C198.224 224.731 198.194 224.58 198.136 224.446C198.077 224.313 197.994 224.201 197.887 224.109C197.779 224.015 197.651 223.943 197.501 223.895C197.351 223.846 197.185 223.821 197.003 223.821C196.655 223.821 196.347 223.877 196.08 223.987C195.816 224.095 195.564 224.236 195.323 224.412L194.874 223.802C194.998 223.701 195.134 223.606 195.284 223.519C195.437 223.431 195.603 223.354 195.782 223.289C195.961 223.221 196.152 223.167 196.354 223.128C196.559 223.089 196.775 223.069 197.003 223.069C197.354 223.069 197.662 223.113 197.926 223.201C198.193 223.289 198.416 223.413 198.595 223.572C198.774 223.729 198.909 223.916 199 224.134C199.091 224.349 199.137 224.585 199.137 224.842Z" fill="white"/>
<path d="M171 220.811H202V218.811H171V220.811ZM204 222.811V230.811H206V222.811H204ZM202 232.811H171V234.811H202V232.811ZM169 230.811V222.811H167V230.811H169ZM171 232.811C169.895 232.811 169 231.915 169 230.811H167C167 233.02 168.791 234.811 171 234.811V232.811ZM204 230.811C204 231.915 203.105 232.811 202 232.811V234.811C204.209 234.811 206 233.02 206 230.811H204ZM202 220.811C203.105 220.811 204 221.706 204 222.811H206C206 220.601 204.209 218.811 202 218.811V220.811ZM171 218.811C168.791 218.811 167 220.601 167 222.811H169C169 221.706 169.895 220.811 171 220.811V218.811Z" fill="white"/>
<circle cx="20.5" cy="250.811" r="1.5" fill="#E1E1E1" fill-opacity="0.5"/>
<path d="M28.6318 251.682V255.811H27.3604V245.816H29.7939C31.0062 245.816 31.9017 246.051 32.4805 246.521C33.0592 246.99 33.3486 247.701 33.3486 248.653C33.3486 249.05 33.2917 249.396 33.1777 249.692C33.0684 249.989 32.9202 250.244 32.7334 250.458C32.5511 250.668 32.3415 250.843 32.1045 250.984C31.8675 251.126 31.6237 251.242 31.373 251.333L34.0938 255.811H32.5967L30.1973 251.682H28.6318ZM28.6318 250.602H29.7529C30.1631 250.602 30.5117 250.563 30.7988 250.485C31.0859 250.403 31.3206 250.285 31.5029 250.13C31.6898 249.97 31.8242 249.774 31.9062 249.542C31.9928 249.305 32.0361 249.029 32.0361 248.715C32.0361 248.387 31.9883 248.109 31.8926 247.881C31.8014 247.653 31.6602 247.466 31.4688 247.32C31.2819 247.174 31.0426 247.07 30.751 247.006C30.4639 246.938 30.1221 246.903 29.7256 246.903H28.6318V250.602ZM41.5654 252.044C41.5654 252.668 41.488 253.224 41.333 253.712C41.1826 254.195 40.9639 254.603 40.6768 254.936C40.3942 255.264 40.0501 255.514 39.6445 255.688C39.2389 255.861 38.7832 255.947 38.2773 255.947C37.8079 255.947 37.375 255.861 36.9785 255.688C36.582 255.514 36.238 255.264 35.9463 254.936C35.6592 254.603 35.4336 254.195 35.2695 253.712C35.11 253.224 35.0303 252.668 35.0303 252.044C35.0303 251.424 35.1055 250.875 35.2559 250.396C35.4108 249.913 35.6296 249.508 35.9121 249.18C36.1947 248.847 36.5387 248.596 36.9443 248.428C37.3545 248.255 37.8125 248.168 38.3184 248.168C38.7878 248.168 39.2207 248.255 39.6172 248.428C40.0137 248.596 40.3555 248.847 40.6426 249.18C40.9342 249.508 41.1598 249.913 41.3193 250.396C41.4834 250.875 41.5654 251.424 41.5654 252.044ZM36.3154 252.044C36.3154 252.996 36.4704 253.714 36.7803 254.197C37.0947 254.676 37.6029 254.915 38.3047 254.915C39.0065 254.915 39.5101 254.676 39.8154 254.197C40.1253 253.714 40.2803 252.996 40.2803 252.044C40.2803 251.091 40.123 250.381 39.8086 249.911C39.4987 249.437 38.9928 249.2 38.291 249.2C37.5892 249.2 37.0833 249.437 36.7734 249.911C36.4681 250.381 36.3154 251.091 36.3154 252.044ZM52.5166 255.811V250.978C52.5166 250.385 52.4027 249.941 52.1748 249.645C51.9469 249.348 51.5938 249.2 51.1152 249.2C50.7826 249.2 50.5 249.255 50.2676 249.364C50.0352 249.469 49.8438 249.626 49.6934 249.836C49.5475 250.041 49.4404 250.299 49.3721 250.608C49.3037 250.914 49.2695 251.267 49.2695 251.668V255.811H48.0186V250.978C48.0186 250.385 47.9046 249.941 47.6768 249.645C47.4535 249.348 47.1025 249.2 46.624 249.2C46.2731 249.2 45.9792 249.259 45.7422 249.378C45.5052 249.496 45.3138 249.672 45.168 249.904C45.0267 250.137 44.9242 250.422 44.8604 250.759C44.8011 251.096 44.7715 251.483 44.7715 251.921V255.811H43.5273V248.305H44.5391L44.7168 249.316H44.7852C44.8945 249.12 45.0244 248.952 45.1748 248.811C45.3252 248.665 45.4893 248.544 45.667 248.448C45.8493 248.353 46.0407 248.282 46.2412 248.236C46.4463 248.191 46.6536 248.168 46.8633 248.168C47.4102 248.168 47.8636 248.268 48.2236 248.469C48.5882 248.669 48.8571 248.984 49.0303 249.412H49.085C49.2035 249.198 49.3447 249.013 49.5088 248.858C49.6774 248.703 49.8597 248.576 50.0557 248.476C50.2562 248.371 50.4658 248.293 50.6846 248.243C50.9033 248.193 51.1266 248.168 51.3545 248.168C52.152 248.168 52.7513 248.387 53.1523 248.824C53.5579 249.257 53.7607 249.952 53.7607 250.909V255.811H52.5166ZM60.3096 255.811L60.0566 254.771H60.002C59.8516 254.977 59.7012 255.154 59.5508 255.305C59.4004 255.451 59.2363 255.571 59.0586 255.667C58.8809 255.763 58.6826 255.833 58.4639 255.879C58.2451 255.924 57.9922 255.947 57.7051 255.947C57.3906 255.947 57.1012 255.902 56.8369 255.811C56.5726 255.724 56.3424 255.59 56.1465 255.407C55.9551 255.22 55.8047 254.988 55.6953 254.71C55.5859 254.427 55.5312 254.095 55.5312 253.712C55.5312 252.965 55.7933 252.39 56.3174 251.989C56.846 251.588 57.6481 251.369 58.7236 251.333L59.9814 251.285V250.813C59.9814 250.508 59.9473 250.253 59.8789 250.048C59.8151 249.843 59.7194 249.679 59.5918 249.556C59.4688 249.428 59.3138 249.337 59.127 249.282C58.9447 249.228 58.735 249.2 58.498 249.2C58.1198 249.2 57.7666 249.255 57.4385 249.364C57.1149 249.474 56.8027 249.606 56.502 249.761L56.0645 248.824C56.4017 248.642 56.7777 248.487 57.1924 248.359C57.6071 248.232 58.0423 248.168 58.498 248.168C58.9629 248.168 59.3639 248.216 59.7012 248.312C60.043 248.403 60.3232 248.551 60.542 248.756C60.7653 248.956 60.9316 249.214 61.041 249.528C61.1504 249.843 61.2051 250.223 61.2051 250.67V255.811H60.3096ZM58.0264 254.942C58.3044 254.942 58.5618 254.899 58.7988 254.812C59.0358 254.726 59.2409 254.596 59.4141 254.423C59.5872 254.245 59.7217 254.024 59.8174 253.76C59.9176 253.491 59.9678 253.176 59.9678 252.816V252.14L58.9902 252.188C58.5801 252.206 58.236 252.251 57.958 252.324C57.68 252.397 57.4567 252.5 57.2881 252.632C57.124 252.759 57.0055 252.917 56.9326 253.104C56.8597 253.286 56.8232 253.493 56.8232 253.726C56.8232 254.145 56.9326 254.452 57.1514 254.648C57.3747 254.844 57.6663 254.942 58.0264 254.942ZM68.2051 255.811V250.978C68.2051 250.385 68.0843 249.941 67.8428 249.645C67.6058 249.348 67.2321 249.2 66.7217 249.2C66.3525 249.2 66.0426 249.259 65.792 249.378C65.5413 249.496 65.3385 249.672 65.1836 249.904C65.0332 250.137 64.9238 250.422 64.8555 250.759C64.7917 251.096 64.7598 251.483 64.7598 251.921V255.811H63.5156V248.305H64.5273L64.7051 249.316H64.7734C64.8874 249.12 65.0218 248.952 65.1768 248.811C65.3363 248.665 65.5094 248.544 65.6963 248.448C65.8831 248.353 66.0814 248.282 66.291 248.236C66.5007 248.191 66.7148 248.168 66.9336 248.168C67.7676 248.168 68.3942 248.387 68.8135 248.824C69.2373 249.257 69.4492 249.952 69.4492 250.909V255.811H68.2051ZM74.6309 255.947C74.1706 255.947 73.7399 255.877 73.3389 255.735C72.9378 255.59 72.5892 255.362 72.293 255.052C71.9967 254.737 71.7643 254.339 71.5957 253.855C71.4271 253.368 71.3428 252.782 71.3428 252.099C71.3428 251.383 71.4294 250.777 71.6025 250.28C71.7757 249.779 72.0127 249.373 72.3135 249.063C72.6188 248.749 72.9743 248.521 73.3799 248.38C73.7855 248.239 74.2207 248.168 74.6855 248.168C75.041 248.168 75.3874 248.207 75.7246 248.284C76.0664 248.362 76.3512 248.457 76.5791 248.571L76.21 249.624C76.1051 249.578 75.9889 249.535 75.8613 249.494C75.7337 249.449 75.6016 249.41 75.4648 249.378C75.3281 249.341 75.1937 249.314 75.0615 249.296C74.9294 249.273 74.804 249.262 74.6855 249.262C73.9701 249.262 73.4482 249.492 73.1201 249.952C72.792 250.408 72.6279 251.119 72.6279 252.085C72.6279 253.047 72.792 253.751 73.1201 254.197C73.4528 254.639 73.9564 254.86 74.6309 254.86C75 254.86 75.3327 254.819 75.6289 254.737C75.9297 254.651 76.2031 254.55 76.4492 254.437V255.544C76.2031 255.676 75.9388 255.776 75.6562 255.845C75.3783 255.913 75.0365 255.947 74.6309 255.947ZM81.207 255.947C80.7057 255.947 80.2477 255.863 79.833 255.694C79.4183 255.526 79.0605 255.28 78.7598 254.956C78.4635 254.632 78.2334 254.231 78.0693 253.753C77.9053 253.274 77.8232 252.728 77.8232 252.112C77.8232 251.493 77.8984 250.939 78.0488 250.451C78.1992 249.964 78.4111 249.551 78.6846 249.214C78.958 248.872 79.2839 248.612 79.6621 248.435C80.0449 248.257 80.4665 248.168 80.9268 248.168C81.3779 248.168 81.7835 248.25 82.1436 248.414C82.5036 248.574 82.8089 248.801 83.0596 249.098C83.3102 249.389 83.5016 249.743 83.6338 250.157C83.7705 250.567 83.8389 251.023 83.8389 251.524V252.297H79.1084C79.1312 253.176 79.3158 253.824 79.6621 254.238C80.013 254.653 80.5326 254.86 81.2207 254.86C81.4531 254.86 81.6673 254.849 81.8633 254.826C82.0638 254.803 82.2552 254.771 82.4375 254.73C82.6243 254.685 82.8044 254.63 82.9775 254.566C83.1507 254.498 83.3262 254.423 83.5039 254.341V255.448C83.3216 255.535 83.1416 255.61 82.9639 255.674C82.7907 255.738 82.6107 255.79 82.4238 255.831C82.2415 255.872 82.0501 255.902 81.8496 255.92C81.6536 255.938 81.4395 255.947 81.207 255.947ZM80.8994 249.2C80.3799 249.2 79.9674 249.378 79.6621 249.733C79.3613 250.089 79.1859 250.606 79.1357 251.285H82.499C82.499 250.975 82.4671 250.693 82.4033 250.438C82.3441 250.178 82.2484 249.957 82.1162 249.774C81.9886 249.592 81.8245 249.451 81.624 249.351C81.4235 249.25 81.182 249.2 80.8994 249.2Z" fill="white"/>
<circle cx="96.5" cy="250.811" r="1.5" fill="#E1E1E1" fill-opacity="0.5"/>
<path d="M110.723 250.718C110.723 251.561 110.613 252.301 110.395 252.939C110.176 253.573 109.859 254.104 109.444 254.532C109.03 254.956 108.519 255.275 107.913 255.489C107.312 255.703 106.628 255.811 105.862 255.811H103.36V245.816H106.143C106.84 245.816 107.471 245.921 108.036 246.131C108.601 246.34 109.082 246.653 109.479 247.067C109.875 247.478 110.18 247.988 110.395 248.599C110.613 249.209 110.723 249.916 110.723 250.718ZM109.376 250.759C109.376 250.093 109.301 249.519 109.15 249.036C109 248.549 108.781 248.147 108.494 247.833C108.207 247.519 107.854 247.286 107.435 247.136C107.015 246.981 106.539 246.903 106.006 246.903H104.632V254.717H105.739C106.942 254.717 107.849 254.384 108.46 253.719C109.071 253.053 109.376 252.067 109.376 250.759ZM116.021 248.168C116.153 248.168 116.301 248.175 116.465 248.188C116.629 248.198 116.77 248.214 116.889 248.236L116.725 249.385C116.597 249.362 116.465 249.344 116.328 249.33C116.196 249.312 116.071 249.303 115.952 249.303C115.665 249.303 115.403 249.362 115.166 249.48C114.929 249.594 114.724 249.761 114.551 249.979C114.382 250.194 114.25 250.453 114.154 250.759C114.063 251.06 114.018 251.395 114.018 251.764V255.811H112.773V248.305H113.785L113.936 249.679H113.99C114.104 249.483 114.225 249.294 114.353 249.111C114.485 248.929 114.631 248.77 114.79 248.633C114.954 248.492 115.136 248.38 115.337 248.298C115.537 248.211 115.765 248.168 116.021 248.168ZM122.46 255.811L122.207 254.771H122.152C122.002 254.977 121.852 255.154 121.701 255.305C121.551 255.451 121.387 255.571 121.209 255.667C121.031 255.763 120.833 255.833 120.614 255.879C120.396 255.924 120.143 255.947 119.855 255.947C119.541 255.947 119.252 255.902 118.987 255.811C118.723 255.724 118.493 255.59 118.297 255.407C118.105 255.22 117.955 254.988 117.846 254.71C117.736 254.427 117.682 254.095 117.682 253.712C117.682 252.965 117.944 252.39 118.468 251.989C118.996 251.588 119.799 251.369 120.874 251.333L122.132 251.285V250.813C122.132 250.508 122.098 250.253 122.029 250.048C121.965 249.843 121.87 249.679 121.742 249.556C121.619 249.428 121.464 249.337 121.277 249.282C121.095 249.228 120.885 249.2 120.648 249.2C120.27 249.2 119.917 249.255 119.589 249.364C119.265 249.474 118.953 249.606 118.652 249.761L118.215 248.824C118.552 248.642 118.928 248.487 119.343 248.359C119.757 248.232 120.193 248.168 120.648 248.168C121.113 248.168 121.514 248.216 121.852 248.312C122.193 248.403 122.474 248.551 122.692 248.756C122.916 248.956 123.082 249.214 123.191 249.528C123.301 249.843 123.355 250.223 123.355 250.67V255.811H122.46ZM120.177 254.942C120.455 254.942 120.712 254.899 120.949 254.812C121.186 254.726 121.391 254.596 121.564 254.423C121.738 254.245 121.872 254.024 121.968 253.76C122.068 253.491 122.118 253.176 122.118 252.816V252.14L121.141 252.188C120.73 252.206 120.386 252.251 120.108 252.324C119.83 252.397 119.607 252.5 119.438 252.632C119.274 252.759 119.156 252.917 119.083 253.104C119.01 253.286 118.974 253.493 118.974 253.726C118.974 254.145 119.083 254.452 119.302 254.648C119.525 254.844 119.817 254.942 120.177 254.942ZM134.655 255.811V250.978C134.655 250.385 134.541 249.941 134.313 249.645C134.086 249.348 133.732 249.2 133.254 249.2C132.921 249.2 132.639 249.255 132.406 249.364C132.174 249.469 131.982 249.626 131.832 249.836C131.686 250.041 131.579 250.299 131.511 250.608C131.442 250.914 131.408 251.267 131.408 251.668V255.811H130.157V250.978C130.157 250.385 130.043 249.941 129.815 249.645C129.592 249.348 129.241 249.2 128.763 249.2C128.412 249.2 128.118 249.259 127.881 249.378C127.644 249.496 127.452 249.672 127.307 249.904C127.165 250.137 127.063 250.422 126.999 250.759C126.94 251.096 126.91 251.483 126.91 251.921V255.811H125.666V248.305H126.678L126.855 249.316H126.924C127.033 249.12 127.163 248.952 127.313 248.811C127.464 248.665 127.628 248.544 127.806 248.448C127.988 248.353 128.179 248.282 128.38 248.236C128.585 248.191 128.792 248.168 129.002 248.168C129.549 248.168 130.002 248.268 130.362 248.469C130.727 248.669 130.996 248.984 131.169 249.412H131.224C131.342 249.198 131.483 249.013 131.647 248.858C131.816 248.703 131.998 248.576 132.194 248.476C132.395 248.371 132.604 248.293 132.823 248.243C133.042 248.193 133.265 248.168 133.493 248.168C134.291 248.168 134.89 248.387 135.291 248.824C135.697 249.257 135.899 249.952 135.899 250.909V255.811H134.655ZM142.448 255.811L142.195 254.771H142.141C141.99 254.977 141.84 255.154 141.689 255.305C141.539 255.451 141.375 255.571 141.197 255.667C141.02 255.763 140.821 255.833 140.603 255.879C140.384 255.924 140.131 255.947 139.844 255.947C139.529 255.947 139.24 255.902 138.976 255.811C138.711 255.724 138.481 255.59 138.285 255.407C138.094 255.22 137.943 254.988 137.834 254.71C137.725 254.427 137.67 254.095 137.67 253.712C137.67 252.965 137.932 252.39 138.456 251.989C138.985 251.588 139.787 251.369 140.862 251.333L142.12 251.285V250.813C142.12 250.508 142.086 250.253 142.018 250.048C141.954 249.843 141.858 249.679 141.73 249.556C141.607 249.428 141.452 249.337 141.266 249.282C141.083 249.228 140.874 249.2 140.637 249.2C140.258 249.2 139.905 249.255 139.577 249.364C139.254 249.474 138.941 249.606 138.641 249.761L138.203 248.824C138.54 248.642 138.916 248.487 139.331 248.359C139.746 248.232 140.181 248.168 140.637 248.168C141.102 248.168 141.503 248.216 141.84 248.312C142.182 248.403 142.462 248.551 142.681 248.756C142.904 248.956 143.07 249.214 143.18 249.528C143.289 249.843 143.344 250.223 143.344 250.67V255.811H142.448ZM140.165 254.942C140.443 254.942 140.701 254.899 140.938 254.812C141.174 254.726 141.38 254.596 141.553 254.423C141.726 254.245 141.86 254.024 141.956 253.76C142.056 253.491 142.106 253.176 142.106 252.816V252.14L141.129 252.188C140.719 252.206 140.375 252.251 140.097 252.324C139.819 252.397 139.595 252.5 139.427 252.632C139.263 252.759 139.144 252.917 139.071 253.104C138.998 253.286 138.962 253.493 138.962 253.726C138.962 254.145 139.071 254.452 139.29 254.648C139.513 254.844 139.805 254.942 140.165 254.942Z" fill="white"/>
<path d="M343.4 239.75C347.937 239.75 351.65 243.463 351.65 248C351.65 252.538 347.937 256.25 343.4 256.25C338.862 256.25 335.15 252.538 335.15 248C335.15 243.463 338.862 239.75 343.4 239.75ZM343.4 238.375C338.106 238.375 333.775 242.706 333.775 248C333.775 253.294 338.106 257.625 343.4 257.625C348.694 257.625 353.025 253.294 353.025 248C353.025 242.706 348.694 238.375 343.4 238.375Z" fill="white"/>
<path d="M348.9 247.312H344.087V242.5H342.712V247.312H337.9V248.688H342.712V253.5H344.087V248.688H348.9V247.312Z" fill="white"/>
<path d="M375.667 244.276C375.005 243.608 374.316 243.026 373.598 242.532C372.881 242.037 372.209 241.666 371.582 241.419C370.955 241.172 370.381 241.053 369.859 241.063C369.336 241.073 368.929 241.228 368.636 241.529C368.567 241.596 368.508 241.671 368.459 241.755C368.41 241.838 368.375 241.903 368.354 241.95C368.333 241.997 368.306 242.081 368.271 242.201C368.236 242.321 368.212 242.398 368.198 242.432L364.312 254.703L364.552 254.944C364.28 255.124 364.038 255.335 363.826 255.576C363.613 255.816 363.427 256.013 363.267 256.167C363.107 256.321 362.915 256.428 362.692 256.488C362.644 256.501 362.583 256.547 362.51 256.623C362.436 256.7 362.4 256.769 362.4 256.829C362.4 256.949 362.463 257.049 362.588 257.13C362.713 257.21 362.853 257.25 363.006 257.25C363.201 257.25 363.389 257.175 363.57 257.024C363.751 256.874 363.934 256.682 364.118 256.448C364.303 256.214 364.437 256.06 364.521 255.987C364.702 255.833 364.904 255.686 365.126 255.546L365.398 255.796L377.746 251.776C378.017 251.696 378.226 251.575 378.372 251.415C378.665 251.114 378.816 250.698 378.827 250.167C378.837 249.635 378.721 249.05 378.477 248.412C378.233 247.774 377.869 247.092 377.385 246.367C376.901 245.642 376.328 244.945 375.667 244.276ZM374.539 245.369C375.604 246.412 376.414 247.409 376.967 248.362C377.521 249.314 377.655 249.941 377.37 250.242C377.084 250.543 376.461 250.432 375.5 249.911C374.539 249.39 373.529 248.611 372.47 247.575C371.398 246.532 370.585 245.536 370.031 244.587C369.477 243.638 369.343 243.01 369.629 242.702C369.914 242.401 370.539 242.512 371.504 243.033C372.468 243.554 373.48 244.333 374.539 245.369ZM372.251 249.52C372.759 249.954 373.264 250.335 373.766 250.663C373.772 250.676 373.947 250.99 374.288 251.605L373.41 251.896C372.992 251.141 372.606 250.349 372.251 249.52ZM368.689 244.928C368.842 245.256 369.054 245.653 369.326 246.121C369.549 247.084 369.899 248.126 370.376 249.249C370.853 250.372 371.373 251.425 371.937 252.407L371.07 252.688C370.416 251.525 369.845 250.307 369.357 249.034C368.87 247.76 368.57 246.636 368.459 245.66L368.689 244.928ZM367.477 248.598C367.964 250.095 368.65 251.632 369.535 253.21L368.678 253.5C367.989 252.23 367.445 251.037 367.049 249.921L367.477 248.598ZM366.275 252.257C366.547 252.872 366.836 253.457 367.143 254.012L366.286 254.302C366.188 254.122 366.049 253.844 365.868 253.47L366.275 252.257ZM373.954 238L374.476 239.514L373.128 240.456H374.789L375.301 241.97L375.813 240.456H377.464L376.126 239.514L376.649 238.01L375.301 238.942L373.954 238ZM371.029 238L370.747 239.374L372.178 239.644L372.46 238.271L371.029 238ZM380.441 242.131L381.59 240.978L383.084 241.68L382.311 240.276L383.47 239.143L381.83 239.414L381.057 238L380.827 239.584L379.187 239.855L380.681 240.547L380.441 242.131ZM380.054 244.597L381.444 245.479L381.005 247.023L382.3 246.021L383.679 246.903L383.105 245.399L384.4 244.417L382.739 244.487L382.154 242.993L381.726 244.527L380.054 244.597ZM379.459 240.877L376.346 243.324L376.732 243.775L379.845 241.329L379.459 240.877ZM380.545 245.61L378.111 245.399L378.049 245.981L380.493 246.191L380.545 245.61ZM380.785 248.417L380.336 249.761L381.726 250.192L382.185 248.858L380.785 248.417Z" fill="white"/>
<path d="M403.15 243.833C403.656 243.833 404.067 243.423 404.067 242.917C404.067 242.41 403.656 242 403.15 242C402.644 242 402.233 242.41 402.233 242.917C402.233 243.423 402.644 243.833 403.15 243.833Z" fill="white"/>
<path d="M405.747 251.41H404.219V245.055H401.928C401.725 245.055 401.531 245.138 401.388 245.287C401.244 245.436 401.164 245.638 401.164 245.849C401.164 246.06 401.244 246.262 401.388 246.411C401.531 246.56 401.725 246.644 401.928 246.644H402.692V251.41H401.164C400.961 251.41 400.767 251.494 400.624 251.643C400.48 251.792 400.4 251.994 400.4 252.205C400.4 252.415 400.48 252.617 400.624 252.766C400.767 252.915 400.961 252.999 401.164 252.999H405.747C405.95 252.999 406.144 252.915 406.287 252.766C406.431 252.617 406.511 252.415 406.511 252.205C406.511 251.994 406.431 251.792 406.287 251.643C406.144 251.494 405.95 251.41 405.747 251.41Z" fill="white"/>
<path d="M403.025 238C401.121 238 399.26 238.564 397.678 239.622C396.095 240.68 394.861 242.183 394.133 243.942C393.404 245.7 393.213 247.636 393.585 249.503C393.956 251.37 394.873 253.085 396.219 254.431C397.565 255.777 399.28 256.694 401.147 257.065C403.014 257.436 404.949 257.246 406.708 256.517C408.467 255.789 409.97 254.555 411.028 252.972C412.085 251.39 412.65 249.529 412.65 247.625C412.65 245.072 411.636 242.624 409.831 240.819C408.026 239.014 405.578 238 403.025 238ZM403.025 255.646C401.439 255.646 399.888 255.175 398.569 254.294C397.25 253.413 396.222 252.16 395.615 250.694C395.008 249.229 394.849 247.616 395.158 246.06C395.468 244.504 396.232 243.075 397.353 241.953C398.475 240.832 399.904 240.068 401.46 239.758C403.016 239.449 404.629 239.608 406.094 240.215C407.56 240.822 408.813 241.85 409.694 243.169C410.575 244.488 411.046 246.039 411.046 247.625C411.046 248.678 410.838 249.721 410.435 250.694C410.032 251.668 409.441 252.552 408.696 253.297C407.952 254.041 407.067 254.632 406.094 255.035C405.121 255.438 404.078 255.646 403.025 255.646Z" fill="white"/>
<path d="M438.213 250.75C437.698 250.753 437.191 250.871 436.728 251.096C436.265 251.321 435.858 251.647 435.538 252.05L430.513 248.908C430.696 248.317 430.696 247.684 430.513 247.093L435.538 243.951C436.048 244.582 436.766 245.013 437.563 245.167C438.36 245.32 439.186 245.186 439.894 244.789C440.602 244.392 441.147 243.757 441.432 242.997C441.716 242.237 441.723 241.4 441.45 240.636C441.177 239.871 440.642 239.228 439.941 238.819C439.239 238.411 438.415 238.265 437.616 238.406C436.816 238.547 436.092 238.966 435.572 239.59C435.052 240.213 434.77 241.001 434.775 241.813C434.778 242.12 434.825 242.426 434.913 242.72L429.887 245.862C429.443 245.303 428.837 244.897 428.152 244.698C427.467 244.5 426.737 244.52 426.063 244.754C425.39 244.989 424.806 245.428 424.393 246.01C423.98 246.591 423.758 247.287 423.758 248C423.758 248.713 423.98 249.409 424.393 249.991C424.806 250.572 425.39 251.011 426.063 251.246C426.737 251.481 427.467 251.5 428.152 251.302C428.837 251.103 429.443 250.697 429.887 250.138L434.913 253.28C434.825 253.575 434.778 253.88 434.775 254.188C434.775 254.868 434.977 255.532 435.355 256.097C435.732 256.663 436.269 257.103 436.897 257.363C437.525 257.624 438.216 257.692 438.883 257.559C439.55 257.426 440.163 257.099 440.643 256.618C441.124 256.138 441.451 255.525 441.584 254.858C441.717 254.191 441.649 253.5 441.389 252.872C441.128 252.244 440.688 251.707 440.122 251.329C439.557 250.952 438.893 250.75 438.213 250.75ZM438.213 239.75C438.621 239.75 439.019 239.871 439.359 240.098C439.698 240.324 439.962 240.646 440.118 241.023C440.274 241.4 440.315 241.815 440.236 242.215C440.156 242.615 439.96 242.983 439.671 243.271C439.383 243.559 439.015 243.756 438.615 243.836C438.215 243.915 437.8 243.874 437.423 243.718C437.047 243.562 436.724 243.298 436.498 242.959C436.271 242.619 436.15 242.221 436.15 241.813C436.15 241.266 436.367 240.741 436.754 240.354C437.141 239.967 437.666 239.75 438.213 239.75ZM427.213 250.063C426.805 250.063 426.406 249.942 426.067 249.715C425.728 249.488 425.463 249.166 425.307 248.789C425.151 248.413 425.11 247.998 425.19 247.598C425.269 247.198 425.466 246.83 425.754 246.542C426.043 246.253 426.41 246.057 426.81 245.977C427.21 245.898 427.625 245.939 428.002 246.095C428.379 246.251 428.701 246.515 428.928 246.854C429.154 247.193 429.275 247.592 429.275 248C429.275 248.547 429.058 249.072 428.671 249.459C428.284 249.845 427.76 250.063 427.213 250.063ZM438.213 256.25C437.805 256.25 437.406 256.129 437.067 255.903C436.728 255.676 436.463 255.354 436.307 254.977C436.151 254.6 436.11 254.185 436.19 253.785C436.269 253.385 436.466 253.018 436.754 252.729C437.043 252.441 437.41 252.244 437.81 252.165C438.21 252.085 438.625 252.126 439.002 252.282C439.379 252.438 439.701 252.703 439.928 253.042C440.154 253.381 440.275 253.78 440.275 254.188C440.275 254.735 440.058 255.259 439.671 255.646C439.284 256.033 438.76 256.25 438.213 256.25Z" fill="white"/>
<path d="M469.816 238.834H458.147C457.503 238.834 456.88 239.06 456.386 239.472C455.892 239.884 455.558 240.456 455.442 241.089L454.278 247.506C454.206 247.902 454.221 248.31 454.324 248.699C454.426 249.089 454.613 249.452 454.871 249.761C455.129 250.071 455.452 250.32 455.816 250.491C456.181 250.662 456.579 250.751 456.982 250.751H461.162L460.649 252.061C460.436 252.635 460.364 253.253 460.442 253.86C460.519 254.468 460.743 255.047 461.093 255.549C461.444 256.051 461.911 256.461 462.455 256.743C462.999 257.024 463.602 257.17 464.215 257.167C464.391 257.167 464.564 257.116 464.712 257.02C464.86 256.924 464.977 256.787 465.049 256.626L467.662 250.751H469.816C470.545 250.751 471.245 250.461 471.76 249.945C472.276 249.429 472.566 248.73 472.566 248.001V241.584C472.566 240.855 472.276 240.155 471.76 239.639C471.245 239.124 470.545 238.834 469.816 238.834ZM466.149 249.641L463.656 255.251C463.401 255.174 463.164 255.046 462.96 254.874C462.757 254.701 462.591 254.49 462.472 254.251C462.354 254.012 462.285 253.752 462.271 253.485C462.257 253.219 462.298 252.953 462.391 252.703L462.877 251.392C462.98 251.115 463.015 250.817 462.978 250.524C462.942 250.23 462.835 249.95 462.666 249.707C462.498 249.464 462.273 249.265 462.011 249.127C461.749 248.99 461.458 248.918 461.162 248.917H456.982C456.848 248.918 456.715 248.888 456.593 248.831C456.471 248.774 456.363 248.691 456.277 248.587C456.188 248.485 456.124 248.365 456.087 248.235C456.051 248.105 456.043 247.969 456.066 247.836L457.23 241.419C457.269 241.205 457.382 241.013 457.55 240.875C457.718 240.737 457.929 240.664 458.147 240.667H466.149V249.641ZM470.732 248.001C470.732 248.244 470.636 248.477 470.464 248.649C470.292 248.821 470.059 248.917 469.816 248.917H467.982V240.667H469.816C470.059 240.667 470.292 240.764 470.464 240.936C470.636 241.108 470.732 241.341 470.732 241.584V248.001Z" fill="white"/>
</g>
<path d="M247 117C251.747 117 256.387 118.408 260.334 121.045C264.28 123.682 267.357 127.43 269.173 131.816C270.99 136.201 271.465 141.027 270.539 145.682C269.613 150.338 267.327 154.614 263.971 157.971C260.614 161.327 256.338 163.613 251.682 164.539C247.027 165.465 242.201 164.99 237.816 163.173C233.43 161.357 229.682 158.28 227.045 154.334C224.408 150.387 223 145.747 223 141C223 134.635 225.529 128.53 230.029 124.029C234.53 119.529 240.635 117 247 117ZM247 113C241.462 113 236.049 114.642 231.444 117.719C226.839 120.796 223.251 125.169 221.131 130.285C219.012 135.401 218.458 141.031 219.538 146.463C220.618 151.894 223.285 156.883 227.201 160.799C231.117 164.715 236.106 167.382 241.537 168.462C246.969 169.542 252.599 168.988 257.715 166.869C262.831 164.749 267.204 161.161 270.281 156.556C273.358 151.951 275 146.538 275 141C275 133.574 272.05 126.452 266.799 121.201C261.548 115.95 254.426 113 247 113Z" fill="white" fill-opacity="0.6"/>
<path d="M239 155C238.641 155 238.289 154.903 237.98 154.72C237.681 154.543 237.434 154.291 237.262 153.989C237.09 153.688 237 153.347 237 153V129C237 128.653 237.09 128.311 237.262 128.01C237.434 127.708 237.681 127.457 237.98 127.28C238.284 127.104 238.629 127.012 238.98 127.012C239.331 127.012 239.676 127.104 239.98 127.28L261.98 139.28C262.298 139.451 262.563 139.705 262.748 140.015C262.932 140.325 263.03 140.679 263.03 141.04C263.03 141.4 262.932 141.755 262.748 142.064C262.563 142.374 262.298 142.628 261.98 142.8L239.98 154.8C239.676 154.948 239.338 155.017 239 155ZM241 132.36V149.64L256.82 141L241 132.36Z" fill="white" fill-opacity="0.6"/>
<path d="M20 31C20 24.9249 24.9249 20 31 20H53C59.0751 20 64 24.9249 64 31C64 37.0751 59.0751 42 53 42H31C24.9249 42 20 37.0751 20 31Z" fill="white" fill-opacity="0.8"/>
<path fill-rule="evenodd" clip-rule="evenodd" d="M27 27.7191V36H28.3736C28.4165 36 28.5195 35.9753 28.5882 35.8764V33.2397C30.1335 34.3109 32.8807 33.7753 32.8807 30.5206C32.8807 27.5131 30.2193 26.8127 28.4165 28.2135C28.4022 28.0762 28.3221 27.785 28.116 27.7191H27ZM30.6915 29.1199C29.9704 28.4936 28.9888 28.8589 28.5882 29.1199V32.0861C29.6871 32.8112 30.4483 32.3883 30.6915 32.0861C31.0006 31.9543 31.0778 30.9875 31.0778 30.5206C31.1122 29.7955 30.8346 29.2846 30.6915 29.1199Z" fill="#00A8E1"/>
<path d="M34.0396 33.4457V27.8839C34.0396 27.829 34.074 27.7109 34.2113 27.6779H35.2844C35.3417 27.6367 35.499 27.7356 35.6707 28.4607C35.6851 28.5019 35.7308 28.5678 35.7995 28.5019C35.8854 28.4195 36.7009 27.5543 37.5594 27.6367C37.9028 27.6367 37.9887 27.774 37.9887 27.8427V28.9963C37.9744 29.0649 37.9114 29.2022 37.774 29.2022C36.5722 29.1363 35.9569 29.3396 35.7995 29.4494V33.4457C35.7995 33.4869 35.7738 33.5775 35.6707 33.6105H34.1684C34.1255 33.6105 34.0396 33.5775 34.0396 33.4457Z" fill="#00A8E1"/>
<path d="M39.0189 27.6779H40.3066C40.3781 27.6916 40.5212 27.7521 40.5212 27.8839V33.4457C40.5069 33.4869 40.4525 33.5775 40.3495 33.6105H38.9759C38.9187 33.5968 38.7956 33.5446 38.7613 33.4457L38.8042 27.8839C38.8042 27.829 38.8472 27.7109 39.0189 27.6779Z" fill="#00A8E1"/>
<path d="M39.3622 26.7303C39.491 26.7441 39.7915 26.7633 39.9632 26.7303C40.1349 26.6974 40.3209 26.5793 40.3924 26.5243C40.5641 26.3596 40.65 26.1124 40.65 25.8652C40.65 25.5356 40.5641 25.412 40.4354 25.2472C40.3495 25.1785 40.1778 25 39.9632 25H39.3622C39.2049 25.0412 38.8643 25.1483 38.7613 25.412C38.6583 25.6757 38.6755 25.7553 38.6755 25.9064C38.6755 26.0574 38.7579 26.3563 38.933 26.5243C39.1081 26.6924 39.2907 26.7166 39.3622 26.7303Z" fill="#00A8E1"/>
<path d="M43.6547 28.2547C43.6118 28.0899 43.4916 27.7521 43.3542 27.7191C43.2169 27.6861 42.5244 27.7054 42.1953 27.7191C42.138 27.7191 42.0236 27.7521 42.0236 27.8839V33.4457C42.0379 33.4869 42.0922 33.5775 42.1953 33.6105C42.2983 33.6434 43.1539 33.6242 43.5688 33.6105C43.6261 33.5968 43.7577 33.5446 43.8264 33.4457L43.7835 29.161C44.0267 29.0237 44.6248 28.7655 45.0712 28.8315C45.6292 28.8727 45.8009 29.1336 45.8438 29.2846L45.8868 33.4457C45.9011 33.5006 45.9554 33.6105 46.0585 33.6105H47.475C47.5179 33.5968 47.6123 33.5446 47.6467 33.4457V29.161C47.847 29.01 48.3764 28.7243 48.8915 28.7903C49.4066 28.8562 49.6212 29.1748 49.6641 29.3258V33.3633C49.6641 33.432 49.6985 33.5775 49.8358 33.6105H51.3382C51.3811 33.583 51.467 33.4951 51.467 33.3633V29.0787C51.4383 28.5705 51.0549 27.5461 49.75 27.5131C48.4451 27.4801 47.661 27.9938 47.4321 28.2547C47.2747 28.0075 46.7453 27.5131 45.8868 27.5131C45.0283 27.5131 44.041 28.0075 43.6547 28.2547Z" fill="#00A8E1"/>
<path fill-rule="evenodd" clip-rule="evenodd" d="M54.1283 31.0974C54.071 31.8252 54.6605 33.0831 57.4764 32.2921C57.6481 32.2262 57.691 32.4569 57.691 32.5805V33.1985C57.5336 33.4045 56.9098 33.8165 55.6735 33.8165C53.2698 33.8165 52.583 32.2235 52.5401 31.427C52.3827 30.7678 52.3598 29.194 53.5273 28.1723C55.1756 26.9858 56.8182 27.6779 57.4335 28.1723C57.8198 28.5156 58.395 29.4494 57.6052 30.4382C56.8153 31.427 54.9581 31.2896 54.1283 31.0974ZM55.4589 28.7079C54.3944 28.7079 54.1283 29.6417 54.1283 30.1086C54.4574 30.1498 55.21 30.224 55.5877 30.191C55.9654 30.1581 56.203 29.9301 56.2745 29.8202C56.4462 29.4494 56.5235 28.7079 55.4589 28.7079Z" fill="#00A8E1"/>
<path fill-rule="evenodd" clip-rule="evenodd" d="M27 27.7191V36H28.3736C28.4165 36 28.5195 35.9753 28.5882 35.8764V33.2397C30.1335 34.3109 32.8807 33.7753 32.8807 30.5206C32.8807 27.5131 30.2193 26.8127 28.4165 28.2135C28.4022 28.0762 28.3221 27.785 28.116 27.7191H27ZM30.6915 29.1199C29.9704 28.4936 28.9888 28.8589 28.5882 29.1199V32.0861C29.6871 32.8112 30.4483 32.3883 30.6915 32.0861C31.0006 31.9543 31.0778 30.9875 31.0778 30.5206C31.1122 29.7955 30.8346 29.2846 30.6915 29.1199Z" fill="#00A8E1"/>
<defs>
<linearGradient id="paint0_linear" x1="92.75" y1="81.1765" x2="52.8637" y2="38.8258" gradientUnits="userSpaceOnUse">
<stop stop-color="#1B1B1B"/>
<stop offset="1" stop-color="#1B1B1B" stop-opacity="0"/>
</linearGradient>
<linearGradient id="paint1_linear" x1="16.9914" y1="224.27" x2="184.124" y2="224.938" gradientUnits="userSpaceOnUse">
<stop stop-opacity="0"/>
<stop stop-opacity="0"/>
<stop offset="1"/>
</linearGradient>
<clipPath id="clip0">
<rect width="219" height="494" fill="white" transform="translate(494 64) rotate(90)"/>
</clipPath>
<clipPath id="clip1">
<rect width="60.0157" height="15.1496" fill="white" transform="translate(25.9922 139.33)"/>
</clipPath>
</defs>
</svg>
