<svg width="326" height="200" viewBox="0 0 326 200" fill="none" xmlns="http://www.w3.org/2000/svg">
<path d="M20 31C20 24.9249 24.9249 20 31 20H53C59.0751 20 64 24.9249 64 31V31C64 37.0751 59.0751 42 53 42H31C24.9249 42 20 37.0751 20 31V31Z" fill="white" fill-opacity="0.8"/>
<path fill-rule="evenodd" clip-rule="evenodd" d="M27 27.7191V36H28.3736C28.4165 36 28.5195 35.9753 28.5882 35.8764V33.2397C30.1335 34.3109 32.8807 33.7753 32.8807 30.5206C32.8807 27.5131 30.2193 26.8127 28.4165 28.2135C28.4022 28.0762 28.3221 27.785 28.116 27.7191H27ZM30.6915 29.1199C29.9704 28.4936 28.9888 28.8589 28.5882 29.1199V32.0861C29.6871 32.8112 30.4483 32.3883 30.6915 32.0861C31.0006 31.9543 31.0778 30.9875 31.0778 30.5206C31.1122 29.7955 30.8346 29.2846 30.6915 29.1199Z" fill="#00A8E1"/>
<path d="M34.0396 33.4457V27.8839C34.0396 27.829 34.074 27.7109 34.2113 27.6779H35.2844C35.3417 27.6367 35.499 27.7356 35.6707 28.4607C35.6851 28.5019 35.7308 28.5678 35.7995 28.5019C35.8854 28.4195 36.7009 27.5543 37.5594 27.6367C37.9028 27.6367 37.9887 27.774 37.9887 27.8427V28.9963C37.9744 29.0649 37.9114 29.2022 37.774 29.2022C36.5722 29.1363 35.9569 29.3396 35.7995 29.4494V33.4457C35.7995 33.4869 35.7738 33.5775 35.6707 33.6105H34.1684C34.1255 33.6105 34.0396 33.5775 34.0396 33.4457Z" fill="#00A8E1"/>
<path d="M39.0189 27.6779H40.3066C40.3781 27.6916 40.5212 27.7521 40.5212 27.8839V33.4457C40.5069 33.4869 40.4525 33.5775 40.3495 33.6105H38.9759C38.9187 33.5968 38.7956 33.5446 38.7613 33.4457L38.8042 27.8839C38.8042 27.829 38.8472 27.7109 39.0189 27.6779Z" fill="#00A8E1"/>
<path d="M39.3622 26.7303C39.491 26.7441 39.7915 26.7633 39.9632 26.7303C40.1349 26.6974 40.3209 26.5793 40.3924 26.5243C40.5641 26.3596 40.65 26.1124 40.65 25.8652C40.65 25.5356 40.5641 25.412 40.4354 25.2472C40.3495 25.1785 40.1778 25 39.9632 25H39.3622C39.2049 25.0412 38.8643 25.1483 38.7613 25.412C38.6583 25.6757 38.6755 25.7553 38.6755 25.9064C38.6755 26.0574 38.7579 26.3563 38.933 26.5243C39.1081 26.6924 39.2907 26.7166 39.3622 26.7303Z" fill="#00A8E1"/>
<path d="M43.6547 28.2547C43.6118 28.0899 43.4916 27.7521 43.3542 27.7191C43.2169 27.6861 42.5244 27.7054 42.1953 27.7191C42.138 27.7191 42.0236 27.7521 42.0236 27.8839V33.4457C42.0379 33.4869 42.0922 33.5775 42.1953 33.6105C42.2983 33.6434 43.1539 33.6242 43.5688 33.6105C43.6261 33.5968 43.7577 33.5446 43.8264 33.4457L43.7835 29.161C44.0267 29.0237 44.6248 28.7655 45.0712 28.8315C45.6292 28.8727 45.8009 29.1336 45.8438 29.2846L45.8868 33.4457C45.9011 33.5006 45.9554 33.6105 46.0585 33.6105H47.475C47.5179 33.5968 47.6123 33.5446 47.6467 33.4457V29.161C47.847 29.01 48.3764 28.7243 48.8915 28.7903C49.4066 28.8562 49.6212 29.1748 49.6641 29.3258V33.3633C49.6641 33.432 49.6985 33.5775 49.8358 33.6105H51.3382C51.3811 33.583 51.467 33.4951 51.467 33.3633V29.0787C51.4383 28.5705 51.0549 27.5461 49.75 27.5131C48.4451 27.4801 47.661 27.9938 47.4321 28.2547C47.2747 28.0075 46.7453 27.5131 45.8868 27.5131C45.0283 27.5131 44.041 28.0075 43.6547 28.2547Z" fill="#00A8E1"/>
<path fill-rule="evenodd" clip-rule="evenodd" d="M54.1283 31.0974C54.071 31.8252 54.6605 33.0831 57.4764 32.2921C57.6481 32.2262 57.691 32.4569 57.691 32.5805V33.1985C57.5336 33.4045 56.9098 33.8165 55.6735 33.8165C53.2698 33.8165 52.583 32.2235 52.5401 31.427C52.3827 30.7678 52.3598 29.194 53.5273 28.1723C55.1756 26.9858 56.8182 27.6779 57.4335 28.1723C57.8198 28.5156 58.395 29.4494 57.6052 30.4382C56.8153 31.427 54.9581 31.2896 54.1283 31.0974ZM55.4589 28.7079C54.3944 28.7079 54.1283 29.6417 54.1283 30.1086C54.4574 30.1498 55.21 30.224 55.5877 30.191C55.9654 30.1581 56.203 29.9301 56.2745 29.8202C56.4462 29.4494 56.5235 28.7079 55.4589 28.7079Z" fill="#00A8E1"/>
<path fill-rule="evenodd" clip-rule="evenodd" d="M27 27.7191V36H28.3736C28.4165 36 28.5195 35.9753 28.5882 35.8764V33.2397C30.1335 34.3109 32.8807 33.7753 32.8807 30.5206C32.8807 27.5131 30.2193 26.8127 28.4165 28.2135C28.4022 28.0762 28.3221 27.785 28.116 27.7191H27ZM30.6915 29.1199C29.9704 28.4936 28.9888 28.8589 28.5882 29.1199V32.0861C29.6871 32.8112 30.4483 32.3883 30.6915 32.0861C31.0006 31.9543 31.0778 30.9875 31.0778 30.5206C31.1122 29.7955 30.8346 29.2846 30.6915 29.1199Z" fill="#00A8E1"/>
<g clip-path="url(#clip0)">
<rect width="179" height="326" transform="translate(326 21) rotate(90)" fill="url(#paint0_linear)"/>
<rect x="24.4313" y="89.4313" width="53.9091" height="13.8007" rx="6.90036" fill="#111111" fill-opacity="0.2"/>
<g clip-path="url(#clip1)">
<g clip-path="url(#clip2)">
<path d="M37.2124 95.6945C37.2124 95.2422 36.8917 94.8639 36.4667 94.7728C36.6365 94.4893 36.7407 94.1615 36.7407 93.8077C36.7407 92.7671 35.8945 91.9209 34.8539 91.9209C34.1383 91.9209 33.5232 92.3251 33.2029 92.9134C32.8827 92.3251 32.2676 91.9209 31.552 91.9209C30.5114 91.9209 29.6652 92.7671 29.6652 93.8077C29.6652 94.2332 29.8123 94.6224 30.0505 94.9379C29.9315 95.025 29.8346 95.1388 29.7676 95.2703C29.7007 95.4017 29.6656 95.547 29.6652 95.6945V99.4682C29.6652 99.9885 30.0883 100.412 30.6086 100.412H36.269C36.7893 100.412 37.2124 99.9885 37.2124 99.4682V98.2238L39.0993 99.1672V95.8653L37.2124 96.8087V95.6945ZM34.8539 92.8643C35.3742 92.8643 35.7973 93.2874 35.7973 93.8077C35.7973 94.328 35.3742 94.7511 34.8539 94.7511C34.3336 94.7511 33.9105 94.328 33.9105 93.8077C33.9105 93.2874 34.3336 92.8643 34.8539 92.8643ZM31.552 92.8643C32.0723 92.8643 32.4954 93.2874 32.4954 93.8077C32.4954 94.328 32.0723 94.7511 31.552 94.7511C31.0317 94.7511 30.6086 94.328 30.6086 93.8077C30.6086 93.2874 31.0317 92.8643 31.552 92.8643ZM30.6086 99.4682V95.6945H36.269L36.27 99.4682H30.6086Z" fill="white"/>
</g>
<path d="M49.4907 93.4978V94.2559H47.2164V100.725H46.2814V94.2559H44.0071V93.4978H49.4907ZM50.5065 100.725V95.4184H51.1383L51.305 96.0956C51.77 95.6441 52.3293 95.4184 52.983 95.4184V96.1967C52.3495 96.1967 51.8357 96.4207 51.4415 96.8689V100.725H50.5065ZM53.6703 99.1229C53.6703 98.0346 54.388 97.4905 55.8233 97.4905C56.2849 97.4905 56.7465 97.5242 57.2081 97.5916V97.0912C57.2081 96.4814 56.7313 96.1765 55.7778 96.1765C55.232 96.1765 54.6727 96.2607 54.0999 96.4292V95.6711C54.6727 95.5026 55.232 95.4184 55.7778 95.4184C57.3546 95.4184 58.1431 95.9676 58.1431 97.066V100.725H57.6175L57.294 100.199C56.765 100.55 56.1889 100.725 55.5655 100.725C54.302 100.725 53.6703 100.191 53.6703 99.1229ZM55.8233 98.2486C55.0113 98.2486 54.6053 98.535 54.6053 99.1078C54.6053 99.6805 54.9254 99.9669 55.5655 99.9669C56.2124 99.9669 56.76 99.7951 57.2081 99.4514V98.3497C56.7465 98.2823 56.2849 98.2486 55.8233 98.2486ZM60.7004 95.4184V100.725H59.7654V95.4184H60.7004ZM60.7004 93.4978V94.3823H59.7654V93.4978H60.7004ZM63.3082 93.4978V100.725H62.3732V93.4978H63.3082ZM67.0684 95.4184C68.5778 95.4184 69.3326 96.1647 69.3326 97.6573C69.3326 97.8695 69.3174 98.097 69.2871 98.3396H65.5623C65.5623 99.4245 66.1957 99.9669 67.4626 99.9669C68.0657 99.9669 68.6014 99.8996 69.0698 99.7648V100.523C68.6014 100.658 68.032 100.725 67.3615 100.725C65.5387 100.725 64.6273 99.8204 64.6273 98.011C64.6273 96.2826 65.441 95.4184 67.0684 95.4184ZM65.5623 97.5612H68.433C68.4128 96.6313 67.9579 96.1663 67.0684 96.1663C66.125 96.1663 65.623 96.6313 65.5623 97.5612ZM70.591 100.725V95.4184H71.2228L71.3895 96.0956C71.8545 95.6441 72.4138 95.4184 73.0675 95.4184V96.1967C72.434 96.1967 71.9202 96.4207 71.526 96.8689V100.725H70.591Z" fill="white"/>
</g>
<rect x="24.4313" y="89.4313" width="53.9091" height="13.8007" rx="6.90036" stroke="white" stroke-width="0.862546"/>
<path d="M25.0842 122.584V112.248H26.9997V116.513H32.0955V112.248H34.0109V122.584H32.0955V118.175H26.9997V122.584H25.0842ZM37.5599 118.761C37.5599 120.346 38.1743 121.139 39.4031 121.139C40.6319 121.139 41.2462 120.346 41.2462 118.761C41.2462 117.214 40.6319 116.441 39.4031 116.441C38.1743 116.441 37.5599 117.214 37.5599 118.761ZM35.6445 118.79C35.6445 116.245 36.8973 114.973 39.4031 114.973C41.9088 114.973 43.1617 116.245 43.1617 118.79C43.1617 121.329 41.9088 122.599 39.4031 122.599C36.907 122.599 35.6541 121.329 35.6445 118.79ZM44.6073 122.584V114.995H46.0891L46.3131 116.094C46.9926 115.361 47.8094 114.995 48.7635 114.995C49.7176 114.995 50.3705 115.342 50.7223 116.036C51.4981 115.342 52.3101 114.995 53.1582 114.995C54.9025 114.995 55.7747 115.956 55.7747 117.879V122.584H53.8593V117.807C53.8593 116.963 53.4786 116.542 52.7172 116.542C52.1486 116.542 51.6017 116.797 51.0765 117.308V122.584H49.161V117.828C49.161 116.971 48.8093 116.542 48.1057 116.542C47.5467 116.542 47.0191 116.797 46.5228 117.308V122.584H44.6073ZM60.791 114.995C63.0944 114.995 64.2461 116.171 64.2461 118.522C64.2461 118.835 64.2244 119.149 64.181 119.462H59.143C59.143 120.532 59.9285 121.067 61.4994 121.067C62.2656 121.067 63.0317 120.994 63.7979 120.85V122.368C63.1281 122.512 62.3138 122.584 61.3548 122.584C58.6033 122.584 57.2276 121.291 57.2276 118.703C57.2276 116.231 58.4154 114.995 60.791 114.995ZM59.143 118.132H62.3812V118.074C62.3812 117.024 61.8512 116.498 60.791 116.498C59.7791 116.498 59.2298 117.043 59.143 118.132ZM71.2862 122.368C70.6598 122.512 70.0093 122.584 69.3346 122.584C66.6362 122.584 65.2869 121.271 65.2869 118.645C65.2869 116.212 66.6362 114.995 69.3346 114.995C70.0093 114.995 70.6598 115.067 71.2862 115.212V116.73C70.6598 116.585 70.0575 116.513 69.4792 116.513C67.9613 116.513 67.2024 117.224 67.2024 118.645C67.2024 120.259 67.9613 121.067 69.4792 121.067C70.0575 121.067 70.6598 120.994 71.2862 120.85V122.368ZM74.1052 118.761C74.1052 120.346 74.7196 121.139 75.9484 121.139C77.1771 121.139 77.7915 120.346 77.7915 118.761C77.7915 117.214 77.1771 116.441 75.9484 116.441C74.7196 116.441 74.1052 117.214 74.1052 118.761ZM72.1897 118.79C72.1897 116.245 73.4426 114.973 75.9484 114.973C78.4541 114.973 79.707 116.245 79.707 118.79C79.707 121.329 78.4541 122.599 75.9484 122.599C73.4523 122.599 72.1994 121.329 72.1897 118.79ZM81.1526 122.584V114.995H82.6344L82.8584 116.094C83.5379 115.361 84.3546 114.995 85.3087 114.995C86.2629 114.995 86.9158 115.342 87.2676 116.036C88.0434 115.342 88.8553 114.995 89.7034 114.995C91.4478 114.995 92.32 115.956 92.32 117.879V122.584H90.4046V117.807C90.4046 116.963 90.0239 116.542 89.2625 116.542C88.6939 116.542 88.147 116.797 87.6217 117.308V122.584H85.7063V117.828C85.7063 116.971 85.3545 116.542 84.651 116.542C84.092 116.542 83.5644 116.797 83.068 117.308V122.584H81.1526ZM96.0497 112.248V113.766H94.1343V112.248H96.0497ZM96.0497 114.995V122.584H94.1343V114.995H96.0497ZM97.864 122.584V114.995H99.3457L99.5842 116.108C100.312 115.366 101.141 114.995 102.071 114.995C103.868 114.995 104.767 115.93 104.767 117.799V122.584H102.851V117.799C102.851 116.961 102.435 116.542 101.601 116.542C100.979 116.542 100.372 116.79 99.7794 117.286V122.584H97.864ZM111.438 116.715C111.125 116.6 110.679 116.542 110.101 116.542C108.776 116.542 108.113 117.272 108.113 118.732C108.113 120.144 108.684 120.85 109.826 120.85C110.376 120.85 110.913 120.72 111.438 120.459V116.715ZM113.354 122.006C113.354 124.223 112.021 125.331 109.357 125.331C108.422 125.331 107.593 125.211 106.87 124.97V123.452C107.607 123.693 108.441 123.813 109.371 123.813C110.749 123.813 111.438 123.235 111.438 122.079C110.87 122.319 110.258 122.44 109.602 122.44C107.347 122.44 106.22 121.209 106.22 118.746C106.22 116.245 107.533 114.995 110.159 114.995C111.041 114.995 112.106 115.099 113.354 115.306V122.006Z" fill="white"/>
<path d="M28.6259 133.663L27.3104 136.328L24.37 136.753L26.4979 138.829L25.9949 141.758L28.6259 140.376L31.2569 141.758L30.7539 138.829L32.8818 136.756L29.9414 136.328L28.6259 133.663Z" fill="#F39B13"/>
<path d="M36.4568 141.789L39.3054 135.232H35.4904V134.392H40.2465V135.126L37.4384 141.789H36.4568ZM41.4861 141.228C41.4861 141.099 41.503 140.991 41.5367 140.904C41.5704 140.813 41.616 140.74 41.6733 140.686C41.7307 140.629 41.7981 140.588 41.8757 140.565C41.9533 140.538 42.0376 140.524 42.1287 140.524C42.2164 140.524 42.299 140.538 42.3766 140.565C42.4576 140.588 42.5267 140.629 42.5841 140.686C42.6414 140.74 42.6869 140.813 42.7207 140.904C42.7544 140.991 42.7713 141.099 42.7713 141.228C42.7713 141.352 42.7544 141.46 42.7207 141.551C42.6869 141.639 42.6414 141.712 42.5841 141.769C42.5267 141.826 42.4576 141.868 42.3766 141.895C42.299 141.922 42.2164 141.936 42.1287 141.936C42.0376 141.936 41.9533 141.922 41.8757 141.895C41.7981 141.868 41.7307 141.826 41.6733 141.769C41.616 141.712 41.5704 141.639 41.5367 141.551C41.503 141.46 41.4861 141.352 41.4861 141.228ZM46.3839 134.276C46.6672 134.276 46.9337 134.313 47.1833 134.387C47.4363 134.461 47.6572 134.572 47.8461 134.721C48.0384 134.869 48.1902 135.055 48.3015 135.277C48.4128 135.5 48.4685 135.76 48.4685 136.057C48.4685 136.283 48.4347 136.487 48.3673 136.669C48.2998 136.851 48.207 137.016 48.089 137.165C47.9709 137.31 47.8309 137.441 47.669 137.559C47.5071 137.674 47.3317 137.779 47.1428 137.873C47.3385 137.978 47.529 138.094 47.7146 138.222C47.9035 138.35 48.0704 138.495 48.2155 138.657C48.3639 138.816 48.482 138.995 48.5697 139.194C48.6607 139.393 48.7063 139.615 48.7063 139.861C48.7063 140.172 48.6489 140.453 48.5342 140.706C48.4229 140.956 48.2644 141.169 48.0586 141.344C47.8562 141.519 47.6117 141.654 47.325 141.749C47.0416 141.843 46.7279 141.89 46.3839 141.89C46.0128 141.89 45.6823 141.845 45.3922 141.754C45.1055 141.663 44.8626 141.533 44.6636 141.364C44.4679 141.192 44.3178 140.983 44.2133 140.737C44.1121 140.491 44.0615 140.212 44.0615 139.902C44.0615 139.649 44.0986 139.421 44.1728 139.219C44.2504 139.016 44.3533 138.834 44.4814 138.672C44.6096 138.511 44.7614 138.367 44.9368 138.242C45.1122 138.118 45.2977 138.008 45.4934 137.913C45.3281 137.809 45.1729 137.696 45.0279 137.574C44.8828 137.45 44.7564 137.311 44.6484 137.16C44.5438 137.008 44.4595 136.841 44.3954 136.659C44.3347 136.473 44.3044 136.269 44.3044 136.046C44.3044 135.753 44.36 135.497 44.4713 135.277C44.586 135.055 44.7395 134.869 44.9318 134.721C45.124 134.572 45.345 134.461 45.5946 134.387C45.8476 134.313 46.1107 134.276 46.3839 134.276ZM44.9672 139.912C44.9672 140.091 44.9942 140.256 45.0481 140.408C45.1021 140.556 45.1864 140.684 45.3011 140.792C45.4158 140.897 45.5608 140.98 45.7362 141.04C45.9116 141.098 46.1208 141.126 46.3636 141.126C46.5998 141.126 46.8072 141.098 46.986 141.04C47.1681 140.98 47.3199 140.895 47.4413 140.787C47.5628 140.676 47.6539 140.543 47.7146 140.388C47.7753 140.232 47.8056 140.06 47.8056 139.872C47.8056 139.696 47.7719 139.538 47.7045 139.396C47.6404 139.254 47.5459 139.123 47.4211 139.001C47.2997 138.88 47.1529 138.765 46.9809 138.657C46.8089 138.549 46.6166 138.443 46.4041 138.338L46.2523 138.268C45.8273 138.47 45.5069 138.703 45.291 138.966C45.0751 139.226 44.9672 139.541 44.9672 139.912ZM46.3738 135.045C46.0162 135.045 45.7312 135.134 45.5187 135.313C45.3095 135.492 45.205 135.751 45.205 136.092C45.205 136.284 45.2336 136.45 45.291 136.588C45.3517 136.726 45.4343 136.849 45.5389 136.957C45.6435 137.065 45.7683 137.163 45.9133 137.251C46.0617 137.335 46.222 137.418 46.394 137.499C46.5559 137.424 46.7077 137.343 46.8494 137.256C46.9944 137.168 47.1192 137.069 47.2238 136.957C47.3317 136.846 47.4161 136.719 47.4768 136.578C47.5375 136.436 47.5678 136.274 47.5678 136.092C47.5678 135.751 47.4616 135.492 47.2491 135.313C47.0366 135.134 46.7448 135.045 46.3738 135.045Z" fill="white"/>
<path d="M52.9789 134.554V141.789H52.0429V134.554H52.9789ZM54.856 141.789V134.554H56.0451L58.7014 140.59L61.3071 134.554H62.4455V141.789H61.6107V135.854L59.0404 141.789H58.3017L55.6909 135.854V141.789H54.856ZM66.7969 141.03C68.5677 141.03 69.4532 140.012 69.4532 137.974C69.4532 136.2 68.5677 135.313 66.7969 135.313H65.1019V141.03H66.7969ZM64.1658 141.789V134.554H66.7969C69.1918 134.554 70.3892 135.694 70.3892 137.974C70.3892 140.518 69.1918 141.789 66.7969 141.789H64.1658ZM72.5902 140.863C72.8971 140.961 73.2699 141.01 73.7084 141.01C74.889 141.01 75.4793 140.337 75.4793 138.991C75.4793 137.854 74.9446 137.286 73.8753 137.286C73.3896 137.286 72.9612 137.377 72.5902 137.559V140.863ZM71.6541 134.554H72.5902V136.73C72.9916 136.561 73.4217 136.477 73.8804 136.477C75.5602 136.477 76.4001 137.327 76.4001 139.027C76.4001 140.868 75.518 141.789 73.7539 141.789C72.9916 141.789 72.2917 141.717 71.6541 141.572V134.554Z" fill="white"/>
<path d="M29.3784 158.553H24.4149V157.465L26.1554 155.588C26.3747 155.352 26.5737 155.134 26.7525 154.935C26.9312 154.736 27.0847 154.542 27.2129 154.354C27.3411 154.165 27.4406 153.972 27.5114 153.777C27.5822 153.581 27.6177 153.37 27.6177 153.144C27.6177 152.895 27.5418 152.701 27.39 152.562C27.2416 152.424 27.0409 152.355 26.7879 152.355C26.5214 152.355 26.265 152.421 26.0188 152.552C25.7726 152.684 25.5145 152.871 25.2447 153.114L24.3947 152.107C24.5464 151.969 24.705 151.837 24.8703 151.712C25.0355 151.584 25.2177 151.471 25.4167 151.373C25.6157 151.276 25.835 151.198 26.0745 151.141C26.314 151.08 26.5821 151.05 26.879 151.05C27.2331 151.05 27.5502 151.098 27.8302 151.196C28.1135 151.294 28.3547 151.434 28.5537 151.616C28.7527 151.795 28.9045 152.013 29.0091 152.269C29.117 152.525 29.171 152.814 29.171 153.134C29.171 153.424 29.1204 153.703 29.0192 153.969C28.918 154.232 28.7797 154.492 28.6043 154.748C28.4289 155.001 28.2248 155.254 27.9921 155.507C27.7627 155.757 27.5165 156.011 27.2534 156.271L26.3629 157.167V157.238H29.3784V158.553ZM35.0959 154.854C35.0959 155.451 35.0486 155.984 34.9542 156.453C34.8631 156.922 34.7147 157.32 34.5089 157.647C34.3065 157.975 34.0434 158.224 33.7196 158.396C33.3992 158.568 33.0113 158.654 32.5559 158.654C32.1275 158.654 31.7548 158.568 31.4377 158.396C31.1206 158.224 30.8575 157.975 30.6484 157.647C30.4393 157.32 30.2824 156.922 30.1779 156.453C30.0767 155.984 30.0261 155.451 30.0261 154.854C30.0261 154.257 30.0716 153.723 30.1627 153.251C30.2571 152.778 30.4055 152.379 30.6079 152.051C30.8103 151.724 31.0717 151.475 31.3922 151.303C31.7126 151.127 32.1005 151.039 32.5559 151.039C32.9809 151.039 33.352 151.125 33.669 151.297C33.9861 151.47 34.2509 151.719 34.4634 152.046C34.6759 152.373 34.8344 152.773 34.939 153.245C35.0436 153.718 35.0959 154.254 35.0959 154.854ZM31.5844 154.854C31.5844 155.698 31.657 156.332 31.802 156.757C31.9471 157.182 32.1984 157.394 32.5559 157.394C32.9067 157.394 33.158 157.184 33.3098 156.762C33.465 156.34 33.5425 155.704 33.5425 154.854C33.5425 154.008 33.465 153.372 33.3098 152.947C33.158 152.519 32.9067 152.304 32.5559 152.304C32.3771 152.304 32.2253 152.358 32.1005 152.466C31.9791 152.574 31.8796 152.734 31.802 152.947C31.7244 153.159 31.6688 153.426 31.635 153.746C31.6013 154.063 31.5844 154.433 31.5844 154.854ZM39.5484 158.553H37.9849V154.273C37.9849 154.185 37.9849 154.08 37.9849 153.959C37.9883 153.834 37.9917 153.706 37.995 153.574C38.0018 153.439 38.0069 153.304 38.0102 153.17C38.017 153.035 38.022 152.912 38.0254 152.8C38.0085 152.82 37.9799 152.851 37.9394 152.891C37.8989 152.932 37.8534 152.977 37.8028 153.028C37.7522 153.075 37.6999 153.124 37.6459 153.175C37.592 153.225 37.5397 153.271 37.4891 153.311L36.6391 153.994L35.8801 153.053L38.2632 151.156H39.5484V158.553ZM43.9806 151.06C44.2876 151.06 44.5777 151.097 44.8509 151.171C45.1241 151.245 45.3636 151.357 45.5694 151.505C45.7751 151.653 45.9387 151.839 46.0602 152.061C46.1816 152.284 46.2423 152.546 46.2423 152.846C46.2423 153.068 46.2086 153.271 46.1411 153.453C46.0737 153.632 45.9809 153.795 45.8628 153.944C45.7448 154.089 45.6048 154.219 45.4429 154.333C45.281 154.448 45.1056 154.553 44.9167 154.647C45.1123 154.752 45.3029 154.868 45.4884 154.996C45.6773 155.124 45.8443 155.269 45.9893 155.431C46.1344 155.59 46.2507 155.769 46.3384 155.968C46.4261 156.167 46.47 156.389 46.47 156.635C46.47 156.942 46.4093 157.221 46.2878 157.47C46.1664 157.72 45.9961 157.932 45.7768 158.108C45.5576 158.283 45.2945 158.418 44.9875 158.513C44.6839 158.607 44.3483 158.654 43.9806 158.654C43.5826 158.654 43.2284 158.609 42.9181 158.518C42.6078 158.427 42.3464 158.297 42.1339 158.128C41.9214 157.959 41.7594 157.752 41.6481 157.506C41.5402 157.259 41.4862 156.983 41.4862 156.676C41.4862 156.423 41.5233 156.195 41.5975 155.993C41.6717 155.79 41.7729 155.608 41.9011 155.446C42.0293 155.284 42.1794 155.141 42.3514 155.016C42.5235 154.892 42.7073 154.782 42.9029 154.687C42.7376 154.583 42.5825 154.47 42.4374 154.348C42.2924 154.224 42.1659 154.087 42.058 153.939C41.9534 153.787 41.8691 153.62 41.805 153.438C41.7443 153.256 41.7139 153.055 41.7139 152.836C41.7139 152.542 41.7746 152.286 41.8961 152.067C42.0209 151.844 42.1878 151.658 42.397 151.51C42.6061 151.358 42.8473 151.245 43.1205 151.171C43.3937 151.097 43.6804 151.06 43.9806 151.06ZM42.9333 156.585C42.9333 156.72 42.9552 156.845 42.9991 156.959C43.0429 157.071 43.107 157.167 43.1913 157.248C43.279 157.329 43.387 157.393 43.5151 157.44C43.6433 157.484 43.7917 157.506 43.9604 157.506C44.3146 157.506 44.5794 157.423 44.7548 157.258C44.9302 157.089 45.0179 156.868 45.0179 156.595C45.0179 156.453 44.9875 156.327 44.9268 156.215C44.8695 156.101 44.7936 155.996 44.6991 155.902C44.608 155.804 44.5035 155.715 44.3854 155.634C44.2674 155.553 44.1493 155.475 44.0312 155.401L43.9199 155.33C43.7715 155.404 43.6366 155.485 43.5151 155.573C43.3937 155.657 43.2892 155.752 43.2014 155.856C43.1171 155.957 43.0513 156.069 43.0041 156.19C42.9569 156.312 42.9333 156.443 42.9333 156.585ZM43.9705 152.203C43.8592 152.203 43.7546 152.22 43.6568 152.254C43.5624 152.287 43.4797 152.336 43.4089 152.4C43.3414 152.465 43.2875 152.544 43.247 152.638C43.2065 152.733 43.1863 152.839 43.1863 152.957C43.1863 153.099 43.2065 153.222 43.247 153.326C43.2908 153.428 43.3482 153.519 43.419 153.6C43.4932 153.677 43.5776 153.748 43.672 153.812C43.7698 153.873 43.8727 153.934 43.9806 153.994C44.0852 153.94 44.1847 153.881 44.2792 153.817C44.3736 153.753 44.4562 153.681 44.5271 153.6C44.6013 153.515 44.6603 153.421 44.7042 153.316C44.748 153.212 44.7699 153.092 44.7699 152.957C44.7699 152.839 44.7497 152.733 44.7092 152.638C44.6688 152.544 44.6131 152.465 44.5423 152.4C44.4714 152.336 44.3871 152.287 44.2893 152.254C44.1915 152.22 44.0852 152.203 43.9705 152.203Z" fill="white"/>
<path d="M64.5378 153.215C64.28 153.215 64.0463 153.265 63.8366 153.363C63.627 153.46 63.4475 153.6 63.2981 153.783C63.1512 153.966 63.0367 154.189 62.9548 154.451C62.8753 154.714 62.8355 155.01 62.8355 155.34C62.8355 155.68 62.8705 155.982 62.9404 156.247C63.0126 156.51 63.1199 156.732 63.262 156.912C63.4042 157.093 63.5812 157.23 63.7933 157.324C64.0053 157.418 64.2535 157.465 64.5378 157.465C64.7522 157.465 64.9558 157.445 65.1485 157.404C65.3413 157.361 65.5316 157.311 65.7196 157.256V157.841C65.6256 157.877 65.5316 157.91 65.4377 157.939C65.3437 157.965 65.2449 157.987 65.1413 158.004C65.0401 158.021 64.9305 158.033 64.8124 158.04C64.6968 158.05 64.5679 158.054 64.4257 158.054C64.0306 158.054 63.6885 157.989 63.3993 157.859C63.1102 157.729 62.8705 157.545 62.6801 157.306C62.4922 157.068 62.3525 156.781 62.2609 156.446C62.1694 156.111 62.1236 155.74 62.1236 155.333C62.1236 154.933 62.1754 154.567 62.279 154.234C62.385 153.902 62.5392 153.616 62.7416 153.378C62.9464 153.139 63.1994 152.954 63.5005 152.821C63.8017 152.689 64.1474 152.623 64.5378 152.623C64.798 152.623 65.0461 152.649 65.2823 152.702C65.5184 152.755 65.7316 152.832 65.9219 152.933L65.64 153.497C65.4883 153.42 65.3232 153.354 65.1449 153.298C64.9666 153.243 64.7642 153.215 64.5378 153.215ZM68.8529 153.215C68.5951 153.215 68.3614 153.265 68.1518 153.363C67.9422 153.46 67.7627 153.6 67.6133 153.783C67.4663 153.966 67.3519 154.189 67.27 154.451C67.1905 154.714 67.1507 155.01 67.1507 155.34C67.1507 155.68 67.1857 155.982 67.2555 156.247C67.3278 156.51 67.435 156.732 67.5772 156.912C67.7193 157.093 67.8964 157.23 68.1084 157.324C68.3205 157.418 68.5686 157.465 68.8529 157.465C69.0674 157.465 69.271 157.445 69.4637 157.404C69.6565 157.361 69.8468 157.311 70.0347 157.256V157.841C69.9408 157.877 69.8468 157.91 69.7528 157.939C69.6589 157.965 69.5601 157.987 69.4565 158.004C69.3553 158.021 69.2457 158.033 69.1276 158.04C69.012 158.05 68.8831 158.054 68.7409 158.054C68.3458 158.054 68.0036 157.989 67.7145 157.859C67.4254 157.729 67.1857 157.545 66.9953 157.306C66.8074 157.068 66.6676 156.781 66.5761 156.446C66.4845 156.111 66.4388 155.74 66.4388 155.333C66.4388 154.933 66.4906 154.567 66.5942 154.234C66.7002 153.902 66.8544 153.616 67.0568 153.378C67.2616 153.139 67.5145 152.954 67.8157 152.821C68.1169 152.689 68.4626 152.623 68.8529 152.623C69.1132 152.623 69.3613 152.649 69.5974 152.702C69.8336 152.755 70.0468 152.832 70.2371 152.933L69.9552 153.497C69.8034 153.42 69.6384 153.354 69.4601 153.298C69.2818 153.243 69.0794 153.215 68.8529 153.215Z" fill="white"/>
<rect x="58.2913" y="150.242" width="15.5433" height="9.62205" rx="1.85039" stroke="white" stroke-width="0.740158"/>
<path d="M86.5726 157.982H85.9365V154.683C85.9365 154.579 85.9365 154.468 85.9365 154.35C85.939 154.232 85.9414 154.115 85.9438 153.999C85.9486 153.881 85.9522 153.769 85.9546 153.663C85.9594 153.555 85.963 153.46 85.9655 153.378C85.9245 153.421 85.8884 153.459 85.857 153.49C85.8257 153.521 85.7932 153.551 85.7595 153.58C85.7281 153.609 85.6944 153.64 85.6583 153.674C85.6221 153.706 85.5788 153.743 85.5282 153.786L84.9933 154.224L84.6463 153.779L86.0305 152.698H86.5726V157.982ZM88.4881 155.723C88.4881 155.47 88.5001 155.219 88.5242 154.968C88.5507 154.717 88.5953 154.478 88.6579 154.249C88.723 154.018 88.8109 153.803 88.9217 153.606C89.0326 153.408 89.1735 153.237 89.3446 153.092C89.5157 152.945 89.7205 152.831 89.959 152.749C90.1975 152.665 90.477 152.623 90.7974 152.623C90.8432 152.623 90.8938 152.624 90.9492 152.626C91.0046 152.629 91.0601 152.633 91.1155 152.641C91.1733 152.645 91.2275 152.653 91.2781 152.662C91.3311 152.67 91.3781 152.679 91.4191 152.691V153.251C91.3347 153.222 91.2396 153.201 91.1335 153.186C91.0275 153.172 90.9227 153.165 90.8191 153.165C90.6023 153.165 90.4107 153.191 90.2445 153.244C90.0807 153.295 89.9385 153.367 89.818 153.461C89.6976 153.555 89.5964 153.667 89.5145 153.797C89.4349 153.927 89.3699 154.072 89.3193 154.231C89.2687 154.387 89.2314 154.555 89.2073 154.733C89.1832 154.911 89.1675 155.097 89.1603 155.29H89.2036C89.2518 155.203 89.3097 155.122 89.3771 155.048C89.447 154.97 89.5277 154.905 89.6193 154.852C89.7108 154.797 89.8132 154.754 89.9265 154.722C90.0421 154.691 90.171 154.675 90.3132 154.675C90.542 154.675 90.7493 154.711 90.9348 154.784C91.1203 154.854 91.2781 154.957 91.4082 155.095C91.5383 155.232 91.6383 155.401 91.7082 155.601C91.7805 155.798 91.8166 156.025 91.8166 156.28C91.8166 156.555 91.7793 156.802 91.7046 157.021C91.6299 157.24 91.5227 157.427 91.3829 157.581C91.2432 157.733 91.0745 157.85 90.8769 157.932C90.6794 158.013 90.4577 158.054 90.212 158.054C89.971 158.054 89.7445 158.007 89.5325 157.914C89.3229 157.82 89.141 157.676 88.9868 157.483C88.8326 157.291 88.7109 157.049 88.6218 156.757C88.5326 156.465 88.4881 156.121 88.4881 155.723ZM90.2047 157.502C90.3493 157.502 90.4806 157.477 90.5987 157.429C90.7191 157.379 90.8227 157.304 90.9095 157.205C90.9962 157.104 91.0625 156.977 91.1082 156.826C91.1564 156.671 91.1805 156.49 91.1805 156.28C91.1805 156.111 91.1601 155.961 91.1191 155.828C91.0805 155.693 91.0215 155.579 90.942 155.485C90.8625 155.391 90.7625 155.319 90.642 155.268C90.524 155.217 90.3854 155.192 90.2264 155.192C90.065 155.192 89.9168 155.221 89.7819 155.279C89.6494 155.334 89.5361 155.408 89.4422 155.499C89.3482 155.588 89.2747 155.691 89.2217 155.807C89.1711 155.922 89.1458 156.038 89.1458 156.153C89.1458 156.315 89.1675 156.476 89.2109 156.638C89.2567 156.797 89.3229 156.94 89.4096 157.068C89.4988 157.196 89.6096 157.3 89.7421 157.382C89.8747 157.462 90.0289 157.502 90.2047 157.502ZM93.9236 155.644H92.525V155.102H93.9236V153.696H94.4657V155.102H95.8643V155.644H94.4657V157.035H93.9236V155.644Z" fill="white"/>
<rect x="80.4961" y="150.242" width="19.2441" height="9.62205" rx="1.85039" stroke="white" stroke-width="0.740158"/>
<circle cx="25.1102" cy="172.396" r="1.11024" fill="#E1E1E1" fill-opacity="0.5"/>
<path d="M34.084 173.917C34.084 174.244 34.0249 174.538 33.9069 174.798C33.7922 175.054 33.6269 175.272 33.411 175.45C33.1952 175.629 32.9321 175.766 32.6217 175.86C32.3114 175.951 31.9623 175.997 31.5744 175.997C31.2 175.997 30.8492 175.966 30.522 175.906C30.1981 175.848 29.9266 175.762 29.7074 175.648V174.747C29.822 174.801 29.9519 174.855 30.097 174.909C30.2454 174.96 30.4005 175.005 30.5624 175.046C30.7244 175.086 30.8913 175.12 31.0633 175.147C31.2354 175.17 31.4057 175.182 31.5744 175.182C32.1141 175.182 32.5121 175.081 32.7685 174.879C33.0282 174.676 33.1581 174.386 33.1581 174.008C33.1581 173.826 33.1328 173.668 33.0822 173.533C33.0349 173.398 32.9489 173.275 32.8241 173.163C32.7027 173.049 32.5391 172.939 32.3333 172.834C32.1276 172.727 31.8678 172.61 31.5541 172.485C31.2539 172.367 30.9925 172.239 30.7699 172.101C30.5506 171.959 30.3685 171.801 30.2234 171.625C30.0818 171.45 29.9755 171.251 29.9047 171.028C29.8372 170.806 29.8035 170.553 29.8035 170.269C29.8035 169.972 29.8575 169.708 29.9654 169.475C30.0733 169.242 30.2251 169.046 30.4208 168.888C30.6164 168.726 30.8492 168.603 31.119 168.519C31.3922 168.434 31.6924 168.392 32.0196 168.392C32.421 168.392 32.782 168.431 33.1024 168.508C33.4228 168.583 33.7079 168.679 33.9575 168.797L33.6185 169.586C33.3992 169.488 33.1496 169.404 32.8697 169.333C32.5931 169.259 32.3063 169.222 32.0095 169.222C31.598 169.222 31.2792 169.318 31.0532 169.51C30.8272 169.699 30.7142 169.956 30.7142 170.279C30.7142 170.472 30.7395 170.639 30.7901 170.78C30.8407 170.919 30.9251 171.045 31.0431 171.16C31.1612 171.271 31.3163 171.377 31.5086 171.478C31.7042 171.576 31.9437 171.681 32.2271 171.792C32.534 171.914 32.8022 172.038 33.0316 172.167C33.2643 172.295 33.4583 172.44 33.6134 172.602C33.7686 172.764 33.885 172.951 33.9625 173.163C34.0435 173.376 34.084 173.627 34.084 173.917ZM39.0425 175.896L38.9058 175.152H38.8552C38.7709 175.297 38.6697 175.423 38.5517 175.531C38.437 175.636 38.3105 175.724 38.1722 175.794C38.0339 175.862 37.8872 175.912 37.732 175.946C37.5768 175.98 37.4183 175.997 37.2564 175.997C36.9494 175.997 36.6796 175.958 36.4468 175.88C36.2141 175.803 36.0201 175.681 35.865 175.516C35.7098 175.351 35.5918 175.14 35.5108 174.884C35.4332 174.627 35.3944 174.322 35.3944 173.968V170.34H36.3153V173.917C36.3153 174.356 36.4047 174.685 36.5835 174.904C36.7622 175.123 37.0388 175.233 37.4132 175.233C37.6865 175.233 37.9158 175.189 38.1014 175.101C38.2869 175.013 38.4353 174.885 38.5466 174.717C38.6613 174.545 38.7422 174.334 38.7895 174.084C38.8401 173.835 38.8654 173.548 38.8654 173.224V170.34H39.7862V175.896H39.0425ZM44.8712 174.373C44.8712 174.642 44.8223 174.879 44.7245 175.081C44.6266 175.283 44.485 175.454 44.2994 175.592C44.1173 175.727 43.8964 175.828 43.6366 175.896C43.3769 175.963 43.0851 175.997 42.7613 175.997C42.3936 175.997 42.0783 175.966 41.8152 175.906C41.552 175.848 41.321 175.762 41.122 175.648V174.808C41.2265 174.862 41.3429 174.916 41.4711 174.97C41.5993 175.02 41.7342 175.066 41.8759 175.106C42.0175 175.147 42.1626 175.18 42.311 175.207C42.4628 175.231 42.6129 175.243 42.7613 175.243C42.9806 175.243 43.1661 175.224 43.3179 175.187C43.473 175.15 43.5978 175.098 43.6923 175.03C43.7901 174.96 43.8609 174.875 43.9048 174.777C43.9486 174.676 43.9706 174.565 43.9706 174.443C43.9706 174.339 43.9537 174.244 43.92 174.16C43.8862 174.076 43.8238 173.993 43.7328 173.912C43.6451 173.828 43.5236 173.744 43.3685 173.659C43.2133 173.575 43.0143 173.48 42.7714 173.376C42.5286 173.271 42.3093 173.168 42.1137 173.067C41.9214 172.966 41.7578 172.853 41.6229 172.728C41.488 172.603 41.3834 172.46 41.3092 172.298C41.2383 172.133 41.2029 171.937 41.2029 171.711C41.2029 171.475 41.2485 171.266 41.3395 171.084C41.434 170.898 41.5655 170.743 41.7342 170.618C41.9029 170.494 42.1052 170.399 42.3414 170.335C42.5775 170.271 42.8406 170.239 43.1307 170.239C43.4579 170.239 43.7564 170.274 44.0262 170.345C44.2994 170.416 44.5575 170.509 44.8004 170.623L44.4816 171.367C44.2623 171.269 44.0363 171.185 43.8036 171.114C43.5742 171.04 43.3398 171.003 43.1003 171.003C42.7562 171.003 42.5016 171.06 42.3363 171.175C42.171 171.286 42.0884 171.446 42.0884 171.656C42.0884 171.774 42.1069 171.877 42.144 171.964C42.1845 172.052 42.252 172.135 42.3464 172.212C42.4409 172.29 42.5674 172.369 42.7259 172.45C42.8844 172.528 43.0818 172.615 43.3179 172.713C43.5607 172.814 43.7766 172.915 43.9655 173.017C44.1578 173.118 44.3214 173.232 44.4563 173.361C44.5912 173.485 44.6941 173.629 44.7649 173.791C44.8358 173.953 44.8712 174.147 44.8712 174.373ZM48.7317 175.997C48.5327 175.997 48.3522 175.975 48.1903 175.931C48.0284 175.887 47.8817 175.83 47.7501 175.759C47.622 175.685 47.5073 175.599 47.4061 175.501C47.3083 175.403 47.2206 175.3 47.143 175.192H47.0823C47.0924 175.307 47.1025 175.417 47.1126 175.521C47.1194 175.609 47.1261 175.7 47.1329 175.794C47.1396 175.885 47.143 175.958 47.143 176.012V178.385H46.2221V170.34H46.971L47.1025 171.089H47.143C47.2206 170.971 47.3083 170.861 47.4061 170.76C47.5039 170.655 47.6169 170.566 47.7451 170.492C47.8766 170.414 48.0234 170.354 48.1853 170.31C48.3472 170.262 48.5293 170.239 48.7317 170.239C49.0488 170.239 49.3372 170.3 49.5969 170.421C49.8567 170.542 50.0776 170.725 50.2597 170.967C50.4453 171.207 50.5886 171.505 50.6898 171.863C50.791 172.221 50.8416 172.635 50.8416 173.108C50.8416 173.583 50.791 174.002 50.6898 174.362C50.5886 174.72 50.4453 175.02 50.2597 175.263C50.0776 175.506 49.8567 175.69 49.5969 175.815C49.3372 175.936 49.0488 175.997 48.7317 175.997ZM48.5546 171.003C48.2983 171.003 48.0807 171.042 47.9019 171.119C47.7265 171.197 47.5832 171.315 47.4719 171.473C47.3639 171.632 47.283 171.829 47.229 172.065C47.1784 172.302 47.1497 172.58 47.143 172.9V173.108C47.143 173.448 47.1649 173.752 47.2088 174.018C47.256 174.282 47.3336 174.504 47.4415 174.686C47.5528 174.865 47.6995 175.002 47.8817 175.096C48.0638 175.187 48.2915 175.233 48.5647 175.233C49.0201 175.233 49.3541 175.049 49.5666 174.681C49.7824 174.314 49.8904 173.786 49.8904 173.098C49.8904 172.396 49.7824 171.871 49.5666 171.524C49.3541 171.177 49.0167 171.003 48.5546 171.003ZM54.4896 175.997C54.1186 175.997 53.7796 175.934 53.4726 175.81C53.1657 175.685 52.9009 175.503 52.6783 175.263C52.459 175.024 52.2887 174.727 52.1672 174.373C52.0458 174.018 51.9851 173.614 51.9851 173.158C51.9851 172.7 52.0407 172.29 52.1521 171.929C52.2634 171.568 52.4202 171.263 52.6226 171.013C52.825 170.76 53.0662 170.568 53.3461 170.436C53.6295 170.305 53.9415 170.239 54.2822 170.239C54.6161 170.239 54.9163 170.3 55.1828 170.421C55.4493 170.539 55.6753 170.708 55.8608 170.927C56.0463 171.143 56.188 171.404 56.2858 171.711C56.387 172.015 56.4376 172.352 56.4376 172.723V173.295H52.9363C52.9532 173.946 53.0898 174.425 53.3461 174.732C53.6059 175.039 53.9904 175.192 54.4997 175.192C54.6718 175.192 54.8303 175.184 54.9754 175.167C55.1238 175.15 55.2654 175.126 55.4004 175.096C55.5387 175.062 55.6719 175.022 55.8001 174.975C55.9283 174.924 56.0581 174.868 56.1897 174.808V175.627C56.0547 175.691 55.9215 175.747 55.79 175.794C55.6618 175.842 55.5285 175.88 55.3902 175.911C55.2553 175.941 55.1137 175.963 54.9652 175.977C54.8202 175.99 54.6617 175.997 54.4896 175.997ZM54.2619 171.003C53.8774 171.003 53.5721 171.134 53.3461 171.398C53.1235 171.661 52.9936 172.043 52.9565 172.546H55.4459C55.4459 172.317 55.4223 172.108 55.3751 171.919C55.3312 171.726 55.2604 171.563 55.1626 171.428C55.0681 171.293 54.9467 171.188 54.7983 171.114C54.6498 171.04 54.4711 171.003 54.2619 171.003ZM61.3101 175.896V172.318C61.3101 171.88 61.2207 171.551 61.0419 171.332C60.8665 171.112 60.5899 171.003 60.2121 171.003C59.9389 171.003 59.7095 171.047 59.524 171.134C59.3385 171.222 59.1884 171.352 59.0737 171.524C58.9624 171.696 58.8814 171.907 58.8308 172.156C58.7836 172.406 58.76 172.693 58.76 173.017V175.896H57.8391V170.34H58.588L58.7195 171.089H58.7701C58.8544 170.944 58.9539 170.819 59.0686 170.714C59.1867 170.607 59.3149 170.517 59.4532 170.446C59.5915 170.375 59.7382 170.323 59.8934 170.289C60.0485 170.256 60.2071 170.239 60.369 170.239C60.9862 170.239 61.45 170.401 61.7604 170.725C62.0741 171.045 62.2309 171.559 62.2309 172.268V175.896H61.3101ZM67.2653 174.373C67.2653 174.642 67.2164 174.879 67.1186 175.081C67.0207 175.283 66.8791 175.454 66.6936 175.592C66.5114 175.727 66.2905 175.828 66.0307 175.896C65.771 175.963 65.4792 175.997 65.1554 175.997C64.7877 175.997 64.4724 175.966 64.2093 175.906C63.9461 175.848 63.7151 175.762 63.5161 175.648V174.808C63.6206 174.862 63.737 174.916 63.8652 174.97C63.9934 175.02 64.1283 175.066 64.27 175.106C64.4116 175.147 64.5567 175.18 64.7051 175.207C64.8569 175.231 65.007 175.243 65.1554 175.243C65.3747 175.243 65.5602 175.224 65.712 175.187C65.8671 175.15 65.9919 175.098 66.0864 175.03C66.1842 174.96 66.255 174.875 66.2989 174.777C66.3427 174.676 66.3647 174.565 66.3647 174.443C66.3647 174.339 66.3478 174.244 66.3141 174.16C66.2803 174.076 66.2179 173.993 66.1269 173.912C66.0392 173.828 65.9177 173.744 65.7626 173.659C65.6074 173.575 65.4084 173.48 65.1655 173.376C64.9227 173.271 64.7034 173.168 64.5078 173.067C64.3155 172.966 64.1519 172.853 64.017 172.728C63.8821 172.603 63.7775 172.46 63.7033 172.298C63.6324 172.133 63.597 171.937 63.597 171.711C63.597 171.475 63.6426 171.266 63.7336 171.084C63.8281 170.898 63.9596 170.743 64.1283 170.618C64.297 170.494 64.4993 170.399 64.7355 170.335C64.9716 170.271 65.2347 170.239 65.5248 170.239C65.852 170.239 66.1505 170.274 66.4203 170.345C66.6936 170.416 66.9516 170.509 67.1945 170.623L66.8757 171.367C66.6564 171.269 66.4304 171.185 66.1977 171.114C65.9683 171.04 65.7339 171.003 65.4944 171.003C65.1504 171.003 64.8957 171.06 64.7304 171.175C64.5651 171.286 64.4825 171.446 64.4825 171.656C64.4825 171.774 64.501 171.877 64.5381 171.964C64.5786 172.052 64.6461 172.135 64.7405 172.212C64.835 172.29 64.9615 172.369 65.12 172.45C65.2785 172.528 65.4759 172.615 65.712 172.713C65.9548 172.814 66.1707 172.915 66.3596 173.017C66.5519 173.118 66.7155 173.232 66.8504 173.361C66.9853 173.485 67.0882 173.629 67.159 173.791C67.2299 173.953 67.2653 174.147 67.2653 174.373ZM70.8121 175.997C70.4411 175.997 70.1021 175.934 69.7951 175.81C69.4882 175.685 69.2234 175.503 69.0008 175.263C68.7815 175.024 68.6112 174.727 68.4897 174.373C68.3683 174.018 68.3076 173.614 68.3076 173.158C68.3076 172.7 68.3632 172.29 68.4746 171.929C68.5859 171.568 68.7427 171.263 68.9451 171.013C69.1475 170.76 69.3887 170.568 69.6686 170.436C69.952 170.305 70.264 170.239 70.6047 170.239C70.9386 170.239 71.2388 170.3 71.5053 170.421C71.7718 170.539 71.9978 170.708 72.1833 170.927C72.3688 171.143 72.5105 171.404 72.6083 171.711C72.7095 172.015 72.7601 172.352 72.7601 172.723V173.295H69.2588C69.2757 173.946 69.4123 174.425 69.6686 174.732C69.9284 175.039 70.3129 175.192 70.8222 175.192C70.9943 175.192 71.1528 175.184 71.2979 175.167C71.4463 175.15 71.5879 175.126 71.7229 175.096C71.8612 175.062 71.9944 175.022 72.1226 174.975C72.2508 174.924 72.3806 174.868 72.5122 174.808V175.627C72.3772 175.691 72.244 175.747 72.1125 175.794C71.9843 175.842 71.851 175.88 71.7127 175.911C71.5778 175.941 71.4361 175.963 71.2877 175.977C71.1427 175.99 70.9842 175.997 70.8121 175.997ZM70.5844 171.003C70.1999 171.003 69.8946 171.134 69.6686 171.398C69.446 171.661 69.3161 172.043 69.279 172.546H71.7684C71.7684 172.317 71.7448 172.108 71.6976 171.919C71.6537 171.726 71.5829 171.563 71.4851 171.428C71.3906 171.293 71.2692 171.188 71.1208 171.114C70.9723 171.04 70.7936 171.003 70.5844 171.003Z" fill="white"/>
<g clip-path="url(#clip3)">
<circle cx="88.6929" cy="172.396" r="1.11024" fill="#E1E1E1" fill-opacity="0.5"/>
<path d="M99.2199 172.705C99.2199 173.329 99.139 173.877 98.9771 174.349C98.8152 174.818 98.5807 175.211 98.2738 175.528C97.9668 175.842 97.589 176.078 97.1404 176.236C96.6952 176.395 96.1892 176.474 95.6225 176.474H93.7707V169.077H95.83C96.346 169.077 96.8132 169.155 97.2315 169.31C97.6497 169.465 98.0056 169.696 98.2991 170.003C98.5925 170.307 98.8185 170.684 98.9771 171.136C99.139 171.588 99.2199 172.111 99.2199 172.705ZM98.2232 172.735C98.2232 172.243 98.1675 171.818 98.0562 171.46C97.9449 171.099 97.783 170.802 97.5705 170.57C97.358 170.337 97.0966 170.165 96.7862 170.054C96.4759 169.939 96.1234 169.882 95.7288 169.882H94.7118V175.665H95.5314C96.4219 175.665 97.0932 175.419 97.5452 174.926C97.9972 174.434 98.2232 173.703 98.2232 172.735ZM103.141 170.818C103.239 170.818 103.349 170.823 103.47 170.833C103.591 170.84 103.696 170.851 103.784 170.868L103.662 171.718C103.568 171.701 103.47 171.688 103.369 171.678C103.271 171.664 103.178 171.657 103.091 171.657C102.878 171.657 102.684 171.701 102.509 171.789C102.333 171.873 102.182 171.996 102.053 172.158C101.929 172.317 101.831 172.509 101.76 172.735C101.692 172.958 101.659 173.206 101.659 173.479V176.474H100.738V170.919H101.487L101.598 171.936H101.638C101.723 171.791 101.812 171.651 101.907 171.516C102.004 171.381 102.112 171.263 102.23 171.162C102.352 171.057 102.487 170.974 102.635 170.914C102.784 170.85 102.952 170.818 103.141 170.818ZM107.907 176.474L107.72 175.705H107.68C107.568 175.857 107.457 175.989 107.346 176.1C107.234 176.208 107.113 176.297 106.981 176.368C106.85 176.439 106.703 176.491 106.541 176.525C106.379 176.559 106.192 176.575 105.98 176.575C105.747 176.575 105.533 176.542 105.337 176.474C105.141 176.41 104.971 176.311 104.826 176.176C104.684 176.037 104.573 175.865 104.492 175.66C104.411 175.451 104.371 175.204 104.371 174.921C104.371 174.368 104.565 173.943 104.953 173.646C105.344 173.349 105.937 173.187 106.734 173.16L107.665 173.125V172.776C107.665 172.55 107.639 172.361 107.589 172.209C107.541 172.057 107.471 171.936 107.376 171.845C107.285 171.75 107.17 171.683 107.032 171.642C106.897 171.602 106.742 171.582 106.567 171.582C106.287 171.582 106.025 171.622 105.782 171.703C105.543 171.784 105.312 171.882 105.089 171.996L104.765 171.303C105.015 171.168 105.293 171.054 105.6 170.959C105.907 170.865 106.229 170.818 106.567 170.818C106.911 170.818 107.207 170.853 107.457 170.924C107.71 170.991 107.918 171.101 108.079 171.253C108.245 171.401 108.368 171.592 108.449 171.824C108.53 172.057 108.57 172.339 108.57 172.669V176.474H107.907ZM106.217 175.832C106.423 175.832 106.614 175.8 106.789 175.736C106.965 175.672 107.116 175.575 107.245 175.447C107.373 175.316 107.472 175.152 107.543 174.956C107.617 174.757 107.654 174.525 107.654 174.258V173.757L106.931 173.793C106.627 173.806 106.373 173.84 106.167 173.894C105.961 173.948 105.796 174.024 105.671 174.122C105.55 174.216 105.462 174.332 105.408 174.471C105.354 174.606 105.327 174.759 105.327 174.931C105.327 175.241 105.408 175.469 105.57 175.614C105.735 175.759 105.951 175.832 106.217 175.832ZM116.934 176.474V172.897C116.934 172.459 116.85 172.13 116.681 171.91C116.512 171.691 116.251 171.582 115.897 171.582C115.65 171.582 115.441 171.622 115.269 171.703C115.097 171.781 114.956 171.897 114.844 172.052C114.736 172.204 114.657 172.395 114.606 172.624C114.556 172.85 114.53 173.111 114.53 173.408V176.474H113.605V172.897C113.605 172.459 113.52 172.13 113.352 171.91C113.186 171.691 112.927 171.582 112.572 171.582C112.313 171.582 112.095 171.625 111.92 171.713C111.744 171.801 111.603 171.931 111.495 172.103C111.39 172.275 111.314 172.486 111.267 172.735C111.223 172.985 111.201 173.272 111.201 173.595V176.474H110.28V170.919H111.029L111.161 171.668H111.211C111.292 171.523 111.388 171.398 111.5 171.293C111.611 171.185 111.733 171.096 111.864 171.025C111.999 170.954 112.141 170.902 112.289 170.868C112.441 170.834 112.594 170.818 112.749 170.818C113.154 170.818 113.49 170.892 113.756 171.04C114.026 171.189 114.225 171.421 114.353 171.738H114.394C114.482 171.58 114.586 171.443 114.708 171.329C114.832 171.214 114.967 171.119 115.112 171.045C115.261 170.968 115.416 170.91 115.578 170.873C115.74 170.836 115.905 170.818 116.074 170.818C116.664 170.818 117.108 170.98 117.404 171.303C117.705 171.624 117.855 172.138 117.855 172.847V176.474H116.934ZM122.702 176.474L122.515 175.705H122.474C122.363 175.857 122.252 175.989 122.14 176.1C122.029 176.208 121.907 176.297 121.776 176.368C121.644 176.439 121.498 176.491 121.336 176.525C121.174 176.559 120.987 176.575 120.774 176.575C120.541 176.575 120.327 176.542 120.132 176.474C119.936 176.41 119.766 176.311 119.621 176.176C119.479 176.037 119.368 175.865 119.287 175.66C119.206 175.451 119.165 175.204 119.165 174.921C119.165 174.368 119.359 173.943 119.747 173.646C120.138 173.349 120.732 173.187 121.528 173.16L122.459 173.125V172.776C122.459 172.55 122.434 172.361 122.383 172.209C122.336 172.057 122.265 171.936 122.171 171.845C122.08 171.75 121.965 171.683 121.827 171.642C121.692 171.602 121.536 171.582 121.361 171.582C121.081 171.582 120.82 171.622 120.577 171.703C120.337 171.784 120.106 171.882 119.884 171.996L119.56 171.303C119.809 171.168 120.088 171.054 120.395 170.959C120.702 170.865 121.024 170.818 121.361 170.818C121.705 170.818 122.002 170.853 122.252 170.924C122.505 170.991 122.712 171.101 122.874 171.253C123.039 171.401 123.162 171.592 123.243 171.824C123.324 172.057 123.365 172.339 123.365 172.669V176.474H122.702ZM121.012 175.832C121.218 175.832 121.408 175.8 121.584 175.736C121.759 175.672 121.911 175.575 122.039 175.447C122.167 175.316 122.267 175.152 122.338 174.956C122.412 174.757 122.449 174.525 122.449 174.258V173.757L121.725 173.793C121.422 173.806 121.167 173.84 120.961 173.894C120.756 173.948 120.59 174.024 120.465 174.122C120.344 174.216 120.256 174.332 120.202 174.471C120.148 174.606 120.121 174.759 120.121 174.931C120.121 175.241 120.202 175.469 120.364 175.614C120.53 175.759 120.745 175.832 121.012 175.832Z" fill="white"/>
</g>
<g clip-path="url(#clip4)">
<path d="M202.444 162.957C198.222 162.957 194.844 166.335 194.844 170.556C194.844 174.778 198.222 178.156 202.444 178.156C206.666 178.156 210.043 174.778 210.043 170.556C210.043 166.335 206.666 162.957 202.444 162.957ZM202.444 177.235C198.794 177.235 195.766 174.206 195.766 170.556C195.766 166.907 198.794 163.878 202.444 163.878C206.094 163.878 209.122 166.907 209.122 170.556C209.122 174.206 206.094 177.235 202.444 177.235ZM199.066 169.712V171.401H205.821V169.712H199.066Z" fill="white"/>
</g>
<path d="M227.212 167.698C226.704 167.185 226.175 166.739 225.624 166.359C225.074 165.979 224.558 165.694 224.077 165.505C223.595 165.315 223.154 165.224 222.754 165.231C222.353 165.239 222.04 165.358 221.815 165.589C221.762 165.641 221.716 165.698 221.679 165.762C221.642 165.827 221.615 165.877 221.599 165.912C221.583 165.948 221.561 166.013 221.535 166.105C221.508 166.197 221.489 166.256 221.479 166.282L218.496 175.702L218.68 175.887C218.472 176.025 218.286 176.187 218.123 176.371C217.96 176.556 217.817 176.707 217.694 176.825C217.571 176.943 217.424 177.026 217.253 177.072C217.215 177.082 217.169 177.117 217.112 177.176C217.056 177.235 217.028 177.287 217.028 177.333C217.028 177.426 217.076 177.503 217.173 177.564C217.269 177.626 217.376 177.657 217.493 177.657C217.643 177.657 217.787 177.599 217.926 177.483C218.065 177.368 218.206 177.221 218.347 177.041C218.489 176.861 218.592 176.743 218.656 176.687C218.795 176.569 218.95 176.456 219.121 176.348L219.33 176.541L228.808 173.455C229.016 173.393 229.176 173.301 229.289 173.178C229.513 172.947 229.63 172.627 229.638 172.219C229.646 171.812 229.556 171.363 229.369 170.873C229.182 170.383 228.903 169.859 228.531 169.303C228.159 168.746 227.72 168.211 227.212 167.698ZM226.346 168.537C227.164 169.337 227.785 170.103 228.21 170.834C228.635 171.565 228.738 172.046 228.519 172.277C228.3 172.508 227.821 172.423 227.084 172.023C226.346 171.623 225.571 171.025 224.758 170.23C223.935 169.43 223.311 168.665 222.886 167.937C222.461 167.208 222.358 166.726 222.577 166.49C222.796 166.259 223.276 166.343 224.016 166.744C224.757 167.144 225.533 167.742 226.346 168.537ZM224.59 171.723C224.98 172.057 225.368 172.349 225.753 172.6C225.758 172.611 225.892 172.852 226.153 173.324L225.48 173.547C225.159 172.967 224.862 172.359 224.59 171.723ZM221.855 168.198C221.973 168.45 222.136 168.755 222.345 169.114C222.516 169.853 222.784 170.653 223.15 171.515C223.517 172.377 223.916 173.185 224.349 173.939L223.684 174.155C223.181 173.262 222.743 172.327 222.369 171.35C221.994 170.372 221.765 169.509 221.679 168.76L221.855 168.198ZM220.925 171.015C221.299 172.164 221.826 173.344 222.505 174.555L221.847 174.778C221.318 173.804 220.901 172.888 220.597 172.031L220.925 171.015ZM220.003 173.824C220.212 174.296 220.433 174.745 220.669 175.171L220.011 175.394C219.936 175.255 219.829 175.043 219.69 174.755L220.003 173.824ZM225.897 162.88L226.298 164.042L225.263 164.766H226.538L226.931 165.928L227.324 164.766H228.591L227.565 164.042L227.966 162.888L226.931 163.604L225.897 162.88ZM223.652 162.88L223.435 163.935L224.534 164.142L224.75 163.088L223.652 162.88ZM230.876 166.051L231.758 165.166L232.905 165.705L232.312 164.627L233.202 163.758L231.943 163.965L231.35 162.88L231.173 164.096L229.914 164.304L231.061 164.835L230.876 166.051ZM230.58 167.944L231.646 168.621L231.309 169.807L232.304 169.037L233.362 169.714L232.921 168.56L233.916 167.806L232.641 167.86L232.192 166.713L231.863 167.89L230.58 167.944ZM230.123 165.089L227.733 166.967L228.03 167.313L230.419 165.435L230.123 165.089ZM230.957 168.722L229.088 168.56L229.04 169.006L230.917 169.168L230.957 168.722ZM231.141 170.876L230.796 171.908L231.863 172.239L232.216 171.215L231.141 170.876Z" fill="white"/>
<path d="M275.222 172.667C274.827 172.669 274.438 172.76 274.083 172.932C273.727 173.105 273.415 173.355 273.17 173.664L269.312 171.253C269.453 170.799 269.453 170.313 269.312 169.86L273.17 167.448C273.561 167.933 274.112 168.263 274.724 168.381C275.336 168.499 275.97 168.396 276.513 168.091C277.057 167.787 277.475 167.299 277.693 166.716C277.912 166.132 277.917 165.49 277.708 164.903C277.498 164.316 277.088 163.822 276.549 163.509C276.01 163.196 275.378 163.083 274.764 163.191C274.15 163.3 273.595 163.622 273.196 164.1C272.797 164.579 272.58 165.183 272.584 165.807C272.586 166.043 272.622 166.277 272.689 166.503L268.832 168.915C268.491 168.486 268.026 168.174 267.5 168.022C266.974 167.869 266.413 167.884 265.896 168.065C265.379 168.245 264.931 168.582 264.614 169.028C264.297 169.475 264.127 170.009 264.127 170.556C264.127 171.104 264.297 171.638 264.614 172.084C264.931 172.531 265.379 172.867 265.896 173.048C266.413 173.228 266.974 173.243 267.5 173.091C268.026 172.938 268.491 172.626 268.832 172.197L272.689 174.609C272.622 174.835 272.586 175.07 272.584 175.306C272.584 175.828 272.739 176.338 273.029 176.772C273.318 177.206 273.731 177.544 274.213 177.744C274.695 177.943 275.225 177.995 275.737 177.894C276.249 177.792 276.719 177.541 277.088 177.172C277.457 176.803 277.709 176.332 277.81 175.821C277.912 175.309 277.86 174.778 277.66 174.296C277.461 173.814 277.122 173.402 276.688 173.112C276.255 172.822 275.744 172.667 275.222 172.667V172.667ZM275.222 164.223C275.536 164.223 275.842 164.316 276.102 164.49C276.362 164.664 276.565 164.911 276.685 165.201C276.805 165.49 276.836 165.808 276.775 166.115C276.714 166.423 276.563 166.705 276.342 166.926C276.121 167.148 275.838 167.298 275.531 167.359C275.224 167.42 274.906 167.389 274.617 167.269C274.327 167.149 274.08 166.947 273.906 166.686C273.732 166.426 273.639 166.12 273.639 165.807C273.639 165.387 273.806 164.984 274.103 164.687C274.4 164.39 274.803 164.223 275.222 164.223V164.223ZM266.779 172.139C266.466 172.139 266.16 172.047 265.899 171.873C265.639 171.699 265.436 171.451 265.316 171.162C265.196 170.873 265.165 170.554 265.226 170.247C265.287 169.94 265.438 169.658 265.659 169.437C265.881 169.215 266.163 169.064 266.47 169.003C266.777 168.942 267.095 168.974 267.385 169.093C267.674 169.213 267.921 169.416 268.095 169.677C268.269 169.937 268.362 170.243 268.362 170.556C268.362 170.976 268.195 171.379 267.898 171.676C267.601 171.973 267.199 172.139 266.779 172.139ZM275.222 176.889C274.909 176.889 274.603 176.796 274.343 176.622C274.083 176.448 273.88 176.201 273.76 175.912C273.64 175.622 273.609 175.304 273.67 174.997C273.731 174.69 273.882 174.408 274.103 174.186C274.324 173.965 274.607 173.814 274.914 173.753C275.221 173.692 275.539 173.723 275.828 173.843C276.118 173.963 276.365 174.166 276.539 174.426C276.713 174.687 276.806 174.993 276.806 175.306C276.806 175.726 276.639 176.128 276.342 176.425C276.045 176.722 275.642 176.889 275.222 176.889V176.889Z" fill="white"/>
<path d="M299.481 163.52H290.524C290.03 163.52 289.552 163.693 289.173 164.01C288.793 164.326 288.537 164.765 288.448 165.251L287.554 170.176C287.499 170.481 287.511 170.793 287.589 171.093C287.668 171.392 287.811 171.67 288.009 171.908C288.207 172.145 288.455 172.337 288.735 172.468C289.015 172.599 289.321 172.667 289.63 172.667H292.839L292.445 173.673C292.281 174.114 292.226 174.588 292.286 175.054C292.345 175.52 292.517 175.965 292.786 176.351C293.055 176.736 293.414 177.05 293.831 177.267C294.248 177.483 294.712 177.595 295.182 177.593C295.317 177.592 295.45 177.553 295.563 177.479C295.677 177.406 295.767 177.301 295.822 177.178L297.828 172.667H299.481C300.041 172.667 300.578 172.445 300.974 172.049C301.37 171.653 301.592 171.116 301.592 170.556V165.631C301.592 165.071 301.37 164.534 300.974 164.138C300.578 163.742 300.041 163.52 299.481 163.52ZM296.667 171.816L294.753 176.122C294.557 176.063 294.375 175.964 294.219 175.832C294.063 175.7 293.935 175.537 293.844 175.354C293.753 175.171 293.701 174.971 293.69 174.766C293.679 174.562 293.71 174.358 293.782 174.166L294.155 173.16C294.234 172.947 294.261 172.718 294.233 172.493C294.205 172.268 294.123 172.053 293.993 171.866C293.864 171.679 293.691 171.527 293.49 171.421C293.289 171.316 293.066 171.26 292.839 171.26H289.63C289.527 171.26 289.425 171.238 289.331 171.194C289.237 171.15 289.155 171.086 289.088 171.007C289.021 170.928 288.971 170.836 288.943 170.736C288.915 170.637 288.909 170.532 288.927 170.43L289.82 165.504C289.85 165.34 289.937 165.192 290.066 165.087C290.195 164.981 290.357 164.925 290.524 164.927H296.667V171.816ZM300.185 170.556C300.185 170.743 300.111 170.922 299.979 171.054C299.847 171.186 299.668 171.26 299.481 171.26H298.074V164.927H299.481C299.668 164.927 299.847 165.001 299.979 165.133C300.111 165.265 300.185 165.444 300.185 165.631V170.556Z" fill="white"/>
<g clip-path="url(#clip5)">
<path d="M248.308 167.358C248.697 167.358 249.012 167.043 249.012 166.654C249.012 166.266 248.697 165.951 248.308 165.951C247.92 165.951 247.605 166.266 247.605 166.654C247.605 167.043 247.92 167.358 248.308 167.358Z" fill="white"/>
<path d="M250.302 173.175H249.129V168.296H247.37C247.214 168.296 247.065 168.36 246.955 168.475C246.845 168.589 246.784 168.744 246.784 168.906C246.784 169.068 246.845 169.223 246.955 169.337C247.065 169.452 247.214 169.516 247.37 169.516H247.956V173.175H246.784C246.628 173.175 246.479 173.239 246.369 173.353C246.259 173.468 246.197 173.623 246.197 173.785C246.197 173.946 246.259 174.101 246.369 174.216C246.479 174.33 246.628 174.394 246.784 174.394H250.302C250.457 174.394 250.606 174.33 250.716 174.216C250.826 174.101 250.888 173.946 250.888 173.785C250.888 173.623 250.826 173.468 250.716 173.353C250.606 173.239 250.457 173.175 250.302 173.175Z" fill="white"/>
<path d="M248.212 162.88C246.751 162.88 245.322 163.314 244.108 164.125C242.893 164.937 241.946 166.091 241.386 167.441C240.827 168.791 240.681 170.277 240.966 171.71C241.251 173.143 241.955 174.459 242.988 175.493C244.021 176.526 245.338 177.23 246.771 177.515C248.204 177.8 249.69 177.653 251.04 177.094C252.39 176.535 253.543 175.588 254.355 174.373C255.167 173.158 255.6 171.73 255.6 170.268C255.6 168.309 254.822 166.43 253.436 165.044C252.051 163.659 250.172 162.88 248.212 162.88V162.88ZM248.212 176.425C246.994 176.425 245.804 176.064 244.792 175.388C243.779 174.711 242.99 173.75 242.524 172.625C242.058 171.5 241.936 170.262 242.174 169.067C242.411 167.873 242.998 166.776 243.859 165.915C244.72 165.054 245.817 164.467 247.011 164.23C248.205 163.992 249.443 164.114 250.568 164.58C251.693 165.046 252.655 165.835 253.331 166.848C254.008 167.86 254.369 169.051 254.369 170.268C254.369 171.077 254.21 171.878 253.9 172.625C253.591 173.372 253.137 174.05 252.566 174.622C251.994 175.194 251.315 175.647 250.568 175.957C249.821 176.266 249.021 176.425 248.212 176.425V176.425Z" fill="white"/>
</g>
</g>
<path d="M162.578 65.5611C167.324 65.4776 171.988 66.8035 175.981 69.3709C179.974 71.9382 183.115 75.6319 185.008 79.9847C186.902 84.3376 187.462 89.1541 186.618 93.8252C185.773 98.4963 183.563 102.812 180.266 106.227C176.969 109.642 172.734 112.003 168.095 113.01C163.457 114.018 158.623 113.628 154.207 111.888C149.79 110.149 145.988 107.139 143.282 103.24C140.576 99.3398 139.087 94.7251 139.004 89.9791C138.892 83.6149 141.313 77.4669 145.734 72.8876C150.155 68.3084 156.214 65.6729 162.578 65.5611V65.5611ZM162.508 61.5617C156.971 61.659 151.587 63.396 147.037 66.5532C142.488 69.7103 138.976 74.1457 136.947 79.2985C134.918 84.4512 134.463 90.09 135.638 95.5016C136.814 100.913 139.568 105.855 143.552 109.701C147.536 113.548 152.571 116.126 158.021 117.111C163.471 118.096 169.09 117.443 174.168 115.234C179.246 113.025 183.556 109.36 186.551 104.702C189.546 100.044 191.093 94.6023 190.996 89.0653C190.865 81.6404 187.791 74.5714 182.448 69.4135C177.106 64.2556 169.933 61.4312 162.508 61.5617V61.5617Z" fill="white" fill-opacity="0.6"/>
<path d="M155.247 103.696C154.888 103.702 154.534 103.611 154.222 103.434C153.921 103.262 153.669 103.015 153.492 102.716C153.315 102.418 153.219 102.078 153.212 101.731L152.791 77.735C152.785 77.3879 152.869 77.0453 153.036 76.7407C153.202 76.4362 153.445 76.1802 153.74 75.998C154.041 75.8171 154.384 75.7187 154.735 75.7125C155.086 75.7064 155.433 75.7927 155.74 75.9629L177.947 87.5744C178.268 87.7402 178.538 87.9895 178.728 88.2961C178.918 88.6026 179.022 88.9549 179.028 89.3157C179.035 89.6764 178.943 90.0322 178.764 90.3452C178.584 90.6582 178.324 90.9169 178.009 91.0939L156.224 103.479C155.922 103.633 155.586 103.707 155.247 103.696V103.696ZM156.849 81.0241L157.153 98.3015L172.818 89.3848L156.849 81.0241Z" fill="white" fill-opacity="0.6"/>
<defs>
<linearGradient id="paint0_linear" x1="13.8879" y1="148" x2="150.493" y2="148.676" gradientUnits="userSpaceOnUse">
<stop stop-opacity="0"/>
<stop stop-opacity="0"/>
<stop offset="1"/>
</linearGradient>
<clipPath id="clip0">
<rect width="179" height="326" fill="white" transform="translate(326 21) rotate(90)"/>
</clipPath>
<clipPath id="clip1">
<rect width="44.4211" height="11.2131" fill="white" transform="translate(29.1753 90.725)"/>
</clipPath>
<clipPath id="clip2">
<rect width="10.7818" height="10.7818" fill="white" transform="translate(29.1753 90.9407)"/>
</clipPath>
<clipPath id="clip3">
<rect width="37.0079" height="11.8425" fill="white" transform="translate(87.5826 166.474)"/>
</clipPath>
<clipPath id="clip4">
<rect width="16.8873" height="16.8873" fill="white" transform="translate(194 162.113)"/>
</clipPath>
<clipPath id="clip5">
<rect width="16.8873" height="16.8873" fill="white" transform="translate(240.056 162.113)"/>
</clipPath>
</defs>
</svg>
