<svg width="494" height="283" viewBox="0 0 494 283" fill="none" xmlns="http://www.w3.org/2000/svg">
<rect width="106" height="90" transform="translate(404 106) rotate(-90)" fill="url(#paint0_linear)"/>
<path d="M454.822 21.6639C455.814 21.4569 458.507 21.1317 459.262 21.7526C459.706 22.1178 459.262 24.0585 458.285 26.4088C458.241 26.5861 458.25 26.8966 458.641 26.7192C459.129 26.4975 461.127 23.9255 460.994 20.7326C460.905 20.3779 460.579 20.2659 460.505 20.2449C459.262 19.8901 456.732 19.7127 454.689 21.2204C454.547 21.5042 454.719 21.6343 454.822 21.6639Z" fill="white"/>
<path d="M427.03 20.8213C426.971 20.6735 426.959 20.3779 427.385 20.3779C432.624 23.5707 443.501 28.5373 457.486 22.4177C458.285 22.2404 458.378 23.0726 457.93 23.3933C446.165 31.8188 432.668 27.1183 427.03 20.8213Z" fill="white"/>
<path d="M432.019 35.3662C432.019 35.9163 431.952 36.4176 431.818 36.8701C431.688 37.3226 431.493 37.71 431.232 38.0322C430.972 38.3545 430.648 38.6035 430.261 38.7793C429.877 38.9551 429.432 39.043 428.928 39.043C428.397 39.043 427.937 38.9551 427.546 38.7793C427.159 38.6035 426.836 38.3545 426.579 38.0322C426.325 37.71 426.136 37.3226 426.013 36.8701C425.889 36.4144 425.827 35.9098 425.827 35.3564C425.827 34.8031 425.889 34.3018 426.013 33.8525C426.136 33.4001 426.327 33.0143 426.584 32.6953C426.841 32.3763 427.165 32.1305 427.556 31.958C427.946 31.7822 428.407 31.6943 428.938 31.6943C429.442 31.6943 429.885 31.7822 430.266 31.958C430.65 32.1305 430.972 32.3779 431.232 32.7002C431.493 33.0192 431.688 33.4049 431.818 33.8574C431.952 34.3066 432.019 34.8096 432.019 35.3662ZM426.789 35.3662C426.789 35.8122 426.831 36.2142 426.916 36.5723C427.001 36.9271 427.129 37.2298 427.302 37.4805C427.478 37.7279 427.699 37.9183 427.966 38.0518C428.236 38.182 428.557 38.2471 428.928 38.2471C429.299 38.2471 429.618 38.182 429.885 38.0518C430.155 37.9183 430.376 37.7279 430.549 37.4805C430.725 37.2298 430.853 36.9271 430.935 36.5723C431.016 36.2142 431.057 35.8122 431.057 35.3662C431.057 34.917 431.016 34.515 430.935 34.1602C430.853 33.8053 430.726 33.5059 430.554 33.2617C430.381 33.0143 430.161 32.8255 429.895 32.6953C429.628 32.5618 429.309 32.4951 428.938 32.4951C428.566 32.4951 428.246 32.5618 427.976 32.6953C427.705 32.8255 427.482 33.0143 427.307 33.2617C427.131 33.5059 427.001 33.8053 426.916 34.1602C426.831 34.515 426.789 34.917 426.789 35.3662ZM435.808 33.4863C435.902 33.4863 436.008 33.4912 436.125 33.501C436.242 33.5075 436.343 33.5189 436.428 33.5352L436.311 34.3555C436.219 34.3392 436.125 34.3262 436.027 34.3164C435.933 34.3034 435.843 34.2969 435.759 34.2969C435.554 34.2969 435.367 34.3392 435.197 34.4238C435.028 34.5052 434.882 34.624 434.758 34.7803C434.637 34.9333 434.543 35.1188 434.475 35.3369C434.41 35.5518 434.377 35.791 434.377 36.0547V38.9453H433.488V33.584H434.211L434.318 34.5654H434.357C434.439 34.4255 434.525 34.2904 434.616 34.1602C434.711 34.0299 434.815 33.916 434.929 33.8184C435.046 33.7174 435.176 33.6377 435.319 33.5791C435.463 33.5173 435.625 33.4863 435.808 33.4863ZM438.371 38.9453H437.482V33.584H438.371V38.9453ZM437.414 32.1338C437.414 31.9385 437.463 31.7969 437.561 31.709C437.661 31.6211 437.785 31.5771 437.932 31.5771C438.003 31.5771 438.07 31.5885 438.132 31.6113C438.197 31.6309 438.252 31.6634 438.298 31.709C438.347 31.7546 438.384 31.8132 438.41 31.8848C438.439 31.9531 438.454 32.0361 438.454 32.1338C438.454 32.3226 438.402 32.4642 438.298 32.5586C438.197 32.6497 438.075 32.6953 437.932 32.6953C437.785 32.6953 437.661 32.6497 437.561 32.5586C437.463 32.4674 437.414 32.3258 437.414 32.1338ZM444.201 33.584V34.1357L443.239 34.2676C443.33 34.3815 443.407 34.528 443.469 34.707C443.531 34.8828 443.562 35.083 443.562 35.3076C443.562 35.555 443.522 35.7845 443.444 35.9961C443.369 36.2044 443.254 36.3851 443.098 36.5381C442.945 36.6911 442.754 36.8115 442.526 36.8994C442.299 36.984 442.033 37.0264 441.73 37.0264C441.659 37.0264 441.587 37.0264 441.516 37.0264C441.444 37.0231 441.385 37.0166 441.34 37.0068C441.285 37.0394 441.229 37.0768 441.174 37.1191C441.122 37.1582 441.073 37.2038 441.027 37.2559C440.985 37.3079 440.949 37.3665 440.92 37.4316C440.894 37.4967 440.881 37.5684 440.881 37.6465C440.881 37.7344 440.9 37.806 440.939 37.8613C440.979 37.9134 441.031 37.9541 441.096 37.9834C441.164 38.0127 441.244 38.0322 441.335 38.042C441.426 38.0518 441.522 38.0566 441.623 38.0566H442.482C442.785 38.0566 443.041 38.0957 443.249 38.1738C443.457 38.2487 443.627 38.3512 443.757 38.4814C443.89 38.6117 443.986 38.7663 444.045 38.9453C444.104 39.1211 444.133 39.3083 444.133 39.5068C444.133 39.7933 444.079 40.0505 443.972 40.2783C443.868 40.5062 443.706 40.6982 443.488 40.8545C443.27 41.014 442.993 41.1361 442.658 41.2207C442.326 41.3053 441.934 41.3477 441.481 41.3477C441.133 41.3477 440.829 41.3135 440.568 41.2451C440.308 41.1768 440.091 41.0775 439.919 40.9473C439.746 40.8171 439.616 40.6592 439.528 40.4736C439.444 40.2913 439.401 40.0846 439.401 39.8535C439.401 39.6582 439.432 39.4857 439.494 39.3359C439.559 39.1895 439.646 39.0625 439.753 38.9551C439.86 38.8477 439.984 38.7598 440.124 38.6914C440.267 38.623 440.415 38.571 440.568 38.5352C440.432 38.4733 440.319 38.3757 440.231 38.2422C440.144 38.1087 440.1 37.9557 440.1 37.7832C440.1 37.5846 440.152 37.4137 440.256 37.2705C440.36 37.124 440.524 36.9824 440.749 36.8457C440.609 36.7871 440.48 36.7074 440.363 36.6064C440.249 36.5023 440.152 36.3851 440.07 36.2549C439.992 36.1214 439.93 35.9766 439.885 35.8203C439.842 35.6641 439.821 35.5029 439.821 35.3369C439.821 35.0472 439.862 34.7884 439.943 34.5605C440.025 34.3327 440.145 34.139 440.305 33.9795C440.464 33.82 440.663 33.6979 440.9 33.6133C441.138 33.5286 441.415 33.4863 441.73 33.4863C441.851 33.4863 441.975 33.4961 442.102 33.5156C442.232 33.5319 442.341 33.5547 442.429 33.584H444.201ZM440.241 39.8242C440.241 39.9447 440.262 40.057 440.305 40.1611C440.347 40.2653 440.415 40.3548 440.51 40.4297C440.607 40.5046 440.734 40.5632 440.891 40.6055C441.05 40.651 441.247 40.6738 441.481 40.6738C442.087 40.6738 442.539 40.5794 442.839 40.3906C443.142 40.2051 443.293 39.9365 443.293 39.585C443.293 39.4352 443.273 39.3132 443.234 39.2188C443.195 39.1243 443.13 39.0495 443.039 38.9941C442.951 38.9421 442.834 38.9062 442.688 38.8867C442.541 38.8672 442.362 38.8574 442.15 38.8574H441.291C441.177 38.8574 441.058 38.8704 440.935 38.8965C440.811 38.9225 440.697 38.9714 440.593 39.043C440.492 39.1146 440.407 39.2122 440.339 39.3359C440.274 39.4629 440.241 39.6257 440.241 39.8242ZM440.69 35.3076C440.69 35.682 440.778 35.9603 440.954 36.1426C441.13 36.3249 441.379 36.416 441.701 36.416C442.027 36.416 442.272 36.3265 442.438 36.1475C442.608 35.9652 442.692 35.6803 442.692 35.293C442.692 34.8926 442.606 34.598 442.434 34.4092C442.264 34.2204 442.017 34.126 441.691 34.126C441.369 34.126 441.122 34.2236 440.949 34.4189C440.777 34.6143 440.69 34.9105 440.69 35.3076ZM446.145 38.9453H445.256V33.584H446.145V38.9453ZM445.188 32.1338C445.188 31.9385 445.236 31.7969 445.334 31.709C445.435 31.6211 445.559 31.5771 445.705 31.5771C445.777 31.5771 445.843 31.5885 445.905 31.6113C445.97 31.6309 446.026 31.6634 446.071 31.709C446.12 31.7546 446.158 31.8132 446.184 31.8848C446.213 31.9531 446.228 32.0361 446.228 32.1338C446.228 32.3226 446.175 32.4642 446.071 32.5586C445.97 32.6497 445.848 32.6953 445.705 32.6953C445.559 32.6953 445.435 32.6497 445.334 32.5586C445.236 32.4674 445.188 32.3258 445.188 32.1338ZM451.193 38.9453V35.4932C451.193 35.07 451.107 34.7526 450.935 34.541C450.765 34.3294 450.498 34.2236 450.134 34.2236C449.87 34.2236 449.649 34.266 449.47 34.3506C449.291 34.4352 449.146 34.5605 449.035 34.7266C448.928 34.8926 448.85 35.096 448.801 35.3369C448.755 35.5778 448.732 35.8545 448.732 36.167V38.9453H447.844V33.584H448.566L448.693 34.3066H448.742C448.824 34.1667 448.92 34.0462 449.03 33.9453C449.144 33.8411 449.268 33.7549 449.401 33.6865C449.535 33.6182 449.676 33.5677 449.826 33.5352C449.976 33.5026 450.129 33.4863 450.285 33.4863C450.881 33.4863 451.328 33.6426 451.628 33.9551C451.931 34.2643 452.082 34.7607 452.082 35.4443V38.9453H451.193ZM456.755 38.9453L456.574 38.2031H456.535C456.428 38.3496 456.32 38.4766 456.213 38.584C456.105 38.6882 455.988 38.7744 455.861 38.8428C455.734 38.9111 455.593 38.9616 455.437 38.9941C455.28 39.0267 455.1 39.043 454.895 39.043C454.67 39.043 454.463 39.0104 454.274 38.9453C454.086 38.8835 453.921 38.7874 453.781 38.6572C453.645 38.5238 453.537 38.3577 453.459 38.1592C453.381 37.9574 453.342 37.7197 453.342 37.4463C453.342 36.9124 453.529 36.5023 453.903 36.2158C454.281 35.9294 454.854 35.7731 455.622 35.7471L456.521 35.7129V35.376C456.521 35.1579 456.496 34.9756 456.447 34.8291C456.402 34.6826 456.333 34.5654 456.242 34.4775C456.154 34.3864 456.044 34.3213 455.91 34.2822C455.78 34.2432 455.63 34.2236 455.461 34.2236C455.191 34.2236 454.938 34.2627 454.704 34.3408C454.473 34.4189 454.25 34.5133 454.035 34.624L453.723 33.9551C453.964 33.8249 454.232 33.7142 454.528 33.623C454.825 33.5319 455.135 33.4863 455.461 33.4863C455.793 33.4863 456.079 33.5205 456.32 33.5889C456.564 33.654 456.765 33.7598 456.921 33.9063C457.08 34.0495 457.199 34.2334 457.277 34.458C457.355 34.6826 457.395 34.9544 457.395 35.2734V38.9453L456.755 38.9453ZM455.124 38.3252C455.323 38.3252 455.507 38.2943 455.676 38.2324C455.845 38.1706 455.992 38.0778 456.115 37.9541C456.239 37.8271 456.335 37.6693 456.403 37.4805C456.475 37.2884 456.511 37.0638 456.511 36.8066V36.3232L455.812 36.3574C455.52 36.3704 455.274 36.403 455.075 36.4551C454.877 36.5072 454.717 36.5804 454.597 36.6748C454.479 36.766 454.395 36.8783 454.343 37.0117C454.291 37.1419 454.265 37.29 454.265 37.4561C454.265 37.7555 454.343 37.9753 454.499 38.1152C454.659 38.2552 454.867 38.3252 455.124 38.3252ZM459.934 38.9453H459.045V31.3477H459.934V38.9453Z" fill="white"/>
<g clip-path="url(#clip0)">
<rect width="219" height="494" transform="translate(494 64) rotate(90)" fill="url(#paint1_linear)"/>
<path d="M19 146.906C19 141.435 23.4349 137 28.9055 137H83.0945C88.5651 137 93 141.435 93 146.906V146.906C93 152.376 88.5651 156.811 83.0945 156.811H28.9055C23.4349 156.811 19 152.376 19 146.906V146.906Z" fill="#111111" fill-opacity="0.2"/>
<g clip-path="url(#clip1)">
<path d="M36.8511 146.044C36.8511 145.433 36.4177 144.921 35.8435 144.798C36.0729 144.415 36.2138 143.973 36.2138 143.495C36.2138 142.089 35.0705 140.945 33.6646 140.945C32.6978 140.945 31.8667 141.491 31.434 142.286C31.0013 141.491 30.1702 140.945 29.2034 140.945C27.7976 140.945 26.6542 142.089 26.6542 143.495C26.6542 144.069 26.8531 144.595 27.1749 145.022C27.014 145.139 26.8831 145.293 26.7927 145.471C26.7022 145.648 26.6548 145.844 26.6542 146.044V151.142C26.6542 151.845 27.2259 152.417 27.9288 152.417H35.5765C36.2794 152.417 36.8511 151.845 36.8511 151.142V149.461L39.4003 150.736V146.274L36.8511 147.549V146.044ZM33.6646 142.22C34.3675 142.22 34.9392 142.792 34.9392 143.495C34.9392 144.197 34.3675 144.769 33.6646 144.769C32.9616 144.769 32.39 144.197 32.39 143.495C32.39 142.792 32.9616 142.22 33.6646 142.22ZM29.2034 142.22C29.9064 142.22 30.4781 142.792 30.4781 143.495C30.4781 144.197 29.9064 144.769 29.2034 144.769C28.5005 144.769 27.9288 144.197 27.9288 143.495C27.9288 142.792 28.5005 142.22 29.2034 142.22ZM27.9288 151.142V146.044H35.5765L35.5778 151.142H27.9288Z" fill="white"/>
<path d="M53.4395 142.566V143.59H50.3667V152.33H49.1035V143.59H46.0308V142.566H53.4395ZM54.8119 152.33V145.16H55.6655L55.8908 146.075C56.519 145.465 57.2747 145.16 58.1578 145.16V146.212C57.302 146.212 56.6078 146.515 56.0752 147.12V152.33H54.8119ZM59.0864 150.166C59.0864 148.695 60.056 147.96 61.9952 147.96C62.6189 147.96 63.2425 148.006 63.8662 148.097V147.421C63.8662 146.597 63.2221 146.185 61.9338 146.185C61.1963 146.185 60.4407 146.298 59.6668 146.526V145.502C60.4407 145.274 61.1963 145.16 61.9338 145.16C64.0642 145.16 65.1294 145.902 65.1294 147.386V152.33H64.4193L63.9823 151.62C63.2676 152.093 62.4892 152.33 61.647 152.33C59.9399 152.33 59.0864 151.609 59.0864 150.166ZM61.9952 148.984C60.8982 148.984 60.3496 149.371 60.3496 150.145C60.3496 150.919 60.7821 151.306 61.647 151.306C62.521 151.306 63.2607 151.074 63.8662 150.609V149.121C63.2425 149.03 62.6189 148.984 61.9952 148.984ZM68.5845 145.16V152.33H67.3213V145.16H68.5845ZM68.5845 142.566V143.761H67.3213V142.566H68.5845ZM72.1079 142.566V152.33H70.8447V142.566H72.1079ZM77.1881 145.16C79.2275 145.16 80.2472 146.169 80.2472 148.185C80.2472 148.472 80.2267 148.779 80.1857 149.107H75.1533C75.1533 150.573 76.0091 151.306 77.7207 151.306C78.5355 151.306 79.2593 151.215 79.8921 151.033V152.057C79.2593 152.239 78.49 152.33 77.5841 152.33C75.1214 152.33 73.8901 151.108 73.8901 148.663C73.8901 146.328 74.9894 145.16 77.1881 145.16ZM75.1533 148.056H79.0317C79.0044 146.799 78.3899 146.171 77.1881 146.171C75.9135 146.171 75.2352 146.799 75.1533 148.056ZM81.9474 152.33V145.16H82.8009L83.0263 146.075C83.6545 145.465 84.4101 145.16 85.2932 145.16V146.212C84.4374 146.212 83.7432 146.515 83.2106 147.12V152.33H81.9474Z" fill="white"/>
</g>
<path d="M28.9055 138.165H83.0945V135.835H28.9055V138.165ZM83.0945 155.646H28.9055V157.976H83.0945V155.646ZM28.9055 155.646C24.0785 155.646 20.1654 151.733 20.1654 146.906H17.8346C17.8346 153.02 22.7912 157.976 28.9055 157.976V155.646ZM91.8346 146.906C91.8346 151.733 87.9215 155.646 83.0945 155.646V157.976C89.2088 157.976 94.1654 153.02 94.1654 146.906H91.8346ZM83.0945 138.165C87.9215 138.165 91.8346 142.078 91.8346 146.906H94.1654C94.1654 140.791 89.2088 135.835 83.0945 135.835V138.165ZM28.9055 135.835C22.7912 135.835 17.8346 140.791 17.8346 146.906H20.1654C20.1654 142.078 24.0785 138.165 28.9055 138.165V135.835Z" fill="white"/>
<path d="M20.4648 182.811V168.846H23.0527V174.607H29.9375V168.846H32.5254V182.811H29.9375V176.854H23.0527V182.811H20.4648ZM44.4492 172.557V182.811H42.4277L42.1152 181.502C40.9368 182.374 39.6868 182.811 38.3652 182.811C36.2689 182.811 35.2207 181.57 35.2207 179.09V172.557H37.8086V179.021C37.8086 180.154 38.3034 180.721 39.293 180.721C40.1328 180.721 40.9889 180.385 41.8613 179.715V172.557H44.4492ZM46.9004 182.811V172.557H48.9023L49.2246 174.061C50.2077 173.058 51.3275 172.557 52.584 172.557C55.0124 172.557 56.2266 173.82 56.2266 176.346V182.811H53.6387V176.346C53.6387 175.213 53.0755 174.646 51.9492 174.646C51.1094 174.646 50.2891 174.982 49.4883 175.652V182.811H46.9004ZM58.5312 170.896H60.4453L60.8359 172.557H63.4141V174.607H61.1191V179.324C61.1191 180.281 61.5326 180.76 62.3594 180.76H63.4141V182.811H61.1094C59.3906 182.811 58.5312 181.889 58.5312 180.047V170.896ZM69.5078 172.557C72.6198 172.557 74.1758 174.145 74.1758 177.322C74.1758 177.745 74.1465 178.169 74.0879 178.592H67.2812C67.2812 180.037 68.3424 180.76 70.4648 180.76C71.5 180.76 72.5352 180.662 73.5703 180.467V182.518C72.6654 182.713 71.5651 182.811 70.2695 182.811C66.5521 182.811 64.6934 181.062 64.6934 177.566C64.6934 174.227 66.2982 172.557 69.5078 172.557ZM67.2812 176.795H71.6562V176.717C71.6562 175.298 70.9401 174.588 69.5078 174.588C68.1406 174.588 67.3984 175.324 67.2812 176.795ZM76.1191 182.811V172.557H78.1211L78.4434 173.865C79.3418 172.993 80.2923 172.557 81.2949 172.557V174.646C80.3314 174.646 79.4688 175.047 78.707 175.848V182.811H76.1191ZM82.7598 182.322V180.174C83.8991 180.63 85.2142 180.857 86.7051 180.857C87.8184 180.857 88.375 180.499 88.375 179.783C88.375 179.1 88.0007 178.758 87.252 178.758H85.3965C83.3132 178.758 82.2715 177.732 82.2715 175.682C82.2715 173.533 83.7917 172.459 86.832 172.459C88.1211 172.459 89.3353 172.654 90.4746 173.045V175.193C89.3353 174.738 88.0983 174.51 86.7637 174.51C85.3639 174.51 84.6641 174.868 84.6641 175.584C84.6641 176.268 85.071 176.609 85.8848 176.609H87.5449C89.8236 176.609 90.9629 177.635 90.9629 179.686C90.9629 181.834 89.5111 182.908 86.6074 182.908C85.1816 182.908 83.8991 182.713 82.7598 182.322Z" fill="white"/>
<path d="M25.25 197.342L23.4727 200.943L19.5 201.518L22.375 204.322L21.6953 208.279L25.25 206.412L28.8047 208.279L28.125 204.322L31 201.521L27.0273 200.943L25.25 197.342Z" fill="#F39B13"/>
<path d="M40.9365 202.082C40.9365 202.561 40.9115 203.039 40.8613 203.518C40.8158 203.992 40.7314 204.445 40.6084 204.878C40.4899 205.311 40.3258 205.716 40.1162 206.095C39.9066 206.468 39.64 206.792 39.3164 207.065C38.9928 207.339 38.6055 207.555 38.1543 207.715C37.7031 207.87 37.1745 207.947 36.5684 207.947C36.4818 207.947 36.3861 207.945 36.2812 207.94C36.1764 207.936 36.0716 207.927 35.9668 207.913C35.862 207.904 35.7594 207.893 35.6592 207.879C35.5589 207.865 35.4701 207.847 35.3926 207.824V206.758C35.5521 206.817 35.7321 206.86 35.9326 206.888C36.1331 206.915 36.3314 206.929 36.5273 206.929C37.1426 206.929 37.6484 206.822 38.0449 206.607C38.4414 206.393 38.7559 206.104 38.9883 205.739C39.2207 205.37 39.3848 204.942 39.4805 204.454C39.5807 203.966 39.6423 203.451 39.665 202.909H39.5762C39.485 203.073 39.3757 203.226 39.248 203.367C39.1204 203.508 38.9701 203.632 38.7969 203.736C38.6237 203.841 38.4277 203.923 38.209 203.982C37.9902 204.042 37.7464 204.071 37.4775 204.071C37.0446 204.071 36.6527 204.005 36.3018 203.873C35.9508 203.736 35.6523 203.538 35.4062 203.278C35.1602 203.019 34.9688 202.702 34.832 202.328C34.6999 201.95 34.6338 201.519 34.6338 201.036C34.6338 200.517 34.7044 200.049 34.8457 199.635C34.9915 199.215 35.1943 198.862 35.4541 198.575C35.7184 198.284 36.0374 198.06 36.4111 197.905C36.7894 197.75 37.2109 197.673 37.6758 197.673C38.1361 197.673 38.5645 197.762 38.9609 197.939C39.3574 198.117 39.7015 198.388 39.9932 198.753C40.2848 199.118 40.515 199.578 40.6836 200.134C40.8522 200.685 40.9365 201.335 40.9365 202.082ZM37.6895 198.726C37.416 198.726 37.1654 198.771 36.9375 198.862C36.7142 198.953 36.5205 199.095 36.3564 199.286C36.1924 199.478 36.0648 199.719 35.9736 200.011C35.887 200.298 35.8438 200.64 35.8438 201.036C35.8438 201.355 35.8802 201.642 35.9531 201.897C36.0306 202.148 36.1445 202.362 36.2949 202.54C36.4453 202.718 36.6322 202.854 36.8555 202.95C37.0833 203.046 37.3477 203.094 37.6484 203.094C37.9583 203.094 38.2386 203.041 38.4893 202.937C38.7399 202.827 38.9541 202.688 39.1318 202.52C39.3096 202.346 39.4463 202.15 39.542 201.932C39.6423 201.713 39.6924 201.494 39.6924 201.275C39.6924 200.97 39.6491 200.667 39.5625 200.366C39.4805 200.061 39.3551 199.787 39.1865 199.546C39.0225 199.3 38.8151 199.102 38.5645 198.951C38.3138 198.801 38.0221 198.726 37.6895 198.726ZM42.625 207.052C42.625 206.879 42.6478 206.733 42.6934 206.614C42.7389 206.491 42.8005 206.393 42.8779 206.32C42.9554 206.243 43.0465 206.188 43.1514 206.156C43.2562 206.12 43.3701 206.102 43.4932 206.102C43.6117 206.102 43.7233 206.12 43.8281 206.156C43.9375 206.188 44.0309 206.243 44.1084 206.32C44.1859 206.393 44.2474 206.491 44.293 206.614C44.3385 206.733 44.3613 206.879 44.3613 207.052C44.3613 207.22 44.3385 207.366 44.293 207.489C44.2474 207.608 44.1859 207.706 44.1084 207.783C44.0309 207.861 43.9375 207.918 43.8281 207.954C43.7233 207.991 43.6117 208.009 43.4932 208.009C43.3701 208.009 43.2562 207.991 43.1514 207.954C43.0465 207.918 42.9554 207.861 42.8779 207.783C42.8005 207.706 42.7389 207.608 42.6934 207.489C42.6478 207.366 42.625 207.22 42.625 207.052ZM52.2705 207.811H46.0361V206.744L48.4287 204.14C48.7705 203.771 49.0758 203.433 49.3447 203.128C49.6136 202.823 49.8415 202.524 50.0283 202.232C50.2197 201.941 50.3656 201.649 50.4658 201.357C50.5661 201.061 50.6162 200.74 50.6162 200.394C50.6162 200.125 50.5775 199.888 50.5 199.683C50.4225 199.478 50.3109 199.304 50.165 199.163C50.0238 199.017 49.8551 198.908 49.6592 198.835C49.4632 198.762 49.2445 198.726 49.0029 198.726C48.57 198.726 48.1781 198.814 47.8271 198.992C47.4808 199.165 47.1504 199.389 46.8359 199.662L46.1387 198.849C46.321 198.685 46.5169 198.532 46.7266 198.391C46.9362 198.245 47.1618 198.119 47.4033 198.015C47.6449 197.91 47.9001 197.828 48.1689 197.769C48.4378 197.705 48.7204 197.673 49.0166 197.673C49.4541 197.673 49.8483 197.734 50.1992 197.857C50.5547 197.98 50.8555 198.158 51.1016 198.391C51.3477 198.618 51.5368 198.899 51.6689 199.231C51.8057 199.56 51.874 199.931 51.874 200.346C51.874 200.733 51.8125 201.102 51.6895 201.453C51.571 201.804 51.4046 202.15 51.1904 202.492C50.9808 202.829 50.7279 203.169 50.4316 203.511C50.14 203.853 49.8232 204.208 49.4814 204.577L47.5605 206.621V206.676H52.2705V207.811Z" fill="white"/>
<path d="M58.1523 198.035V207.811H56.8877V198.035H58.1523ZM60.6885 207.811V198.035H62.2949L65.8838 206.19L69.4043 198.035H70.9424V207.811H69.8145V199.792L66.3418 207.811H65.3438L61.8164 199.792V207.811H60.6885ZM76.8213 206.785C79.2139 206.785 80.4102 205.409 80.4102 202.656C80.4102 200.259 79.2139 199.061 76.8213 199.061H74.5312V206.785H76.8213ZM73.2666 207.811V198.035H76.8213C80.057 198.035 81.6748 199.576 81.6748 202.656C81.6748 206.092 80.057 207.811 76.8213 207.811H73.2666ZM84.6484 206.56C85.0632 206.692 85.5667 206.758 86.1592 206.758C87.7542 206.758 88.5518 205.849 88.5518 204.03C88.5518 202.494 87.8294 201.727 86.3848 201.727C85.7285 201.727 85.1497 201.85 84.6484 202.096V206.56ZM83.3838 198.035H84.6484V200.975C85.1908 200.747 85.7718 200.633 86.3916 200.633C88.6611 200.633 89.7959 201.781 89.7959 204.078C89.7959 206.566 88.6042 207.811 86.2207 207.811C85.1908 207.811 84.2451 207.713 83.3838 207.517V198.035Z" fill="white"/>
<path d="M26.417 229.739H25.2139V231.811H23.1562V229.739H19.0273V228.27L23.2725 221.816H25.2139V228.099H26.417V229.739ZM23.1562 228.099V226.403C23.1562 226.344 23.1562 226.26 23.1562 226.15C23.1608 226.036 23.1654 225.909 23.1699 225.768C23.1745 225.626 23.179 225.48 23.1836 225.33C23.1927 225.18 23.1995 225.036 23.2041 224.899C23.2132 224.763 23.2201 224.644 23.2246 224.544C23.2337 224.439 23.2406 224.364 23.2451 224.318H23.1836C23.1016 224.51 23.0081 224.713 22.9033 224.927C22.8031 225.141 22.6868 225.355 22.5547 225.569L20.8867 228.099H23.1562ZM37.0811 229.035C37.0811 229.482 37.0036 229.885 36.8486 230.245C36.6982 230.601 36.4749 230.906 36.1787 231.161C35.887 231.412 35.527 231.605 35.0986 231.742C34.6748 231.879 34.1872 231.947 33.6357 231.947C33.1527 231.947 32.6855 231.897 32.2344 231.797C31.7878 231.697 31.373 231.546 30.9902 231.346V229.377C31.209 229.482 31.43 229.584 31.6533 229.685C31.8766 229.78 32.1022 229.867 32.3301 229.944C32.5625 230.022 32.7926 230.083 33.0205 230.129C33.2529 230.174 33.4831 230.197 33.7109 230.197C33.9434 230.197 34.1416 230.172 34.3057 230.122C34.4743 230.067 34.6087 229.994 34.709 229.903C34.8138 229.808 34.889 229.696 34.9346 229.568C34.9847 229.436 35.0098 229.293 35.0098 229.138C35.0098 228.951 34.9688 228.787 34.8867 228.646C34.8092 228.5 34.6976 228.365 34.5518 228.242C34.4105 228.115 34.2373 227.992 34.0322 227.873C33.8317 227.755 33.6061 227.629 33.3555 227.497C33.1458 227.388 32.9111 227.256 32.6514 227.101C32.3916 226.946 32.1455 226.754 31.9131 226.526C31.6852 226.294 31.4938 226.016 31.3389 225.692C31.1839 225.364 31.1064 224.972 31.1064 224.517C31.1064 224.07 31.1794 223.671 31.3252 223.32C31.4756 222.965 31.6875 222.666 31.9609 222.425C32.2344 222.179 32.5648 221.992 32.9521 221.864C33.3441 221.737 33.7816 221.673 34.2646 221.673C34.5062 221.673 34.7409 221.689 34.9688 221.721C35.2012 221.753 35.429 221.798 35.6523 221.857C35.8802 221.917 36.1081 221.99 36.3359 222.076C36.5638 222.163 36.7985 222.263 37.04 222.377L36.3564 224.024C36.1514 223.929 35.96 223.844 35.7822 223.771C35.6045 223.699 35.4313 223.637 35.2627 223.587C35.0941 223.537 34.9277 223.5 34.7637 223.478C34.6042 223.45 34.4424 223.437 34.2783 223.437C33.9229 223.437 33.6494 223.532 33.458 223.724C33.2712 223.91 33.1777 224.161 33.1777 224.476C33.1777 224.644 33.2051 224.795 33.2598 224.927C33.319 225.054 33.4102 225.175 33.5332 225.289C33.6608 225.403 33.8226 225.519 34.0186 225.638C34.2191 225.756 34.4606 225.891 34.7432 226.041C35.085 226.223 35.3994 226.41 35.6865 226.602C35.9736 226.788 36.2197 226.998 36.4248 227.23C36.6344 227.458 36.7962 227.718 36.9102 228.01C37.0241 228.301 37.0811 228.643 37.0811 229.035ZM41.873 225.508C41.5039 225.508 41.1963 225.638 40.9502 225.897C40.7087 226.157 40.5697 226.565 40.5332 227.121H43.1924C43.1878 226.889 43.1582 226.674 43.1035 226.479C43.0488 226.283 42.9668 226.114 42.8574 225.973C42.748 225.827 42.6113 225.713 42.4473 225.631C42.2832 225.549 42.0918 225.508 41.873 225.508ZM42.1396 231.947C41.5928 231.947 41.0892 231.868 40.6289 231.708C40.1686 231.549 39.7721 231.309 39.4395 230.99C39.1068 230.667 38.847 230.261 38.6602 229.773C38.4779 229.281 38.3867 228.705 38.3867 228.044C38.3867 227.374 38.471 226.788 38.6396 226.287C38.8083 225.786 39.043 225.369 39.3438 225.036C39.6491 224.699 40.0137 224.446 40.4375 224.277C40.8659 224.109 41.3398 224.024 41.8594 224.024C42.3652 224.024 42.821 224.102 43.2266 224.257C43.6367 224.407 43.9831 224.631 44.2656 224.927C44.5527 225.223 44.7715 225.588 44.9219 226.021C45.0768 226.449 45.1543 226.941 45.1543 227.497V228.509H40.4922C40.5013 228.8 40.5469 229.065 40.6289 229.302C40.7155 229.534 40.834 229.732 40.9844 229.896C41.1393 230.056 41.3239 230.179 41.5381 230.266C41.7568 230.352 42.0052 230.396 42.2832 230.396C42.5156 230.396 42.7344 230.384 42.9395 230.361C43.1491 230.334 43.3519 230.295 43.5479 230.245C43.7438 230.195 43.9375 230.133 44.1289 230.061C44.3203 229.983 44.5163 229.894 44.7168 229.794V231.407C44.5345 231.503 44.3499 231.585 44.1631 231.653C43.9808 231.717 43.7871 231.772 43.582 231.817C43.377 231.863 43.1559 231.895 42.9189 231.913C42.682 231.936 42.4222 231.947 42.1396 231.947ZM51.3545 231.811L50.9512 230.771H50.8896C50.7393 230.977 50.5889 231.154 50.4385 231.305C50.2881 231.451 50.124 231.571 49.9463 231.667C49.7686 231.763 49.568 231.833 49.3447 231.879C49.126 231.924 48.8708 231.947 48.5791 231.947C48.2692 231.947 47.9821 231.899 47.7178 231.804C47.4535 231.703 47.2233 231.555 47.0273 231.359C46.8359 231.159 46.6855 230.908 46.5762 230.607C46.4668 230.302 46.4121 229.942 46.4121 229.527C46.4121 228.716 46.6719 228.119 47.1914 227.736C47.7109 227.349 48.488 227.135 49.5225 227.094L50.7393 227.053V226.479C50.7393 226.164 50.6481 225.932 50.4658 225.781C50.2835 225.631 50.0283 225.556 49.7002 225.556C49.3721 225.556 49.0508 225.604 48.7363 225.699C48.4264 225.795 48.1143 225.923 47.7998 226.082L47.123 224.701C47.5059 224.487 47.9297 224.318 48.3945 224.195C48.8594 224.072 49.347 224.011 49.8574 224.011C50.8099 224.011 51.5391 224.234 52.0449 224.681C52.5553 225.127 52.8105 225.806 52.8105 226.718V231.811H51.3545ZM50.7393 228.27L50.0488 228.297C49.7708 228.306 49.5361 228.342 49.3447 228.406C49.1533 228.47 48.9984 228.557 48.8799 228.666C48.766 228.771 48.6816 228.898 48.627 229.049C48.5768 229.195 48.5518 229.359 48.5518 229.541C48.5518 229.86 48.6292 230.088 48.7842 230.225C48.9391 230.357 49.1419 230.423 49.3926 230.423C49.584 230.423 49.7617 230.391 49.9258 230.327C50.0898 230.259 50.2311 230.161 50.3496 230.033C50.4727 229.901 50.5684 229.742 50.6367 229.555C50.7051 229.363 50.7393 229.145 50.7393 228.898V228.27ZM60.0498 229.541C60.0498 229.942 59.9769 230.293 59.8311 230.594C59.6852 230.895 59.4779 231.145 59.209 231.346C58.9401 231.546 58.6143 231.697 58.2314 231.797C57.8486 231.897 57.4202 231.947 56.9463 231.947C56.6956 231.947 56.4632 231.938 56.249 231.92C56.0348 231.906 55.832 231.881 55.6406 231.845C55.4492 231.808 55.2646 231.763 55.0869 231.708C54.9092 231.653 54.7292 231.585 54.5469 231.503V229.78C54.7383 229.876 54.9388 229.963 55.1484 230.04C55.3626 230.118 55.5745 230.186 55.7842 230.245C55.9938 230.3 56.1966 230.343 56.3926 230.375C56.5931 230.407 56.7777 230.423 56.9463 230.423C57.1331 230.423 57.2926 230.407 57.4248 230.375C57.557 230.339 57.6641 230.291 57.7461 230.231C57.8327 230.168 57.8942 230.095 57.9307 230.013C57.9717 229.926 57.9922 229.835 57.9922 229.739C57.9922 229.644 57.9762 229.559 57.9443 229.486C57.917 229.409 57.8509 229.329 57.7461 229.247C57.6413 229.16 57.4863 229.065 57.2812 228.96C57.0807 228.851 56.8096 228.718 56.4678 228.563C56.1351 228.413 55.8457 228.265 55.5996 228.119C55.3581 227.969 55.1576 227.802 54.998 227.62C54.8431 227.438 54.7269 227.23 54.6494 226.998C54.5719 226.761 54.5332 226.481 54.5332 226.157C54.5332 225.802 54.6016 225.492 54.7383 225.228C54.875 224.959 55.0687 224.735 55.3193 224.558C55.57 224.38 55.8708 224.248 56.2217 224.161C56.5771 224.07 56.9714 224.024 57.4043 224.024C57.86 224.024 58.293 224.077 58.7031 224.182C59.1133 224.286 59.5348 224.444 59.9678 224.653L59.3389 226.13C58.9925 225.966 58.6621 225.831 58.3477 225.727C58.0332 225.622 57.7188 225.569 57.4043 225.569C57.1217 225.569 56.9167 225.619 56.7891 225.72C56.666 225.82 56.6045 225.957 56.6045 226.13C56.6045 226.221 56.6204 226.303 56.6523 226.376C56.6842 226.444 56.748 226.517 56.8438 226.595C56.9395 226.668 57.0739 226.75 57.2471 226.841C57.4202 226.927 57.6458 227.035 57.9238 227.162C58.2474 227.303 58.5391 227.445 58.7988 227.586C59.0586 227.723 59.2819 227.88 59.4688 228.058C59.6556 228.235 59.7992 228.443 59.8994 228.68C59.9997 228.917 60.0498 229.204 60.0498 229.541ZM63.4336 227.976C63.4336 228.737 63.5407 229.311 63.7549 229.698C63.9691 230.081 64.3177 230.272 64.8008 230.272C65.2793 230.272 65.6257 230.079 65.8398 229.691C66.054 229.304 66.1611 228.732 66.1611 227.976C66.1611 227.215 66.054 226.647 65.8398 226.273C65.6257 225.895 65.2747 225.706 64.7871 225.706C64.3086 225.706 63.9622 225.895 63.748 226.273C63.5384 226.647 63.4336 227.215 63.4336 227.976ZM68.2871 227.976C68.2871 228.614 68.2051 229.179 68.041 229.671C67.8815 230.163 67.6491 230.578 67.3438 230.915C67.043 231.252 66.6738 231.51 66.2363 231.688C65.8034 231.861 65.3158 231.947 64.7734 231.947C64.2676 231.947 63.8027 231.861 63.3789 231.688C62.9551 231.51 62.5882 231.252 62.2783 230.915C61.973 230.578 61.7337 230.163 61.5605 229.671C61.3874 229.179 61.3008 228.614 61.3008 227.976C61.3008 227.342 61.3805 226.779 61.54 226.287C61.7041 225.795 61.9365 225.382 62.2373 225.05C62.5426 224.713 62.9118 224.457 63.3447 224.284C63.7777 224.111 64.2676 224.024 64.8145 224.024C65.3203 224.024 65.7852 224.111 66.209 224.284C66.6328 224.457 66.9974 224.713 67.3027 225.05C67.6126 225.382 67.8542 225.795 68.0273 226.287C68.2005 226.779 68.2871 227.342 68.2871 227.976ZM76.7227 231.811H74.6377V227.347C74.6377 226.795 74.5534 226.383 74.3848 226.109C74.2207 225.831 73.9564 225.692 73.5918 225.692C73.3184 225.692 73.0905 225.747 72.9082 225.856C72.7259 225.966 72.5801 226.128 72.4707 226.342C72.3659 226.556 72.2907 226.82 72.2451 227.135C72.1995 227.449 72.1768 227.809 72.1768 228.215V231.811H70.0918V224.168H71.6846L71.9648 225.146H72.0811C72.1904 224.95 72.3226 224.781 72.4775 224.64C72.637 224.498 72.8102 224.382 72.9971 224.291C73.1839 224.2 73.3822 224.134 73.5918 224.093C73.8014 224.047 74.0156 224.024 74.2344 224.024C74.6081 224.024 74.9476 224.079 75.2529 224.188C75.5583 224.293 75.8203 224.46 76.0391 224.688C76.2578 224.915 76.4264 225.207 76.5449 225.562C76.6634 225.913 76.7227 226.335 76.7227 226.827V231.811ZM83.9619 229.541C83.9619 229.942 83.889 230.293 83.7432 230.594C83.5973 230.895 83.39 231.145 83.1211 231.346C82.8522 231.546 82.5264 231.697 82.1436 231.797C81.7607 231.897 81.3324 231.947 80.8584 231.947C80.6077 231.947 80.3753 231.938 80.1611 231.92C79.9469 231.906 79.7441 231.881 79.5527 231.845C79.3613 231.808 79.1768 231.763 78.999 231.708C78.8213 231.653 78.6413 231.585 78.459 231.503V229.78C78.6504 229.876 78.8509 229.963 79.0605 230.04C79.2747 230.118 79.4867 230.186 79.6963 230.245C79.9059 230.3 80.1087 230.343 80.3047 230.375C80.5052 230.407 80.6898 230.423 80.8584 230.423C81.0452 230.423 81.2048 230.407 81.3369 230.375C81.4691 230.339 81.5762 230.291 81.6582 230.231C81.7448 230.168 81.8063 230.095 81.8428 230.013C81.8838 229.926 81.9043 229.835 81.9043 229.739C81.9043 229.644 81.8883 229.559 81.8564 229.486C81.8291 229.409 81.763 229.329 81.6582 229.247C81.5534 229.16 81.3984 229.065 81.1934 228.96C80.9928 228.851 80.7217 228.718 80.3799 228.563C80.0472 228.413 79.7578 228.265 79.5117 228.119C79.2702 227.969 79.0697 227.802 78.9102 227.62C78.7552 227.438 78.639 227.23 78.5615 226.998C78.484 226.761 78.4453 226.481 78.4453 226.157C78.4453 225.802 78.5137 225.492 78.6504 225.228C78.7871 224.959 78.9808 224.735 79.2314 224.558C79.4821 224.38 79.7829 224.248 80.1338 224.161C80.4893 224.07 80.8835 224.024 81.3164 224.024C81.7721 224.024 82.2051 224.077 82.6152 224.182C83.0254 224.286 83.4469 224.444 83.8799 224.653L83.251 226.13C82.9046 225.966 82.5742 225.831 82.2598 225.727C81.9453 225.622 81.6309 225.569 81.3164 225.569C81.0339 225.569 80.8288 225.619 80.7012 225.72C80.5781 225.82 80.5166 225.957 80.5166 226.13C80.5166 226.221 80.5326 226.303 80.5645 226.376C80.5964 226.444 80.6602 226.517 80.7559 226.595C80.8516 226.668 80.986 226.75 81.1592 226.841C81.3324 226.927 81.5579 227.035 81.8359 227.162C82.1595 227.303 82.4512 227.445 82.7109 227.586C82.9707 227.723 83.194 227.88 83.3809 228.058C83.5677 228.235 83.7113 228.443 83.8115 228.68C83.9118 228.917 83.9619 229.204 83.9619 229.541Z" fill="white"/>
<path d="M100.267 231.811H93.5605V230.341L95.9121 227.805C96.2083 227.486 96.4772 227.192 96.7188 226.923C96.9603 226.654 97.1676 226.392 97.3408 226.137C97.514 225.882 97.6484 225.622 97.7441 225.357C97.8398 225.093 97.8877 224.808 97.8877 224.503C97.8877 224.166 97.7852 223.904 97.5801 223.717C97.3796 223.53 97.1084 223.437 96.7666 223.437C96.4066 223.437 96.0602 223.525 95.7275 223.703C95.3949 223.881 95.0462 224.134 94.6816 224.462L93.5332 223.102C93.7383 222.915 93.9525 222.737 94.1758 222.568C94.3991 222.395 94.6452 222.243 94.9141 222.11C95.1829 221.978 95.4792 221.873 95.8027 221.796C96.1263 221.714 96.4886 221.673 96.8896 221.673C97.3682 221.673 97.7965 221.739 98.1748 221.871C98.5576 222.003 98.8835 222.192 99.1523 222.438C99.4212 222.68 99.6263 222.974 99.7676 223.32C99.9134 223.667 99.9863 224.056 99.9863 224.489C99.9863 224.881 99.918 225.257 99.7812 225.617C99.6445 225.973 99.4577 226.324 99.2207 226.67C98.9837 227.012 98.708 227.354 98.3936 227.695C98.0837 228.033 97.751 228.377 97.3955 228.728L96.1924 229.938V230.033H100.267V231.811ZM107.991 226.813C107.991 227.62 107.927 228.34 107.8 228.974C107.677 229.607 107.476 230.145 107.198 230.587C106.925 231.029 106.569 231.366 106.132 231.599C105.699 231.831 105.175 231.947 104.56 231.947C103.981 231.947 103.477 231.831 103.049 231.599C102.62 231.366 102.265 231.029 101.982 230.587C101.7 230.145 101.488 229.607 101.347 228.974C101.21 228.34 101.142 227.62 101.142 226.813C101.142 226.007 101.203 225.285 101.326 224.646C101.454 224.008 101.654 223.468 101.928 223.026C102.201 222.584 102.554 222.247 102.987 222.015C103.42 221.778 103.944 221.659 104.56 221.659C105.134 221.659 105.635 221.775 106.063 222.008C106.492 222.24 106.85 222.577 107.137 223.02C107.424 223.462 107.638 224.002 107.779 224.64C107.921 225.278 107.991 226.002 107.991 226.813ZM103.247 226.813C103.247 227.953 103.345 228.81 103.541 229.384C103.737 229.958 104.076 230.245 104.56 230.245C105.034 230.245 105.373 229.96 105.578 229.391C105.788 228.821 105.893 227.962 105.893 226.813C105.893 225.67 105.788 224.811 105.578 224.236C105.373 223.658 105.034 223.368 104.56 223.368C104.318 223.368 104.113 223.441 103.944 223.587C103.78 223.733 103.646 223.949 103.541 224.236C103.436 224.523 103.361 224.883 103.315 225.316C103.27 225.745 103.247 226.244 103.247 226.813ZM114.007 231.811H111.895V226.027C111.895 225.909 111.895 225.768 111.895 225.604C111.899 225.435 111.904 225.262 111.908 225.084C111.917 224.902 111.924 224.719 111.929 224.537C111.938 224.355 111.945 224.188 111.949 224.038C111.926 224.065 111.888 224.106 111.833 224.161C111.778 224.216 111.717 224.277 111.648 224.346C111.58 224.41 111.509 224.476 111.437 224.544C111.364 224.612 111.293 224.674 111.225 224.729L110.076 225.651L109.051 224.38L112.271 221.816H114.007V231.811ZM123.399 231.811H116.693V230.341L119.045 227.805C119.341 227.486 119.61 227.192 119.852 226.923C120.093 226.654 120.3 226.392 120.474 226.137C120.647 225.882 120.781 225.622 120.877 225.357C120.973 225.093 121.021 224.808 121.021 224.503C121.021 224.166 120.918 223.904 120.713 223.717C120.512 223.53 120.241 223.437 119.899 223.437C119.539 223.437 119.193 223.525 118.86 223.703C118.528 223.881 118.179 224.134 117.814 224.462L116.666 223.102C116.871 222.915 117.085 222.737 117.309 222.568C117.532 222.395 117.778 222.243 118.047 222.11C118.316 221.978 118.612 221.873 118.936 221.796C119.259 221.714 119.621 221.673 120.022 221.673C120.501 221.673 120.929 221.739 121.308 221.871C121.69 222.003 122.016 222.192 122.285 222.438C122.554 222.68 122.759 222.974 122.9 223.32C123.046 223.667 123.119 224.056 123.119 224.489C123.119 224.881 123.051 225.257 122.914 225.617C122.777 225.973 122.59 226.324 122.354 226.67C122.117 227.012 121.841 227.354 121.526 227.695C121.216 228.033 120.884 228.377 120.528 228.728L119.325 229.938V230.033H123.399V231.811Z" fill="white"/>
<path d="M140.939 223.87C140.591 223.87 140.275 223.937 139.992 224.07C139.709 224.201 139.466 224.389 139.265 224.637C139.066 224.884 138.911 225.185 138.801 225.54C138.693 225.895 138.64 226.295 138.64 226.741C138.64 227.2 138.687 227.609 138.781 227.967C138.879 228.322 139.024 228.621 139.216 228.865C139.408 229.109 139.647 229.295 139.934 229.422C140.22 229.549 140.555 229.612 140.939 229.612C141.229 229.612 141.504 229.585 141.765 229.529C142.025 229.471 142.282 229.404 142.536 229.329V230.12C142.409 230.169 142.282 230.213 142.155 230.252C142.028 230.288 141.895 230.317 141.755 230.34C141.618 230.363 141.47 230.379 141.311 230.389C141.154 230.402 140.98 230.408 140.788 230.408C140.254 230.408 139.792 230.32 139.401 230.145C139.011 229.969 138.687 229.72 138.43 229.397C138.176 229.075 137.987 228.688 137.863 228.235C137.74 227.783 137.678 227.282 137.678 226.731C137.678 226.191 137.748 225.696 137.888 225.247C138.031 224.798 138.239 224.412 138.513 224.09C138.789 223.768 139.131 223.517 139.538 223.338C139.945 223.159 140.412 223.069 140.939 223.069C141.291 223.069 141.626 223.105 141.945 223.177C142.264 223.248 142.552 223.353 142.81 223.489L142.429 224.251C142.224 224.147 142.001 224.057 141.76 223.982C141.519 223.908 141.245 223.87 140.939 223.87ZM146.77 223.87C146.421 223.87 146.105 223.937 145.822 224.07C145.539 224.201 145.297 224.389 145.095 224.637C144.896 224.884 144.742 225.185 144.631 225.54C144.523 225.895 144.47 226.295 144.47 226.741C144.47 227.2 144.517 227.609 144.611 227.967C144.709 228.322 144.854 228.621 145.046 228.865C145.238 229.109 145.477 229.295 145.764 229.422C146.05 229.549 146.385 229.612 146.77 229.612C147.059 229.612 147.334 229.585 147.595 229.529C147.855 229.471 148.112 229.404 148.366 229.329V230.12C148.239 230.169 148.112 230.213 147.985 230.252C147.858 230.288 147.725 230.317 147.585 230.34C147.448 230.363 147.3 230.379 147.141 230.389C146.984 230.402 146.81 230.408 146.618 230.408C146.084 230.408 145.622 230.32 145.231 230.145C144.841 229.969 144.517 229.72 144.26 229.397C144.006 229.075 143.817 228.688 143.693 228.235C143.57 227.783 143.508 227.282 143.508 226.731C143.508 226.191 143.578 225.696 143.718 225.247C143.861 224.798 144.069 224.412 144.343 224.09C144.619 223.768 144.961 223.517 145.368 223.338C145.775 223.159 146.242 223.069 146.77 223.069C147.121 223.069 147.456 223.105 147.775 223.177C148.094 223.248 148.382 223.353 148.64 223.489L148.259 224.251C148.054 224.147 147.831 224.057 147.59 223.982C147.349 223.908 147.076 223.87 146.77 223.87Z" fill="white"/>
<path d="M135 220.811H151V218.811H135V220.811ZM153 222.811V230.811H155V222.811H153ZM151 232.811H135V234.811H151V232.811ZM133 230.811V222.811H131V230.811H133ZM135 232.811C133.895 232.811 133 231.915 133 230.811H131C131 233.02 132.791 234.811 135 234.811V232.811ZM153 230.811C153 231.915 152.105 232.811 151 232.811V234.811C153.209 234.811 155 233.02 155 230.811H153ZM151 220.811C152.105 220.811 153 221.706 153 222.811H155C155 220.601 153.209 218.811 151 218.811V220.811ZM135 218.811C132.791 218.811 131 220.601 131 222.811H133C133 221.706 133.895 220.811 135 220.811V218.811Z" fill="white"/>
<path d="M172.297 225.262C172.297 225.558 172.251 225.843 172.16 226.116C172.072 226.39 171.926 226.632 171.721 226.844C171.516 227.052 171.244 227.22 170.905 227.347C170.57 227.47 170.155 227.532 169.66 227.532H168.928V230.311H168.02V223.172H169.787C170.223 223.172 170.599 223.219 170.915 223.313C171.231 223.405 171.491 223.54 171.696 223.719C171.901 223.895 172.053 224.113 172.15 224.373C172.248 224.633 172.297 224.93 172.297 225.262ZM168.928 226.761H169.558C169.86 226.761 170.124 226.735 170.349 226.683C170.576 226.631 170.764 226.548 170.91 226.434C171.06 226.316 171.172 226.167 171.247 225.984C171.322 225.799 171.359 225.574 171.359 225.311C171.359 224.848 171.226 224.507 170.959 224.285C170.692 224.061 170.275 223.948 169.709 223.948H168.928V226.761ZM176.628 226.541H178.991V230.042C178.812 230.101 178.632 230.153 178.449 230.198C178.267 230.244 178.08 230.281 177.888 230.311C177.696 230.343 177.494 230.368 177.282 230.384C177.071 230.4 176.843 230.408 176.599 230.408C176.088 230.408 175.635 230.324 175.241 230.154C174.847 229.982 174.515 229.738 174.245 229.422C173.975 229.103 173.77 228.717 173.63 228.265C173.49 227.809 173.42 227.298 173.42 226.731C173.42 226.172 173.496 225.665 173.649 225.213C173.806 224.76 174.032 224.376 174.328 224.061C174.624 223.742 174.989 223.497 175.422 223.328C175.858 223.156 176.354 223.069 176.911 223.069C177.272 223.069 177.619 223.105 177.951 223.177C178.283 223.248 178.592 223.353 178.879 223.489L178.527 224.28C178.41 224.225 178.283 224.173 178.146 224.124C178.013 224.075 177.875 224.033 177.731 223.997C177.588 223.958 177.44 223.927 177.287 223.904C177.137 223.882 176.988 223.87 176.838 223.87C176.441 223.87 176.089 223.937 175.783 224.07C175.477 224.201 175.22 224.389 175.012 224.637C174.807 224.884 174.65 225.185 174.543 225.54C174.436 225.895 174.382 226.295 174.382 226.741C174.382 227.164 174.426 227.552 174.514 227.903C174.605 228.255 174.748 228.558 174.943 228.812C175.139 229.065 175.391 229.262 175.7 229.402C176.009 229.542 176.382 229.612 176.818 229.612C176.962 229.612 177.092 229.609 177.209 229.603C177.329 229.593 177.44 229.581 177.541 229.568C177.642 229.555 177.736 229.541 177.824 229.524C177.915 229.505 178.003 229.487 178.088 229.471V227.342H176.628V226.541ZM180.114 228.04V227.22H182.536V228.04H180.114ZM186.408 230.311H185.549V225.853C185.549 225.713 185.549 225.563 185.549 225.403C185.552 225.244 185.555 225.086 185.559 224.93C185.565 224.77 185.57 224.619 185.573 224.476C185.58 224.329 185.585 224.201 185.588 224.09C185.533 224.148 185.484 224.199 185.441 224.241C185.399 224.284 185.355 224.324 185.31 224.363C185.267 224.402 185.222 224.445 185.173 224.49C185.124 224.533 185.065 224.583 184.997 224.642L184.274 225.232L183.806 224.632L185.676 223.172H186.408V230.311ZM193.137 224.842C193.137 225.079 193.099 225.296 193.024 225.491C192.95 225.687 192.844 225.856 192.707 225.999C192.574 226.142 192.412 226.261 192.224 226.355C192.035 226.447 191.825 226.512 191.594 226.551V226.58C192.17 226.652 192.608 226.836 192.907 227.132C193.207 227.425 193.356 227.807 193.356 228.279C193.356 228.592 193.303 228.878 193.195 229.139C193.091 229.399 192.932 229.624 192.717 229.812C192.502 230.001 192.23 230.148 191.901 230.252C191.573 230.356 191.184 230.408 190.734 230.408C190.38 230.408 190.044 230.381 189.729 230.325C189.416 230.27 189.121 230.169 188.845 230.022V229.192C189.128 229.342 189.434 229.458 189.763 229.539C190.095 229.62 190.412 229.661 190.715 229.661C191.014 229.661 191.273 229.629 191.491 229.563C191.709 229.498 191.888 229.406 192.028 229.285C192.172 229.165 192.276 229.017 192.341 228.841C192.409 228.665 192.443 228.468 192.443 228.25C192.443 228.029 192.399 227.84 192.312 227.684C192.227 227.524 192.105 227.394 191.945 227.293C191.786 227.189 191.59 227.112 191.359 227.063C191.132 227.015 190.873 226.99 190.583 226.99H189.934V226.253H190.583C190.847 226.253 191.081 226.22 191.286 226.155C191.491 226.09 191.662 225.997 191.799 225.877C191.939 225.757 192.045 225.613 192.116 225.447C192.188 225.281 192.224 225.099 192.224 224.9C192.224 224.731 192.194 224.58 192.136 224.446C192.077 224.313 191.994 224.201 191.887 224.109C191.779 224.015 191.651 223.943 191.501 223.895C191.351 223.846 191.185 223.821 191.003 223.821C190.655 223.821 190.347 223.877 190.08 223.987C189.816 224.095 189.564 224.236 189.323 224.412L188.874 223.802C188.998 223.701 189.134 223.606 189.284 223.519C189.437 223.431 189.603 223.354 189.782 223.289C189.961 223.221 190.152 223.167 190.354 223.128C190.559 223.089 190.775 223.069 191.003 223.069C191.354 223.069 191.662 223.113 191.926 223.201C192.193 223.289 192.416 223.413 192.595 223.572C192.774 223.729 192.909 223.916 193 224.134C193.091 224.349 193.137 224.585 193.137 224.842Z" fill="white"/>
<path d="M165 220.811H196V218.811H165V220.811ZM198 222.811V230.811H200V222.811H198ZM196 232.811H165V234.811H196V232.811ZM163 230.811V222.811H161V230.811H163ZM165 232.811C163.895 232.811 163 231.915 163 230.811H161C161 233.02 162.791 234.811 165 234.811V232.811ZM198 230.811C198 231.915 197.105 232.811 196 232.811V234.811C198.209 234.811 200 233.02 200 230.811H198ZM196 220.811C197.105 220.811 198 221.706 198 222.811H200C200 220.601 198.209 218.811 196 218.811V220.811ZM165 218.811C162.791 218.811 161 220.601 161 222.811H163C163 221.706 163.895 220.811 165 220.811V218.811Z" fill="white"/>
<circle cx="20.5" cy="250.811" r="1.5" fill="#E1E1E1" fill-opacity="0.5"/>
<path d="M33.2119 255.811L32.1182 252.714H28.3926L27.2852 255.811H26L29.6709 245.775H30.833L34.5107 255.811H33.2119ZM31.7148 251.586L30.7031 248.688C30.6758 248.605 30.6416 248.505 30.6006 248.387C30.5641 248.268 30.5254 248.141 30.4844 248.004C30.4434 247.867 30.4023 247.726 30.3613 247.58C30.3203 247.43 30.2816 247.284 30.2451 247.143C30.2132 247.284 30.1768 247.43 30.1357 247.58C30.0947 247.73 30.0537 247.876 30.0127 248.018C29.9717 248.154 29.9307 248.282 29.8896 248.4C29.8532 248.514 29.8213 248.61 29.7939 248.688L28.8027 251.586H31.7148ZM38.5781 255.947C38.1178 255.947 37.6872 255.877 37.2861 255.735C36.8851 255.59 36.5365 255.362 36.2402 255.052C35.944 254.737 35.7116 254.339 35.543 253.855C35.3743 253.368 35.29 252.782 35.29 252.099C35.29 251.383 35.3766 250.777 35.5498 250.28C35.723 249.779 35.96 249.373 36.2607 249.063C36.5661 248.749 36.9215 248.521 37.3271 248.38C37.7327 248.239 38.168 248.168 38.6328 248.168C38.9883 248.168 39.3346 248.207 39.6719 248.284C40.0137 248.362 40.2985 248.457 40.5264 248.571L40.1572 249.624C40.0524 249.578 39.9362 249.535 39.8086 249.494C39.681 249.449 39.5488 249.41 39.4121 249.378C39.2754 249.341 39.141 249.314 39.0088 249.296C38.8766 249.273 38.7513 249.262 38.6328 249.262C37.9173 249.262 37.3955 249.492 37.0674 249.952C36.7393 250.408 36.5752 251.119 36.5752 252.085C36.5752 253.047 36.7393 253.751 37.0674 254.197C37.4001 254.639 37.9036 254.86 38.5781 254.86C38.9473 254.86 39.2799 254.819 39.5762 254.737C39.877 254.651 40.1504 254.55 40.3965 254.437V255.544C40.1504 255.676 39.8861 255.776 39.6035 255.845C39.3255 255.913 38.9837 255.947 38.5781 255.947ZM44.457 254.929C44.5391 254.929 44.6302 254.924 44.7305 254.915C44.8353 254.906 44.9355 254.895 45.0312 254.881C45.127 254.867 45.2135 254.851 45.291 254.833C45.373 254.815 45.4346 254.799 45.4756 254.785V255.729C45.4163 255.756 45.3411 255.783 45.25 255.811C45.1589 255.838 45.0586 255.861 44.9492 255.879C44.8398 255.902 44.7259 255.918 44.6074 255.927C44.4889 255.94 44.3727 255.947 44.2588 255.947C43.9762 255.947 43.7142 255.911 43.4727 255.838C43.2311 255.765 43.0215 255.64 42.8438 255.462C42.6706 255.284 42.5339 255.045 42.4336 254.744C42.3333 254.439 42.2832 254.056 42.2832 253.596V249.241H41.2236V248.688L42.2832 248.154L42.8164 246.582H43.5342V248.305H45.4209V249.241H43.5342V253.596C43.5342 254.038 43.6048 254.37 43.7461 254.594C43.8919 254.817 44.1289 254.929 44.457 254.929ZM48.1758 255.811H46.9316V248.305H48.1758V255.811ZM46.8359 246.274C46.8359 246.001 46.9043 245.803 47.041 245.68C47.1823 245.557 47.3555 245.495 47.5605 245.495C47.6608 245.495 47.7542 245.511 47.8408 245.543C47.932 245.57 48.0094 245.616 48.0732 245.68C48.1416 245.743 48.194 245.826 48.2305 245.926C48.2715 246.021 48.292 246.138 48.292 246.274C48.292 246.539 48.2191 246.737 48.0732 246.869C47.932 246.997 47.7611 247.061 47.5605 247.061C47.3555 247.061 47.1823 246.997 47.041 246.869C46.9043 246.742 46.8359 246.543 46.8359 246.274ZM56.6729 252.044C56.6729 252.668 56.5954 253.224 56.4404 253.712C56.29 254.195 56.0713 254.603 55.7842 254.936C55.5016 255.264 55.1576 255.514 54.752 255.688C54.3464 255.861 53.8906 255.947 53.3848 255.947C52.9154 255.947 52.4824 255.861 52.0859 255.688C51.6895 255.514 51.3454 255.264 51.0537 254.936C50.7666 254.603 50.541 254.195 50.377 253.712C50.2174 253.224 50.1377 252.668 50.1377 252.044C50.1377 251.424 50.2129 250.875 50.3633 250.396C50.5182 249.913 50.737 249.508 51.0195 249.18C51.3021 248.847 51.6462 248.596 52.0518 248.428C52.4619 248.255 52.9199 248.168 53.4258 248.168C53.8952 248.168 54.3281 248.255 54.7246 248.428C55.1211 248.596 55.4629 248.847 55.75 249.18C56.0417 249.508 56.2673 249.913 56.4268 250.396C56.5908 250.875 56.6729 251.424 56.6729 252.044ZM51.4229 252.044C51.4229 252.996 51.5778 253.714 51.8877 254.197C52.2021 254.676 52.7103 254.915 53.4121 254.915C54.1139 254.915 54.6175 254.676 54.9229 254.197C55.2327 253.714 55.3877 252.996 55.3877 252.044C55.3877 251.091 55.2305 250.381 54.916 249.911C54.6061 249.437 54.1003 249.2 53.3984 249.2C52.6966 249.2 52.1908 249.437 51.8809 249.911C51.5755 250.381 51.4229 251.091 51.4229 252.044ZM63.3242 255.811V250.978C63.3242 250.385 63.2035 249.941 62.9619 249.645C62.7249 249.348 62.3512 249.2 61.8408 249.2C61.4717 249.2 61.1618 249.259 60.9111 249.378C60.6605 249.496 60.4577 249.672 60.3027 249.904C60.1523 250.137 60.043 250.422 59.9746 250.759C59.9108 251.096 59.8789 251.483 59.8789 251.921V255.811H58.6348V248.305H59.6465L59.8242 249.316H59.8926C60.0065 249.12 60.141 248.952 60.2959 248.811C60.4554 248.665 60.6286 248.544 60.8154 248.448C61.0023 248.353 61.2005 248.282 61.4102 248.236C61.6198 248.191 61.834 248.168 62.0527 248.168C62.8867 248.168 63.5133 248.387 63.9326 248.824C64.3564 249.257 64.5684 249.952 64.5684 250.909V255.811H63.3242Z" fill="white"/>
<circle cx="77.5" cy="250.811" r="1.5" fill="#E1E1E1" fill-opacity="0.5"/>
<path d="M91.7227 250.718C91.7227 251.561 91.6133 252.301 91.3945 252.939C91.1758 253.573 90.859 254.104 90.4443 254.532C90.0296 254.956 89.5192 255.275 88.9131 255.489C88.3115 255.703 87.6279 255.811 86.8623 255.811H84.3604V245.816H87.1426C87.8398 245.816 88.471 245.921 89.0361 246.131C89.6012 246.34 90.082 246.653 90.4785 247.067C90.875 247.478 91.1803 247.988 91.3945 248.599C91.6133 249.209 91.7227 249.916 91.7227 250.718ZM90.376 250.759C90.376 250.093 90.3008 249.519 90.1504 249.036C90 248.549 89.7812 248.147 89.4941 247.833C89.207 247.519 88.8538 247.286 88.4346 247.136C88.0153 246.981 87.5391 246.903 87.0059 246.903H85.6318V254.717H86.7393C87.9424 254.717 88.8493 254.384 89.46 253.719C90.0706 253.053 90.376 252.067 90.376 250.759ZM97.0205 248.168C97.1527 248.168 97.3008 248.175 97.4648 248.188C97.6289 248.198 97.7702 248.214 97.8887 248.236L97.7246 249.385C97.597 249.362 97.4648 249.344 97.3281 249.33C97.196 249.312 97.0706 249.303 96.9521 249.303C96.665 249.303 96.403 249.362 96.166 249.48C95.929 249.594 95.724 249.761 95.5508 249.979C95.3822 250.194 95.25 250.453 95.1543 250.759C95.0632 251.06 95.0176 251.395 95.0176 251.764V255.811H93.7734V248.305H94.7852L94.9355 249.679H94.9902C95.1042 249.483 95.2249 249.294 95.3525 249.111C95.4847 248.929 95.6305 248.77 95.79 248.633C95.9541 248.492 96.1364 248.38 96.3369 248.298C96.5374 248.211 96.7653 248.168 97.0205 248.168ZM103.46 255.811L103.207 254.771H103.152C103.002 254.977 102.852 255.154 102.701 255.305C102.551 255.451 102.387 255.571 102.209 255.667C102.031 255.763 101.833 255.833 101.614 255.879C101.396 255.924 101.143 255.947 100.855 255.947C100.541 255.947 100.252 255.902 99.9873 255.811C99.723 255.724 99.4928 255.59 99.2969 255.407C99.1055 255.22 98.9551 254.988 98.8457 254.71C98.7363 254.427 98.6816 254.095 98.6816 253.712C98.6816 252.965 98.9437 252.39 99.4678 251.989C99.9964 251.588 100.799 251.369 101.874 251.333L103.132 251.285V250.813C103.132 250.508 103.098 250.253 103.029 250.048C102.965 249.843 102.87 249.679 102.742 249.556C102.619 249.428 102.464 249.337 102.277 249.282C102.095 249.228 101.885 249.2 101.648 249.2C101.27 249.2 100.917 249.255 100.589 249.364C100.265 249.474 99.9531 249.606 99.6523 249.761L99.2148 248.824C99.5521 248.642 99.9281 248.487 100.343 248.359C100.757 248.232 101.193 248.168 101.648 248.168C102.113 248.168 102.514 248.216 102.852 248.312C103.193 248.403 103.474 248.551 103.692 248.756C103.916 248.956 104.082 249.214 104.191 249.528C104.301 249.843 104.355 250.223 104.355 250.67V255.811H103.46ZM101.177 254.942C101.455 254.942 101.712 254.899 101.949 254.812C102.186 254.726 102.391 254.596 102.564 254.423C102.738 254.245 102.872 254.024 102.968 253.76C103.068 253.491 103.118 253.176 103.118 252.816V252.14L102.141 252.188C101.73 252.206 101.386 252.251 101.108 252.324C100.83 252.397 100.607 252.5 100.438 252.632C100.274 252.759 100.156 252.917 100.083 253.104C100.01 253.286 99.9736 253.493 99.9736 253.726C99.9736 254.145 100.083 254.452 100.302 254.648C100.525 254.844 100.817 254.942 101.177 254.942ZM115.655 255.811V250.978C115.655 250.385 115.541 249.941 115.313 249.645C115.086 249.348 114.732 249.2 114.254 249.2C113.921 249.2 113.639 249.255 113.406 249.364C113.174 249.469 112.982 249.626 112.832 249.836C112.686 250.041 112.579 250.299 112.511 250.608C112.442 250.914 112.408 251.267 112.408 251.668V255.811H111.157V250.978C111.157 250.385 111.043 249.941 110.815 249.645C110.592 249.348 110.241 249.2 109.763 249.2C109.412 249.2 109.118 249.259 108.881 249.378C108.644 249.496 108.452 249.672 108.307 249.904C108.165 250.137 108.063 250.422 107.999 250.759C107.94 251.096 107.91 251.483 107.91 251.921V255.811H106.666V248.305H107.678L107.855 249.316H107.924C108.033 249.12 108.163 248.952 108.313 248.811C108.464 248.665 108.628 248.544 108.806 248.448C108.988 248.353 109.179 248.282 109.38 248.236C109.585 248.191 109.792 248.168 110.002 248.168C110.549 248.168 111.002 248.268 111.362 248.469C111.727 248.669 111.996 248.984 112.169 249.412H112.224C112.342 249.198 112.483 249.013 112.647 248.858C112.816 248.703 112.998 248.576 113.194 248.476C113.395 248.371 113.604 248.293 113.823 248.243C114.042 248.193 114.265 248.168 114.493 248.168C115.291 248.168 115.89 248.387 116.291 248.824C116.697 249.257 116.899 249.952 116.899 250.909V255.811H115.655ZM123.448 255.811L123.195 254.771H123.141C122.99 254.977 122.84 255.154 122.689 255.305C122.539 255.451 122.375 255.571 122.197 255.667C122.02 255.763 121.821 255.833 121.603 255.879C121.384 255.924 121.131 255.947 120.844 255.947C120.529 255.947 120.24 255.902 119.976 255.811C119.711 255.724 119.481 255.59 119.285 255.407C119.094 255.22 118.943 254.988 118.834 254.71C118.725 254.427 118.67 254.095 118.67 253.712C118.67 252.965 118.932 252.39 119.456 251.989C119.985 251.588 120.787 251.369 121.862 251.333L123.12 251.285V250.813C123.12 250.508 123.086 250.253 123.018 250.048C122.954 249.843 122.858 249.679 122.73 249.556C122.607 249.428 122.452 249.337 122.266 249.282C122.083 249.228 121.874 249.2 121.637 249.2C121.258 249.2 120.905 249.255 120.577 249.364C120.254 249.474 119.941 249.606 119.641 249.761L119.203 248.824C119.54 248.642 119.916 248.487 120.331 248.359C120.746 248.232 121.181 248.168 121.637 248.168C122.102 248.168 122.503 248.216 122.84 248.312C123.182 248.403 123.462 248.551 123.681 248.756C123.904 248.956 124.07 249.214 124.18 249.528C124.289 249.843 124.344 250.223 124.344 250.67V255.811H123.448ZM121.165 254.942C121.443 254.942 121.701 254.899 121.938 254.812C122.174 254.726 122.38 254.596 122.553 254.423C122.726 254.245 122.86 254.024 122.956 253.76C123.056 253.491 123.106 253.176 123.106 252.816V252.14L122.129 252.188C121.719 252.206 121.375 252.251 121.097 252.324C120.819 252.397 120.595 252.5 120.427 252.632C120.263 252.759 120.144 252.917 120.071 253.104C119.998 253.286 119.962 253.493 119.962 253.726C119.962 254.145 120.071 254.452 120.29 254.648C120.513 254.844 120.805 254.942 121.165 254.942Z" fill="white"/>
<g clip-path="url(#clip2)">
<circle cx="137.5" cy="250.811" r="1.5" fill="#E1E1E1" fill-opacity="0.5"/>
<path d="M149.624 253.138C149.624 253.58 149.544 253.976 149.385 254.327C149.23 254.674 149.007 254.967 148.715 255.209C148.423 255.451 148.068 255.635 147.648 255.763C147.229 255.886 146.757 255.947 146.233 255.947C145.728 255.947 145.254 255.906 144.812 255.824C144.374 255.747 144.007 255.631 143.711 255.476V254.259C143.866 254.332 144.041 254.405 144.237 254.478C144.438 254.546 144.647 254.607 144.866 254.662C145.085 254.717 145.311 254.762 145.543 254.799C145.775 254.831 146.006 254.847 146.233 254.847C146.963 254.847 147.5 254.71 147.847 254.437C148.198 254.163 148.373 253.771 148.373 253.261C148.373 253.015 148.339 252.8 148.271 252.618C148.207 252.436 148.09 252.27 147.922 252.119C147.758 251.964 147.537 251.816 147.259 251.675C146.981 251.529 146.63 251.372 146.206 251.203C145.8 251.044 145.447 250.87 145.146 250.684C144.85 250.492 144.604 250.278 144.408 250.041C144.217 249.804 144.073 249.535 143.978 249.234C143.886 248.934 143.841 248.592 143.841 248.209C143.841 247.808 143.914 247.45 144.06 247.136C144.205 246.821 144.41 246.557 144.675 246.343C144.939 246.124 145.254 245.958 145.618 245.844C145.987 245.73 146.393 245.673 146.835 245.673C147.377 245.673 147.865 245.725 148.298 245.83C148.731 245.93 149.116 246.06 149.453 246.22L148.995 247.286C148.699 247.154 148.362 247.04 147.983 246.944C147.61 246.844 147.222 246.794 146.821 246.794C146.265 246.794 145.835 246.924 145.529 247.184C145.224 247.439 145.071 247.785 145.071 248.223C145.071 248.482 145.105 248.708 145.174 248.899C145.242 249.086 145.356 249.257 145.516 249.412C145.675 249.562 145.885 249.706 146.145 249.843C146.409 249.975 146.732 250.116 147.115 250.267C147.53 250.431 147.892 250.599 148.202 250.772C148.517 250.946 148.779 251.142 148.988 251.36C149.198 251.579 149.355 251.832 149.46 252.119C149.569 252.406 149.624 252.746 149.624 253.138ZM156.323 255.811L156.139 254.806H156.07C155.956 255.002 155.82 255.173 155.66 255.318C155.505 255.46 155.334 255.578 155.147 255.674C154.961 255.765 154.762 255.833 154.553 255.879C154.343 255.924 154.129 255.947 153.91 255.947C153.495 255.947 153.131 255.895 152.816 255.79C152.502 255.685 152.24 255.521 152.03 255.298C151.821 255.075 151.661 254.79 151.552 254.443C151.447 254.097 151.395 253.685 151.395 253.206V248.305H152.639V253.138C152.639 253.73 152.759 254.174 153.001 254.471C153.243 254.767 153.616 254.915 154.122 254.915C154.491 254.915 154.801 254.856 155.052 254.737C155.302 254.619 155.503 254.446 155.653 254.218C155.808 253.985 155.918 253.701 155.981 253.363C156.05 253.026 156.084 252.639 156.084 252.201V248.305H157.328V255.811H156.323ZM164.198 253.753C164.198 254.118 164.132 254.437 164 254.71C163.868 254.983 163.676 255.214 163.426 255.4C163.18 255.583 162.881 255.719 162.53 255.811C162.179 255.902 161.785 255.947 161.348 255.947C160.851 255.947 160.425 255.906 160.069 255.824C159.714 255.747 159.402 255.631 159.133 255.476V254.341C159.274 254.414 159.431 254.487 159.604 254.56C159.778 254.628 159.96 254.689 160.151 254.744C160.343 254.799 160.539 254.844 160.739 254.881C160.944 254.913 161.147 254.929 161.348 254.929C161.644 254.929 161.895 254.904 162.1 254.854C162.309 254.803 162.478 254.733 162.605 254.642C162.738 254.546 162.833 254.432 162.893 254.3C162.952 254.163 162.981 254.013 162.981 253.849C162.981 253.707 162.959 253.58 162.913 253.466C162.868 253.352 162.783 253.24 162.66 253.131C162.542 253.017 162.378 252.903 162.168 252.789C161.958 252.675 161.689 252.548 161.361 252.406C161.033 252.265 160.737 252.126 160.473 251.989C160.213 251.853 159.992 251.7 159.81 251.531C159.627 251.363 159.486 251.169 159.386 250.95C159.29 250.727 159.242 250.463 159.242 250.157C159.242 249.838 159.304 249.556 159.427 249.31C159.554 249.059 159.732 248.849 159.96 248.681C160.188 248.512 160.461 248.384 160.78 248.298C161.099 248.211 161.455 248.168 161.847 248.168C162.289 248.168 162.692 248.216 163.057 248.312C163.426 248.407 163.774 248.533 164.103 248.688L163.672 249.692C163.376 249.56 163.07 249.446 162.756 249.351C162.446 249.25 162.129 249.2 161.806 249.2C161.341 249.2 160.997 249.278 160.773 249.433C160.55 249.583 160.438 249.799 160.438 250.082C160.438 250.242 160.464 250.381 160.514 250.499C160.568 250.618 160.66 250.729 160.787 250.834C160.915 250.939 161.086 251.046 161.3 251.155C161.514 251.26 161.781 251.379 162.1 251.511C162.428 251.647 162.719 251.784 162.975 251.921C163.234 252.058 163.455 252.213 163.638 252.386C163.82 252.554 163.959 252.748 164.055 252.967C164.15 253.186 164.198 253.448 164.198 253.753ZM169.414 255.947C169.145 255.947 168.901 255.918 168.683 255.858C168.464 255.799 168.266 255.722 168.088 255.626C167.915 255.526 167.76 255.41 167.623 255.277C167.491 255.145 167.372 255.006 167.268 254.86H167.186C167.199 255.015 167.213 255.163 167.227 255.305C167.236 255.423 167.245 255.546 167.254 255.674C167.263 255.797 167.268 255.895 167.268 255.968V259.174H166.023V248.305H167.035L167.213 249.316H167.268C167.372 249.157 167.491 249.009 167.623 248.872C167.755 248.731 167.908 248.61 168.081 248.51C168.259 248.405 168.457 248.323 168.676 248.264C168.895 248.2 169.141 248.168 169.414 248.168C169.842 248.168 170.232 248.25 170.583 248.414C170.934 248.578 171.232 248.824 171.479 249.152C171.729 249.476 171.923 249.879 172.06 250.362C172.196 250.845 172.265 251.406 172.265 252.044C172.265 252.687 172.196 253.252 172.06 253.739C171.923 254.222 171.729 254.628 171.479 254.956C171.232 255.284 170.934 255.533 170.583 255.701C170.232 255.865 169.842 255.947 169.414 255.947ZM169.175 249.2C168.828 249.2 168.535 249.253 168.293 249.357C168.056 249.462 167.862 249.622 167.712 249.836C167.566 250.05 167.457 250.317 167.384 250.636C167.315 250.955 167.277 251.331 167.268 251.764V252.044C167.268 252.504 167.297 252.914 167.356 253.274C167.42 253.63 167.525 253.931 167.671 254.177C167.821 254.418 168.02 254.603 168.266 254.73C168.512 254.854 168.819 254.915 169.188 254.915C169.804 254.915 170.255 254.667 170.542 254.17C170.834 253.673 170.979 252.96 170.979 252.03C170.979 251.082 170.834 250.374 170.542 249.904C170.255 249.435 169.799 249.2 169.175 249.2ZM177.193 255.947C176.692 255.947 176.234 255.863 175.819 255.694C175.405 255.526 175.047 255.28 174.746 254.956C174.45 254.632 174.22 254.231 174.056 253.753C173.892 253.274 173.81 252.728 173.81 252.112C173.81 251.493 173.885 250.939 174.035 250.451C174.186 249.964 174.397 249.551 174.671 249.214C174.944 248.872 175.27 248.612 175.648 248.435C176.031 248.257 176.453 248.168 176.913 248.168C177.364 248.168 177.77 248.25 178.13 248.414C178.49 248.574 178.795 248.801 179.046 249.098C179.297 249.389 179.488 249.743 179.62 250.157C179.757 250.567 179.825 251.023 179.825 251.524V252.297H175.095C175.118 253.176 175.302 253.824 175.648 254.238C175.999 254.653 176.519 254.86 177.207 254.86C177.439 254.86 177.654 254.849 177.85 254.826C178.05 254.803 178.242 254.771 178.424 254.73C178.611 254.685 178.791 254.63 178.964 254.566C179.137 254.498 179.312 254.423 179.49 254.341V255.448C179.308 255.535 179.128 255.61 178.95 255.674C178.777 255.738 178.597 255.79 178.41 255.831C178.228 255.872 178.036 255.902 177.836 255.92C177.64 255.938 177.426 255.947 177.193 255.947ZM176.886 249.2C176.366 249.2 175.954 249.378 175.648 249.733C175.348 250.089 175.172 250.606 175.122 251.285H178.485C178.485 250.975 178.453 250.693 178.39 250.438C178.33 250.178 178.235 249.957 178.103 249.774C177.975 249.592 177.811 249.451 177.61 249.351C177.41 249.25 177.168 249.2 176.886 249.2ZM186.408 255.811V250.978C186.408 250.385 186.287 249.941 186.046 249.645C185.809 249.348 185.435 249.2 184.925 249.2C184.556 249.2 184.246 249.259 183.995 249.378C183.744 249.496 183.542 249.672 183.387 249.904C183.236 250.137 183.127 250.422 183.059 250.759C182.995 251.096 182.963 251.483 182.963 251.921V255.811H181.719V248.305H182.73L182.908 249.316H182.977C183.09 249.12 183.225 248.952 183.38 248.811C183.539 248.665 183.713 248.544 183.899 248.448C184.086 248.353 184.285 248.282 184.494 248.236C184.704 248.191 184.918 248.168 185.137 248.168C185.971 248.168 186.597 248.387 187.017 248.824C187.44 249.257 187.652 249.952 187.652 250.909V255.811H186.408ZM194.454 253.753C194.454 254.118 194.388 254.437 194.256 254.71C194.124 254.983 193.932 255.214 193.682 255.4C193.436 255.583 193.137 255.719 192.786 255.811C192.435 255.902 192.041 255.947 191.604 255.947C191.107 255.947 190.681 255.906 190.325 255.824C189.97 255.747 189.658 255.631 189.389 255.476V254.341C189.53 254.414 189.687 254.487 189.86 254.56C190.034 254.628 190.216 254.689 190.407 254.744C190.599 254.799 190.795 254.844 190.995 254.881C191.2 254.913 191.403 254.929 191.604 254.929C191.9 254.929 192.15 254.904 192.355 254.854C192.565 254.803 192.734 254.733 192.861 254.642C192.993 254.546 193.089 254.432 193.148 254.3C193.208 254.163 193.237 254.013 193.237 253.849C193.237 253.707 193.215 253.58 193.169 253.466C193.123 253.352 193.039 253.24 192.916 253.131C192.798 253.017 192.633 252.903 192.424 252.789C192.214 252.675 191.945 252.548 191.617 252.406C191.289 252.265 190.993 252.126 190.729 251.989C190.469 251.853 190.248 251.7 190.065 251.531C189.883 251.363 189.742 251.169 189.642 250.95C189.546 250.727 189.498 250.463 189.498 250.157C189.498 249.838 189.56 249.556 189.683 249.31C189.81 249.059 189.988 248.849 190.216 248.681C190.444 248.512 190.717 248.384 191.036 248.298C191.355 248.211 191.711 248.168 192.103 248.168C192.545 248.168 192.948 248.216 193.312 248.312C193.682 248.407 194.03 248.533 194.358 248.688L193.928 249.692C193.632 249.56 193.326 249.446 193.012 249.351C192.702 249.25 192.385 249.2 192.062 249.2C191.597 249.2 191.253 249.278 191.029 249.433C190.806 249.583 190.694 249.799 190.694 250.082C190.694 250.242 190.719 250.381 190.77 250.499C190.824 250.618 190.915 250.729 191.043 250.834C191.171 250.939 191.341 251.046 191.556 251.155C191.77 251.26 192.036 251.379 192.355 251.511C192.684 251.647 192.975 251.784 193.23 251.921C193.49 252.058 193.711 252.213 193.894 252.386C194.076 252.554 194.215 252.748 194.311 252.967C194.406 253.186 194.454 253.448 194.454 253.753ZM199.246 255.947C198.745 255.947 198.287 255.863 197.872 255.694C197.457 255.526 197.1 255.28 196.799 254.956C196.503 254.632 196.272 254.231 196.108 253.753C195.944 253.274 195.862 252.728 195.862 252.112C195.862 251.493 195.938 250.939 196.088 250.451C196.238 249.964 196.45 249.551 196.724 249.214C196.997 248.872 197.323 248.612 197.701 248.435C198.084 248.257 198.506 248.168 198.966 248.168C199.417 248.168 199.823 248.25 200.183 248.414C200.543 248.574 200.848 248.801 201.099 249.098C201.349 249.389 201.541 249.743 201.673 250.157C201.81 250.567 201.878 251.023 201.878 251.524V252.297H197.147C197.17 253.176 197.355 253.824 197.701 254.238C198.052 254.653 198.572 254.86 199.26 254.86C199.492 254.86 199.706 254.849 199.902 254.826C200.103 254.803 200.294 254.771 200.477 254.73C200.663 254.685 200.843 254.63 201.017 254.566C201.19 254.498 201.365 254.423 201.543 254.341V255.448C201.361 255.535 201.181 255.61 201.003 255.674C200.83 255.738 200.65 255.79 200.463 255.831C200.281 255.872 200.089 255.902 199.889 255.92C199.693 255.938 199.479 255.947 199.246 255.947ZM198.938 249.2C198.419 249.2 198.007 249.378 197.701 249.733C197.4 250.089 197.225 250.606 197.175 251.285H200.538C200.538 250.975 200.506 250.693 200.442 250.438C200.383 250.178 200.287 249.957 200.155 249.774C200.028 249.592 199.864 249.451 199.663 249.351C199.463 249.25 199.221 249.2 198.938 249.2Z" fill="white"/>
</g>
<path d="M343.4 239.75C347.937 239.75 351.65 243.463 351.65 248C351.65 252.538 347.937 256.25 343.4 256.25C338.862 256.25 335.15 252.538 335.15 248C335.15 243.463 338.862 239.75 343.4 239.75ZM343.4 238.375C338.106 238.375 333.775 242.706 333.775 248C333.775 253.294 338.106 257.625 343.4 257.625C348.694 257.625 353.025 253.294 353.025 248C353.025 242.706 348.694 238.375 343.4 238.375Z" fill="white"/>
<path d="M348.9 247.312H344.087V242.5H342.712V247.312H337.9V248.688H342.712V253.5H344.087V248.688H348.9V247.312Z" fill="white"/>
<path d="M375.667 244.276C375.005 243.608 374.316 243.026 373.598 242.532C372.881 242.037 372.209 241.666 371.582 241.419C370.955 241.172 370.381 241.053 369.859 241.063C369.336 241.073 368.929 241.228 368.636 241.529C368.567 241.596 368.508 241.671 368.459 241.755C368.41 241.838 368.375 241.903 368.354 241.95C368.333 241.997 368.306 242.081 368.271 242.201C368.236 242.321 368.212 242.398 368.198 242.432L364.312 254.703L364.552 254.944C364.28 255.124 364.038 255.335 363.826 255.576C363.613 255.816 363.427 256.013 363.267 256.167C363.107 256.321 362.915 256.428 362.692 256.488C362.644 256.501 362.583 256.547 362.51 256.623C362.436 256.7 362.4 256.769 362.4 256.829C362.4 256.949 362.463 257.049 362.588 257.13C362.713 257.21 362.853 257.25 363.006 257.25C363.201 257.25 363.389 257.175 363.57 257.024C363.751 256.874 363.934 256.682 364.118 256.448C364.303 256.214 364.437 256.06 364.521 255.987C364.702 255.833 364.904 255.686 365.126 255.546L365.398 255.796L377.746 251.776C378.017 251.696 378.226 251.575 378.372 251.415C378.665 251.114 378.816 250.698 378.827 250.167C378.837 249.635 378.721 249.05 378.477 248.412C378.233 247.774 377.869 247.092 377.385 246.367C376.901 245.642 376.328 244.945 375.667 244.276ZM374.539 245.369C375.604 246.412 376.414 247.409 376.967 248.362C377.521 249.314 377.655 249.941 377.37 250.242C377.084 250.543 376.461 250.432 375.5 249.911C374.539 249.39 373.529 248.611 372.47 247.575C371.398 246.532 370.585 245.536 370.031 244.587C369.477 243.638 369.343 243.01 369.629 242.702C369.914 242.401 370.539 242.512 371.504 243.033C372.468 243.554 373.48 244.333 374.539 245.369ZM372.251 249.52C372.759 249.954 373.264 250.335 373.766 250.663C373.772 250.676 373.947 250.99 374.288 251.605L373.41 251.896C372.992 251.141 372.606 250.349 372.251 249.52ZM368.689 244.928C368.842 245.256 369.054 245.653 369.326 246.121C369.549 247.084 369.899 248.126 370.376 249.249C370.853 250.372 371.373 251.425 371.937 252.407L371.07 252.688C370.416 251.525 369.845 250.307 369.357 249.034C368.87 247.76 368.57 246.636 368.459 245.66L368.689 244.928ZM367.477 248.598C367.964 250.095 368.65 251.632 369.535 253.21L368.678 253.5C367.989 252.23 367.445 251.037 367.049 249.921L367.477 248.598ZM366.275 252.257C366.547 252.872 366.836 253.457 367.143 254.012L366.286 254.302C366.188 254.122 366.049 253.844 365.868 253.47L366.275 252.257ZM373.954 238L374.476 239.514L373.128 240.456H374.789L375.301 241.97L375.813 240.456H377.464L376.126 239.514L376.649 238.01L375.301 238.942L373.954 238ZM371.029 238L370.747 239.374L372.178 239.644L372.46 238.271L371.029 238ZM380.441 242.131L381.59 240.978L383.084 241.68L382.311 240.276L383.47 239.143L381.83 239.414L381.057 238L380.827 239.584L379.187 239.855L380.681 240.547L380.441 242.131ZM380.054 244.597L381.444 245.479L381.005 247.023L382.3 246.021L383.679 246.903L383.105 245.399L384.4 244.417L382.739 244.487L382.154 242.993L381.726 244.527L380.054 244.597ZM379.459 240.877L376.346 243.324L376.732 243.775L379.845 241.329L379.459 240.877ZM380.545 245.61L378.111 245.399L378.049 245.981L380.493 246.191L380.545 245.61ZM380.785 248.417L380.336 249.761L381.726 250.192L382.185 248.858L380.785 248.417Z" fill="white"/>
<path d="M403.15 243.833C403.656 243.833 404.067 243.423 404.067 242.917C404.067 242.41 403.656 242 403.15 242C402.644 242 402.233 242.41 402.233 242.917C402.233 243.423 402.644 243.833 403.15 243.833Z" fill="white"/>
<path d="M405.747 251.41H404.219V245.055H401.928C401.725 245.055 401.531 245.138 401.388 245.287C401.244 245.436 401.164 245.638 401.164 245.849C401.164 246.06 401.244 246.262 401.388 246.411C401.531 246.56 401.725 246.644 401.928 246.644H402.692V251.41H401.164C400.961 251.41 400.767 251.494 400.624 251.643C400.48 251.792 400.4 251.994 400.4 252.205C400.4 252.415 400.48 252.617 400.624 252.766C400.767 252.915 400.961 252.999 401.164 252.999H405.747C405.95 252.999 406.144 252.915 406.287 252.766C406.431 252.617 406.511 252.415 406.511 252.205C406.511 251.994 406.431 251.792 406.287 251.643C406.144 251.494 405.95 251.41 405.747 251.41Z" fill="white"/>
<path d="M403.025 238C401.121 238 399.26 238.564 397.678 239.622C396.095 240.68 394.861 242.183 394.133 243.942C393.404 245.7 393.213 247.636 393.585 249.503C393.956 251.37 394.873 253.085 396.219 254.431C397.565 255.777 399.28 256.694 401.147 257.065C403.014 257.436 404.949 257.246 406.708 256.517C408.467 255.789 409.97 254.555 411.028 252.972C412.085 251.39 412.65 249.529 412.65 247.625C412.65 245.072 411.636 242.624 409.831 240.819C408.026 239.014 405.578 238 403.025 238ZM403.025 255.646C401.439 255.646 399.888 255.175 398.569 254.294C397.25 253.413 396.222 252.16 395.615 250.694C395.008 249.229 394.849 247.616 395.158 246.06C395.468 244.504 396.232 243.075 397.353 241.953C398.475 240.832 399.904 240.068 401.46 239.758C403.016 239.449 404.629 239.608 406.094 240.215C407.56 240.822 408.813 241.85 409.694 243.169C410.575 244.488 411.046 246.039 411.046 247.625C411.046 248.678 410.838 249.721 410.435 250.694C410.032 251.668 409.441 252.552 408.696 253.297C407.952 254.041 407.067 254.632 406.094 255.035C405.121 255.438 404.078 255.646 403.025 255.646Z" fill="white"/>
<path d="M438.213 250.75C437.698 250.753 437.191 250.871 436.728 251.096C436.265 251.321 435.858 251.647 435.538 252.05L430.513 248.908C430.696 248.317 430.696 247.684 430.513 247.093L435.538 243.951C436.048 244.582 436.766 245.013 437.563 245.167C438.36 245.32 439.186 245.186 439.894 244.789C440.602 244.392 441.147 243.757 441.432 242.997C441.717 242.237 441.723 241.4 441.45 240.636C441.177 239.871 440.643 239.228 439.941 238.819C439.239 238.411 438.415 238.265 437.616 238.406C436.816 238.547 436.092 238.966 435.572 239.59C435.053 240.213 434.77 241.001 434.775 241.813C434.778 242.12 434.825 242.426 434.913 242.72L429.887 245.862C429.443 245.303 428.837 244.897 428.152 244.698C427.467 244.5 426.737 244.52 426.063 244.754C425.39 244.989 424.806 245.428 424.393 246.01C423.98 246.591 423.758 247.287 423.758 248C423.758 248.713 423.98 249.409 424.393 249.991C424.806 250.572 425.39 251.011 426.063 251.246C426.737 251.481 427.467 251.5 428.152 251.302C428.837 251.103 429.443 250.697 429.887 250.138L434.913 253.28C434.825 253.575 434.778 253.88 434.775 254.188C434.775 254.868 434.977 255.532 435.355 256.097C435.732 256.663 436.269 257.103 436.897 257.363C437.525 257.624 438.217 257.692 438.883 257.559C439.55 257.426 440.163 257.099 440.643 256.618C441.124 256.138 441.452 255.525 441.584 254.858C441.717 254.191 441.649 253.5 441.389 252.872C441.128 252.244 440.688 251.707 440.123 251.329C439.557 250.952 438.893 250.75 438.213 250.75ZM438.213 239.75C438.621 239.75 439.019 239.871 439.359 240.098C439.698 240.324 439.962 240.646 440.118 241.023C440.274 241.4 440.315 241.815 440.236 242.215C440.156 242.615 439.96 242.983 439.671 243.271C439.383 243.559 439.015 243.756 438.615 243.836C438.215 243.915 437.8 243.874 437.423 243.718C437.047 243.562 436.724 243.298 436.498 242.959C436.271 242.619 436.15 242.221 436.15 241.813C436.15 241.266 436.368 240.741 436.754 240.354C437.141 239.967 437.666 239.75 438.213 239.75ZM427.213 250.063C426.805 250.063 426.406 249.942 426.067 249.715C425.728 249.488 425.463 249.166 425.307 248.789C425.151 248.413 425.11 247.998 425.19 247.598C425.269 247.198 425.466 246.83 425.754 246.542C426.043 246.253 426.41 246.057 426.81 245.977C427.21 245.898 427.625 245.939 428.002 246.095C428.379 246.251 428.701 246.515 428.928 246.854C429.154 247.193 429.275 247.592 429.275 248C429.275 248.547 429.058 249.072 428.671 249.459C428.284 249.845 427.76 250.063 427.213 250.063ZM438.213 256.25C437.805 256.25 437.406 256.129 437.067 255.903C436.728 255.676 436.463 255.354 436.307 254.977C436.151 254.6 436.11 254.185 436.19 253.785C436.269 253.385 436.466 253.018 436.754 252.729C437.043 252.441 437.41 252.244 437.81 252.165C438.21 252.085 438.625 252.126 439.002 252.282C439.379 252.438 439.701 252.703 439.928 253.042C440.154 253.381 440.275 253.78 440.275 254.188C440.275 254.735 440.058 255.259 439.671 255.646C439.284 256.033 438.76 256.25 438.213 256.25Z" fill="white"/>
<path d="M469.816 238.834H458.147C457.503 238.834 456.88 239.06 456.386 239.472C455.892 239.884 455.558 240.456 455.442 241.089L454.278 247.506C454.206 247.902 454.221 248.31 454.324 248.699C454.426 249.089 454.613 249.452 454.871 249.761C455.129 250.071 455.452 250.32 455.816 250.491C456.181 250.662 456.579 250.751 456.982 250.751H461.162L460.649 252.061C460.436 252.635 460.364 253.253 460.442 253.86C460.519 254.468 460.743 255.047 461.093 255.549C461.444 256.051 461.911 256.461 462.455 256.743C462.999 257.024 463.603 257.17 464.215 257.167C464.391 257.167 464.564 257.116 464.712 257.02C464.86 256.924 464.977 256.787 465.049 256.626L467.662 250.751H469.816C470.545 250.751 471.245 250.461 471.76 249.945C472.276 249.429 472.566 248.73 472.566 248.001V241.584C472.566 240.855 472.276 240.155 471.76 239.639C471.245 239.124 470.545 238.834 469.816 238.834ZM466.149 249.641L463.656 255.251C463.401 255.174 463.164 255.046 462.96 254.874C462.757 254.701 462.591 254.49 462.472 254.251C462.354 254.012 462.285 253.752 462.271 253.485C462.257 253.219 462.298 252.953 462.391 252.703L462.877 251.392C462.98 251.115 463.015 250.817 462.978 250.524C462.942 250.23 462.835 249.95 462.666 249.707C462.498 249.464 462.273 249.265 462.011 249.127C461.749 248.99 461.458 248.918 461.162 248.917H456.982C456.848 248.918 456.715 248.888 456.593 248.831C456.471 248.774 456.363 248.691 456.277 248.587C456.188 248.485 456.124 248.365 456.087 248.235C456.051 248.105 456.043 247.969 456.066 247.836L457.23 241.419C457.269 241.205 457.383 241.013 457.55 240.875C457.718 240.737 457.93 240.664 458.147 240.667H466.149V249.641ZM470.732 248.001C470.732 248.244 470.636 248.477 470.464 248.649C470.292 248.821 470.059 248.917 469.816 248.917H467.982V240.667H469.816C470.059 240.667 470.292 240.764 470.464 240.936C470.636 241.108 470.732 241.341 470.732 241.584V248.001Z" fill="white"/>
</g>
<path d="M247 117C251.747 117 256.387 118.408 260.334 121.045C264.28 123.682 267.357 127.43 269.173 131.816C270.99 136.201 271.465 141.027 270.539 145.682C269.613 150.338 267.327 154.614 263.971 157.971C260.614 161.327 256.338 163.613 251.682 164.539C247.027 165.465 242.201 164.99 237.816 163.173C233.43 161.357 229.682 158.28 227.045 154.334C224.408 150.387 223 145.747 223 141C223 134.635 225.529 128.53 230.029 124.029C234.53 119.529 240.635 117 247 117ZM247 113C241.462 113 236.049 114.642 231.444 117.719C226.839 120.796 223.251 125.169 221.131 130.285C219.012 135.401 218.458 141.031 219.538 146.463C220.618 151.894 223.285 156.883 227.201 160.799C231.117 164.715 236.106 167.382 241.537 168.462C246.969 169.542 252.599 168.988 257.715 166.869C262.831 164.749 267.204 161.161 270.281 156.556C273.358 151.951 275 146.538 275 141C275 133.574 272.05 126.452 266.799 121.201C261.548 115.95 254.426 113 247 113Z" fill="white" fill-opacity="0.6"/>
<path d="M239 155C238.641 155 238.289 154.903 237.98 154.72C237.681 154.543 237.434 154.291 237.262 153.989C237.09 153.688 237 153.347 237 153V129C237 128.653 237.09 128.311 237.262 128.01C237.434 127.708 237.681 127.457 237.98 127.28C238.284 127.104 238.629 127.012 238.98 127.012C239.331 127.012 239.676 127.104 239.98 127.28L261.98 139.28C262.298 139.451 262.563 139.705 262.748 140.015C262.932 140.325 263.03 140.679 263.03 141.04C263.03 141.4 262.932 141.755 262.748 142.064C262.563 142.374 262.298 142.628 261.98 142.8L239.98 154.8C239.676 154.948 239.338 155.017 239 155ZM241 132.36V149.64L256.82 141L241 132.36Z" fill="white" fill-opacity="0.6"/>
<path d="M20 31C20 24.9249 24.9249 20 31 20H53C59.0751 20 64 24.9249 64 31C64 37.0751 59.0751 42 53 42H31C24.9249 42 20 37.0751 20 31Z" fill="white" fill-opacity="0.8"/>
<path fill-rule="evenodd" clip-rule="evenodd" d="M27 27.7191V36H28.3736C28.4165 36 28.5195 35.9753 28.5882 35.8764V33.2397C30.1335 34.3109 32.8807 33.7753 32.8807 30.5206C32.8807 27.5131 30.2193 26.8127 28.4165 28.2135C28.4022 28.0762 28.3221 27.785 28.116 27.7191H27ZM30.6915 29.1199C29.9704 28.4936 28.9888 28.8589 28.5882 29.1199V32.0861C29.6871 32.8112 30.4483 32.3883 30.6915 32.0861C31.0006 31.9543 31.0778 30.9875 31.0778 30.5206C31.1122 29.7955 30.8346 29.2846 30.6915 29.1199Z" fill="#00A8E1"/>
<path d="M34.0396 33.4457V27.8839C34.0396 27.829 34.074 27.7109 34.2113 27.6779H35.2844C35.3417 27.6367 35.499 27.7356 35.6707 28.4607C35.6851 28.5019 35.7308 28.5678 35.7995 28.5019C35.8854 28.4195 36.7009 27.5543 37.5594 27.6367C37.9028 27.6367 37.9887 27.774 37.9887 27.8427V28.9963C37.9744 29.0649 37.9114 29.2022 37.774 29.2022C36.5722 29.1363 35.9569 29.3396 35.7995 29.4494V33.4457C35.7995 33.4869 35.7738 33.5775 35.6707 33.6105H34.1684C34.1255 33.6105 34.0396 33.5775 34.0396 33.4457Z" fill="#00A8E1"/>
<path d="M39.0189 27.6779H40.3066C40.3781 27.6916 40.5212 27.7521 40.5212 27.8839V33.4457C40.5069 33.4869 40.4525 33.5775 40.3495 33.6105H38.9759C38.9187 33.5968 38.7956 33.5446 38.7613 33.4457L38.8042 27.8839C38.8042 27.829 38.8472 27.7109 39.0189 27.6779Z" fill="#00A8E1"/>
<path d="M39.3622 26.7303C39.491 26.7441 39.7915 26.7633 39.9632 26.7303C40.1349 26.6974 40.3209 26.5793 40.3924 26.5243C40.5641 26.3596 40.65 26.1124 40.65 25.8652C40.65 25.5356 40.5641 25.412 40.4354 25.2472C40.3495 25.1785 40.1778 25 39.9632 25H39.3622C39.2049 25.0412 38.8643 25.1483 38.7613 25.412C38.6583 25.6757 38.6755 25.7553 38.6755 25.9064C38.6755 26.0574 38.7579 26.3563 38.933 26.5243C39.1081 26.6924 39.2907 26.7166 39.3622 26.7303Z" fill="#00A8E1"/>
<path d="M43.6547 28.2547C43.6118 28.0899 43.4916 27.7521 43.3542 27.7191C43.2169 27.6861 42.5244 27.7054 42.1953 27.7191C42.138 27.7191 42.0236 27.7521 42.0236 27.8839V33.4457C42.0379 33.4869 42.0922 33.5775 42.1953 33.6105C42.2983 33.6434 43.1539 33.6242 43.5688 33.6105C43.6261 33.5968 43.7577 33.5446 43.8264 33.4457L43.7835 29.161C44.0267 29.0237 44.6248 28.7655 45.0712 28.8315C45.6292 28.8727 45.8009 29.1336 45.8438 29.2846L45.8868 33.4457C45.9011 33.5006 45.9554 33.6105 46.0585 33.6105H47.475C47.5179 33.5968 47.6123 33.5446 47.6467 33.4457V29.161C47.847 29.01 48.3764 28.7243 48.8915 28.7903C49.4066 28.8562 49.6212 29.1748 49.6641 29.3258V33.3633C49.6641 33.432 49.6985 33.5775 49.8358 33.6105H51.3382C51.3811 33.583 51.467 33.4951 51.467 33.3633V29.0787C51.4383 28.5705 51.0549 27.5461 49.75 27.5131C48.4451 27.4801 47.661 27.9938 47.4321 28.2547C47.2747 28.0075 46.7453 27.5131 45.8868 27.5131C45.0283 27.5131 44.041 28.0075 43.6547 28.2547Z" fill="#00A8E1"/>
<path fill-rule="evenodd" clip-rule="evenodd" d="M54.1283 31.0974C54.071 31.8252 54.6605 33.0831 57.4764 32.2921C57.6481 32.2262 57.691 32.4569 57.691 32.5805V33.1985C57.5336 33.4045 56.9098 33.8165 55.6735 33.8165C53.2698 33.8165 52.583 32.2235 52.5401 31.427C52.3827 30.7678 52.3598 29.194 53.5273 28.1723C55.1756 26.9858 56.8182 27.6779 57.4335 28.1723C57.8198 28.5156 58.395 29.4494 57.6052 30.4382C56.8153 31.427 54.9581 31.2896 54.1283 31.0974ZM55.4589 28.7079C54.3944 28.7079 54.1283 29.6417 54.1283 30.1086C54.4574 30.1498 55.21 30.224 55.5877 30.191C55.9654 30.1581 56.203 29.9301 56.2745 29.8202C56.4462 29.4494 56.5235 28.7079 55.4589 28.7079Z" fill="#00A8E1"/>
<path fill-rule="evenodd" clip-rule="evenodd" d="M27 27.7191V36H28.3736C28.4165 36 28.5195 35.9753 28.5882 35.8764V33.2397C30.1335 34.3109 32.8807 33.7753 32.8807 30.5206C32.8807 27.5131 30.2193 26.8127 28.4165 28.2135C28.4022 28.0762 28.3221 27.785 28.116 27.7191H27ZM30.6915 29.1199C29.9704 28.4936 28.9888 28.8589 28.5882 29.1199V32.0861C29.6871 32.8112 30.4483 32.3883 30.6915 32.0861C31.0006 31.9543 31.0778 30.9875 31.0778 30.5206C31.1122 29.7955 30.8346 29.2846 30.6915 29.1199Z" fill="#00A8E1"/>
<defs>
<linearGradient id="paint0_linear" x1="92.75" y1="81.1765" x2="52.8637" y2="38.8258" gradientUnits="userSpaceOnUse">
<stop stop-color="#1B1B1B"/>
<stop offset="1" stop-color="#1B1B1B" stop-opacity="0"/>
</linearGradient>
<linearGradient id="paint1_linear" x1="16.9914" y1="224.27" x2="184.124" y2="224.938" gradientUnits="userSpaceOnUse">
<stop stop-opacity="0"/>
<stop stop-opacity="0"/>
<stop offset="1"/>
</linearGradient>
<clipPath id="clip0">
<rect width="219" height="494" fill="white" transform="translate(494 64) rotate(90)"/>
</clipPath>
<clipPath id="clip1">
<rect width="60.0157" height="15.1496" fill="white" transform="translate(25.9922 139.33)"/>
</clipPath>
<clipPath id="clip2">
<rect width="67" height="16" fill="white" transform="translate(136 242.811)"/>
</clipPath>
</defs>
</svg>
