<svg width="326" height="200" viewBox="0 0 326 200" fill="none" xmlns="http://www.w3.org/2000/svg">
<rect width="106" height="90" transform="translate(236 106) rotate(-90)" fill="url(#paint0_linear)"/>
<path d="M299.822 21.6639C300.814 21.4569 303.507 21.1317 304.262 21.7526C304.706 22.1178 304.262 24.0585 303.285 26.4088C303.241 26.5861 303.25 26.8966 303.641 26.7192C304.129 26.4975 306.127 23.9255 305.994 20.7326C305.905 20.3779 305.579 20.2659 305.505 20.2449C304.262 19.8901 301.732 19.7127 299.689 21.2204C299.547 21.5042 299.719 21.6343 299.822 21.6639Z" fill="white"/>
<path d="M272.03 20.8213C271.971 20.6735 271.959 20.3779 272.385 20.3779C277.624 23.5707 288.501 28.5373 302.486 22.4177C303.285 22.2404 303.378 23.0726 302.93 23.3933C291.165 31.8188 277.668 27.1183 272.03 20.8213Z" fill="white"/>
<path d="M277.019 35.3669C277.019 35.917 276.952 36.4183 276.818 36.8708C276.688 37.3233 276.493 37.7106 276.232 38.0329C275.972 38.3552 275.648 38.6042 275.261 38.78C274.877 38.9557 274.432 39.0436 273.928 39.0436C273.397 39.0436 272.937 38.9557 272.546 38.78C272.159 38.6042 271.836 38.3552 271.579 38.0329C271.325 37.7106 271.136 37.3233 271.013 36.8708C270.889 36.4151 270.827 35.9105 270.827 35.3571C270.827 34.8037 270.889 34.3024 271.013 33.8532C271.136 33.4007 271.327 33.015 271.584 32.696C271.841 32.377 272.165 32.1312 272.556 31.9587C272.946 31.7829 273.407 31.695 273.938 31.695C274.442 31.695 274.885 31.7829 275.266 31.9587C275.65 32.1312 275.972 32.3786 276.232 32.7009C276.493 33.0199 276.688 33.4056 276.818 33.8581C276.952 34.3073 277.019 34.8102 277.019 35.3669ZM271.789 35.3669C271.789 35.8128 271.831 36.2149 271.916 36.5729C272.001 36.9278 272.129 37.2305 272.302 37.4811C272.478 37.7285 272.699 37.919 272.966 38.0524C273.236 38.1826 273.557 38.2477 273.928 38.2477C274.299 38.2477 274.618 38.1826 274.885 38.0524C275.155 37.919 275.376 37.7285 275.549 37.4811C275.725 37.2305 275.853 36.9278 275.935 36.5729C276.016 36.2149 276.057 35.8128 276.057 35.3669C276.057 34.9177 276.016 34.5156 275.935 34.1608C275.853 33.806 275.726 33.5065 275.554 33.2624C275.381 33.015 275.161 32.8262 274.895 32.696C274.628 32.5625 274.309 32.4958 273.938 32.4958C273.566 32.4958 273.246 32.5625 272.976 32.696C272.705 32.8262 272.482 33.015 272.307 33.2624C272.131 33.5065 272.001 33.806 271.916 34.1608C271.831 34.5156 271.789 34.9177 271.789 35.3669ZM280.808 33.487C280.902 33.487 281.008 33.4919 281.125 33.5016C281.242 33.5082 281.343 33.5196 281.428 33.5358L281.311 34.3561C281.219 34.3399 281.125 34.3268 281.027 34.3171C280.933 34.3041 280.843 34.2975 280.759 34.2975C280.554 34.2975 280.367 34.3399 280.197 34.4245C280.028 34.5059 279.882 34.6247 279.758 34.7809C279.637 34.9339 279.543 35.1195 279.475 35.3376C279.41 35.5524 279.377 35.7917 279.377 36.0554V38.946H278.488V33.5847H279.211L279.318 34.5661H279.357C279.439 34.4261 279.525 34.291 279.616 34.1608C279.711 34.0306 279.815 33.9167 279.929 33.819C280.046 33.7181 280.176 33.6384 280.319 33.5798C280.463 33.5179 280.625 33.487 280.808 33.487ZM283.371 38.946H282.482V33.5847H283.371V38.946ZM282.414 32.1345C282.414 31.9391 282.463 31.7975 282.561 31.7097C282.661 31.6218 282.785 31.5778 282.932 31.5778C283.003 31.5778 283.07 31.5892 283.132 31.612C283.197 31.6315 283.252 31.6641 283.298 31.7097C283.347 31.7552 283.384 31.8138 283.41 31.8854C283.439 31.9538 283.454 32.0368 283.454 32.1345C283.454 32.3233 283.402 32.4649 283.298 32.5593C283.197 32.6504 283.075 32.696 282.932 32.696C282.785 32.696 282.661 32.6504 282.561 32.5593C282.463 32.4681 282.414 32.3265 282.414 32.1345ZM289.201 33.5847V34.1364L288.239 34.2682C288.33 34.3822 288.407 34.5287 288.469 34.7077C288.531 34.8835 288.562 35.0837 288.562 35.3083C288.562 35.5557 288.522 35.7852 288.444 35.9968C288.369 36.2051 288.254 36.3858 288.098 36.5388C287.945 36.6918 287.754 36.8122 287.526 36.9001C287.299 36.9847 287.033 37.027 286.73 37.027C286.659 37.027 286.587 37.027 286.516 37.027C286.444 37.0238 286.385 37.0173 286.34 37.0075C286.285 37.0401 286.229 37.0775 286.174 37.1198C286.122 37.1589 286.073 37.2044 286.027 37.2565C285.985 37.3086 285.949 37.3672 285.92 37.4323C285.894 37.4974 285.881 37.569 285.881 37.6472C285.881 37.735 285.9 37.8067 285.939 37.862C285.979 37.9141 286.031 37.9548 286.096 37.9841C286.164 38.0134 286.244 38.0329 286.335 38.0427C286.426 38.0524 286.522 38.0573 286.623 38.0573H287.482C287.785 38.0573 288.041 38.0964 288.249 38.1745C288.457 38.2494 288.627 38.3519 288.757 38.4821C288.89 38.6123 288.986 38.7669 289.045 38.946C289.104 39.1218 289.133 39.3089 289.133 39.5075C289.133 39.794 289.079 40.0511 288.972 40.279C288.868 40.5069 288.706 40.6989 288.488 40.8552C288.27 41.0147 287.993 41.1367 287.658 41.2214C287.326 41.306 286.934 41.3483 286.481 41.3483C286.133 41.3483 285.829 41.3141 285.568 41.2458C285.308 41.1774 285.091 41.0781 284.919 40.9479C284.746 40.8177 284.616 40.6599 284.528 40.4743C284.444 40.292 284.401 40.0853 284.401 39.8542C284.401 39.6589 284.432 39.4863 284.494 39.3366C284.559 39.1901 284.646 39.0632 284.753 38.9557C284.86 38.8483 284.984 38.7604 285.124 38.6921C285.267 38.6237 285.415 38.5716 285.568 38.5358C285.432 38.474 285.319 38.3763 285.231 38.2429C285.144 38.1094 285.1 37.9564 285.1 37.7839C285.1 37.5853 285.152 37.4144 285.256 37.2712C285.36 37.1247 285.524 36.9831 285.749 36.8464C285.609 36.7878 285.48 36.708 285.363 36.6071C285.249 36.503 285.152 36.3858 285.07 36.2556C284.992 36.1221 284.93 35.9772 284.885 35.821C284.842 35.6647 284.821 35.5036 284.821 35.3376C284.821 35.0479 284.862 34.7891 284.943 34.5612C285.025 34.3334 285.145 34.1397 285.305 33.9802C285.464 33.8207 285.663 33.6986 285.9 33.614C286.138 33.5293 286.415 33.487 286.73 33.487C286.851 33.487 286.975 33.4968 287.102 33.5163C287.232 33.5326 287.341 33.5554 287.429 33.5847H289.201ZM285.241 39.8249C285.241 39.9453 285.262 40.0576 285.305 40.1618C285.347 40.266 285.415 40.3555 285.51 40.4304C285.607 40.5052 285.734 40.5638 285.891 40.6061C286.05 40.6517 286.247 40.6745 286.481 40.6745C287.087 40.6745 287.539 40.5801 287.839 40.3913C288.142 40.2057 288.293 39.9372 288.293 39.5856C288.293 39.4359 288.273 39.3138 288.234 39.2194C288.195 39.125 288.13 39.0502 288.039 38.9948C287.951 38.9427 287.834 38.9069 287.688 38.8874C287.541 38.8679 287.362 38.8581 287.15 38.8581H286.291C286.177 38.8581 286.058 38.8711 285.935 38.8972C285.811 38.9232 285.697 38.972 285.593 39.0436C285.492 39.1153 285.407 39.2129 285.339 39.3366C285.274 39.4636 285.241 39.6263 285.241 39.8249ZM285.69 35.3083C285.69 35.6826 285.778 35.961 285.954 36.1432C286.13 36.3255 286.379 36.4167 286.701 36.4167C287.027 36.4167 287.272 36.3272 287.438 36.1481C287.608 35.9658 287.692 35.681 287.692 35.2936C287.692 34.8932 287.606 34.5987 287.434 34.4099C287.264 34.221 287.017 34.1266 286.691 34.1266C286.369 34.1266 286.122 34.2243 285.949 34.4196C285.777 34.6149 285.69 34.9112 285.69 35.3083ZM291.145 38.946H290.256V33.5847H291.145V38.946ZM290.188 32.1345C290.188 31.9391 290.236 31.7975 290.334 31.7097C290.435 31.6218 290.559 31.5778 290.705 31.5778C290.777 31.5778 290.843 31.5892 290.905 31.612C290.97 31.6315 291.026 31.6641 291.071 31.7097C291.12 31.7552 291.158 31.8138 291.184 31.8854C291.213 31.9538 291.228 32.0368 291.228 32.1345C291.228 32.3233 291.175 32.4649 291.071 32.5593C290.97 32.6504 290.848 32.696 290.705 32.696C290.559 32.696 290.435 32.6504 290.334 32.5593C290.236 32.4681 290.188 32.3265 290.188 32.1345ZM296.193 38.946V35.4938C296.193 35.0707 296.107 34.7533 295.935 34.5417C295.765 34.3301 295.498 34.2243 295.134 34.2243C294.87 34.2243 294.649 34.2666 294.47 34.3513C294.291 34.4359 294.146 34.5612 294.035 34.7272C293.928 34.8932 293.85 35.0967 293.801 35.3376C293.755 35.5785 293.732 35.8552 293.732 36.1677V38.946H292.844V33.5847H293.566L293.693 34.3073H293.742C293.824 34.1673 293.92 34.0469 294.03 33.946C294.144 33.8418 294.268 33.7556 294.401 33.6872C294.535 33.6188 294.676 33.5684 294.826 33.5358C294.976 33.5033 295.129 33.487 295.285 33.487C295.881 33.487 296.328 33.6432 296.628 33.9557C296.931 34.265 297.082 34.7614 297.082 35.445V38.946H296.193ZM301.755 38.946L301.574 38.2038H301.535C301.428 38.3503 301.32 38.4772 301.213 38.5847C301.105 38.6888 300.988 38.7751 300.861 38.8434C300.734 38.9118 300.593 38.9623 300.437 38.9948C300.28 39.0274 300.1 39.0436 299.895 39.0436C299.67 39.0436 299.463 39.0111 299.274 38.946C299.086 38.8841 298.921 38.7881 298.781 38.6579C298.645 38.5244 298.537 38.3584 298.459 38.1599C298.381 37.958 298.342 37.7204 298.342 37.447C298.342 36.9131 298.529 36.503 298.903 36.2165C299.281 35.93 299.854 35.7738 300.622 35.7477L301.521 35.7136V35.3766C301.521 35.1585 301.496 34.9763 301.447 34.8298C301.402 34.6833 301.333 34.5661 301.242 34.4782C301.154 34.3871 301.044 34.322 300.91 34.2829C300.78 34.2438 300.63 34.2243 300.461 34.2243C300.191 34.2243 299.938 34.2634 299.704 34.3415C299.473 34.4196 299.25 34.514 299.035 34.6247L298.723 33.9557C298.964 33.8255 299.232 33.7149 299.528 33.6237C299.825 33.5326 300.135 33.487 300.461 33.487C300.793 33.487 301.079 33.5212 301.32 33.5895C301.564 33.6546 301.765 33.7604 301.921 33.9069C302.08 34.0502 302.199 34.2341 302.277 34.4587C302.355 34.6833 302.395 34.9551 302.395 35.2741V38.946L301.755 38.946ZM300.124 38.3259C300.323 38.3259 300.507 38.2949 300.676 38.2331C300.845 38.1712 300.992 38.0785 301.115 37.9548C301.239 37.8278 301.335 37.6699 301.403 37.4811C301.475 37.2891 301.511 37.0645 301.511 36.8073V36.3239L300.812 36.3581C300.52 36.3711 300.274 36.4037 300.075 36.4557C299.877 36.5078 299.717 36.5811 299.597 36.6755C299.479 36.7666 299.395 36.8789 299.343 37.0124C299.291 37.1426 299.265 37.2907 299.265 37.4567C299.265 37.7562 299.343 37.9759 299.499 38.1159C299.659 38.2559 299.867 38.3259 300.124 38.3259ZM304.934 38.946H304.045V31.3483H304.934V38.946Z" fill="white"/>
<path d="M20 31C20 24.9249 24.9249 20 31 20H53C59.0751 20 64 24.9249 64 31V31C64 37.0751 59.0751 42 53 42H31C24.9249 42 20 37.0751 20 31V31Z" fill="white" fill-opacity="0.8"/>
<path fill-rule="evenodd" clip-rule="evenodd" d="M27 27.7191V36H28.3736C28.4165 36 28.5195 35.9753 28.5882 35.8764V33.2397C30.1335 34.3109 32.8807 33.7753 32.8807 30.5206C32.8807 27.5131 30.2193 26.8127 28.4165 28.2135C28.4022 28.0762 28.3221 27.785 28.116 27.7191H27ZM30.6915 29.1199C29.9704 28.4936 28.9888 28.8589 28.5882 29.1199V32.0861C29.6871 32.8112 30.4483 32.3883 30.6915 32.0861C31.0006 31.9543 31.0778 30.9875 31.0778 30.5206C31.1122 29.7955 30.8346 29.2846 30.6915 29.1199Z" fill="#00A8E1"/>
<path d="M34.0396 33.4457V27.8839C34.0396 27.829 34.074 27.7109 34.2113 27.6779H35.2844C35.3417 27.6367 35.499 27.7356 35.6707 28.4607C35.6851 28.5019 35.7308 28.5678 35.7995 28.5019C35.8854 28.4195 36.7009 27.5543 37.5594 27.6367C37.9028 27.6367 37.9887 27.774 37.9887 27.8427V28.9963C37.9744 29.0649 37.9114 29.2022 37.774 29.2022C36.5722 29.1363 35.9569 29.3396 35.7995 29.4494V33.4457C35.7995 33.4869 35.7738 33.5775 35.6707 33.6105H34.1684C34.1255 33.6105 34.0396 33.5775 34.0396 33.4457Z" fill="#00A8E1"/>
<path d="M39.0189 27.6779H40.3066C40.3781 27.6916 40.5212 27.7521 40.5212 27.8839V33.4457C40.5069 33.4869 40.4525 33.5775 40.3495 33.6105H38.9759C38.9187 33.5968 38.7956 33.5446 38.7613 33.4457L38.8042 27.8839C38.8042 27.829 38.8472 27.7109 39.0189 27.6779Z" fill="#00A8E1"/>
<path d="M39.3622 26.7303C39.491 26.7441 39.7915 26.7633 39.9632 26.7303C40.1349 26.6974 40.3209 26.5793 40.3924 26.5243C40.5641 26.3596 40.65 26.1124 40.65 25.8652C40.65 25.5356 40.5641 25.412 40.4354 25.2472C40.3495 25.1785 40.1778 25 39.9632 25H39.3622C39.2049 25.0412 38.8643 25.1483 38.7613 25.412C38.6583 25.6757 38.6755 25.7553 38.6755 25.9064C38.6755 26.0574 38.7579 26.3563 38.933 26.5243C39.1081 26.6924 39.2907 26.7166 39.3622 26.7303Z" fill="#00A8E1"/>
<path d="M43.6547 28.2547C43.6118 28.0899 43.4916 27.7521 43.3542 27.7191C43.2169 27.6861 42.5244 27.7054 42.1953 27.7191C42.138 27.7191 42.0236 27.7521 42.0236 27.8839V33.4457C42.0379 33.4869 42.0922 33.5775 42.1953 33.6105C42.2983 33.6434 43.1539 33.6242 43.5688 33.6105C43.6261 33.5968 43.7577 33.5446 43.8264 33.4457L43.7835 29.161C44.0267 29.0237 44.6248 28.7655 45.0712 28.8315C45.6292 28.8727 45.8009 29.1336 45.8438 29.2846L45.8868 33.4457C45.9011 33.5006 45.9554 33.6105 46.0585 33.6105H47.475C47.5179 33.5968 47.6123 33.5446 47.6467 33.4457V29.161C47.847 29.01 48.3764 28.7243 48.8915 28.7903C49.4066 28.8562 49.6212 29.1748 49.6641 29.3258V33.3633C49.6641 33.432 49.6985 33.5775 49.8358 33.6105H51.3382C51.3811 33.583 51.467 33.4951 51.467 33.3633V29.0787C51.4383 28.5705 51.0549 27.5461 49.75 27.5131C48.4451 27.4801 47.661 27.9938 47.4321 28.2547C47.2747 28.0075 46.7453 27.5131 45.8868 27.5131C45.0283 27.5131 44.041 28.0075 43.6547 28.2547Z" fill="#00A8E1"/>
<path fill-rule="evenodd" clip-rule="evenodd" d="M54.1283 31.0974C54.071 31.8252 54.6605 33.0831 57.4764 32.2921C57.6481 32.2262 57.691 32.4569 57.691 32.5805V33.1985C57.5336 33.4045 56.9098 33.8165 55.6735 33.8165C53.2698 33.8165 52.583 32.2235 52.5401 31.427C52.3827 30.7678 52.3598 29.194 53.5273 28.1723C55.1756 26.9858 56.8182 27.6779 57.4335 28.1723C57.8198 28.5156 58.395 29.4494 57.6052 30.4382C56.8153 31.427 54.9581 31.2896 54.1283 31.0974ZM55.4589 28.7079C54.3944 28.7079 54.1283 29.6417 54.1283 30.1086C54.4574 30.1498 55.21 30.224 55.5877 30.191C55.9654 30.1581 56.203 29.9301 56.2745 29.8202C56.4462 29.4494 56.5235 28.7079 55.4589 28.7079Z" fill="#00A8E1"/>
<path fill-rule="evenodd" clip-rule="evenodd" d="M27 27.7191V36H28.3736C28.4165 36 28.5195 35.9753 28.5882 35.8764V33.2397C30.1335 34.3109 32.8807 33.7753 32.8807 30.5206C32.8807 27.5131 30.2193 26.8127 28.4165 28.2135C28.4022 28.0762 28.3221 27.785 28.116 27.7191H27ZM30.6915 29.1199C29.9704 28.4936 28.9888 28.8589 28.5882 29.1199V32.0861C29.6871 32.8112 30.4483 32.3883 30.6915 32.0861C31.0006 31.9543 31.0778 30.9875 31.0778 30.5206C31.1122 29.7955 30.8346 29.2846 30.6915 29.1199Z" fill="#00A8E1"/>
<g clip-path="url(#clip0)">
<rect width="179" height="326" transform="translate(326 21) rotate(90)" fill="url(#paint1_linear)"/>
<rect x="24.4313" y="89.4313" width="53.9091" height="13.8007" rx="6.90036" fill="#111111" fill-opacity="0.2"/>
<g clip-path="url(#clip1)">
<g clip-path="url(#clip2)">
<path d="M37.2124 95.6945C37.2124 95.2422 36.8917 94.8639 36.4667 94.7728C36.6365 94.4893 36.7407 94.1615 36.7407 93.8077C36.7407 92.7671 35.8945 91.9209 34.8539 91.9209C34.1383 91.9209 33.5232 92.3251 33.2029 92.9134C32.8827 92.3251 32.2676 91.9209 31.552 91.9209C30.5114 91.9209 29.6652 92.7671 29.6652 93.8077C29.6652 94.2332 29.8123 94.6224 30.0505 94.9379C29.9315 95.025 29.8346 95.1388 29.7676 95.2703C29.7007 95.4017 29.6656 95.547 29.6652 95.6945V99.4682C29.6652 99.9885 30.0883 100.412 30.6086 100.412H36.269C36.7893 100.412 37.2124 99.9885 37.2124 99.4682V98.2238L39.0993 99.1672V95.8653L37.2124 96.8087V95.6945ZM34.8539 92.8643C35.3742 92.8643 35.7973 93.2874 35.7973 93.8077C35.7973 94.328 35.3742 94.7511 34.8539 94.7511C34.3336 94.7511 33.9105 94.328 33.9105 93.8077C33.9105 93.2874 34.3336 92.8643 34.8539 92.8643ZM31.552 92.8643C32.0723 92.8643 32.4954 93.2874 32.4954 93.8077C32.4954 94.328 32.0723 94.7511 31.552 94.7511C31.0317 94.7511 30.6086 94.328 30.6086 93.8077C30.6086 93.2874 31.0317 92.8643 31.552 92.8643ZM30.6086 99.4682V95.6945H36.269L36.27 99.4682H30.6086Z" fill="white"/>
</g>
<path d="M49.4907 93.4978V94.2559H47.2164V100.725H46.2814V94.2559H44.0071V93.4978H49.4907ZM50.5065 100.725V95.4184H51.1383L51.305 96.0956C51.77 95.6441 52.3293 95.4184 52.983 95.4184V96.1967C52.3495 96.1967 51.8357 96.4207 51.4415 96.8689V100.725H50.5065ZM53.6703 99.1229C53.6703 98.0346 54.388 97.4905 55.8233 97.4905C56.2849 97.4905 56.7465 97.5242 57.2081 97.5916V97.0912C57.2081 96.4814 56.7313 96.1765 55.7778 96.1765C55.232 96.1765 54.6727 96.2607 54.0999 96.4292V95.6711C54.6727 95.5026 55.232 95.4184 55.7778 95.4184C57.3546 95.4184 58.1431 95.9676 58.1431 97.066V100.725H57.6175L57.294 100.199C56.765 100.55 56.1889 100.725 55.5655 100.725C54.302 100.725 53.6703 100.191 53.6703 99.1229ZM55.8233 98.2486C55.0113 98.2486 54.6053 98.535 54.6053 99.1078C54.6053 99.6805 54.9254 99.9669 55.5655 99.9669C56.2124 99.9669 56.76 99.7951 57.2081 99.4514V98.3497C56.7465 98.2823 56.2849 98.2486 55.8233 98.2486ZM60.7004 95.4184V100.725H59.7654V95.4184H60.7004ZM60.7004 93.4978V94.3823H59.7654V93.4978H60.7004ZM63.3082 93.4978V100.725H62.3732V93.4978H63.3082ZM67.0684 95.4184C68.5778 95.4184 69.3326 96.1647 69.3326 97.6573C69.3326 97.8695 69.3174 98.097 69.2871 98.3396H65.5623C65.5623 99.4245 66.1957 99.9669 67.4626 99.9669C68.0657 99.9669 68.6014 99.8996 69.0698 99.7648V100.523C68.6014 100.658 68.032 100.725 67.3615 100.725C65.5387 100.725 64.6273 99.8204 64.6273 98.011C64.6273 96.2826 65.441 95.4184 67.0684 95.4184ZM65.5623 97.5612H68.433C68.4128 96.6313 67.9579 96.1663 67.0684 96.1663C66.125 96.1663 65.623 96.6313 65.5623 97.5612ZM70.591 100.725V95.4184H71.2228L71.3895 96.0956C71.8545 95.6441 72.4138 95.4184 73.0675 95.4184V96.1967C72.434 96.1967 71.9202 96.4207 71.526 96.8689V100.725H70.591Z" fill="white"/>
</g>
<rect x="24.4313" y="89.4313" width="53.9091" height="13.8007" rx="6.90036" stroke="white" stroke-width="0.862546"/>
<path d="M25.0842 122.584V112.248H26.9997V116.513H32.0955V112.248H34.0109V122.584H32.0955V118.175H26.9997V122.584H25.0842ZM42.8364 114.995V122.584H41.3402L41.1089 121.616C40.2367 122.262 39.3115 122.584 38.3333 122.584C36.7817 122.584 36.0059 121.667 36.0059 119.831V114.995H37.9213V119.78C37.9213 120.618 38.2875 121.038 39.02 121.038C39.6416 121.038 40.2753 120.789 40.921 120.293V114.995H42.8364ZM44.6507 122.584V114.995H46.1324L46.371 116.108C47.0986 115.366 47.9274 114.995 48.8574 114.995C50.6548 114.995 51.5535 115.93 51.5535 117.799V122.584H49.6381V117.799C49.6381 116.961 49.2213 116.542 48.3876 116.542C47.766 116.542 47.1588 116.79 46.5661 117.286V122.584H44.6507ZM53.2594 113.766H54.6761L54.9652 114.995H56.8734V116.513H55.1748V120.004C55.1748 120.712 55.4808 121.067 56.0928 121.067H56.8734V122.584H55.1676C53.8954 122.584 53.2594 121.903 53.2594 120.539V113.766ZM61.3837 114.995C63.6871 114.995 64.8388 116.171 64.8388 118.522C64.8388 118.835 64.8171 119.149 64.7737 119.462H59.7357C59.7357 120.532 60.5212 121.067 62.0921 121.067C62.8583 121.067 63.6244 120.994 64.3906 120.85V122.368C63.7208 122.512 62.9065 122.584 61.9475 122.584C59.196 122.584 57.8203 121.291 57.8203 118.703C57.8203 116.231 59.0081 114.995 61.3837 114.995ZM59.7357 118.132H62.9739V118.074C62.9739 117.024 62.4439 116.498 61.3837 116.498C60.3718 116.498 59.8225 117.043 59.7357 118.132ZM66.2772 122.584V114.995H67.7589L67.9975 115.964C68.6624 115.318 69.366 114.995 70.1081 114.995V116.542C69.3949 116.542 68.7564 116.838 68.1926 117.431V122.584H66.2772ZM71.1923 122.223V120.633C72.0355 120.97 73.0089 121.139 74.1124 121.139C74.9364 121.139 75.3484 120.874 75.3484 120.344C75.3484 119.838 75.0714 119.585 74.5172 119.585H73.1439C71.6019 119.585 70.8309 118.826 70.8309 117.308C70.8309 115.718 71.956 114.923 74.2064 114.923C75.1605 114.923 76.0592 115.067 76.9025 115.356V116.947C76.0592 116.609 75.1436 116.441 74.1558 116.441C73.1198 116.441 72.6017 116.706 72.6017 117.236C72.6017 117.742 72.9029 117.995 73.5053 117.995H74.734C76.4206 117.995 77.2639 118.754 77.2639 120.271C77.2639 121.862 76.1893 122.657 74.0401 122.657C72.9848 122.657 72.0355 122.512 71.1923 122.223Z" fill="white"/>
<path d="M28.6259 133.663L27.3104 136.328L24.37 136.753L26.4979 138.829L25.9949 141.758L28.6259 140.376L31.2569 141.758L30.7539 138.829L32.8818 136.756L29.9414 136.328L28.6259 133.663Z" fill="#F39B13"/>
<path d="M35.6068 138.627C35.6068 138.273 35.6236 137.92 35.6574 137.569C35.6945 137.219 35.7569 136.883 35.8446 136.563C35.9357 136.239 36.0588 135.939 36.2139 135.662C36.3691 135.385 36.5664 135.146 36.8059 134.943C37.0454 134.738 37.3321 134.577 37.6661 134.463C38 134.345 38.3913 134.286 38.8399 134.286C38.904 134.286 38.9748 134.287 39.0524 134.291C39.13 134.294 39.2076 134.301 39.2852 134.311C39.3661 134.318 39.442 134.328 39.5128 134.341C39.5871 134.351 39.6528 134.365 39.7102 134.382V135.166C39.5921 135.126 39.4589 135.095 39.3105 135.075C39.162 135.055 39.0153 135.045 38.8703 135.045C38.5667 135.045 38.2985 135.082 38.0658 135.156C37.8364 135.227 37.6374 135.328 37.4687 135.46C37.3001 135.591 37.1584 135.748 37.0437 135.93C36.9324 136.112 36.8413 136.315 36.7705 136.537C36.6997 136.756 36.6474 136.991 36.6137 137.241C36.5799 137.49 36.558 137.75 36.5479 138.02H36.6086C36.6761 137.898 36.757 137.785 36.8515 137.681C36.9493 137.573 37.0623 137.482 37.1905 137.408C37.3186 137.33 37.462 137.269 37.6205 137.225C37.7824 137.182 37.9629 137.16 38.1619 137.16C38.4824 137.16 38.7724 137.21 39.0322 137.311C39.2919 137.409 39.5128 137.554 39.695 137.747C39.8771 137.939 40.0171 138.175 40.1149 138.455C40.2161 138.731 40.2667 139.049 40.2667 139.406C40.2667 139.791 40.2145 140.136 40.1099 140.443C40.0053 140.75 39.8552 141.012 39.6596 141.228C39.4639 141.44 39.2278 141.604 38.9512 141.718C38.6746 141.833 38.3643 141.89 38.0202 141.89C37.6829 141.89 37.3659 141.825 37.069 141.693C36.7756 141.561 36.5209 141.361 36.305 141.091C36.0891 140.821 35.9188 140.482 35.794 140.074C35.6692 139.666 35.6068 139.183 35.6068 138.627ZM38.0101 141.116C38.2125 141.116 38.3963 141.083 38.5616 141.015C38.7303 140.944 38.8753 140.84 38.9968 140.701C39.1182 140.56 39.211 140.383 39.275 140.17C39.3425 139.954 39.3762 139.7 39.3762 139.406C39.3762 139.17 39.3476 138.959 39.2902 138.774C39.2362 138.585 39.1536 138.425 39.0423 138.293C38.931 138.161 38.791 138.06 38.6223 137.989C38.4571 137.919 38.2631 137.883 38.0405 137.883C37.8145 137.883 37.607 137.924 37.4181 138.005C37.2326 138.082 37.0741 138.185 36.9425 138.313C36.811 138.438 36.7081 138.581 36.6339 138.743C36.5631 138.905 36.5276 139.067 36.5276 139.229C36.5276 139.455 36.558 139.681 36.6187 139.907C36.6828 140.13 36.7756 140.33 36.897 140.509C37.0218 140.688 37.177 140.835 37.3625 140.949C37.548 141.061 37.7639 141.116 38.0101 141.116ZM41.4861 141.228C41.4861 141.099 41.503 140.991 41.5367 140.904C41.5704 140.813 41.616 140.74 41.6733 140.686C41.7307 140.629 41.7981 140.588 41.8757 140.565C41.9533 140.538 42.0376 140.524 42.1287 140.524C42.2164 140.524 42.299 140.538 42.3766 140.565C42.4576 140.588 42.5267 140.629 42.5841 140.686C42.6414 140.74 42.6869 140.813 42.7207 140.904C42.7544 140.991 42.7713 141.099 42.7713 141.228C42.7713 141.352 42.7544 141.46 42.7207 141.551C42.6869 141.639 42.6414 141.712 42.5841 141.769C42.5267 141.826 42.4576 141.868 42.3766 141.895C42.299 141.922 42.2164 141.936 42.1287 141.936C42.0376 141.936 41.9533 141.922 41.8757 141.895C41.7981 141.868 41.7307 141.826 41.6733 141.769C41.616 141.712 41.5704 141.639 41.5367 141.551C41.503 141.46 41.4861 141.352 41.4861 141.228ZM46.3839 134.276C46.6672 134.276 46.9337 134.313 47.1833 134.387C47.4363 134.461 47.6572 134.572 47.8461 134.721C48.0384 134.869 48.1902 135.055 48.3015 135.277C48.4128 135.5 48.4685 135.76 48.4685 136.057C48.4685 136.283 48.4347 136.487 48.3673 136.669C48.2998 136.851 48.207 137.016 48.089 137.165C47.9709 137.31 47.8309 137.441 47.669 137.559C47.5071 137.674 47.3317 137.779 47.1428 137.873C47.3385 137.978 47.529 138.094 47.7146 138.222C47.9035 138.35 48.0704 138.495 48.2155 138.657C48.3639 138.816 48.482 138.995 48.5697 139.194C48.6607 139.393 48.7063 139.615 48.7063 139.861C48.7063 140.172 48.6489 140.453 48.5342 140.706C48.4229 140.956 48.2644 141.169 48.0586 141.344C47.8562 141.519 47.6117 141.654 47.325 141.749C47.0416 141.843 46.7279 141.89 46.3839 141.89C46.0128 141.89 45.6823 141.845 45.3922 141.754C45.1055 141.663 44.8626 141.533 44.6636 141.364C44.4679 141.192 44.3178 140.983 44.2133 140.737C44.1121 140.491 44.0615 140.212 44.0615 139.902C44.0615 139.649 44.0986 139.421 44.1728 139.219C44.2504 139.016 44.3533 138.834 44.4814 138.672C44.6096 138.511 44.7614 138.367 44.9368 138.242C45.1122 138.118 45.2977 138.008 45.4934 137.913C45.3281 137.809 45.1729 137.696 45.0279 137.574C44.8828 137.45 44.7564 137.311 44.6484 137.16C44.5438 137.008 44.4595 136.841 44.3954 136.659C44.3347 136.473 44.3044 136.269 44.3044 136.046C44.3044 135.753 44.36 135.497 44.4713 135.277C44.586 135.055 44.7395 134.869 44.9318 134.721C45.124 134.572 45.345 134.461 45.5946 134.387C45.8476 134.313 46.1107 134.276 46.3839 134.276ZM44.9672 139.912C44.9672 140.091 44.9942 140.256 45.0481 140.408C45.1021 140.556 45.1864 140.684 45.3011 140.792C45.4158 140.897 45.5608 140.98 45.7362 141.04C45.9116 141.098 46.1208 141.126 46.3636 141.126C46.5998 141.126 46.8072 141.098 46.986 141.04C47.1681 140.98 47.3199 140.895 47.4413 140.787C47.5628 140.676 47.6539 140.543 47.7146 140.388C47.7753 140.232 47.8056 140.06 47.8056 139.872C47.8056 139.696 47.7719 139.538 47.7045 139.396C47.6404 139.254 47.5459 139.123 47.4211 139.001C47.2997 138.88 47.1529 138.765 46.9809 138.657C46.8089 138.549 46.6166 138.443 46.4041 138.338L46.2523 138.268C45.8273 138.47 45.5069 138.703 45.291 138.966C45.0751 139.226 44.9672 139.541 44.9672 139.912ZM46.3738 135.045C46.0162 135.045 45.7312 135.134 45.5187 135.313C45.3095 135.492 45.205 135.751 45.205 136.092C45.205 136.284 45.2336 136.45 45.291 136.588C45.3517 136.726 45.4343 136.849 45.5389 136.957C45.6435 137.065 45.7683 137.163 45.9133 137.251C46.0617 137.335 46.222 137.418 46.394 137.499C46.5559 137.424 46.7077 137.343 46.8494 137.256C46.9944 137.168 47.1192 137.069 47.2238 136.957C47.3317 136.846 47.4161 136.719 47.4768 136.578C47.5375 136.436 47.5678 136.274 47.5678 136.092C47.5678 135.751 47.4616 135.492 47.2491 135.313C47.0366 135.134 46.7448 135.045 46.3738 135.045Z" fill="white"/>
<path d="M52.9789 134.554V141.789H52.0429V134.554H52.9789ZM54.856 141.789V134.554H56.0451L58.7014 140.59L61.3071 134.554H62.4455V141.789H61.6107V135.854L59.0404 141.789H58.3017L55.6909 135.854V141.789H54.856ZM66.7969 141.03C68.5677 141.03 69.4532 140.012 69.4532 137.974C69.4532 136.2 68.5677 135.313 66.7969 135.313H65.1019V141.03H66.7969ZM64.1658 141.789V134.554H66.7969C69.1918 134.554 70.3892 135.694 70.3892 137.974C70.3892 140.518 69.1918 141.789 66.7969 141.789H64.1658ZM72.5902 140.863C72.8971 140.961 73.2699 141.01 73.7084 141.01C74.889 141.01 75.4793 140.337 75.4793 138.991C75.4793 137.854 74.9446 137.286 73.8753 137.286C73.3896 137.286 72.9612 137.377 72.5902 137.559V140.863ZM71.6541 134.554H72.5902V136.73C72.9916 136.561 73.4217 136.477 73.8804 136.477C75.5602 136.477 76.4001 137.327 76.4001 139.027C76.4001 140.868 75.518 141.789 73.7539 141.789C72.9916 141.789 72.2917 141.717 71.6541 141.572V134.554Z" fill="white"/>
<path d="M29.3784 158.553H24.4149V157.465L26.1554 155.588C26.3747 155.352 26.5737 155.134 26.7525 154.935C26.9312 154.736 27.0847 154.542 27.2129 154.354C27.3411 154.165 27.4406 153.972 27.5114 153.777C27.5822 153.581 27.6177 153.37 27.6177 153.144C27.6177 152.895 27.5418 152.701 27.39 152.562C27.2416 152.424 27.0409 152.355 26.7879 152.355C26.5214 152.355 26.265 152.421 26.0188 152.552C25.7726 152.684 25.5145 152.871 25.2447 153.114L24.3947 152.107C24.5464 151.969 24.705 151.837 24.8703 151.712C25.0355 151.584 25.2177 151.471 25.4167 151.373C25.6157 151.276 25.835 151.198 26.0745 151.141C26.314 151.08 26.5821 151.05 26.879 151.05C27.2331 151.05 27.5502 151.098 27.8302 151.196C28.1135 151.294 28.3547 151.434 28.5537 151.616C28.7527 151.795 28.9045 152.013 29.0091 152.269C29.117 152.525 29.171 152.814 29.171 153.134C29.171 153.424 29.1204 153.703 29.0192 153.969C28.918 154.232 28.7797 154.492 28.6043 154.748C28.4289 155.001 28.2248 155.254 27.9921 155.507C27.7627 155.757 27.5165 156.011 27.2534 156.271L26.3629 157.167V157.238H29.3784V158.553ZM35.0959 154.854C35.0959 155.451 35.0486 155.984 34.9542 156.453C34.8631 156.922 34.7147 157.32 34.5089 157.647C34.3065 157.975 34.0434 158.224 33.7196 158.396C33.3992 158.568 33.0113 158.654 32.5559 158.654C32.1275 158.654 31.7548 158.568 31.4377 158.396C31.1206 158.224 30.8575 157.975 30.6484 157.647C30.4393 157.32 30.2824 156.922 30.1779 156.453C30.0767 155.984 30.0261 155.451 30.0261 154.854C30.0261 154.257 30.0716 153.723 30.1627 153.251C30.2571 152.778 30.4055 152.379 30.6079 152.051C30.8103 151.724 31.0717 151.475 31.3922 151.303C31.7126 151.127 32.1005 151.039 32.5559 151.039C32.9809 151.039 33.352 151.125 33.669 151.297C33.9861 151.47 34.2509 151.719 34.4634 152.046C34.6759 152.373 34.8344 152.773 34.939 153.245C35.0436 153.718 35.0959 154.254 35.0959 154.854ZM31.5844 154.854C31.5844 155.698 31.657 156.332 31.802 156.757C31.9471 157.182 32.1984 157.394 32.5559 157.394C32.9067 157.394 33.158 157.184 33.3098 156.762C33.465 156.34 33.5425 155.704 33.5425 154.854C33.5425 154.008 33.465 153.372 33.3098 152.947C33.158 152.519 32.9067 152.304 32.5559 152.304C32.3771 152.304 32.2253 152.358 32.1005 152.466C31.9791 152.574 31.8796 152.734 31.802 152.947C31.7244 153.159 31.6688 153.426 31.635 153.746C31.6013 154.063 31.5844 154.433 31.5844 154.854ZM39.5484 158.553H37.9849V154.273C37.9849 154.185 37.9849 154.08 37.9849 153.959C37.9883 153.834 37.9917 153.706 37.995 153.574C38.0018 153.439 38.0069 153.304 38.0102 153.17C38.017 153.035 38.022 152.912 38.0254 152.8C38.0085 152.82 37.9799 152.851 37.9394 152.891C37.8989 152.932 37.8534 152.977 37.8028 153.028C37.7522 153.075 37.6999 153.124 37.6459 153.175C37.592 153.225 37.5397 153.271 37.4891 153.311L36.6391 153.994L35.8801 153.053L38.2632 151.156H39.5484V158.553ZM46.4599 154.313C46.4599 154.667 46.4396 155.021 46.3992 155.376C46.3621 155.726 46.2929 156.062 46.1917 156.382C46.0939 156.703 45.959 157.003 45.7869 157.283C45.6183 157.56 45.4024 157.799 45.1393 158.002C44.8796 158.204 44.5659 158.364 44.1982 158.482C43.8339 158.597 43.4055 158.654 42.913 158.654C42.8422 158.654 42.7646 158.653 42.6803 158.649C42.596 158.646 42.51 158.641 42.4223 158.634C42.3379 158.631 42.2553 158.624 42.1743 158.614C42.0934 158.607 42.0225 158.597 41.9618 158.583V157.329C42.0866 157.362 42.2199 157.389 42.3615 157.41C42.5066 157.426 42.6533 157.435 42.8017 157.435C43.2571 157.435 43.6315 157.379 43.925 157.268C44.2184 157.153 44.4512 156.995 44.6232 156.792C44.7952 156.587 44.9167 156.342 44.9875 156.059C45.0617 155.775 45.1073 155.463 45.1241 155.123H45.0583C44.9909 155.244 44.9099 155.357 44.8155 155.462C44.721 155.566 44.6097 155.657 44.4815 155.735C44.3534 155.812 44.2083 155.873 44.0464 155.917C43.8845 155.961 43.704 155.983 43.505 155.983C43.1846 155.983 42.8962 155.93 42.6398 155.826C42.3835 155.721 42.1659 155.57 41.9871 155.371C41.8117 155.171 41.6768 154.927 41.5824 154.637C41.4879 154.347 41.4407 154.015 41.4407 153.64C41.4407 153.239 41.4963 152.879 41.6077 152.562C41.7223 152.245 41.8842 151.977 42.0934 151.758C42.3025 151.535 42.5555 151.365 42.8523 151.247C43.1525 151.129 43.4882 151.07 43.8592 151.07C44.2235 151.07 44.5642 151.136 44.8813 151.267C45.1983 151.395 45.4732 151.593 45.706 151.859C45.9387 152.126 46.1226 152.463 46.2575 152.871C46.3924 153.279 46.4599 153.76 46.4599 154.313ZM43.8896 152.325C43.7513 152.325 43.6248 152.35 43.5101 152.4C43.3954 152.451 43.2959 152.53 43.2116 152.638C43.1306 152.743 43.0665 152.878 43.0193 153.043C42.9755 153.205 42.9535 153.397 42.9535 153.62C42.9535 153.977 43.0294 154.261 43.1812 154.47C43.333 154.679 43.5624 154.784 43.8693 154.784C44.0245 154.784 44.1662 154.753 44.2943 154.693C44.4225 154.632 44.5321 154.553 44.6232 154.455C44.7143 154.357 44.7834 154.247 44.8307 154.126C44.8813 154.004 44.9066 153.881 44.9066 153.756C44.9066 153.584 44.8846 153.414 44.8408 153.245C44.8003 153.073 44.7362 152.92 44.6485 152.785C44.5642 152.647 44.4579 152.535 44.3298 152.451C44.205 152.367 44.0582 152.325 43.8896 152.325Z" fill="white"/>
<path d="M64.5378 153.215C64.28 153.215 64.0463 153.265 63.8366 153.363C63.627 153.46 63.4475 153.6 63.2981 153.783C63.1512 153.966 63.0367 154.189 62.9548 154.451C62.8753 154.714 62.8355 155.01 62.8355 155.34C62.8355 155.68 62.8705 155.982 62.9404 156.247C63.0126 156.51 63.1199 156.732 63.262 156.912C63.4042 157.093 63.5812 157.23 63.7933 157.324C64.0053 157.418 64.2535 157.465 64.5378 157.465C64.7522 157.465 64.9558 157.445 65.1485 157.404C65.3413 157.361 65.5316 157.311 65.7196 157.256V157.841C65.6256 157.877 65.5316 157.91 65.4377 157.939C65.3437 157.965 65.2449 157.987 65.1413 158.004C65.0401 158.021 64.9305 158.033 64.8124 158.04C64.6968 158.05 64.5679 158.054 64.4257 158.054C64.0306 158.054 63.6885 157.989 63.3993 157.859C63.1102 157.729 62.8705 157.545 62.6801 157.306C62.4922 157.068 62.3525 156.781 62.2609 156.446C62.1694 156.111 62.1236 155.74 62.1236 155.333C62.1236 154.933 62.1754 154.567 62.279 154.234C62.385 153.902 62.5392 153.616 62.7416 153.378C62.9464 153.139 63.1994 152.954 63.5005 152.821C63.8017 152.689 64.1474 152.623 64.5378 152.623C64.798 152.623 65.0461 152.649 65.2823 152.702C65.5184 152.755 65.7316 152.832 65.9219 152.933L65.64 153.497C65.4883 153.42 65.3232 153.354 65.1449 153.298C64.9666 153.243 64.7642 153.215 64.5378 153.215ZM68.8529 153.215C68.5951 153.215 68.3614 153.265 68.1518 153.363C67.9422 153.46 67.7627 153.6 67.6133 153.783C67.4663 153.966 67.3519 154.189 67.27 154.451C67.1905 154.714 67.1507 155.01 67.1507 155.34C67.1507 155.68 67.1857 155.982 67.2555 156.247C67.3278 156.51 67.435 156.732 67.5772 156.912C67.7193 157.093 67.8964 157.23 68.1084 157.324C68.3205 157.418 68.5686 157.465 68.8529 157.465C69.0674 157.465 69.271 157.445 69.4637 157.404C69.6565 157.361 69.8468 157.311 70.0347 157.256V157.841C69.9408 157.877 69.8468 157.91 69.7528 157.939C69.6589 157.965 69.5601 157.987 69.4565 158.004C69.3553 158.021 69.2457 158.033 69.1276 158.04C69.012 158.05 68.8831 158.054 68.7409 158.054C68.3458 158.054 68.0036 157.989 67.7145 157.859C67.4254 157.729 67.1857 157.545 66.9953 157.306C66.8074 157.068 66.6676 156.781 66.5761 156.446C66.4845 156.111 66.4388 155.74 66.4388 155.333C66.4388 154.933 66.4906 154.567 66.5942 154.234C66.7002 153.902 66.8544 153.616 67.0568 153.378C67.2616 153.139 67.5145 152.954 67.8157 152.821C68.1169 152.689 68.4626 152.623 68.8529 152.623C69.1132 152.623 69.3613 152.649 69.5974 152.702C69.8336 152.755 70.0468 152.832 70.2371 152.933L69.9552 153.497C69.8034 153.42 69.6384 153.354 69.4601 153.298C69.2818 153.243 69.0794 153.215 68.8529 153.215Z" fill="white"/>
<rect x="58.2913" y="150.242" width="15.5433" height="9.62205" rx="1.85039" stroke="white" stroke-width="0.740158"/>
<path d="M86.5726 157.982H85.9365V154.683C85.9365 154.579 85.9365 154.468 85.9365 154.35C85.939 154.232 85.9414 154.115 85.9438 153.999C85.9486 153.881 85.9522 153.769 85.9546 153.663C85.9594 153.555 85.963 153.46 85.9655 153.378C85.9245 153.421 85.8884 153.459 85.857 153.49C85.8257 153.521 85.7932 153.551 85.7595 153.58C85.7281 153.609 85.6944 153.64 85.6583 153.674C85.6221 153.706 85.5788 153.743 85.5282 153.786L84.9933 154.224L84.6463 153.779L86.0305 152.698H86.5726V157.982ZM88.4881 155.723C88.4881 155.47 88.5001 155.219 88.5242 154.968C88.5507 154.717 88.5953 154.478 88.6579 154.249C88.723 154.018 88.8109 153.803 88.9217 153.606C89.0326 153.408 89.1735 153.237 89.3446 153.092C89.5157 152.945 89.7205 152.831 89.959 152.749C90.1975 152.665 90.477 152.623 90.7974 152.623C90.8432 152.623 90.8938 152.624 90.9492 152.626C91.0046 152.629 91.0601 152.633 91.1155 152.641C91.1733 152.645 91.2275 152.653 91.2781 152.662C91.3311 152.67 91.3781 152.679 91.4191 152.691V153.251C91.3347 153.222 91.2396 153.201 91.1335 153.186C91.0275 153.172 90.9227 153.165 90.8191 153.165C90.6023 153.165 90.4107 153.191 90.2445 153.244C90.0807 153.295 89.9385 153.367 89.818 153.461C89.6976 153.555 89.5964 153.667 89.5145 153.797C89.4349 153.927 89.3699 154.072 89.3193 154.231C89.2687 154.387 89.2314 154.555 89.2073 154.733C89.1832 154.911 89.1675 155.097 89.1603 155.29H89.2036C89.2518 155.203 89.3097 155.122 89.3771 155.048C89.447 154.97 89.5277 154.905 89.6193 154.852C89.7108 154.797 89.8132 154.754 89.9265 154.722C90.0421 154.691 90.171 154.675 90.3132 154.675C90.542 154.675 90.7493 154.711 90.9348 154.784C91.1203 154.854 91.2781 154.957 91.4082 155.095C91.5383 155.232 91.6383 155.401 91.7082 155.601C91.7805 155.798 91.8166 156.025 91.8166 156.28C91.8166 156.555 91.7793 156.802 91.7046 157.021C91.6299 157.24 91.5227 157.427 91.3829 157.581C91.2432 157.733 91.0745 157.85 90.8769 157.932C90.6794 158.013 90.4577 158.054 90.212 158.054C89.971 158.054 89.7445 158.007 89.5325 157.914C89.3229 157.82 89.141 157.676 88.9868 157.483C88.8326 157.291 88.7109 157.049 88.6218 156.757C88.5326 156.465 88.4881 156.121 88.4881 155.723ZM90.2047 157.502C90.3493 157.502 90.4806 157.477 90.5987 157.429C90.7191 157.379 90.8227 157.304 90.9095 157.205C90.9962 157.104 91.0625 156.977 91.1082 156.826C91.1564 156.671 91.1805 156.49 91.1805 156.28C91.1805 156.111 91.1601 155.961 91.1191 155.828C91.0805 155.693 91.0215 155.579 90.942 155.485C90.8625 155.391 90.7625 155.319 90.642 155.268C90.524 155.217 90.3854 155.192 90.2264 155.192C90.065 155.192 89.9168 155.221 89.7819 155.279C89.6494 155.334 89.5361 155.408 89.4422 155.499C89.3482 155.588 89.2747 155.691 89.2217 155.807C89.1711 155.922 89.1458 156.038 89.1458 156.153C89.1458 156.315 89.1675 156.476 89.2109 156.638C89.2567 156.797 89.3229 156.94 89.4096 157.068C89.4988 157.196 89.6096 157.3 89.7421 157.382C89.8747 157.462 90.0289 157.502 90.2047 157.502ZM93.9236 155.644H92.525V155.102H93.9236V153.696H94.4657V155.102H95.8643V155.644H94.4657V157.035H93.9236V155.644Z" fill="white"/>
<rect x="80.4961" y="150.242" width="19.2441" height="9.62205" rx="1.85039" stroke="white" stroke-width="0.740158"/>
<circle cx="25.1102" cy="172.396" r="1.11024" fill="#E1E1E1" fill-opacity="0.5"/>
<path d="M32.3434 175.896H31.3973V169.328H29.2823V168.498H34.4533V169.328H32.3434V175.896ZM38.916 175.896V172.318C38.916 171.88 38.8266 171.551 38.6478 171.332C38.4724 171.112 38.1958 171.003 37.818 171.003C37.5448 171.003 37.3154 171.047 37.1299 171.134C36.9444 171.222 36.7943 171.352 36.6796 171.524C36.5683 171.696 36.4873 171.907 36.4367 172.156C36.3895 172.406 36.3659 172.693 36.3659 173.017V175.896H35.445V168.023H36.3659V170.36L36.3254 171.089H36.376C36.4603 170.944 36.5598 170.819 36.6745 170.714C36.7926 170.607 36.9208 170.517 37.0591 170.446C37.1974 170.375 37.3441 170.323 37.4993 170.289C37.6544 170.256 37.813 170.239 37.9749 170.239C38.5921 170.239 39.0559 170.401 39.3663 170.725C39.68 171.045 39.8368 171.559 39.8368 172.268V175.896H38.916ZM43.9503 170.239C44.0482 170.239 44.1578 170.244 44.2792 170.254C44.4006 170.261 44.5052 170.273 44.5929 170.289L44.4715 171.139C44.377 171.123 44.2792 171.109 44.178 171.099C44.0802 171.086 43.9874 171.079 43.8997 171.079C43.6872 171.079 43.4933 171.123 43.3179 171.21C43.1425 171.295 42.9907 171.418 42.8625 171.58C42.7377 171.738 42.6399 171.93 42.569 172.156C42.5016 172.379 42.4678 172.627 42.4678 172.9V175.896H41.547V170.34H42.2958L42.4071 171.357H42.4476C42.5319 171.212 42.6213 171.072 42.7158 170.937C42.8136 170.802 42.9215 170.684 43.0396 170.583C43.161 170.478 43.2959 170.396 43.4444 170.335C43.5928 170.271 43.7614 170.239 43.9503 170.239ZM46.6067 175.896H45.6858V170.34H46.6067V175.896ZM45.615 168.837C45.615 168.635 45.6656 168.488 45.7668 168.397C45.8713 168.306 45.9995 168.261 46.1513 168.261C46.2255 168.261 46.2946 168.272 46.3587 168.296C46.4262 168.316 46.4835 168.35 46.5308 168.397C46.5814 168.444 46.6202 168.505 46.6471 168.579C46.6775 168.65 46.6927 168.736 46.6927 168.837C46.6927 169.033 46.6387 169.18 46.5308 169.278C46.4262 169.372 46.2997 169.419 46.1513 169.419C45.9995 169.419 45.8713 169.372 45.7668 169.278C45.6656 169.183 45.615 169.036 45.615 168.837ZM49.2883 175.896H48.3674V168.023H49.2883V175.896ZM51.9699 175.896H51.049V168.023H51.9699V175.896ZM55.9266 175.997C55.5555 175.997 55.2165 175.934 54.9096 175.81C54.6026 175.685 54.3378 175.503 54.1152 175.263C53.896 175.024 53.7256 174.727 53.6042 174.373C53.4828 174.018 53.422 173.614 53.422 173.158C53.422 172.7 53.4777 172.29 53.589 171.929C53.7003 171.568 53.8572 171.263 54.0596 171.013C54.2619 170.76 54.5031 170.568 54.7831 170.436C55.0664 170.305 55.3784 170.239 55.7191 170.239C56.0531 170.239 56.3533 170.3 56.6197 170.421C56.8862 170.539 57.1122 170.708 57.2977 170.927C57.4833 171.143 57.6249 171.404 57.7228 171.711C57.8239 172.015 57.8745 172.352 57.8745 172.723V173.295H54.3733C54.3901 173.946 54.5267 174.425 54.7831 174.732C55.0428 175.039 55.4274 175.192 55.9367 175.192C56.1087 175.192 56.2673 175.184 56.4123 175.167C56.5607 175.15 56.7024 175.126 56.8373 175.096C56.9756 175.062 57.1088 175.022 57.237 174.975C57.3652 174.924 57.4951 174.868 57.6266 174.808V175.627C57.4917 175.691 57.3585 175.747 57.2269 175.794C57.0987 175.842 56.9655 175.88 56.8272 175.911C56.6923 175.941 56.5506 175.963 56.4022 175.977C56.2571 175.99 56.0986 175.997 55.9266 175.997ZM55.6989 171.003C55.3144 171.003 55.0091 171.134 54.7831 171.398C54.5605 171.661 54.4306 172.043 54.3935 172.546H56.8828C56.8828 172.317 56.8592 172.108 56.812 171.919C56.7682 171.726 56.6973 171.563 56.5995 171.428C56.5051 171.293 56.3836 171.188 56.2352 171.114C56.0868 171.04 55.908 171.003 55.6989 171.003ZM61.6794 170.239C61.7772 170.239 61.8869 170.244 62.0083 170.254C62.1297 170.261 62.2343 170.273 62.322 170.289L62.2006 171.139C62.1061 171.123 62.0083 171.109 61.9071 171.099C61.8093 171.086 61.7165 171.079 61.6288 171.079C61.4163 171.079 61.2224 171.123 61.047 171.21C60.8716 171.295 60.7198 171.418 60.5916 171.58C60.4668 171.738 60.369 171.93 60.2981 172.156C60.2307 172.379 60.1969 172.627 60.1969 172.9V175.896H59.2761V170.34H60.0249L60.1362 171.357H60.1767C60.261 171.212 60.3504 171.072 60.4449 170.937C60.5427 170.802 60.6506 170.684 60.7687 170.583C60.8901 170.478 61.025 170.396 61.1735 170.335C61.3219 170.271 61.4905 170.239 61.6794 170.239Z" fill="white"/>
<g clip-path="url(#clip3)">
<circle cx="75.6929" cy="172.396" r="1.11024" fill="#E1E1E1" fill-opacity="0.5"/>
<path d="M86.2199 172.705C86.2199 173.329 86.139 173.877 85.9771 174.349C85.8152 174.818 85.5807 175.211 85.2738 175.528C84.9668 175.842 84.589 176.078 84.1404 176.236C83.6952 176.395 83.1892 176.474 82.6225 176.474H80.7707V169.077H82.83C83.346 169.077 83.8132 169.155 84.2315 169.31C84.6497 169.465 85.0056 169.696 85.2991 170.003C85.5925 170.307 85.8185 170.684 85.9771 171.136C86.139 171.588 86.2199 172.111 86.2199 172.705ZM85.2232 172.735C85.2232 172.243 85.1675 171.818 85.0562 171.46C84.9449 171.099 84.783 170.802 84.5705 170.57C84.358 170.337 84.0966 170.165 83.7862 170.054C83.4759 169.939 83.1234 169.882 82.7288 169.882H81.7118V175.665H82.5314C83.4219 175.665 84.0932 175.419 84.5452 174.926C84.9972 174.434 85.2232 173.703 85.2232 172.735ZM90.1412 170.818C90.239 170.818 90.3486 170.823 90.4701 170.833C90.5915 170.84 90.6961 170.851 90.7838 170.868L90.6623 171.718C90.5679 171.701 90.4701 171.688 90.3689 171.678C90.271 171.664 90.1783 171.657 90.0906 171.657C89.8781 171.657 89.6841 171.701 89.5087 171.789C89.3333 171.873 89.1815 171.996 89.0533 172.158C88.9285 172.317 88.8307 172.509 88.7599 172.735C88.6924 172.958 88.6587 173.206 88.6587 173.479V176.474H87.7378V170.919H88.4867L88.598 171.936H88.6385C88.7228 171.791 88.8122 171.651 88.9066 171.516C89.0044 171.381 89.1124 171.263 89.2304 171.162C89.3519 171.057 89.4868 170.974 89.6352 170.914C89.7836 170.85 89.9523 170.818 90.1412 170.818ZM94.9074 176.474L94.7202 175.705H94.6797C94.5684 175.857 94.4571 175.989 94.3458 176.1C94.2345 176.208 94.113 176.297 93.9815 176.368C93.8499 176.439 93.7032 176.491 93.5413 176.525C93.3794 176.559 93.1922 176.575 92.9797 176.575C92.7469 176.575 92.5327 176.542 92.3371 176.474C92.1414 176.41 91.9711 176.311 91.826 176.176C91.6844 176.037 91.5731 175.865 91.4921 175.66C91.4112 175.451 91.3707 175.204 91.3707 174.921C91.3707 174.368 91.5646 173.943 91.9525 173.646C92.3438 173.349 92.9375 173.187 93.7335 173.16L94.6645 173.125V172.776C94.6645 172.55 94.6392 172.361 94.5886 172.209C94.5414 172.057 94.4706 171.936 94.3761 171.845C94.285 171.75 94.1704 171.683 94.0321 171.642C93.8971 171.602 93.742 171.582 93.5666 171.582C93.2866 171.582 93.0252 171.622 92.7823 171.703C92.5428 171.784 92.3118 171.882 92.0892 171.996L91.7653 171.303C92.0149 171.168 92.2932 171.054 92.6002 170.959C92.9071 170.865 93.2293 170.818 93.5666 170.818C93.9106 170.818 94.2075 170.853 94.4571 170.924C94.7101 170.991 94.9175 171.101 95.0794 171.253C95.2447 171.401 95.3678 171.592 95.4488 171.824C95.5297 172.057 95.5702 172.339 95.5702 172.669V176.474H94.9074ZM93.2175 175.832C93.4232 175.832 93.6138 175.8 93.7892 175.736C93.9646 175.672 94.1164 175.575 94.2446 175.447C94.3727 175.316 94.4723 175.152 94.5431 174.956C94.6173 174.757 94.6544 174.525 94.6544 174.258V173.757L93.9309 173.793C93.6273 173.806 93.3726 173.84 93.1669 173.894C92.9611 173.948 92.7958 174.024 92.671 174.122C92.5496 174.216 92.4619 174.332 92.4079 174.471C92.3539 174.606 92.327 174.759 92.327 174.931C92.327 175.241 92.4079 175.469 92.5698 175.614C92.7351 175.759 92.951 175.832 93.2175 175.832ZM103.934 176.474V172.897C103.934 172.459 103.85 172.13 103.681 171.91C103.512 171.691 103.251 171.582 102.897 171.582C102.65 171.582 102.441 171.622 102.269 171.703C102.097 171.781 101.956 171.897 101.844 172.052C101.736 172.204 101.657 172.395 101.606 172.624C101.556 172.85 101.53 173.111 101.53 173.408V176.474H100.605V172.897C100.605 172.459 100.52 172.13 100.352 171.91C100.186 171.691 99.9266 171.582 99.5724 171.582C99.3127 171.582 99.0951 171.625 98.9197 171.713C98.7443 171.801 98.6026 171.931 98.4947 172.103C98.3901 172.275 98.3142 172.486 98.267 172.735C98.2232 172.985 98.2012 173.272 98.2012 173.595V176.474H97.2804V170.919H98.0292L98.1608 171.668H98.2114C98.2923 171.523 98.3884 171.398 98.4998 171.293C98.6111 171.185 98.7325 171.096 98.8641 171.025C98.999 170.954 99.1406 170.902 99.2891 170.868C99.4409 170.834 99.5943 170.818 99.7495 170.818C100.154 170.818 100.49 170.892 100.756 171.04C101.026 171.189 101.225 171.421 101.353 171.738H101.394C101.482 171.58 101.586 171.443 101.708 171.329C101.832 171.214 101.967 171.119 102.112 171.045C102.261 170.968 102.416 170.91 102.578 170.873C102.74 170.836 102.905 170.818 103.074 170.818C103.664 170.818 104.108 170.98 104.404 171.303C104.705 171.624 104.855 172.138 104.855 172.847V176.474H103.934ZM109.702 176.474L109.515 175.705H109.474C109.363 175.857 109.252 175.989 109.14 176.1C109.029 176.208 108.907 176.297 108.776 176.368C108.644 176.439 108.498 176.491 108.336 176.525C108.174 176.559 107.987 176.575 107.774 176.575C107.541 176.575 107.327 176.542 107.132 176.474C106.936 176.41 106.766 176.311 106.621 176.176C106.479 176.037 106.368 175.865 106.287 175.66C106.206 175.451 106.165 175.204 106.165 174.921C106.165 174.368 106.359 173.943 106.747 173.646C107.138 173.349 107.732 173.187 108.528 173.16L109.459 173.125V172.776C109.459 172.55 109.434 172.361 109.383 172.209C109.336 172.057 109.265 171.936 109.171 171.845C109.08 171.75 108.965 171.683 108.827 171.642C108.692 171.602 108.536 171.582 108.361 171.582C108.081 171.582 107.82 171.622 107.577 171.703C107.337 171.784 107.106 171.882 106.884 171.996L106.56 171.303C106.809 171.168 107.088 171.054 107.395 170.959C107.702 170.865 108.024 170.818 108.361 170.818C108.705 170.818 109.002 170.853 109.252 170.924C109.505 170.991 109.712 171.101 109.874 171.253C110.039 171.401 110.162 171.592 110.243 171.824C110.324 172.057 110.365 172.339 110.365 172.669V176.474H109.702ZM108.012 175.832C108.218 175.832 108.408 175.8 108.584 175.736C108.759 175.672 108.911 175.575 109.039 175.447C109.167 175.316 109.267 175.152 109.338 174.956C109.412 174.757 109.449 174.525 109.449 174.258V173.757L108.725 173.793C108.422 173.806 108.167 173.84 107.961 173.894C107.756 173.948 107.59 174.024 107.465 174.122C107.344 174.216 107.256 174.332 107.202 174.471C107.148 174.606 107.121 174.759 107.121 174.931C107.121 175.241 107.202 175.469 107.364 175.614C107.53 175.759 107.745 175.832 108.012 175.832Z" fill="white"/>
</g>
<g clip-path="url(#clip4)">
<path d="M202.444 162.957C198.222 162.957 194.844 166.335 194.844 170.556C194.844 174.778 198.222 178.156 202.444 178.156C206.666 178.156 210.043 174.778 210.043 170.556C210.043 166.335 206.666 162.957 202.444 162.957ZM202.444 177.235C198.794 177.235 195.766 174.206 195.766 170.556C195.766 166.907 198.794 163.878 202.444 163.878C206.094 163.878 209.122 166.907 209.122 170.556C209.122 174.206 206.094 177.235 202.444 177.235ZM199.066 169.712V171.401H205.821V169.712H199.066Z" fill="white"/>
</g>
<path d="M227.212 167.698C226.704 167.185 226.175 166.739 225.624 166.359C225.074 165.979 224.558 165.694 224.077 165.505C223.595 165.315 223.154 165.224 222.754 165.231C222.353 165.239 222.04 165.358 221.815 165.589C221.762 165.641 221.716 165.698 221.679 165.762C221.642 165.827 221.615 165.877 221.599 165.912C221.583 165.948 221.561 166.013 221.535 166.105C221.508 166.197 221.489 166.256 221.479 166.282L218.496 175.702L218.68 175.887C218.472 176.025 218.286 176.187 218.123 176.371C217.96 176.556 217.817 176.707 217.694 176.825C217.571 176.943 217.424 177.026 217.253 177.072C217.215 177.082 217.169 177.117 217.112 177.176C217.056 177.235 217.028 177.287 217.028 177.333C217.028 177.426 217.076 177.503 217.173 177.564C217.269 177.626 217.376 177.657 217.493 177.657C217.643 177.657 217.787 177.599 217.926 177.483C218.065 177.368 218.206 177.221 218.347 177.041C218.489 176.861 218.592 176.743 218.656 176.687C218.795 176.569 218.95 176.456 219.121 176.348L219.33 176.541L228.808 173.455C229.016 173.393 229.176 173.301 229.289 173.178C229.513 172.947 229.63 172.627 229.638 172.219C229.646 171.812 229.556 171.363 229.369 170.873C229.182 170.383 228.903 169.859 228.531 169.303C228.159 168.746 227.72 168.211 227.212 167.698ZM226.346 168.537C227.164 169.337 227.785 170.103 228.21 170.834C228.635 171.565 228.738 172.046 228.519 172.277C228.3 172.508 227.821 172.423 227.084 172.023C226.346 171.623 225.571 171.025 224.758 170.23C223.935 169.43 223.311 168.665 222.886 167.937C222.461 167.208 222.358 166.726 222.577 166.49C222.796 166.259 223.276 166.343 224.016 166.744C224.757 167.144 225.533 167.742 226.346 168.537ZM224.59 171.723C224.98 172.057 225.368 172.349 225.753 172.6C225.758 172.611 225.892 172.852 226.153 173.324L225.48 173.547C225.159 172.967 224.862 172.359 224.59 171.723ZM221.855 168.198C221.973 168.45 222.136 168.755 222.345 169.114C222.516 169.853 222.784 170.653 223.15 171.515C223.517 172.377 223.916 173.185 224.349 173.939L223.684 174.155C223.181 173.262 222.743 172.327 222.369 171.35C221.994 170.372 221.765 169.509 221.679 168.76L221.855 168.198ZM220.925 171.015C221.299 172.164 221.826 173.344 222.505 174.555L221.847 174.778C221.318 173.804 220.901 172.888 220.597 172.031L220.925 171.015ZM220.003 173.824C220.212 174.296 220.433 174.745 220.669 175.171L220.011 175.394C219.936 175.255 219.829 175.043 219.69 174.755L220.003 173.824ZM225.897 162.88L226.298 164.042L225.263 164.766H226.538L226.931 165.928L227.324 164.766H228.591L227.565 164.042L227.966 162.888L226.931 163.604L225.897 162.88ZM223.652 162.88L223.435 163.935L224.534 164.142L224.75 163.088L223.652 162.88ZM230.876 166.051L231.758 165.166L232.905 165.705L232.312 164.627L233.202 163.758L231.943 163.965L231.35 162.88L231.173 164.096L229.914 164.304L231.061 164.835L230.876 166.051ZM230.58 167.944L231.646 168.621L231.309 169.807L232.304 169.037L233.362 169.714L232.921 168.56L233.916 167.806L232.641 167.86L232.192 166.713L231.863 167.89L230.58 167.944ZM230.123 165.089L227.733 166.967L228.03 167.313L230.419 165.435L230.123 165.089ZM230.957 168.722L229.088 168.56L229.04 169.006L230.917 169.168L230.957 168.722ZM231.141 170.876L230.796 171.908L231.863 172.239L232.216 171.215L231.141 170.876Z" fill="white"/>
<path d="M275.222 172.667C274.827 172.669 274.438 172.76 274.083 172.932C273.727 173.105 273.415 173.355 273.17 173.664L269.312 171.253C269.453 170.799 269.453 170.313 269.312 169.86L273.17 167.448C273.561 167.933 274.112 168.263 274.724 168.381C275.336 168.499 275.97 168.396 276.513 168.091C277.057 167.787 277.475 167.299 277.693 166.716C277.912 166.132 277.917 165.49 277.708 164.903C277.498 164.316 277.088 163.822 276.549 163.509C276.01 163.196 275.378 163.083 274.764 163.191C274.15 163.3 273.595 163.622 273.196 164.1C272.797 164.579 272.58 165.183 272.584 165.807C272.586 166.043 272.622 166.277 272.689 166.503L268.832 168.915C268.491 168.486 268.026 168.174 267.5 168.022C266.974 167.869 266.413 167.884 265.896 168.065C265.379 168.245 264.931 168.582 264.614 169.028C264.297 169.475 264.127 170.009 264.127 170.556C264.127 171.104 264.297 171.638 264.614 172.084C264.931 172.531 265.379 172.867 265.896 173.048C266.413 173.228 266.974 173.243 267.5 173.091C268.026 172.938 268.491 172.626 268.832 172.197L272.689 174.609C272.622 174.835 272.586 175.07 272.584 175.306C272.584 175.828 272.739 176.338 273.029 176.772C273.318 177.206 273.731 177.544 274.213 177.744C274.695 177.943 275.225 177.995 275.737 177.894C276.249 177.792 276.719 177.541 277.088 177.172C277.457 176.803 277.709 176.332 277.81 175.821C277.912 175.309 277.86 174.778 277.66 174.296C277.461 173.814 277.122 173.402 276.688 173.112C276.255 172.822 275.744 172.667 275.222 172.667V172.667ZM275.222 164.223C275.536 164.223 275.842 164.316 276.102 164.49C276.362 164.664 276.565 164.911 276.685 165.201C276.805 165.49 276.836 165.808 276.775 166.115C276.714 166.423 276.563 166.705 276.342 166.926C276.121 167.148 275.838 167.298 275.531 167.359C275.224 167.42 274.906 167.389 274.617 167.269C274.327 167.149 274.08 166.947 273.906 166.686C273.732 166.426 273.639 166.12 273.639 165.807C273.639 165.387 273.806 164.984 274.103 164.687C274.4 164.39 274.803 164.223 275.222 164.223V164.223ZM266.779 172.139C266.466 172.139 266.16 172.047 265.899 171.873C265.639 171.699 265.436 171.451 265.316 171.162C265.196 170.873 265.165 170.554 265.226 170.247C265.287 169.94 265.438 169.658 265.659 169.437C265.881 169.215 266.163 169.064 266.47 169.003C266.777 168.942 267.095 168.974 267.385 169.093C267.674 169.213 267.921 169.416 268.095 169.677C268.269 169.937 268.362 170.243 268.362 170.556C268.362 170.976 268.195 171.379 267.898 171.676C267.601 171.973 267.199 172.139 266.779 172.139ZM275.222 176.889C274.909 176.889 274.603 176.796 274.343 176.622C274.083 176.448 273.88 176.201 273.76 175.912C273.64 175.622 273.609 175.304 273.67 174.997C273.731 174.69 273.882 174.408 274.103 174.186C274.324 173.965 274.607 173.814 274.914 173.753C275.221 173.692 275.539 173.723 275.828 173.843C276.118 173.963 276.365 174.166 276.539 174.426C276.713 174.687 276.806 174.993 276.806 175.306C276.806 175.726 276.639 176.128 276.342 176.425C276.045 176.722 275.642 176.889 275.222 176.889V176.889Z" fill="white"/>
<path d="M299.481 163.52H290.524C290.03 163.52 289.552 163.693 289.173 164.01C288.793 164.326 288.537 164.765 288.448 165.251L287.554 170.176C287.499 170.481 287.511 170.793 287.589 171.093C287.668 171.392 287.811 171.67 288.009 171.908C288.207 172.145 288.455 172.337 288.735 172.468C289.015 172.599 289.321 172.667 289.63 172.667H292.839L292.445 173.673C292.281 174.114 292.226 174.588 292.286 175.054C292.345 175.52 292.517 175.965 292.786 176.351C293.055 176.736 293.414 177.05 293.831 177.267C294.248 177.483 294.712 177.595 295.182 177.593C295.317 177.592 295.45 177.553 295.563 177.479C295.677 177.406 295.767 177.301 295.822 177.178L297.828 172.667H299.481C300.041 172.667 300.578 172.445 300.974 172.049C301.37 171.653 301.592 171.116 301.592 170.556V165.631C301.592 165.071 301.37 164.534 300.974 164.138C300.578 163.742 300.041 163.52 299.481 163.52ZM296.667 171.816L294.753 176.122C294.557 176.063 294.375 175.964 294.219 175.832C294.063 175.7 293.935 175.537 293.844 175.354C293.753 175.171 293.701 174.971 293.69 174.766C293.679 174.562 293.71 174.358 293.782 174.166L294.155 173.16C294.234 172.947 294.261 172.718 294.233 172.493C294.205 172.268 294.123 172.053 293.993 171.866C293.864 171.679 293.691 171.527 293.49 171.421C293.289 171.316 293.066 171.26 292.839 171.26H289.63C289.527 171.26 289.425 171.238 289.331 171.194C289.237 171.15 289.155 171.086 289.088 171.007C289.021 170.928 288.971 170.836 288.943 170.736C288.915 170.637 288.909 170.532 288.927 170.43L289.82 165.504C289.85 165.34 289.937 165.192 290.066 165.087C290.195 164.981 290.357 164.925 290.524 164.927H296.667V171.816ZM300.185 170.556C300.185 170.743 300.111 170.922 299.979 171.054C299.847 171.186 299.668 171.26 299.481 171.26H298.074V164.927H299.481C299.668 164.927 299.847 165.001 299.979 165.133C300.111 165.265 300.185 165.444 300.185 165.631V170.556Z" fill="white"/>
<g clip-path="url(#clip5)">
<path d="M248.308 167.358C248.697 167.358 249.012 167.043 249.012 166.654C249.012 166.266 248.697 165.951 248.308 165.951C247.92 165.951 247.605 166.266 247.605 166.654C247.605 167.043 247.92 167.358 248.308 167.358Z" fill="white"/>
<path d="M250.302 173.175H249.129V168.296H247.37C247.214 168.296 247.065 168.36 246.955 168.475C246.845 168.589 246.784 168.744 246.784 168.906C246.784 169.068 246.845 169.223 246.955 169.337C247.065 169.452 247.214 169.516 247.37 169.516H247.956V173.175H246.784C246.628 173.175 246.479 173.239 246.369 173.353C246.259 173.468 246.197 173.623 246.197 173.785C246.197 173.946 246.259 174.101 246.369 174.216C246.479 174.33 246.628 174.394 246.784 174.394H250.302C250.457 174.394 250.606 174.33 250.716 174.216C250.826 174.101 250.888 173.946 250.888 173.785C250.888 173.623 250.826 173.468 250.716 173.353C250.606 173.239 250.457 173.175 250.302 173.175Z" fill="white"/>
<path d="M248.212 162.88C246.751 162.88 245.322 163.314 244.108 164.125C242.893 164.937 241.946 166.091 241.386 167.441C240.827 168.791 240.681 170.277 240.966 171.71C241.251 173.143 241.955 174.459 242.988 175.493C244.021 176.526 245.338 177.23 246.771 177.515C248.204 177.8 249.69 177.653 251.04 177.094C252.39 176.535 253.543 175.588 254.355 174.373C255.167 173.158 255.6 171.73 255.6 170.268C255.6 168.309 254.822 166.43 253.436 165.044C252.051 163.659 250.172 162.88 248.212 162.88V162.88ZM248.212 176.425C246.994 176.425 245.804 176.064 244.792 175.388C243.779 174.711 242.99 173.75 242.524 172.625C242.058 171.5 241.936 170.262 242.174 169.067C242.411 167.873 242.998 166.776 243.859 165.915C244.72 165.054 245.817 164.467 247.011 164.23C248.205 163.992 249.443 164.114 250.568 164.58C251.693 165.046 252.655 165.835 253.331 166.848C254.008 167.86 254.369 169.051 254.369 170.268C254.369 171.077 254.21 171.878 253.9 172.625C253.591 173.372 253.137 174.05 252.566 174.622C251.994 175.194 251.315 175.647 250.568 175.957C249.821 176.266 249.021 176.425 248.212 176.425V176.425Z" fill="white"/>
</g>
</g>
<path d="M162.578 65.5611C167.324 65.4776 171.988 66.8035 175.981 69.3709C179.974 71.9382 183.115 75.6319 185.008 79.9847C186.902 84.3376 187.462 89.1541 186.618 93.8252C185.773 98.4963 183.563 102.812 180.266 106.227C176.969 109.642 172.734 112.003 168.095 113.01C163.457 114.018 158.623 113.628 154.207 111.888C149.79 110.149 145.988 107.139 143.282 103.24C140.576 99.3398 139.087 94.7251 139.004 89.9791C138.892 83.6149 141.313 77.4669 145.734 72.8876C150.155 68.3084 156.214 65.6729 162.578 65.5611V65.5611ZM162.508 61.5617C156.971 61.659 151.587 63.396 147.037 66.5532C142.488 69.7103 138.976 74.1457 136.947 79.2985C134.918 84.4512 134.463 90.09 135.638 95.5016C136.814 100.913 139.568 105.855 143.552 109.701C147.536 113.548 152.571 116.126 158.021 117.111C163.471 118.096 169.09 117.443 174.168 115.234C179.246 113.025 183.556 109.36 186.551 104.702C189.546 100.044 191.093 94.6023 190.996 89.0653C190.865 81.6404 187.791 74.5714 182.448 69.4135C177.106 64.2556 169.933 61.4312 162.508 61.5617V61.5617Z" fill="white" fill-opacity="0.6"/>
<path d="M155.247 103.696C154.888 103.702 154.534 103.611 154.222 103.434C153.921 103.262 153.669 103.015 153.492 102.716C153.315 102.418 153.219 102.078 153.212 101.731L152.791 77.735C152.785 77.3879 152.869 77.0453 153.036 76.7407C153.202 76.4362 153.445 76.1802 153.74 75.998C154.041 75.8171 154.384 75.7187 154.735 75.7125C155.086 75.7064 155.433 75.7927 155.74 75.9629L177.947 87.5744C178.268 87.7402 178.538 87.9895 178.728 88.2961C178.918 88.6026 179.022 88.9549 179.028 89.3157C179.035 89.6764 178.943 90.0322 178.764 90.3452C178.584 90.6582 178.324 90.9169 178.009 91.0939L156.224 103.479C155.922 103.633 155.586 103.707 155.247 103.696V103.696ZM156.849 81.0241L157.153 98.3015L172.818 89.3848L156.849 81.0241Z" fill="white" fill-opacity="0.6"/>
<defs>
<linearGradient id="paint0_linear" x1="92.75" y1="81.1765" x2="52.8637" y2="38.8258" gradientUnits="userSpaceOnUse">
<stop stop-color="#1B1B1B"/>
<stop offset="1" stop-color="#1B1B1B" stop-opacity="0"/>
</linearGradient>
<linearGradient id="paint1_linear" x1="13.8879" y1="148" x2="150.493" y2="148.676" gradientUnits="userSpaceOnUse">
<stop stop-opacity="0"/>
<stop stop-opacity="0"/>
<stop offset="1"/>
</linearGradient>
<clipPath id="clip0">
<rect width="179" height="326" fill="white" transform="translate(326 21) rotate(90)"/>
</clipPath>
<clipPath id="clip1">
<rect width="44.4211" height="11.2131" fill="white" transform="translate(29.1753 90.725)"/>
</clipPath>
<clipPath id="clip2">
<rect width="10.7818" height="10.7818" fill="white" transform="translate(29.1753 90.9407)"/>
</clipPath>
<clipPath id="clip3">
<rect width="37.0079" height="11.8425" fill="white" transform="translate(74.5826 166.474)"/>
</clipPath>
<clipPath id="clip4">
<rect width="16.8873" height="16.8873" fill="white" transform="translate(194 162.113)"/>
</clipPath>
<clipPath id="clip5">
<rect width="16.8873" height="16.8873" fill="white" transform="translate(240.056 162.113)"/>
</clipPath>
</defs>
</svg>
