<svg width="326" height="200" viewBox="0 0 326 200" fill="none" xmlns="http://www.w3.org/2000/svg">
<path d="M20 31C20 24.9249 24.9249 20 31 20H53C59.0751 20 64 24.9249 64 31C64 37.0751 59.0751 42 53 42H31C24.9249 42 20 37.0751 20 31Z" fill="white" fill-opacity="0.8"/>
<path fill-rule="evenodd" clip-rule="evenodd" d="M27 27.7191V36H28.3736C28.4165 36 28.5195 35.9753 28.5882 35.8764V33.2397C30.1335 34.3109 32.8807 33.7753 32.8807 30.5206C32.8807 27.5131 30.2193 26.8127 28.4165 28.2135C28.4022 28.0762 28.3221 27.785 28.116 27.7191H27ZM30.6915 29.1199C29.9704 28.4936 28.9888 28.8589 28.5882 29.1199V32.0861C29.6871 32.8112 30.4483 32.3883 30.6915 32.0861C31.0006 31.9543 31.0778 30.9875 31.0778 30.5206C31.1122 29.7955 30.8346 29.2846 30.6915 29.1199Z" fill="#00A8E1"/>
<path d="M34.0396 33.4457V27.8839C34.0396 27.829 34.074 27.7109 34.2113 27.6779H35.2844C35.3417 27.6367 35.499 27.7356 35.6707 28.4607C35.6851 28.5019 35.7308 28.5678 35.7995 28.5019C35.8854 28.4195 36.7009 27.5543 37.5594 27.6367C37.9028 27.6367 37.9887 27.774 37.9887 27.8427V28.9963C37.9744 29.0649 37.9114 29.2022 37.774 29.2022C36.5722 29.1363 35.9569 29.3396 35.7995 29.4494V33.4457C35.7995 33.4869 35.7738 33.5775 35.6707 33.6105H34.1684C34.1255 33.6105 34.0396 33.5775 34.0396 33.4457Z" fill="#00A8E1"/>
<path d="M39.0189 27.6779H40.3066C40.3781 27.6916 40.5212 27.7521 40.5212 27.8839V33.4457C40.5069 33.4869 40.4525 33.5775 40.3495 33.6105H38.9759C38.9187 33.5968 38.7956 33.5446 38.7613 33.4457L38.8042 27.8839C38.8042 27.829 38.8472 27.7109 39.0189 27.6779Z" fill="#00A8E1"/>
<path d="M39.3622 26.7303C39.491 26.7441 39.7915 26.7633 39.9632 26.7303C40.1349 26.6974 40.3209 26.5793 40.3924 26.5243C40.5641 26.3596 40.65 26.1124 40.65 25.8652C40.65 25.5356 40.5641 25.412 40.4354 25.2472C40.3495 25.1785 40.1778 25 39.9632 25H39.3622C39.2049 25.0412 38.8643 25.1483 38.7613 25.412C38.6583 25.6757 38.6755 25.7553 38.6755 25.9064C38.6755 26.0574 38.7579 26.3563 38.933 26.5243C39.1081 26.6924 39.2907 26.7166 39.3622 26.7303Z" fill="#00A8E1"/>
<path d="M43.6547 28.2547C43.6118 28.0899 43.4916 27.7521 43.3542 27.7191C43.2169 27.6861 42.5244 27.7054 42.1953 27.7191C42.138 27.7191 42.0236 27.7521 42.0236 27.8839V33.4457C42.0379 33.4869 42.0922 33.5775 42.1953 33.6105C42.2983 33.6434 43.1539 33.6242 43.5688 33.6105C43.6261 33.5968 43.7577 33.5446 43.8264 33.4457L43.7835 29.161C44.0267 29.0237 44.6248 28.7655 45.0712 28.8315C45.6292 28.8727 45.8009 29.1336 45.8438 29.2846L45.8868 33.4457C45.9011 33.5006 45.9554 33.6105 46.0585 33.6105H47.475C47.5179 33.5968 47.6123 33.5446 47.6467 33.4457V29.161C47.847 29.01 48.3764 28.7243 48.8915 28.7903C49.4066 28.8562 49.6212 29.1748 49.6641 29.3258V33.3633C49.6641 33.432 49.6985 33.5775 49.8358 33.6105H51.3382C51.3811 33.583 51.467 33.4951 51.467 33.3633V29.0787C51.4383 28.5705 51.0549 27.5461 49.75 27.5131C48.4451 27.4801 47.661 27.9938 47.4321 28.2547C47.2747 28.0075 46.7453 27.5131 45.8868 27.5131C45.0283 27.5131 44.041 28.0075 43.6547 28.2547Z" fill="#00A8E1"/>
<path fill-rule="evenodd" clip-rule="evenodd" d="M54.1283 31.0974C54.071 31.8252 54.6605 33.0831 57.4764 32.2921C57.6481 32.2262 57.691 32.4569 57.691 32.5805V33.1985C57.5336 33.4045 56.9098 33.8165 55.6735 33.8165C53.2698 33.8165 52.583 32.2235 52.5401 31.427C52.3827 30.7678 52.3598 29.194 53.5273 28.1723C55.1756 26.9858 56.8182 27.6779 57.4335 28.1723C57.8198 28.5156 58.395 29.4494 57.6052 30.4382C56.8153 31.427 54.9581 31.2896 54.1283 31.0974ZM55.4589 28.7079C54.3944 28.7079 54.1283 29.6417 54.1283 30.1086C54.4574 30.1498 55.21 30.224 55.5877 30.191C55.9654 30.1581 56.203 29.9301 56.2745 29.8202C56.4462 29.4494 56.5235 28.7079 55.4589 28.7079Z" fill="#00A8E1"/>
<path fill-rule="evenodd" clip-rule="evenodd" d="M27 27.7191V36H28.3736C28.4165 36 28.5195 35.9753 28.5882 35.8764V33.2397C30.1335 34.3109 32.8807 33.7753 32.8807 30.5206C32.8807 27.5131 30.2193 26.8127 28.4165 28.2135C28.4022 28.0762 28.3221 27.785 28.116 27.7191H27ZM30.6915 29.1199C29.9704 28.4936 28.9888 28.8589 28.5882 29.1199V32.0861C29.6871 32.8112 30.4483 32.3883 30.6915 32.0861C31.0006 31.9543 31.0778 30.9875 31.0778 30.5206C31.1122 29.7955 30.8346 29.2846 30.6915 29.1199Z" fill="#00A8E1"/>
<g clip-path="url(#clip0)">
<rect width="179" height="326" transform="translate(326 21) rotate(90)" fill="url(#paint0_linear)"/>
<path d="M30.5957 139.035V141.281H26.5918V153H24.0039V141.281H20V139.035H30.5957ZM31.8262 153V139.035H34.4141V144.055C35.2214 143.182 36.2533 142.746 37.5098 142.746C39.9382 142.746 41.1523 144.009 41.1523 146.535V153H38.5645V146.535C38.5645 145.402 38.0013 144.836 36.875 144.836C36.0352 144.836 35.2148 145.171 34.4141 145.842V153H31.8262ZM47.9297 142.746C51.0417 142.746 52.5977 144.335 52.5977 147.512C52.5977 147.935 52.5684 148.358 52.5098 148.781H45.7031C45.7031 150.227 46.7643 150.949 48.8867 150.949C49.9219 150.949 50.957 150.852 51.9922 150.656V152.707C51.0872 152.902 49.987 153 48.6914 153C44.974 153 43.1152 151.252 43.1152 147.756C43.1152 144.416 44.7201 142.746 47.9297 142.746ZM45.7031 146.984H50.0781V146.906C50.0781 145.487 49.362 144.777 47.9297 144.777C46.5625 144.777 45.8203 145.513 45.7031 146.984ZM59.1797 153V139.035H61.7676V144.797H68.6523V139.035H71.2402V153H68.6523V147.043H61.7676V153H59.1797ZM83.1641 142.746V153H81.1426L80.8301 151.691C79.6517 152.564 78.4017 153 77.0801 153C74.9837 153 73.9355 151.76 73.9355 149.279V142.746H76.5234V149.211C76.5234 150.344 77.0182 150.91 78.0078 150.91C78.8477 150.91 79.7038 150.575 80.5762 149.904V142.746H83.1641ZM85.6152 152.512V150.363C86.7546 150.819 88.0697 151.047 89.5605 151.047C90.6738 151.047 91.2305 150.689 91.2305 149.973C91.2305 149.289 90.8561 148.947 90.1074 148.947H88.252C86.1686 148.947 85.127 147.922 85.127 145.871C85.127 143.723 86.6471 142.648 89.6875 142.648C90.9766 142.648 92.1908 142.844 93.3301 143.234V145.383C92.1908 144.927 90.9538 144.699 89.6191 144.699C88.2194 144.699 87.5195 145.057 87.5195 145.773C87.5195 146.457 87.9264 146.799 88.7402 146.799H90.4004C92.679 146.799 93.8184 147.824 93.8184 149.875C93.8184 152.023 92.3665 153.098 89.4629 153.098C88.0371 153.098 86.7546 152.902 85.6152 152.512ZM95.4883 141.086H97.4023L97.793 142.746H100.371V144.797H98.0762V149.514C98.0762 150.471 98.4896 150.949 99.3164 150.949H100.371V153H98.0664C96.3477 153 95.4883 152.079 95.4883 150.236V141.086ZM104.727 139.035V153H102.139V139.035H104.727ZM111.504 142.746C114.616 142.746 116.172 144.335 116.172 147.512C116.172 147.935 116.143 148.358 116.084 148.781H109.277C109.277 150.227 110.339 150.949 112.461 150.949C113.496 150.949 114.531 150.852 115.566 150.656V152.707C114.661 152.902 113.561 153 112.266 153C108.548 153 106.689 151.252 106.689 147.756C106.689 144.416 108.294 142.746 111.504 142.746ZM109.277 146.984H113.652V146.906C113.652 145.487 112.936 144.777 111.504 144.777C110.137 144.777 109.395 145.513 109.277 146.984Z" fill="white"/>
<path d="M26.8906 174H20.6562V172.934L23.0488 170.329C23.3906 169.96 23.696 169.623 23.9648 169.317C24.2337 169.012 24.4616 168.714 24.6484 168.422C24.8398 168.13 24.9857 167.839 25.0859 167.547C25.1862 167.251 25.2363 166.929 25.2363 166.583C25.2363 166.314 25.1976 166.077 25.1201 165.872C25.0426 165.667 24.931 165.494 24.7852 165.353C24.6439 165.207 24.4753 165.097 24.2793 165.024C24.0833 164.951 23.8646 164.915 23.623 164.915C23.1901 164.915 22.7982 165.004 22.4473 165.182C22.1009 165.355 21.7705 165.578 21.4561 165.852L20.7588 165.038C20.9411 164.874 21.137 164.721 21.3467 164.58C21.5563 164.434 21.7819 164.309 22.0234 164.204C22.265 164.099 22.5202 164.017 22.7891 163.958C23.0579 163.894 23.3405 163.862 23.6367 163.862C24.0742 163.862 24.4684 163.924 24.8193 164.047C25.1748 164.17 25.4756 164.348 25.7217 164.58C25.9678 164.808 26.1569 165.088 26.2891 165.421C26.4258 165.749 26.4941 166.12 26.4941 166.535C26.4941 166.923 26.4326 167.292 26.3096 167.643C26.1911 167.993 26.0247 168.34 25.8105 168.682C25.6009 169.019 25.348 169.358 25.0518 169.7C24.7601 170.042 24.4434 170.397 24.1016 170.767L22.1807 172.811V172.865H26.8906V174ZM34.7656 168.989C34.7656 169.796 34.7064 170.518 34.5879 171.156C34.474 171.794 34.2871 172.334 34.0273 172.776C33.7721 173.218 33.4417 173.556 33.0361 173.788C32.6305 174.021 32.1383 174.137 31.5596 174.137C31.0218 174.137 30.5524 174.021 30.1514 173.788C29.7549 173.556 29.4245 173.218 29.1602 172.776C28.9004 172.334 28.7044 171.794 28.5723 171.156C28.4447 170.518 28.3809 169.796 28.3809 168.989C28.3809 168.183 28.4378 167.46 28.5518 166.822C28.6702 166.184 28.8548 165.646 29.1055 165.209C29.3607 164.767 29.6888 164.43 30.0898 164.197C30.4954 163.965 30.9854 163.849 31.5596 163.849C32.1019 163.849 32.5736 163.965 32.9746 164.197C33.3757 164.425 33.7083 164.76 33.9727 165.202C34.237 165.64 34.4352 166.177 34.5674 166.815C34.6995 167.453 34.7656 168.178 34.7656 168.989ZM29.6455 168.989C29.6455 169.673 29.6797 170.27 29.748 170.78C29.8164 171.291 29.9258 171.717 30.0762 172.059C30.2266 172.396 30.4225 172.651 30.6641 172.824C30.9102 172.993 31.2087 173.077 31.5596 173.077C31.9105 173.077 32.209 172.993 32.4551 172.824C32.7012 172.656 32.9017 172.403 33.0566 172.065C33.2161 171.728 33.3301 171.304 33.3984 170.794C33.4714 170.279 33.5078 169.677 33.5078 168.989C33.5078 168.306 33.4714 167.709 33.3984 167.198C33.3301 166.688 33.2161 166.264 33.0566 165.927C32.9017 165.59 32.7012 165.337 32.4551 165.168C32.209 164.999 31.9105 164.915 31.5596 164.915C31.2087 164.915 30.9102 164.999 30.6641 165.168C30.4225 165.337 30.2266 165.59 30.0762 165.927C29.9258 166.264 29.8164 166.688 29.748 167.198C29.6797 167.709 29.6455 168.306 29.6455 168.989ZM40.2822 174H39.0791V167.759C39.0791 167.563 39.0791 167.353 39.0791 167.13C39.0837 166.907 39.0882 166.686 39.0928 166.467C39.1019 166.243 39.1087 166.032 39.1133 165.831C39.1224 165.626 39.1292 165.446 39.1338 165.291C39.0563 165.373 38.988 165.444 38.9287 165.503C38.8695 165.562 38.8079 165.619 38.7441 165.674C38.6849 165.729 38.6211 165.788 38.5527 165.852C38.4844 165.911 38.4023 165.981 38.3066 166.063L37.2949 166.891L36.6387 166.05L39.2568 164.006H40.2822V174ZM50.1602 168.271C50.1602 168.75 50.1351 169.229 50.085 169.707C50.0394 170.181 49.9551 170.634 49.832 171.067C49.7135 171.5 49.5495 171.906 49.3398 172.284C49.1302 172.658 48.8636 172.981 48.54 173.255C48.2165 173.528 47.8291 173.745 47.3779 173.904C46.9268 174.059 46.3981 174.137 45.792 174.137C45.7054 174.137 45.6097 174.134 45.5049 174.13C45.4001 174.125 45.2952 174.116 45.1904 174.103C45.0856 174.093 44.9831 174.082 44.8828 174.068C44.7826 174.055 44.6937 174.036 44.6162 174.014V172.947C44.7757 173.007 44.9557 173.05 45.1562 173.077C45.3568 173.104 45.555 173.118 45.751 173.118C46.3662 173.118 46.8721 173.011 47.2686 172.797C47.665 172.583 47.9795 172.293 48.2119 171.929C48.4443 171.56 48.6084 171.131 48.7041 170.644C48.8044 170.156 48.8659 169.641 48.8887 169.099H48.7998C48.7087 169.263 48.5993 169.415 48.4717 169.557C48.3441 169.698 48.1937 169.821 48.0205 169.926C47.8473 170.031 47.6514 170.113 47.4326 170.172C47.2139 170.231 46.9701 170.261 46.7012 170.261C46.2682 170.261 45.8763 170.195 45.5254 170.062C45.1745 169.926 44.876 169.728 44.6299 169.468C44.3838 169.208 44.1924 168.891 44.0557 168.518C43.9235 168.139 43.8574 167.709 43.8574 167.226C43.8574 166.706 43.9281 166.239 44.0693 165.824C44.2152 165.405 44.418 165.052 44.6777 164.765C44.9421 164.473 45.2611 164.25 45.6348 164.095C46.013 163.94 46.4346 163.862 46.8994 163.862C47.3597 163.862 47.7881 163.951 48.1846 164.129C48.5811 164.307 48.9251 164.578 49.2168 164.942C49.5085 165.307 49.7386 165.767 49.9072 166.323C50.0758 166.875 50.1602 167.524 50.1602 168.271ZM46.9131 164.915C46.6396 164.915 46.389 164.961 46.1611 165.052C45.9378 165.143 45.7441 165.284 45.5801 165.476C45.416 165.667 45.2884 165.909 45.1973 166.2C45.1107 166.487 45.0674 166.829 45.0674 167.226C45.0674 167.545 45.1038 167.832 45.1768 168.087C45.2542 168.338 45.3682 168.552 45.5186 168.729C45.6689 168.907 45.8558 169.044 46.0791 169.14C46.307 169.235 46.5713 169.283 46.8721 169.283C47.182 169.283 47.4622 169.231 47.7129 169.126C47.9635 169.017 48.1777 168.878 48.3555 168.709C48.5332 168.536 48.6699 168.34 48.7656 168.121C48.8659 167.902 48.916 167.684 48.916 167.465C48.916 167.16 48.8727 166.856 48.7861 166.556C48.7041 166.25 48.5788 165.977 48.4102 165.735C48.2461 165.489 48.0387 165.291 47.7881 165.141C47.5374 164.99 47.2458 164.915 46.9131 164.915Z" fill="white"/>
<path d="M62.7256 167.868C63.1768 167.868 63.596 167.932 63.9834 168.06C64.3753 168.183 64.7148 168.367 65.002 168.613C65.2936 168.859 65.5215 169.165 65.6855 169.529C65.8496 169.894 65.9316 170.315 65.9316 170.794C65.9316 171.313 65.8542 171.781 65.6992 172.195C65.5443 172.61 65.3141 172.961 65.0088 173.248C64.7035 173.535 64.3252 173.756 63.874 173.911C63.4274 174.062 62.9124 174.137 62.3291 174.137C62.0967 174.137 61.8665 174.125 61.6387 174.103C61.4154 174.08 61.1989 174.046 60.9893 174C60.7842 173.959 60.5882 173.904 60.4014 173.836C60.2145 173.768 60.0459 173.688 59.8955 173.597V172.421C60.0459 172.526 60.2214 172.619 60.4219 172.701C60.627 172.783 60.8411 172.852 61.0645 172.906C61.2878 172.961 61.5111 173.004 61.7344 173.036C61.9622 173.063 62.1719 173.077 62.3633 173.077C62.7233 173.077 63.0446 173.036 63.3271 172.954C63.6097 172.868 63.849 172.735 64.0449 172.558C64.2409 172.38 64.3913 172.157 64.4961 171.888C64.6009 171.619 64.6533 171.3 64.6533 170.931C64.6533 170.279 64.4528 169.782 64.0518 169.44C63.6507 169.094 63.0674 168.921 62.3018 168.921C62.1787 168.921 62.0443 168.928 61.8984 168.941C61.7572 168.951 61.6136 168.964 61.4678 168.982C61.3265 169.001 61.1898 169.021 61.0576 169.044C60.93 169.062 60.8184 169.08 60.7227 169.099L60.1074 168.709L60.4834 164.006H65.2002V165.141H61.5635L61.2969 168.005C61.4427 167.978 61.6341 167.948 61.8711 167.916C62.1126 167.884 62.3975 167.868 62.7256 167.868ZM73.7656 168.989C73.7656 169.796 73.7064 170.518 73.5879 171.156C73.474 171.794 73.2871 172.334 73.0273 172.776C72.7721 173.218 72.4417 173.556 72.0361 173.788C71.6305 174.021 71.1383 174.137 70.5596 174.137C70.0218 174.137 69.5524 174.021 69.1514 173.788C68.7549 173.556 68.4245 173.218 68.1602 172.776C67.9004 172.334 67.7044 171.794 67.5723 171.156C67.4447 170.518 67.3809 169.796 67.3809 168.989C67.3809 168.183 67.4378 167.46 67.5518 166.822C67.6702 166.184 67.8548 165.646 68.1055 165.209C68.3607 164.767 68.6888 164.43 69.0898 164.197C69.4954 163.965 69.9854 163.849 70.5596 163.849C71.1019 163.849 71.5736 163.965 71.9746 164.197C72.3757 164.425 72.7083 164.76 72.9727 165.202C73.237 165.64 73.4352 166.177 73.5674 166.815C73.6995 167.453 73.7656 168.178 73.7656 168.989ZM68.6455 168.989C68.6455 169.673 68.6797 170.27 68.748 170.78C68.8164 171.291 68.9258 171.717 69.0762 172.059C69.2266 172.396 69.4225 172.651 69.6641 172.824C69.9102 172.993 70.2087 173.077 70.5596 173.077C70.9105 173.077 71.209 172.993 71.4551 172.824C71.7012 172.656 71.9017 172.403 72.0566 172.065C72.2161 171.728 72.3301 171.304 72.3984 170.794C72.4714 170.279 72.5078 169.677 72.5078 168.989C72.5078 168.306 72.4714 167.709 72.3984 167.198C72.3301 166.688 72.2161 166.264 72.0566 165.927C71.9017 165.59 71.7012 165.337 71.4551 165.168C71.209 164.999 70.9105 164.915 70.5596 164.915C70.2087 164.915 69.9102 164.999 69.6641 165.168C69.4225 165.337 69.2266 165.59 69.0762 165.927C68.9258 166.264 68.8164 166.688 68.748 167.198C68.6797 167.709 68.6455 168.306 68.6455 168.989ZM88.2373 174V169.167C88.2373 168.575 88.1234 168.13 87.8955 167.834C87.6676 167.538 87.3145 167.39 86.8359 167.39C86.5033 167.39 86.2207 167.444 85.9883 167.554C85.7559 167.659 85.5645 167.816 85.4141 168.025C85.2682 168.23 85.1611 168.488 85.0928 168.798C85.0244 169.103 84.9902 169.456 84.9902 169.857V174H83.7393V169.167C83.7393 168.575 83.6253 168.13 83.3975 167.834C83.1742 167.538 82.8232 167.39 82.3447 167.39C81.9938 167.39 81.6999 167.449 81.4629 167.567C81.2259 167.686 81.0345 167.861 80.8887 168.094C80.7474 168.326 80.6449 168.611 80.5811 168.948C80.5218 169.285 80.4922 169.673 80.4922 170.11V174H79.248V166.494H80.2598L80.4375 167.506H80.5059C80.6152 167.31 80.7451 167.141 80.8955 167C81.0459 166.854 81.21 166.733 81.3877 166.638C81.57 166.542 81.7614 166.471 81.9619 166.426C82.167 166.38 82.3743 166.357 82.584 166.357C83.1309 166.357 83.5843 166.458 83.9443 166.658C84.3089 166.859 84.5778 167.173 84.751 167.602H84.8057C84.9242 167.387 85.0654 167.203 85.2295 167.048C85.3981 166.893 85.5804 166.765 85.7764 166.665C85.9769 166.56 86.1865 166.483 86.4053 166.433C86.624 166.382 86.8473 166.357 87.0752 166.357C87.8727 166.357 88.472 166.576 88.873 167.014C89.2786 167.447 89.4814 168.142 89.4814 169.099V174H88.2373ZM93.043 174H91.7988V166.494H93.043V174ZM91.7031 164.464C91.7031 164.19 91.7715 163.992 91.9082 163.869C92.0495 163.746 92.2227 163.685 92.4277 163.685C92.528 163.685 92.6214 163.701 92.708 163.732C92.7992 163.76 92.8766 163.805 92.9404 163.869C93.0088 163.933 93.0612 164.015 93.0977 164.115C93.1387 164.211 93.1592 164.327 93.1592 164.464C93.1592 164.728 93.0863 164.926 92.9404 165.059C92.7992 165.186 92.6283 165.25 92.4277 165.25C92.2227 165.25 92.0495 165.186 91.9082 165.059C91.7715 164.931 91.7031 164.733 91.7031 164.464ZM100.111 174V169.167C100.111 168.575 99.9906 168.13 99.749 167.834C99.512 167.538 99.1383 167.39 98.6279 167.39C98.2588 167.39 97.9489 167.449 97.6982 167.567C97.4476 167.686 97.2448 167.861 97.0898 168.094C96.9395 168.326 96.8301 168.611 96.7617 168.948C96.6979 169.285 96.666 169.673 96.666 170.11V174H95.4219V166.494H96.4336L96.6113 167.506H96.6797C96.7936 167.31 96.9281 167.141 97.083 167C97.2425 166.854 97.4157 166.733 97.6025 166.638C97.7894 166.542 97.9876 166.471 98.1973 166.426C98.4069 166.38 98.6211 166.357 98.8398 166.357C99.6738 166.357 100.3 166.576 100.72 167.014C101.144 167.447 101.355 168.142 101.355 169.099V174H100.111ZM108.547 174H107.303V163.363H108.547V174ZM113.893 174.137C113.391 174.137 112.933 174.052 112.519 173.884C112.104 173.715 111.746 173.469 111.445 173.146C111.149 172.822 110.919 172.421 110.755 171.942C110.591 171.464 110.509 170.917 110.509 170.302C110.509 169.682 110.584 169.128 110.734 168.641C110.885 168.153 111.097 167.741 111.37 167.403C111.644 167.062 111.969 166.802 112.348 166.624C112.73 166.446 113.152 166.357 113.612 166.357C114.063 166.357 114.469 166.439 114.829 166.604C115.189 166.763 115.494 166.991 115.745 167.287C115.996 167.579 116.187 167.932 116.319 168.347C116.456 168.757 116.524 169.213 116.524 169.714V170.486H111.794C111.817 171.366 112.001 172.013 112.348 172.428C112.699 172.842 113.218 173.05 113.906 173.05C114.139 173.05 114.353 173.038 114.549 173.016C114.749 172.993 114.941 172.961 115.123 172.92C115.31 172.874 115.49 172.82 115.663 172.756C115.836 172.688 116.012 172.612 116.189 172.53V173.638C116.007 173.724 115.827 173.799 115.649 173.863C115.476 173.927 115.296 173.979 115.109 174.021C114.927 174.062 114.736 174.091 114.535 174.109C114.339 174.128 114.125 174.137 113.893 174.137ZM113.585 167.39C113.065 167.39 112.653 167.567 112.348 167.923C112.047 168.278 111.871 168.796 111.821 169.475H115.185C115.185 169.165 115.153 168.882 115.089 168.627C115.03 168.367 114.934 168.146 114.802 167.964C114.674 167.782 114.51 167.64 114.31 167.54C114.109 167.44 113.868 167.39 113.585 167.39ZM121.679 167.431H120.004V174H118.753V167.431H117.427V166.918L118.753 166.453V165.797C118.753 165.309 118.803 164.906 118.903 164.587C119.008 164.263 119.156 164.006 119.348 163.814C119.544 163.623 119.783 163.489 120.065 163.411C120.348 163.329 120.667 163.288 121.022 163.288C121.291 163.288 121.537 163.315 121.761 163.37C121.989 163.42 122.191 163.477 122.369 163.541L122.048 164.505C121.907 164.455 121.752 164.411 121.583 164.375C121.419 164.334 121.246 164.313 121.063 164.313C120.881 164.313 120.724 164.336 120.592 164.382C120.46 164.423 120.35 164.498 120.264 164.607C120.177 164.717 120.111 164.867 120.065 165.059C120.024 165.245 120.004 165.487 120.004 165.783V166.494H121.679V167.431ZM125.295 173.118C125.377 173.118 125.468 173.114 125.568 173.104C125.673 173.095 125.773 173.084 125.869 173.07C125.965 173.057 126.051 173.041 126.129 173.022C126.211 173.004 126.272 172.988 126.313 172.975V173.918C126.254 173.945 126.179 173.973 126.088 174C125.997 174.027 125.896 174.05 125.787 174.068C125.678 174.091 125.564 174.107 125.445 174.116C125.327 174.13 125.211 174.137 125.097 174.137C124.814 174.137 124.552 174.1 124.311 174.027C124.069 173.954 123.859 173.829 123.682 173.651C123.508 173.474 123.372 173.234 123.271 172.934C123.171 172.628 123.121 172.245 123.121 171.785V167.431H122.062V166.877L123.121 166.344L123.654 164.771H124.372V166.494H126.259V167.431H124.372V171.785C124.372 172.227 124.443 172.56 124.584 172.783C124.73 173.007 124.967 173.118 125.295 173.118Z" fill="white"/>
<rect x="-168" y="194" width="368" height="6" fill="#00A8E1"/>
<path d="M175 153.1C169.5 153.1 165.1 157.5 165.1 163C165.1 168.5 169.5 172.9 175 172.9C180.5 172.9 184.9 168.5 184.9 163C184.9 157.5 180.5 153.1 175 153.1ZM175 171.7C170.245 171.7 166.3 167.755 166.3 163C166.3 158.245 170.245 154.3 175 154.3C179.755 154.3 183.7 158.245 183.7 163C183.7 167.755 179.755 171.7 175 171.7ZM170.6 161.9V164.1H179.4V161.9H170.6Z" fill="white"/>
<path d="M207.267 159.276C206.605 158.608 205.916 158.026 205.198 157.532C204.481 157.037 203.809 156.666 203.182 156.419C202.556 156.172 201.981 156.053 201.459 156.063C200.936 156.073 200.529 156.228 200.236 156.529C200.167 156.596 200.108 156.671 200.059 156.755C200.01 156.838 199.975 156.903 199.954 156.95C199.934 156.997 199.906 157.081 199.871 157.201C199.836 157.321 199.812 157.398 199.798 157.432L195.912 169.703L196.152 169.944C195.88 170.124 195.638 170.335 195.426 170.576C195.214 170.816 195.027 171.013 194.867 171.167C194.707 171.321 194.515 171.428 194.292 171.488C194.244 171.501 194.183 171.547 194.11 171.623C194.037 171.7 194 171.769 194 171.829C194 171.949 194.063 172.049 194.188 172.13C194.313 172.21 194.453 172.25 194.606 172.25C194.801 172.25 194.989 172.175 195.17 172.024C195.351 171.874 195.534 171.682 195.718 171.448C195.903 171.214 196.037 171.06 196.121 170.987C196.302 170.833 196.504 170.686 196.726 170.546L196.998 170.796L209.346 166.776C209.617 166.696 209.826 166.575 209.972 166.415C210.265 166.114 210.416 165.698 210.427 165.167C210.437 164.635 210.321 164.05 210.077 163.412C209.833 162.774 209.469 162.092 208.985 161.367C208.501 160.642 207.928 159.945 207.267 159.276ZM206.139 160.369C207.204 161.412 208.014 162.409 208.567 163.362C209.121 164.314 209.255 164.941 208.97 165.242C208.684 165.543 208.061 165.432 207.1 164.911C206.139 164.39 205.129 163.611 204.07 162.575C202.998 161.532 202.185 160.536 201.631 159.587C201.077 158.638 200.943 158.01 201.229 157.702C201.514 157.401 202.139 157.512 203.104 158.033C204.069 158.554 205.08 159.333 206.139 160.369ZM203.851 164.52C204.359 164.954 204.864 165.335 205.366 165.663C205.373 165.676 205.547 165.99 205.888 166.605L205.01 166.896C204.593 166.141 204.206 165.349 203.851 164.52ZM200.289 159.928C200.442 160.256 200.654 160.653 200.926 161.121C201.149 162.084 201.499 163.126 201.976 164.249C202.453 165.372 202.973 166.425 203.538 167.407L202.67 167.688C202.016 166.525 201.445 165.307 200.957 164.034C200.47 162.76 200.17 161.636 200.059 160.66L200.289 159.928ZM199.077 163.598C199.564 165.095 200.25 166.632 201.135 168.21L200.278 168.5C199.589 167.23 199.046 166.037 198.649 164.921L199.077 163.598ZM197.876 167.257C198.147 167.872 198.436 168.457 198.743 169.012L197.886 169.302C197.789 169.122 197.649 168.844 197.468 168.47L197.876 167.257ZM205.554 153L206.076 154.514L204.728 155.456H206.389L206.901 156.97L207.413 155.456H209.064L207.726 154.514L208.249 153.01L206.901 153.942L205.554 153ZM202.629 153L202.347 154.374L203.778 154.644L204.06 153.271L202.629 153ZM212.041 157.131L213.19 155.978L214.684 156.68L213.911 155.276L215.07 154.143L213.43 154.414L212.657 153L212.427 154.584L210.787 154.855L212.281 155.547L212.041 157.131ZM211.654 159.597L213.044 160.479L212.605 162.023L213.9 161.021L215.279 161.903L214.705 160.399L216 159.417L214.339 159.487L213.754 157.993L213.326 159.527L211.654 159.597ZM211.059 155.877L207.946 158.324L208.332 158.775L211.445 156.329L211.059 155.877ZM212.145 160.61L209.711 160.399L209.649 160.981L212.093 161.191L212.145 160.61ZM212.386 163.417L211.936 164.761L213.326 165.192L213.785 163.858L212.386 163.417Z" fill="white"/>
<path d="M269.813 165.75C269.298 165.752 268.791 165.87 268.328 166.095C267.865 166.32 267.459 166.646 267.139 167.049L262.113 163.907C262.296 163.316 262.296 162.683 262.113 162.092L267.139 158.95C267.649 159.582 268.366 160.013 269.163 160.166C269.96 160.32 270.786 160.186 271.494 159.789C272.202 159.392 272.747 158.757 273.032 157.997C273.317 157.236 273.323 156.4 273.05 155.635C272.777 154.871 272.243 154.227 271.541 153.819C270.839 153.411 270.015 153.264 269.216 153.405C268.416 153.546 267.692 153.966 267.173 154.589C266.653 155.213 266.37 156 266.375 156.812C266.379 157.12 266.425 157.425 266.513 157.72L261.487 160.862C261.044 160.303 260.437 159.896 259.752 159.698C259.067 159.5 258.337 159.519 257.663 159.754C256.99 159.989 256.406 160.428 255.993 161.009C255.58 161.591 255.358 162.286 255.358 163C255.358 163.713 255.58 164.409 255.993 164.99C256.406 165.572 256.99 166.011 257.663 166.245C258.337 166.48 259.067 166.5 259.752 166.302C260.437 166.103 261.044 165.696 261.487 165.138L266.513 168.28C266.425 168.574 266.379 168.88 266.375 169.187C266.375 169.867 266.577 170.532 266.955 171.097C267.332 171.662 267.869 172.103 268.497 172.363C269.126 172.623 269.817 172.691 270.484 172.559C271.15 172.426 271.763 172.099 272.244 171.618C272.724 171.137 273.052 170.525 273.184 169.858C273.317 169.191 273.249 168.5 272.989 167.872C272.729 167.244 272.288 166.707 271.723 166.329C271.157 165.951 270.493 165.75 269.813 165.75ZM269.813 154.75C270.221 154.75 270.62 154.871 270.959 155.097C271.298 155.324 271.562 155.646 271.718 156.023C271.875 156.4 271.915 156.815 271.836 157.215C271.756 157.615 271.56 157.982 271.271 158.271C270.983 158.559 270.615 158.756 270.215 158.835C269.815 158.915 269.4 158.874 269.024 158.718C268.647 158.562 268.325 158.297 268.098 157.958C267.871 157.619 267.75 157.22 267.75 156.812C267.75 156.265 267.968 155.741 268.354 155.354C268.741 154.967 269.266 154.75 269.813 154.75ZM258.813 165.062C258.405 165.062 258.006 164.941 257.667 164.715C257.328 164.488 257.064 164.166 256.907 163.789C256.751 163.412 256.71 162.997 256.79 162.597C256.87 162.197 257.066 161.83 257.354 161.541C257.643 161.253 258.01 161.056 258.411 160.977C258.811 160.897 259.225 160.938 259.602 161.094C259.979 161.25 260.301 161.515 260.528 161.854C260.754 162.193 260.875 162.592 260.875 163C260.875 163.547 260.658 164.071 260.271 164.458C259.885 164.845 259.36 165.062 258.813 165.062ZM269.813 171.25C269.405 171.25 269.006 171.129 268.667 170.902C268.328 170.676 268.064 170.353 267.907 169.977C267.751 169.6 267.71 169.185 267.79 168.785C267.87 168.385 268.066 168.017 268.354 167.729C268.643 167.44 269.01 167.244 269.411 167.164C269.811 167.085 270.225 167.126 270.602 167.282C270.979 167.438 271.301 167.702 271.528 168.041C271.754 168.381 271.875 168.779 271.875 169.187C271.875 169.734 271.658 170.259 271.271 170.646C270.885 171.032 270.36 171.25 269.813 171.25Z" fill="white"/>
<path d="M301.416 153.833H289.747C289.103 153.834 288.481 154.059 287.986 154.471C287.492 154.883 287.158 155.455 287.043 156.088L285.878 162.505C285.806 162.901 285.821 163.309 285.924 163.699C286.026 164.088 286.213 164.451 286.471 164.76C286.729 165.07 287.052 165.319 287.417 165.49C287.782 165.661 288.18 165.75 288.583 165.75H292.763L292.249 167.061C292.036 167.635 291.965 168.252 292.042 168.859C292.119 169.467 292.343 170.046 292.694 170.549C293.044 171.051 293.511 171.46 294.055 171.742C294.599 172.024 295.203 172.169 295.815 172.167C295.991 172.166 296.164 172.115 296.312 172.019C296.46 171.923 296.577 171.787 296.649 171.626L299.262 165.75H301.416C302.145 165.75 302.845 165.46 303.36 164.945C303.876 164.429 304.166 163.729 304.166 163V156.583C304.166 155.854 303.876 155.154 303.36 154.639C302.845 154.123 302.145 153.833 301.416 153.833ZM297.749 164.641L295.256 170.251C295.001 170.174 294.764 170.045 294.561 169.873C294.357 169.701 294.191 169.489 294.072 169.25C293.954 169.011 293.886 168.751 293.872 168.485C293.858 168.219 293.898 167.952 293.991 167.702L294.477 166.392C294.58 166.115 294.615 165.817 294.579 165.523C294.542 165.23 294.435 164.949 294.267 164.706C294.098 164.463 293.873 164.264 293.611 164.127C293.35 163.989 293.058 163.917 292.763 163.917H288.583C288.448 163.917 288.315 163.887 288.193 163.83C288.071 163.773 287.963 163.69 287.877 163.587C287.788 163.485 287.724 163.364 287.687 163.234C287.651 163.104 287.644 162.968 287.666 162.835L288.83 156.418C288.869 156.205 288.983 156.012 289.151 155.874C289.318 155.737 289.53 155.663 289.747 155.667H297.749V164.641ZM302.333 163C302.333 163.243 302.236 163.476 302.064 163.648C301.892 163.82 301.659 163.917 301.416 163.917H299.583V155.667H301.416C301.659 155.667 301.892 155.763 302.064 155.935C302.236 156.107 302.333 156.34 302.333 156.583V163Z" fill="white"/>
<path d="M234.75 158.833C235.256 158.833 235.667 158.423 235.667 157.917C235.667 157.41 235.256 157 234.75 157C234.244 157 233.833 157.41 233.833 157.917C233.833 158.423 234.244 158.833 234.75 158.833Z" fill="white"/>
<path d="M237.347 166.411H235.819V160.056H233.528C233.325 160.056 233.131 160.139 232.988 160.288C232.844 160.437 232.764 160.639 232.764 160.85C232.764 161.061 232.844 161.263 232.988 161.412C233.131 161.561 233.325 161.644 233.528 161.644H234.292V166.411H232.764C232.561 166.411 232.367 166.495 232.224 166.644C232.08 166.793 232 166.995 232 167.206C232 167.416 232.08 167.618 232.224 167.767C232.367 167.916 232.561 168 232.764 168H237.347C237.55 168 237.744 167.916 237.887 167.767C238.031 167.618 238.111 167.416 238.111 167.206C238.111 166.995 238.031 166.793 237.887 166.644C237.744 166.495 237.55 166.411 237.347 166.411Z" fill="white"/>
<path d="M234.625 153C232.721 153 230.86 153.564 229.278 154.622C227.695 155.68 226.461 157.183 225.733 158.942C225.004 160.7 224.814 162.636 225.185 164.503C225.556 166.37 226.473 168.085 227.819 169.431C229.165 170.777 230.88 171.694 232.747 172.065C234.614 172.436 236.55 172.246 238.308 171.517C240.067 170.789 241.57 169.555 242.628 167.972C243.686 166.39 244.25 164.529 244.25 162.625C244.25 160.072 243.236 157.624 241.431 155.819C239.626 154.014 237.178 153 234.625 153ZM234.625 170.646C233.039 170.646 231.488 170.175 230.169 169.294C228.85 168.413 227.822 167.16 227.215 165.694C226.608 164.229 226.449 162.616 226.758 161.06C227.068 159.504 227.832 158.075 228.953 156.953C230.075 155.832 231.504 155.068 233.06 154.758C234.616 154.449 236.229 154.608 237.694 155.215C239.16 155.822 240.413 156.85 241.294 158.169C242.175 159.488 242.646 161.039 242.646 162.625C242.646 163.678 242.438 164.721 242.035 165.694C241.632 166.668 241.041 167.552 240.297 168.297C239.552 169.041 238.668 169.632 237.694 170.035C236.721 170.438 235.678 170.646 234.625 170.646Z" fill="white"/>
<path d="M234.75 158.833C235.256 158.833 235.667 158.423 235.667 157.917C235.667 157.41 235.256 157 234.75 157C234.244 157 233.833 157.41 233.833 157.917C233.833 158.423 234.244 158.833 234.75 158.833Z" fill="white"/>
<path d="M237.347 166.411H235.819V160.056H233.528C233.325 160.056 233.131 160.139 232.988 160.288C232.844 160.437 232.764 160.639 232.764 160.85C232.764 161.061 232.844 161.263 232.988 161.412C233.131 161.561 233.325 161.644 233.528 161.644H234.292V166.411H232.764C232.561 166.411 232.367 166.495 232.224 166.644C232.08 166.793 232 166.995 232 167.206C232 167.416 232.08 167.618 232.224 167.767C232.367 167.916 232.561 168 232.764 168H237.347C237.55 168 237.744 167.916 237.887 167.767C238.031 167.618 238.111 167.416 238.111 167.206C238.111 166.995 238.031 166.793 237.887 166.644C237.744 166.495 237.55 166.411 237.347 166.411Z" fill="white"/>
<path d="M234.625 153C232.721 153 230.86 153.564 229.278 154.622C227.695 155.68 226.461 157.183 225.733 158.942C225.004 160.7 224.814 162.636 225.185 164.503C225.556 166.37 226.473 168.085 227.819 169.431C229.165 170.777 230.88 171.694 232.747 172.065C234.614 172.436 236.55 172.246 238.308 171.517C240.067 170.789 241.57 169.555 242.628 167.972C243.686 166.39 244.25 164.529 244.25 162.625C244.25 160.072 243.236 157.624 241.431 155.819C239.626 154.014 237.178 153 234.625 153ZM234.625 170.646C233.039 170.646 231.488 170.175 230.169 169.294C228.85 168.413 227.822 167.16 227.215 165.694C226.608 164.229 226.449 162.616 226.758 161.06C227.068 159.504 227.832 158.075 228.953 156.953C230.075 155.832 231.504 155.068 233.06 154.758C234.616 154.449 236.229 154.608 237.694 155.215C239.16 155.822 240.413 156.85 241.294 158.169C242.175 159.488 242.646 161.039 242.646 162.625C242.646 163.678 242.438 164.721 242.035 165.694C241.632 166.668 241.041 167.552 240.297 168.297C239.552 169.041 238.668 169.632 237.694 170.035C236.721 170.438 235.678 170.646 234.625 170.646Z" fill="white"/>
</g>
<path d="M162.578 76.0037C167.324 75.9203 171.988 77.2461 175.981 79.8135C179.973 82.3809 183.115 86.0745 185.008 90.4274C186.902 94.7802 187.462 99.5967 186.617 104.268C185.773 108.939 183.563 113.255 180.266 116.67C176.969 120.085 172.734 122.445 168.095 123.453C163.456 124.461 158.623 124.07 154.207 122.331C149.79 120.592 145.988 117.582 143.282 113.682C140.576 109.782 139.087 105.168 139.004 100.422C138.892 94.0575 141.313 87.9095 145.734 83.3303C150.155 78.751 156.214 76.1156 162.578 76.0037ZM162.508 72.0043C156.971 72.1016 151.587 73.8387 147.037 76.9958C142.487 80.1529 138.976 84.5883 136.947 89.7411C134.918 94.8939 134.463 100.533 135.638 105.944C136.814 111.356 139.568 116.297 143.552 120.144C147.536 123.99 152.571 126.569 158.021 127.554C163.47 128.539 169.09 127.885 174.168 125.676C179.246 123.467 183.556 119.802 186.551 115.144C189.546 110.487 191.093 105.045 190.996 99.508C190.865 92.083 187.79 85.0141 182.448 79.8561C177.105 74.6982 169.933 71.8738 162.508 72.0043Z" fill="white" fill-opacity="0.6"/>
<path d="M155.247 114.138C154.888 114.145 154.534 114.054 154.223 113.876C153.921 113.705 153.669 113.457 153.492 113.159C153.315 112.86 153.219 112.521 153.213 112.174L152.791 88.1776C152.785 87.8306 152.869 87.4879 153.036 87.1834C153.202 86.8788 153.445 86.6229 153.74 86.4406C154.041 86.2598 154.385 86.1613 154.736 86.1552C155.087 86.149 155.433 86.2353 155.74 86.4055L177.948 98.017C178.268 98.1828 178.538 98.4322 178.728 98.7387C178.918 99.0453 179.022 99.3976 179.028 99.7583C179.035 100.119 178.943 100.475 178.764 100.788C178.585 101.101 178.324 101.36 178.009 101.536L156.224 113.921C155.922 114.075 155.586 114.15 155.247 114.138ZM156.849 91.4668L157.153 108.744L172.819 99.8275L156.849 91.4668Z" fill="white" fill-opacity="0.6"/>
<defs>
<linearGradient id="paint0_linear" x1="13.8879" y1="148" x2="150.493" y2="148.676" gradientUnits="userSpaceOnUse">
<stop stop-opacity="0"/>
<stop stop-opacity="0"/>
<stop offset="1"/>
</linearGradient>
<clipPath id="clip0">
<rect width="179" height="326" fill="white" transform="translate(326 21) rotate(90)"/>
</clipPath>
</defs>
</svg>
