<svg width="326" height="500" viewBox="0 0 326 500" fill="none" xmlns="http://www.w3.org/2000/svg">
<rect width="314" height="326" transform="translate(326 186) rotate(90)" fill="url(#paint0_linear)"/>
<path d="M21 368.906C21 363.435 25.4349 359 30.9055 359H85.0945C90.5651 359 95 363.435 95 368.906V368.906C95 374.376 90.5651 378.811 85.0945 378.811H30.9055C25.4349 378.811 21 374.376 21 368.906V368.906Z" fill="#111111" fill-opacity="0.2"/>
<g clip-path="url(#clip0)">
<path d="M38.8511 368.045C38.8511 367.434 38.4178 366.922 37.8436 366.799C38.073 366.416 38.2138 365.973 38.2138 365.496C38.2138 364.09 37.0705 362.946 35.6646 362.946C34.6978 362.946 33.8668 363.492 33.4341 364.287C33.0013 363.492 32.1703 362.946 31.2035 362.946C29.7976 362.946 28.6543 364.09 28.6543 365.496C28.6543 366.07 28.8531 366.596 29.175 367.022C29.0141 367.14 28.8832 367.294 28.7927 367.471C28.7023 367.649 28.6549 367.845 28.6543 368.045V373.143C28.6543 373.846 29.226 374.418 29.9289 374.418H37.5765C38.2795 374.418 38.8511 373.846 38.8511 373.143V371.462L41.4004 372.737V368.275L38.8511 369.55V368.045ZM35.6646 364.221C36.3676 364.221 36.9392 364.793 36.9392 365.496C36.9392 366.198 36.3676 366.77 35.6646 366.77C34.9617 366.77 34.39 366.198 34.39 365.496C34.39 364.793 34.9617 364.221 35.6646 364.221ZM31.2035 364.221C31.9065 364.221 32.4781 364.793 32.4781 365.496C32.4781 366.198 31.9065 366.77 31.2035 366.77C30.5006 366.77 29.9289 366.198 29.9289 365.496C29.9289 364.793 30.5006 364.221 31.2035 364.221ZM29.9289 373.143V368.045H37.5765L37.5778 373.143H29.9289Z" fill="white"/>
<path d="M55.4394 364.566V365.591H52.3667V374.331H51.1035V365.591H48.0307V364.566H55.4394ZM56.8119 374.331V367.161H57.6654L57.8907 368.076C58.5189 367.466 59.2746 367.161 60.1577 367.161V368.213C59.3019 368.213 58.6077 368.515 58.0751 369.121V374.331H56.8119ZM61.0864 372.166C61.0864 370.696 62.056 369.961 63.9952 369.961C64.6188 369.961 65.2425 370.006 65.8661 370.097V369.421C65.8661 368.597 65.222 368.185 63.9337 368.185C63.1963 368.185 62.4406 368.299 61.6668 368.527V367.502C62.4406 367.275 63.1963 367.161 63.9337 367.161C66.0641 367.161 67.1294 367.903 67.1294 369.387V374.331H66.4192L65.9822 373.621C65.2675 374.094 64.4891 374.331 63.6469 374.331C61.9399 374.331 61.0864 373.609 61.0864 372.166ZM63.9952 370.985C62.8981 370.985 62.3496 371.372 62.3496 372.146C62.3496 372.92 62.782 373.306 63.6469 373.306C64.521 373.306 65.2607 373.074 65.8661 372.61V371.121C65.2425 371.03 64.6188 370.985 63.9952 370.985ZM70.5844 367.161V374.331H69.3212V367.161H70.5844ZM70.5844 364.566V365.761H69.3212V364.566H70.5844ZM74.1078 364.566V374.331H72.8446V364.566H74.1078ZM79.188 367.161C81.2274 367.161 82.2471 368.169 82.2471 370.186C82.2471 370.473 82.2266 370.78 82.1856 371.108H77.1532C77.1532 372.574 78.009 373.306 79.7206 373.306C80.5355 373.306 81.2593 373.215 81.892 373.033V374.058C81.2593 374.24 80.49 374.331 79.5841 374.331C77.1214 374.331 75.89 373.108 75.89 370.664C75.89 368.329 76.9893 367.161 79.188 367.161ZM77.1532 370.056H81.0317C81.0044 368.8 80.3898 368.172 79.188 368.172C77.9134 368.172 77.2352 368.8 77.1532 370.056ZM83.9473 374.331V367.161H84.8009L85.0262 368.076C85.6544 367.466 86.4101 367.161 87.2932 367.161V368.213C86.4374 368.213 85.7432 368.515 85.2106 369.121V374.331H83.9473Z" fill="white"/>
</g>
<path d="M30.9055 360.165H85.0945V357.835H30.9055V360.165ZM85.0945 377.646H30.9055V379.976H85.0945V377.646ZM30.9055 377.646C26.0785 377.646 22.1654 373.733 22.1654 368.906H19.8346C19.8346 375.02 24.7912 379.976 30.9055 379.976V377.646ZM93.8346 368.906C93.8346 373.733 89.9215 377.646 85.0945 377.646V379.976C91.2088 379.976 96.1654 375.02 96.1654 368.906H93.8346ZM85.0945 360.165C89.9215 360.165 93.8346 364.078 93.8346 368.906H96.1654C96.1654 362.791 91.2088 357.835 85.0945 357.835V360.165ZM30.9055 357.835C24.7912 357.835 19.8346 362.791 19.8346 368.906H22.1654C22.1654 364.078 26.0785 360.165 30.9055 360.165V357.835Z" fill="white"/>
<path d="M25.0527 390.846V404.811H22.4648V390.846H25.0527ZM34.877 390.846L28.9199 397.36L35.502 404.811H31.918L26.5176 398.288V396.608L31.7129 390.846H34.877ZM36.2441 404.811V394.557H38.2461L38.5684 396.061C39.5514 395.058 40.6712 394.557 41.9277 394.557C44.3561 394.557 45.5703 395.82 45.5703 398.346V404.811H42.9824V398.346C42.9824 397.213 42.4193 396.647 41.293 396.647C40.4531 396.647 39.6328 396.982 38.832 397.653V404.811H36.2441ZM50.6094 390.846V392.897H48.0215V390.846H50.6094ZM50.6094 394.557V404.811H48.0215V394.557H50.6094ZM51.8398 394.557H54.5742L57.0645 401.725L59.6523 394.557H62.3867L58.2168 404.811H55.7559L51.8398 394.557ZM67.9336 394.557C71.0456 394.557 72.6016 396.146 72.6016 399.323C72.6016 399.746 72.5723 400.169 72.5137 400.592H65.707C65.707 402.038 66.7682 402.76 68.8906 402.76C69.9258 402.76 70.9609 402.663 71.9961 402.467V404.518C71.0911 404.713 69.9909 404.811 68.6953 404.811C64.9779 404.811 63.1191 403.063 63.1191 399.567C63.1191 396.227 64.724 394.557 67.9336 394.557ZM65.707 398.795H70.082V398.717C70.082 397.298 69.3659 396.588 67.9336 396.588C66.5664 396.588 65.8242 397.324 65.707 398.795ZM74.5449 404.323V402.174C75.6842 402.63 76.9993 402.858 78.4902 402.858C79.6035 402.858 80.1602 402.5 80.1602 401.784C80.1602 401.1 79.7858 400.758 79.0371 400.758H77.1816C75.0983 400.758 74.0566 399.733 74.0566 397.682C74.0566 395.534 75.5768 394.459 78.6172 394.459C79.9062 394.459 81.1204 394.655 82.2598 395.045V397.194C81.1204 396.738 79.8835 396.51 78.5488 396.51C77.1491 396.51 76.4492 396.868 76.4492 397.584C76.4492 398.268 76.8561 398.61 77.6699 398.61H79.3301C81.6087 398.61 82.748 399.635 82.748 401.686C82.748 403.834 81.2962 404.909 78.3926 404.909C76.9668 404.909 75.6842 404.713 74.5449 404.323ZM91.4004 397.79C91.4004 401.038 92.8424 402.663 95.7266 402.663C98.5391 402.663 99.9453 401.038 99.9453 397.79C99.9453 394.593 98.5391 392.995 95.7266 392.995C92.8424 392.995 91.4004 394.593 91.4004 397.79ZM88.7148 397.848C88.7148 393.115 91.0521 390.749 95.7266 390.749C100.329 390.749 102.631 393.115 102.631 397.848C102.631 402.555 100.329 404.909 95.7266 404.909C91.2604 404.909 88.9232 402.555 88.7148 397.848ZM114.066 394.557V404.811H112.045L111.732 403.502C110.554 404.375 109.304 404.811 107.982 404.811C105.886 404.811 104.838 403.571 104.838 401.09V394.557H107.426V401.022C107.426 402.155 107.921 402.721 108.91 402.721C109.75 402.721 110.606 402.386 111.479 401.715V394.557H114.066ZM116.371 392.897H118.285L118.676 394.557H121.254V396.608H118.959V401.325C118.959 402.282 119.372 402.76 120.199 402.76H121.254V404.811H118.949C117.23 404.811 116.371 403.89 116.371 402.047V392.897Z" fill="white"/>
<path d="M27.25 419.342L25.4727 422.944L21.5 423.518L24.375 426.323L23.6953 430.28L27.25 428.413L30.8047 430.28L30.125 426.323L33 423.522L29.0273 422.944L27.25 419.342Z" fill="#F39B13"/>
<path d="M37.8301 429.811L41.6787 420.952H36.5244V419.817H42.9502V420.808L39.1562 429.811H37.8301ZM44.625 429.052C44.625 428.879 44.6478 428.733 44.6934 428.615C44.7389 428.492 44.8005 428.394 44.8779 428.321C44.9554 428.243 45.0465 428.189 45.1514 428.157C45.2562 428.12 45.3701 428.102 45.4932 428.102C45.6117 428.102 45.7233 428.12 45.8281 428.157C45.9375 428.189 46.0309 428.243 46.1084 428.321C46.1859 428.394 46.2474 428.492 46.293 428.615C46.3385 428.733 46.3613 428.879 46.3613 429.052C46.3613 429.221 46.3385 429.367 46.293 429.49C46.2474 429.608 46.1859 429.706 46.1084 429.784C46.0309 429.861 45.9375 429.918 45.8281 429.955C45.7233 429.991 45.6117 430.009 45.4932 430.009C45.3701 430.009 45.2562 429.991 45.1514 429.955C45.0465 429.918 44.9554 429.861 44.8779 429.784C44.8005 429.706 44.7389 429.608 44.6934 429.49C44.6478 429.367 44.625 429.221 44.625 429.052ZM54.4072 424.083C54.4072 424.561 54.3822 425.04 54.332 425.518C54.2865 425.992 54.2021 426.445 54.0791 426.878C53.9606 427.311 53.7965 427.717 53.5869 428.095C53.3773 428.469 53.1107 428.792 52.7871 429.066C52.4635 429.339 52.0762 429.556 51.625 429.715C51.1738 429.87 50.6452 429.948 50.0391 429.948C49.9525 429.948 49.8568 429.945 49.752 429.941C49.6471 429.936 49.5423 429.927 49.4375 429.914C49.3327 429.904 49.2301 429.893 49.1299 429.879C49.0296 429.866 48.9408 429.847 48.8633 429.825V428.758C49.0228 428.818 49.2028 428.861 49.4033 428.888C49.6038 428.916 49.8021 428.929 49.998 428.929C50.6133 428.929 51.1191 428.822 51.5156 428.608C51.9121 428.394 52.2266 428.104 52.459 427.74C52.6914 427.371 52.8555 426.942 52.9512 426.455C53.0514 425.967 53.113 425.452 53.1357 424.91H53.0469C52.9557 425.074 52.8464 425.226 52.7188 425.368C52.5911 425.509 52.4408 425.632 52.2676 425.737C52.0944 425.842 51.8984 425.924 51.6797 425.983C51.4609 426.042 51.2171 426.072 50.9482 426.072C50.5153 426.072 50.1234 426.006 49.7725 425.874C49.4215 425.737 49.123 425.539 48.877 425.279C48.6309 425.019 48.4395 424.702 48.3027 424.329C48.1706 423.95 48.1045 423.52 48.1045 423.037C48.1045 422.517 48.1751 422.05 48.3164 421.635C48.4622 421.216 48.665 420.863 48.9248 420.576C49.1891 420.284 49.5081 420.061 49.8818 419.906C50.2601 419.751 50.6816 419.673 51.1465 419.673C51.6068 419.673 52.0352 419.762 52.4316 419.94C52.8281 420.118 53.1722 420.389 53.4639 420.753C53.7555 421.118 53.9857 421.578 54.1543 422.134C54.3229 422.686 54.4072 423.335 54.4072 424.083ZM51.1602 420.726C50.8867 420.726 50.6361 420.772 50.4082 420.863C50.1849 420.954 49.9912 421.095 49.8271 421.287C49.6631 421.478 49.5355 421.72 49.4443 422.011C49.3577 422.298 49.3145 422.64 49.3145 423.037C49.3145 423.356 49.3509 423.643 49.4238 423.898C49.5013 424.149 49.6152 424.363 49.7656 424.541C49.916 424.718 50.1029 424.855 50.3262 424.951C50.554 425.046 50.8184 425.094 51.1191 425.094C51.429 425.094 51.7093 425.042 51.96 424.937C52.2106 424.828 52.4248 424.689 52.6025 424.52C52.7803 424.347 52.917 424.151 53.0127 423.932C53.113 423.713 53.1631 423.495 53.1631 423.276C53.1631 422.971 53.1198 422.667 53.0332 422.367C52.9512 422.061 52.8258 421.788 52.6572 421.546C52.4932 421.3 52.2858 421.102 52.0352 420.952C51.7845 420.801 51.4928 420.726 51.1602 420.726Z" fill="white"/>
<path d="M60.1523 420.036V429.811H58.8877V420.036H60.1523ZM62.6885 429.811V420.036H64.2949L67.8838 428.191L71.4043 420.036H72.9424V429.811H71.8145V421.792L68.3418 429.811H67.3438L63.8164 421.792V429.811H62.6885ZM78.8213 428.786C81.2139 428.786 82.4102 427.409 82.4102 424.657C82.4102 422.26 81.2139 421.061 78.8213 421.061H76.5312V428.786H78.8213ZM75.2666 429.811V420.036H78.8213C82.057 420.036 83.6748 421.576 83.6748 424.657C83.6748 428.093 82.057 429.811 78.8213 429.811H75.2666ZM86.6484 428.56C87.0632 428.692 87.5667 428.758 88.1592 428.758C89.7542 428.758 90.5518 427.849 90.5518 426.031C90.5518 424.495 89.8294 423.727 88.3848 423.727C87.7285 423.727 87.1497 423.85 86.6484 424.096V428.56ZM85.3838 420.036H86.6484V422.975C87.1908 422.747 87.7718 422.633 88.3916 422.633C90.6611 422.633 91.7959 423.782 91.7959 426.079C91.7959 428.567 90.6042 429.811 88.2207 429.811C87.1908 429.811 86.2451 429.713 85.3838 429.517V420.036Z" fill="white"/>
<path d="M28.2666 453.811H21.5605V452.341L23.9121 449.805C24.2083 449.486 24.4772 449.192 24.7188 448.923C24.9603 448.654 25.1676 448.392 25.3408 448.137C25.514 447.882 25.6484 447.622 25.7441 447.358C25.8398 447.094 25.8877 446.809 25.8877 446.503C25.8877 446.166 25.7852 445.904 25.5801 445.717C25.3796 445.53 25.1084 445.437 24.7666 445.437C24.4066 445.437 24.0602 445.526 23.7275 445.704C23.3949 445.881 23.0462 446.134 22.6816 446.462L21.5332 445.102C21.7383 444.915 21.9525 444.737 22.1758 444.569C22.3991 444.396 22.6452 444.243 22.9141 444.111C23.1829 443.979 23.4792 443.874 23.8027 443.796C24.1263 443.714 24.4886 443.673 24.8896 443.673C25.3682 443.673 25.7965 443.739 26.1748 443.872C26.5576 444.004 26.8835 444.193 27.1523 444.439C27.4212 444.681 27.6263 444.974 27.7676 445.321C27.9134 445.667 27.9863 446.057 27.9863 446.49C27.9863 446.882 27.918 447.258 27.7812 447.618C27.6445 447.973 27.4577 448.324 27.2207 448.67C26.9837 449.012 26.708 449.354 26.3936 449.696C26.0837 450.033 25.751 450.377 25.3955 450.728L24.1924 451.938V452.034H28.2666V453.811ZM40.0723 453.811H37.9873V449.347C37.9873 448.796 37.9007 448.383 37.7275 448.11C37.5589 447.832 37.2969 447.693 36.9414 447.693C36.6725 447.693 36.4469 447.748 36.2646 447.857C36.0824 447.966 35.9365 448.128 35.8271 448.342C35.7178 448.556 35.6403 448.821 35.5947 449.135C35.5492 449.45 35.5264 449.81 35.5264 450.215V453.811H33.4414V443.174H35.5264V445.341C35.5264 445.533 35.5218 445.736 35.5127 445.95C35.5036 446.159 35.4922 446.353 35.4785 446.531C35.4603 446.74 35.4443 446.945 35.4307 447.146H35.54C35.7633 446.75 36.0482 446.465 36.3945 446.292C36.7409 446.114 37.1328 446.025 37.5703 446.025C37.9486 446.025 38.2904 446.08 38.5957 446.189C38.9056 446.294 39.1699 446.46 39.3887 446.688C39.6074 446.916 39.776 447.208 39.8945 447.563C40.013 447.914 40.0723 448.335 40.0723 448.828V453.811ZM46.2041 446.025C46.2588 446.025 46.318 446.027 46.3818 446.032C46.4502 446.032 46.514 446.036 46.5732 446.045C46.637 446.05 46.694 446.057 46.7441 446.066C46.7988 446.07 46.8398 446.077 46.8672 446.086V448.042C46.8307 448.032 46.7806 448.023 46.7168 448.014C46.653 448.005 46.5846 447.998 46.5117 447.994C46.4434 447.985 46.375 447.98 46.3066 447.98C46.2383 447.975 46.1813 447.973 46.1357 447.973C45.8669 447.973 45.6185 448.007 45.3906 448.076C45.1673 448.144 44.9736 448.256 44.8096 448.411C44.6501 448.561 44.5247 448.762 44.4336 449.012C44.347 449.258 44.3037 449.561 44.3037 449.921V453.811H42.2188V446.168H43.7979L44.1055 447.317H44.208C44.3174 447.121 44.4359 446.943 44.5635 446.784C44.6911 446.624 44.8324 446.49 44.9873 446.38C45.1468 446.266 45.3245 446.18 45.5205 446.121C45.721 446.057 45.9489 446.025 46.2041 446.025ZM56.4307 453.811H54.3184V448.028C54.3184 447.909 54.3184 447.768 54.3184 447.604C54.3229 447.435 54.3275 447.262 54.332 447.084C54.3411 446.902 54.348 446.72 54.3525 446.538C54.3617 446.355 54.3685 446.189 54.373 446.039C54.3503 446.066 54.3115 446.107 54.2568 446.162C54.2021 446.216 54.1406 446.278 54.0723 446.346C54.0039 446.41 53.9333 446.476 53.8604 446.544C53.7874 446.613 53.7168 446.674 53.6484 446.729L52.5 447.652L51.4746 446.38L54.6943 443.817H56.4307V453.811ZM65.7686 448.083C65.7686 448.561 65.7412 449.04 65.6865 449.518C65.6364 449.992 65.543 450.445 65.4062 450.878C65.2741 451.311 65.0918 451.717 64.8594 452.095C64.6315 452.469 64.3398 452.792 63.9844 453.066C63.6335 453.339 63.2096 453.556 62.7129 453.715C62.2207 453.87 61.6419 453.948 60.9766 453.948C60.8809 453.948 60.776 453.945 60.6621 453.941C60.5482 453.936 60.432 453.93 60.3135 453.92C60.1995 453.916 60.0879 453.907 59.9785 453.893C59.8691 453.884 59.7734 453.87 59.6914 453.852V452.157C59.86 452.202 60.04 452.239 60.2314 452.266C60.4274 452.289 60.6257 452.3 60.8262 452.3C61.4414 452.3 61.9473 452.225 62.3438 452.075C62.7402 451.92 63.0547 451.706 63.2871 451.432C63.5195 451.154 63.6836 450.824 63.7793 450.441C63.8796 450.058 63.9411 449.637 63.9639 449.176H63.875C63.7839 449.34 63.6745 449.493 63.5469 449.634C63.4193 449.776 63.2689 449.899 63.0957 450.003C62.9225 450.108 62.7266 450.19 62.5078 450.25C62.2891 450.309 62.0452 450.338 61.7764 450.338C61.3434 450.338 60.9538 450.268 60.6074 450.126C60.2611 449.985 59.9671 449.78 59.7256 449.511C59.4886 449.242 59.3063 448.912 59.1787 448.52C59.0511 448.128 58.9873 447.679 58.9873 447.173C58.9873 446.631 59.0625 446.146 59.2129 445.717C59.3678 445.289 59.5866 444.927 59.8691 444.63C60.1517 444.33 60.4935 444.099 60.8945 443.94C61.3001 443.78 61.7536 443.701 62.2549 443.701C62.7471 443.701 63.2074 443.79 63.6357 443.967C64.0641 444.14 64.4355 444.407 64.75 444.767C65.0645 445.127 65.3128 445.583 65.4951 446.134C65.6774 446.686 65.7686 447.335 65.7686 448.083ZM62.2959 445.396C62.109 445.396 61.9382 445.43 61.7832 445.499C61.6283 445.567 61.4938 445.674 61.3799 445.82C61.2705 445.961 61.1839 446.143 61.1201 446.367C61.0609 446.585 61.0312 446.845 61.0312 447.146C61.0312 447.629 61.1338 448.012 61.3389 448.294C61.5439 448.577 61.8538 448.718 62.2686 448.718C62.4782 448.718 62.6696 448.677 62.8428 448.595C63.016 448.513 63.1641 448.406 63.2871 448.274C63.4102 448.142 63.5036 447.994 63.5674 447.83C63.6357 447.666 63.6699 447.499 63.6699 447.331C63.6699 447.098 63.6403 446.868 63.5811 446.64C63.5264 446.408 63.4398 446.2 63.3213 446.018C63.2074 445.831 63.0638 445.681 62.8906 445.567C62.722 445.453 62.5238 445.396 62.2959 445.396ZM77.5605 453.811H75.4756V449.347C75.4756 448.796 75.3936 448.383 75.2295 448.11C75.0654 447.832 74.8079 447.693 74.457 447.693C74.1927 447.693 73.9717 447.748 73.7939 447.857C73.6208 447.966 73.4818 448.128 73.377 448.342C73.2721 448.556 73.1969 448.821 73.1514 449.135C73.1058 449.45 73.083 449.81 73.083 450.215V453.811H70.998V446.168H72.5908L72.8711 447.146H72.9873C73.0967 446.95 73.2266 446.781 73.377 446.64C73.5319 446.499 73.7005 446.383 73.8828 446.292C74.0651 446.2 74.2588 446.134 74.4639 446.093C74.6689 446.048 74.8763 446.025 75.0859 446.025C75.61 446.025 76.0544 446.116 76.4189 446.298C76.7881 446.476 77.0706 446.759 77.2666 447.146H77.4375C77.5469 446.95 77.679 446.781 77.834 446.64C77.9889 446.499 78.1598 446.383 78.3467 446.292C78.5335 446.2 78.7295 446.134 78.9346 446.093C79.1442 446.048 79.3538 446.025 79.5635 446.025C80.3838 446.025 81.0013 446.248 81.416 446.695C81.8353 447.137 82.0449 447.848 82.0449 448.828V453.811H79.9531V449.347C79.9531 448.796 79.8711 448.383 79.707 448.11C79.543 447.832 79.2855 447.693 78.9346 447.693C78.4378 447.693 78.0846 447.891 77.875 448.288C77.6654 448.68 77.5605 449.242 77.5605 449.976V453.811ZM84.1025 444.193C84.1025 443.997 84.1322 443.835 84.1914 443.708C84.2507 443.575 84.3304 443.471 84.4307 443.393C84.5355 443.311 84.6562 443.254 84.793 443.222C84.9342 443.19 85.0824 443.174 85.2373 443.174C85.3923 443.174 85.5381 443.19 85.6748 443.222C85.8115 443.254 85.93 443.311 86.0303 443.393C86.1351 443.471 86.2171 443.575 86.2764 443.708C86.3402 443.835 86.3721 443.997 86.3721 444.193C86.3721 444.384 86.3402 444.546 86.2764 444.678C86.2171 444.81 86.1351 444.917 86.0303 445C85.93 445.077 85.8115 445.134 85.6748 445.17C85.5381 445.202 85.3923 445.218 85.2373 445.218C85.0824 445.218 84.9342 445.202 84.793 445.17C84.6562 445.134 84.5355 445.077 84.4307 445C84.3304 444.917 84.2507 444.81 84.1914 444.678C84.1322 444.546 84.1025 444.384 84.1025 444.193ZM86.2764 453.811H84.1914V446.168H86.2764V453.811ZM95.1016 453.811H93.0166V449.347C93.0166 448.796 92.9323 448.383 92.7637 448.11C92.5996 447.832 92.3353 447.693 91.9707 447.693C91.6973 447.693 91.4694 447.748 91.2871 447.857C91.1048 447.966 90.959 448.128 90.8496 448.342C90.7448 448.556 90.6696 448.821 90.624 449.135C90.5785 449.45 90.5557 449.81 90.5557 450.215V453.811H88.4707V446.168H90.0635L90.3438 447.146H90.46C90.5693 446.95 90.7015 446.781 90.8564 446.64C91.016 446.499 91.1891 446.383 91.376 446.292C91.5628 446.2 91.7611 446.134 91.9707 446.093C92.1803 446.048 92.3945 446.025 92.6133 446.025C92.987 446.025 93.3265 446.08 93.6318 446.189C93.9372 446.294 94.1992 446.46 94.418 446.688C94.6367 446.916 94.8053 447.208 94.9238 447.563C95.0423 447.914 95.1016 448.335 95.1016 448.828V453.811Z" fill="white"/>
<path d="M112.267 453.811H105.561V452.341L107.912 449.805C108.208 449.486 108.477 449.192 108.719 448.923C108.96 448.654 109.168 448.392 109.341 448.137C109.514 447.882 109.648 447.622 109.744 447.358C109.84 447.094 109.888 446.809 109.888 446.503C109.888 446.166 109.785 445.904 109.58 445.717C109.38 445.53 109.108 445.437 108.767 445.437C108.407 445.437 108.06 445.526 107.728 445.704C107.395 445.881 107.046 446.134 106.682 446.462L105.533 445.102C105.738 444.915 105.952 444.737 106.176 444.569C106.399 444.396 106.645 444.243 106.914 444.111C107.183 443.979 107.479 443.874 107.803 443.796C108.126 443.714 108.489 443.673 108.89 443.673C109.368 443.673 109.797 443.739 110.175 443.872C110.558 444.004 110.883 444.193 111.152 444.439C111.421 444.681 111.626 444.974 111.768 445.321C111.913 445.667 111.986 446.057 111.986 446.49C111.986 446.882 111.918 447.258 111.781 447.618C111.645 447.973 111.458 448.324 111.221 448.67C110.984 449.012 110.708 449.354 110.394 449.696C110.084 450.033 109.751 450.377 109.396 450.728L108.192 451.938V452.034H112.267V453.811ZM119.991 448.814C119.991 449.621 119.927 450.341 119.8 450.974C119.677 451.608 119.476 452.145 119.198 452.587C118.925 453.029 118.569 453.367 118.132 453.599C117.699 453.832 117.175 453.948 116.56 453.948C115.981 453.948 115.477 453.832 115.049 453.599C114.62 453.367 114.265 453.029 113.982 452.587C113.7 452.145 113.488 451.608 113.347 450.974C113.21 450.341 113.142 449.621 113.142 448.814C113.142 448.007 113.203 447.285 113.326 446.647C113.454 446.009 113.654 445.469 113.928 445.027C114.201 444.585 114.554 444.248 114.987 444.015C115.42 443.778 115.944 443.66 116.56 443.66C117.134 443.66 117.635 443.776 118.063 444.008C118.492 444.241 118.85 444.578 119.137 445.02C119.424 445.462 119.638 446.002 119.779 446.64C119.921 447.278 119.991 448.003 119.991 448.814ZM115.247 448.814C115.247 449.953 115.345 450.81 115.541 451.384C115.737 451.958 116.076 452.246 116.56 452.246C117.034 452.246 117.373 451.961 117.578 451.391C117.788 450.821 117.893 449.962 117.893 448.814C117.893 447.67 117.788 446.811 117.578 446.237C117.373 445.658 117.034 445.369 116.56 445.369C116.318 445.369 116.113 445.442 115.944 445.587C115.78 445.733 115.646 445.95 115.541 446.237C115.436 446.524 115.361 446.884 115.315 447.317C115.27 447.745 115.247 448.244 115.247 448.814ZM126.007 453.811H123.895V448.028C123.895 447.909 123.895 447.768 123.895 447.604C123.899 447.435 123.904 447.262 123.908 447.084C123.917 446.902 123.924 446.72 123.929 446.538C123.938 446.355 123.945 446.189 123.949 446.039C123.926 446.066 123.888 446.107 123.833 446.162C123.778 446.216 123.717 446.278 123.648 446.346C123.58 446.41 123.509 446.476 123.437 446.544C123.364 446.613 123.293 446.674 123.225 446.729L122.076 447.652L121.051 446.38L124.271 443.817H126.007V453.811ZM135.345 448.083C135.345 448.561 135.317 449.04 135.263 449.518C135.213 449.992 135.119 450.445 134.982 450.878C134.85 451.311 134.668 451.717 134.436 452.095C134.208 452.469 133.916 452.792 133.561 453.066C133.21 453.339 132.786 453.556 132.289 453.715C131.797 453.87 131.218 453.948 130.553 453.948C130.457 453.948 130.352 453.945 130.238 453.941C130.124 453.936 130.008 453.93 129.89 453.92C129.776 453.916 129.664 453.907 129.555 453.893C129.445 453.884 129.35 453.87 129.268 453.852V452.157C129.436 452.202 129.616 452.239 129.808 452.266C130.004 452.289 130.202 452.3 130.402 452.3C131.018 452.3 131.523 452.225 131.92 452.075C132.316 451.92 132.631 451.706 132.863 451.432C133.096 451.154 133.26 450.824 133.355 450.441C133.456 450.058 133.517 449.637 133.54 449.176H133.451C133.36 449.34 133.251 449.493 133.123 449.634C132.995 449.776 132.845 449.899 132.672 450.003C132.499 450.108 132.303 450.19 132.084 450.25C131.865 450.309 131.621 450.338 131.353 450.338C130.92 450.338 130.53 450.268 130.184 450.126C129.837 449.985 129.543 449.78 129.302 449.511C129.065 449.242 128.882 448.912 128.755 448.52C128.627 448.128 128.563 447.679 128.563 447.173C128.563 446.631 128.639 446.146 128.789 445.717C128.944 445.289 129.163 444.927 129.445 444.63C129.728 444.33 130.07 444.099 130.471 443.94C130.876 443.78 131.33 443.701 131.831 443.701C132.323 443.701 132.784 443.79 133.212 443.967C133.64 444.14 134.012 444.407 134.326 444.767C134.641 445.127 134.889 445.583 135.071 446.134C135.254 446.686 135.345 447.335 135.345 448.083ZM131.872 445.396C131.685 445.396 131.514 445.43 131.359 445.499C131.204 445.567 131.07 445.674 130.956 445.82C130.847 445.961 130.76 446.143 130.696 446.367C130.637 446.585 130.607 446.845 130.607 447.146C130.607 447.629 130.71 448.012 130.915 448.294C131.12 448.577 131.43 448.718 131.845 448.718C132.054 448.718 132.246 448.677 132.419 448.595C132.592 448.513 132.74 448.406 132.863 448.274C132.986 448.142 133.08 447.994 133.144 447.83C133.212 447.666 133.246 447.499 133.246 447.331C133.246 447.098 133.216 446.868 133.157 446.64C133.103 446.408 133.016 446.2 132.897 446.018C132.784 445.831 132.64 445.681 132.467 445.567C132.298 445.453 132.1 445.396 131.872 445.396Z" fill="white"/>
<path d="M152.939 445.871C152.591 445.871 152.275 445.937 151.992 446.071C151.709 446.201 151.466 446.39 151.265 446.637C151.066 446.885 150.911 447.186 150.801 447.541C150.693 447.895 150.64 448.296 150.64 448.742C150.64 449.201 150.687 449.609 150.781 449.967C150.879 450.322 151.024 450.622 151.216 450.866C151.408 451.11 151.647 451.295 151.934 451.422C152.22 451.549 152.555 451.613 152.939 451.613C153.229 451.613 153.504 451.585 153.765 451.53C154.025 451.471 154.282 451.404 154.536 451.33V452.121C154.409 452.169 154.282 452.213 154.155 452.252C154.028 452.288 153.895 452.318 153.755 452.34C153.618 452.363 153.47 452.379 153.311 452.389C153.154 452.402 152.98 452.409 152.788 452.409C152.254 452.409 151.792 452.321 151.401 452.145C151.011 451.969 150.687 451.72 150.43 451.398C150.176 451.076 149.987 450.688 149.863 450.236C149.74 449.783 149.678 449.282 149.678 448.732C149.678 448.192 149.748 447.697 149.888 447.248C150.031 446.798 150.239 446.413 150.513 446.09C150.789 445.768 151.131 445.517 151.538 445.338C151.945 445.159 152.412 445.07 152.939 445.07C153.291 445.07 153.626 445.106 153.945 445.177C154.264 445.249 154.552 445.353 154.81 445.49L154.429 446.251C154.224 446.147 154.001 446.058 153.76 445.983C153.519 445.908 153.245 445.871 152.939 445.871ZM158.77 445.871C158.421 445.871 158.105 445.937 157.822 446.071C157.539 446.201 157.297 446.39 157.095 446.637C156.896 446.885 156.742 447.186 156.631 447.541C156.523 447.895 156.47 448.296 156.47 448.742C156.47 449.201 156.517 449.609 156.611 449.967C156.709 450.322 156.854 450.622 157.046 450.866C157.238 451.11 157.477 451.295 157.764 451.422C158.05 451.549 158.385 451.613 158.77 451.613C159.059 451.613 159.334 451.585 159.595 451.53C159.855 451.471 160.112 451.404 160.366 451.33V452.121C160.239 452.169 160.112 452.213 159.985 452.252C159.858 452.288 159.725 452.318 159.585 452.34C159.448 452.363 159.3 452.379 159.141 452.389C158.984 452.402 158.81 452.409 158.618 452.409C158.084 452.409 157.622 452.321 157.231 452.145C156.841 451.969 156.517 451.72 156.26 451.398C156.006 451.076 155.817 450.688 155.693 450.236C155.57 449.783 155.508 449.282 155.508 448.732C155.508 448.192 155.578 447.697 155.718 447.248C155.861 446.798 156.069 446.413 156.343 446.09C156.619 445.768 156.961 445.517 157.368 445.338C157.775 445.159 158.242 445.07 158.77 445.07C159.121 445.07 159.456 445.106 159.775 445.177C160.094 445.249 160.382 445.353 160.64 445.49L160.259 446.251C160.054 446.147 159.831 446.058 159.59 445.983C159.349 445.908 159.076 445.871 158.77 445.871Z" fill="white"/>
<path d="M147 442.811H163V440.811H147V442.811ZM165 444.811V452.811H167V444.811H165ZM163 454.811H147V456.811H163V454.811ZM145 452.811V444.811H143V452.811H145ZM147 454.811C145.895 454.811 145 453.916 145 452.811H143C143 455.02 144.791 456.811 147 456.811V454.811ZM165 452.811C165 453.916 164.105 454.811 163 454.811V456.811C165.209 456.811 167 455.02 167 452.811H165ZM163 442.811C164.105 442.811 165 443.706 165 444.811H167C167 442.602 165.209 440.811 163 440.811V442.811ZM147 440.811C144.791 440.811 143 442.602 143 444.811H145C145 443.706 145.895 442.811 147 442.811V440.811Z" fill="white"/>
<path d="M184.297 447.262C184.297 447.558 184.251 447.843 184.16 448.117C184.072 448.39 183.926 448.633 183.721 448.844C183.516 449.053 183.244 449.22 182.905 449.347C182.57 449.471 182.155 449.533 181.66 449.533H180.928V452.311H180.02V445.172H181.787C182.223 445.172 182.599 445.22 182.915 445.314C183.231 445.405 183.491 445.54 183.696 445.719C183.901 445.895 184.053 446.113 184.15 446.374C184.248 446.634 184.297 446.93 184.297 447.262ZM180.928 448.761H181.558C181.86 448.761 182.124 448.735 182.349 448.683C182.576 448.631 182.764 448.548 182.91 448.434C183.06 448.317 183.172 448.167 183.247 447.985C183.322 447.799 183.359 447.575 183.359 447.311C183.359 446.849 183.226 446.507 182.959 446.286C182.692 446.061 182.275 445.949 181.709 445.949H180.928V448.761ZM188.628 448.542H190.991V452.042C190.812 452.101 190.632 452.153 190.449 452.199C190.267 452.244 190.08 452.282 189.888 452.311C189.696 452.344 189.494 452.368 189.282 452.384C189.071 452.401 188.843 452.409 188.599 452.409C188.088 452.409 187.635 452.324 187.241 452.155C186.847 451.982 186.515 451.738 186.245 451.422C185.975 451.103 185.77 450.718 185.63 450.265C185.49 449.809 185.42 449.298 185.42 448.732C185.42 448.172 185.496 447.666 185.649 447.213C185.806 446.761 186.032 446.377 186.328 446.061C186.624 445.742 186.989 445.498 187.422 445.329C187.858 445.156 188.354 445.07 188.911 445.07C189.272 445.07 189.619 445.106 189.951 445.177C190.283 445.249 190.592 445.353 190.879 445.49L190.527 446.281C190.41 446.225 190.283 446.173 190.146 446.125C190.013 446.076 189.875 446.033 189.731 445.998C189.588 445.958 189.44 445.928 189.287 445.905C189.137 445.882 188.988 445.871 188.838 445.871C188.441 445.871 188.089 445.937 187.783 446.071C187.477 446.201 187.22 446.39 187.012 446.637C186.807 446.885 186.65 447.186 186.543 447.541C186.436 447.895 186.382 448.296 186.382 448.742C186.382 449.165 186.426 449.552 186.514 449.904C186.605 450.255 186.748 450.558 186.943 450.812C187.139 451.066 187.391 451.263 187.7 451.403C188.009 451.543 188.382 451.613 188.818 451.613C188.962 451.613 189.092 451.61 189.209 451.603C189.329 451.593 189.44 451.582 189.541 451.569C189.642 451.556 189.736 451.541 189.824 451.525C189.915 451.505 190.003 451.487 190.088 451.471V449.342H188.628V448.542ZM192.114 450.041V449.22H194.536V450.041H192.114ZM198.408 452.311H197.549V447.853C197.549 447.713 197.549 447.563 197.549 447.404C197.552 447.244 197.555 447.086 197.559 446.93C197.565 446.771 197.57 446.619 197.573 446.476C197.58 446.33 197.585 446.201 197.588 446.09C197.533 446.149 197.484 446.199 197.441 446.242C197.399 446.284 197.355 446.325 197.31 446.364C197.267 446.403 197.222 446.445 197.173 446.491C197.124 446.533 197.065 446.583 196.997 446.642L196.274 447.233L195.806 446.632L197.676 445.172H198.408V452.311ZM205.137 446.842C205.137 447.08 205.099 447.296 205.024 447.492C204.95 447.687 204.844 447.856 204.707 448C204.574 448.143 204.412 448.262 204.224 448.356C204.035 448.447 203.825 448.512 203.594 448.551V448.581C204.17 448.652 204.608 448.836 204.907 449.132C205.207 449.425 205.356 449.808 205.356 450.28C205.356 450.592 205.303 450.879 205.195 451.139C205.091 451.4 204.932 451.624 204.717 451.813C204.502 452.002 204.23 452.148 203.901 452.252C203.573 452.357 203.184 452.409 202.734 452.409C202.38 452.409 202.044 452.381 201.729 452.326C201.416 452.27 201.121 452.169 200.845 452.023V451.193C201.128 451.343 201.434 451.458 201.763 451.54C202.095 451.621 202.412 451.662 202.715 451.662C203.014 451.662 203.273 451.629 203.491 451.564C203.709 451.499 203.888 451.406 204.028 451.286C204.172 451.165 204.276 451.017 204.341 450.841C204.409 450.666 204.443 450.469 204.443 450.25C204.443 450.029 204.399 449.84 204.312 449.684C204.227 449.525 204.105 449.394 203.945 449.293C203.786 449.189 203.59 449.113 203.359 449.064C203.132 449.015 202.873 448.991 202.583 448.991H201.934V448.253H202.583C202.847 448.253 203.081 448.221 203.286 448.156C203.491 448.091 203.662 447.998 203.799 447.877C203.939 447.757 204.045 447.614 204.116 447.448C204.188 447.282 204.224 447.099 204.224 446.901C204.224 446.732 204.194 446.58 204.136 446.447C204.077 446.313 203.994 446.201 203.887 446.11C203.779 446.015 203.651 445.944 203.501 445.895C203.351 445.846 203.185 445.822 203.003 445.822C202.655 445.822 202.347 445.877 202.08 445.988C201.816 446.095 201.564 446.237 201.323 446.413L200.874 445.802C200.998 445.701 201.134 445.607 201.284 445.519C201.437 445.431 201.603 445.355 201.782 445.29C201.961 445.221 202.152 445.167 202.354 445.128C202.559 445.089 202.775 445.07 203.003 445.07C203.354 445.07 203.662 445.114 203.926 445.202C204.193 445.29 204.416 445.413 204.595 445.573C204.774 445.729 204.909 445.916 205 446.134C205.091 446.349 205.137 446.585 205.137 446.842Z" fill="white"/>
<path d="M177 442.811H208V440.811H177V442.811ZM210 444.811V452.811H212V444.811H210ZM208 454.811H177V456.811H208V454.811ZM175 452.811V444.811H173V452.811H175ZM177 454.811C175.895 454.811 175 453.916 175 452.811H173C173 455.02 174.791 456.811 177 456.811V454.811ZM210 452.811C210 453.916 209.105 454.811 208 454.811V456.811C210.209 456.811 212 455.02 212 452.811H210ZM208 442.811C209.105 442.811 210 443.706 210 444.811H212C212 442.602 210.209 440.811 208 440.811V442.811ZM177 440.811C174.791 440.811 173 442.602 173 444.811H175C175 443.706 175.895 442.811 177 442.811V440.811Z" fill="white"/>
<circle cx="22.5" cy="472.811" r="1.5" fill="#E1E1E1" fill-opacity="0.5"/>
<path d="M33.4209 468.794C32.9333 468.794 32.4912 468.888 32.0947 469.075C31.6982 469.257 31.3587 469.521 31.0762 469.868C30.7982 470.214 30.5817 470.636 30.4268 471.132C30.2764 471.629 30.2012 472.19 30.2012 472.814C30.2012 473.457 30.2673 474.028 30.3994 474.53C30.5361 475.027 30.7389 475.446 31.0078 475.788C31.2767 476.129 31.6117 476.389 32.0127 476.567C32.4137 476.745 32.8831 476.833 33.4209 476.833C33.8265 476.833 34.2116 476.795 34.5762 476.717C34.9408 476.635 35.3008 476.542 35.6562 476.437V477.544C35.4785 477.613 35.3008 477.674 35.123 477.729C34.9453 477.779 34.7585 477.82 34.5625 477.852C34.3711 477.884 34.1637 477.907 33.9404 477.92C33.7217 477.939 33.4779 477.948 33.209 477.948C32.4616 477.948 31.8145 477.825 31.2676 477.579C30.7207 477.333 30.2673 476.984 29.9072 476.533C29.5518 476.082 29.2874 475.539 29.1143 474.906C28.9411 474.272 28.8545 473.57 28.8545 472.8C28.8545 472.044 28.9525 471.351 29.1484 470.722C29.349 470.093 29.6406 469.553 30.0234 469.102C30.4108 468.651 30.8893 468.3 31.459 468.049C32.0286 467.799 32.6826 467.673 33.4209 467.673C33.9131 467.673 34.3825 467.723 34.8291 467.824C35.2757 467.924 35.679 468.07 36.0391 468.261L35.5059 469.328C35.2188 469.182 34.9066 469.056 34.5693 468.952C34.2321 468.847 33.8493 468.794 33.4209 468.794ZM43.7568 474.044C43.7568 474.669 43.6794 475.225 43.5244 475.712C43.374 476.195 43.1553 476.603 42.8682 476.936C42.5856 477.264 42.2415 477.515 41.8359 477.688C41.4303 477.861 40.9746 477.948 40.4688 477.948C39.9993 477.948 39.5664 477.861 39.1699 477.688C38.7734 477.515 38.4294 477.264 38.1377 476.936C37.8506 476.603 37.625 476.195 37.4609 475.712C37.3014 475.225 37.2217 474.669 37.2217 474.044C37.2217 473.425 37.2969 472.875 37.4473 472.397C37.6022 471.914 37.821 471.508 38.1035 471.18C38.3861 470.847 38.7301 470.597 39.1357 470.428C39.5459 470.255 40.0039 470.168 40.5098 470.168C40.9792 470.168 41.4121 470.255 41.8086 470.428C42.2051 470.597 42.5469 470.847 42.834 471.18C43.1257 471.508 43.3512 471.914 43.5107 472.397C43.6748 472.875 43.7568 473.425 43.7568 474.044ZM38.5068 474.044C38.5068 474.997 38.6618 475.715 38.9717 476.198C39.2861 476.676 39.7943 476.916 40.4961 476.916C41.1979 476.916 41.7015 476.676 42.0068 476.198C42.3167 475.715 42.4717 474.997 42.4717 474.044C42.4717 473.092 42.3145 472.381 42 471.912C41.6901 471.438 41.1842 471.201 40.4824 471.201C39.7806 471.201 39.2747 471.438 38.9648 471.912C38.6595 472.381 38.5068 473.092 38.5068 474.044ZM54.708 477.811V472.978C54.708 472.386 54.5941 471.941 54.3662 471.645C54.1383 471.349 53.7852 471.201 53.3066 471.201C52.974 471.201 52.6914 471.255 52.459 471.365C52.2266 471.47 52.0352 471.627 51.8848 471.836C51.7389 472.042 51.6318 472.299 51.5635 472.609C51.4951 472.914 51.4609 473.267 51.4609 473.668V477.811H50.21V472.978C50.21 472.386 50.096 471.941 49.8682 471.645C49.6449 471.349 49.2939 471.201 48.8154 471.201C48.4645 471.201 48.1706 471.26 47.9336 471.378C47.6966 471.497 47.5052 471.672 47.3594 471.905C47.2181 472.137 47.1156 472.422 47.0518 472.759C46.9925 473.097 46.9629 473.484 46.9629 473.921V477.811H45.7188V470.305H46.7305L46.9082 471.317H46.9766C47.0859 471.121 47.2158 470.952 47.3662 470.811C47.5166 470.665 47.6807 470.544 47.8584 470.449C48.0407 470.353 48.2321 470.282 48.4326 470.237C48.6377 470.191 48.8451 470.168 49.0547 470.168C49.6016 470.168 50.055 470.269 50.415 470.469C50.7796 470.67 51.0485 470.984 51.2217 471.413H51.2764C51.3949 471.198 51.5361 471.014 51.7002 470.859C51.8688 470.704 52.0511 470.576 52.2471 470.476C52.4476 470.371 52.6572 470.294 52.876 470.244C53.0947 470.194 53.318 470.168 53.5459 470.168C54.3434 470.168 54.9427 470.387 55.3438 470.825C55.7493 471.258 55.9521 471.953 55.9521 472.91V477.811H54.708ZM61.2363 477.948C60.735 477.948 60.277 477.863 59.8623 477.695C59.4476 477.526 59.0898 477.28 58.7891 476.957C58.4928 476.633 58.2627 476.232 58.0986 475.753C57.9346 475.275 57.8525 474.728 57.8525 474.113C57.8525 473.493 57.9277 472.939 58.0781 472.452C58.2285 471.964 58.4404 471.552 58.7139 471.214C58.9873 470.873 59.3132 470.613 59.6914 470.435C60.0742 470.257 60.4958 470.168 60.9561 470.168C61.4072 470.168 61.8128 470.25 62.1729 470.415C62.5329 470.574 62.8382 470.802 63.0889 471.098C63.3395 471.39 63.5309 471.743 63.6631 472.158C63.7998 472.568 63.8682 473.024 63.8682 473.525V474.297H59.1377C59.1605 475.177 59.3451 475.824 59.6914 476.239C60.0423 476.653 60.5618 476.861 61.25 476.861C61.4824 476.861 61.6966 476.849 61.8926 476.827C62.0931 476.804 62.2845 476.772 62.4668 476.731C62.6536 476.685 62.8337 476.631 63.0068 476.567C63.18 476.499 63.3555 476.423 63.5332 476.341V477.449C63.3509 477.535 63.1709 477.611 62.9932 477.674C62.82 477.738 62.64 477.791 62.4531 477.832C62.2708 477.873 62.0794 477.902 61.8789 477.92C61.6829 477.939 61.4688 477.948 61.2363 477.948ZM60.9287 471.201C60.4092 471.201 59.9967 471.378 59.6914 471.734C59.3906 472.089 59.2152 472.607 59.165 473.286H62.5283C62.5283 472.976 62.4964 472.693 62.4326 472.438C62.3734 472.178 62.2777 471.957 62.1455 471.775C62.0179 471.593 61.8538 471.451 61.6533 471.351C61.4528 471.251 61.2113 471.201 60.9287 471.201ZM70.3965 476.806H70.3418C70.2415 476.961 70.123 477.109 69.9863 477.25C69.8542 477.387 69.6992 477.508 69.5215 477.613C69.3483 477.718 69.1523 477.8 68.9336 477.859C68.7148 477.918 68.4688 477.948 68.1953 477.948C67.7715 477.948 67.3841 477.866 67.0332 477.702C66.6823 477.538 66.3815 477.294 66.1309 476.97C65.8802 476.642 65.6865 476.236 65.5498 475.753C65.4131 475.27 65.3447 474.71 65.3447 474.072C65.3447 473.429 65.4131 472.866 65.5498 472.383C65.6865 471.896 65.8802 471.488 66.1309 471.16C66.3815 470.832 66.6823 470.585 67.0332 470.421C67.3841 470.253 67.7715 470.168 68.1953 470.168C68.4642 470.168 68.708 470.198 68.9268 470.257C69.1455 470.317 69.3415 470.396 69.5146 470.497C69.6924 470.597 69.8496 470.713 69.9863 470.845C70.123 470.977 70.2415 471.116 70.3418 471.262H70.4238C70.4102 471.107 70.3965 470.959 70.3828 470.818C70.3737 470.699 70.3646 470.579 70.3555 470.456C70.3464 470.328 70.3418 470.228 70.3418 470.155V467.174H71.5859V477.811H70.5811L70.3965 476.806ZM68.4346 476.916C68.7809 476.916 69.0726 476.863 69.3096 476.758C69.5511 476.653 69.7448 476.494 69.8906 476.28C70.041 476.066 70.1504 475.799 70.2188 475.48C70.2917 475.156 70.3327 474.78 70.3418 474.352V474.072C70.3418 473.611 70.3099 473.204 70.2461 472.848C70.1868 472.488 70.082 472.187 69.9316 471.946C69.7858 471.7 69.5898 471.515 69.3438 471.392C69.0977 471.264 68.79 471.201 68.4209 471.201C67.8057 471.201 67.3522 471.449 67.0605 471.946C66.7734 472.443 66.6299 473.156 66.6299 474.085C66.6299 475.038 66.7734 475.749 67.0605 476.218C67.3522 476.683 67.8102 476.916 68.4346 476.916ZM72.8438 470.305H74.1357L75.6055 474.496C75.6693 474.678 75.7331 474.869 75.7969 475.07C75.8652 475.27 75.9268 475.471 75.9814 475.671C76.0407 475.872 76.0908 476.066 76.1318 476.252C76.1729 476.439 76.2025 476.612 76.2207 476.772H76.2617C76.2845 476.658 76.321 476.503 76.3711 476.307C76.4212 476.111 76.4759 475.904 76.5352 475.685C76.599 475.462 76.6628 475.243 76.7266 475.029C76.7949 474.815 76.8542 474.632 76.9043 474.482L78.2646 470.305H79.5498L76.583 478.789C76.4554 479.158 76.3164 479.488 76.166 479.78C76.0202 480.076 75.8493 480.327 75.6533 480.532C75.4574 480.737 75.2272 480.894 74.9629 481.003C74.6986 481.117 74.3841 481.174 74.0195 481.174C73.7826 481.174 73.5775 481.161 73.4043 481.133C73.2311 481.111 73.083 481.085 72.96 481.058V480.067C73.0557 480.09 73.1764 480.108 73.3223 480.122C73.4681 480.14 73.6208 480.149 73.7803 480.149C73.999 480.149 74.1882 480.122 74.3477 480.067C74.5072 480.017 74.6462 479.942 74.7646 479.841C74.8831 479.741 74.9834 479.618 75.0654 479.472C75.152 479.326 75.2295 479.16 75.2979 478.973L75.6875 477.879L72.8438 470.305Z" fill="white"/>
<g clip-path="url(#clip1)">
<circle cx="91.5" cy="472.811" r="1.5" fill="#E1E1E1" fill-opacity="0.5"/>
<path d="M102.489 477.811L99.4609 469.061H99.4062C99.4336 469.398 99.4564 469.733 99.4746 470.066C99.4928 470.353 99.5065 470.656 99.5156 470.975C99.5293 471.29 99.5361 471.577 99.5361 471.836V477.811H98.3604V467.817H100.247L103.063 475.965H103.104L105.935 467.817H107.821V477.811H106.55V471.748C106.55 471.511 106.554 471.239 106.563 470.934C106.573 470.629 106.584 470.337 106.598 470.059C106.616 469.736 106.632 469.407 106.646 469.075H106.591L103.535 477.811H102.489ZM109.25 470.305H110.542L112.012 474.496C112.076 474.678 112.139 474.869 112.203 475.07C112.271 475.27 112.333 475.471 112.388 475.671C112.447 475.872 112.497 476.066 112.538 476.252C112.579 476.439 112.609 476.612 112.627 476.772H112.668C112.691 476.658 112.727 476.503 112.777 476.307C112.827 476.111 112.882 475.904 112.941 475.685C113.005 475.462 113.069 475.243 113.133 475.029C113.201 474.815 113.26 474.632 113.311 474.482L114.671 470.305H115.956L112.989 478.789C112.862 479.158 112.723 479.488 112.572 479.78C112.426 480.076 112.256 480.327 112.06 480.532C111.864 480.737 111.633 480.894 111.369 481.003C111.105 481.117 110.79 481.174 110.426 481.174C110.189 481.174 109.984 481.161 109.811 481.133C109.637 481.111 109.489 481.085 109.366 481.058V480.067C109.462 480.09 109.583 480.108 109.729 480.122C109.874 480.14 110.027 480.149 110.187 480.149C110.405 480.149 110.594 480.122 110.754 480.067C110.913 480.017 111.052 479.942 111.171 479.841C111.289 479.741 111.39 479.618 111.472 479.472C111.558 479.326 111.636 479.16 111.704 478.973L112.094 477.879L109.25 470.305ZM121.712 475.753C121.712 476.118 121.646 476.437 121.514 476.71C121.382 476.984 121.19 477.214 120.939 477.401C120.693 477.583 120.395 477.72 120.044 477.811C119.693 477.902 119.299 477.948 118.861 477.948C118.365 477.948 117.938 477.907 117.583 477.825C117.228 477.747 116.915 477.631 116.646 477.476V476.341C116.788 476.414 116.945 476.487 117.118 476.56C117.291 476.628 117.474 476.69 117.665 476.745C117.856 476.799 118.052 476.845 118.253 476.881C118.458 476.913 118.661 476.929 118.861 476.929C119.158 476.929 119.408 476.904 119.613 476.854C119.823 476.804 119.992 476.733 120.119 476.642C120.251 476.546 120.347 476.432 120.406 476.3C120.465 476.164 120.495 476.013 120.495 475.849C120.495 475.708 120.472 475.58 120.427 475.466C120.381 475.352 120.297 475.241 120.174 475.131C120.055 475.017 119.891 474.903 119.682 474.79C119.472 474.676 119.203 474.548 118.875 474.407C118.547 474.265 118.251 474.126 117.986 473.99C117.727 473.853 117.506 473.7 117.323 473.532C117.141 473.363 117 473.169 116.899 472.951C116.804 472.727 116.756 472.463 116.756 472.158C116.756 471.839 116.817 471.556 116.94 471.31C117.068 471.059 117.246 470.85 117.474 470.681C117.701 470.513 117.975 470.385 118.294 470.298C118.613 470.212 118.968 470.168 119.36 470.168C119.802 470.168 120.206 470.216 120.57 470.312C120.939 470.408 121.288 470.533 121.616 470.688L121.186 471.693C120.889 471.561 120.584 471.447 120.27 471.351C119.96 471.251 119.643 471.201 119.319 471.201C118.854 471.201 118.51 471.278 118.287 471.433C118.064 471.583 117.952 471.8 117.952 472.083C117.952 472.242 117.977 472.381 118.027 472.5C118.082 472.618 118.173 472.73 118.301 472.834C118.428 472.939 118.599 473.046 118.813 473.156C119.028 473.261 119.294 473.379 119.613 473.511C119.941 473.648 120.233 473.785 120.488 473.921C120.748 474.058 120.969 474.213 121.151 474.386C121.334 474.555 121.473 474.749 121.568 474.967C121.664 475.186 121.712 475.448 121.712 475.753ZM125.807 476.929C125.889 476.929 125.98 476.925 126.08 476.916C126.185 476.906 126.285 476.895 126.381 476.881C126.477 476.868 126.563 476.852 126.641 476.833C126.723 476.815 126.784 476.799 126.825 476.786V477.729C126.766 477.756 126.691 477.784 126.6 477.811C126.508 477.838 126.408 477.861 126.299 477.879C126.189 477.902 126.076 477.918 125.957 477.927C125.839 477.941 125.722 477.948 125.608 477.948C125.326 477.948 125.064 477.911 124.822 477.838C124.581 477.765 124.371 477.64 124.193 477.462C124.02 477.285 123.883 477.045 123.783 476.745C123.683 476.439 123.633 476.056 123.633 475.596V471.242H122.573V470.688L123.633 470.155L124.166 468.583H124.884V470.305H126.771V471.242H124.884V475.596C124.884 476.038 124.954 476.371 125.096 476.594C125.242 476.818 125.479 476.929 125.807 476.929ZM131.248 477.948C130.747 477.948 130.289 477.863 129.874 477.695C129.459 477.526 129.102 477.28 128.801 476.957C128.505 476.633 128.274 476.232 128.11 475.753C127.946 475.275 127.864 474.728 127.864 474.113C127.864 473.493 127.939 472.939 128.09 472.452C128.24 471.964 128.452 471.552 128.726 471.214C128.999 470.873 129.325 470.613 129.703 470.435C130.086 470.257 130.507 470.168 130.968 470.168C131.419 470.168 131.825 470.25 132.185 470.415C132.545 470.574 132.85 470.802 133.101 471.098C133.351 471.39 133.543 471.743 133.675 472.158C133.812 472.568 133.88 473.024 133.88 473.525V474.297H129.149C129.172 475.177 129.357 475.824 129.703 476.239C130.054 476.653 130.574 476.861 131.262 476.861C131.494 476.861 131.708 476.849 131.904 476.827C132.105 476.804 132.296 476.772 132.479 476.731C132.665 476.685 132.845 476.631 133.019 476.567C133.192 476.499 133.367 476.423 133.545 476.341V477.449C133.363 477.535 133.183 477.611 133.005 477.674C132.832 477.738 132.652 477.791 132.465 477.832C132.283 477.873 132.091 477.902 131.891 477.92C131.695 477.939 131.48 477.948 131.248 477.948ZM130.94 471.201C130.421 471.201 130.008 471.378 129.703 471.734C129.402 472.089 129.227 472.607 129.177 473.286H132.54C132.54 472.976 132.508 472.693 132.444 472.438C132.385 472.178 132.289 471.957 132.157 471.775C132.03 471.593 131.866 471.451 131.665 471.351C131.465 471.251 131.223 471.201 130.94 471.201ZM139.021 470.168C139.153 470.168 139.301 470.175 139.465 470.189C139.629 470.198 139.77 470.214 139.889 470.237L139.725 471.385C139.597 471.362 139.465 471.344 139.328 471.331C139.196 471.312 139.071 471.303 138.952 471.303C138.665 471.303 138.403 471.362 138.166 471.481C137.929 471.595 137.724 471.761 137.551 471.98C137.382 472.194 137.25 472.454 137.154 472.759C137.063 473.06 137.018 473.395 137.018 473.764V477.811H135.773V470.305H136.785L136.936 471.679H136.99C137.104 471.483 137.225 471.294 137.353 471.112C137.485 470.93 137.631 470.77 137.79 470.633C137.954 470.492 138.136 470.38 138.337 470.298C138.537 470.212 138.765 470.168 139.021 470.168ZM140.244 470.305H141.536L143.006 474.496C143.07 474.678 143.133 474.869 143.197 475.07C143.266 475.27 143.327 475.471 143.382 475.671C143.441 475.872 143.491 476.066 143.532 476.252C143.573 476.439 143.603 476.612 143.621 476.772H143.662C143.685 476.658 143.721 476.503 143.771 476.307C143.822 476.111 143.876 475.904 143.936 475.685C143.999 475.462 144.063 475.243 144.127 475.029C144.195 474.815 144.255 474.632 144.305 474.482L145.665 470.305H146.95L143.983 478.789C143.856 479.158 143.717 479.488 143.566 479.78C143.421 480.076 143.25 480.327 143.054 480.532C142.858 480.737 142.628 480.894 142.363 481.003C142.099 481.117 141.785 481.174 141.42 481.174C141.183 481.174 140.978 481.161 140.805 481.133C140.632 481.111 140.483 481.085 140.36 481.058V480.067C140.456 480.09 140.577 480.108 140.723 480.122C140.868 480.14 141.021 480.149 141.181 480.149C141.399 480.149 141.589 480.122 141.748 480.067C141.908 480.017 142.047 479.942 142.165 479.841C142.284 479.741 142.384 479.618 142.466 479.472C142.552 479.326 142.63 479.16 142.698 478.973L143.088 477.879L140.244 470.305Z" fill="white"/>
</g>
<path d="M297 341.75C301.537 341.75 305.25 345.463 305.25 350C305.25 354.537 301.537 358.25 297 358.25C292.463 358.25 288.75 354.537 288.75 350C288.75 345.463 292.463 341.75 297 341.75ZM297 340.375C291.706 340.375 287.375 344.706 287.375 350C287.375 355.294 291.706 359.625 297 359.625C302.294 359.625 306.625 355.294 306.625 350C306.625 344.706 302.294 340.375 297 340.375Z" fill="white"/>
<path d="M302.5 349.312H297.688V344.5H296.312V349.312H291.5V350.688H296.312V355.5H297.688V350.688H302.5V349.312Z" fill="white"/>
<path d="M299.267 376.276C298.605 375.608 297.916 375.026 297.198 374.532C296.481 374.037 295.809 373.666 295.182 373.419C294.556 373.172 293.981 373.053 293.459 373.063C292.936 373.073 292.529 373.228 292.236 373.529C292.167 373.596 292.108 373.671 292.059 373.755C292.01 373.838 291.975 373.903 291.954 373.95C291.934 373.997 291.906 374.081 291.871 374.201C291.836 374.321 291.812 374.398 291.798 374.432L287.912 386.703L288.152 386.944C287.88 387.124 287.638 387.335 287.426 387.576C287.214 387.816 287.027 388.013 286.867 388.167C286.707 388.321 286.515 388.428 286.292 388.488C286.244 388.501 286.183 388.547 286.11 388.623C286.037 388.7 286 388.769 286 388.829C286 388.949 286.063 389.049 286.188 389.13C286.313 389.21 286.453 389.25 286.606 389.25C286.801 389.25 286.989 389.175 287.17 389.024C287.351 388.874 287.534 388.682 287.718 388.448C287.903 388.214 288.037 388.06 288.121 387.987C288.302 387.833 288.504 387.686 288.726 387.546L288.998 387.796L301.346 383.776C301.617 383.696 301.826 383.575 301.972 383.415C302.265 383.114 302.416 382.698 302.427 382.167C302.437 381.635 302.321 381.05 302.077 380.412C301.833 379.774 301.469 379.092 300.985 378.367C300.501 377.642 299.928 376.945 299.267 376.276ZM298.139 377.369C299.204 378.412 300.014 379.409 300.567 380.362C301.121 381.314 301.255 381.941 300.97 382.242C300.684 382.543 300.061 382.432 299.1 381.911C298.139 381.39 297.129 380.611 296.07 379.575C294.998 378.532 294.185 377.536 293.631 376.587C293.077 375.638 292.943 375.01 293.229 374.702C293.514 374.401 294.139 374.512 295.104 375.033C296.069 375.554 297.08 376.333 298.139 377.369ZM295.851 381.52C296.359 381.954 296.864 382.335 297.366 382.663C297.373 382.676 297.547 382.99 297.888 383.605L297.01 383.896C296.593 383.141 296.206 382.349 295.851 381.52ZM292.289 376.928C292.442 377.256 292.654 377.653 292.926 378.121C293.149 379.084 293.499 380.126 293.976 381.249C294.453 382.372 294.973 383.425 295.538 384.407L294.67 384.688C294.016 383.525 293.445 382.307 292.957 381.034C292.47 379.76 292.17 378.636 292.059 377.66L292.289 376.928ZM291.077 380.598C291.564 382.095 292.25 383.632 293.135 385.21L292.278 385.5C291.589 384.23 291.046 383.037 290.649 381.921L291.077 380.598ZM289.876 384.257C290.147 384.872 290.436 385.457 290.743 386.012L289.886 386.302C289.789 386.122 289.649 385.844 289.468 385.47L289.876 384.257ZM297.554 370L298.076 371.514L296.728 372.456H298.389L298.901 373.97L299.413 372.456H301.064L299.726 371.514L300.249 370.01L298.901 370.942L297.554 370ZM294.629 370L294.347 371.374L295.778 371.644L296.06 370.271L294.629 370ZM304.041 374.131L305.19 372.978L306.684 373.68L305.911 372.276L307.07 371.143L305.43 371.414L304.657 370L304.427 371.584L302.787 371.855L304.281 372.547L304.041 374.131ZM303.654 376.597L305.044 377.479L304.605 379.023L305.9 378.021L307.279 378.903L306.705 377.399L308 376.417L306.339 376.487L305.754 374.993L305.326 376.527L303.654 376.597ZM303.059 372.877L299.946 375.324L300.332 375.775L303.445 373.329L303.059 372.877ZM304.145 377.61L301.711 377.399L301.649 377.981L304.093 378.191L304.145 377.61ZM304.386 380.417L303.936 381.761L305.326 382.192L305.785 380.858L304.386 380.417Z" fill="white"/>
<path d="M296.75 405.833C297.256 405.833 297.667 405.423 297.667 404.917C297.667 404.41 297.256 404 296.75 404C296.244 404 295.833 404.41 295.833 404.917C295.833 405.423 296.244 405.833 296.75 405.833Z" fill="white"/>
<path d="M299.347 413.411H297.819V407.056H295.528C295.325 407.056 295.131 407.139 294.988 407.288C294.844 407.437 294.764 407.639 294.764 407.85C294.764 408.061 294.844 408.263 294.988 408.412C295.131 408.561 295.325 408.644 295.528 408.644H296.292V413.411H294.764C294.561 413.411 294.367 413.495 294.224 413.644C294.08 413.793 294 413.995 294 414.206C294 414.416 294.08 414.618 294.224 414.767C294.367 414.916 294.561 415 294.764 415H299.347C299.55 415 299.744 414.916 299.887 414.767C300.031 414.618 300.111 414.416 300.111 414.206C300.111 413.995 300.031 413.793 299.887 413.644C299.744 413.495 299.55 413.411 299.347 413.411Z" fill="white"/>
<path d="M296.625 400C294.721 400 292.86 400.564 291.278 401.622C289.695 402.68 288.461 404.183 287.733 405.942C287.004 407.7 286.814 409.636 287.185 411.503C287.556 413.37 288.473 415.085 289.819 416.431C291.165 417.777 292.88 418.694 294.747 419.065C296.614 419.436 298.55 419.246 300.308 418.517C302.067 417.789 303.57 416.555 304.628 414.972C305.686 413.39 306.25 411.529 306.25 409.625C306.25 407.072 305.236 404.624 303.431 402.819C301.626 401.014 299.178 400 296.625 400V400ZM296.625 417.646C295.039 417.646 293.488 417.175 292.169 416.294C290.85 415.413 289.822 414.16 289.215 412.694C288.608 411.229 288.449 409.616 288.758 408.06C289.068 406.504 289.832 405.075 290.953 403.953C292.075 402.832 293.504 402.068 295.06 401.758C296.616 401.449 298.229 401.608 299.694 402.215C301.16 402.822 302.413 403.85 303.294 405.169C304.175 406.488 304.646 408.039 304.646 409.625C304.646 410.678 304.438 411.721 304.035 412.694C303.632 413.668 303.041 414.552 302.297 415.297C301.552 416.041 300.668 416.632 299.694 417.035C298.721 417.438 297.678 417.646 296.625 417.646V417.646Z" fill="white"/>
<path d="M301.813 442.75C301.298 442.752 300.791 442.87 300.328 443.095C299.865 443.32 299.459 443.646 299.139 444.049L294.113 440.907C294.296 440.316 294.296 439.683 294.113 439.092L299.139 435.95C299.649 436.582 300.366 437.013 301.163 437.166C301.96 437.32 302.786 437.186 303.494 436.789C304.202 436.392 304.747 435.757 305.032 434.997C305.317 434.236 305.323 433.4 305.05 432.635C304.777 431.871 304.243 431.227 303.541 430.819C302.839 430.411 302.015 430.264 301.216 430.405C300.416 430.546 299.692 430.966 299.173 431.589C298.653 432.213 298.37 433 298.375 433.812C298.379 434.12 298.425 434.425 298.513 434.72L293.487 437.862C293.044 437.303 292.437 436.896 291.752 436.698C291.067 436.5 290.337 436.519 289.663 436.754C288.99 436.989 288.406 437.428 287.993 438.009C287.58 438.591 287.358 439.286 287.358 440C287.358 440.713 287.58 441.409 287.993 441.99C288.406 442.572 288.99 443.011 289.663 443.245C290.337 443.48 291.067 443.5 291.752 443.302C292.437 443.103 293.044 442.696 293.487 442.138L298.513 445.28C298.425 445.574 298.379 445.88 298.375 446.187C298.375 446.867 298.577 447.532 298.955 448.097C299.332 448.662 299.869 449.103 300.497 449.363C301.126 449.623 301.817 449.691 302.484 449.559C303.15 449.426 303.763 449.099 304.244 448.618C304.724 448.137 305.052 447.525 305.184 446.858C305.317 446.191 305.249 445.5 304.989 444.872C304.729 444.244 304.288 443.707 303.723 443.329C303.157 442.951 302.493 442.75 301.813 442.75V442.75ZM301.813 431.75C302.221 431.75 302.62 431.871 302.959 432.097C303.298 432.324 303.562 432.646 303.718 433.023C303.875 433.4 303.915 433.815 303.836 434.215C303.756 434.615 303.56 434.982 303.271 435.271C302.983 435.559 302.615 435.756 302.215 435.835C301.815 435.915 301.4 435.874 301.024 435.718C300.647 435.562 300.325 435.297 300.098 434.958C299.871 434.619 299.75 434.22 299.75 433.812C299.75 433.265 299.968 432.741 300.354 432.354C300.741 431.967 301.266 431.75 301.813 431.75V431.75ZM290.813 442.062C290.405 442.062 290.006 441.941 289.667 441.715C289.328 441.488 289.064 441.166 288.907 440.789C288.751 440.412 288.71 439.997 288.79 439.597C288.87 439.197 289.066 438.83 289.354 438.541C289.643 438.253 290.01 438.056 290.411 437.977C290.811 437.897 291.225 437.938 291.602 438.094C291.979 438.25 292.301 438.515 292.528 438.854C292.754 439.193 292.875 439.592 292.875 440C292.875 440.547 292.658 441.071 292.271 441.458C291.885 441.845 291.36 442.062 290.813 442.062ZM301.813 448.25C301.405 448.25 301.006 448.129 300.667 447.902C300.328 447.676 300.064 447.353 299.907 446.977C299.751 446.6 299.71 446.185 299.79 445.785C299.87 445.385 300.066 445.017 300.354 444.729C300.643 444.44 301.01 444.244 301.411 444.164C301.811 444.085 302.225 444.126 302.602 444.282C302.979 444.438 303.301 444.702 303.528 445.041C303.754 445.381 303.875 445.779 303.875 446.187C303.875 446.734 303.658 447.259 303.271 447.646C302.885 448.032 302.36 448.25 301.813 448.25V448.25Z" fill="white"/>
<path d="M303.416 460.833H291.747C291.103 460.834 290.481 461.059 289.986 461.471C289.492 461.883 289.158 462.456 289.043 463.088L287.878 469.505C287.806 469.901 287.821 470.309 287.924 470.699C288.026 471.088 288.213 471.451 288.471 471.761C288.729 472.07 289.052 472.319 289.417 472.49C289.782 472.661 290.18 472.75 290.583 472.75H294.763L294.249 474.061C294.036 474.635 293.965 475.252 294.042 475.859C294.119 476.467 294.343 477.047 294.694 477.549C295.044 478.051 295.511 478.46 296.055 478.742C296.599 479.024 297.203 479.17 297.815 479.167C297.991 479.166 298.164 479.115 298.312 479.019C298.46 478.923 298.577 478.787 298.649 478.626L301.262 472.75H303.416C304.145 472.75 304.845 472.46 305.36 471.945C305.876 471.429 306.166 470.729 306.166 470V463.583C306.166 462.854 305.876 462.155 305.36 461.639C304.845 461.123 304.145 460.833 303.416 460.833ZM299.749 471.641L297.256 477.251C297.001 477.174 296.764 477.045 296.561 476.873C296.357 476.701 296.191 476.489 296.072 476.25C295.954 476.011 295.886 475.751 295.872 475.485C295.858 475.219 295.898 474.952 295.991 474.703L296.477 473.392C296.58 473.115 296.615 472.817 296.579 472.523C296.542 472.23 296.435 471.949 296.267 471.706C296.098 471.463 295.873 471.264 295.611 471.127C295.35 470.989 295.058 470.917 294.763 470.917H290.583C290.448 470.917 290.315 470.887 290.193 470.83C290.071 470.773 289.963 470.69 289.877 470.587C289.788 470.485 289.724 470.364 289.687 470.234C289.651 470.105 289.644 469.968 289.666 469.835L290.83 463.418C290.869 463.205 290.983 463.012 291.151 462.874C291.318 462.737 291.53 462.663 291.747 462.667H299.749V471.641ZM304.333 470C304.333 470.243 304.236 470.476 304.064 470.648C303.892 470.82 303.659 470.917 303.416 470.917H301.583V462.667H303.416C303.659 462.667 303.892 462.763 304.064 462.935C304.236 463.107 304.333 463.34 304.333 463.583V470Z" fill="white"/>
<path d="M163 226C167.747 226 172.387 227.408 176.334 230.045C180.28 232.682 183.357 236.43 185.173 240.816C186.99 245.201 187.465 250.027 186.539 254.682C185.613 259.338 183.327 263.614 179.971 266.971C176.614 270.327 172.338 272.613 167.682 273.539C163.027 274.465 158.201 273.99 153.816 272.173C149.43 270.357 145.682 267.28 143.045 263.334C140.408 259.387 139 254.747 139 250C139 243.635 141.529 237.53 146.029 233.029C150.53 228.529 156.635 226 163 226V226ZM163 222C157.462 222 152.049 223.642 147.444 226.719C142.839 229.796 139.251 234.169 137.131 239.285C135.012 244.401 134.458 250.031 135.538 255.463C136.618 260.894 139.285 265.883 143.201 269.799C147.117 273.715 152.106 276.382 157.537 277.462C162.969 278.542 168.599 277.988 173.715 275.869C178.831 273.749 183.204 270.161 186.281 265.556C189.358 260.951 191 255.538 191 250C191 242.574 188.05 235.452 182.799 230.201C177.548 224.95 170.426 222 163 222V222Z" fill="white" fill-opacity="0.6"/>
<path d="M155 264C154.641 264 154.289 263.903 153.98 263.72C153.681 263.543 153.434 263.291 153.262 262.99C153.09 262.688 153 262.347 153 262V238C153 237.653 153.09 237.312 153.262 237.01C153.434 236.709 153.681 236.457 153.98 236.28C154.284 236.104 154.629 236.012 154.98 236.012C155.331 236.012 155.676 236.104 155.98 236.28L177.98 248.28C178.298 248.451 178.563 248.705 178.748 249.015C178.932 249.325 179.03 249.679 179.03 250.04C179.03 250.401 178.932 250.755 178.748 251.065C178.563 251.375 178.298 251.629 177.98 251.8L155.98 263.8C155.676 263.949 155.338 264.017 155 264V264ZM157 241.36V258.64L172.82 250L157 241.36Z" fill="white" fill-opacity="0.6"/>
<defs>
<linearGradient id="paint0_linear" x1="24.3621" y1="148" x2="263.98" y2="150.08" gradientUnits="userSpaceOnUse">
<stop stop-opacity="0"/>
<stop stop-opacity="0"/>
<stop offset="1"/>
</linearGradient>
<clipPath id="clip0">
<rect width="60.0157" height="15.1496" fill="white" transform="translate(27.9922 361.331)"/>
</clipPath>
<clipPath id="clip1">
<rect width="58" height="16" fill="white" transform="translate(90 464.811)"/>
</clipPath>
</defs>
</svg>
