<svg width="326" height="200" viewBox="0 0 326 200" fill="none" xmlns="http://www.w3.org/2000/svg">
<rect width="106" height="90" transform="translate(236 106) rotate(-90)" fill="url(#paint0_linear)"/>
<path d="M299.822 21.6639C300.814 21.4569 303.507 21.1317 304.262 21.7526C304.706 22.1178 304.262 24.0585 303.285 26.4088C303.241 26.5861 303.25 26.8966 303.641 26.7192C304.129 26.4975 306.127 23.9255 305.994 20.7326C305.905 20.3779 305.579 20.2659 305.505 20.2449C304.262 19.8901 301.732 19.7127 299.689 21.2204C299.547 21.5042 299.719 21.6343 299.822 21.6639Z" fill="white"/>
<path d="M272.03 20.8213C271.971 20.6735 271.959 20.3779 272.385 20.3779C277.624 23.5707 288.501 28.5373 302.486 22.4177C303.285 22.2404 303.378 23.0726 302.93 23.3933C291.165 31.8188 277.668 27.1183 272.03 20.8213Z" fill="white"/>
<path d="M277.019 35.3669C277.019 35.917 276.952 36.4183 276.818 36.8708C276.688 37.3233 276.493 37.7106 276.232 38.0329C275.972 38.3552 275.648 38.6042 275.261 38.78C274.877 38.9557 274.432 39.0436 273.928 39.0436C273.397 39.0436 272.937 38.9557 272.546 38.78C272.159 38.6042 271.836 38.3552 271.579 38.0329C271.325 37.7106 271.136 37.3233 271.013 36.8708C270.889 36.4151 270.827 35.9105 270.827 35.3571C270.827 34.8037 270.889 34.3024 271.013 33.8532C271.136 33.4007 271.327 33.015 271.584 32.696C271.841 32.377 272.165 32.1312 272.556 31.9587C272.946 31.7829 273.407 31.695 273.938 31.695C274.442 31.695 274.885 31.7829 275.266 31.9587C275.65 32.1312 275.972 32.3786 276.232 32.7009C276.493 33.0199 276.688 33.4056 276.818 33.8581C276.952 34.3073 277.019 34.8102 277.019 35.3669ZM271.789 35.3669C271.789 35.8128 271.831 36.2149 271.916 36.5729C272.001 36.9278 272.129 37.2305 272.302 37.4811C272.478 37.7285 272.699 37.919 272.966 38.0524C273.236 38.1826 273.557 38.2477 273.928 38.2477C274.299 38.2477 274.618 38.1826 274.885 38.0524C275.155 37.919 275.376 37.7285 275.549 37.4811C275.725 37.2305 275.853 36.9278 275.935 36.5729C276.016 36.2149 276.057 35.8128 276.057 35.3669C276.057 34.9177 276.016 34.5156 275.935 34.1608C275.853 33.806 275.726 33.5065 275.554 33.2624C275.381 33.015 275.161 32.8262 274.895 32.696C274.628 32.5625 274.309 32.4958 273.938 32.4958C273.566 32.4958 273.246 32.5625 272.976 32.696C272.705 32.8262 272.482 33.015 272.307 33.2624C272.131 33.5065 272.001 33.806 271.916 34.1608C271.831 34.5156 271.789 34.9177 271.789 35.3669ZM280.808 33.487C280.902 33.487 281.008 33.4919 281.125 33.5016C281.242 33.5082 281.343 33.5196 281.428 33.5358L281.311 34.3561C281.219 34.3399 281.125 34.3268 281.027 34.3171C280.933 34.3041 280.843 34.2975 280.759 34.2975C280.554 34.2975 280.367 34.3399 280.197 34.4245C280.028 34.5059 279.882 34.6247 279.758 34.7809C279.637 34.9339 279.543 35.1195 279.475 35.3376C279.41 35.5524 279.377 35.7917 279.377 36.0554V38.946H278.488V33.5847H279.211L279.318 34.5661H279.357C279.439 34.4261 279.525 34.291 279.616 34.1608C279.711 34.0306 279.815 33.9167 279.929 33.819C280.046 33.7181 280.176 33.6384 280.319 33.5798C280.463 33.5179 280.625 33.487 280.808 33.487ZM283.371 38.946H282.482V33.5847H283.371V38.946ZM282.414 32.1345C282.414 31.9391 282.463 31.7975 282.561 31.7097C282.661 31.6218 282.785 31.5778 282.932 31.5778C283.003 31.5778 283.07 31.5892 283.132 31.612C283.197 31.6315 283.252 31.6641 283.298 31.7097C283.347 31.7552 283.384 31.8138 283.41 31.8854C283.439 31.9538 283.454 32.0368 283.454 32.1345C283.454 32.3233 283.402 32.4649 283.298 32.5593C283.197 32.6504 283.075 32.696 282.932 32.696C282.785 32.696 282.661 32.6504 282.561 32.5593C282.463 32.4681 282.414 32.3265 282.414 32.1345ZM289.201 33.5847V34.1364L288.239 34.2682C288.33 34.3822 288.407 34.5287 288.469 34.7077C288.531 34.8835 288.562 35.0837 288.562 35.3083C288.562 35.5557 288.522 35.7852 288.444 35.9968C288.369 36.2051 288.254 36.3858 288.098 36.5388C287.945 36.6918 287.754 36.8122 287.526 36.9001C287.299 36.9847 287.033 37.027 286.73 37.027C286.659 37.027 286.587 37.027 286.516 37.027C286.444 37.0238 286.385 37.0173 286.34 37.0075C286.285 37.0401 286.229 37.0775 286.174 37.1198C286.122 37.1589 286.073 37.2044 286.027 37.2565C285.985 37.3086 285.949 37.3672 285.92 37.4323C285.894 37.4974 285.881 37.569 285.881 37.6472C285.881 37.735 285.9 37.8067 285.939 37.862C285.979 37.9141 286.031 37.9548 286.096 37.9841C286.164 38.0134 286.244 38.0329 286.335 38.0427C286.426 38.0524 286.522 38.0573 286.623 38.0573H287.482C287.785 38.0573 288.041 38.0964 288.249 38.1745C288.457 38.2494 288.627 38.3519 288.757 38.4821C288.89 38.6123 288.986 38.7669 289.045 38.946C289.104 39.1218 289.133 39.3089 289.133 39.5075C289.133 39.794 289.079 40.0511 288.972 40.279C288.868 40.5069 288.706 40.6989 288.488 40.8552C288.27 41.0147 287.993 41.1367 287.658 41.2214C287.326 41.306 286.934 41.3483 286.481 41.3483C286.133 41.3483 285.829 41.3141 285.568 41.2458C285.308 41.1774 285.091 41.0781 284.919 40.9479C284.746 40.8177 284.616 40.6599 284.528 40.4743C284.444 40.292 284.401 40.0853 284.401 39.8542C284.401 39.6589 284.432 39.4863 284.494 39.3366C284.559 39.1901 284.646 39.0632 284.753 38.9557C284.86 38.8483 284.984 38.7604 285.124 38.6921C285.267 38.6237 285.415 38.5716 285.568 38.5358C285.432 38.474 285.319 38.3763 285.231 38.2429C285.144 38.1094 285.1 37.9564 285.1 37.7839C285.1 37.5853 285.152 37.4144 285.256 37.2712C285.36 37.1247 285.524 36.9831 285.749 36.8464C285.609 36.7878 285.48 36.708 285.363 36.6071C285.249 36.503 285.152 36.3858 285.07 36.2556C284.992 36.1221 284.93 35.9772 284.885 35.821C284.842 35.6647 284.821 35.5036 284.821 35.3376C284.821 35.0479 284.862 34.7891 284.943 34.5612C285.025 34.3334 285.145 34.1397 285.305 33.9802C285.464 33.8207 285.663 33.6986 285.9 33.614C286.138 33.5293 286.415 33.487 286.73 33.487C286.851 33.487 286.975 33.4968 287.102 33.5163C287.232 33.5326 287.341 33.5554 287.429 33.5847H289.201ZM285.241 39.8249C285.241 39.9453 285.262 40.0576 285.305 40.1618C285.347 40.266 285.415 40.3555 285.51 40.4304C285.607 40.5052 285.734 40.5638 285.891 40.6061C286.05 40.6517 286.247 40.6745 286.481 40.6745C287.087 40.6745 287.539 40.5801 287.839 40.3913C288.142 40.2057 288.293 39.9372 288.293 39.5856C288.293 39.4359 288.273 39.3138 288.234 39.2194C288.195 39.125 288.13 39.0502 288.039 38.9948C287.951 38.9427 287.834 38.9069 287.688 38.8874C287.541 38.8679 287.362 38.8581 287.15 38.8581H286.291C286.177 38.8581 286.058 38.8711 285.935 38.8972C285.811 38.9232 285.697 38.972 285.593 39.0436C285.492 39.1153 285.407 39.2129 285.339 39.3366C285.274 39.4636 285.241 39.6263 285.241 39.8249ZM285.69 35.3083C285.69 35.6826 285.778 35.961 285.954 36.1432C286.13 36.3255 286.379 36.4167 286.701 36.4167C287.027 36.4167 287.272 36.3272 287.438 36.1481C287.608 35.9658 287.692 35.681 287.692 35.2936C287.692 34.8932 287.606 34.5987 287.434 34.4099C287.264 34.221 287.017 34.1266 286.691 34.1266C286.369 34.1266 286.122 34.2243 285.949 34.4196C285.777 34.6149 285.69 34.9112 285.69 35.3083ZM291.145 38.946H290.256V33.5847H291.145V38.946ZM290.188 32.1345C290.188 31.9391 290.236 31.7975 290.334 31.7097C290.435 31.6218 290.559 31.5778 290.705 31.5778C290.777 31.5778 290.843 31.5892 290.905 31.612C290.97 31.6315 291.026 31.6641 291.071 31.7097C291.12 31.7552 291.158 31.8138 291.184 31.8854C291.213 31.9538 291.228 32.0368 291.228 32.1345C291.228 32.3233 291.175 32.4649 291.071 32.5593C290.97 32.6504 290.848 32.696 290.705 32.696C290.559 32.696 290.435 32.6504 290.334 32.5593C290.236 32.4681 290.188 32.3265 290.188 32.1345ZM296.193 38.946V35.4938C296.193 35.0707 296.107 34.7533 295.935 34.5417C295.765 34.3301 295.498 34.2243 295.134 34.2243C294.87 34.2243 294.649 34.2666 294.47 34.3513C294.291 34.4359 294.146 34.5612 294.035 34.7272C293.928 34.8932 293.85 35.0967 293.801 35.3376C293.755 35.5785 293.732 35.8552 293.732 36.1677V38.946H292.844V33.5847H293.566L293.693 34.3073H293.742C293.824 34.1673 293.92 34.0469 294.03 33.946C294.144 33.8418 294.268 33.7556 294.401 33.6872C294.535 33.6188 294.676 33.5684 294.826 33.5358C294.976 33.5033 295.129 33.487 295.285 33.487C295.881 33.487 296.328 33.6432 296.628 33.9557C296.931 34.265 297.082 34.7614 297.082 35.445V38.946H296.193ZM301.755 38.946L301.574 38.2038H301.535C301.428 38.3503 301.32 38.4772 301.213 38.5847C301.105 38.6888 300.988 38.7751 300.861 38.8434C300.734 38.9118 300.593 38.9623 300.437 38.9948C300.28 39.0274 300.1 39.0436 299.895 39.0436C299.67 39.0436 299.463 39.0111 299.274 38.946C299.086 38.8841 298.921 38.7881 298.781 38.6579C298.645 38.5244 298.537 38.3584 298.459 38.1599C298.381 37.958 298.342 37.7204 298.342 37.447C298.342 36.9131 298.529 36.503 298.903 36.2165C299.281 35.93 299.854 35.7738 300.622 35.7477L301.521 35.7136V35.3766C301.521 35.1585 301.496 34.9763 301.447 34.8298C301.402 34.6833 301.333 34.5661 301.242 34.4782C301.154 34.3871 301.044 34.322 300.91 34.2829C300.78 34.2438 300.63 34.2243 300.461 34.2243C300.191 34.2243 299.938 34.2634 299.704 34.3415C299.473 34.4196 299.25 34.514 299.035 34.6247L298.723 33.9557C298.964 33.8255 299.232 33.7149 299.528 33.6237C299.825 33.5326 300.135 33.487 300.461 33.487C300.793 33.487 301.079 33.5212 301.32 33.5895C301.564 33.6546 301.765 33.7604 301.921 33.9069C302.08 34.0502 302.199 34.2341 302.277 34.4587C302.355 34.6833 302.395 34.9551 302.395 35.2741V38.946L301.755 38.946ZM300.124 38.3259C300.323 38.3259 300.507 38.2949 300.676 38.2331C300.845 38.1712 300.992 38.0785 301.115 37.9548C301.239 37.8278 301.335 37.6699 301.403 37.4811C301.475 37.2891 301.511 37.0645 301.511 36.8073V36.3239L300.812 36.3581C300.52 36.3711 300.274 36.4037 300.075 36.4557C299.877 36.5078 299.717 36.5811 299.597 36.6755C299.479 36.7666 299.395 36.8789 299.343 37.0124C299.291 37.1426 299.265 37.2907 299.265 37.4567C299.265 37.7562 299.343 37.9759 299.499 38.1159C299.659 38.2559 299.867 38.3259 300.124 38.3259ZM304.934 38.946H304.045V31.3483H304.934V38.946Z" fill="white"/>
<path d="M20 31C20 24.9249 24.9249 20 31 20H53C59.0751 20 64 24.9249 64 31V31C64 37.0751 59.0751 42 53 42H31C24.9249 42 20 37.0751 20 31V31Z" fill="white" fill-opacity="0.8"/>
<path fill-rule="evenodd" clip-rule="evenodd" d="M27 27.7191V36H28.3736C28.4165 36 28.5195 35.9753 28.5882 35.8764V33.2397C30.1335 34.3109 32.8807 33.7753 32.8807 30.5206C32.8807 27.5131 30.2193 26.8127 28.4165 28.2135C28.4022 28.0762 28.3221 27.785 28.116 27.7191H27ZM30.6915 29.1199C29.9704 28.4936 28.9888 28.8589 28.5882 29.1199V32.0861C29.6871 32.8112 30.4483 32.3883 30.6915 32.0861C31.0006 31.9543 31.0778 30.9875 31.0778 30.5206C31.1122 29.7955 30.8346 29.2846 30.6915 29.1199Z" fill="#00A8E1"/>
<path d="M34.0396 33.4457V27.8839C34.0396 27.829 34.074 27.7109 34.2113 27.6779H35.2844C35.3417 27.6367 35.499 27.7356 35.6707 28.4607C35.6851 28.5019 35.7308 28.5678 35.7995 28.5019C35.8854 28.4195 36.7009 27.5543 37.5594 27.6367C37.9028 27.6367 37.9887 27.774 37.9887 27.8427V28.9963C37.9744 29.0649 37.9114 29.2022 37.774 29.2022C36.5722 29.1363 35.9569 29.3396 35.7995 29.4494V33.4457C35.7995 33.4869 35.7738 33.5775 35.6707 33.6105H34.1684C34.1255 33.6105 34.0396 33.5775 34.0396 33.4457Z" fill="#00A8E1"/>
<path d="M39.0189 27.6779H40.3066C40.3781 27.6916 40.5212 27.7521 40.5212 27.8839V33.4457C40.5069 33.4869 40.4525 33.5775 40.3495 33.6105H38.9759C38.9187 33.5968 38.7956 33.5446 38.7613 33.4457L38.8042 27.8839C38.8042 27.829 38.8472 27.7109 39.0189 27.6779Z" fill="#00A8E1"/>
<path d="M39.3622 26.7303C39.491 26.7441 39.7915 26.7633 39.9632 26.7303C40.1349 26.6974 40.3209 26.5793 40.3924 26.5243C40.5641 26.3596 40.65 26.1124 40.65 25.8652C40.65 25.5356 40.5641 25.412 40.4354 25.2472C40.3495 25.1785 40.1778 25 39.9632 25H39.3622C39.2049 25.0412 38.8643 25.1483 38.7613 25.412C38.6583 25.6757 38.6755 25.7553 38.6755 25.9064C38.6755 26.0574 38.7579 26.3563 38.933 26.5243C39.1081 26.6924 39.2907 26.7166 39.3622 26.7303Z" fill="#00A8E1"/>
<path d="M43.6547 28.2547C43.6118 28.0899 43.4916 27.7521 43.3542 27.7191C43.2169 27.6861 42.5244 27.7054 42.1953 27.7191C42.138 27.7191 42.0236 27.7521 42.0236 27.8839V33.4457C42.0379 33.4869 42.0922 33.5775 42.1953 33.6105C42.2983 33.6434 43.1539 33.6242 43.5688 33.6105C43.6261 33.5968 43.7577 33.5446 43.8264 33.4457L43.7835 29.161C44.0267 29.0237 44.6248 28.7655 45.0712 28.8315C45.6292 28.8727 45.8009 29.1336 45.8438 29.2846L45.8868 33.4457C45.9011 33.5006 45.9554 33.6105 46.0585 33.6105H47.475C47.5179 33.5968 47.6123 33.5446 47.6467 33.4457V29.161C47.847 29.01 48.3764 28.7243 48.8915 28.7903C49.4066 28.8562 49.6212 29.1748 49.6641 29.3258V33.3633C49.6641 33.432 49.6985 33.5775 49.8358 33.6105H51.3382C51.3811 33.583 51.467 33.4951 51.467 33.3633V29.0787C51.4383 28.5705 51.0549 27.5461 49.75 27.5131C48.4451 27.4801 47.661 27.9938 47.4321 28.2547C47.2747 28.0075 46.7453 27.5131 45.8868 27.5131C45.0283 27.5131 44.041 28.0075 43.6547 28.2547Z" fill="#00A8E1"/>
<path fill-rule="evenodd" clip-rule="evenodd" d="M54.1283 31.0974C54.071 31.8252 54.6605 33.0831 57.4764 32.2921C57.6481 32.2262 57.691 32.4569 57.691 32.5805V33.1985C57.5336 33.4045 56.9098 33.8165 55.6735 33.8165C53.2698 33.8165 52.583 32.2235 52.5401 31.427C52.3827 30.7678 52.3598 29.194 53.5273 28.1723C55.1756 26.9858 56.8182 27.6779 57.4335 28.1723C57.8198 28.5156 58.395 29.4494 57.6052 30.4382C56.8153 31.427 54.9581 31.2896 54.1283 31.0974ZM55.4589 28.7079C54.3944 28.7079 54.1283 29.6417 54.1283 30.1086C54.4574 30.1498 55.21 30.224 55.5877 30.191C55.9654 30.1581 56.203 29.9301 56.2745 29.8202C56.4462 29.4494 56.5235 28.7079 55.4589 28.7079Z" fill="#00A8E1"/>
<path fill-rule="evenodd" clip-rule="evenodd" d="M27 27.7191V36H28.3736C28.4165 36 28.5195 35.9753 28.5882 35.8764V33.2397C30.1335 34.3109 32.8807 33.7753 32.8807 30.5206C32.8807 27.5131 30.2193 26.8127 28.4165 28.2135C28.4022 28.0762 28.3221 27.785 28.116 27.7191H27ZM30.6915 29.1199C29.9704 28.4936 28.9888 28.8589 28.5882 29.1199V32.0861C29.6871 32.8112 30.4483 32.3883 30.6915 32.0861C31.0006 31.9543 31.0778 30.9875 31.0778 30.5206C31.1122 29.7955 30.8346 29.2846 30.6915 29.1199Z" fill="#00A8E1"/>
<g clip-path="url(#clip0)">
<rect width="179" height="326" transform="translate(326 21) rotate(90)" fill="url(#paint1_linear)"/>
<path d="M24.0527 139.035V150.754H29.5996V153H21.4648V139.035H24.0527ZM31.3184 149.807C31.3184 147.769 32.8027 146.75 35.7715 146.75C36.4681 146.75 37.1647 146.815 37.8613 146.945V146.174C37.8613 145.256 37.2005 144.797 35.8789 144.797C34.7591 144.797 33.5156 144.96 32.1484 145.285V143.234C33.5156 142.909 34.7591 142.746 35.8789 142.746C38.9258 142.746 40.4492 143.872 40.4492 146.125V153H38.9453L38.0273 152.082C37.1354 152.694 36.1523 153 35.0781 153C32.5716 153 31.3184 151.936 31.3184 149.807ZM37.8613 148.703C37.2103 148.573 36.5137 148.508 35.7715 148.508C34.528 148.508 33.9062 148.931 33.9062 149.777C33.9062 150.689 34.4271 151.145 35.4688 151.145C36.3281 151.145 37.1257 150.878 37.8613 150.344V148.703ZM42.7539 141.086H44.668L45.0586 142.746H47.6367V144.797H45.3418V149.514C45.3418 150.471 45.7552 150.949 46.582 150.949H47.6367V153H45.332C43.6133 153 42.7539 152.079 42.7539 150.236V141.086ZM53.7305 142.746C56.8424 142.746 58.3984 144.335 58.3984 147.512C58.3984 147.935 58.3691 148.358 58.3105 148.781H51.5039C51.5039 150.227 52.5651 150.949 54.6875 150.949C55.7227 150.949 56.7578 150.852 57.793 150.656V152.707C56.888 152.902 55.7878 153 54.4922 153C50.7747 153 48.916 151.252 48.916 147.756C48.916 144.416 50.5208 142.746 53.7305 142.746ZM51.5039 146.984H55.8789V146.906C55.8789 145.487 55.1628 144.777 53.7305 144.777C52.3633 144.777 51.6211 145.513 51.5039 146.984ZM64.9805 153V139.035H67.5684L74.9414 149.211V139.035H77.4316V153H74.8438L67.4707 142.609V153H64.9805ZM82.7148 139.035V141.086H80.127V139.035H82.7148ZM82.7148 142.746V153H80.127V142.746H82.7148ZM91.7285 145.07C91.3053 144.914 90.7031 144.836 89.9219 144.836C88.1315 144.836 87.2363 145.822 87.2363 147.795C87.2363 149.702 88.0078 150.656 89.5508 150.656C90.293 150.656 91.0189 150.48 91.7285 150.129V145.07ZM94.3164 152.219C94.3164 155.214 92.5163 156.711 88.916 156.711C87.653 156.711 86.5332 156.548 85.5566 156.223V154.172C86.5527 154.497 87.679 154.66 88.9355 154.66C90.7975 154.66 91.7285 153.879 91.7285 152.316C90.9603 152.642 90.1335 152.805 89.248 152.805C86.2012 152.805 84.6777 151.141 84.6777 147.814C84.6777 144.436 86.4518 142.746 90 142.746C91.1914 142.746 92.6302 142.886 94.3164 143.166V152.219ZM96.7676 153V139.035H99.3555V144.055C100.163 143.182 101.195 142.746 102.451 142.746C104.88 142.746 106.094 144.009 106.094 146.535V153H103.506V146.535C103.506 145.402 102.943 144.836 101.816 144.836C100.977 144.836 100.156 145.171 99.3555 145.842V153H96.7676ZM108.398 141.086H110.312L110.703 142.746H113.281V144.797H110.986V149.514C110.986 150.471 111.4 150.949 112.227 150.949H113.281V153H110.977C109.258 153 108.398 152.079 108.398 150.236V141.086Z" fill="white"/>
<path d="M26.8906 174H20.6562V172.934L23.0488 170.329C23.3906 169.96 23.696 169.623 23.9648 169.317C24.2337 169.012 24.4616 168.714 24.6484 168.422C24.8398 168.13 24.9857 167.839 25.0859 167.547C25.1862 167.251 25.2363 166.929 25.2363 166.583C25.2363 166.314 25.1976 166.077 25.1201 165.872C25.0426 165.667 24.931 165.494 24.7852 165.353C24.6439 165.207 24.4753 165.097 24.2793 165.024C24.0833 164.951 23.8646 164.915 23.623 164.915C23.1901 164.915 22.7982 165.004 22.4473 165.182C22.1009 165.355 21.7705 165.578 21.4561 165.852L20.7588 165.038C20.9411 164.874 21.137 164.721 21.3467 164.58C21.5563 164.434 21.7819 164.309 22.0234 164.204C22.265 164.099 22.5202 164.017 22.7891 163.958C23.0579 163.894 23.3405 163.862 23.6367 163.862C24.0742 163.862 24.4684 163.924 24.8193 164.047C25.1748 164.17 25.4756 164.348 25.7217 164.58C25.9678 164.808 26.1569 165.088 26.2891 165.421C26.4258 165.749 26.4941 166.12 26.4941 166.535C26.4941 166.923 26.4326 167.292 26.3096 167.643C26.1911 167.993 26.0247 168.34 25.8105 168.682C25.6009 169.019 25.348 169.358 25.0518 169.7C24.7601 170.042 24.4434 170.397 24.1016 170.767L22.1807 172.811V172.865H26.8906V174ZM34.7656 168.989C34.7656 169.796 34.7064 170.518 34.5879 171.156C34.474 171.794 34.2871 172.334 34.0273 172.776C33.7721 173.218 33.4417 173.556 33.0361 173.788C32.6305 174.021 32.1383 174.137 31.5596 174.137C31.0218 174.137 30.5524 174.021 30.1514 173.788C29.7549 173.556 29.4245 173.218 29.1602 172.776C28.9004 172.334 28.7044 171.794 28.5723 171.156C28.4447 170.518 28.3809 169.796 28.3809 168.989C28.3809 168.183 28.4378 167.46 28.5518 166.822C28.6702 166.184 28.8548 165.646 29.1055 165.209C29.3607 164.767 29.6888 164.43 30.0898 164.197C30.4954 163.965 30.9854 163.849 31.5596 163.849C32.1019 163.849 32.5736 163.965 32.9746 164.197C33.3757 164.425 33.7083 164.76 33.9727 165.202C34.237 165.64 34.4352 166.177 34.5674 166.815C34.6995 167.453 34.7656 168.178 34.7656 168.989ZM29.6455 168.989C29.6455 169.673 29.6797 170.27 29.748 170.78C29.8164 171.291 29.9258 171.717 30.0762 172.059C30.2266 172.396 30.4225 172.651 30.6641 172.824C30.9102 172.993 31.2087 173.077 31.5596 173.077C31.9105 173.077 32.209 172.993 32.4551 172.824C32.7012 172.656 32.9017 172.403 33.0566 172.065C33.2161 171.728 33.3301 171.304 33.3984 170.794C33.4714 170.279 33.5078 169.677 33.5078 168.989C33.5078 168.306 33.4714 167.709 33.3984 167.198C33.3301 166.688 33.2161 166.264 33.0566 165.927C32.9017 165.59 32.7012 165.337 32.4551 165.168C32.209 164.999 31.9105 164.915 31.5596 164.915C31.2087 164.915 30.9102 164.999 30.6641 165.168C30.4225 165.337 30.2266 165.59 30.0762 165.927C29.9258 166.264 29.8164 166.688 29.748 167.198C29.6797 167.709 29.6455 168.306 29.6455 168.989ZM42.3125 174H36.0781V172.934L38.4707 170.329C38.8125 169.96 39.1178 169.623 39.3867 169.317C39.6556 169.012 39.8835 168.714 40.0703 168.422C40.2617 168.13 40.4076 167.839 40.5078 167.547C40.6081 167.251 40.6582 166.929 40.6582 166.583C40.6582 166.314 40.6195 166.077 40.542 165.872C40.4645 165.667 40.3529 165.494 40.207 165.353C40.0658 165.207 39.8971 165.097 39.7012 165.024C39.5052 164.951 39.2865 164.915 39.0449 164.915C38.612 164.915 38.2201 165.004 37.8691 165.182C37.5228 165.355 37.1924 165.578 36.8779 165.852L36.1807 165.038C36.363 164.874 36.5589 164.721 36.7686 164.58C36.9782 164.434 37.2038 164.309 37.4453 164.204C37.6868 164.099 37.9421 164.017 38.2109 163.958C38.4798 163.894 38.7624 163.862 39.0586 163.862C39.4961 163.862 39.8903 163.924 40.2412 164.047C40.5967 164.17 40.8975 164.348 41.1436 164.58C41.3896 164.808 41.5788 165.088 41.7109 165.421C41.8477 165.749 41.916 166.12 41.916 166.535C41.916 166.923 41.8545 167.292 41.7314 167.643C41.613 167.993 41.4466 168.34 41.2324 168.682C41.0228 169.019 40.7699 169.358 40.4736 169.7C40.182 170.042 39.8652 170.397 39.5234 170.767L37.6025 172.811V172.865H42.3125V174ZM50.1875 168.989C50.1875 169.796 50.1283 170.518 50.0098 171.156C49.8958 171.794 49.709 172.334 49.4492 172.776C49.194 173.218 48.8636 173.556 48.458 173.788C48.0524 174.021 47.5602 174.137 46.9814 174.137C46.4437 174.137 45.9743 174.021 45.5732 173.788C45.1768 173.556 44.8464 173.218 44.582 172.776C44.3223 172.334 44.1263 171.794 43.9941 171.156C43.8665 170.518 43.8027 169.796 43.8027 168.989C43.8027 168.183 43.8597 167.46 43.9736 166.822C44.0921 166.184 44.2767 165.646 44.5273 165.209C44.7826 164.767 45.1107 164.43 45.5117 164.197C45.9173 163.965 46.4072 163.849 46.9814 163.849C47.5238 163.849 47.9954 163.965 48.3965 164.197C48.7975 164.425 49.1302 164.76 49.3945 165.202C49.6589 165.64 49.8571 166.177 49.9893 166.815C50.1214 167.453 50.1875 168.178 50.1875 168.989ZM45.0674 168.989C45.0674 169.673 45.1016 170.27 45.1699 170.78C45.2383 171.291 45.3477 171.717 45.498 172.059C45.6484 172.396 45.8444 172.651 46.0859 172.824C46.332 172.993 46.6305 173.077 46.9814 173.077C47.3324 173.077 47.6309 172.993 47.877 172.824C48.123 172.656 48.3236 172.403 48.4785 172.065C48.638 171.728 48.752 171.304 48.8203 170.794C48.8932 170.279 48.9297 169.677 48.9297 168.989C48.9297 168.306 48.8932 167.709 48.8203 167.198C48.752 166.688 48.638 166.264 48.4785 165.927C48.3236 165.59 48.123 165.337 47.877 165.168C47.6309 164.999 47.3324 164.915 46.9814 164.915C46.6305 164.915 46.332 164.999 46.0859 165.168C45.8444 165.337 45.6484 165.59 45.498 165.927C45.3477 166.264 45.2383 166.688 45.1699 167.198C45.1016 167.709 45.0674 168.306 45.0674 168.989Z" fill="#939393"/>
<path d="M66.4307 171.758H64.9746V174H63.7715V171.758H59.1572V170.671L63.6895 163.951H64.9746V170.623H66.4307V171.758ZM63.7715 170.623V168.189C63.7715 167.934 63.7738 167.668 63.7783 167.39C63.7874 167.107 63.7965 166.834 63.8057 166.569C63.8148 166.3 63.8239 166.05 63.833 165.817C63.8467 165.585 63.8558 165.391 63.8604 165.236H63.7988C63.7669 165.327 63.7259 165.43 63.6758 165.544C63.6302 165.653 63.5778 165.765 63.5186 165.879C63.4639 165.988 63.4069 166.095 63.3477 166.2C63.2884 166.305 63.2337 166.394 63.1836 166.467L60.374 170.623H63.7715ZM70.5732 163.849C70.9561 163.849 71.3161 163.899 71.6533 163.999C71.9951 164.099 72.2936 164.25 72.5488 164.45C72.8086 164.651 73.0137 164.901 73.1641 165.202C73.3145 165.503 73.3896 165.854 73.3896 166.255C73.3896 166.56 73.3441 166.836 73.2529 167.082C73.1618 167.328 73.0365 167.551 72.877 167.752C72.7174 167.948 72.5283 168.126 72.3096 168.285C72.0908 168.44 71.8538 168.581 71.5986 168.709C71.863 168.85 72.1204 169.007 72.3711 169.181C72.6263 169.354 72.8519 169.55 73.0479 169.769C73.2484 169.983 73.4079 170.224 73.5264 170.493C73.6494 170.762 73.7109 171.063 73.7109 171.396C73.7109 171.815 73.6335 172.195 73.4785 172.537C73.3281 172.874 73.1139 173.161 72.8359 173.398C72.5625 173.635 72.2321 173.818 71.8447 173.945C71.4619 174.073 71.0381 174.137 70.5732 174.137C70.0719 174.137 69.6253 174.075 69.2334 173.952C68.846 173.829 68.5179 173.654 68.249 173.426C67.9847 173.193 67.7819 172.911 67.6406 172.578C67.5039 172.245 67.4355 171.869 67.4355 171.45C67.4355 171.108 67.4857 170.801 67.5859 170.527C67.6908 170.254 67.8298 170.008 68.0029 169.789C68.1761 169.57 68.3812 169.377 68.6182 169.208C68.8551 169.039 69.1058 168.891 69.3701 168.764C69.1468 168.622 68.9372 168.47 68.7412 168.306C68.5452 168.137 68.3743 167.95 68.2285 167.745C68.0872 167.54 67.9733 167.314 67.8867 167.068C67.8047 166.818 67.7637 166.542 67.7637 166.241C67.7637 165.845 67.8389 165.498 67.9893 165.202C68.1442 164.901 68.3516 164.651 68.6113 164.45C68.8711 164.25 69.1696 164.099 69.5068 163.999C69.8486 163.899 70.2041 163.849 70.5732 163.849ZM68.6592 171.464C68.6592 171.705 68.6956 171.929 68.7686 172.134C68.8415 172.334 68.9554 172.507 69.1104 172.653C69.2653 172.795 69.4613 172.906 69.6982 172.988C69.9352 173.066 70.2178 173.104 70.5459 173.104C70.8649 173.104 71.1452 173.066 71.3867 172.988C71.6328 172.906 71.8379 172.792 72.002 172.646C72.166 172.496 72.2891 172.316 72.3711 172.106C72.4531 171.897 72.4941 171.664 72.4941 171.409C72.4941 171.172 72.4486 170.958 72.3574 170.767C72.2708 170.575 72.1432 170.397 71.9746 170.233C71.8105 170.069 71.6123 169.914 71.3799 169.769C71.1475 169.623 70.8877 169.479 70.6006 169.338L70.3955 169.242C69.8213 169.516 69.3883 169.83 69.0967 170.186C68.805 170.536 68.6592 170.963 68.6592 171.464ZM70.5596 164.888C70.0765 164.888 69.6914 165.008 69.4043 165.25C69.1217 165.492 68.9805 165.842 68.9805 166.303C68.9805 166.562 69.0192 166.786 69.0967 166.973C69.1787 167.16 69.2904 167.326 69.4316 167.472C69.5729 167.618 69.7415 167.75 69.9375 167.868C70.138 167.982 70.3545 168.094 70.5869 168.203C70.8057 168.103 71.0107 167.993 71.2021 167.875C71.3981 167.757 71.5667 167.622 71.708 167.472C71.8538 167.321 71.9678 167.15 72.0498 166.959C72.1318 166.768 72.1729 166.549 72.1729 166.303C72.1729 165.842 72.0293 165.492 71.7422 165.25C71.4551 165.008 71.0609 164.888 70.5596 164.888ZM88.2373 174V169.167C88.2373 168.575 88.1234 168.13 87.8955 167.834C87.6676 167.538 87.3145 167.39 86.8359 167.39C86.5033 167.39 86.2207 167.444 85.9883 167.554C85.7559 167.659 85.5645 167.816 85.4141 168.025C85.2682 168.23 85.1611 168.488 85.0928 168.798C85.0244 169.103 84.9902 169.456 84.9902 169.857V174H83.7393V169.167C83.7393 168.575 83.6253 168.13 83.3975 167.834C83.1742 167.538 82.8232 167.39 82.3447 167.39C81.9938 167.39 81.6999 167.449 81.4629 167.567C81.2259 167.686 81.0345 167.861 80.8887 168.094C80.7474 168.326 80.6449 168.611 80.5811 168.948C80.5218 169.285 80.4922 169.673 80.4922 170.11V174H79.248V166.494H80.2598L80.4375 167.506H80.5059C80.6152 167.31 80.7451 167.141 80.8955 167C81.0459 166.854 81.21 166.733 81.3877 166.638C81.57 166.542 81.7614 166.471 81.9619 166.426C82.167 166.38 82.3743 166.357 82.584 166.357C83.1309 166.357 83.5843 166.458 83.9443 166.658C84.3089 166.859 84.5778 167.173 84.751 167.602H84.8057C84.9242 167.387 85.0654 167.203 85.2295 167.048C85.3981 166.893 85.5804 166.765 85.7764 166.665C85.9769 166.56 86.1865 166.483 86.4053 166.433C86.624 166.382 86.8473 166.357 87.0752 166.357C87.8727 166.357 88.472 166.576 88.873 167.014C89.2786 167.447 89.4814 168.142 89.4814 169.099V174H88.2373ZM93.043 174H91.7988V166.494H93.043V174ZM91.7031 164.464C91.7031 164.19 91.7715 163.992 91.9082 163.869C92.0495 163.746 92.2227 163.685 92.4277 163.685C92.528 163.685 92.6214 163.701 92.708 163.732C92.7992 163.76 92.8766 163.805 92.9404 163.869C93.0088 163.933 93.0612 164.015 93.0977 164.115C93.1387 164.211 93.1592 164.327 93.1592 164.464C93.1592 164.728 93.0863 164.926 92.9404 165.059C92.7992 165.186 92.6283 165.25 92.4277 165.25C92.2227 165.25 92.0495 165.186 91.9082 165.059C91.7715 164.931 91.7031 164.733 91.7031 164.464ZM100.111 174V169.167C100.111 168.575 99.9906 168.13 99.749 167.834C99.512 167.538 99.1383 167.39 98.6279 167.39C98.2588 167.39 97.9489 167.449 97.6982 167.567C97.4476 167.686 97.2448 167.861 97.0898 168.094C96.9395 168.326 96.8301 168.611 96.7617 168.948C96.6979 169.285 96.666 169.673 96.666 170.11V174H95.4219V166.494H96.4336L96.6113 167.506H96.6797C96.7936 167.31 96.9281 167.141 97.083 167C97.2425 166.854 97.4157 166.733 97.6025 166.638C97.7894 166.542 97.9876 166.471 98.1973 166.426C98.4069 166.38 98.6211 166.357 98.8398 166.357C99.6738 166.357 100.3 166.576 100.72 167.014C101.144 167.447 101.355 168.142 101.355 169.099V174H100.111ZM108.547 174H107.303V163.363H108.547V174ZM113.893 174.137C113.391 174.137 112.933 174.052 112.519 173.884C112.104 173.715 111.746 173.469 111.445 173.146C111.149 172.822 110.919 172.421 110.755 171.942C110.591 171.464 110.509 170.917 110.509 170.302C110.509 169.682 110.584 169.128 110.734 168.641C110.885 168.153 111.097 167.741 111.37 167.403C111.644 167.062 111.969 166.802 112.348 166.624C112.73 166.446 113.152 166.357 113.612 166.357C114.063 166.357 114.469 166.439 114.829 166.604C115.189 166.763 115.494 166.991 115.745 167.287C115.996 167.579 116.187 167.932 116.319 168.347C116.456 168.757 116.524 169.213 116.524 169.714V170.486H111.794C111.817 171.366 112.001 172.013 112.348 172.428C112.699 172.842 113.218 173.05 113.906 173.05C114.139 173.05 114.353 173.038 114.549 173.016C114.749 172.993 114.941 172.961 115.123 172.92C115.31 172.874 115.49 172.82 115.663 172.756C115.836 172.688 116.012 172.612 116.189 172.53V173.638C116.007 173.724 115.827 173.799 115.649 173.863C115.476 173.927 115.296 173.979 115.109 174.021C114.927 174.062 114.736 174.091 114.535 174.109C114.339 174.128 114.125 174.137 113.893 174.137ZM113.585 167.39C113.065 167.39 112.653 167.567 112.348 167.923C112.047 168.278 111.871 168.796 111.821 169.475H115.185C115.185 169.165 115.153 168.882 115.089 168.627C115.03 168.367 114.934 168.146 114.802 167.964C114.674 167.782 114.51 167.64 114.31 167.54C114.109 167.44 113.868 167.39 113.585 167.39ZM121.679 167.431H120.004V174H118.753V167.431H117.427V166.918L118.753 166.453V165.797C118.753 165.309 118.803 164.906 118.903 164.587C119.008 164.263 119.156 164.006 119.348 163.814C119.544 163.623 119.783 163.489 120.065 163.411C120.348 163.329 120.667 163.288 121.022 163.288C121.291 163.288 121.537 163.315 121.761 163.37C121.989 163.42 122.191 163.477 122.369 163.541L122.048 164.505C121.907 164.455 121.752 164.411 121.583 164.375C121.419 164.334 121.246 164.313 121.063 164.313C120.881 164.313 120.724 164.336 120.592 164.382C120.46 164.423 120.35 164.498 120.264 164.607C120.177 164.717 120.111 164.867 120.065 165.059C120.024 165.245 120.004 165.487 120.004 165.783V166.494H121.679V167.431ZM125.295 173.118C125.377 173.118 125.468 173.114 125.568 173.104C125.673 173.095 125.773 173.084 125.869 173.07C125.965 173.057 126.051 173.041 126.129 173.022C126.211 173.004 126.272 172.988 126.313 172.975V173.918C126.254 173.945 126.179 173.973 126.088 174C125.997 174.027 125.896 174.05 125.787 174.068C125.678 174.091 125.564 174.107 125.445 174.116C125.327 174.13 125.211 174.137 125.097 174.137C124.814 174.137 124.552 174.1 124.311 174.027C124.069 173.954 123.859 173.829 123.682 173.651C123.508 173.474 123.372 173.234 123.271 172.934C123.171 172.628 123.121 172.245 123.121 171.785V167.431H122.062V166.877L123.121 166.344L123.654 164.771H124.372V166.494H126.259V167.431H124.372V171.785C124.372 172.227 124.443 172.56 124.584 172.783C124.73 173.007 124.967 173.118 125.295 173.118Z" fill="white"/>
<rect x="-168" y="194" width="368" height="6" fill="#00A8E1"/>
<path d="M175 153.1C169.5 153.1 165.1 157.5 165.1 163C165.1 168.5 169.5 172.9 175 172.9C180.5 172.9 184.9 168.5 184.9 163C184.9 157.5 180.5 153.1 175 153.1ZM175 171.7C170.245 171.7 166.3 167.755 166.3 163C166.3 158.245 170.245 154.3 175 154.3C179.755 154.3 183.7 158.245 183.7 163C183.7 167.755 179.755 171.7 175 171.7ZM170.6 161.9V164.1H179.4V161.9H170.6Z" fill="white"/>
<path d="M207.267 159.276C206.605 158.608 205.916 158.026 205.198 157.532C204.481 157.037 203.809 156.666 203.182 156.419C202.556 156.172 201.981 156.053 201.459 156.063C200.936 156.073 200.529 156.228 200.236 156.529C200.167 156.596 200.108 156.671 200.059 156.755C200.01 156.838 199.975 156.903 199.954 156.95C199.934 156.997 199.906 157.081 199.871 157.201C199.836 157.321 199.812 157.398 199.798 157.432L195.912 169.703L196.152 169.944C195.88 170.124 195.638 170.335 195.426 170.576C195.214 170.816 195.027 171.013 194.867 171.167C194.707 171.321 194.515 171.428 194.292 171.488C194.244 171.501 194.183 171.547 194.11 171.623C194.037 171.7 194 171.769 194 171.829C194 171.949 194.063 172.049 194.188 172.13C194.313 172.21 194.453 172.25 194.606 172.25C194.801 172.25 194.989 172.175 195.17 172.024C195.351 171.874 195.534 171.682 195.718 171.448C195.903 171.214 196.037 171.06 196.121 170.987C196.302 170.833 196.504 170.686 196.726 170.546L196.998 170.796L209.346 166.776C209.617 166.696 209.826 166.575 209.972 166.415C210.265 166.114 210.416 165.698 210.427 165.167C210.437 164.635 210.321 164.05 210.077 163.412C209.833 162.774 209.469 162.092 208.985 161.367C208.501 160.642 207.928 159.945 207.267 159.276ZM206.139 160.369C207.204 161.412 208.014 162.409 208.567 163.362C209.121 164.314 209.255 164.941 208.97 165.242C208.684 165.543 208.061 165.432 207.1 164.911C206.139 164.39 205.129 163.611 204.07 162.575C202.998 161.532 202.185 160.536 201.631 159.587C201.077 158.638 200.943 158.01 201.229 157.702C201.514 157.401 202.139 157.512 203.104 158.033C204.069 158.554 205.08 159.333 206.139 160.369ZM203.851 164.52C204.359 164.954 204.864 165.335 205.366 165.663C205.373 165.676 205.547 165.99 205.888 166.605L205.01 166.896C204.593 166.141 204.206 165.349 203.851 164.52ZM200.289 159.928C200.442 160.256 200.654 160.653 200.926 161.121C201.149 162.084 201.499 163.126 201.976 164.249C202.453 165.372 202.973 166.425 203.538 167.407L202.67 167.688C202.016 166.525 201.445 165.307 200.957 164.034C200.47 162.76 200.17 161.636 200.059 160.66L200.289 159.928ZM199.077 163.598C199.564 165.095 200.25 166.632 201.135 168.21L200.278 168.5C199.589 167.23 199.046 166.037 198.649 164.921L199.077 163.598ZM197.876 167.257C198.147 167.872 198.436 168.457 198.743 169.012L197.886 169.302C197.789 169.122 197.649 168.844 197.468 168.47L197.876 167.257ZM205.554 153L206.076 154.514L204.728 155.456H206.389L206.901 156.97L207.413 155.456H209.064L207.726 154.514L208.249 153.01L206.901 153.942L205.554 153ZM202.629 153L202.347 154.374L203.778 154.644L204.06 153.271L202.629 153ZM212.041 157.131L213.19 155.978L214.684 156.68L213.911 155.276L215.07 154.143L213.43 154.414L212.657 153L212.427 154.584L210.787 154.855L212.281 155.547L212.041 157.131ZM211.654 159.597L213.044 160.479L212.605 162.023L213.9 161.021L215.279 161.903L214.705 160.399L216 159.417L214.339 159.487L213.754 157.993L213.326 159.527L211.654 159.597ZM211.059 155.877L207.946 158.324L208.332 158.775L211.445 156.329L211.059 155.877ZM212.145 160.61L209.711 160.399L209.649 160.981L212.093 161.191L212.145 160.61ZM212.386 163.417L211.936 164.761L213.326 165.192L213.785 163.858L212.386 163.417Z" fill="white"/>
<path d="M269.813 165.75C269.298 165.752 268.791 165.87 268.328 166.095C267.865 166.32 267.459 166.646 267.139 167.049L262.113 163.907C262.296 163.316 262.296 162.683 262.113 162.092L267.139 158.95C267.649 159.582 268.366 160.013 269.163 160.166C269.96 160.32 270.786 160.186 271.494 159.789C272.202 159.392 272.747 158.757 273.032 157.997C273.317 157.236 273.323 156.4 273.05 155.635C272.777 154.871 272.243 154.227 271.541 153.819C270.839 153.411 270.015 153.264 269.216 153.405C268.416 153.546 267.692 153.966 267.173 154.589C266.653 155.213 266.37 156 266.375 156.812C266.379 157.12 266.425 157.425 266.513 157.72L261.487 160.862C261.044 160.303 260.437 159.896 259.752 159.698C259.067 159.5 258.337 159.519 257.663 159.754C256.99 159.989 256.406 160.428 255.993 161.009C255.58 161.591 255.358 162.286 255.358 163C255.358 163.713 255.58 164.409 255.993 164.99C256.406 165.572 256.99 166.011 257.663 166.245C258.337 166.48 259.067 166.5 259.752 166.302C260.437 166.103 261.044 165.696 261.487 165.138L266.513 168.28C266.425 168.574 266.379 168.88 266.375 169.187C266.375 169.867 266.577 170.532 266.955 171.097C267.332 171.662 267.869 172.103 268.497 172.363C269.126 172.623 269.817 172.691 270.484 172.559C271.15 172.426 271.763 172.099 272.244 171.618C272.724 171.137 273.052 170.525 273.184 169.858C273.317 169.191 273.249 168.5 272.989 167.872C272.729 167.244 272.288 166.707 271.723 166.329C271.157 165.951 270.493 165.75 269.813 165.75V165.75ZM269.813 154.75C270.221 154.75 270.62 154.871 270.959 155.097C271.298 155.324 271.562 155.646 271.718 156.023C271.875 156.4 271.915 156.815 271.836 157.215C271.756 157.615 271.56 157.982 271.271 158.271C270.983 158.559 270.615 158.756 270.215 158.835C269.815 158.915 269.4 158.874 269.024 158.718C268.647 158.562 268.325 158.297 268.098 157.958C267.871 157.619 267.75 157.22 267.75 156.812C267.75 156.265 267.968 155.741 268.354 155.354C268.741 154.967 269.266 154.75 269.813 154.75V154.75ZM258.813 165.062C258.405 165.062 258.006 164.941 257.667 164.715C257.328 164.488 257.064 164.166 256.907 163.789C256.751 163.412 256.71 162.998 256.79 162.597C256.87 162.197 257.066 161.83 257.354 161.541C257.643 161.253 258.01 161.057 258.411 160.977C258.811 160.897 259.225 160.938 259.602 161.094C259.979 161.25 260.301 161.515 260.528 161.854C260.754 162.193 260.875 162.592 260.875 163C260.875 163.547 260.658 164.071 260.271 164.458C259.885 164.845 259.36 165.062 258.813 165.062ZM269.813 171.25C269.405 171.25 269.006 171.129 268.667 170.902C268.328 170.676 268.064 170.353 267.907 169.977C267.751 169.6 267.71 169.185 267.79 168.785C267.87 168.385 268.066 168.017 268.354 167.729C268.643 167.44 269.01 167.244 269.411 167.164C269.811 167.085 270.225 167.126 270.602 167.282C270.979 167.438 271.301 167.702 271.528 168.041C271.754 168.381 271.875 168.779 271.875 169.187C271.875 169.734 271.658 170.259 271.271 170.646C270.885 171.032 270.36 171.25 269.813 171.25V171.25Z" fill="white"/>
<path d="M301.416 153.833H289.747C289.103 153.834 288.481 154.059 287.986 154.471C287.492 154.883 287.158 155.456 287.043 156.088L285.878 162.505C285.806 162.901 285.821 163.309 285.924 163.699C286.026 164.088 286.213 164.451 286.471 164.761C286.729 165.07 287.052 165.319 287.417 165.49C287.782 165.661 288.18 165.75 288.583 165.75H292.763L292.249 167.061C292.036 167.635 291.965 168.252 292.042 168.859C292.119 169.467 292.343 170.046 292.694 170.549C293.044 171.051 293.511 171.46 294.055 171.742C294.599 172.024 295.203 172.17 295.815 172.167C295.991 172.166 296.164 172.115 296.312 172.019C296.46 171.923 296.577 171.787 296.649 171.626L299.262 165.75H301.416C302.145 165.75 302.845 165.46 303.36 164.945C303.876 164.429 304.166 163.729 304.166 163V156.583C304.166 155.854 303.876 155.155 303.36 154.639C302.845 154.123 302.145 153.833 301.416 153.833ZM297.749 164.641L295.256 170.251C295.001 170.174 294.764 170.045 294.561 169.873C294.357 169.701 294.191 169.489 294.072 169.25C293.954 169.011 293.886 168.751 293.872 168.485C293.858 168.219 293.898 167.952 293.991 167.702L294.477 166.392C294.58 166.115 294.615 165.817 294.579 165.523C294.542 165.23 294.435 164.949 294.267 164.706C294.098 164.463 293.873 164.264 293.611 164.127C293.35 163.989 293.058 163.917 292.763 163.917H288.583C288.448 163.917 288.315 163.887 288.193 163.83C288.071 163.773 287.963 163.69 287.877 163.587C287.788 163.485 287.724 163.364 287.687 163.234C287.651 163.104 287.644 162.968 287.666 162.835L288.83 156.418C288.869 156.205 288.983 156.012 289.151 155.874C289.318 155.737 289.53 155.663 289.747 155.667H297.749V164.641ZM302.333 163C302.333 163.243 302.236 163.476 302.064 163.648C301.892 163.82 301.659 163.917 301.416 163.917H299.583V155.667H301.416C301.659 155.667 301.892 155.763 302.064 155.935C302.236 156.107 302.333 156.34 302.333 156.583V163Z" fill="white"/>
<path d="M234.75 158.833C235.256 158.833 235.667 158.423 235.667 157.917C235.667 157.41 235.256 157 234.75 157C234.244 157 233.833 157.41 233.833 157.917C233.833 158.423 234.244 158.833 234.75 158.833Z" fill="white"/>
<path d="M237.347 166.411H235.819V160.056H233.528C233.325 160.056 233.131 160.139 232.988 160.288C232.844 160.437 232.764 160.639 232.764 160.85C232.764 161.061 232.844 161.263 232.988 161.412C233.131 161.561 233.325 161.644 233.528 161.644H234.292V166.411H232.764C232.561 166.411 232.367 166.495 232.224 166.644C232.08 166.793 232 166.995 232 167.206C232 167.416 232.08 167.618 232.224 167.767C232.367 167.916 232.561 168 232.764 168H237.347C237.55 168 237.744 167.916 237.887 167.767C238.031 167.618 238.111 167.416 238.111 167.206C238.111 166.995 238.031 166.793 237.887 166.644C237.744 166.495 237.55 166.411 237.347 166.411Z" fill="white"/>
<path d="M234.625 153C232.721 153 230.86 153.564 229.278 154.622C227.695 155.68 226.461 157.183 225.733 158.942C225.004 160.7 224.814 162.636 225.185 164.503C225.556 166.37 226.473 168.085 227.819 169.431C229.165 170.777 230.88 171.694 232.747 172.065C234.614 172.436 236.55 172.246 238.308 171.517C240.067 170.789 241.57 169.555 242.628 167.972C243.686 166.39 244.25 164.529 244.25 162.625C244.25 160.072 243.236 157.624 241.431 155.819C239.626 154.014 237.178 153 234.625 153V153ZM234.625 170.646C233.039 170.646 231.488 170.175 230.169 169.294C228.85 168.413 227.822 167.16 227.215 165.694C226.608 164.229 226.449 162.616 226.758 161.06C227.068 159.504 227.832 158.075 228.953 156.953C230.075 155.832 231.504 155.068 233.06 154.758C234.616 154.449 236.229 154.608 237.694 155.215C239.16 155.822 240.413 156.85 241.294 158.169C242.175 159.488 242.646 161.039 242.646 162.625C242.646 163.678 242.438 164.721 242.035 165.694C241.632 166.668 241.041 167.552 240.297 168.297C239.552 169.041 238.668 169.632 237.694 170.035C236.721 170.438 235.678 170.646 234.625 170.646V170.646Z" fill="white"/>
<path d="M234.75 158.833C235.256 158.833 235.667 158.423 235.667 157.917C235.667 157.41 235.256 157 234.75 157C234.244 157 233.833 157.41 233.833 157.917C233.833 158.423 234.244 158.833 234.75 158.833Z" fill="white"/>
<path d="M237.347 166.411H235.819V160.056H233.528C233.325 160.056 233.131 160.139 232.988 160.288C232.844 160.437 232.764 160.639 232.764 160.85C232.764 161.061 232.844 161.263 232.988 161.412C233.131 161.561 233.325 161.644 233.528 161.644H234.292V166.411H232.764C232.561 166.411 232.367 166.495 232.224 166.644C232.08 166.793 232 166.995 232 167.206C232 167.416 232.08 167.618 232.224 167.767C232.367 167.916 232.561 168 232.764 168H237.347C237.55 168 237.744 167.916 237.887 167.767C238.031 167.618 238.111 167.416 238.111 167.206C238.111 166.995 238.031 166.793 237.887 166.644C237.744 166.495 237.55 166.411 237.347 166.411Z" fill="white"/>
<path d="M234.625 153C232.721 153 230.86 153.564 229.278 154.622C227.695 155.68 226.461 157.183 225.733 158.942C225.004 160.7 224.814 162.636 225.185 164.503C225.556 166.37 226.473 168.085 227.819 169.431C229.165 170.777 230.88 171.694 232.747 172.065C234.614 172.436 236.55 172.246 238.308 171.517C240.067 170.789 241.57 169.555 242.628 167.972C243.686 166.39 244.25 164.529 244.25 162.625C244.25 160.072 243.236 157.624 241.431 155.819C239.626 154.014 237.178 153 234.625 153V153ZM234.625 170.646C233.039 170.646 231.488 170.175 230.169 169.294C228.85 168.413 227.822 167.16 227.215 165.694C226.608 164.229 226.449 162.616 226.758 161.06C227.068 159.504 227.832 158.075 228.953 156.953C230.075 155.832 231.504 155.068 233.06 154.758C234.616 154.449 236.229 154.608 237.694 155.215C239.16 155.822 240.413 156.85 241.294 158.169C242.175 159.488 242.646 161.039 242.646 162.625C242.646 163.678 242.438 164.721 242.035 165.694C241.632 166.668 241.041 167.552 240.297 168.297C239.552 169.041 238.668 169.632 237.694 170.035C236.721 170.438 235.678 170.646 234.625 170.646V170.646Z" fill="white"/>
</g>
<path d="M162.578 76.0037C167.324 75.9203 171.988 77.2461 175.981 79.8135C179.973 82.3809 183.115 86.0745 185.008 90.4274C186.902 94.7802 187.462 99.5967 186.617 104.268C185.773 108.939 183.563 113.255 180.266 116.67C176.969 120.085 172.734 122.445 168.095 123.453C163.456 124.461 158.623 124.07 154.207 122.331C149.79 120.592 145.988 117.582 143.282 113.682C140.576 109.782 139.087 105.168 139.004 100.422C138.892 94.0575 141.313 87.9095 145.734 83.3303C150.155 78.751 156.214 76.1155 162.578 76.0037V76.0037ZM162.508 72.0043C156.971 72.1016 151.587 73.8387 147.037 76.9958C142.487 80.1529 138.976 84.5883 136.947 89.7411C134.918 94.8939 134.463 100.533 135.638 105.944C136.814 111.356 139.568 116.297 143.552 120.144C147.536 123.99 152.571 126.569 158.021 127.554C163.47 128.538 169.09 127.885 174.168 125.676C179.246 123.467 183.556 119.802 186.551 115.144C189.546 110.486 191.093 105.045 190.996 99.5079C190.865 92.083 187.79 85.0141 182.448 79.8561C177.105 74.6982 169.933 71.8738 162.508 72.0043V72.0043Z" fill="white" fill-opacity="0.6"/>
<path d="M155.247 114.138C154.888 114.145 154.534 114.054 154.223 113.876C153.921 113.705 153.669 113.457 153.492 113.159C153.315 112.86 153.219 112.521 153.213 112.174L152.791 88.1776C152.785 87.8306 152.869 87.4879 153.036 87.1834C153.202 86.8789 153.445 86.6229 153.74 86.4407C154.041 86.2598 154.385 86.1613 154.736 86.1552C155.087 86.149 155.433 86.2353 155.74 86.4055L177.948 98.0171C178.268 98.1828 178.538 98.4322 178.728 98.7387C178.918 99.0453 179.022 99.3976 179.028 99.7583C179.035 100.119 178.943 100.475 178.764 100.788C178.585 101.101 178.324 101.36 178.009 101.537L156.224 113.921C155.922 114.075 155.586 114.15 155.247 114.138V114.138ZM156.849 91.4668L157.153 108.744L172.819 99.8275L156.849 91.4668Z" fill="white" fill-opacity="0.6"/>
<defs>
<linearGradient id="paint0_linear" x1="92.75" y1="81.1765" x2="52.8637" y2="38.8258" gradientUnits="userSpaceOnUse">
<stop stop-color="#1B1B1B"/>
<stop offset="1" stop-color="#1B1B1B" stop-opacity="0"/>
</linearGradient>
<linearGradient id="paint1_linear" x1="13.8879" y1="148" x2="150.493" y2="148.676" gradientUnits="userSpaceOnUse">
<stop stop-opacity="0"/>
<stop stop-opacity="0"/>
<stop offset="1"/>
</linearGradient>
<clipPath id="clip0">
<rect width="179" height="326" fill="white" transform="translate(326 21) rotate(90)"/>
</clipPath>
</defs>
</svg>
