<svg width="326" height="500" viewBox="0 0 326 500" fill="none" xmlns="http://www.w3.org/2000/svg">
<g filter="url(#filter0_b)">
<rect width="314" height="326" transform="translate(326 186) rotate(90)" fill="url(#paint0_linear)"/>
<path d="M21 368.906C21 363.435 25.4349 359 30.9055 359H85.0945C90.5651 359 95 363.435 95 368.906V368.906C95 374.376 90.5651 378.811 85.0945 378.811H30.9055C25.4349 378.811 21 374.376 21 368.906V368.906Z" fill="#111111" fill-opacity="0.2"/>
<g clip-path="url(#clip0)">
<path d="M38.8511 368.045C38.8511 367.434 38.4178 366.922 37.8436 366.799C38.073 366.416 38.2138 365.974 38.2138 365.496C38.2138 364.09 37.0705 362.946 35.6646 362.946C34.6978 362.946 33.8668 363.493 33.4341 364.287C33.0013 363.493 32.1703 362.946 31.2035 362.946C29.7976 362.946 28.6543 364.09 28.6543 365.496C28.6543 366.07 28.8531 366.596 29.175 367.023C29.0141 367.14 28.8832 367.294 28.7927 367.472C28.7023 367.649 28.6549 367.845 28.6543 368.045V373.143C28.6543 373.846 29.226 374.418 29.9289 374.418H37.5765C38.2795 374.418 38.8511 373.846 38.8511 373.143V371.462L41.4004 372.737V368.275L38.8511 369.55V368.045ZM35.6646 364.221C36.3676 364.221 36.9392 364.793 36.9392 365.496C36.9392 366.199 36.3676 366.77 35.6646 366.77C34.9617 366.77 34.39 366.199 34.39 365.496C34.39 364.793 34.9617 364.221 35.6646 364.221ZM31.2035 364.221C31.9065 364.221 32.4781 364.793 32.4781 365.496C32.4781 366.199 31.9065 366.77 31.2035 366.77C30.5006 366.77 29.9289 366.199 29.9289 365.496C29.9289 364.793 30.5006 364.221 31.2035 364.221ZM29.9289 373.143V368.045H37.5765L37.5778 373.143H29.9289Z" fill="white"/>
<path d="M55.4394 364.566V365.591H52.3667V374.331H51.1035V365.591H48.0307V364.566H55.4394ZM56.8119 374.331V367.161H57.6654L57.8907 368.076C58.5189 367.466 59.2746 367.161 60.1577 367.161V368.213C59.3019 368.213 58.6077 368.515 58.0751 369.121V374.331H56.8119ZM61.0864 372.166C61.0864 370.696 62.056 369.961 63.9952 369.961C64.6188 369.961 65.2425 370.006 65.8661 370.097V369.421C65.8661 368.597 65.222 368.185 63.9337 368.185C63.1963 368.185 62.4406 368.299 61.6668 368.527V367.502C62.4406 367.275 63.1963 367.161 63.9337 367.161C66.0641 367.161 67.1294 367.903 67.1294 369.387V374.331H66.4192L65.9822 373.621C65.2675 374.094 64.4891 374.331 63.6469 374.331C61.9399 374.331 61.0864 373.609 61.0864 372.166ZM63.9952 370.985C62.8981 370.985 62.3496 371.372 62.3496 372.146C62.3496 372.92 62.782 373.306 63.6469 373.306C64.521 373.306 65.2607 373.074 65.8661 372.61V371.121C65.2425 371.03 64.6188 370.985 63.9952 370.985ZM70.5844 367.161V374.331H69.3212V367.161H70.5844ZM70.5844 364.566V365.761H69.3212V364.566H70.5844ZM74.1078 364.566V374.331H72.8446V364.566H74.1078ZM79.188 367.161C81.2274 367.161 82.2471 368.169 82.2471 370.186C82.2471 370.473 82.2266 370.78 82.1856 371.108H77.1532C77.1532 372.574 78.009 373.306 79.7206 373.306C80.5355 373.306 81.2593 373.215 81.892 373.033V374.058C81.2593 374.24 80.49 374.331 79.5841 374.331C77.1214 374.331 75.89 373.108 75.89 370.664C75.89 368.329 76.9893 367.161 79.188 367.161ZM77.1532 370.056H81.0317C81.0044 368.8 80.3898 368.172 79.188 368.172C77.9134 368.172 77.2352 368.8 77.1532 370.056ZM83.9473 374.331V367.161H84.8009L85.0262 368.076C85.6544 367.466 86.4101 367.161 87.2932 367.161V368.213C86.4374 368.213 85.7432 368.515 85.2106 369.121V374.331H83.9473Z" fill="white"/>
</g>
<path d="M30.9055 360.165H85.0945V357.835H30.9055V360.165ZM85.0945 377.646H30.9055V379.976H85.0945V377.646ZM30.9055 377.646C26.0785 377.646 22.1654 373.733 22.1654 368.906H19.8346C19.8346 375.02 24.7912 379.976 30.9055 379.976V377.646ZM93.8346 368.906C93.8346 373.733 89.9215 377.646 85.0945 377.646V379.976C91.2088 379.976 96.1654 375.02 96.1654 368.906H93.8346ZM85.0945 360.165C89.9215 360.165 93.8346 364.078 93.8346 368.906H96.1654C96.1654 362.791 91.2088 357.835 85.0945 357.835V360.165ZM30.9055 357.835C24.7912 357.835 19.8346 362.791 19.8346 368.906H22.1654C22.1654 364.078 26.0785 360.165 30.9055 360.165V357.835Z" fill="white"/>
<path d="M25.0527 390.846V402.565H30.5996V404.811H22.4648V390.846H25.0527ZM34.9062 399.645C34.9062 401.787 35.7363 402.858 37.3965 402.858C39.0566 402.858 39.8867 401.787 39.8867 399.645C39.8867 397.555 39.0566 396.51 37.3965 396.51C35.7363 396.51 34.9062 397.555 34.9062 399.645ZM32.3184 399.684C32.3184 396.247 34.0111 394.528 37.3965 394.528C40.7819 394.528 42.4746 396.247 42.4746 399.684C42.4746 403.115 40.7819 404.831 37.3965 404.831C34.0241 404.831 32.3314 403.115 32.3184 399.684ZM50.9902 396.881C50.5671 396.725 49.9648 396.647 49.1836 396.647C47.3932 396.647 46.498 397.633 46.498 399.606C46.498 401.514 47.2695 402.467 48.8125 402.467C49.5547 402.467 50.2806 402.292 50.9902 401.94V396.881ZM53.5781 404.03C53.5781 407.025 51.778 408.522 48.1777 408.522C46.9147 408.522 45.7949 408.359 44.8184 408.034V405.983C45.8145 406.308 46.9408 406.471 48.1973 406.471C50.0592 406.471 50.9902 405.69 50.9902 404.127C50.222 404.453 49.3952 404.616 48.5098 404.616C45.4629 404.616 43.9395 402.952 43.9395 399.625C43.9395 396.247 45.7135 394.557 49.2617 394.557C50.4531 394.557 51.8919 394.697 53.5781 394.977V404.03ZM55.541 401.618C55.541 399.58 57.0254 398.561 59.9941 398.561C60.6908 398.561 61.3874 398.626 62.084 398.756V397.985C62.084 397.067 61.4232 396.608 60.1016 396.608C58.9818 396.608 57.7383 396.771 56.3711 397.096V395.045C57.7383 394.72 58.9818 394.557 60.1016 394.557C63.1484 394.557 64.6719 395.683 64.6719 397.936V404.811H63.168L62.25 403.893C61.3581 404.505 60.375 404.811 59.3008 404.811C56.7943 404.811 55.541 403.747 55.541 401.618ZM62.084 400.514C61.4329 400.384 60.7363 400.319 59.9941 400.319C58.7507 400.319 58.1289 400.742 58.1289 401.588C58.1289 402.5 58.6497 402.956 59.6914 402.956C60.5508 402.956 61.3483 402.689 62.084 402.155V400.514ZM67.123 404.811V394.557H69.125L69.4473 396.061C70.4303 395.058 71.5501 394.557 72.8066 394.557C75.235 394.557 76.4492 395.82 76.4492 398.346V404.811H73.8613V398.346C73.8613 397.213 73.2982 396.647 72.1719 396.647C71.332 396.647 70.5117 396.982 69.7109 397.653V404.811H67.123ZM86.127 390.846V402.565H91.6738V404.811H83.5391V390.846H86.127ZM103.109 394.557V404.811H101.088L100.775 403.502C99.597 404.375 98.347 404.811 97.0254 404.811C94.929 404.811 93.8809 403.571 93.8809 401.09V394.557H96.4688V401.022C96.4688 402.155 96.9635 402.721 97.9531 402.721C98.793 402.721 99.6491 402.386 100.521 401.715V394.557H103.109ZM113.129 404.518C112.283 404.713 111.404 404.811 110.492 404.811C106.846 404.811 105.023 403.037 105.023 399.489C105.023 396.201 106.846 394.557 110.492 394.557C111.404 394.557 112.283 394.655 113.129 394.85V396.901C112.283 396.706 111.469 396.608 110.688 396.608C108.637 396.608 107.611 397.568 107.611 399.489C107.611 401.67 108.637 402.76 110.688 402.76C111.469 402.76 112.283 402.663 113.129 402.467V404.518ZM114.838 404.811V390.846H117.426V395.358C118.487 394.824 119.604 394.557 120.775 394.557C123.393 394.557 124.701 395.543 124.701 397.516C124.701 398.948 123.79 400.068 121.967 400.875L125.15 404.811H121.986L119.311 401.149V399.948C121.179 399.551 122.113 398.9 122.113 397.995C122.113 397.07 121.495 396.608 120.258 396.608C119.392 396.608 118.448 396.881 117.426 397.428V404.811H114.838ZM125.395 394.557H128.139L130.727 401.94L133.256 394.557H135.951L131.693 405.114C130.938 406.976 129.73 408.301 128.07 409.088L126.82 407.321C127.966 406.819 128.799 406.002 129.32 404.87L125.395 394.557Z" fill="white"/>
<path d="M27.25 419.342L25.4727 422.944L21.5 423.518L24.375 426.323L23.6953 430.28L27.25 428.413L30.8047 430.28L30.125 426.323L33 423.522L29.0273 422.944L27.25 419.342Z" fill="#F39B13"/>
<path d="M39.7715 419.66C40.1543 419.66 40.5143 419.71 40.8516 419.81C41.1934 419.91 41.4919 420.061 41.7471 420.261C42.0068 420.462 42.2119 420.712 42.3623 421.013C42.5127 421.314 42.5879 421.665 42.5879 422.066C42.5879 422.371 42.5423 422.647 42.4512 422.893C42.36 423.139 42.2347 423.362 42.0752 423.563C41.9157 423.759 41.7266 423.937 41.5078 424.096C41.2891 424.251 41.0521 424.392 40.7969 424.52C41.0612 424.661 41.3187 424.819 41.5693 424.992C41.8245 425.165 42.0501 425.361 42.2461 425.58C42.4466 425.794 42.6061 426.035 42.7246 426.304C42.8477 426.573 42.9092 426.874 42.9092 427.207C42.9092 427.626 42.8317 428.006 42.6768 428.348C42.5264 428.685 42.3122 428.972 42.0342 429.209C41.7607 429.446 41.4303 429.629 41.043 429.756C40.6602 429.884 40.2363 429.948 39.7715 429.948C39.2702 429.948 38.8236 429.886 38.4316 429.763C38.0443 429.64 37.7161 429.465 37.4473 429.237C37.1829 429.004 36.9801 428.722 36.8389 428.389C36.7021 428.056 36.6338 427.681 36.6338 427.261C36.6338 426.919 36.6839 426.612 36.7842 426.338C36.889 426.065 37.028 425.819 37.2012 425.6C37.3743 425.381 37.5794 425.188 37.8164 425.019C38.0534 424.85 38.304 424.702 38.5684 424.575C38.3451 424.433 38.1354 424.281 37.9395 424.117C37.7435 423.948 37.5726 423.761 37.4268 423.556C37.2855 423.351 37.1715 423.125 37.085 422.879C37.0029 422.629 36.9619 422.353 36.9619 422.052C36.9619 421.656 37.0371 421.309 37.1875 421.013C37.3424 420.712 37.5498 420.462 37.8096 420.261C38.0693 420.061 38.3678 419.91 38.7051 419.81C39.0469 419.71 39.4023 419.66 39.7715 419.66ZM37.8574 427.275C37.8574 427.516 37.8939 427.74 37.9668 427.945C38.0397 428.145 38.1536 428.319 38.3086 428.464C38.4635 428.606 38.6595 428.717 38.8965 428.799C39.1335 428.877 39.416 428.916 39.7441 428.916C40.0632 428.916 40.3434 428.877 40.585 428.799C40.8311 428.717 41.0361 428.603 41.2002 428.458C41.3643 428.307 41.4873 428.127 41.5693 427.917C41.6514 427.708 41.6924 427.475 41.6924 427.22C41.6924 426.983 41.6468 426.769 41.5557 426.578C41.4691 426.386 41.3415 426.208 41.1729 426.044C41.0088 425.88 40.8105 425.725 40.5781 425.58C40.3457 425.434 40.0859 425.29 39.7988 425.149L39.5938 425.053C39.0195 425.327 38.5866 425.641 38.2949 425.997C38.0033 426.347 37.8574 426.774 37.8574 427.275ZM39.7578 420.699C39.2747 420.699 38.8896 420.819 38.6025 421.061C38.32 421.303 38.1787 421.653 38.1787 422.114C38.1787 422.374 38.2174 422.597 38.2949 422.784C38.377 422.971 38.4886 423.137 38.6299 423.283C38.7712 423.429 38.9398 423.561 39.1357 423.679C39.3363 423.793 39.5527 423.905 39.7852 424.014C40.0039 423.914 40.209 423.805 40.4004 423.686C40.5964 423.568 40.765 423.433 40.9062 423.283C41.0521 423.132 41.166 422.961 41.248 422.77C41.3301 422.579 41.3711 422.36 41.3711 422.114C41.3711 421.653 41.2275 421.303 40.9404 421.061C40.6533 420.819 40.2591 420.699 39.7578 420.699ZM44.625 429.052C44.625 428.879 44.6478 428.733 44.6934 428.615C44.7389 428.492 44.8005 428.394 44.8779 428.321C44.9554 428.243 45.0465 428.189 45.1514 428.157C45.2562 428.12 45.3701 428.102 45.4932 428.102C45.6117 428.102 45.7233 428.12 45.8281 428.157C45.9375 428.189 46.0309 428.243 46.1084 428.321C46.1859 428.394 46.2474 428.492 46.293 428.615C46.3385 428.733 46.3613 428.879 46.3613 429.052C46.3613 429.221 46.3385 429.367 46.293 429.49C46.2474 429.608 46.1859 429.706 46.1084 429.784C46.0309 429.861 45.9375 429.918 45.8281 429.955C45.7233 429.991 45.6117 430.009 45.4932 430.009C45.3701 430.009 45.2562 429.991 45.1514 429.955C45.0465 429.918 44.9554 429.861 44.8779 429.784C44.8005 429.706 44.7389 429.608 44.6934 429.49C44.6478 429.367 44.625 429.221 44.625 429.052ZM53.9492 422.155C53.9492 422.487 53.8968 422.791 53.792 423.064C53.6872 423.337 53.5391 423.574 53.3477 423.775C53.1608 423.975 52.9352 424.142 52.6709 424.274C52.4066 424.402 52.1126 424.493 51.7891 424.547V424.588C52.5957 424.689 53.2087 424.946 53.6279 425.361C54.0472 425.771 54.2568 426.306 54.2568 426.967C54.2568 427.405 54.1816 427.806 54.0312 428.17C53.8854 428.535 53.6621 428.849 53.3613 429.114C53.0605 429.378 52.68 429.583 52.2197 429.729C51.7594 429.875 51.2148 429.948 50.5859 429.948C50.0892 429.948 49.6198 429.909 49.1777 429.832C48.7402 429.754 48.3278 429.613 47.9404 429.408V428.246C48.3369 428.455 48.7653 428.617 49.2256 428.731C49.6904 428.845 50.1348 428.902 50.5586 428.902C50.9779 428.902 51.3402 428.856 51.6455 428.765C51.9508 428.674 52.2015 428.544 52.3975 428.375C52.598 428.207 52.7438 428 52.835 427.753C52.9307 427.507 52.9785 427.232 52.9785 426.926C52.9785 426.616 52.917 426.352 52.7939 426.133C52.6755 425.91 52.5046 425.728 52.2812 425.586C52.0579 425.441 51.7845 425.333 51.4609 425.265C51.1419 425.197 50.7796 425.163 50.374 425.163H49.4648V424.13H50.374C50.7432 424.13 51.0713 424.085 51.3584 423.994C51.6455 423.903 51.8848 423.773 52.0762 423.604C52.2721 423.435 52.4202 423.235 52.5205 423.002C52.6208 422.77 52.6709 422.515 52.6709 422.237C52.6709 422 52.6299 421.788 52.5479 421.601C52.4658 421.414 52.3496 421.257 52.1992 421.129C52.0488 420.997 51.8688 420.897 51.6592 420.829C51.4495 420.76 51.2171 420.726 50.9619 420.726C50.4743 420.726 50.0436 420.804 49.6699 420.958C49.3008 421.109 48.9476 421.307 48.6104 421.553L47.9814 420.699C48.1546 420.557 48.346 420.425 48.5557 420.302C48.7699 420.179 49.0023 420.072 49.2529 419.981C49.5036 419.885 49.7702 419.81 50.0527 419.755C50.3398 419.701 50.6429 419.673 50.9619 419.673C51.4541 419.673 51.8848 419.735 52.2539 419.858C52.6276 419.981 52.9398 420.154 53.1904 420.377C53.4411 420.596 53.6302 420.858 53.7578 421.164C53.8854 421.464 53.9492 421.795 53.9492 422.155Z" fill="white"/>
<path d="M60.1523 420.036V429.811H58.8877V420.036H60.1523ZM62.6885 429.811V420.036H64.2949L67.8838 428.191L71.4043 420.036H72.9424V429.811H71.8145V421.792L68.3418 429.811H67.3438L63.8164 421.792V429.811H62.6885ZM78.8213 428.786C81.2139 428.786 82.4102 427.409 82.4102 424.657C82.4102 422.26 81.2139 421.061 78.8213 421.061H76.5312V428.786H78.8213ZM75.2666 429.811V420.036H78.8213C82.057 420.036 83.6748 421.576 83.6748 424.657C83.6748 428.093 82.057 429.811 78.8213 429.811H75.2666ZM86.6484 428.56C87.0632 428.692 87.5667 428.758 88.1592 428.758C89.7542 428.758 90.5518 427.849 90.5518 426.031C90.5518 424.495 89.8294 423.727 88.3848 423.727C87.7285 423.727 87.1497 423.85 86.6484 424.096V428.56ZM85.3838 420.036H86.6484V422.975C87.1908 422.747 87.7718 422.633 88.3916 422.633C90.6611 422.633 91.7959 423.782 91.7959 426.079C91.7959 428.567 90.6042 429.811 88.2207 429.811C87.1908 429.811 86.2451 429.713 85.3838 429.517V420.036Z" fill="white"/>
<path d="M28.2666 453.811H21.5605V452.341L23.9121 449.805C24.2083 449.486 24.4772 449.192 24.7188 448.923C24.9603 448.654 25.1676 448.392 25.3408 448.137C25.514 447.882 25.6484 447.622 25.7441 447.358C25.8398 447.094 25.8877 446.809 25.8877 446.503C25.8877 446.166 25.7852 445.904 25.5801 445.717C25.3796 445.53 25.1084 445.437 24.7666 445.437C24.4066 445.437 24.0602 445.526 23.7275 445.704C23.3949 445.881 23.0462 446.134 22.6816 446.462L21.5332 445.102C21.7383 444.915 21.9525 444.737 22.1758 444.569C22.3991 444.396 22.6452 444.243 22.9141 444.111C23.1829 443.979 23.4792 443.874 23.8027 443.796C24.1263 443.714 24.4886 443.673 24.8896 443.673C25.3682 443.673 25.7965 443.739 26.1748 443.872C26.5576 444.004 26.8835 444.193 27.1523 444.439C27.4212 444.681 27.6263 444.974 27.7676 445.321C27.9134 445.667 27.9863 446.057 27.9863 446.49C27.9863 446.882 27.918 447.258 27.7812 447.618C27.6445 447.973 27.4577 448.324 27.2207 448.67C26.9837 449.012 26.708 449.354 26.3936 449.696C26.0837 450.033 25.751 450.377 25.3955 450.728L24.1924 451.938V452.034H28.2666V453.811ZM40.0723 453.811H37.9873V449.347C37.9873 448.796 37.9007 448.383 37.7275 448.11C37.5589 447.832 37.2969 447.693 36.9414 447.693C36.6725 447.693 36.4469 447.748 36.2646 447.857C36.0824 447.966 35.9365 448.128 35.8271 448.342C35.7178 448.556 35.6403 448.821 35.5947 449.135C35.5492 449.45 35.5264 449.81 35.5264 450.215V453.811H33.4414V443.174H35.5264V445.341C35.5264 445.533 35.5218 445.736 35.5127 445.95C35.5036 446.159 35.4922 446.353 35.4785 446.531C35.4603 446.74 35.4443 446.945 35.4307 447.146H35.54C35.7633 446.75 36.0482 446.465 36.3945 446.292C36.7409 446.114 37.1328 446.025 37.5703 446.025C37.9486 446.025 38.2904 446.08 38.5957 446.189C38.9056 446.294 39.1699 446.46 39.3887 446.688C39.6074 446.916 39.776 447.208 39.8945 447.563C40.013 447.914 40.0723 448.335 40.0723 448.828V453.811ZM46.2041 446.025C46.2588 446.025 46.318 446.027 46.3818 446.032C46.4502 446.032 46.514 446.036 46.5732 446.045C46.637 446.05 46.694 446.057 46.7441 446.066C46.7988 446.07 46.8398 446.077 46.8672 446.086V448.042C46.8307 448.032 46.7806 448.023 46.7168 448.014C46.653 448.005 46.5846 447.998 46.5117 447.994C46.4434 447.985 46.375 447.98 46.3066 447.98C46.2383 447.975 46.1813 447.973 46.1357 447.973C45.8669 447.973 45.6185 448.007 45.3906 448.076C45.1673 448.144 44.9736 448.256 44.8096 448.411C44.6501 448.561 44.5247 448.762 44.4336 449.012C44.347 449.258 44.3037 449.561 44.3037 449.921V453.811H42.2188V446.168H43.7979L44.1055 447.317H44.208C44.3174 447.121 44.4359 446.943 44.5635 446.784C44.6911 446.624 44.8324 446.49 44.9873 446.38C45.1468 446.266 45.3245 446.18 45.5205 446.121C45.721 446.057 45.9489 446.025 46.2041 446.025ZM54.9336 447.426C55.362 447.426 55.7607 447.492 56.1299 447.625C56.499 447.757 56.8203 447.95 57.0938 448.206C57.3672 448.461 57.5814 448.78 57.7363 449.163C57.8913 449.541 57.9688 449.976 57.9688 450.468C57.9688 451.011 57.8844 451.498 57.7158 451.931C57.5472 452.36 57.2988 452.724 56.9707 453.025C56.6426 453.321 56.2347 453.549 55.7471 453.708C55.264 453.868 54.708 453.948 54.0791 453.948C53.8285 453.948 53.5801 453.936 53.334 453.914C53.0879 453.891 52.8509 453.857 52.623 453.811C52.3997 453.77 52.1855 453.715 51.9805 453.647C51.7799 453.579 51.5977 453.499 51.4336 453.408V451.583C51.5931 451.674 51.7777 451.76 51.9873 451.842C52.1969 451.92 52.4134 451.988 52.6367 452.047C52.8646 452.102 53.0924 452.148 53.3203 452.184C53.5482 452.216 53.7646 452.232 53.9697 452.232C54.5804 452.232 55.0452 452.107 55.3643 451.856C55.6833 451.601 55.8428 451.197 55.8428 450.646C55.8428 450.154 55.6855 449.78 55.3711 449.525C55.0612 449.265 54.5804 449.135 53.9287 449.135C53.8102 449.135 53.6826 449.142 53.5459 449.156C53.4137 449.169 53.2816 449.188 53.1494 449.21C53.0218 449.233 52.8988 449.258 52.7803 449.286C52.6618 449.308 52.5592 449.333 52.4727 449.361L51.6318 448.91L52.0078 443.817H57.2852V445.608H53.8398L53.6758 447.57C53.8216 447.538 53.9902 447.506 54.1816 447.474C54.3776 447.442 54.6283 447.426 54.9336 447.426ZM69.8496 453.811H67.7646V449.347C67.7646 448.796 67.6826 448.383 67.5186 448.11C67.3545 447.832 67.097 447.693 66.7461 447.693C66.4818 447.693 66.2607 447.748 66.083 447.857C65.9098 447.966 65.7708 448.128 65.666 448.342C65.5612 448.556 65.486 448.821 65.4404 449.135C65.3949 449.45 65.3721 449.81 65.3721 450.215V453.811H63.2871V446.168H64.8799L65.1602 447.146H65.2764C65.3857 446.95 65.5156 446.781 65.666 446.64C65.821 446.499 65.9896 446.383 66.1719 446.292C66.3542 446.2 66.5479 446.134 66.7529 446.093C66.958 446.048 67.1654 446.025 67.375 446.025C67.8991 446.025 68.3434 446.116 68.708 446.298C69.0771 446.476 69.3597 446.759 69.5557 447.146H69.7266C69.8359 446.95 69.9681 446.781 70.123 446.64C70.278 446.499 70.4489 446.383 70.6357 446.292C70.8226 446.2 71.0186 446.134 71.2236 446.093C71.4333 446.048 71.6429 446.025 71.8525 446.025C72.6729 446.025 73.2904 446.248 73.7051 446.695C74.1243 447.137 74.334 447.848 74.334 448.828V453.811H72.2422V449.347C72.2422 448.796 72.1602 448.383 71.9961 448.11C71.832 447.832 71.5745 447.693 71.2236 447.693C70.7269 447.693 70.3737 447.891 70.1641 448.288C69.9544 448.68 69.8496 449.242 69.8496 449.976V453.811ZM76.3916 444.193C76.3916 443.997 76.4212 443.835 76.4805 443.708C76.5397 443.575 76.6195 443.471 76.7197 443.393C76.8245 443.311 76.9453 443.254 77.082 443.222C77.2233 443.19 77.3714 443.174 77.5264 443.174C77.6813 443.174 77.8271 443.19 77.9639 443.222C78.1006 443.254 78.2191 443.311 78.3193 443.393C78.4242 443.471 78.5062 443.575 78.5654 443.708C78.6292 443.835 78.6611 443.997 78.6611 444.193C78.6611 444.384 78.6292 444.546 78.5654 444.678C78.5062 444.81 78.4242 444.917 78.3193 445C78.2191 445.077 78.1006 445.134 77.9639 445.17C77.8271 445.202 77.6813 445.218 77.5264 445.218C77.3714 445.218 77.2233 445.202 77.082 445.17C76.9453 445.134 76.8245 445.077 76.7197 445C76.6195 444.917 76.5397 444.81 76.4805 444.678C76.4212 444.546 76.3916 444.384 76.3916 444.193ZM78.5654 453.811H76.4805V446.168H78.5654V453.811ZM87.3906 453.811H85.3057V449.347C85.3057 448.796 85.2214 448.383 85.0527 448.11C84.8887 447.832 84.6243 447.693 84.2598 447.693C83.9863 447.693 83.7585 447.748 83.5762 447.857C83.3939 447.966 83.248 448.128 83.1387 448.342C83.0339 448.556 82.9587 448.821 82.9131 449.135C82.8675 449.45 82.8447 449.81 82.8447 450.215V453.811H80.7598V446.168H82.3525L82.6328 447.146H82.749C82.8584 446.95 82.9906 446.781 83.1455 446.64C83.305 446.499 83.4782 446.383 83.665 446.292C83.8519 446.2 84.0501 446.134 84.2598 446.093C84.4694 446.048 84.6836 446.025 84.9023 446.025C85.276 446.025 85.6156 446.08 85.9209 446.189C86.2262 446.294 86.4883 446.46 86.707 446.688C86.9258 446.916 87.0944 447.208 87.2129 447.563C87.3314 447.914 87.3906 448.335 87.3906 448.828V453.811Z" fill="white"/>
<path d="M104.267 453.811H97.5605V452.341L99.9121 449.805C100.208 449.486 100.477 449.192 100.719 448.923C100.96 448.654 101.168 448.392 101.341 448.137C101.514 447.882 101.648 447.622 101.744 447.358C101.84 447.094 101.888 446.809 101.888 446.503C101.888 446.166 101.785 445.904 101.58 445.717C101.38 445.53 101.108 445.437 100.767 445.437C100.407 445.437 100.06 445.526 99.7275 445.704C99.3949 445.881 99.0462 446.134 98.6816 446.462L97.5332 445.102C97.7383 444.915 97.9525 444.737 98.1758 444.569C98.3991 444.396 98.6452 444.243 98.9141 444.111C99.1829 443.979 99.4792 443.874 99.8027 443.796C100.126 443.714 100.489 443.673 100.89 443.673C101.368 443.673 101.797 443.739 102.175 443.872C102.558 444.004 102.883 444.193 103.152 444.439C103.421 444.681 103.626 444.974 103.768 445.321C103.913 445.667 103.986 446.057 103.986 446.49C103.986 446.882 103.918 447.258 103.781 447.618C103.645 447.973 103.458 448.324 103.221 448.67C102.984 449.012 102.708 449.354 102.394 449.696C102.084 450.033 101.751 450.377 101.396 450.728L100.192 451.938V452.034H104.267V453.811ZM111.991 448.814C111.991 449.621 111.927 450.341 111.8 450.974C111.677 451.608 111.476 452.145 111.198 452.587C110.925 453.029 110.569 453.367 110.132 453.599C109.699 453.832 109.175 453.948 108.56 453.948C107.981 453.948 107.477 453.832 107.049 453.599C106.62 453.367 106.265 453.029 105.982 452.587C105.7 452.145 105.488 451.608 105.347 450.974C105.21 450.341 105.142 449.621 105.142 448.814C105.142 448.007 105.203 447.285 105.326 446.647C105.454 446.009 105.654 445.469 105.928 445.027C106.201 444.585 106.554 444.248 106.987 444.015C107.42 443.778 107.944 443.66 108.56 443.66C109.134 443.66 109.635 443.776 110.063 444.008C110.492 444.241 110.85 444.578 111.137 445.02C111.424 445.462 111.638 446.002 111.779 446.64C111.921 447.278 111.991 448.003 111.991 448.814ZM107.247 448.814C107.247 449.953 107.345 450.81 107.541 451.384C107.737 451.958 108.076 452.246 108.56 452.246C109.034 452.246 109.373 451.961 109.578 451.391C109.788 450.821 109.893 449.962 109.893 448.814C109.893 447.67 109.788 446.811 109.578 446.237C109.373 445.658 109.034 445.369 108.56 445.369C108.318 445.369 108.113 445.442 107.944 445.587C107.78 445.733 107.646 445.95 107.541 446.237C107.436 446.524 107.361 446.884 107.315 447.317C107.27 447.745 107.247 448.244 107.247 448.814ZM118.007 453.811H115.895V448.028C115.895 447.909 115.895 447.768 115.895 447.604C115.899 447.435 115.904 447.262 115.908 447.084C115.917 446.902 115.924 446.72 115.929 446.538C115.938 446.355 115.945 446.189 115.949 446.039C115.926 446.066 115.888 446.107 115.833 446.162C115.778 446.216 115.717 446.278 115.648 446.346C115.58 446.41 115.509 446.476 115.437 446.544C115.364 446.613 115.293 446.674 115.225 446.729L114.076 447.652L113.051 446.38L116.271 443.817H118.007V453.811ZM124.221 447.426C124.649 447.426 125.048 447.492 125.417 447.625C125.786 447.757 126.107 447.95 126.381 448.206C126.654 448.461 126.868 448.78 127.023 449.163C127.178 449.541 127.256 449.976 127.256 450.468C127.256 451.011 127.172 451.498 127.003 451.931C126.834 452.36 126.586 452.724 126.258 453.025C125.93 453.321 125.522 453.549 125.034 453.708C124.551 453.868 123.995 453.948 123.366 453.948C123.116 453.948 122.867 453.936 122.621 453.914C122.375 453.891 122.138 453.857 121.91 453.811C121.687 453.77 121.473 453.715 121.268 453.647C121.067 453.579 120.885 453.499 120.721 453.408V451.583C120.88 451.674 121.065 451.76 121.274 451.842C121.484 451.92 121.701 451.988 121.924 452.047C122.152 452.102 122.38 452.148 122.607 452.184C122.835 452.216 123.052 452.232 123.257 452.232C123.868 452.232 124.332 452.107 124.651 451.856C124.97 451.601 125.13 451.197 125.13 450.646C125.13 450.154 124.973 449.78 124.658 449.525C124.348 449.265 123.868 449.135 123.216 449.135C123.097 449.135 122.97 449.142 122.833 449.156C122.701 449.169 122.569 449.188 122.437 449.21C122.309 449.233 122.186 449.258 122.067 449.286C121.949 449.308 121.846 449.333 121.76 449.361L120.919 448.91L121.295 443.817H126.572V445.608H123.127L122.963 447.57C123.109 447.538 123.277 447.506 123.469 447.474C123.665 447.442 123.915 447.426 124.221 447.426Z" fill="white"/>
<path d="M144.939 445.871C144.591 445.871 144.275 445.937 143.992 446.071C143.709 446.201 143.466 446.39 143.265 446.637C143.066 446.885 142.911 447.186 142.801 447.541C142.693 447.895 142.64 448.296 142.64 448.742C142.64 449.201 142.687 449.609 142.781 449.967C142.879 450.322 143.024 450.622 143.216 450.866C143.408 451.11 143.647 451.295 143.934 451.422C144.22 451.549 144.555 451.613 144.939 451.613C145.229 451.613 145.504 451.585 145.765 451.53C146.025 451.471 146.282 451.404 146.536 451.33V452.121C146.409 452.169 146.282 452.213 146.155 452.252C146.028 452.288 145.895 452.318 145.755 452.34C145.618 452.363 145.47 452.379 145.311 452.389C145.154 452.402 144.98 452.409 144.788 452.409C144.254 452.409 143.792 452.321 143.401 452.145C143.011 451.969 142.687 451.72 142.43 451.398C142.176 451.076 141.987 450.688 141.863 450.236C141.74 449.783 141.678 449.282 141.678 448.732C141.678 448.192 141.748 447.697 141.888 447.248C142.031 446.798 142.239 446.413 142.513 446.09C142.789 445.768 143.131 445.517 143.538 445.338C143.945 445.159 144.412 445.07 144.939 445.07C145.291 445.07 145.626 445.106 145.945 445.177C146.264 445.249 146.552 445.353 146.81 445.49L146.429 446.251C146.224 446.147 146.001 446.058 145.76 445.983C145.519 445.908 145.245 445.871 144.939 445.871ZM150.77 445.871C150.421 445.871 150.105 445.937 149.822 446.071C149.539 446.201 149.297 446.39 149.095 446.637C148.896 446.885 148.742 447.186 148.631 447.541C148.523 447.895 148.47 448.296 148.47 448.742C148.47 449.201 148.517 449.609 148.611 449.967C148.709 450.322 148.854 450.622 149.046 450.866C149.238 451.11 149.477 451.295 149.764 451.422C150.05 451.549 150.385 451.613 150.77 451.613C151.059 451.613 151.334 451.585 151.595 451.53C151.855 451.471 152.112 451.404 152.366 451.33V452.121C152.239 452.169 152.112 452.213 151.985 452.252C151.858 452.288 151.725 452.318 151.585 452.34C151.448 452.363 151.3 452.379 151.141 452.389C150.984 452.402 150.81 452.409 150.618 452.409C150.084 452.409 149.622 452.321 149.231 452.145C148.841 451.969 148.517 451.72 148.26 451.398C148.006 451.076 147.817 450.688 147.693 450.236C147.57 449.783 147.508 449.282 147.508 448.732C147.508 448.192 147.578 447.697 147.718 447.248C147.861 446.798 148.069 446.413 148.343 446.09C148.619 445.768 148.961 445.517 149.368 445.338C149.775 445.159 150.242 445.07 150.77 445.07C151.121 445.07 151.456 445.106 151.775 445.177C152.094 445.249 152.382 445.353 152.64 445.49L152.259 446.251C152.054 446.147 151.831 446.058 151.59 445.983C151.349 445.908 151.076 445.871 150.77 445.871Z" fill="white"/>
<path d="M139 442.811H155V440.811H139V442.811ZM157 444.811V452.811H159V444.811H157ZM155 454.811H139V456.811H155V454.811ZM137 452.811V444.811H135V452.811H137ZM139 454.811C137.895 454.811 137 453.916 137 452.811H135C135 455.02 136.791 456.811 139 456.811V454.811ZM157 452.811C157 453.916 156.105 454.811 155 454.811V456.811C157.209 456.811 159 455.02 159 452.811H157ZM155 442.811C156.105 442.811 157 443.706 157 444.811H159C159 442.602 157.209 440.811 155 440.811V442.811ZM139 440.811C136.791 440.811 135 442.602 135 444.811H137C137 443.706 137.895 442.811 139 442.811V440.811Z" fill="white"/>
<path d="M172.931 449.362V452.311H172.022V445.172H173.761C174.627 445.172 175.266 445.34 175.68 445.675C176.093 446.011 176.3 446.518 176.3 447.199C176.3 447.482 176.259 447.729 176.178 447.941C176.1 448.153 175.994 448.335 175.86 448.488C175.73 448.638 175.58 448.763 175.411 448.864C175.242 448.965 175.068 449.048 174.889 449.113L176.832 452.311H175.763L174.049 449.362H172.931ZM172.931 448.59H173.731C174.024 448.59 174.273 448.563 174.479 448.507C174.684 448.449 174.851 448.364 174.981 448.253C175.115 448.139 175.211 448 175.27 447.833C175.331 447.664 175.362 447.467 175.362 447.243C175.362 447.008 175.328 446.81 175.26 446.647C175.195 446.484 175.094 446.351 174.957 446.247C174.824 446.142 174.653 446.068 174.444 446.022C174.239 445.973 173.995 445.949 173.712 445.949H172.931V448.59Z" fill="white"/>
<path d="M169 442.811H179V440.811H169V442.811ZM181 444.811V452.811H183V444.811H181ZM179 454.811H169V456.811H179V454.811ZM167 452.811V444.811H165V452.811H167ZM169 454.811C167.895 454.811 167 453.916 167 452.811H165C165 455.02 166.791 456.811 169 456.811V454.811ZM181 452.811C181 453.916 180.105 454.811 179 454.811V456.811C181.209 456.811 183 455.02 183 452.811H181ZM179 442.811C180.105 442.811 181 443.706 181 444.811H183C183 442.602 181.209 440.811 179 440.811V442.811ZM169 440.811C166.791 440.811 165 442.602 165 444.811H167C167 443.706 167.895 442.811 169 442.811V440.811Z" fill="white"/>
<circle cx="22.5" cy="472.811" r="1.5" fill="#E1E1E1" fill-opacity="0.5"/>
<path d="M32.2725 477.811H30.9941V468.938H28.1367V467.817H35.123V468.938H32.2725V477.811ZM41.1523 477.811V472.978C41.1523 472.386 41.0316 471.941 40.79 471.645C40.5531 471.349 40.1794 471.201 39.6689 471.201C39.2998 471.201 38.9899 471.26 38.7393 471.378C38.4886 471.497 38.2858 471.672 38.1309 471.905C37.9805 472.137 37.8711 472.422 37.8027 472.759C37.7389 473.097 37.707 473.484 37.707 473.921V477.811H36.4629V467.174H37.707V470.333L37.6523 471.317H37.7207C37.8346 471.121 37.9691 470.952 38.124 470.811C38.2835 470.665 38.4567 470.544 38.6436 470.449C38.8304 470.353 39.0286 470.282 39.2383 470.237C39.4479 470.191 39.6621 470.168 39.8809 470.168C40.7148 470.168 41.3415 470.387 41.7607 470.825C42.1846 471.258 42.3965 471.953 42.3965 472.91V477.811H41.1523ZM47.9541 470.168C48.0863 470.168 48.2344 470.175 48.3984 470.189C48.5625 470.198 48.7038 470.214 48.8223 470.237L48.6582 471.385C48.5306 471.362 48.3984 471.344 48.2617 471.331C48.1296 471.312 48.0042 471.303 47.8857 471.303C47.5986 471.303 47.3366 471.362 47.0996 471.481C46.8626 471.595 46.6576 471.761 46.4844 471.98C46.3158 472.194 46.1836 472.454 46.0879 472.759C45.9967 473.06 45.9512 473.395 45.9512 473.764V477.811H44.707V470.305H45.7188L45.8691 471.679H45.9238C46.0378 471.483 46.1585 471.294 46.2861 471.112C46.4183 470.93 46.5641 470.77 46.7236 470.633C46.8877 470.492 47.07 470.38 47.2705 470.298C47.471 470.212 47.6989 470.168 47.9541 470.168ZM51.543 477.811H50.2988V470.305H51.543V477.811ZM50.2031 468.275C50.2031 468.001 50.2715 467.803 50.4082 467.68C50.5495 467.557 50.7227 467.496 50.9277 467.496C51.028 467.496 51.1214 467.512 51.208 467.543C51.2992 467.571 51.3766 467.616 51.4404 467.68C51.5088 467.744 51.5612 467.826 51.5977 467.926C51.6387 468.022 51.6592 468.138 51.6592 468.275C51.6592 468.539 51.5863 468.737 51.4404 468.87C51.2992 468.997 51.1283 469.061 50.9277 469.061C50.7227 469.061 50.5495 468.997 50.4082 468.87C50.2715 468.742 50.2031 468.544 50.2031 468.275ZM55.166 477.811H53.9219V467.174H55.166V477.811ZM58.7891 477.811H57.5449V467.174H58.7891V477.811ZM64.1348 477.948C63.6335 477.948 63.1755 477.863 62.7607 477.695C62.346 477.526 61.9883 477.28 61.6875 476.957C61.3913 476.633 61.1611 476.232 60.9971 475.753C60.833 475.275 60.751 474.728 60.751 474.113C60.751 473.493 60.8262 472.939 60.9766 472.452C61.127 471.964 61.3389 471.552 61.6123 471.214C61.8857 470.873 62.2116 470.613 62.5898 470.435C62.9727 470.257 63.3942 470.168 63.8545 470.168C64.3057 470.168 64.7113 470.25 65.0713 470.415C65.4313 470.574 65.7367 470.802 65.9873 471.098C66.238 471.39 66.4294 471.743 66.5615 472.158C66.6982 472.568 66.7666 473.024 66.7666 473.525V474.297H62.0361C62.0589 475.177 62.2435 475.824 62.5898 476.239C62.9408 476.653 63.4603 476.861 64.1484 476.861C64.3809 476.861 64.5951 476.849 64.791 476.827C64.9915 476.804 65.1829 476.772 65.3652 476.731C65.5521 476.685 65.7321 476.631 65.9053 476.567C66.0785 476.499 66.2539 476.423 66.4316 476.341V477.449C66.2493 477.535 66.0693 477.611 65.8916 477.674C65.7184 477.738 65.5384 477.791 65.3516 477.832C65.1693 477.873 64.9779 477.902 64.7773 477.92C64.5814 477.939 64.3672 477.948 64.1348 477.948ZM63.8271 471.201C63.3076 471.201 62.8952 471.378 62.5898 471.734C62.2891 472.089 62.1136 472.607 62.0635 473.286H65.4268C65.4268 472.976 65.3949 472.693 65.3311 472.438C65.2718 472.178 65.1761 471.957 65.0439 471.775C64.9163 471.593 64.7523 471.451 64.5518 471.351C64.3512 471.251 64.1097 471.201 63.8271 471.201ZM71.9072 470.168C72.0394 470.168 72.1875 470.175 72.3516 470.189C72.5156 470.198 72.6569 470.214 72.7754 470.237L72.6113 471.385C72.4837 471.362 72.3516 471.344 72.2148 471.331C72.0827 471.312 71.9574 471.303 71.8389 471.303C71.5518 471.303 71.2897 471.362 71.0527 471.481C70.8158 471.595 70.6107 471.761 70.4375 471.98C70.2689 472.194 70.1367 472.454 70.041 472.759C69.9499 473.06 69.9043 473.395 69.9043 473.764V477.811H68.6602V470.305H69.6719L69.8223 471.679H69.877C69.9909 471.483 70.1117 471.294 70.2393 471.112C70.3714 470.93 70.5173 470.77 70.6768 470.633C70.8408 470.492 71.0231 470.38 71.2236 470.298C71.4242 470.212 71.652 470.168 71.9072 470.168Z" fill="white"/>
<g clip-path="url(#clip1)">
<circle cx="85.5" cy="472.811" r="1.5" fill="#E1E1E1" fill-opacity="0.5"/>
<path d="M97.624 475.138C97.624 475.58 97.5443 475.977 97.3848 476.328C97.2298 476.674 97.0065 476.968 96.7148 477.209C96.4232 477.451 96.0677 477.636 95.6484 477.763C95.2292 477.886 94.7575 477.948 94.2334 477.948C93.7275 477.948 93.2536 477.907 92.8115 477.825C92.374 477.747 92.0072 477.631 91.7109 477.476V476.259C91.8659 476.332 92.0413 476.405 92.2373 476.478C92.4378 476.546 92.6475 476.608 92.8662 476.663C93.085 476.717 93.3105 476.763 93.543 476.799C93.7754 476.831 94.0055 476.847 94.2334 476.847C94.9626 476.847 95.5003 476.71 95.8467 476.437C96.1976 476.164 96.373 475.772 96.373 475.261C96.373 475.015 96.3389 474.801 96.2705 474.619C96.2067 474.436 96.0905 474.27 95.9219 474.12C95.7578 473.965 95.5368 473.817 95.2588 473.675C94.9808 473.529 94.6299 473.372 94.2061 473.204C93.8005 473.044 93.4473 472.871 93.1465 472.684C92.8503 472.493 92.6042 472.278 92.4082 472.042C92.2168 471.805 92.0732 471.536 91.9775 471.235C91.8864 470.934 91.8408 470.592 91.8408 470.209C91.8408 469.808 91.9137 469.451 92.0596 469.136C92.2054 468.822 92.4105 468.557 92.6748 468.343C92.9391 468.125 93.2536 467.958 93.6182 467.844C93.9873 467.73 94.3929 467.673 94.835 467.673C95.3773 467.673 95.8649 467.726 96.2979 467.831C96.7308 467.931 97.1159 468.061 97.4531 468.22L96.9951 469.287C96.6989 469.154 96.3617 469.041 95.9834 468.945C95.6097 468.845 95.2223 468.794 94.8213 468.794C94.2653 468.794 93.8346 468.924 93.5293 469.184C93.224 469.439 93.0713 469.786 93.0713 470.223C93.0713 470.483 93.1055 470.708 93.1738 470.9C93.2422 471.087 93.3561 471.258 93.5156 471.413C93.6751 471.563 93.8848 471.707 94.1445 471.843C94.4089 471.975 94.7324 472.117 95.1152 472.267C95.5299 472.431 95.8923 472.6 96.2021 472.773C96.5166 472.946 96.7786 473.142 96.9883 473.361C97.1979 473.58 97.3551 473.833 97.46 474.12C97.5693 474.407 97.624 474.746 97.624 475.138ZM104.323 477.811L104.139 476.806H104.07C103.956 477.002 103.82 477.173 103.66 477.319C103.505 477.46 103.334 477.579 103.147 477.674C102.961 477.765 102.762 477.834 102.553 477.879C102.343 477.925 102.129 477.948 101.91 477.948C101.495 477.948 101.131 477.895 100.816 477.791C100.502 477.686 100.24 477.522 100.03 477.298C99.8206 477.075 99.6611 476.79 99.5518 476.444C99.4469 476.097 99.3945 475.685 99.3945 475.207V470.305H100.639V475.138C100.639 475.731 100.759 476.175 101.001 476.471C101.243 476.767 101.616 476.916 102.122 476.916C102.491 476.916 102.801 476.856 103.052 476.738C103.302 476.619 103.503 476.446 103.653 476.218C103.808 475.986 103.918 475.701 103.981 475.364C104.05 475.027 104.084 474.639 104.084 474.202V470.305H105.328V477.811H104.323ZM112.198 475.753C112.198 476.118 112.132 476.437 112 476.71C111.868 476.984 111.676 477.214 111.426 477.401C111.18 477.583 110.881 477.72 110.53 477.811C110.179 477.902 109.785 477.948 109.348 477.948C108.851 477.948 108.425 477.907 108.069 477.825C107.714 477.747 107.402 477.631 107.133 477.476V476.341C107.274 476.414 107.431 476.487 107.604 476.56C107.778 476.628 107.96 476.69 108.151 476.745C108.343 476.799 108.539 476.845 108.739 476.881C108.944 476.913 109.147 476.929 109.348 476.929C109.644 476.929 109.895 476.904 110.1 476.854C110.309 476.804 110.478 476.733 110.605 476.642C110.738 476.546 110.833 476.432 110.893 476.3C110.952 476.164 110.981 476.013 110.981 475.849C110.981 475.708 110.959 475.58 110.913 475.466C110.868 475.352 110.783 475.241 110.66 475.131C110.542 475.017 110.378 474.903 110.168 474.79C109.958 474.676 109.689 474.548 109.361 474.407C109.033 474.265 108.737 474.126 108.473 473.99C108.213 473.853 107.992 473.7 107.81 473.532C107.627 473.363 107.486 473.169 107.386 472.951C107.29 472.727 107.242 472.463 107.242 472.158C107.242 471.839 107.304 471.556 107.427 471.31C107.554 471.059 107.732 470.85 107.96 470.681C108.188 470.513 108.461 470.385 108.78 470.298C109.099 470.212 109.455 470.168 109.847 470.168C110.289 470.168 110.692 470.216 111.057 470.312C111.426 470.408 111.774 470.533 112.103 470.688L111.672 471.693C111.376 471.561 111.07 471.447 110.756 471.351C110.446 471.251 110.129 471.201 109.806 471.201C109.341 471.201 108.997 471.278 108.773 471.433C108.55 471.583 108.438 471.8 108.438 472.083C108.438 472.242 108.464 472.381 108.514 472.5C108.568 472.618 108.66 472.73 108.787 472.834C108.915 472.939 109.086 473.046 109.3 473.156C109.514 473.261 109.781 473.379 110.1 473.511C110.428 473.648 110.719 473.785 110.975 473.921C111.234 474.058 111.455 474.213 111.638 474.386C111.82 474.555 111.959 474.749 112.055 474.967C112.15 475.186 112.198 475.448 112.198 475.753ZM117.414 477.948C117.145 477.948 116.901 477.918 116.683 477.859C116.464 477.8 116.266 477.722 116.088 477.626C115.915 477.526 115.76 477.41 115.623 477.278C115.491 477.146 115.372 477.007 115.268 476.861H115.186C115.199 477.016 115.213 477.164 115.227 477.305C115.236 477.424 115.245 477.547 115.254 477.674C115.263 477.797 115.268 477.895 115.268 477.968V481.174H114.023V470.305H115.035L115.213 471.317H115.268C115.372 471.157 115.491 471.009 115.623 470.873C115.755 470.731 115.908 470.611 116.081 470.51C116.259 470.405 116.457 470.323 116.676 470.264C116.895 470.2 117.141 470.168 117.414 470.168C117.842 470.168 118.232 470.25 118.583 470.415C118.934 470.579 119.232 470.825 119.479 471.153C119.729 471.476 119.923 471.88 120.06 472.363C120.196 472.846 120.265 473.406 120.265 474.044C120.265 474.687 120.196 475.252 120.06 475.74C119.923 476.223 119.729 476.628 119.479 476.957C119.232 477.285 118.934 477.533 118.583 477.702C118.232 477.866 117.842 477.948 117.414 477.948ZM117.175 471.201C116.828 471.201 116.535 471.253 116.293 471.358C116.056 471.463 115.862 471.622 115.712 471.836C115.566 472.051 115.457 472.317 115.384 472.636C115.315 472.955 115.277 473.331 115.268 473.764V474.044C115.268 474.505 115.297 474.915 115.356 475.275C115.42 475.63 115.525 475.931 115.671 476.177C115.821 476.419 116.02 476.603 116.266 476.731C116.512 476.854 116.819 476.916 117.188 476.916C117.804 476.916 118.255 476.667 118.542 476.17C118.834 475.674 118.979 474.96 118.979 474.031C118.979 473.083 118.834 472.374 118.542 471.905C118.255 471.435 117.799 471.201 117.175 471.201ZM125.193 477.948C124.692 477.948 124.234 477.863 123.819 477.695C123.405 477.526 123.047 477.28 122.746 476.957C122.45 476.633 122.22 476.232 122.056 475.753C121.892 475.275 121.81 474.728 121.81 474.113C121.81 473.493 121.885 472.939 122.035 472.452C122.186 471.964 122.397 471.552 122.671 471.214C122.944 470.873 123.27 470.613 123.648 470.435C124.031 470.257 124.453 470.168 124.913 470.168C125.364 470.168 125.77 470.25 126.13 470.415C126.49 470.574 126.795 470.802 127.046 471.098C127.297 471.39 127.488 471.743 127.62 472.158C127.757 472.568 127.825 473.024 127.825 473.525V474.297H123.095C123.118 475.177 123.302 475.824 123.648 476.239C123.999 476.653 124.519 476.861 125.207 476.861C125.439 476.861 125.654 476.849 125.85 476.827C126.05 476.804 126.242 476.772 126.424 476.731C126.611 476.685 126.791 476.631 126.964 476.567C127.137 476.499 127.312 476.423 127.49 476.341V477.449C127.308 477.535 127.128 477.611 126.95 477.674C126.777 477.738 126.597 477.791 126.41 477.832C126.228 477.873 126.036 477.902 125.836 477.92C125.64 477.939 125.426 477.948 125.193 477.948ZM124.886 471.201C124.366 471.201 123.954 471.378 123.648 471.734C123.348 472.089 123.172 472.607 123.122 473.286H126.485C126.485 472.976 126.453 472.693 126.39 472.438C126.33 472.178 126.235 471.957 126.103 471.775C125.975 471.593 125.811 471.451 125.61 471.351C125.41 471.251 125.168 471.201 124.886 471.201ZM134.408 477.811V472.978C134.408 472.386 134.287 471.941 134.046 471.645C133.809 471.349 133.435 471.201 132.925 471.201C132.556 471.201 132.246 471.26 131.995 471.378C131.744 471.497 131.542 471.672 131.387 471.905C131.236 472.137 131.127 472.422 131.059 472.759C130.995 473.097 130.963 473.484 130.963 473.921V477.811H129.719V470.305H130.73L130.908 471.317H130.977C131.09 471.121 131.225 470.952 131.38 470.811C131.539 470.665 131.713 470.544 131.899 470.449C132.086 470.353 132.285 470.282 132.494 470.237C132.704 470.191 132.918 470.168 133.137 470.168C133.971 470.168 134.597 470.387 135.017 470.825C135.44 471.258 135.652 471.953 135.652 472.91V477.811H134.408ZM142.454 475.753C142.454 476.118 142.388 476.437 142.256 476.71C142.124 476.984 141.932 477.214 141.682 477.401C141.436 477.583 141.137 477.72 140.786 477.811C140.435 477.902 140.041 477.948 139.604 477.948C139.107 477.948 138.681 477.907 138.325 477.825C137.97 477.747 137.658 477.631 137.389 477.476V476.341C137.53 476.414 137.687 476.487 137.86 476.56C138.034 476.628 138.216 476.69 138.407 476.745C138.599 476.799 138.795 476.845 138.995 476.881C139.2 476.913 139.403 476.929 139.604 476.929C139.9 476.929 140.15 476.904 140.355 476.854C140.565 476.804 140.734 476.733 140.861 476.642C140.993 476.546 141.089 476.432 141.148 476.3C141.208 476.164 141.237 476.013 141.237 475.849C141.237 475.708 141.215 475.58 141.169 475.466C141.123 475.352 141.039 475.241 140.916 475.131C140.798 475.017 140.633 474.903 140.424 474.79C140.214 474.676 139.945 474.548 139.617 474.407C139.289 474.265 138.993 474.126 138.729 473.99C138.469 473.853 138.248 473.7 138.065 473.532C137.883 473.363 137.742 473.169 137.642 472.951C137.546 472.727 137.498 472.463 137.498 472.158C137.498 471.839 137.56 471.556 137.683 471.31C137.81 471.059 137.988 470.85 138.216 470.681C138.444 470.513 138.717 470.385 139.036 470.298C139.355 470.212 139.711 470.168 140.103 470.168C140.545 470.168 140.948 470.216 141.312 470.312C141.682 470.408 142.03 470.533 142.358 470.688L141.928 471.693C141.632 471.561 141.326 471.447 141.012 471.351C140.702 471.251 140.385 471.201 140.062 471.201C139.597 471.201 139.253 471.278 139.029 471.433C138.806 471.583 138.694 471.8 138.694 472.083C138.694 472.242 138.719 472.381 138.77 472.5C138.824 472.618 138.915 472.73 139.043 472.834C139.171 472.939 139.341 473.046 139.556 473.156C139.77 473.261 140.036 473.379 140.355 473.511C140.684 473.648 140.975 473.785 141.23 473.921C141.49 474.058 141.711 474.213 141.894 474.386C142.076 474.555 142.215 474.749 142.311 474.967C142.406 475.186 142.454 475.448 142.454 475.753ZM147.246 477.948C146.745 477.948 146.287 477.863 145.872 477.695C145.457 477.526 145.1 477.28 144.799 476.957C144.503 476.633 144.272 476.232 144.108 475.753C143.944 475.275 143.862 474.728 143.862 474.113C143.862 473.493 143.938 472.939 144.088 472.452C144.238 471.964 144.45 471.552 144.724 471.214C144.997 470.873 145.323 470.613 145.701 470.435C146.084 470.257 146.506 470.168 146.966 470.168C147.417 470.168 147.823 470.25 148.183 470.415C148.543 470.574 148.848 470.802 149.099 471.098C149.349 471.39 149.541 471.743 149.673 472.158C149.81 472.568 149.878 473.024 149.878 473.525V474.297H145.147C145.17 475.177 145.355 475.824 145.701 476.239C146.052 476.653 146.572 476.861 147.26 476.861C147.492 476.861 147.706 476.849 147.902 476.827C148.103 476.804 148.294 476.772 148.477 476.731C148.663 476.685 148.843 476.631 149.017 476.567C149.19 476.499 149.365 476.423 149.543 476.341V477.449C149.361 477.535 149.181 477.611 149.003 477.674C148.83 477.738 148.65 477.791 148.463 477.832C148.281 477.873 148.089 477.902 147.889 477.92C147.693 477.939 147.479 477.948 147.246 477.948ZM146.938 471.201C146.419 471.201 146.007 471.378 145.701 471.734C145.4 472.089 145.225 472.607 145.175 473.286H148.538C148.538 472.976 148.506 472.693 148.442 472.438C148.383 472.178 148.287 471.957 148.155 471.775C148.028 471.593 147.864 471.451 147.663 471.351C147.463 471.251 147.221 471.201 146.938 471.201Z" fill="white"/>
</g>
<path d="M297 341.75C301.537 341.75 305.25 345.463 305.25 350C305.25 354.537 301.537 358.25 297 358.25C292.463 358.25 288.75 354.537 288.75 350C288.75 345.463 292.463 341.75 297 341.75ZM297 340.375C291.706 340.375 287.375 344.706 287.375 350C287.375 355.294 291.706 359.625 297 359.625C302.294 359.625 306.625 355.294 306.625 350C306.625 344.706 302.294 340.375 297 340.375Z" fill="white"/>
<path d="M302.5 349.312H297.688V344.5H296.312V349.312H291.5V350.688H296.312V355.5H297.688V350.688H302.5V349.312Z" fill="white"/>
<path d="M299.267 376.276C298.605 375.608 297.916 375.026 297.198 374.532C296.481 374.037 295.809 373.666 295.182 373.419C294.556 373.172 293.981 373.053 293.459 373.063C292.936 373.073 292.529 373.228 292.236 373.529C292.167 373.596 292.108 373.671 292.059 373.755C292.01 373.838 291.975 373.903 291.954 373.95C291.934 373.997 291.906 374.081 291.871 374.201C291.836 374.321 291.812 374.398 291.798 374.432L287.912 386.703L288.152 386.944C287.88 387.124 287.638 387.335 287.426 387.576C287.214 387.816 287.027 388.013 286.867 388.167C286.707 388.321 286.515 388.428 286.292 388.488C286.244 388.501 286.183 388.547 286.11 388.623C286.037 388.7 286 388.769 286 388.829C286 388.949 286.063 389.049 286.188 389.13C286.313 389.21 286.453 389.25 286.606 389.25C286.801 389.25 286.989 389.175 287.17 389.024C287.351 388.874 287.534 388.682 287.718 388.448C287.903 388.214 288.037 388.06 288.121 387.987C288.302 387.833 288.504 387.686 288.726 387.546L288.998 387.796L301.346 383.776C301.617 383.696 301.826 383.575 301.972 383.415C302.265 383.114 302.416 382.698 302.427 382.167C302.437 381.635 302.321 381.05 302.077 380.412C301.833 379.774 301.469 379.092 300.985 378.367C300.501 377.642 299.928 376.945 299.267 376.276ZM298.139 377.369C299.204 378.412 300.014 379.409 300.567 380.362C301.121 381.314 301.255 381.941 300.97 382.242C300.684 382.543 300.061 382.432 299.1 381.911C298.139 381.39 297.129 380.611 296.07 379.575C294.998 378.532 294.185 377.536 293.631 376.587C293.077 375.638 292.943 375.01 293.229 374.702C293.514 374.401 294.139 374.512 295.104 375.033C296.069 375.554 297.08 376.333 298.139 377.369ZM295.851 381.52C296.359 381.954 296.864 382.335 297.366 382.663C297.373 382.676 297.547 382.99 297.888 383.605L297.01 383.896C296.593 383.141 296.206 382.349 295.851 381.52ZM292.289 376.928C292.442 377.256 292.654 377.653 292.926 378.121C293.149 379.084 293.499 380.126 293.976 381.249C294.453 382.372 294.973 383.425 295.538 384.407L294.67 384.688C294.016 383.525 293.445 382.307 292.957 381.034C292.47 379.76 292.17 378.636 292.059 377.66L292.289 376.928ZM291.077 380.598C291.564 382.095 292.25 383.632 293.135 385.21L292.278 385.5C291.589 384.23 291.046 383.037 290.649 381.921L291.077 380.598ZM289.876 384.257C290.147 384.872 290.436 385.457 290.743 386.012L289.886 386.302C289.789 386.122 289.649 385.844 289.468 385.47L289.876 384.257ZM297.554 370L298.076 371.514L296.728 372.456H298.389L298.901 373.97L299.413 372.456H301.064L299.726 371.514L300.249 370.01L298.901 370.942L297.554 370ZM294.629 370L294.347 371.374L295.778 371.644L296.06 370.271L294.629 370ZM304.041 374.131L305.19 372.978L306.684 373.68L305.911 372.276L307.07 371.143L305.43 371.414L304.657 370L304.427 371.584L302.787 371.855L304.281 372.547L304.041 374.131ZM303.654 376.597L305.044 377.479L304.605 379.023L305.9 378.021L307.279 378.903L306.705 377.399L308 376.417L306.339 376.487L305.754 374.993L305.326 376.527L303.654 376.597ZM303.059 372.877L299.946 375.324L300.332 375.775L303.445 373.329L303.059 372.877ZM304.145 377.61L301.711 377.399L301.649 377.981L304.093 378.191L304.145 377.61ZM304.386 380.417L303.936 381.761L305.326 382.192L305.785 380.858L304.386 380.417Z" fill="white"/>
<path d="M296.75 405.833C297.256 405.833 297.667 405.423 297.667 404.917C297.667 404.41 297.256 404 296.75 404C296.244 404 295.833 404.41 295.833 404.917C295.833 405.423 296.244 405.833 296.75 405.833Z" fill="white"/>
<path d="M299.347 413.411H297.819V407.056H295.528C295.325 407.056 295.131 407.139 294.988 407.288C294.844 407.437 294.764 407.639 294.764 407.85C294.764 408.061 294.844 408.263 294.988 408.412C295.131 408.561 295.325 408.644 295.528 408.644H296.292V413.411H294.764C294.561 413.411 294.367 413.495 294.224 413.644C294.08 413.793 294 413.995 294 414.206C294 414.416 294.08 414.618 294.224 414.767C294.367 414.916 294.561 415 294.764 415H299.347C299.55 415 299.744 414.916 299.887 414.767C300.031 414.618 300.111 414.416 300.111 414.206C300.111 413.995 300.031 413.793 299.887 413.644C299.744 413.495 299.55 413.411 299.347 413.411Z" fill="white"/>
<path d="M296.625 400C294.721 400 292.86 400.564 291.278 401.622C289.695 402.68 288.461 404.183 287.733 405.942C287.004 407.7 286.814 409.636 287.185 411.503C287.556 413.37 288.473 415.085 289.819 416.431C291.165 417.777 292.88 418.694 294.747 419.065C296.614 419.436 298.55 419.246 300.308 418.517C302.067 417.789 303.57 416.555 304.628 414.972C305.686 413.39 306.25 411.529 306.25 409.625C306.25 407.072 305.236 404.624 303.431 402.819C301.626 401.014 299.178 400 296.625 400V400ZM296.625 417.646C295.039 417.646 293.488 417.175 292.169 416.294C290.85 415.413 289.822 414.16 289.215 412.694C288.608 411.229 288.449 409.616 288.758 408.06C289.068 406.504 289.832 405.075 290.953 403.953C292.075 402.832 293.504 402.068 295.06 401.758C296.616 401.449 298.229 401.608 299.694 402.215C301.16 402.822 302.413 403.85 303.294 405.169C304.175 406.488 304.646 408.039 304.646 409.625C304.646 410.678 304.438 411.721 304.035 412.694C303.632 413.668 303.041 414.552 302.297 415.297C301.552 416.041 300.668 416.632 299.694 417.035C298.721 417.438 297.678 417.646 296.625 417.646V417.646Z" fill="white"/>
<path d="M301.813 442.75C301.298 442.752 300.791 442.87 300.328 443.095C299.865 443.32 299.459 443.646 299.139 444.049L294.113 440.907C294.296 440.316 294.296 439.683 294.113 439.092L299.139 435.95C299.649 436.582 300.366 437.013 301.163 437.166C301.96 437.32 302.786 437.186 303.494 436.789C304.202 436.392 304.747 435.757 305.032 434.997C305.317 434.236 305.323 433.4 305.05 432.635C304.777 431.871 304.243 431.227 303.541 430.819C302.839 430.411 302.015 430.264 301.216 430.405C300.416 430.546 299.692 430.966 299.173 431.589C298.653 432.213 298.37 433 298.375 433.812C298.379 434.12 298.425 434.425 298.513 434.72L293.487 437.862C293.044 437.303 292.437 436.896 291.752 436.698C291.067 436.5 290.337 436.519 289.663 436.754C288.99 436.989 288.406 437.428 287.993 438.009C287.58 438.591 287.358 439.286 287.358 440C287.358 440.713 287.58 441.409 287.993 441.99C288.406 442.572 288.99 443.011 289.663 443.245C290.337 443.48 291.067 443.5 291.752 443.302C292.437 443.103 293.044 442.696 293.487 442.138L298.513 445.28C298.425 445.574 298.379 445.88 298.375 446.187C298.375 446.867 298.577 447.532 298.955 448.097C299.332 448.662 299.869 449.103 300.497 449.363C301.126 449.623 301.817 449.691 302.484 449.559C303.15 449.426 303.763 449.099 304.244 448.618C304.724 448.137 305.052 447.525 305.184 446.858C305.317 446.191 305.249 445.5 304.989 444.872C304.729 444.244 304.288 443.707 303.723 443.329C303.157 442.951 302.493 442.75 301.813 442.75V442.75ZM301.813 431.75C302.221 431.75 302.62 431.871 302.959 432.097C303.298 432.324 303.562 432.646 303.718 433.023C303.875 433.4 303.915 433.815 303.836 434.215C303.756 434.615 303.56 434.982 303.271 435.271C302.983 435.559 302.615 435.756 302.215 435.835C301.815 435.915 301.4 435.874 301.024 435.718C300.647 435.562 300.325 435.297 300.098 434.958C299.871 434.619 299.75 434.22 299.75 433.812C299.75 433.265 299.968 432.741 300.354 432.354C300.741 431.967 301.266 431.75 301.813 431.75V431.75ZM290.813 442.062C290.405 442.062 290.006 441.941 289.667 441.715C289.328 441.488 289.064 441.166 288.907 440.789C288.751 440.412 288.71 439.997 288.79 439.597C288.87 439.197 289.066 438.83 289.354 438.541C289.643 438.253 290.01 438.056 290.411 437.977C290.811 437.897 291.225 437.938 291.602 438.094C291.979 438.25 292.301 438.515 292.528 438.854C292.754 439.193 292.875 439.592 292.875 440C292.875 440.547 292.658 441.071 292.271 441.458C291.885 441.845 291.36 442.062 290.813 442.062ZM301.813 448.25C301.405 448.25 301.006 448.129 300.667 447.902C300.328 447.676 300.064 447.353 299.907 446.977C299.751 446.6 299.71 446.185 299.79 445.785C299.87 445.385 300.066 445.017 300.354 444.729C300.643 444.44 301.01 444.244 301.411 444.164C301.811 444.085 302.225 444.126 302.602 444.282C302.979 444.438 303.301 444.702 303.528 445.041C303.754 445.381 303.875 445.779 303.875 446.187C303.875 446.734 303.658 447.259 303.271 447.646C302.885 448.032 302.36 448.25 301.813 448.25V448.25Z" fill="white"/>
<path d="M303.416 460.833H291.747C291.103 460.834 290.481 461.059 289.986 461.471C289.492 461.883 289.158 462.455 289.043 463.088L287.878 469.505C287.806 469.901 287.821 470.309 287.924 470.699C288.026 471.088 288.213 471.451 288.471 471.76C288.729 472.07 289.052 472.319 289.417 472.49C289.782 472.661 290.18 472.75 290.583 472.75H294.763L294.249 474.061C294.036 474.635 293.965 475.252 294.042 475.859C294.119 476.467 294.343 477.046 294.694 477.549C295.044 478.051 295.511 478.46 296.055 478.742C296.599 479.024 297.203 479.169 297.815 479.167C297.991 479.166 298.164 479.115 298.312 479.019C298.46 478.923 298.577 478.787 298.649 478.626L301.262 472.75H303.416C304.145 472.75 304.845 472.46 305.36 471.945C305.876 471.429 306.166 470.729 306.166 470V463.583C306.166 462.854 305.876 462.154 305.36 461.639C304.845 461.123 304.145 460.833 303.416 460.833ZM299.749 471.641L297.256 477.251C297.001 477.174 296.764 477.045 296.561 476.873C296.357 476.701 296.191 476.489 296.072 476.25C295.954 476.011 295.886 475.751 295.872 475.485C295.858 475.219 295.898 474.952 295.991 474.702L296.477 473.392C296.58 473.115 296.615 472.817 296.579 472.523C296.542 472.23 296.435 471.949 296.267 471.706C296.098 471.463 295.873 471.264 295.611 471.127C295.35 470.989 295.058 470.917 294.763 470.917H290.583C290.448 470.917 290.315 470.887 290.193 470.83C290.071 470.773 289.963 470.69 289.877 470.587C289.788 470.485 289.724 470.364 289.687 470.234C289.651 470.104 289.644 469.968 289.666 469.835L290.83 463.418C290.869 463.205 290.983 463.012 291.151 462.874C291.318 462.737 291.53 462.663 291.747 462.667H299.749V471.641ZM304.333 470C304.333 470.243 304.236 470.476 304.064 470.648C303.892 470.82 303.659 470.917 303.416 470.917H301.583V462.667H303.416C303.659 462.667 303.892 462.763 304.064 462.935C304.236 463.107 304.333 463.34 304.333 463.583V470Z" fill="white"/>
<path d="M163 226C167.747 226 172.387 227.408 176.334 230.045C180.28 232.682 183.357 236.43 185.173 240.816C186.99 245.201 187.465 250.027 186.539 254.682C185.613 259.338 183.327 263.614 179.971 266.971C176.614 270.327 172.338 272.613 167.682 273.539C163.027 274.465 158.201 273.99 153.816 272.173C149.43 270.357 145.682 267.28 143.045 263.334C140.408 259.387 139 254.747 139 250C139 243.635 141.529 237.53 146.029 233.029C150.53 228.529 156.635 226 163 226V226ZM163 222C157.462 222 152.049 223.642 147.444 226.719C142.839 229.796 139.251 234.169 137.131 239.285C135.012 244.401 134.458 250.031 135.538 255.463C136.618 260.894 139.285 265.883 143.201 269.799C147.117 273.715 152.106 276.382 157.537 277.462C162.969 278.542 168.599 277.988 173.715 275.869C178.831 273.749 183.204 270.161 186.281 265.556C189.358 260.951 191 255.538 191 250C191 242.574 188.05 235.452 182.799 230.201C177.548 224.95 170.426 222 163 222V222Z" fill="white" fill-opacity="0.6"/>
<path d="M155 264C154.641 264 154.289 263.903 153.98 263.72C153.681 263.543 153.434 263.291 153.262 262.99C153.09 262.688 153 262.347 153 262V238C153 237.653 153.09 237.312 153.262 237.01C153.434 236.709 153.681 236.457 153.98 236.28C154.284 236.104 154.629 236.012 154.98 236.012C155.331 236.012 155.676 236.104 155.98 236.28L177.98 248.28C178.298 248.451 178.563 248.705 178.748 249.015C178.932 249.325 179.03 249.679 179.03 250.04C179.03 250.401 178.932 250.755 178.748 251.065C178.563 251.375 178.298 251.629 177.98 251.8L155.98 263.8C155.676 263.949 155.338 264.017 155 264V264ZM157 241.36V258.64L172.82 250L157 241.36Z" fill="white" fill-opacity="0.6"/>
</g>
<defs>
<filter id="filter0_b" x="-7" y="-7" width="340" height="514" filterUnits="userSpaceOnUse" color-interpolation-filters="sRGB">
<feFlood flood-opacity="0" result="BackgroundImageFix"/>
<feGaussianBlur in="BackgroundImage" stdDeviation="3.5"/>
<feComposite in2="SourceAlpha" operator="in" result="effect1_backgroundBlur"/>
<feBlend mode="normal" in="SourceGraphic" in2="effect1_backgroundBlur" result="shape"/>
</filter>
<linearGradient id="paint0_linear" x1="24.3621" y1="148" x2="263.98" y2="150.08" gradientUnits="userSpaceOnUse">
<stop stop-opacity="0"/>
<stop stop-opacity="0"/>
<stop offset="1"/>
</linearGradient>
<clipPath id="clip0">
<rect width="60.0157" height="15.1496" fill="white" transform="translate(27.9922 361.331)"/>
</clipPath>
<clipPath id="clip1">
<rect width="67" height="16" fill="white" transform="translate(84 464.811)"/>
</clipPath>
</defs>
</svg>
