<svg width="326" height="200" viewBox="0 0 326 200" fill="none" xmlns="http://www.w3.org/2000/svg">
<rect width="106" height="90" transform="translate(236 106) rotate(-90)" fill="url(#paint0_linear)"/>
<path d="M299.822 21.6639C300.814 21.4569 303.507 21.1317 304.262 21.7526C304.706 22.1178 304.262 24.0585 303.285 26.4088C303.241 26.5861 303.25 26.8966 303.641 26.7192C304.129 26.4975 306.127 23.9255 305.994 20.7326C305.905 20.3779 305.579 20.2659 305.505 20.2449C304.262 19.8901 301.732 19.7127 299.689 21.2204C299.547 21.5042 299.719 21.6343 299.822 21.6639Z" fill="white"/>
<path d="M272.03 20.8213C271.971 20.6735 271.959 20.3779 272.385 20.3779C277.624 23.5707 288.501 28.5373 302.486 22.4177C303.285 22.2404 303.378 23.0726 302.93 23.3933C291.165 31.8188 277.668 27.1183 272.03 20.8213Z" fill="white"/>
<path d="M277.019 35.3669C277.019 35.917 276.952 36.4183 276.818 36.8708C276.688 37.3233 276.493 37.7106 276.232 38.0329C275.972 38.3552 275.648 38.6042 275.261 38.78C274.877 38.9557 274.432 39.0436 273.928 39.0436C273.397 39.0436 272.937 38.9557 272.546 38.78C272.159 38.6042 271.836 38.3552 271.579 38.0329C271.325 37.7106 271.136 37.3233 271.013 36.8708C270.889 36.4151 270.827 35.9105 270.827 35.3571C270.827 34.8037 270.889 34.3024 271.013 33.8532C271.136 33.4007 271.327 33.015 271.584 32.696C271.841 32.377 272.165 32.1312 272.556 31.9587C272.946 31.7829 273.407 31.695 273.938 31.695C274.442 31.695 274.885 31.7829 275.266 31.9587C275.65 32.1312 275.972 32.3786 276.232 32.7009C276.493 33.0199 276.688 33.4056 276.818 33.8581C276.952 34.3073 277.019 34.8102 277.019 35.3669ZM271.789 35.3669C271.789 35.8128 271.831 36.2149 271.916 36.5729C272.001 36.9278 272.129 37.2305 272.302 37.4811C272.478 37.7285 272.699 37.919 272.966 38.0524C273.236 38.1826 273.557 38.2477 273.928 38.2477C274.299 38.2477 274.618 38.1826 274.885 38.0524C275.155 37.919 275.376 37.7285 275.549 37.4811C275.725 37.2305 275.853 36.9278 275.935 36.5729C276.016 36.2149 276.057 35.8128 276.057 35.3669C276.057 34.9177 276.016 34.5156 275.935 34.1608C275.853 33.806 275.726 33.5065 275.554 33.2624C275.381 33.015 275.161 32.8262 274.895 32.696C274.628 32.5625 274.309 32.4958 273.938 32.4958C273.566 32.4958 273.246 32.5625 272.976 32.696C272.705 32.8262 272.482 33.015 272.307 33.2624C272.131 33.5065 272.001 33.806 271.916 34.1608C271.831 34.5156 271.789 34.9177 271.789 35.3669ZM280.808 33.487C280.902 33.487 281.008 33.4919 281.125 33.5016C281.242 33.5082 281.343 33.5196 281.428 33.5358L281.311 34.3561C281.219 34.3399 281.125 34.3268 281.027 34.3171C280.933 34.3041 280.843 34.2975 280.759 34.2975C280.554 34.2975 280.367 34.3399 280.197 34.4245C280.028 34.5059 279.882 34.6247 279.758 34.7809C279.637 34.9339 279.543 35.1195 279.475 35.3376C279.41 35.5524 279.377 35.7917 279.377 36.0554V38.946H278.488V33.5847H279.211L279.318 34.5661H279.357C279.439 34.4261 279.525 34.291 279.616 34.1608C279.711 34.0306 279.815 33.9167 279.929 33.819C280.046 33.7181 280.176 33.6384 280.319 33.5798C280.463 33.5179 280.625 33.487 280.808 33.487ZM283.371 38.946H282.482V33.5847H283.371V38.946ZM282.414 32.1345C282.414 31.9391 282.463 31.7975 282.561 31.7097C282.661 31.6218 282.785 31.5778 282.932 31.5778C283.003 31.5778 283.07 31.5892 283.132 31.612C283.197 31.6315 283.252 31.6641 283.298 31.7097C283.347 31.7552 283.384 31.8138 283.41 31.8854C283.439 31.9538 283.454 32.0368 283.454 32.1345C283.454 32.3233 283.402 32.4649 283.298 32.5593C283.197 32.6504 283.075 32.696 282.932 32.696C282.785 32.696 282.661 32.6504 282.561 32.5593C282.463 32.4681 282.414 32.3265 282.414 32.1345ZM289.201 33.5847V34.1364L288.239 34.2682C288.33 34.3822 288.407 34.5287 288.469 34.7077C288.531 34.8835 288.562 35.0837 288.562 35.3083C288.562 35.5557 288.522 35.7852 288.444 35.9968C288.369 36.2051 288.254 36.3858 288.098 36.5388C287.945 36.6918 287.754 36.8122 287.526 36.9001C287.299 36.9847 287.033 37.027 286.73 37.027C286.659 37.027 286.587 37.027 286.516 37.027C286.444 37.0238 286.385 37.0173 286.34 37.0075C286.285 37.0401 286.229 37.0775 286.174 37.1198C286.122 37.1589 286.073 37.2044 286.027 37.2565C285.985 37.3086 285.949 37.3672 285.92 37.4323C285.894 37.4974 285.881 37.569 285.881 37.6472C285.881 37.735 285.9 37.8067 285.939 37.862C285.979 37.9141 286.031 37.9548 286.096 37.9841C286.164 38.0134 286.244 38.0329 286.335 38.0427C286.426 38.0524 286.522 38.0573 286.623 38.0573H287.482C287.785 38.0573 288.041 38.0964 288.249 38.1745C288.457 38.2494 288.627 38.3519 288.757 38.4821C288.89 38.6123 288.986 38.7669 289.045 38.946C289.104 39.1218 289.133 39.3089 289.133 39.5075C289.133 39.794 289.079 40.0511 288.972 40.279C288.868 40.5069 288.706 40.6989 288.488 40.8552C288.27 41.0147 287.993 41.1367 287.658 41.2214C287.326 41.306 286.934 41.3483 286.481 41.3483C286.133 41.3483 285.829 41.3141 285.568 41.2458C285.308 41.1774 285.091 41.0781 284.919 40.9479C284.746 40.8177 284.616 40.6599 284.528 40.4743C284.444 40.292 284.401 40.0853 284.401 39.8542C284.401 39.6589 284.432 39.4863 284.494 39.3366C284.559 39.1901 284.646 39.0632 284.753 38.9557C284.86 38.8483 284.984 38.7604 285.124 38.6921C285.267 38.6237 285.415 38.5716 285.568 38.5358C285.432 38.474 285.319 38.3763 285.231 38.2429C285.144 38.1094 285.1 37.9564 285.1 37.7839C285.1 37.5853 285.152 37.4144 285.256 37.2712C285.36 37.1247 285.524 36.9831 285.749 36.8464C285.609 36.7878 285.48 36.708 285.363 36.6071C285.249 36.503 285.152 36.3858 285.07 36.2556C284.992 36.1221 284.93 35.9772 284.885 35.821C284.842 35.6647 284.821 35.5036 284.821 35.3376C284.821 35.0479 284.862 34.7891 284.943 34.5612C285.025 34.3334 285.145 34.1397 285.305 33.9802C285.464 33.8207 285.663 33.6986 285.9 33.614C286.138 33.5293 286.415 33.487 286.73 33.487C286.851 33.487 286.975 33.4968 287.102 33.5163C287.232 33.5326 287.341 33.5554 287.429 33.5847H289.201ZM285.241 39.8249C285.241 39.9453 285.262 40.0576 285.305 40.1618C285.347 40.266 285.415 40.3555 285.51 40.4304C285.607 40.5052 285.734 40.5638 285.891 40.6061C286.05 40.6517 286.247 40.6745 286.481 40.6745C287.087 40.6745 287.539 40.5801 287.839 40.3913C288.142 40.2057 288.293 39.9372 288.293 39.5856C288.293 39.4359 288.273 39.3138 288.234 39.2194C288.195 39.125 288.13 39.0502 288.039 38.9948C287.951 38.9427 287.834 38.9069 287.688 38.8874C287.541 38.8679 287.362 38.8581 287.15 38.8581H286.291C286.177 38.8581 286.058 38.8711 285.935 38.8972C285.811 38.9232 285.697 38.972 285.593 39.0436C285.492 39.1153 285.407 39.2129 285.339 39.3366C285.274 39.4636 285.241 39.6263 285.241 39.8249ZM285.69 35.3083C285.69 35.6826 285.778 35.961 285.954 36.1432C286.13 36.3255 286.379 36.4167 286.701 36.4167C287.027 36.4167 287.272 36.3272 287.438 36.1481C287.608 35.9658 287.692 35.681 287.692 35.2936C287.692 34.8932 287.606 34.5987 287.434 34.4099C287.264 34.221 287.017 34.1266 286.691 34.1266C286.369 34.1266 286.122 34.2243 285.949 34.4196C285.777 34.6149 285.69 34.9112 285.69 35.3083ZM291.145 38.946H290.256V33.5847H291.145V38.946ZM290.188 32.1345C290.188 31.9391 290.236 31.7975 290.334 31.7097C290.435 31.6218 290.559 31.5778 290.705 31.5778C290.777 31.5778 290.843 31.5892 290.905 31.612C290.97 31.6315 291.026 31.6641 291.071 31.7097C291.12 31.7552 291.158 31.8138 291.184 31.8854C291.213 31.9538 291.228 32.0368 291.228 32.1345C291.228 32.3233 291.175 32.4649 291.071 32.5593C290.97 32.6504 290.848 32.696 290.705 32.696C290.559 32.696 290.435 32.6504 290.334 32.5593C290.236 32.4681 290.188 32.3265 290.188 32.1345ZM296.193 38.946V35.4938C296.193 35.0707 296.107 34.7533 295.935 34.5417C295.765 34.3301 295.498 34.2243 295.134 34.2243C294.87 34.2243 294.649 34.2666 294.47 34.3513C294.291 34.4359 294.146 34.5612 294.035 34.7272C293.928 34.8932 293.85 35.0967 293.801 35.3376C293.755 35.5785 293.732 35.8552 293.732 36.1677V38.946H292.844V33.5847H293.566L293.693 34.3073H293.742C293.824 34.1673 293.92 34.0469 294.03 33.946C294.144 33.8418 294.268 33.7556 294.401 33.6872C294.535 33.6188 294.676 33.5684 294.826 33.5358C294.976 33.5033 295.129 33.487 295.285 33.487C295.881 33.487 296.328 33.6432 296.628 33.9557C296.931 34.265 297.082 34.7614 297.082 35.445V38.946H296.193ZM301.755 38.946L301.574 38.2038H301.535C301.428 38.3503 301.32 38.4772 301.213 38.5847C301.105 38.6888 300.988 38.7751 300.861 38.8434C300.734 38.9118 300.593 38.9623 300.437 38.9948C300.28 39.0274 300.1 39.0436 299.895 39.0436C299.67 39.0436 299.463 39.0111 299.274 38.946C299.086 38.8841 298.921 38.7881 298.781 38.6579C298.645 38.5244 298.537 38.3584 298.459 38.1599C298.381 37.958 298.342 37.7204 298.342 37.447C298.342 36.9131 298.529 36.503 298.903 36.2165C299.281 35.93 299.854 35.7738 300.622 35.7477L301.521 35.7136V35.3766C301.521 35.1585 301.496 34.9763 301.447 34.8298C301.402 34.6833 301.333 34.5661 301.242 34.4782C301.154 34.3871 301.044 34.322 300.91 34.2829C300.78 34.2438 300.63 34.2243 300.461 34.2243C300.191 34.2243 299.938 34.2634 299.704 34.3415C299.473 34.4196 299.25 34.514 299.035 34.6247L298.723 33.9557C298.964 33.8255 299.232 33.7149 299.528 33.6237C299.825 33.5326 300.135 33.487 300.461 33.487C300.793 33.487 301.079 33.5212 301.32 33.5895C301.564 33.6546 301.765 33.7604 301.921 33.9069C302.08 34.0502 302.199 34.2341 302.277 34.4587C302.355 34.6833 302.395 34.9551 302.395 35.2741V38.946L301.755 38.946ZM300.124 38.3259C300.323 38.3259 300.507 38.2949 300.676 38.2331C300.845 38.1712 300.992 38.0785 301.115 37.9548C301.239 37.8278 301.335 37.6699 301.403 37.4811C301.475 37.2891 301.511 37.0645 301.511 36.8073V36.3239L300.812 36.3581C300.52 36.3711 300.274 36.4037 300.075 36.4557C299.877 36.5078 299.717 36.5811 299.597 36.6755C299.479 36.7666 299.395 36.8789 299.343 37.0124C299.291 37.1426 299.265 37.2907 299.265 37.4567C299.265 37.7562 299.343 37.9759 299.499 38.1159C299.659 38.2559 299.867 38.3259 300.124 38.3259ZM304.934 38.946H304.045V31.3483H304.934V38.946Z" fill="white"/>
<path d="M20 31C20 24.9249 24.9249 20 31 20H53C59.0751 20 64 24.9249 64 31V31C64 37.0751 59.0751 42 53 42H31C24.9249 42 20 37.0751 20 31V31Z" fill="white" fill-opacity="0.8"/>
<path fill-rule="evenodd" clip-rule="evenodd" d="M27 27.7191V36H28.3736C28.4165 36 28.5195 35.9753 28.5882 35.8764V33.2397C30.1335 34.3109 32.8807 33.7753 32.8807 30.5206C32.8807 27.5131 30.2193 26.8127 28.4165 28.2135C28.4022 28.0762 28.3221 27.785 28.116 27.7191H27ZM30.6915 29.1199C29.9704 28.4936 28.9888 28.8589 28.5882 29.1199V32.0861C29.6871 32.8112 30.4483 32.3883 30.6915 32.0861C31.0006 31.9543 31.0778 30.9875 31.0778 30.5206C31.1122 29.7955 30.8346 29.2846 30.6915 29.1199Z" fill="#00A8E1"/>
<path d="M34.0396 33.4457V27.8839C34.0396 27.829 34.074 27.7109 34.2113 27.6779H35.2844C35.3417 27.6367 35.499 27.7356 35.6707 28.4607C35.6851 28.5019 35.7308 28.5678 35.7995 28.5019C35.8854 28.4195 36.7009 27.5543 37.5594 27.6367C37.9028 27.6367 37.9887 27.774 37.9887 27.8427V28.9963C37.9744 29.0649 37.9114 29.2022 37.774 29.2022C36.5722 29.1363 35.9569 29.3396 35.7995 29.4494V33.4457C35.7995 33.4869 35.7738 33.5775 35.6707 33.6105H34.1684C34.1255 33.6105 34.0396 33.5775 34.0396 33.4457Z" fill="#00A8E1"/>
<path d="M39.0189 27.6779H40.3066C40.3781 27.6916 40.5212 27.7521 40.5212 27.8839V33.4457C40.5069 33.4869 40.4525 33.5775 40.3495 33.6105H38.9759C38.9187 33.5968 38.7956 33.5446 38.7613 33.4457L38.8042 27.8839C38.8042 27.829 38.8472 27.7109 39.0189 27.6779Z" fill="#00A8E1"/>
<path d="M39.3622 26.7303C39.491 26.7441 39.7915 26.7633 39.9632 26.7303C40.1349 26.6974 40.3209 26.5793 40.3924 26.5243C40.5641 26.3596 40.65 26.1124 40.65 25.8652C40.65 25.5356 40.5641 25.412 40.4354 25.2472C40.3495 25.1785 40.1778 25 39.9632 25H39.3622C39.2049 25.0412 38.8643 25.1483 38.7613 25.412C38.6583 25.6757 38.6755 25.7553 38.6755 25.9064C38.6755 26.0574 38.7579 26.3563 38.933 26.5243C39.1081 26.6924 39.2907 26.7166 39.3622 26.7303Z" fill="#00A8E1"/>
<path d="M43.6547 28.2547C43.6118 28.0899 43.4916 27.7521 43.3542 27.7191C43.2169 27.6861 42.5244 27.7054 42.1953 27.7191C42.138 27.7191 42.0236 27.7521 42.0236 27.8839V33.4457C42.0379 33.4869 42.0922 33.5775 42.1953 33.6105C42.2983 33.6434 43.1539 33.6242 43.5688 33.6105C43.6261 33.5968 43.7577 33.5446 43.8264 33.4457L43.7835 29.161C44.0267 29.0237 44.6248 28.7655 45.0712 28.8315C45.6292 28.8727 45.8009 29.1336 45.8438 29.2846L45.8868 33.4457C45.9011 33.5006 45.9554 33.6105 46.0585 33.6105H47.475C47.5179 33.5968 47.6123 33.5446 47.6467 33.4457V29.161C47.847 29.01 48.3764 28.7243 48.8915 28.7903C49.4066 28.8562 49.6212 29.1748 49.6641 29.3258V33.3633C49.6641 33.432 49.6985 33.5775 49.8358 33.6105H51.3382C51.3811 33.583 51.467 33.4951 51.467 33.3633V29.0787C51.4383 28.5705 51.0549 27.5461 49.75 27.5131C48.4451 27.4801 47.661 27.9938 47.4321 28.2547C47.2747 28.0075 46.7453 27.5131 45.8868 27.5131C45.0283 27.5131 44.041 28.0075 43.6547 28.2547Z" fill="#00A8E1"/>
<path fill-rule="evenodd" clip-rule="evenodd" d="M54.1283 31.0974C54.071 31.8252 54.6605 33.0831 57.4764 32.2921C57.6481 32.2262 57.691 32.4569 57.691 32.5805V33.1985C57.5336 33.4045 56.9098 33.8165 55.6735 33.8165C53.2698 33.8165 52.583 32.2235 52.5401 31.427C52.3827 30.7678 52.3598 29.194 53.5273 28.1723C55.1756 26.9858 56.8182 27.6779 57.4335 28.1723C57.8198 28.5156 58.395 29.4494 57.6052 30.4382C56.8153 31.427 54.9581 31.2896 54.1283 31.0974ZM55.4589 28.7079C54.3944 28.7079 54.1283 29.6417 54.1283 30.1086C54.4574 30.1498 55.21 30.224 55.5877 30.191C55.9654 30.1581 56.203 29.9301 56.2745 29.8202C56.4462 29.4494 56.5235 28.7079 55.4589 28.7079Z" fill="#00A8E1"/>
<path fill-rule="evenodd" clip-rule="evenodd" d="M27 27.7191V36H28.3736C28.4165 36 28.5195 35.9753 28.5882 35.8764V33.2397C30.1335 34.3109 32.8807 33.7753 32.8807 30.5206C32.8807 27.5131 30.2193 26.8127 28.4165 28.2135C28.4022 28.0762 28.3221 27.785 28.116 27.7191H27ZM30.6915 29.1199C29.9704 28.4936 28.9888 28.8589 28.5882 29.1199V32.0861C29.6871 32.8112 30.4483 32.3883 30.6915 32.0861C31.0006 31.9543 31.0778 30.9875 31.0778 30.5206C31.1122 29.7955 30.8346 29.2846 30.6915 29.1199Z" fill="#00A8E1"/>
<g clip-path="url(#clip0)">
<rect width="179" height="326" transform="translate(326 21) rotate(90)" fill="url(#paint1_linear)"/>
<path d="M21.4648 153V139.035H24.1504L28.8867 149.631L33.5254 139.035H36.1133V153H33.7207V143.273L29.9316 153H27.7246L23.8574 143.273V153H21.4648ZM38.7988 153V142.746H40.8008L41.123 144.055C42.0215 143.182 42.972 142.746 43.9746 142.746V144.836C43.0111 144.836 42.1484 145.236 41.3867 146.037V153H38.7988ZM47.7832 150.607V153H45.1953V150.607H47.7832ZM50.2344 152.98V139.035H56.582C59.4336 139.035 60.8594 140.282 60.8594 142.775C60.8594 144.462 59.7493 145.858 57.5293 146.965L61.9531 153H58.6914L54.4434 146.916V145.734C56.9173 145.311 58.1543 144.351 58.1543 142.854C58.1543 141.825 57.5749 141.311 56.416 141.311H52.8711V152.98H50.2344ZM65.0391 147.834C65.0391 149.976 65.8691 151.047 67.5293 151.047C69.1895 151.047 70.0195 149.976 70.0195 147.834C70.0195 145.744 69.1895 144.699 67.5293 144.699C65.8691 144.699 65.0391 145.744 65.0391 147.834ZM62.4512 147.873C62.4512 144.436 64.1439 142.717 67.5293 142.717C70.9147 142.717 72.6074 144.436 72.6074 147.873C72.6074 151.304 70.9147 153.02 67.5293 153.02C64.1569 153.02 62.4642 151.304 62.4512 147.873ZM77.1484 150.627C77.7409 150.816 78.4277 150.91 79.209 150.91C80.7715 150.91 81.5527 149.807 81.5527 147.6C81.5527 145.796 80.8789 144.895 79.5312 144.895C78.6589 144.895 77.8646 145.07 77.1484 145.422V150.627ZM74.5605 139.035H77.1484V143.527C77.9232 143.007 78.7858 142.746 79.7363 142.746C82.653 142.746 84.1113 144.387 84.1113 147.668C84.1113 151.223 82.4414 153 79.1016 153C77.6953 153 76.1816 152.86 74.5605 152.58V139.035ZM88.1641 147.834C88.1641 149.976 88.9941 151.047 90.6543 151.047C92.3145 151.047 93.1445 149.976 93.1445 147.834C93.1445 145.744 92.3145 144.699 90.6543 144.699C88.9941 144.699 88.1641 145.744 88.1641 147.834ZM85.5762 147.873C85.5762 144.436 87.2689 142.717 90.6543 142.717C94.0397 142.717 95.7324 144.436 95.7324 147.873C95.7324 151.304 94.0397 153.02 90.6543 153.02C87.2819 153.02 85.5892 151.304 85.5762 147.873ZM97.5391 141.086H99.4531L99.8438 142.746H102.422V144.797H100.127V149.514C100.127 150.471 100.54 150.949 101.367 150.949H102.422V153H100.117C98.3984 153 97.5391 152.079 97.5391 150.236V141.086Z" fill="white"/>
<path d="M26.7334 171.225C26.7334 171.671 26.6559 172.075 26.501 172.435C26.3506 172.79 26.1273 173.095 25.8311 173.351C25.5394 173.601 25.1794 173.795 24.751 173.932C24.3271 174.068 23.8395 174.137 23.2881 174.137C22.805 174.137 22.3379 174.087 21.8867 173.986C21.4401 173.886 21.0254 173.736 20.6426 173.535V171.566C20.8613 171.671 21.0824 171.774 21.3057 171.874C21.529 171.97 21.7546 172.056 21.9824 172.134C22.2148 172.211 22.445 172.273 22.6729 172.318C22.9053 172.364 23.1354 172.387 23.3633 172.387C23.5957 172.387 23.7939 172.362 23.958 172.312C24.1266 172.257 24.2611 172.184 24.3613 172.093C24.4661 171.997 24.5413 171.885 24.5869 171.758C24.637 171.626 24.6621 171.482 24.6621 171.327C24.6621 171.14 24.6211 170.976 24.5391 170.835C24.4616 170.689 24.3499 170.555 24.2041 170.432C24.0628 170.304 23.8896 170.181 23.6846 170.062C23.484 169.944 23.2585 169.819 23.0078 169.687C22.7982 169.577 22.5635 169.445 22.3037 169.29C22.0439 169.135 21.7979 168.944 21.5654 168.716C21.3376 168.483 21.1462 168.205 20.9912 167.882C20.8363 167.554 20.7588 167.162 20.7588 166.706C20.7588 166.259 20.8317 165.861 20.9775 165.51C21.1279 165.154 21.3398 164.856 21.6133 164.614C21.8867 164.368 22.2171 164.181 22.6045 164.054C22.9964 163.926 23.4339 163.862 23.917 163.862C24.1585 163.862 24.3932 163.878 24.6211 163.91C24.8535 163.942 25.0814 163.988 25.3047 164.047C25.5326 164.106 25.7604 164.179 25.9883 164.266C26.2161 164.352 26.4508 164.452 26.6924 164.566L26.0088 166.214C25.8037 166.118 25.6123 166.034 25.4346 165.961C25.2568 165.888 25.0837 165.826 24.915 165.776C24.7464 165.726 24.5801 165.69 24.416 165.667C24.2565 165.64 24.0947 165.626 23.9307 165.626C23.5752 165.626 23.3018 165.722 23.1104 165.913C22.9235 166.1 22.8301 166.351 22.8301 166.665C22.8301 166.834 22.8574 166.984 22.9121 167.116C22.9714 167.244 23.0625 167.365 23.1855 167.479C23.3132 167.592 23.4749 167.709 23.6709 167.827C23.8714 167.946 24.113 168.08 24.3955 168.23C24.7373 168.413 25.0518 168.6 25.3389 168.791C25.626 168.978 25.8721 169.188 26.0771 169.42C26.2868 169.648 26.4486 169.908 26.5625 170.199C26.6764 170.491 26.7334 170.833 26.7334 171.225ZM32.9268 174H30.8145V168.217C30.8145 168.098 30.8145 167.957 30.8145 167.793C30.819 167.624 30.8236 167.451 30.8281 167.273C30.8372 167.091 30.8441 166.909 30.8486 166.727C30.8577 166.544 30.8646 166.378 30.8691 166.228C30.8464 166.255 30.8076 166.296 30.7529 166.351C30.6982 166.405 30.6367 166.467 30.5684 166.535C30.5 166.599 30.4294 166.665 30.3564 166.733C30.2835 166.802 30.2129 166.863 30.1445 166.918L28.9961 167.841L27.9707 166.569L31.1904 164.006H32.9268V174ZM35.8525 173.022C35.8525 172.808 35.8822 172.628 35.9414 172.482C36.0052 172.332 36.0918 172.211 36.2012 172.12C36.3105 172.029 36.4382 171.963 36.584 171.922C36.7298 171.881 36.887 171.86 37.0557 171.86C37.2152 171.86 37.3656 171.881 37.5068 171.922C37.6527 171.963 37.7803 172.029 37.8896 172.12C37.999 172.211 38.0856 172.332 38.1494 172.482C38.2132 172.628 38.2451 172.808 38.2451 173.022C38.2451 173.228 38.2132 173.403 38.1494 173.549C38.0856 173.695 37.999 173.815 37.8896 173.911C37.7803 174.007 37.6527 174.075 37.5068 174.116C37.3656 174.162 37.2152 174.185 37.0557 174.185C36.887 174.185 36.7298 174.162 36.584 174.116C36.4382 174.075 36.3105 174.007 36.2012 173.911C36.0918 173.815 36.0052 173.695 35.9414 173.549C35.8822 173.403 35.8525 173.228 35.8525 173.022ZM35.8525 167.376C35.8525 167.162 35.8822 166.982 35.9414 166.836C36.0052 166.686 36.0918 166.565 36.2012 166.474C36.3105 166.382 36.4382 166.316 36.584 166.275C36.7298 166.234 36.887 166.214 37.0557 166.214C37.2152 166.214 37.3656 166.234 37.5068 166.275C37.6527 166.316 37.7803 166.382 37.8896 166.474C37.999 166.565 38.0856 166.686 38.1494 166.836C38.2132 166.982 38.2451 167.162 38.2451 167.376C38.2451 167.581 38.2132 167.759 38.1494 167.909C38.0856 168.055 37.999 168.176 37.8896 168.271C37.7803 168.363 37.6527 168.431 37.5068 168.477C37.3656 168.518 37.2152 168.538 37.0557 168.538C36.887 168.538 36.7298 168.518 36.584 168.477C36.4382 168.431 36.3105 168.363 36.2012 168.271C36.0918 168.176 36.0052 168.055 35.9414 167.909C35.8822 167.759 35.8525 167.581 35.8525 167.376ZM46.0586 174H40.3027V164.006H46.0586V165.742H42.4219V167.937H45.8057V169.673H42.4219V172.25H46.0586V174ZM52.4775 174H50.3652V168.217C50.3652 168.098 50.3652 167.957 50.3652 167.793C50.3698 167.624 50.3743 167.451 50.3789 167.273C50.388 167.091 50.3949 166.909 50.3994 166.727C50.4085 166.544 50.4154 166.378 50.4199 166.228C50.3971 166.255 50.3584 166.296 50.3037 166.351C50.249 166.405 50.1875 166.467 50.1191 166.535C50.0508 166.599 49.9801 166.665 49.9072 166.733C49.8343 166.802 49.7637 166.863 49.6953 166.918L48.5469 167.841L47.5215 166.569L50.7412 164.006H52.4775V174Z" fill="white"/>
<path d="M69.8906 174H63.6562V172.934L66.0488 170.329C66.3906 169.96 66.696 169.623 66.9648 169.317C67.2337 169.012 67.4616 168.714 67.6484 168.422C67.8398 168.13 67.9857 167.839 68.0859 167.547C68.1862 167.251 68.2363 166.929 68.2363 166.583C68.2363 166.314 68.1976 166.077 68.1201 165.872C68.0426 165.667 67.931 165.494 67.7852 165.353C67.6439 165.207 67.4753 165.097 67.2793 165.024C67.0833 164.951 66.8646 164.915 66.623 164.915C66.1901 164.915 65.7982 165.004 65.4473 165.182C65.1009 165.355 64.7705 165.578 64.4561 165.852L63.7588 165.038C63.9411 164.874 64.137 164.721 64.3467 164.58C64.5563 164.434 64.7819 164.309 65.0234 164.204C65.265 164.099 65.5202 164.017 65.7891 163.958C66.0579 163.894 66.3405 163.862 66.6367 163.862C67.0742 163.862 67.4684 163.924 67.8193 164.047C68.1748 164.17 68.4756 164.348 68.7217 164.58C68.9678 164.808 69.1569 165.088 69.2891 165.421C69.4258 165.749 69.4941 166.12 69.4941 166.535C69.4941 166.923 69.4326 167.292 69.3096 167.643C69.1911 167.993 69.0247 168.34 68.8105 168.682C68.6009 169.019 68.348 169.358 68.0518 169.7C67.7601 170.042 67.4434 170.397 67.1016 170.767L65.1807 172.811V172.865H69.8906V174ZM74.4365 167.868C74.8877 167.868 75.307 167.932 75.6943 168.06C76.0863 168.183 76.4258 168.367 76.7129 168.613C77.0046 168.859 77.2324 169.165 77.3965 169.529C77.5605 169.894 77.6426 170.315 77.6426 170.794C77.6426 171.313 77.5651 171.781 77.4102 172.195C77.2552 172.61 77.0251 172.961 76.7197 173.248C76.4144 173.535 76.0361 173.756 75.585 173.911C75.1383 174.062 74.6234 174.137 74.04 174.137C73.8076 174.137 73.5775 174.125 73.3496 174.103C73.1263 174.08 72.9098 174.046 72.7002 174C72.4951 173.959 72.2992 173.904 72.1123 173.836C71.9255 173.768 71.7568 173.688 71.6064 173.597V172.421C71.7568 172.526 71.9323 172.619 72.1328 172.701C72.3379 172.783 72.5521 172.852 72.7754 172.906C72.9987 172.961 73.222 173.004 73.4453 173.036C73.6732 173.063 73.8828 173.077 74.0742 173.077C74.4342 173.077 74.7555 173.036 75.0381 172.954C75.3206 172.868 75.5599 172.735 75.7559 172.558C75.9518 172.38 76.1022 172.157 76.207 171.888C76.3118 171.619 76.3643 171.3 76.3643 170.931C76.3643 170.279 76.1637 169.782 75.7627 169.44C75.3617 169.094 74.7783 168.921 74.0127 168.921C73.8896 168.921 73.7552 168.928 73.6094 168.941C73.4681 168.951 73.3245 168.964 73.1787 168.982C73.0374 169.001 72.9007 169.021 72.7686 169.044C72.641 169.062 72.5293 169.08 72.4336 169.099L71.8184 168.709L72.1943 164.006H76.9111V165.141H73.2744L73.0078 168.005C73.1536 167.978 73.3451 167.948 73.582 167.916C73.8236 167.884 74.1084 167.868 74.4365 167.868ZM92.2373 174V169.167C92.2373 168.575 92.1234 168.13 91.8955 167.834C91.6676 167.538 91.3145 167.39 90.8359 167.39C90.5033 167.39 90.2207 167.444 89.9883 167.554C89.7559 167.659 89.5645 167.816 89.4141 168.025C89.2682 168.23 89.1611 168.488 89.0928 168.798C89.0244 169.103 88.9902 169.456 88.9902 169.857V174H87.7393V169.167C87.7393 168.575 87.6253 168.13 87.3975 167.834C87.1742 167.538 86.8232 167.39 86.3447 167.39C85.9938 167.39 85.6999 167.449 85.4629 167.567C85.2259 167.686 85.0345 167.861 84.8887 168.094C84.7474 168.326 84.6449 168.611 84.5811 168.948C84.5218 169.285 84.4922 169.673 84.4922 170.11V174H83.248V166.494H84.2598L84.4375 167.506H84.5059C84.6152 167.31 84.7451 167.141 84.8955 167C85.0459 166.854 85.21 166.733 85.3877 166.638C85.57 166.542 85.7614 166.471 85.9619 166.426C86.167 166.38 86.3743 166.357 86.584 166.357C87.1309 166.357 87.5843 166.458 87.9443 166.658C88.3089 166.859 88.5778 167.173 88.751 167.602H88.8057C88.9242 167.387 89.0654 167.203 89.2295 167.048C89.3981 166.893 89.5804 166.765 89.7764 166.665C89.9769 166.56 90.1865 166.483 90.4053 166.433C90.624 166.382 90.8473 166.357 91.0752 166.357C91.8727 166.357 92.472 166.576 92.873 167.014C93.2786 167.447 93.4814 168.142 93.4814 169.099V174H92.2373ZM97.043 174H95.7988V166.494H97.043V174ZM95.7031 164.464C95.7031 164.19 95.7715 163.992 95.9082 163.869C96.0495 163.746 96.2227 163.685 96.4277 163.685C96.528 163.685 96.6214 163.701 96.708 163.732C96.7992 163.76 96.8766 163.805 96.9404 163.869C97.0088 163.933 97.0612 164.015 97.0977 164.115C97.1387 164.211 97.1592 164.327 97.1592 164.464C97.1592 164.728 97.0863 164.926 96.9404 165.059C96.7992 165.186 96.6283 165.25 96.4277 165.25C96.2227 165.25 96.0495 165.186 95.9082 165.059C95.7715 164.931 95.7031 164.733 95.7031 164.464ZM104.111 174V169.167C104.111 168.575 103.991 168.13 103.749 167.834C103.512 167.538 103.138 167.39 102.628 167.39C102.259 167.39 101.949 167.449 101.698 167.567C101.448 167.686 101.245 167.861 101.09 168.094C100.939 168.326 100.83 168.611 100.762 168.948C100.698 169.285 100.666 169.673 100.666 170.11V174H99.4219V166.494H100.434L100.611 167.506H100.68C100.794 167.31 100.928 167.141 101.083 167C101.243 166.854 101.416 166.733 101.603 166.638C101.789 166.542 101.988 166.471 102.197 166.426C102.407 166.38 102.621 166.357 102.84 166.357C103.674 166.357 104.3 166.576 104.72 167.014C105.144 167.447 105.355 168.142 105.355 169.099V174H104.111ZM112.547 174H111.303V163.363H112.547V174ZM117.893 174.137C117.391 174.137 116.933 174.052 116.519 173.884C116.104 173.715 115.746 173.469 115.445 173.146C115.149 172.822 114.919 172.421 114.755 171.942C114.591 171.464 114.509 170.917 114.509 170.302C114.509 169.682 114.584 169.128 114.734 168.641C114.885 168.153 115.097 167.741 115.37 167.403C115.644 167.062 115.969 166.802 116.348 166.624C116.73 166.446 117.152 166.357 117.612 166.357C118.063 166.357 118.469 166.439 118.829 166.604C119.189 166.763 119.494 166.991 119.745 167.287C119.996 167.579 120.187 167.932 120.319 168.347C120.456 168.757 120.524 169.213 120.524 169.714V170.486H115.794C115.817 171.366 116.001 172.013 116.348 172.428C116.699 172.842 117.218 173.05 117.906 173.05C118.139 173.05 118.353 173.038 118.549 173.016C118.749 172.993 118.941 172.961 119.123 172.92C119.31 172.874 119.49 172.82 119.663 172.756C119.836 172.688 120.012 172.612 120.189 172.53V173.638C120.007 173.724 119.827 173.799 119.649 173.863C119.476 173.927 119.296 173.979 119.109 174.021C118.927 174.062 118.736 174.091 118.535 174.109C118.339 174.128 118.125 174.137 117.893 174.137ZM117.585 167.39C117.065 167.39 116.653 167.567 116.348 167.923C116.047 168.278 115.871 168.796 115.821 169.475H119.185C119.185 169.165 119.153 168.882 119.089 168.627C119.03 168.367 118.934 168.146 118.802 167.964C118.674 167.782 118.51 167.64 118.31 167.54C118.109 167.44 117.868 167.39 117.585 167.39ZM125.679 167.431H124.004V174H122.753V167.431H121.427V166.918L122.753 166.453V165.797C122.753 165.309 122.803 164.906 122.903 164.587C123.008 164.263 123.156 164.006 123.348 163.814C123.544 163.623 123.783 163.489 124.065 163.411C124.348 163.329 124.667 163.288 125.022 163.288C125.291 163.288 125.537 163.315 125.761 163.37C125.989 163.42 126.191 163.477 126.369 163.541L126.048 164.505C125.907 164.455 125.752 164.411 125.583 164.375C125.419 164.334 125.246 164.313 125.063 164.313C124.881 164.313 124.724 164.336 124.592 164.382C124.46 164.423 124.35 164.498 124.264 164.607C124.177 164.717 124.111 164.867 124.065 165.059C124.024 165.245 124.004 165.487 124.004 165.783V166.494H125.679V167.431ZM129.295 173.118C129.377 173.118 129.468 173.114 129.568 173.104C129.673 173.095 129.773 173.084 129.869 173.07C129.965 173.057 130.051 173.041 130.129 173.022C130.211 173.004 130.272 172.988 130.313 172.975V173.918C130.254 173.945 130.179 173.973 130.088 174C129.997 174.027 129.896 174.05 129.787 174.068C129.678 174.091 129.564 174.107 129.445 174.116C129.327 174.13 129.211 174.137 129.097 174.137C128.814 174.137 128.552 174.1 128.311 174.027C128.069 173.954 127.859 173.829 127.682 173.651C127.508 173.474 127.372 173.234 127.271 172.934C127.171 172.628 127.121 172.245 127.121 171.785V167.431H126.062V166.877L127.121 166.344L127.654 164.771H128.372V166.494H130.259V167.431H128.372V171.785C128.372 172.227 128.443 172.56 128.584 172.783C128.73 173.007 128.967 173.118 129.295 173.118Z" fill="white"/>
<rect x="-168" y="194" width="368" height="6" fill="#00A8E1"/>
<path d="M175 153.1C169.5 153.1 165.1 157.5 165.1 163C165.1 168.5 169.5 172.9 175 172.9C180.5 172.9 184.9 168.5 184.9 163C184.9 157.5 180.5 153.1 175 153.1ZM175 171.7C170.245 171.7 166.3 167.755 166.3 163C166.3 158.245 170.245 154.3 175 154.3C179.755 154.3 183.7 158.245 183.7 163C183.7 167.755 179.755 171.7 175 171.7ZM170.6 161.9V164.1H179.4V161.9H170.6Z" fill="white"/>
<path d="M207.267 159.276C206.605 158.608 205.916 158.026 205.198 157.532C204.481 157.037 203.809 156.666 203.182 156.419C202.556 156.172 201.981 156.053 201.459 156.063C200.936 156.073 200.529 156.228 200.236 156.529C200.167 156.596 200.108 156.671 200.059 156.755C200.01 156.838 199.975 156.903 199.954 156.95C199.934 156.997 199.906 157.081 199.871 157.201C199.836 157.321 199.812 157.398 199.798 157.432L195.912 169.703L196.152 169.944C195.88 170.124 195.638 170.335 195.426 170.576C195.214 170.816 195.027 171.013 194.867 171.167C194.707 171.321 194.515 171.428 194.292 171.488C194.244 171.501 194.183 171.547 194.11 171.623C194.037 171.7 194 171.769 194 171.829C194 171.949 194.063 172.049 194.188 172.13C194.313 172.21 194.453 172.25 194.606 172.25C194.801 172.25 194.989 172.175 195.17 172.024C195.351 171.874 195.534 171.682 195.718 171.448C195.903 171.214 196.037 171.06 196.121 170.987C196.302 170.833 196.504 170.686 196.726 170.546L196.998 170.796L209.346 166.776C209.617 166.696 209.826 166.575 209.972 166.415C210.265 166.114 210.416 165.698 210.427 165.167C210.437 164.635 210.321 164.05 210.077 163.412C209.833 162.774 209.469 162.092 208.985 161.367C208.501 160.642 207.928 159.945 207.267 159.276ZM206.139 160.369C207.204 161.412 208.014 162.409 208.567 163.362C209.121 164.314 209.255 164.941 208.97 165.242C208.684 165.543 208.061 165.432 207.1 164.911C206.139 164.39 205.129 163.611 204.07 162.575C202.998 161.532 202.185 160.536 201.631 159.587C201.077 158.638 200.943 158.01 201.229 157.702C201.514 157.401 202.139 157.512 203.104 158.033C204.069 158.554 205.08 159.333 206.139 160.369ZM203.851 164.52C204.359 164.954 204.864 165.335 205.366 165.663C205.373 165.676 205.547 165.99 205.888 166.605L205.01 166.896C204.593 166.141 204.206 165.349 203.851 164.52ZM200.289 159.928C200.442 160.256 200.654 160.653 200.926 161.121C201.149 162.084 201.499 163.126 201.976 164.249C202.453 165.372 202.973 166.425 203.538 167.407L202.67 167.688C202.016 166.525 201.445 165.307 200.957 164.034C200.47 162.76 200.17 161.636 200.059 160.66L200.289 159.928ZM199.077 163.598C199.564 165.095 200.25 166.632 201.135 168.21L200.278 168.5C199.589 167.23 199.046 166.037 198.649 164.921L199.077 163.598ZM197.876 167.257C198.147 167.872 198.436 168.457 198.743 169.012L197.886 169.302C197.789 169.122 197.649 168.844 197.468 168.47L197.876 167.257ZM205.554 153L206.076 154.514L204.728 155.456H206.389L206.901 156.97L207.413 155.456H209.064L207.726 154.514L208.249 153.01L206.901 153.942L205.554 153ZM202.629 153L202.347 154.374L203.778 154.644L204.06 153.271L202.629 153ZM212.041 157.131L213.19 155.978L214.684 156.68L213.911 155.276L215.07 154.143L213.43 154.414L212.657 153L212.427 154.584L210.787 154.855L212.281 155.547L212.041 157.131ZM211.654 159.597L213.044 160.479L212.605 162.023L213.9 161.021L215.279 161.903L214.705 160.399L216 159.417L214.339 159.487L213.754 157.993L213.326 159.527L211.654 159.597ZM211.059 155.877L207.946 158.324L208.332 158.775L211.445 156.329L211.059 155.877ZM212.145 160.61L209.711 160.399L209.649 160.981L212.093 161.191L212.145 160.61ZM212.386 163.417L211.936 164.761L213.326 165.192L213.785 163.858L212.386 163.417Z" fill="white"/>
<path d="M269.813 165.75C269.298 165.752 268.791 165.87 268.328 166.095C267.865 166.32 267.459 166.646 267.139 167.049L262.113 163.907C262.296 163.316 262.296 162.683 262.113 162.092L267.139 158.95C267.649 159.582 268.366 160.013 269.163 160.166C269.96 160.32 270.786 160.186 271.494 159.789C272.202 159.392 272.747 158.757 273.032 157.997C273.317 157.236 273.323 156.4 273.05 155.635C272.777 154.871 272.243 154.227 271.541 153.819C270.839 153.411 270.015 153.264 269.216 153.405C268.416 153.546 267.692 153.966 267.173 154.589C266.653 155.213 266.37 156 266.375 156.812C266.379 157.12 266.425 157.425 266.513 157.72L261.487 160.862C261.044 160.303 260.437 159.896 259.752 159.698C259.067 159.5 258.337 159.519 257.663 159.754C256.99 159.989 256.406 160.428 255.993 161.009C255.58 161.591 255.358 162.286 255.358 163C255.358 163.713 255.58 164.409 255.993 164.99C256.406 165.572 256.99 166.011 257.663 166.245C258.337 166.48 259.067 166.5 259.752 166.302C260.437 166.103 261.044 165.696 261.487 165.138L266.513 168.28C266.425 168.574 266.379 168.88 266.375 169.187C266.375 169.867 266.577 170.532 266.955 171.097C267.332 171.662 267.869 172.103 268.497 172.363C269.126 172.623 269.817 172.691 270.484 172.559C271.15 172.426 271.763 172.099 272.244 171.618C272.724 171.137 273.052 170.525 273.184 169.858C273.317 169.191 273.249 168.5 272.989 167.872C272.729 167.244 272.288 166.707 271.723 166.329C271.157 165.951 270.493 165.75 269.813 165.75V165.75ZM269.813 154.75C270.221 154.75 270.62 154.871 270.959 155.097C271.298 155.324 271.562 155.646 271.718 156.023C271.875 156.4 271.915 156.815 271.836 157.215C271.756 157.615 271.56 157.982 271.271 158.271C270.983 158.559 270.615 158.756 270.215 158.835C269.815 158.915 269.4 158.874 269.024 158.718C268.647 158.562 268.325 158.297 268.098 157.958C267.871 157.619 267.75 157.22 267.75 156.812C267.75 156.265 267.968 155.741 268.354 155.354C268.741 154.967 269.266 154.75 269.813 154.75V154.75ZM258.813 165.062C258.405 165.062 258.006 164.941 257.667 164.715C257.328 164.488 257.064 164.166 256.907 163.789C256.751 163.412 256.71 162.998 256.79 162.597C256.87 162.197 257.066 161.83 257.354 161.541C257.643 161.253 258.01 161.057 258.411 160.977C258.811 160.897 259.225 160.938 259.602 161.094C259.979 161.25 260.301 161.515 260.528 161.854C260.754 162.193 260.875 162.592 260.875 163C260.875 163.547 260.658 164.071 260.271 164.458C259.885 164.845 259.36 165.062 258.813 165.062ZM269.813 171.25C269.405 171.25 269.006 171.129 268.667 170.902C268.328 170.676 268.064 170.353 267.907 169.977C267.751 169.6 267.71 169.185 267.79 168.785C267.87 168.385 268.066 168.017 268.354 167.729C268.643 167.44 269.01 167.244 269.411 167.164C269.811 167.085 270.225 167.126 270.602 167.282C270.979 167.438 271.301 167.702 271.528 168.041C271.754 168.381 271.875 168.779 271.875 169.187C271.875 169.734 271.658 170.259 271.271 170.646C270.885 171.032 270.36 171.25 269.813 171.25V171.25Z" fill="white"/>
<path d="M301.416 153.833H289.747C289.103 153.834 288.481 154.059 287.986 154.471C287.492 154.883 287.158 155.456 287.043 156.088L285.878 162.505C285.806 162.901 285.821 163.309 285.924 163.699C286.026 164.088 286.213 164.451 286.471 164.761C286.729 165.07 287.052 165.319 287.417 165.49C287.782 165.661 288.18 165.75 288.583 165.75H292.763L292.249 167.061C292.036 167.635 291.965 168.252 292.042 168.859C292.119 169.467 292.343 170.046 292.694 170.549C293.044 171.051 293.511 171.46 294.055 171.742C294.599 172.024 295.203 172.17 295.815 172.167C295.991 172.166 296.164 172.115 296.312 172.019C296.46 171.923 296.577 171.787 296.649 171.626L299.262 165.75H301.416C302.145 165.75 302.845 165.46 303.36 164.945C303.876 164.429 304.166 163.729 304.166 163V156.583C304.166 155.854 303.876 155.155 303.36 154.639C302.845 154.123 302.145 153.833 301.416 153.833ZM297.749 164.641L295.256 170.251C295.001 170.174 294.764 170.045 294.561 169.873C294.357 169.701 294.191 169.489 294.072 169.25C293.954 169.011 293.886 168.751 293.872 168.485C293.858 168.219 293.898 167.952 293.991 167.702L294.477 166.392C294.58 166.115 294.615 165.817 294.579 165.523C294.542 165.23 294.435 164.949 294.267 164.706C294.098 164.463 293.873 164.264 293.611 164.127C293.35 163.989 293.058 163.917 292.763 163.917H288.583C288.448 163.917 288.315 163.887 288.193 163.83C288.071 163.773 287.963 163.69 287.877 163.587C287.788 163.485 287.724 163.364 287.687 163.234C287.651 163.104 287.644 162.968 287.666 162.835L288.83 156.418C288.869 156.205 288.983 156.012 289.151 155.874C289.318 155.737 289.53 155.663 289.747 155.667H297.749V164.641ZM302.333 163C302.333 163.243 302.236 163.476 302.064 163.648C301.892 163.82 301.659 163.917 301.416 163.917H299.583V155.667H301.416C301.659 155.667 301.892 155.763 302.064 155.935C302.236 156.107 302.333 156.34 302.333 156.583V163Z" fill="white"/>
<path d="M234.75 158.833C235.256 158.833 235.667 158.423 235.667 157.917C235.667 157.41 235.256 157 234.75 157C234.244 157 233.833 157.41 233.833 157.917C233.833 158.423 234.244 158.833 234.75 158.833Z" fill="white"/>
<path d="M237.347 166.411H235.819V160.056H233.528C233.325 160.056 233.131 160.139 232.988 160.288C232.844 160.437 232.764 160.639 232.764 160.85C232.764 161.061 232.844 161.263 232.988 161.412C233.131 161.561 233.325 161.644 233.528 161.644H234.292V166.411H232.764C232.561 166.411 232.367 166.495 232.224 166.644C232.08 166.793 232 166.995 232 167.206C232 167.416 232.08 167.618 232.224 167.767C232.367 167.916 232.561 168 232.764 168H237.347C237.55 168 237.744 167.916 237.887 167.767C238.031 167.618 238.111 167.416 238.111 167.206C238.111 166.995 238.031 166.793 237.887 166.644C237.744 166.495 237.55 166.411 237.347 166.411Z" fill="white"/>
<path d="M234.625 153C232.721 153 230.86 153.564 229.278 154.622C227.695 155.68 226.461 157.183 225.733 158.942C225.004 160.7 224.814 162.636 225.185 164.503C225.556 166.37 226.473 168.085 227.819 169.431C229.165 170.777 230.88 171.694 232.747 172.065C234.614 172.436 236.55 172.246 238.308 171.517C240.067 170.789 241.57 169.555 242.628 167.972C243.686 166.39 244.25 164.529 244.25 162.625C244.25 160.072 243.236 157.624 241.431 155.819C239.626 154.014 237.178 153 234.625 153V153ZM234.625 170.646C233.039 170.646 231.488 170.175 230.169 169.294C228.85 168.413 227.822 167.16 227.215 165.694C226.608 164.229 226.449 162.616 226.758 161.06C227.068 159.504 227.832 158.075 228.953 156.953C230.075 155.832 231.504 155.068 233.06 154.758C234.616 154.449 236.229 154.608 237.694 155.215C239.16 155.822 240.413 156.85 241.294 158.169C242.175 159.488 242.646 161.039 242.646 162.625C242.646 163.678 242.438 164.721 242.035 165.694C241.632 166.668 241.041 167.552 240.297 168.297C239.552 169.041 238.668 169.632 237.694 170.035C236.721 170.438 235.678 170.646 234.625 170.646V170.646Z" fill="white"/>
<path d="M234.75 158.833C235.256 158.833 235.667 158.423 235.667 157.917C235.667 157.41 235.256 157 234.75 157C234.244 157 233.833 157.41 233.833 157.917C233.833 158.423 234.244 158.833 234.75 158.833Z" fill="white"/>
<path d="M237.347 166.411H235.819V160.056H233.528C233.325 160.056 233.131 160.139 232.988 160.288C232.844 160.437 232.764 160.639 232.764 160.85C232.764 161.061 232.844 161.263 232.988 161.412C233.131 161.561 233.325 161.644 233.528 161.644H234.292V166.411H232.764C232.561 166.411 232.367 166.495 232.224 166.644C232.08 166.793 232 166.995 232 167.206C232 167.416 232.08 167.618 232.224 167.767C232.367 167.916 232.561 168 232.764 168H237.347C237.55 168 237.744 167.916 237.887 167.767C238.031 167.618 238.111 167.416 238.111 167.206C238.111 166.995 238.031 166.793 237.887 166.644C237.744 166.495 237.55 166.411 237.347 166.411Z" fill="white"/>
<path d="M234.625 153C232.721 153 230.86 153.564 229.278 154.622C227.695 155.68 226.461 157.183 225.733 158.942C225.004 160.7 224.814 162.636 225.185 164.503C225.556 166.37 226.473 168.085 227.819 169.431C229.165 170.777 230.88 171.694 232.747 172.065C234.614 172.436 236.55 172.246 238.308 171.517C240.067 170.789 241.57 169.555 242.628 167.972C243.686 166.39 244.25 164.529 244.25 162.625C244.25 160.072 243.236 157.624 241.431 155.819C239.626 154.014 237.178 153 234.625 153V153ZM234.625 170.646C233.039 170.646 231.488 170.175 230.169 169.294C228.85 168.413 227.822 167.16 227.215 165.694C226.608 164.229 226.449 162.616 226.758 161.06C227.068 159.504 227.832 158.075 228.953 156.953C230.075 155.832 231.504 155.068 233.06 154.758C234.616 154.449 236.229 154.608 237.694 155.215C239.16 155.822 240.413 156.85 241.294 158.169C242.175 159.488 242.646 161.039 242.646 162.625C242.646 163.678 242.438 164.721 242.035 165.694C241.632 166.668 241.041 167.552 240.297 168.297C239.552 169.041 238.668 169.632 237.694 170.035C236.721 170.438 235.678 170.646 234.625 170.646V170.646Z" fill="white"/>
</g>
<path d="M162.578 76.0037C167.324 75.9203 171.988 77.2461 175.981 79.8135C179.973 82.3809 183.115 86.0745 185.008 90.4274C186.902 94.7802 187.462 99.5967 186.617 104.268C185.773 108.939 183.563 113.255 180.266 116.67C176.969 120.085 172.734 122.445 168.095 123.453C163.456 124.461 158.623 124.07 154.207 122.331C149.79 120.592 145.988 117.582 143.282 113.682C140.576 109.782 139.087 105.168 139.004 100.422C138.892 94.0575 141.313 87.9095 145.734 83.3303C150.155 78.751 156.214 76.1155 162.578 76.0037V76.0037ZM162.508 72.0043C156.971 72.1016 151.587 73.8387 147.037 76.9958C142.487 80.1529 138.976 84.5883 136.947 89.7411C134.918 94.8939 134.463 100.533 135.638 105.944C136.814 111.356 139.568 116.297 143.552 120.144C147.536 123.99 152.571 126.569 158.021 127.554C163.47 128.538 169.09 127.885 174.168 125.676C179.246 123.467 183.556 119.802 186.551 115.144C189.546 110.486 191.093 105.045 190.996 99.5079C190.865 92.083 187.79 85.0141 182.448 79.8561C177.105 74.6982 169.933 71.8738 162.508 72.0043V72.0043Z" fill="white" fill-opacity="0.6"/>
<path d="M155.247 114.138C154.888 114.145 154.534 114.054 154.223 113.876C153.921 113.705 153.669 113.457 153.492 113.159C153.315 112.86 153.219 112.521 153.213 112.174L152.791 88.1776C152.785 87.8306 152.869 87.4879 153.036 87.1834C153.202 86.8789 153.445 86.6229 153.74 86.4407C154.041 86.2598 154.385 86.1613 154.736 86.1552C155.087 86.149 155.433 86.2353 155.74 86.4055L177.948 98.0171C178.268 98.1828 178.538 98.4322 178.728 98.7387C178.918 99.0453 179.022 99.3976 179.028 99.7583C179.035 100.119 178.943 100.475 178.764 100.788C178.585 101.101 178.324 101.36 178.009 101.537L156.224 113.921C155.922 114.075 155.586 114.15 155.247 114.138V114.138ZM156.849 91.4668L157.153 108.744L172.819 99.8275L156.849 91.4668Z" fill="white" fill-opacity="0.6"/>
<defs>
<linearGradient id="paint0_linear" x1="92.75" y1="81.1765" x2="52.8637" y2="38.8258" gradientUnits="userSpaceOnUse">
<stop stop-color="#1B1B1B"/>
<stop offset="1" stop-color="#1B1B1B" stop-opacity="0"/>
</linearGradient>
<linearGradient id="paint1_linear" x1="13.8879" y1="148" x2="150.493" y2="148.676" gradientUnits="userSpaceOnUse">
<stop stop-opacity="0"/>
<stop stop-opacity="0"/>
<stop offset="1"/>
</linearGradient>
<clipPath id="clip0">
<rect width="179" height="326" fill="white" transform="translate(326 21) rotate(90)"/>
</clipPath>
</defs>
</svg>
