<svg width="326" height="200" viewBox="0 0 326 200" fill="none" xmlns="http://www.w3.org/2000/svg">
<rect width="106" height="90" transform="translate(236 106) rotate(-90)" fill="url(#paint0_linear)"/>
<path d="M299.822 21.6639C300.814 21.4569 303.507 21.1317 304.262 21.7526C304.706 22.1178 304.262 24.0585 303.285 26.4088C303.241 26.5861 303.25 26.8966 303.641 26.7192C304.129 26.4975 306.127 23.9255 305.994 20.7326C305.905 20.3779 305.579 20.2659 305.505 20.2449C304.262 19.8901 301.732 19.7127 299.689 21.2204C299.547 21.5042 299.719 21.6343 299.822 21.6639Z" fill="white"/>
<path d="M272.03 20.8213C271.971 20.6735 271.959 20.3779 272.385 20.3779C277.624 23.5707 288.501 28.5373 302.486 22.4177C303.285 22.2404 303.378 23.0726 302.93 23.3933C291.165 31.8188 277.668 27.1183 272.03 20.8213Z" fill="white"/>
<path d="M277.019 35.3669C277.019 35.917 276.952 36.4183 276.818 36.8708C276.688 37.3233 276.493 37.7106 276.232 38.0329C275.972 38.3552 275.648 38.6042 275.261 38.78C274.877 38.9557 274.432 39.0436 273.928 39.0436C273.397 39.0436 272.937 38.9557 272.546 38.78C272.159 38.6042 271.836 38.3552 271.579 38.0329C271.325 37.7106 271.136 37.3233 271.013 36.8708C270.889 36.4151 270.827 35.9105 270.827 35.3571C270.827 34.8037 270.889 34.3024 271.013 33.8532C271.136 33.4007 271.327 33.015 271.584 32.696C271.841 32.377 272.165 32.1312 272.556 31.9587C272.946 31.7829 273.407 31.695 273.938 31.695C274.442 31.695 274.885 31.7829 275.266 31.9587C275.65 32.1312 275.972 32.3786 276.232 32.7009C276.493 33.0199 276.688 33.4056 276.818 33.8581C276.952 34.3073 277.019 34.8102 277.019 35.3669ZM271.789 35.3669C271.789 35.8128 271.831 36.2149 271.916 36.5729C272.001 36.9278 272.129 37.2305 272.302 37.4811C272.478 37.7285 272.699 37.919 272.966 38.0524C273.236 38.1826 273.557 38.2477 273.928 38.2477C274.299 38.2477 274.618 38.1826 274.885 38.0524C275.155 37.919 275.376 37.7285 275.549 37.4811C275.725 37.2305 275.853 36.9278 275.935 36.5729C276.016 36.2149 276.057 35.8128 276.057 35.3669C276.057 34.9177 276.016 34.5156 275.935 34.1608C275.853 33.806 275.726 33.5065 275.554 33.2624C275.381 33.015 275.161 32.8262 274.895 32.696C274.628 32.5625 274.309 32.4958 273.938 32.4958C273.566 32.4958 273.246 32.5625 272.976 32.696C272.705 32.8262 272.482 33.015 272.307 33.2624C272.131 33.5065 272.001 33.806 271.916 34.1608C271.831 34.5156 271.789 34.9177 271.789 35.3669ZM280.808 33.487C280.902 33.487 281.008 33.4919 281.125 33.5016C281.242 33.5082 281.343 33.5196 281.428 33.5358L281.311 34.3561C281.219 34.3399 281.125 34.3268 281.027 34.3171C280.933 34.3041 280.843 34.2975 280.759 34.2975C280.554 34.2975 280.367 34.3399 280.197 34.4245C280.028 34.5059 279.882 34.6247 279.758 34.7809C279.637 34.9339 279.543 35.1195 279.475 35.3376C279.41 35.5524 279.377 35.7917 279.377 36.0554V38.946H278.488V33.5847H279.211L279.318 34.5661H279.357C279.439 34.4261 279.525 34.291 279.616 34.1608C279.711 34.0306 279.815 33.9167 279.929 33.819C280.046 33.7181 280.176 33.6384 280.319 33.5798C280.463 33.5179 280.625 33.487 280.808 33.487ZM283.371 38.946H282.482V33.5847H283.371V38.946ZM282.414 32.1345C282.414 31.9391 282.463 31.7975 282.561 31.7097C282.661 31.6218 282.785 31.5778 282.932 31.5778C283.003 31.5778 283.07 31.5892 283.132 31.612C283.197 31.6315 283.252 31.6641 283.298 31.7097C283.347 31.7552 283.384 31.8138 283.41 31.8854C283.439 31.9538 283.454 32.0368 283.454 32.1345C283.454 32.3233 283.402 32.4649 283.298 32.5593C283.197 32.6504 283.075 32.696 282.932 32.696C282.785 32.696 282.661 32.6504 282.561 32.5593C282.463 32.4681 282.414 32.3265 282.414 32.1345ZM289.201 33.5847V34.1364L288.239 34.2682C288.33 34.3822 288.407 34.5287 288.469 34.7077C288.531 34.8835 288.562 35.0837 288.562 35.3083C288.562 35.5557 288.522 35.7852 288.444 35.9968C288.369 36.2051 288.254 36.3858 288.098 36.5388C287.945 36.6918 287.754 36.8122 287.526 36.9001C287.299 36.9847 287.033 37.027 286.73 37.027C286.659 37.027 286.587 37.027 286.516 37.027C286.444 37.0238 286.385 37.0173 286.34 37.0075C286.285 37.0401 286.229 37.0775 286.174 37.1198C286.122 37.1589 286.073 37.2044 286.027 37.2565C285.985 37.3086 285.949 37.3672 285.92 37.4323C285.894 37.4974 285.881 37.569 285.881 37.6472C285.881 37.735 285.9 37.8067 285.939 37.862C285.979 37.9141 286.031 37.9548 286.096 37.9841C286.164 38.0134 286.244 38.0329 286.335 38.0427C286.426 38.0524 286.522 38.0573 286.623 38.0573H287.482C287.785 38.0573 288.041 38.0964 288.249 38.1745C288.457 38.2494 288.627 38.3519 288.757 38.4821C288.89 38.6123 288.986 38.7669 289.045 38.946C289.104 39.1218 289.133 39.3089 289.133 39.5075C289.133 39.794 289.079 40.0511 288.972 40.279C288.868 40.5069 288.706 40.6989 288.488 40.8552C288.27 41.0147 287.993 41.1367 287.658 41.2214C287.326 41.306 286.934 41.3483 286.481 41.3483C286.133 41.3483 285.829 41.3141 285.568 41.2458C285.308 41.1774 285.091 41.0781 284.919 40.9479C284.746 40.8177 284.616 40.6599 284.528 40.4743C284.444 40.292 284.401 40.0853 284.401 39.8542C284.401 39.6589 284.432 39.4863 284.494 39.3366C284.559 39.1901 284.646 39.0632 284.753 38.9557C284.86 38.8483 284.984 38.7604 285.124 38.6921C285.267 38.6237 285.415 38.5716 285.568 38.5358C285.432 38.474 285.319 38.3763 285.231 38.2429C285.144 38.1094 285.1 37.9564 285.1 37.7839C285.1 37.5853 285.152 37.4144 285.256 37.2712C285.36 37.1247 285.524 36.9831 285.749 36.8464C285.609 36.7878 285.48 36.708 285.363 36.6071C285.249 36.503 285.152 36.3858 285.07 36.2556C284.992 36.1221 284.93 35.9772 284.885 35.821C284.842 35.6647 284.821 35.5036 284.821 35.3376C284.821 35.0479 284.862 34.7891 284.943 34.5612C285.025 34.3334 285.145 34.1397 285.305 33.9802C285.464 33.8207 285.663 33.6986 285.9 33.614C286.138 33.5293 286.415 33.487 286.73 33.487C286.851 33.487 286.975 33.4968 287.102 33.5163C287.232 33.5326 287.341 33.5554 287.429 33.5847H289.201ZM285.241 39.8249C285.241 39.9453 285.262 40.0576 285.305 40.1618C285.347 40.266 285.415 40.3555 285.51 40.4304C285.607 40.5052 285.734 40.5638 285.891 40.6061C286.05 40.6517 286.247 40.6745 286.481 40.6745C287.087 40.6745 287.539 40.5801 287.839 40.3913C288.142 40.2057 288.293 39.9372 288.293 39.5856C288.293 39.4359 288.273 39.3138 288.234 39.2194C288.195 39.125 288.13 39.0502 288.039 38.9948C287.951 38.9427 287.834 38.9069 287.688 38.8874C287.541 38.8679 287.362 38.8581 287.15 38.8581H286.291C286.177 38.8581 286.058 38.8711 285.935 38.8972C285.811 38.9232 285.697 38.972 285.593 39.0436C285.492 39.1153 285.407 39.2129 285.339 39.3366C285.274 39.4636 285.241 39.6263 285.241 39.8249ZM285.69 35.3083C285.69 35.6826 285.778 35.961 285.954 36.1432C286.13 36.3255 286.379 36.4167 286.701 36.4167C287.027 36.4167 287.272 36.3272 287.438 36.1481C287.608 35.9658 287.692 35.681 287.692 35.2936C287.692 34.8932 287.606 34.5987 287.434 34.4099C287.264 34.221 287.017 34.1266 286.691 34.1266C286.369 34.1266 286.122 34.2243 285.949 34.4196C285.777 34.6149 285.69 34.9112 285.69 35.3083ZM291.145 38.946H290.256V33.5847H291.145V38.946ZM290.188 32.1345C290.188 31.9391 290.236 31.7975 290.334 31.7097C290.435 31.6218 290.559 31.5778 290.705 31.5778C290.777 31.5778 290.843 31.5892 290.905 31.612C290.97 31.6315 291.026 31.6641 291.071 31.7097C291.12 31.7552 291.158 31.8138 291.184 31.8854C291.213 31.9538 291.228 32.0368 291.228 32.1345C291.228 32.3233 291.175 32.4649 291.071 32.5593C290.97 32.6504 290.848 32.696 290.705 32.696C290.559 32.696 290.435 32.6504 290.334 32.5593C290.236 32.4681 290.188 32.3265 290.188 32.1345ZM296.193 38.946V35.4938C296.193 35.0707 296.107 34.7533 295.935 34.5417C295.765 34.3301 295.498 34.2243 295.134 34.2243C294.87 34.2243 294.649 34.2666 294.47 34.3513C294.291 34.4359 294.146 34.5612 294.035 34.7272C293.928 34.8932 293.85 35.0967 293.801 35.3376C293.755 35.5785 293.732 35.8552 293.732 36.1677V38.946H292.844V33.5847H293.566L293.693 34.3073H293.742C293.824 34.1673 293.92 34.0469 294.03 33.946C294.144 33.8418 294.268 33.7556 294.401 33.6872C294.535 33.6188 294.676 33.5684 294.826 33.5358C294.976 33.5033 295.129 33.487 295.285 33.487C295.881 33.487 296.328 33.6432 296.628 33.9557C296.931 34.265 297.082 34.7614 297.082 35.445V38.946H296.193ZM301.755 38.946L301.574 38.2038H301.535C301.428 38.3503 301.32 38.4772 301.213 38.5847C301.105 38.6888 300.988 38.7751 300.861 38.8434C300.734 38.9118 300.593 38.9623 300.437 38.9948C300.28 39.0274 300.1 39.0436 299.895 39.0436C299.67 39.0436 299.463 39.0111 299.274 38.946C299.086 38.8841 298.921 38.7881 298.781 38.6579C298.645 38.5244 298.537 38.3584 298.459 38.1599C298.381 37.958 298.342 37.7204 298.342 37.447C298.342 36.9131 298.529 36.503 298.903 36.2165C299.281 35.93 299.854 35.7738 300.622 35.7477L301.521 35.7136V35.3766C301.521 35.1585 301.496 34.9763 301.447 34.8298C301.402 34.6833 301.333 34.5661 301.242 34.4782C301.154 34.3871 301.044 34.322 300.91 34.2829C300.78 34.2438 300.63 34.2243 300.461 34.2243C300.191 34.2243 299.938 34.2634 299.704 34.3415C299.473 34.4196 299.25 34.514 299.035 34.6247L298.723 33.9557C298.964 33.8255 299.232 33.7149 299.528 33.6237C299.825 33.5326 300.135 33.487 300.461 33.487C300.793 33.487 301.079 33.5212 301.32 33.5895C301.564 33.6546 301.765 33.7604 301.921 33.9069C302.08 34.0502 302.199 34.2341 302.277 34.4587C302.355 34.6833 302.395 34.9551 302.395 35.2741V38.946L301.755 38.946ZM300.124 38.3259C300.323 38.3259 300.507 38.2949 300.676 38.2331C300.845 38.1712 300.992 38.0785 301.115 37.9548C301.239 37.8278 301.335 37.6699 301.403 37.4811C301.475 37.2891 301.511 37.0645 301.511 36.8073V36.3239L300.812 36.3581C300.52 36.3711 300.274 36.4037 300.075 36.4557C299.877 36.5078 299.717 36.5811 299.597 36.6755C299.479 36.7666 299.395 36.8789 299.343 37.0124C299.291 37.1426 299.265 37.2907 299.265 37.4567C299.265 37.7562 299.343 37.9759 299.499 38.1159C299.659 38.2559 299.867 38.3259 300.124 38.3259ZM304.934 38.946H304.045V31.3483H304.934V38.946Z" fill="white"/>
<path d="M20 31C20 24.9249 24.9249 20 31 20H53C59.0751 20 64 24.9249 64 31V31C64 37.0751 59.0751 42 53 42H31C24.9249 42 20 37.0751 20 31V31Z" fill="white" fill-opacity="0.8"/>
<path fill-rule="evenodd" clip-rule="evenodd" d="M27 27.7191V36H28.3736C28.4165 36 28.5195 35.9753 28.5882 35.8764V33.2397C30.1335 34.3109 32.8807 33.7753 32.8807 30.5206C32.8807 27.5131 30.2193 26.8127 28.4165 28.2135C28.4022 28.0762 28.3221 27.785 28.116 27.7191H27ZM30.6915 29.1199C29.9704 28.4936 28.9888 28.8589 28.5882 29.1199V32.0861C29.6871 32.8112 30.4483 32.3883 30.6915 32.0861C31.0006 31.9543 31.0778 30.9875 31.0778 30.5206C31.1122 29.7955 30.8346 29.2846 30.6915 29.1199Z" fill="#00A8E1"/>
<path d="M34.0396 33.4457V27.8839C34.0396 27.829 34.074 27.7109 34.2113 27.6779H35.2844C35.3417 27.6367 35.499 27.7356 35.6707 28.4607C35.6851 28.5019 35.7308 28.5678 35.7995 28.5019C35.8854 28.4195 36.7009 27.5543 37.5594 27.6367C37.9028 27.6367 37.9887 27.774 37.9887 27.8427V28.9963C37.9744 29.0649 37.9114 29.2022 37.774 29.2022C36.5722 29.1363 35.9569 29.3396 35.7995 29.4494V33.4457C35.7995 33.4869 35.7738 33.5775 35.6707 33.6105H34.1684C34.1255 33.6105 34.0396 33.5775 34.0396 33.4457Z" fill="#00A8E1"/>
<path d="M39.0189 27.6779H40.3066C40.3781 27.6916 40.5212 27.7521 40.5212 27.8839V33.4457C40.5069 33.4869 40.4525 33.5775 40.3495 33.6105H38.9759C38.9187 33.5968 38.7956 33.5446 38.7613 33.4457L38.8042 27.8839C38.8042 27.829 38.8472 27.7109 39.0189 27.6779Z" fill="#00A8E1"/>
<path d="M39.3622 26.7303C39.491 26.7441 39.7915 26.7633 39.9632 26.7303C40.1349 26.6974 40.3209 26.5793 40.3924 26.5243C40.5641 26.3596 40.65 26.1124 40.65 25.8652C40.65 25.5356 40.5641 25.412 40.4354 25.2472C40.3495 25.1785 40.1778 25 39.9632 25H39.3622C39.2049 25.0412 38.8643 25.1483 38.7613 25.412C38.6583 25.6757 38.6755 25.7553 38.6755 25.9064C38.6755 26.0574 38.7579 26.3563 38.933 26.5243C39.1081 26.6924 39.2907 26.7166 39.3622 26.7303Z" fill="#00A8E1"/>
<path d="M43.6547 28.2547C43.6118 28.0899 43.4916 27.7521 43.3542 27.7191C43.2169 27.6861 42.5244 27.7054 42.1953 27.7191C42.138 27.7191 42.0236 27.7521 42.0236 27.8839V33.4457C42.0379 33.4869 42.0922 33.5775 42.1953 33.6105C42.2983 33.6434 43.1539 33.6242 43.5688 33.6105C43.6261 33.5968 43.7577 33.5446 43.8264 33.4457L43.7835 29.161C44.0267 29.0237 44.6248 28.7655 45.0712 28.8315C45.6292 28.8727 45.8009 29.1336 45.8438 29.2846L45.8868 33.4457C45.9011 33.5006 45.9554 33.6105 46.0585 33.6105H47.475C47.5179 33.5968 47.6123 33.5446 47.6467 33.4457V29.161C47.847 29.01 48.3764 28.7243 48.8915 28.7903C49.4066 28.8562 49.6212 29.1748 49.6641 29.3258V33.3633C49.6641 33.432 49.6985 33.5775 49.8358 33.6105H51.3382C51.3811 33.583 51.467 33.4951 51.467 33.3633V29.0787C51.4383 28.5705 51.0549 27.5461 49.75 27.5131C48.4451 27.4801 47.661 27.9938 47.4321 28.2547C47.2747 28.0075 46.7453 27.5131 45.8868 27.5131C45.0283 27.5131 44.041 28.0075 43.6547 28.2547Z" fill="#00A8E1"/>
<path fill-rule="evenodd" clip-rule="evenodd" d="M54.1283 31.0974C54.071 31.8252 54.6605 33.0831 57.4764 32.2921C57.6481 32.2262 57.691 32.4569 57.691 32.5805V33.1985C57.5336 33.4045 56.9098 33.8165 55.6735 33.8165C53.2698 33.8165 52.583 32.2235 52.5401 31.427C52.3827 30.7678 52.3598 29.194 53.5273 28.1723C55.1756 26.9858 56.8182 27.6779 57.4335 28.1723C57.8198 28.5156 58.395 29.4494 57.6052 30.4382C56.8153 31.427 54.9581 31.2896 54.1283 31.0974ZM55.4589 28.7079C54.3944 28.7079 54.1283 29.6417 54.1283 30.1086C54.4574 30.1498 55.21 30.224 55.5877 30.191C55.9654 30.1581 56.203 29.9301 56.2745 29.8202C56.4462 29.4494 56.5235 28.7079 55.4589 28.7079Z" fill="#00A8E1"/>
<path fill-rule="evenodd" clip-rule="evenodd" d="M27 27.7191V36H28.3736C28.4165 36 28.5195 35.9753 28.5882 35.8764V33.2397C30.1335 34.3109 32.8807 33.7753 32.8807 30.5206C32.8807 27.5131 30.2193 26.8127 28.4165 28.2135C28.4022 28.0762 28.3221 27.785 28.116 27.7191H27ZM30.6915 29.1199C29.9704 28.4936 28.9888 28.8589 28.5882 29.1199V32.0861C29.6871 32.8112 30.4483 32.3883 30.6915 32.0861C31.0006 31.9543 31.0778 30.9875 31.0778 30.5206C31.1122 29.7955 30.8346 29.2846 30.6915 29.1199Z" fill="#00A8E1"/>
<g clip-path="url(#clip0)">
<rect width="179" height="326" transform="translate(326 21) rotate(90)" fill="url(#paint1_linear)"/>
<rect x="24.4313" y="89.4313" width="53.9091" height="13.8007" rx="6.90036" fill="#111111" fill-opacity="0.2"/>
<g clip-path="url(#clip1)">
<g clip-path="url(#clip2)">
<path d="M37.2124 95.6945C37.2124 95.2422 36.8917 94.8639 36.4667 94.7728C36.6365 94.4893 36.7407 94.1615 36.7407 93.8077C36.7407 92.7671 35.8945 91.9209 34.8539 91.9209C34.1383 91.9209 33.5232 92.3251 33.2029 92.9134C32.8827 92.3251 32.2676 91.9209 31.552 91.9209C30.5114 91.9209 29.6652 92.7671 29.6652 93.8077C29.6652 94.2332 29.8123 94.6224 30.0505 94.9379C29.9315 95.025 29.8346 95.1388 29.7676 95.2703C29.7007 95.4017 29.6656 95.547 29.6652 95.6945V99.4682C29.6652 99.9885 30.0883 100.412 30.6086 100.412H36.269C36.7893 100.412 37.2124 99.9885 37.2124 99.4682V98.2238L39.0993 99.1672V95.8653L37.2124 96.8087V95.6945ZM34.8539 92.8643C35.3742 92.8643 35.7973 93.2874 35.7973 93.8077C35.7973 94.328 35.3742 94.7511 34.8539 94.7511C34.3336 94.7511 33.9105 94.328 33.9105 93.8077C33.9105 93.2874 34.3336 92.8643 34.8539 92.8643ZM31.552 92.8643C32.0723 92.8643 32.4954 93.2874 32.4954 93.8077C32.4954 94.328 32.0723 94.7511 31.552 94.7511C31.0317 94.7511 30.6086 94.328 30.6086 93.8077C30.6086 93.2874 31.0317 92.8643 31.552 92.8643ZM30.6086 99.4682V95.6945H36.269L36.27 99.4682H30.6086Z" fill="white"/>
</g>
<path d="M49.4907 93.4978V94.2559H47.2164V100.725H46.2814V94.2559H44.0071V93.4978H49.4907ZM50.5065 100.725V95.4184H51.1383L51.305 96.0956C51.77 95.6441 52.3293 95.4184 52.983 95.4184V96.1967C52.3495 96.1967 51.8357 96.4207 51.4415 96.8689V100.725H50.5065ZM53.6703 99.1229C53.6703 98.0346 54.388 97.4905 55.8233 97.4905C56.2849 97.4905 56.7465 97.5242 57.2081 97.5916V97.0912C57.2081 96.4814 56.7313 96.1765 55.7778 96.1765C55.232 96.1765 54.6727 96.2607 54.0999 96.4292V95.6711C54.6727 95.5026 55.232 95.4184 55.7778 95.4184C57.3546 95.4184 58.1431 95.9676 58.1431 97.066V100.725H57.6175L57.294 100.199C56.765 100.55 56.1889 100.725 55.5655 100.725C54.302 100.725 53.6703 100.191 53.6703 99.1229ZM55.8233 98.2486C55.0113 98.2486 54.6053 98.535 54.6053 99.1078C54.6053 99.6805 54.9254 99.9669 55.5655 99.9669C56.2124 99.9669 56.76 99.7951 57.2081 99.4514V98.3497C56.7465 98.2823 56.2849 98.2486 55.8233 98.2486ZM60.7004 95.4184V100.725H59.7654V95.4184H60.7004ZM60.7004 93.4978V94.3823H59.7654V93.4978H60.7004ZM63.3082 93.4978V100.725H62.3732V93.4978H63.3082ZM67.0684 95.4184C68.5778 95.4184 69.3326 96.1647 69.3326 97.6573C69.3326 97.8695 69.3174 98.097 69.2871 98.3396H65.5623C65.5623 99.4245 66.1957 99.9669 67.4626 99.9669C68.0657 99.9669 68.6014 99.8996 69.0698 99.7648V100.523C68.6014 100.658 68.032 100.725 67.3615 100.725C65.5387 100.725 64.6273 99.8204 64.6273 98.011C64.6273 96.2826 65.441 95.4184 67.0684 95.4184ZM65.5623 97.5612H68.433C68.4128 96.6313 67.9579 96.1663 67.0684 96.1663C66.125 96.1663 65.623 96.6313 65.5623 97.5612ZM70.591 100.725V95.4184H71.2228L71.3895 96.0956C71.8545 95.6441 72.4138 95.4184 73.0675 95.4184V96.1967C72.434 96.1967 71.9202 96.4207 71.526 96.8689V100.725H70.591Z" fill="white"/>
</g>
<rect x="24.4313" y="89.4313" width="53.9091" height="13.8007" rx="6.90036" stroke="white" stroke-width="0.862546"/>
<path d="M25.0842 122.584V112.248H27.0719L30.5776 120.091L34.0109 112.248H35.9264V122.584H34.1555V115.385L31.351 122.584H29.7174L26.8551 115.385V122.584H25.0842ZM37.5527 120.221C37.5527 118.713 38.6514 117.958 40.8487 117.958C41.3643 117.958 41.8799 118.007 42.3955 118.103V117.532C42.3955 116.853 41.9064 116.513 40.9282 116.513C40.0994 116.513 39.179 116.633 38.1671 116.874V115.356C39.179 115.115 40.0994 114.995 40.9282 114.995C43.1834 114.995 44.311 115.829 44.311 117.496V122.584H43.1978L42.5184 121.905C41.8582 122.358 41.1306 122.584 40.3355 122.584C38.4803 122.584 37.5527 121.797 37.5527 120.221ZM42.3955 119.404C41.9136 119.308 41.398 119.26 40.8487 119.26C39.9283 119.26 39.4681 119.573 39.4681 120.199C39.4681 120.874 39.8536 121.211 40.6246 121.211C41.2607 121.211 41.851 121.014 42.3955 120.618V119.404ZM46.1252 122.584V114.995H47.607L47.8455 115.964C48.5105 115.318 49.214 114.995 49.9561 114.995V116.542C49.2429 116.542 48.6045 116.838 48.0407 117.431V122.584H46.1252ZM50.1368 114.995H52.1607L54.0038 120.3L55.9193 114.995H57.9432L54.8568 122.584H53.0353L50.1368 114.995ZM62.0487 114.995C64.3521 114.995 65.5038 116.171 65.5038 118.522C65.5038 118.835 65.4821 119.149 65.4387 119.462H60.4007C60.4007 120.532 61.1862 121.067 62.7571 121.067C63.5233 121.067 64.2894 120.994 65.0556 120.85V122.368C64.3858 122.512 63.5714 122.584 62.6125 122.584C59.861 122.584 58.4853 121.291 58.4853 118.703C58.4853 116.231 59.6731 114.995 62.0487 114.995ZM60.4007 118.132H63.6389V118.074C63.6389 117.024 63.1088 116.498 62.0487 116.498C61.0368 116.498 60.4875 117.043 60.4007 118.132ZM68.8576 112.248V122.584H66.9421V112.248H68.8576ZM72.2259 118.761C72.2259 120.346 72.8403 121.139 74.0691 121.139C75.2978 121.139 75.9122 120.346 75.9122 118.761C75.9122 117.214 75.2978 116.441 74.0691 116.441C72.8403 116.441 72.2259 117.214 72.2259 118.761ZM70.3104 118.79C70.3104 116.245 71.5633 114.973 74.0691 114.973C76.5748 114.973 77.8277 116.245 77.8277 118.79C77.8277 121.329 76.5748 122.599 74.0691 122.599C71.5729 122.599 70.3201 121.329 70.3104 118.79ZM86.1038 114.995V122.584H84.6076L84.3763 121.616C83.5041 122.262 82.5789 122.584 81.6007 122.584C80.0491 122.584 79.2733 121.667 79.2733 119.831V114.995H81.1887V119.78C81.1887 120.618 81.555 121.038 82.2874 121.038C82.909 121.038 83.5427 120.789 84.1884 120.293V114.995H86.1038ZM87.9181 122.223V120.633C88.7614 120.97 89.7348 121.139 90.8382 121.139C91.6622 121.139 92.0743 120.874 92.0743 120.344C92.0743 119.838 91.7972 119.585 91.243 119.585H89.8697C88.3277 119.585 87.5567 118.826 87.5567 117.308C87.5567 115.718 88.6819 114.923 90.9322 114.923C91.8863 114.923 92.785 115.067 93.6283 115.356V116.947C92.785 116.609 91.8695 116.441 90.8816 116.441C89.8456 116.441 89.3276 116.706 89.3276 117.236C89.3276 117.742 89.6287 117.995 90.2311 117.995H91.4599C93.1464 117.995 93.9897 118.754 93.9897 120.271C93.9897 121.862 92.9151 122.657 90.766 122.657C89.7107 122.657 88.7614 122.512 87.9181 122.223ZM98.7675 122.584V112.248H100.755L104.261 120.091L107.694 112.248H109.61V122.584H107.839V115.385L105.034 122.584H103.401L100.538 115.385V122.584H98.7675ZM111.236 120.221C111.236 118.713 112.335 117.958 114.532 117.958C115.048 117.958 115.563 118.007 116.079 118.103V117.532C116.079 116.853 115.59 116.513 114.611 116.513C113.783 116.513 112.862 116.633 111.85 116.874V115.356C112.862 115.115 113.783 114.995 114.611 114.995C116.867 114.995 117.994 115.829 117.994 117.496V122.584H116.881L116.202 121.905C115.541 122.358 114.814 122.584 114.019 122.584C112.164 122.584 111.236 121.797 111.236 120.221ZM116.079 119.404C115.597 119.308 115.081 119.26 114.532 119.26C113.612 119.26 113.151 119.573 113.151 120.199C113.151 120.874 113.537 121.211 114.308 121.211C114.944 121.211 115.534 121.014 116.079 120.618V119.404ZM121.724 112.248V113.766H119.808V112.248H121.724ZM121.724 114.995V122.584H119.808V114.995H121.724ZM123.538 122.223V120.633C124.381 120.97 125.355 121.139 126.458 121.139C127.282 121.139 127.694 120.874 127.694 120.344C127.694 119.838 127.417 119.585 126.863 119.585H125.49C123.948 119.585 123.177 118.826 123.177 117.308C123.177 115.718 124.302 114.923 126.552 114.923C127.506 114.923 128.405 115.067 129.248 115.356V116.947C128.405 116.609 127.49 116.441 126.502 116.441C125.466 116.441 124.948 116.706 124.948 117.236C124.948 117.742 125.249 117.995 125.851 117.995H127.08C128.766 117.995 129.61 118.754 129.61 120.271C129.61 121.862 128.535 122.657 126.386 122.657C125.331 122.657 124.381 122.512 123.538 122.223ZM134.156 114.995C136.46 114.995 137.611 116.171 137.611 118.522C137.611 118.835 137.59 119.149 137.546 119.462H132.508C132.508 120.532 133.294 121.067 134.865 121.067C135.631 121.067 136.397 120.994 137.163 120.85V122.368C136.493 122.512 135.679 122.584 134.72 122.584C131.969 122.584 130.593 121.291 130.593 118.703C130.593 116.231 131.781 114.995 134.156 114.995ZM132.508 118.132H135.746V118.074C135.746 117.024 135.216 116.498 134.156 116.498C133.144 116.498 132.595 117.043 132.508 118.132ZM140.965 112.248V122.584H139.05V112.248H140.965Z" fill="white"/>
<path d="M28.6259 133.663L27.3104 136.328L24.37 136.753L26.4979 138.829L25.9949 141.758L28.6259 140.376L31.2569 141.758L30.7539 138.829L32.8818 136.756L29.9414 136.328L28.6259 133.663Z" fill="#F39B13"/>
<path d="M37.8937 134.276C38.1771 134.276 38.4436 134.313 38.6932 134.387C38.9462 134.461 39.1671 134.572 39.356 134.721C39.5483 134.869 39.7001 135.055 39.8114 135.277C39.9227 135.5 39.9783 135.76 39.9783 136.057C39.9783 136.283 39.9446 136.487 39.8771 136.669C39.8097 136.851 39.7169 137.016 39.5989 137.165C39.4808 137.31 39.3408 137.441 39.1789 137.559C39.017 137.674 38.8416 137.779 38.6527 137.873C38.8483 137.978 39.0389 138.094 39.2244 138.222C39.4133 138.35 39.5803 138.495 39.7254 138.657C39.8738 138.816 39.9918 138.995 40.0795 139.194C40.1706 139.393 40.2161 139.615 40.2161 139.861C40.2161 140.172 40.1588 140.453 40.0441 140.706C39.9328 140.956 39.7743 141.169 39.5685 141.344C39.3661 141.519 39.1216 141.654 38.8348 141.749C38.5515 141.843 38.2378 141.89 37.8937 141.89C37.5227 141.89 37.1921 141.845 36.9021 141.754C36.6153 141.663 36.3725 141.533 36.1735 141.364C35.9778 141.192 35.8277 140.983 35.7232 140.737C35.622 140.491 35.5714 140.212 35.5714 139.902C35.5714 139.649 35.6085 139.421 35.6827 139.219C35.7603 139.016 35.8631 138.834 35.9913 138.672C36.1195 138.511 36.2713 138.367 36.4467 138.242C36.6221 138.118 36.8076 138.008 37.0032 137.913C36.838 137.809 36.6828 137.696 36.5378 137.574C36.3927 137.45 36.2662 137.311 36.1583 137.16C36.0537 137.008 35.9694 136.841 35.9053 136.659C35.8446 136.473 35.8142 136.269 35.8142 136.046C35.8142 135.753 35.8699 135.497 35.9812 135.277C36.0959 135.055 36.2494 134.869 36.4416 134.721C36.6339 134.572 36.8548 134.461 37.1044 134.387C37.3574 134.313 37.6205 134.276 37.8937 134.276ZM36.477 139.912C36.477 140.091 36.504 140.256 36.558 140.408C36.612 140.556 36.6963 140.684 36.811 140.792C36.9257 140.897 37.0707 140.98 37.2461 141.04C37.4215 141.098 37.6306 141.126 37.8735 141.126C38.1096 141.126 38.3171 141.098 38.4959 141.04C38.678 140.98 38.8298 140.895 38.9512 140.787C39.0727 140.676 39.1637 140.543 39.2244 140.388C39.2852 140.232 39.3155 140.06 39.3155 139.872C39.3155 139.696 39.2818 139.538 39.2143 139.396C39.1502 139.254 39.0558 139.123 38.931 139.001C38.8095 138.88 38.6628 138.765 38.4908 138.657C38.3188 138.549 38.1265 138.443 37.914 138.338L37.7622 138.268C37.3372 138.47 37.0167 138.703 36.8009 138.966C36.585 139.226 36.477 139.541 36.477 139.912ZM37.8836 135.045C37.5261 135.045 37.2411 135.134 37.0285 135.313C36.8194 135.492 36.7148 135.751 36.7148 136.092C36.7148 136.284 36.7435 136.45 36.8009 136.588C36.8616 136.726 36.9442 136.849 37.0488 136.957C37.1534 137.065 37.2782 137.163 37.4232 137.251C37.5716 137.335 37.7318 137.418 37.9039 137.499C38.0658 137.424 38.2176 137.343 38.3592 137.256C38.5043 137.168 38.6291 137.069 38.7337 136.957C38.8416 136.846 38.9259 136.719 38.9866 136.578C39.0474 136.436 39.0777 136.274 39.0777 136.092C39.0777 135.751 38.9715 135.492 38.759 135.313C38.5464 135.134 38.2547 135.045 37.8836 135.045ZM41.4861 141.228C41.4861 141.099 41.503 140.991 41.5367 140.904C41.5704 140.813 41.616 140.74 41.6733 140.686C41.7307 140.629 41.7981 140.588 41.8757 140.565C41.9533 140.538 42.0376 140.524 42.1287 140.524C42.2164 140.524 42.299 140.538 42.3766 140.565C42.4576 140.588 42.5267 140.629 42.5841 140.686C42.6414 140.74 42.6869 140.813 42.7207 140.904C42.7544 140.991 42.7713 141.099 42.7713 141.228C42.7713 141.352 42.7544 141.46 42.7207 141.551C42.6869 141.639 42.6414 141.712 42.5841 141.769C42.5267 141.826 42.4576 141.868 42.3766 141.895C42.299 141.922 42.2164 141.936 42.1287 141.936C42.0376 141.936 41.9533 141.922 41.8757 141.895C41.7981 141.868 41.7307 141.826 41.6733 141.769C41.616 141.712 41.5704 141.639 41.5367 141.551C41.503 141.46 41.4861 141.352 41.4861 141.228ZM46.3839 134.276C46.6672 134.276 46.9337 134.313 47.1833 134.387C47.4363 134.461 47.6572 134.572 47.8461 134.721C48.0384 134.869 48.1902 135.055 48.3015 135.277C48.4128 135.5 48.4685 135.76 48.4685 136.057C48.4685 136.283 48.4347 136.487 48.3673 136.669C48.2998 136.851 48.207 137.016 48.089 137.165C47.9709 137.31 47.8309 137.441 47.669 137.559C47.5071 137.674 47.3317 137.779 47.1428 137.873C47.3385 137.978 47.529 138.094 47.7146 138.222C47.9035 138.35 48.0704 138.495 48.2155 138.657C48.3639 138.816 48.482 138.995 48.5697 139.194C48.6607 139.393 48.7063 139.615 48.7063 139.861C48.7063 140.172 48.6489 140.453 48.5342 140.706C48.4229 140.956 48.2644 141.169 48.0586 141.344C47.8562 141.519 47.6117 141.654 47.325 141.749C47.0416 141.843 46.7279 141.89 46.3839 141.89C46.0128 141.89 45.6823 141.845 45.3922 141.754C45.1055 141.663 44.8626 141.533 44.6636 141.364C44.4679 141.192 44.3178 140.983 44.2133 140.737C44.1121 140.491 44.0615 140.212 44.0615 139.902C44.0615 139.649 44.0986 139.421 44.1728 139.219C44.2504 139.016 44.3533 138.834 44.4814 138.672C44.6096 138.511 44.7614 138.367 44.9368 138.242C45.1122 138.118 45.2977 138.008 45.4934 137.913C45.3281 137.809 45.1729 137.696 45.0279 137.574C44.8828 137.45 44.7564 137.311 44.6484 137.16C44.5438 137.008 44.4595 136.841 44.3954 136.659C44.3347 136.473 44.3044 136.269 44.3044 136.046C44.3044 135.753 44.36 135.497 44.4713 135.277C44.586 135.055 44.7395 134.869 44.9318 134.721C45.124 134.572 45.345 134.461 45.5946 134.387C45.8476 134.313 46.1107 134.276 46.3839 134.276ZM44.9672 139.912C44.9672 140.091 44.9942 140.256 45.0481 140.408C45.1021 140.556 45.1864 140.684 45.3011 140.792C45.4158 140.897 45.5608 140.98 45.7362 141.04C45.9116 141.098 46.1208 141.126 46.3636 141.126C46.5998 141.126 46.8072 141.098 46.986 141.04C47.1681 140.98 47.3199 140.895 47.4413 140.787C47.5628 140.676 47.6539 140.543 47.7146 140.388C47.7753 140.232 47.8056 140.06 47.8056 139.872C47.8056 139.696 47.7719 139.538 47.7045 139.396C47.6404 139.254 47.5459 139.123 47.4211 139.001C47.2997 138.88 47.1529 138.765 46.9809 138.657C46.8089 138.549 46.6166 138.443 46.4041 138.338L46.2523 138.268C45.8273 138.47 45.5069 138.703 45.291 138.966C45.0751 139.226 44.9672 139.541 44.9672 139.912ZM46.3738 135.045C46.0162 135.045 45.7312 135.134 45.5187 135.313C45.3095 135.492 45.205 135.751 45.205 136.092C45.205 136.284 45.2336 136.45 45.291 136.588C45.3517 136.726 45.4343 136.849 45.5389 136.957C45.6435 137.065 45.7683 137.163 45.9133 137.251C46.0617 137.335 46.222 137.418 46.394 137.499C46.5559 137.424 46.7077 137.343 46.8494 137.256C46.9944 137.168 47.1192 137.069 47.2238 136.957C47.3317 136.846 47.4161 136.719 47.4768 136.578C47.5375 136.436 47.5678 136.274 47.5678 136.092C47.5678 135.751 47.4616 135.492 47.2491 135.313C47.0366 135.134 46.7448 135.045 46.3738 135.045Z" fill="white"/>
<path d="M52.9789 134.554V141.789H52.0429V134.554H52.9789ZM54.856 141.789V134.554H56.0451L58.7014 140.59L61.3071 134.554H62.4455V141.789H61.6107V135.854L59.0404 141.789H58.3017L55.6909 135.854V141.789H54.856ZM66.7969 141.03C68.5677 141.03 69.4532 140.012 69.4532 137.974C69.4532 136.2 68.5677 135.313 66.7969 135.313H65.1019V141.03H66.7969ZM64.1658 141.789V134.554H66.7969C69.1918 134.554 70.3892 135.694 70.3892 137.974C70.3892 140.518 69.1918 141.789 66.7969 141.789H64.1658ZM72.5902 140.863C72.8971 140.961 73.2699 141.01 73.7084 141.01C74.889 141.01 75.4793 140.337 75.4793 138.991C75.4793 137.854 74.9446 137.286 73.8753 137.286C73.3896 137.286 72.9612 137.377 72.5902 137.559V140.863ZM71.6541 134.554H72.5902V136.73C72.9916 136.561 73.4217 136.477 73.8804 136.477C75.5602 136.477 76.4001 137.327 76.4001 139.027C76.4001 140.868 75.518 141.789 73.7539 141.789C72.9916 141.789 72.2917 141.717 71.6541 141.572V134.554Z" fill="white"/>
<path d="M29.3784 158.553H24.4149V157.465L26.1554 155.588C26.3747 155.352 26.5737 155.134 26.7525 154.935C26.9312 154.736 27.0847 154.542 27.2129 154.354C27.3411 154.165 27.4406 153.972 27.5114 153.777C27.5822 153.581 27.6177 153.37 27.6177 153.144C27.6177 152.895 27.5418 152.701 27.39 152.562C27.2416 152.424 27.0409 152.355 26.7879 152.355C26.5214 152.355 26.265 152.421 26.0188 152.552C25.7726 152.684 25.5145 152.871 25.2447 153.114L24.3947 152.107C24.5464 151.969 24.705 151.837 24.8703 151.712C25.0355 151.584 25.2177 151.471 25.4167 151.373C25.6157 151.276 25.835 151.198 26.0745 151.141C26.314 151.08 26.5821 151.05 26.879 151.05C27.2331 151.05 27.5502 151.098 27.8302 151.196C28.1135 151.294 28.3547 151.434 28.5537 151.616C28.7527 151.795 28.9045 152.013 29.0091 152.269C29.117 152.525 29.171 152.814 29.171 153.134C29.171 153.424 29.1204 153.703 29.0192 153.969C28.918 154.232 28.7797 154.492 28.6043 154.748C28.4289 155.001 28.2248 155.254 27.9921 155.507C27.7627 155.757 27.5165 156.011 27.2534 156.271L26.3629 157.167V157.238H29.3784V158.553ZM37.3828 156.499C37.3828 156.829 37.3255 157.128 37.2108 157.394C37.0995 157.657 36.9342 157.883 36.715 158.072C36.4991 158.258 36.2326 158.401 35.9155 158.502C35.6018 158.604 35.2409 158.654 34.8328 158.654C34.4752 158.654 34.1295 158.617 33.7955 158.543C33.465 158.469 33.158 158.357 32.8747 158.209V156.752C33.0366 156.829 33.2002 156.905 33.3655 156.979C33.5307 157.05 33.6977 157.114 33.8664 157.172C34.0384 157.229 34.2087 157.275 34.3774 157.308C34.5494 157.342 34.7198 157.359 34.8884 157.359C35.0604 157.359 35.2072 157.34 35.3286 157.303C35.4534 157.263 35.5529 157.209 35.6271 157.141C35.7047 157.071 35.7604 156.988 35.7941 156.893C35.8312 156.796 35.8497 156.689 35.8497 156.575C35.8497 156.436 35.8194 156.315 35.7587 156.21C35.7013 156.102 35.6187 156.003 35.5108 155.912C35.4062 155.817 35.278 155.726 35.1262 155.639C34.9778 155.551 34.8108 155.458 34.6253 155.36C34.4701 155.279 34.2964 155.182 34.1042 155.067C33.9119 154.952 33.7297 154.811 33.5577 154.642C33.3891 154.47 33.2474 154.264 33.1327 154.025C33.018 153.782 32.9607 153.492 32.9607 153.154C32.9607 152.824 33.0146 152.529 33.1226 152.269C33.2339 152.006 33.3907 151.785 33.5931 151.606C33.7955 151.424 34.0401 151.286 34.3268 151.191C34.6169 151.097 34.9407 151.05 35.2982 151.05C35.477 151.05 35.6507 151.061 35.8194 151.085C35.9914 151.109 36.1601 151.142 36.3254 151.186C36.494 151.23 36.6627 151.284 36.8313 151.348C37 151.412 37.1737 151.486 37.3525 151.571L36.8465 152.79C36.6947 152.719 36.553 152.657 36.4215 152.603C36.2899 152.549 36.1618 152.503 36.037 152.466C35.9122 152.429 35.789 152.402 35.6676 152.385C35.5495 152.365 35.4298 152.355 35.3084 152.355C35.0453 152.355 34.8429 152.426 34.7012 152.567C34.5629 152.706 34.4938 152.891 34.4938 153.124C34.4938 153.249 34.514 153.36 34.5545 153.458C34.5983 153.552 34.6658 153.642 34.7569 153.726C34.8513 153.81 34.9711 153.896 35.1161 153.984C35.2645 154.072 35.4433 154.171 35.6524 154.283C35.9054 154.418 36.1382 154.556 36.3507 154.698C36.5632 154.836 36.7453 154.991 36.8971 155.163C37.0523 155.332 37.172 155.524 37.2563 155.74C37.3407 155.956 37.3828 156.209 37.3828 156.499ZM40.9297 153.888C40.6564 153.888 40.4288 153.984 40.2466 154.176C40.0678 154.369 39.9649 154.671 39.938 155.082H41.9062C41.9028 154.91 41.8809 154.752 41.8404 154.606C41.7999 154.461 41.7392 154.337 41.6583 154.232C41.5773 154.124 41.4761 154.04 41.3547 153.979C41.2332 153.918 41.0916 153.888 40.9297 153.888ZM41.127 158.654C40.7222 158.654 40.3495 158.595 40.0088 158.477C39.6681 158.359 39.3747 158.182 39.1284 157.946C38.8822 157.706 38.6899 157.406 38.5516 157.045C38.4167 156.681 38.3492 156.254 38.3492 155.765C38.3492 155.269 38.4116 154.836 38.5364 154.465C38.6612 154.094 38.835 153.785 39.0576 153.539C39.2836 153.289 39.5534 153.102 39.8671 152.977C40.1842 152.852 40.535 152.79 40.9195 152.79C41.294 152.79 41.6313 152.847 41.9315 152.962C42.2351 153.073 42.4914 153.239 42.7005 153.458C42.913 153.677 43.075 153.947 43.1863 154.267C43.301 154.585 43.3583 154.949 43.3583 155.36V156.109H39.9076C39.9144 156.325 39.9481 156.521 40.0088 156.696C40.0729 156.868 40.1606 157.015 40.2719 157.136C40.3866 157.254 40.5232 157.345 40.6817 157.41C40.8436 157.474 41.0275 157.506 41.2332 157.506C41.4053 157.506 41.5672 157.497 41.719 157.48C41.8741 157.46 42.0242 157.431 42.1693 157.394C42.3143 157.357 42.4577 157.312 42.5993 157.258C42.741 157.2 42.8861 157.135 43.0345 157.06V158.255C42.8996 158.325 42.7629 158.386 42.6246 158.437C42.4897 158.484 42.3464 158.524 42.1946 158.558C42.0428 158.592 41.8792 158.615 41.7038 158.629C41.5284 158.646 41.3361 158.654 41.127 158.654ZM47.9474 158.553L47.6489 157.784H47.6034C47.4921 157.936 47.3807 158.067 47.2694 158.179C47.1581 158.287 47.0367 158.376 46.9051 158.447C46.7736 158.518 46.6252 158.57 46.4599 158.604C46.298 158.637 46.1091 158.654 45.8932 158.654C45.6638 158.654 45.4513 158.619 45.2557 158.548C45.06 158.474 44.8897 158.364 44.7446 158.219C44.603 158.071 44.4917 157.885 44.4107 157.663C44.3298 157.437 44.2893 157.17 44.2893 156.863C44.2893 156.263 44.4815 155.821 44.8661 155.537C45.2506 155.251 45.8257 155.092 46.5914 155.062L47.4921 155.032V154.606C47.4921 154.374 47.4246 154.202 47.2897 154.09C47.1547 153.979 46.9658 153.923 46.723 153.923C46.4801 153.923 46.2423 153.959 46.0096 154.03C45.7802 154.101 45.5491 154.195 45.3164 154.313L44.8155 153.291C45.0988 153.132 45.4125 153.008 45.7566 152.917C46.1006 152.825 46.4616 152.78 46.8394 152.78C47.5443 152.78 48.084 152.945 48.4584 153.276C48.8362 153.606 49.0251 154.109 49.0251 154.784V158.553H47.9474ZM47.4921 155.932L46.981 155.952C46.7753 155.959 46.6015 155.986 46.4599 156.033C46.3182 156.081 46.2035 156.145 46.1158 156.226C46.0315 156.303 45.9691 156.398 45.9286 156.509C45.8915 156.617 45.873 156.738 45.873 156.873C45.873 157.109 45.9303 157.278 46.045 157.379C46.1597 157.477 46.3098 157.526 46.4953 157.526C46.637 157.526 46.7685 157.502 46.8899 157.455C47.0114 157.404 47.1159 157.332 47.2036 157.238C47.2947 157.14 47.3656 157.022 47.4162 156.883C47.4668 156.742 47.4921 156.58 47.4921 156.398V155.932ZM54.3833 156.873C54.3833 157.17 54.3294 157.43 54.2214 157.652C54.1135 157.875 53.96 158.061 53.761 158.209C53.562 158.357 53.3208 158.469 53.0375 158.543C52.7541 158.617 52.437 158.654 52.0862 158.654C51.9007 158.654 51.7287 158.647 51.5701 158.634C51.4116 158.624 51.2615 158.605 51.1198 158.578C50.9782 158.551 50.8416 158.518 50.71 158.477C50.5785 158.437 50.4452 158.386 50.3103 158.325V157.05C50.452 157.121 50.6004 157.185 50.7555 157.243C50.9141 157.3 51.0709 157.351 51.2261 157.394C51.3813 157.435 51.5314 157.467 51.6764 157.491C51.8248 157.514 51.9614 157.526 52.0862 157.526C52.2245 157.526 52.3426 157.514 52.4404 157.491C52.5382 157.464 52.6175 157.428 52.6782 157.384C52.7423 157.337 52.7878 157.283 52.8148 157.222C52.8452 157.158 52.8604 157.091 52.8604 157.02C52.8604 156.949 52.8486 156.887 52.8249 156.833C52.8047 156.775 52.7558 156.716 52.6782 156.656C52.6006 156.592 52.4859 156.521 52.3342 156.443C52.1857 156.362 51.985 156.264 51.7321 156.15C51.4858 156.038 51.2716 155.929 51.0895 155.821C50.9107 155.71 50.7623 155.586 50.6442 155.451C50.5295 155.317 50.4435 155.163 50.3862 154.991C50.3288 154.816 50.3002 154.608 50.3002 154.369C50.3002 154.106 50.3508 153.876 50.452 153.681C50.5532 153.482 50.6965 153.316 50.882 153.185C51.0676 153.053 51.2902 152.955 51.5499 152.891C51.813 152.824 52.1048 152.79 52.4252 152.79C52.7625 152.79 53.083 152.829 53.3866 152.906C53.6901 152.984 54.0022 153.1 54.3226 153.256L53.8571 154.348C53.6008 154.227 53.3562 154.128 53.1235 154.05C52.8907 153.972 52.658 153.934 52.4252 153.934C52.2161 153.934 52.0643 153.971 51.9699 154.045C51.8788 154.119 51.8332 154.22 51.8332 154.348C51.8332 154.416 51.8451 154.477 51.8687 154.531C51.8923 154.581 51.9395 154.635 52.0103 154.693C52.0812 154.746 52.1807 154.807 52.3089 154.875C52.437 154.939 52.604 155.018 52.8098 155.112C53.0493 155.217 53.2651 155.322 53.4574 155.426C53.6497 155.527 53.815 155.644 53.9533 155.775C54.0915 155.907 54.1978 156.06 54.272 156.236C54.3462 156.411 54.3833 156.624 54.3833 156.873ZM56.8879 155.715C56.8879 156.278 56.9671 156.703 57.1257 156.99C57.2842 157.273 57.5422 157.415 57.8998 157.415C58.254 157.415 58.5103 157.271 58.6689 156.985C58.8274 156.698 58.9067 156.275 58.9067 155.715C58.9067 155.151 58.8274 154.731 58.6689 154.455C58.5103 154.175 58.2506 154.035 57.8897 154.035C57.5355 154.035 57.2791 154.175 57.1206 154.455C56.9654 154.731 56.8879 155.151 56.8879 155.715ZM60.4802 155.715C60.4802 156.187 60.4195 156.605 60.2981 156.969C60.18 157.334 60.008 157.641 59.782 157.89C59.5594 158.14 59.2861 158.33 58.9623 158.462C58.6419 158.59 58.281 158.654 57.8796 158.654C57.5051 158.654 57.1611 158.59 56.8474 158.462C56.5337 158.33 56.2621 158.14 56.0328 157.89C55.8068 157.641 55.6297 157.334 55.5015 156.969C55.3733 156.605 55.3092 156.187 55.3092 155.715C55.3092 155.246 55.3683 154.829 55.4863 154.465C55.6078 154.101 55.7798 153.795 56.0024 153.549C56.2284 153.299 56.5016 153.111 56.8221 152.982C57.1425 152.854 57.5051 152.79 57.9099 152.79C58.2843 152.79 58.6284 152.854 58.9421 152.982C59.2558 153.111 59.5256 153.299 59.7516 153.549C59.981 153.795 60.1598 154.101 60.288 154.465C60.4161 154.829 60.4802 155.246 60.4802 155.715ZM66.7239 158.553H65.1807V155.249C65.1807 154.841 65.1183 154.536 64.9935 154.333C64.872 154.128 64.6764 154.025 64.4065 154.025C64.2041 154.025 64.0355 154.065 63.9006 154.146C63.7656 154.227 63.6577 154.347 63.5767 154.505C63.4992 154.664 63.4435 154.859 63.4098 155.092C63.376 155.325 63.3592 155.591 63.3592 155.892V158.553H61.816V152.896H62.9949L63.2023 153.62H63.2883C63.3693 153.475 63.4671 153.35 63.5818 153.245C63.6999 153.141 63.828 153.055 63.9663 152.987C64.1046 152.92 64.2514 152.871 64.4065 152.841C64.5617 152.807 64.7202 152.79 64.8821 152.79C65.1587 152.79 65.41 152.831 65.636 152.912C65.862 152.989 66.056 153.112 66.2179 153.281C66.3798 153.45 66.5046 153.665 66.5923 153.929C66.68 154.188 66.7239 154.5 66.7239 154.865V158.553ZM72.082 156.873C72.082 157.17 72.0281 157.43 71.9201 157.652C71.8122 157.875 71.6587 158.061 71.4597 158.209C71.2607 158.357 71.0195 158.469 70.7362 158.543C70.4528 158.617 70.1358 158.654 69.785 158.654C69.5994 158.654 69.4274 158.647 69.2689 158.634C69.1103 158.624 68.9602 158.605 68.8186 158.578C68.6769 158.551 68.5403 158.518 68.4087 158.477C68.2772 158.437 68.1439 158.386 68.009 158.325V157.05C68.1507 157.121 68.2991 157.185 68.4543 157.243C68.6128 157.3 68.7697 157.351 68.9248 157.394C69.08 157.435 69.2301 157.467 69.3751 157.491C69.5235 157.514 69.6602 157.526 69.785 157.526C69.9233 157.526 70.0413 157.514 70.1391 157.491C70.237 157.464 70.3162 157.428 70.3769 157.384C70.441 157.337 70.4866 157.283 70.5136 157.222C70.5439 157.158 70.5591 157.091 70.5591 157.02C70.5591 156.949 70.5473 156.887 70.5237 156.833C70.5034 156.775 70.4545 156.716 70.3769 156.656C70.2994 156.592 70.1847 156.521 70.0329 156.443C69.8845 156.362 69.6838 156.264 69.4308 156.15C69.1845 156.038 68.9704 155.929 68.7882 155.821C68.6094 155.71 68.461 155.586 68.343 155.451C68.2283 155.317 68.1423 155.163 68.0849 154.991C68.0276 154.816 67.9989 154.608 67.9989 154.369C67.9989 154.106 68.0495 153.876 68.1507 153.681C68.2519 153.482 68.3952 153.316 68.5808 153.185C68.7663 153.053 68.9889 152.955 69.2486 152.891C69.5117 152.824 69.8035 152.79 70.124 152.79C70.4613 152.79 70.7817 152.829 71.0853 152.906C71.3889 152.984 71.7009 153.1 72.0213 153.256L71.5558 154.348C71.2995 154.227 71.0549 154.128 70.8222 154.05C70.5894 153.972 70.3567 153.934 70.124 153.934C69.9148 153.934 69.763 153.971 69.6686 154.045C69.5775 154.119 69.532 154.22 69.532 154.348C69.532 154.416 69.5438 154.477 69.5674 154.531C69.591 154.581 69.6382 154.635 69.7091 154.693C69.7799 154.746 69.8794 154.807 70.0076 154.875C70.1358 154.939 70.3027 155.018 70.5085 155.112C70.748 155.217 70.9639 155.322 71.1561 155.426C71.3484 155.527 71.5137 155.644 71.652 155.775C71.7903 155.907 71.8965 156.06 71.9707 156.236C72.0449 156.411 72.082 156.624 72.082 156.873Z" fill="white"/>
<path d="M88.5378 153.215C88.28 153.215 88.0463 153.265 87.8366 153.363C87.627 153.46 87.4475 153.6 87.2981 153.783C87.1512 153.966 87.0367 154.189 86.9548 154.451C86.8753 154.714 86.8355 155.01 86.8355 155.34C86.8355 155.68 86.8705 155.982 86.9404 156.247C87.0126 156.51 87.1199 156.732 87.262 156.912C87.4042 157.093 87.5812 157.23 87.7933 157.324C88.0053 157.418 88.2535 157.465 88.5378 157.465C88.7522 157.465 88.9558 157.445 89.1485 157.404C89.3413 157.361 89.5316 157.311 89.7196 157.256V157.841C89.6256 157.877 89.5316 157.91 89.4377 157.939C89.3437 157.965 89.2449 157.987 89.1413 158.004C89.0401 158.021 88.9305 158.033 88.8124 158.04C88.6968 158.05 88.5679 158.054 88.4257 158.054C88.0306 158.054 87.6885 157.989 87.3993 157.859C87.1102 157.729 86.8705 157.545 86.6801 157.306C86.4922 157.068 86.3525 156.781 86.2609 156.446C86.1694 156.111 86.1236 155.74 86.1236 155.333C86.1236 154.933 86.1754 154.567 86.279 154.234C86.385 153.902 86.5392 153.616 86.7416 153.378C86.9464 153.139 87.1994 152.954 87.5005 152.821C87.8017 152.689 88.1474 152.623 88.5378 152.623C88.798 152.623 89.0461 152.649 89.2823 152.702C89.5184 152.755 89.7316 152.832 89.9219 152.933L89.64 153.497C89.4883 153.42 89.3232 153.354 89.1449 153.298C88.9666 153.243 88.7642 153.215 88.5378 153.215ZM92.8529 153.215C92.5951 153.215 92.3614 153.265 92.1518 153.363C91.9422 153.46 91.7627 153.6 91.6133 153.783C91.4663 153.966 91.3519 154.189 91.27 154.451C91.1905 154.714 91.1507 155.01 91.1507 155.34C91.1507 155.68 91.1857 155.982 91.2555 156.247C91.3278 156.51 91.435 156.732 91.5772 156.912C91.7193 157.093 91.8964 157.23 92.1084 157.324C92.3205 157.418 92.5686 157.465 92.8529 157.465C93.0674 157.465 93.271 157.445 93.4637 157.404C93.6565 157.361 93.8468 157.311 94.0347 157.256V157.841C93.9408 157.877 93.8468 157.91 93.7528 157.939C93.6589 157.965 93.5601 157.987 93.4565 158.004C93.3553 158.021 93.2457 158.033 93.1276 158.04C93.012 158.05 92.8831 158.054 92.7409 158.054C92.3458 158.054 92.0036 157.989 91.7145 157.859C91.4254 157.729 91.1857 157.545 90.9953 157.306C90.8074 157.068 90.6676 156.781 90.5761 156.446C90.4845 156.111 90.4388 155.74 90.4388 155.333C90.4388 154.933 90.4906 154.567 90.5942 154.234C90.7002 153.902 90.8544 153.616 91.0568 153.378C91.2616 153.139 91.5145 152.954 91.8157 152.821C92.1169 152.689 92.4626 152.623 92.8529 152.623C93.1132 152.623 93.3613 152.649 93.5974 152.702C93.8336 152.755 94.0468 152.832 94.2371 152.933L93.9552 153.497C93.8034 153.42 93.6384 153.354 93.4601 153.298C93.2818 153.243 93.0794 153.215 92.8529 153.215Z" fill="white"/>
<rect x="82.2913" y="150.242" width="15.5433" height="9.62205" rx="1.85039" stroke="white" stroke-width="0.740158"/>
<path d="M110.573 157.982H109.937V154.683C109.937 154.579 109.937 154.468 109.937 154.35C109.939 154.232 109.941 154.115 109.944 153.999C109.949 153.881 109.952 153.769 109.955 153.663C109.959 153.555 109.963 153.46 109.965 153.378C109.924 153.421 109.888 153.459 109.857 153.49C109.826 153.521 109.793 153.551 109.759 153.58C109.728 153.609 109.694 153.64 109.658 153.674C109.622 153.706 109.579 153.743 109.528 153.786L108.993 154.224L108.646 153.779L110.031 152.698H110.573V157.982ZM112.488 155.723C112.488 155.47 112.5 155.219 112.524 154.968C112.551 154.717 112.595 154.478 112.658 154.249C112.723 154.018 112.811 153.803 112.922 153.606C113.033 153.408 113.174 153.237 113.345 153.092C113.516 152.945 113.72 152.831 113.959 152.749C114.198 152.665 114.477 152.623 114.797 152.623C114.843 152.623 114.894 152.624 114.949 152.626C115.005 152.629 115.06 152.633 115.115 152.641C115.173 152.645 115.228 152.653 115.278 152.662C115.331 152.67 115.378 152.679 115.419 152.691V153.251C115.335 153.222 115.24 153.201 115.134 153.186C115.028 153.172 114.923 153.165 114.819 153.165C114.602 153.165 114.411 153.191 114.244 153.244C114.081 153.295 113.939 153.367 113.818 153.461C113.698 153.555 113.596 153.667 113.514 153.797C113.435 153.927 113.37 154.072 113.319 154.231C113.269 154.387 113.231 154.555 113.207 154.733C113.183 154.911 113.168 155.097 113.16 155.29H113.204C113.252 155.203 113.31 155.122 113.377 155.048C113.447 154.97 113.528 154.905 113.619 154.852C113.711 154.797 113.813 154.754 113.926 154.722C114.042 154.691 114.171 154.675 114.313 154.675C114.542 154.675 114.749 154.711 114.935 154.784C115.12 154.854 115.278 154.957 115.408 155.095C115.538 155.232 115.638 155.401 115.708 155.601C115.78 155.798 115.817 156.025 115.817 156.28C115.817 156.555 115.779 156.802 115.705 157.021C115.63 157.24 115.523 157.427 115.383 157.581C115.243 157.733 115.075 157.85 114.877 157.932C114.679 158.013 114.458 158.054 114.212 158.054C113.971 158.054 113.745 158.007 113.533 157.914C113.323 157.82 113.141 157.676 112.987 157.483C112.833 157.291 112.711 157.049 112.622 156.757C112.533 156.465 112.488 156.121 112.488 155.723ZM114.205 157.502C114.349 157.502 114.481 157.477 114.599 157.429C114.719 157.379 114.823 157.304 114.909 157.205C114.996 157.104 115.062 156.977 115.108 156.826C115.156 156.671 115.181 156.49 115.181 156.28C115.181 156.111 115.16 155.961 115.119 155.828C115.081 155.693 115.022 155.579 114.942 155.485C114.862 155.391 114.763 155.319 114.642 155.268C114.524 155.217 114.385 155.192 114.226 155.192C114.065 155.192 113.917 155.221 113.782 155.279C113.649 155.334 113.536 155.408 113.442 155.499C113.348 155.588 113.275 155.691 113.222 155.807C113.171 155.922 113.146 156.038 113.146 156.153C113.146 156.315 113.168 156.476 113.211 156.638C113.257 156.797 113.323 156.94 113.41 157.068C113.499 157.196 113.61 157.3 113.742 157.382C113.875 157.462 114.029 157.502 114.205 157.502ZM117.924 155.644H116.525V155.102H117.924V153.696H118.466V155.102H119.864V155.644H118.466V157.035H117.924V155.644Z" fill="white"/>
<rect x="104.496" y="150.242" width="19.2441" height="9.62205" rx="1.85039" stroke="white" stroke-width="0.740158"/>
<circle cx="25.1102" cy="172.474" r="1.11024" fill="#E1E1E1" fill-opacity="0.5"/>
<path d="M34.6203 170.743C34.6203 171.05 34.5731 171.345 34.4786 171.628C34.3876 171.911 34.2358 172.163 34.0233 172.382C33.8108 172.598 33.5291 172.772 33.1783 172.903C32.8309 173.031 32.4008 173.095 31.8881 173.095H31.1291V175.974H30.188V168.577H32.0196C32.4716 168.577 32.8612 168.626 33.1884 168.724C33.5156 168.818 33.7855 168.958 33.998 169.144C34.2105 169.326 34.3673 169.552 34.4685 169.822C34.5697 170.092 34.6203 170.399 34.6203 170.743ZM31.1291 172.296H31.7818C32.0955 172.296 32.3687 172.269 32.6015 172.215C32.8376 172.161 33.0316 172.075 33.1834 171.957C33.3385 171.835 33.4549 171.68 33.5325 171.491C33.6101 171.299 33.6488 171.066 33.6488 170.793C33.6488 170.314 33.5105 169.96 33.2339 169.731C32.9574 169.498 32.5256 169.382 31.9387 169.382H31.1291V172.296ZM38.2278 176.075C37.8568 176.075 37.5178 176.013 37.2108 175.888C36.9039 175.763 36.6391 175.581 36.4165 175.342C36.1972 175.102 36.0269 174.806 35.9055 174.451C35.784 174.097 35.7233 173.692 35.7233 173.237C35.7233 172.778 35.779 172.368 35.8903 172.008C36.0016 171.647 36.1584 171.341 36.3608 171.092C36.5632 170.839 36.8044 170.646 37.0844 170.515C37.3677 170.383 37.6797 170.318 38.0204 170.318C38.3543 170.318 38.6545 170.378 38.921 170.5C39.1875 170.618 39.4135 170.786 39.599 171.006C39.7845 171.222 39.9262 171.483 40.024 171.79C40.1252 172.094 40.1758 172.431 40.1758 172.802V173.374H36.6745C36.6914 174.025 36.828 174.504 37.0844 174.811C37.3441 175.118 37.7286 175.271 38.238 175.271C38.41 175.271 38.5685 175.263 38.7136 175.246C38.862 175.229 39.0037 175.205 39.1386 175.175C39.2769 175.141 39.4101 175.101 39.5383 175.053C39.6665 175.003 39.7963 174.947 39.9279 174.886V175.706C39.793 175.77 39.6597 175.826 39.5282 175.873C39.4 175.92 39.2668 175.959 39.1285 175.989C38.9935 176.02 38.8519 176.042 38.7035 176.055C38.5584 176.069 38.3999 176.075 38.2278 176.075ZM38.0002 171.082C37.6156 171.082 37.3104 171.213 37.0844 171.476C36.8617 171.739 36.7319 172.122 36.6948 172.625H39.1841C39.1841 172.395 39.1605 172.186 39.1133 171.997C39.0694 171.805 38.9986 171.642 38.9008 171.507C38.8063 171.372 38.6849 171.267 38.5365 171.193C38.3881 171.119 38.2093 171.082 38.0002 171.082ZM43.9807 170.318C44.0785 170.318 44.1881 170.323 44.3096 170.333C44.431 170.34 44.5356 170.351 44.6233 170.368L44.5018 171.218C44.4074 171.201 44.3096 171.188 44.2084 171.178C44.1106 171.164 44.0178 171.157 43.9301 171.157C43.7176 171.157 43.5236 171.201 43.3482 171.289C43.1728 171.373 43.021 171.496 42.8929 171.658C42.7681 171.817 42.6702 172.009 42.5994 172.235C42.5319 172.458 42.4982 172.706 42.4982 172.979V175.974H41.5773V170.419H42.3262L42.4375 171.436H42.478C42.5623 171.291 42.6517 171.151 42.7461 171.016C42.8439 170.881 42.9519 170.763 43.0699 170.662C43.1914 170.557 43.3263 170.474 43.4747 170.414C43.6231 170.35 43.7918 170.318 43.9807 170.318ZM46.637 175.974H45.7162V170.419H46.637V175.974ZM45.6453 168.916C45.6453 168.714 45.6959 168.567 45.7971 168.476C45.9017 168.385 46.0299 168.339 46.1816 168.339C46.2559 168.339 46.325 168.351 46.3891 168.375C46.4566 168.395 46.5139 168.429 46.5611 168.476C46.6117 168.523 46.6505 168.584 46.6775 168.658C46.7079 168.729 46.723 168.815 46.723 168.916C46.723 169.112 46.6691 169.258 46.5611 169.356C46.4566 169.451 46.3301 169.498 46.1816 169.498C46.0299 169.498 45.9017 169.451 45.7971 169.356C45.6959 169.262 45.6453 169.115 45.6453 168.916ZM52.9262 173.186C52.9262 173.649 52.8688 174.06 52.7542 174.421C52.6428 174.779 52.4809 175.08 52.2684 175.327C52.0593 175.57 51.8046 175.755 51.5044 175.883C51.2042 176.011 50.8669 176.075 50.4925 176.075C50.1451 176.075 49.8246 176.011 49.5311 175.883C49.2377 175.755 48.983 175.57 48.7671 175.327C48.5546 175.08 48.3877 174.779 48.2662 174.421C48.1482 174.06 48.0891 173.649 48.0891 173.186C48.0891 172.728 48.1448 172.321 48.2561 171.967C48.3708 171.609 48.5327 171.309 48.7418 171.066C48.951 170.82 49.2056 170.635 49.5058 170.51C49.8094 170.382 50.1484 170.318 50.5228 170.318C50.8703 170.318 51.1907 170.382 51.4842 170.51C51.7776 170.635 52.0306 170.82 52.2431 171.066C52.459 171.309 52.626 171.609 52.744 171.967C52.8655 172.321 52.9262 172.728 52.9262 173.186ZM49.0404 173.186C49.0404 173.891 49.155 174.423 49.3844 174.78C49.6172 175.134 49.9933 175.311 50.5127 175.311C51.0322 175.311 51.4049 175.134 51.6309 174.78C51.8603 174.423 51.975 173.891 51.975 173.186C51.975 172.481 51.8586 171.955 51.6259 171.608C51.3965 171.257 51.0221 171.082 50.5026 171.082C49.9831 171.082 49.6087 171.257 49.3794 171.608C49.1534 171.955 49.0404 172.481 49.0404 173.186ZM57.8088 175.231H57.7683C57.6941 175.345 57.6064 175.455 57.5052 175.559C57.4074 175.661 57.2927 175.75 57.1611 175.828C57.033 175.905 56.8879 175.966 56.726 176.01C56.5641 176.054 56.3819 176.075 56.1796 176.075C55.8659 176.075 55.5791 176.015 55.3194 175.893C55.0597 175.772 54.8371 175.591 54.6515 175.352C54.466 175.109 54.3227 174.809 54.2215 174.451C54.1203 174.094 54.0697 173.679 54.0697 173.207C54.0697 172.731 54.1203 172.314 54.2215 171.957C54.3227 171.596 54.466 171.294 54.6515 171.051C54.8371 170.808 55.0597 170.626 55.3194 170.505C55.5791 170.38 55.8659 170.318 56.1796 170.318C56.3786 170.318 56.559 170.34 56.7209 170.383C56.8828 170.427 57.0279 170.486 57.1561 170.56C57.2876 170.635 57.404 170.721 57.5052 170.818C57.6064 170.916 57.6941 171.019 57.7683 171.127H57.829C57.8189 171.012 57.8088 170.903 57.7986 170.798C57.7919 170.711 57.7852 170.621 57.7784 170.53C57.7717 170.436 57.7683 170.361 57.7683 170.307V168.101H58.6892V175.974H57.9454L57.8088 175.231ZM56.3566 175.311C56.613 175.311 56.8289 175.273 57.0043 175.195C57.1831 175.118 57.3264 174.999 57.4344 174.841C57.5457 174.682 57.6266 174.485 57.6772 174.249C57.7312 174.009 57.7615 173.731 57.7683 173.414V173.207C57.7683 172.866 57.7447 172.564 57.6975 172.301C57.6536 172.035 57.576 171.812 57.4647 171.633C57.3568 171.451 57.2117 171.314 57.0296 171.223C56.8474 171.129 56.6197 171.082 56.3465 171.082C55.8912 171.082 55.5555 171.265 55.3396 171.633C55.1271 172.001 55.0209 172.529 55.0209 173.217C55.0209 173.922 55.1271 174.448 55.3396 174.795C55.5555 175.139 55.8945 175.311 56.3566 175.311ZM66.5721 175.231H66.5316C66.4574 175.345 66.3697 175.455 66.2685 175.559C66.1707 175.661 66.056 175.75 65.9245 175.828C65.7963 175.905 65.6513 175.966 65.4893 176.01C65.3274 176.054 65.1453 176.075 64.9429 176.075C64.6292 176.075 64.3425 176.015 64.0828 175.893C63.823 175.772 63.6004 175.591 63.4149 175.352C63.2294 175.109 63.086 174.809 62.9848 174.451C62.8836 174.094 62.833 173.679 62.833 173.207C62.833 172.731 62.8836 172.314 62.9848 171.957C63.086 171.596 63.2294 171.294 63.4149 171.051C63.6004 170.808 63.823 170.626 64.0828 170.505C64.3425 170.38 64.6292 170.318 64.9429 170.318C65.1419 170.318 65.3224 170.34 65.4843 170.383C65.6462 170.427 65.7912 170.486 65.9194 170.56C66.051 170.635 66.1673 170.721 66.2685 170.818C66.3697 170.916 66.4574 171.019 66.5316 171.127H66.5924C66.5822 171.012 66.5721 170.903 66.562 170.798C66.5553 170.711 66.5485 170.621 66.5418 170.53C66.535 170.436 66.5316 170.361 66.5316 170.307V168.101H67.4525V175.974H66.7087L66.5721 175.231ZM65.12 175.311C65.3764 175.311 65.5922 175.273 65.7676 175.195C65.9464 175.118 66.0898 174.999 66.1977 174.841C66.309 174.682 66.39 174.485 66.4406 174.249C66.4945 174.009 66.5249 173.731 66.5316 173.414V173.207C66.5316 172.866 66.508 172.564 66.4608 172.301C66.417 172.035 66.3394 171.812 66.2281 171.633C66.1201 171.451 65.9751 171.314 65.7929 171.223C65.6108 171.129 65.3831 171.082 65.1099 171.082C64.6545 171.082 64.3189 171.265 64.103 171.633C63.8905 172.001 63.7842 172.529 63.7842 173.217C63.7842 173.922 63.8905 174.448 64.103 174.795C64.3189 175.139 64.6579 175.311 65.12 175.311ZM71.6166 170.318C71.7144 170.318 71.8241 170.323 71.9455 170.333C72.0669 170.34 72.1715 170.351 72.2592 170.368L72.1378 171.218C72.0433 171.201 71.9455 171.188 71.8443 171.178C71.7465 171.164 71.6537 171.157 71.566 171.157C71.3535 171.157 71.1596 171.201 70.9842 171.289C70.8088 171.373 70.657 171.496 70.5288 171.658C70.404 171.817 70.3062 172.009 70.2353 172.235C70.1679 172.458 70.1341 172.706 70.1341 172.979V175.974H69.2133V170.419H69.9621L70.0734 171.436H70.1139C70.1982 171.291 70.2876 171.151 70.3821 171.016C70.4799 170.881 70.5878 170.763 70.7059 170.662C70.8273 170.557 70.9622 170.474 71.1106 170.414C71.2591 170.35 71.4277 170.318 71.6166 170.318ZM76.3828 175.974L76.1956 175.205H76.1551C76.0438 175.357 75.9325 175.489 75.8212 175.6C75.7099 175.708 75.5885 175.797 75.4569 175.868C75.3254 175.939 75.1786 175.991 75.0167 176.025C74.8548 176.059 74.6676 176.075 74.4551 176.075C74.2223 176.075 74.0081 176.042 73.8125 175.974C73.6169 175.91 73.4465 175.811 73.3015 175.676C73.1598 175.537 73.0485 175.365 72.9675 175.16C72.8866 174.951 72.8461 174.704 72.8461 174.421C72.8461 173.868 73.0401 173.443 73.428 173.146C73.8193 172.849 74.4129 172.687 75.209 172.66L76.14 172.625V172.276C76.14 172.05 76.1147 171.861 76.0641 171.709C76.0168 171.557 75.946 171.436 75.8516 171.345C75.7605 171.25 75.6458 171.183 75.5075 171.142C75.3726 171.102 75.2174 171.082 75.042 171.082C74.762 171.082 74.5006 171.122 74.2578 171.203C74.0183 171.284 73.7872 171.382 73.5646 171.496L73.2408 170.803C73.4904 170.668 73.7687 170.554 74.0756 170.459C74.3826 170.365 74.7047 170.318 75.042 170.318C75.3861 170.318 75.6829 170.353 75.9325 170.424C76.1855 170.491 76.3929 170.601 76.5549 170.753C76.7201 170.901 76.8433 171.092 76.9242 171.324C77.0052 171.557 77.0456 171.839 77.0456 172.169V175.974H76.3828ZM74.6929 175.332C74.8987 175.332 75.0892 175.3 75.2646 175.236C75.44 175.172 75.5918 175.075 75.72 174.947C75.8482 174.816 75.9477 174.652 76.0185 174.456C76.0927 174.257 76.1298 174.025 76.1298 173.758V173.257L75.4063 173.293C75.1027 173.306 74.8481 173.34 74.6423 173.394C74.4365 173.448 74.2713 173.524 74.1464 173.622C74.025 173.716 73.9373 173.832 73.8833 173.971C73.8294 174.106 73.8024 174.259 73.8024 174.431C73.8024 174.741 73.8833 174.969 74.0453 175.114C74.2105 175.259 74.4264 175.332 74.6929 175.332ZM85.4093 175.974V172.397C85.4093 171.959 85.3249 171.63 85.1563 171.41C84.9876 171.191 84.7262 171.082 84.372 171.082C84.1258 171.082 83.9167 171.122 83.7446 171.203C83.5726 171.281 83.4309 171.397 83.3196 171.552C83.2117 171.704 83.1324 171.895 83.0818 172.124C83.0312 172.35 83.0059 172.611 83.0059 172.908V175.974H82.08V172.397C82.08 171.959 81.9957 171.63 81.827 171.41C81.6617 171.191 81.402 171.082 81.0478 171.082C80.7881 171.082 80.5705 171.125 80.3951 171.213C80.2197 171.301 80.0781 171.431 79.9701 171.603C79.8656 171.775 79.7897 171.986 79.7424 172.235C79.6986 172.485 79.6767 172.772 79.6767 173.095V175.974H78.7558V170.419H79.5046L79.6362 171.168H79.6868C79.7677 171.023 79.8639 170.898 79.9752 170.793C80.0865 170.685 80.2079 170.596 80.3395 170.525C80.4744 170.454 80.6161 170.402 80.7645 170.368C80.9163 170.334 81.0698 170.318 81.2249 170.318C81.6297 170.318 81.9653 170.392 82.2318 170.54C82.5016 170.689 82.7007 170.921 82.8288 171.238H82.8693C82.957 171.08 83.0616 170.943 83.183 170.829C83.3078 170.714 83.4427 170.619 83.5878 170.545C83.7362 170.468 83.8914 170.41 84.0533 170.373C84.2152 170.336 84.3805 170.318 84.5491 170.318C85.1394 170.318 85.583 170.48 85.8798 170.803C86.18 171.124 86.3301 171.638 86.3301 172.347V175.974H85.4093ZM91.1773 175.974L90.9901 175.205H90.9496C90.8383 175.357 90.727 175.489 90.6157 175.6C90.5044 175.708 90.3829 175.797 90.2514 175.868C90.1198 175.939 89.9731 175.991 89.8112 176.025C89.6493 176.059 89.4621 176.075 89.2496 176.075C89.0168 176.075 88.8026 176.042 88.607 175.974C88.4113 175.91 88.241 175.811 88.096 175.676C87.9543 175.537 87.843 175.365 87.762 175.16C87.6811 174.951 87.6406 174.704 87.6406 174.421C87.6406 173.868 87.8345 173.443 88.2224 173.146C88.6137 172.849 89.2074 172.687 90.0035 172.66L90.9344 172.625V172.276C90.9344 172.05 90.9091 171.861 90.8585 171.709C90.8113 171.557 90.7405 171.436 90.646 171.345C90.555 171.25 90.4403 171.183 90.302 171.142C90.167 171.102 90.0119 171.082 89.8365 171.082C89.5565 171.082 89.2951 171.122 89.0522 171.203C88.8127 171.284 88.5817 171.382 88.3591 171.496L88.0352 170.803C88.2849 170.668 88.5631 170.554 88.8701 170.459C89.177 170.365 89.4992 170.318 89.8365 170.318C90.1805 170.318 90.4774 170.353 90.727 170.424C90.98 170.491 91.1874 170.601 91.3493 170.753C91.5146 170.901 91.6377 171.092 91.7187 171.324C91.7996 171.557 91.8401 171.839 91.8401 172.169V175.974H91.1773ZM89.4874 175.332C89.6931 175.332 89.8837 175.3 90.0591 175.236C90.2345 175.172 90.3863 175.075 90.5145 174.947C90.6427 174.816 90.7422 174.652 90.813 174.456C90.8872 174.257 90.9243 174.025 90.9243 173.758V173.257L90.2008 173.293C89.8972 173.306 89.6425 173.34 89.4368 173.394C89.231 173.448 89.0657 173.524 88.9409 173.622C88.8195 173.716 88.7318 173.832 88.6778 173.971C88.6238 174.106 88.5969 174.259 88.5969 174.431C88.5969 174.741 88.6778 174.969 88.8397 175.114C89.005 175.259 89.2209 175.332 89.4874 175.332Z" fill="white"/>
<g clip-path="url(#clip3)">
<circle cx="104.693" cy="172.474" r="1.11024" fill="#E1E1E1" fill-opacity="0.5"/>
<path d="M113.667 174.496C113.667 174.823 113.608 175.117 113.49 175.376C113.375 175.633 113.21 175.85 112.994 176.029C112.778 176.208 112.515 176.344 112.204 176.439C111.894 176.53 111.545 176.575 111.157 176.575C110.783 176.575 110.432 176.545 110.105 176.484C109.781 176.427 109.509 176.341 109.29 176.226V175.326C109.405 175.38 109.535 175.434 109.68 175.488C109.828 175.538 109.983 175.584 110.145 175.624C110.307 175.665 110.474 175.698 110.646 175.725C110.818 175.749 110.988 175.761 111.157 175.761C111.697 175.761 112.095 175.66 112.351 175.457C112.611 175.255 112.741 174.965 112.741 174.587C112.741 174.405 112.715 174.246 112.665 174.111C112.618 173.977 112.532 173.853 112.407 173.742C112.285 173.627 112.122 173.518 111.916 173.413C111.71 173.305 111.45 173.189 111.137 173.064C110.837 172.946 110.575 172.818 110.353 172.68C110.133 172.538 109.951 172.379 109.806 172.204C109.664 172.029 109.558 171.83 109.487 171.607C109.42 171.384 109.386 171.131 109.386 170.848C109.386 170.551 109.44 170.286 109.548 170.054C109.656 169.821 109.808 169.625 110.003 169.467C110.199 169.305 110.432 169.182 110.702 169.097C110.975 169.013 111.275 168.971 111.602 168.971C112.004 168.971 112.365 169.01 112.685 169.087C113.005 169.161 113.291 169.258 113.54 169.376L113.201 170.165C112.982 170.067 112.732 169.983 112.452 169.912C112.176 169.838 111.889 169.801 111.592 169.801C111.181 169.801 110.862 169.897 110.636 170.089C110.41 170.278 110.297 170.534 110.297 170.858C110.297 171.05 110.322 171.217 110.373 171.359C110.423 171.497 110.508 171.624 110.626 171.738C110.744 171.85 110.899 171.956 111.091 172.057C111.287 172.155 111.526 172.26 111.81 172.371C112.117 172.492 112.385 172.617 112.614 172.745C112.847 172.874 113.041 173.019 113.196 173.18C113.351 173.342 113.468 173.53 113.545 173.742C113.626 173.955 113.667 174.206 113.667 174.496ZM118.625 176.474L118.488 175.731H118.438C118.354 175.876 118.252 176.002 118.134 176.11C118.02 176.215 117.893 176.302 117.755 176.373C117.617 176.441 117.47 176.491 117.315 176.525C117.159 176.559 117.001 176.575 116.839 176.575C116.532 176.575 116.262 176.537 116.029 176.459C115.797 176.382 115.603 176.26 115.448 176.095C115.292 175.93 115.174 175.719 115.093 175.462C115.016 175.206 114.977 174.901 114.977 174.547V170.919H115.898V174.496C115.898 174.934 115.987 175.263 116.166 175.483C116.345 175.702 116.621 175.811 116.996 175.811C117.269 175.811 117.498 175.768 117.684 175.68C117.87 175.592 118.018 175.464 118.129 175.295C118.244 175.123 118.325 174.913 118.372 174.663C118.423 174.413 118.448 174.127 118.448 173.803V170.919H119.369V176.474H118.625ZM124.454 174.951C124.454 175.221 124.405 175.457 124.307 175.66C124.209 175.862 124.068 176.032 123.882 176.171C123.7 176.306 123.479 176.407 123.219 176.474C122.96 176.542 122.668 176.575 122.344 176.575C121.976 176.575 121.661 176.545 121.398 176.484C121.135 176.427 120.904 176.341 120.705 176.226V175.386C120.809 175.44 120.926 175.494 121.054 175.548C121.182 175.599 121.317 175.645 121.459 175.685C121.6 175.725 121.745 175.759 121.894 175.786C122.045 175.81 122.196 175.822 122.344 175.822C122.563 175.822 122.749 175.803 122.901 175.766C123.056 175.729 123.18 175.677 123.275 175.609C123.373 175.538 123.444 175.454 123.487 175.356C123.531 175.255 123.553 175.144 123.553 175.022C123.553 174.918 123.536 174.823 123.503 174.739C123.469 174.655 123.406 174.572 123.315 174.491C123.228 174.407 123.106 174.322 122.951 174.238C122.796 174.154 122.597 174.059 122.354 173.955C122.111 173.85 121.892 173.747 121.696 173.646C121.504 173.545 121.34 173.432 121.206 173.307C121.071 173.182 120.966 173.039 120.892 172.877C120.821 172.712 120.786 172.516 120.786 172.29C120.786 172.054 120.831 171.845 120.922 171.663C121.017 171.477 121.148 171.322 121.317 171.197C121.485 171.072 121.688 170.978 121.924 170.914C122.16 170.85 122.423 170.818 122.713 170.818C123.04 170.818 123.339 170.853 123.609 170.924C123.882 170.995 124.14 171.087 124.383 171.202L124.064 171.946C123.845 171.848 123.619 171.764 123.386 171.693C123.157 171.619 122.922 171.582 122.683 171.582C122.339 171.582 122.084 171.639 121.919 171.754C121.754 171.865 121.671 172.025 121.671 172.234C121.671 172.352 121.69 172.455 121.727 172.543C121.767 172.631 121.835 172.713 121.929 172.791C122.024 172.868 122.15 172.948 122.309 173.029C122.467 173.106 122.664 173.194 122.901 173.292C123.143 173.393 123.359 173.494 123.548 173.595C123.74 173.697 123.904 173.811 124.039 173.939C124.174 174.064 124.277 174.208 124.348 174.369C124.418 174.531 124.454 174.725 124.454 174.951ZM128.314 176.575C128.115 176.575 127.935 176.554 127.773 176.51C127.611 176.466 127.464 176.409 127.333 176.338C127.205 176.263 127.09 176.177 126.989 176.08C126.891 175.982 126.803 175.879 126.726 175.771H126.665C126.675 175.886 126.685 175.995 126.695 176.1C126.702 176.188 126.709 176.279 126.716 176.373C126.722 176.464 126.726 176.537 126.726 176.591V178.964H125.805V170.919H126.554L126.685 171.668H126.726C126.803 171.55 126.891 171.44 126.989 171.339C127.087 171.234 127.2 171.145 127.328 171.071C127.459 170.993 127.606 170.932 127.768 170.888C127.93 170.841 128.112 170.818 128.314 170.818C128.631 170.818 128.92 170.878 129.18 171C129.439 171.121 129.66 171.303 129.842 171.546C130.028 171.786 130.171 172.084 130.272 172.442C130.374 172.799 130.424 173.214 130.424 173.686C130.424 174.162 130.374 174.58 130.272 174.941C130.171 175.299 130.028 175.599 129.842 175.842C129.66 176.085 129.439 176.269 129.18 176.393C128.92 176.515 128.631 176.575 128.314 176.575ZM128.137 171.582C127.881 171.582 127.663 171.62 127.485 171.698C127.309 171.776 127.166 171.894 127.055 172.052C126.947 172.211 126.866 172.408 126.812 172.644C126.761 172.88 126.732 173.159 126.726 173.479V173.686C126.726 174.027 126.748 174.331 126.791 174.597C126.839 174.86 126.916 175.083 127.024 175.265C127.135 175.444 127.282 175.58 127.464 175.675C127.646 175.766 127.874 175.811 128.147 175.811C128.603 175.811 128.937 175.628 129.149 175.26C129.365 174.892 129.473 174.364 129.473 173.676C129.473 172.975 129.365 172.45 129.149 172.103C128.937 171.755 128.599 171.582 128.137 171.582ZM134.072 176.575C133.701 176.575 133.362 176.513 133.055 176.388C132.748 176.263 132.484 176.081 132.261 175.842C132.042 175.602 131.871 175.306 131.75 174.951C131.628 174.597 131.568 174.192 131.568 173.737C131.568 173.278 131.623 172.868 131.735 172.508C131.846 172.147 132.003 171.841 132.205 171.592C132.408 171.339 132.649 171.146 132.929 171.015C133.212 170.883 133.524 170.818 133.865 170.818C134.199 170.818 134.499 170.878 134.765 171C135.032 171.118 135.258 171.286 135.443 171.506C135.629 171.722 135.771 171.983 135.868 172.29C135.97 172.594 136.02 172.931 136.02 173.302V173.874H132.519C132.536 174.525 132.672 175.004 132.929 175.311C133.189 175.618 133.573 175.771 134.082 175.771C134.254 175.771 134.413 175.763 134.558 175.746C134.706 175.729 134.848 175.705 134.983 175.675C135.121 175.641 135.255 175.601 135.383 175.553C135.511 175.503 135.641 175.447 135.772 175.386V176.206C135.637 176.27 135.504 176.326 135.373 176.373C135.244 176.42 135.111 176.459 134.973 176.489C134.838 176.52 134.696 176.542 134.548 176.555C134.403 176.569 134.244 176.575 134.072 176.575ZM133.845 171.582C133.46 171.582 133.155 171.713 132.929 171.976C132.706 172.239 132.576 172.622 132.539 173.125H135.029C135.029 172.895 135.005 172.686 134.958 172.497C134.914 172.305 134.843 172.142 134.745 172.007C134.651 171.872 134.529 171.767 134.381 171.693C134.232 171.619 134.054 171.582 133.845 171.582ZM140.893 176.474V172.897C140.893 172.459 140.803 172.13 140.625 171.91C140.449 171.691 140.173 171.582 139.795 171.582C139.522 171.582 139.292 171.625 139.107 171.713C138.921 171.801 138.771 171.931 138.656 172.103C138.545 172.275 138.464 172.486 138.413 172.735C138.366 172.985 138.343 173.272 138.343 173.595V176.474H137.422V170.919H138.171L138.302 171.668H138.353C138.437 171.523 138.537 171.398 138.651 171.293C138.769 171.185 138.898 171.096 139.036 171.025C139.174 170.954 139.321 170.902 139.476 170.868C139.631 170.834 139.79 170.818 139.952 170.818C140.569 170.818 141.033 170.98 141.343 171.303C141.657 171.624 141.814 172.138 141.814 172.847V176.474H140.893ZM146.848 174.951C146.848 175.221 146.799 175.457 146.701 175.66C146.603 175.862 146.462 176.032 146.276 176.171C146.094 176.306 145.873 176.407 145.613 176.474C145.354 176.542 145.062 176.575 144.738 176.575C144.37 176.575 144.055 176.545 143.792 176.484C143.529 176.427 143.298 176.341 143.099 176.226V175.386C143.203 175.44 143.32 175.494 143.448 175.548C143.576 175.599 143.711 175.645 143.853 175.685C143.994 175.725 144.139 175.759 144.288 175.786C144.44 175.81 144.59 175.822 144.738 175.822C144.957 175.822 145.143 175.803 145.295 175.766C145.45 175.729 145.575 175.677 145.669 175.609C145.767 175.538 145.838 175.454 145.882 175.356C145.925 175.255 145.947 175.144 145.947 175.022C145.947 174.918 145.93 174.823 145.897 174.739C145.863 174.655 145.801 174.572 145.71 174.491C145.622 174.407 145.5 174.322 145.345 174.238C145.19 174.154 144.991 174.059 144.748 173.955C144.505 173.85 144.286 173.747 144.09 173.646C143.898 173.545 143.735 173.432 143.6 173.307C143.465 173.182 143.36 173.039 143.286 172.877C143.215 172.712 143.18 172.516 143.18 172.29C143.18 172.054 143.225 171.845 143.316 171.663C143.411 171.477 143.542 171.322 143.711 171.197C143.88 171.072 144.082 170.978 144.318 170.914C144.554 170.85 144.817 170.818 145.107 170.818C145.435 170.818 145.733 170.853 146.003 170.924C146.276 170.995 146.534 171.087 146.777 171.202L146.458 171.946C146.239 171.848 146.013 171.764 145.78 171.693C145.551 171.619 145.317 171.582 145.077 171.582C144.733 171.582 144.478 171.639 144.313 171.754C144.148 171.865 144.065 172.025 144.065 172.234C144.065 172.352 144.084 172.455 144.121 172.543C144.161 172.631 144.229 172.713 144.323 172.791C144.418 172.868 144.544 172.948 144.703 173.029C144.861 173.106 145.058 173.194 145.295 173.292C145.537 173.393 145.753 173.494 145.942 173.595C146.135 173.697 146.298 173.811 146.433 173.939C146.568 174.064 146.671 174.208 146.742 174.369C146.813 174.531 146.848 174.725 146.848 174.951ZM150.395 176.575C150.024 176.575 149.685 176.513 149.378 176.388C149.071 176.263 148.806 176.081 148.583 175.842C148.364 175.602 148.194 175.306 148.072 174.951C147.951 174.597 147.89 174.192 147.89 173.737C147.89 173.278 147.946 172.868 148.057 172.508C148.169 172.147 148.325 171.841 148.528 171.592C148.73 171.339 148.971 171.146 149.251 171.015C149.535 170.883 149.847 170.818 150.187 170.818C150.521 170.818 150.821 170.878 151.088 171C151.354 171.118 151.58 171.286 151.766 171.506C151.951 171.722 152.093 171.983 152.191 172.29C152.292 172.594 152.343 172.931 152.343 173.302V173.874H148.841C148.858 174.525 148.995 175.004 149.251 175.311C149.511 175.618 149.896 175.771 150.405 175.771C150.577 175.771 150.735 175.763 150.88 175.746C151.029 175.729 151.171 175.705 151.306 175.675C151.444 175.641 151.577 175.601 151.705 175.553C151.833 175.503 151.963 175.447 152.095 175.386V176.206C151.96 176.27 151.827 176.326 151.695 176.373C151.567 176.42 151.434 176.459 151.295 176.489C151.16 176.52 151.019 176.542 150.87 176.555C150.725 176.569 150.567 176.575 150.395 176.575ZM150.167 171.582C149.783 171.582 149.477 171.713 149.251 171.976C149.029 172.239 148.899 172.622 148.862 173.125H151.351C151.351 172.895 151.327 172.686 151.28 172.497C151.236 172.305 151.166 172.142 151.068 172.007C150.973 171.872 150.852 171.767 150.703 171.693C150.555 171.619 150.376 171.582 150.167 171.582Z" fill="white"/>
</g>
<g clip-path="url(#clip4)">
<path d="M202.444 162.957C198.222 162.957 194.844 166.335 194.844 170.556C194.844 174.778 198.222 178.156 202.444 178.156C206.666 178.156 210.043 174.778 210.043 170.556C210.043 166.335 206.666 162.957 202.444 162.957ZM202.444 177.235C198.794 177.235 195.766 174.206 195.766 170.556C195.766 166.907 198.794 163.878 202.444 163.878C206.094 163.878 209.122 166.907 209.122 170.556C209.122 174.206 206.094 177.235 202.444 177.235ZM199.066 169.712V171.401H205.821V169.712H199.066Z" fill="white"/>
</g>
<path d="M227.212 167.698C226.704 167.185 226.175 166.739 225.624 166.359C225.074 165.979 224.558 165.694 224.077 165.505C223.595 165.315 223.154 165.224 222.754 165.231C222.353 165.239 222.04 165.358 221.815 165.589C221.762 165.641 221.716 165.698 221.679 165.762C221.642 165.827 221.615 165.877 221.599 165.912C221.583 165.948 221.561 166.013 221.535 166.105C221.508 166.197 221.489 166.256 221.479 166.282L218.496 175.702L218.68 175.887C218.472 176.025 218.286 176.187 218.123 176.371C217.96 176.556 217.817 176.707 217.694 176.825C217.571 176.943 217.424 177.026 217.253 177.072C217.215 177.082 217.169 177.117 217.112 177.176C217.056 177.235 217.028 177.287 217.028 177.333C217.028 177.426 217.076 177.503 217.173 177.564C217.269 177.626 217.376 177.657 217.493 177.657C217.643 177.657 217.787 177.599 217.926 177.483C218.065 177.368 218.206 177.221 218.347 177.041C218.489 176.861 218.592 176.743 218.656 176.687C218.795 176.569 218.95 176.456 219.121 176.348L219.33 176.541L228.808 173.455C229.016 173.393 229.176 173.301 229.289 173.178C229.513 172.947 229.63 172.627 229.638 172.219C229.646 171.812 229.556 171.363 229.369 170.873C229.182 170.383 228.903 169.859 228.531 169.303C228.159 168.746 227.72 168.211 227.212 167.698ZM226.346 168.537C227.164 169.337 227.785 170.103 228.21 170.834C228.635 171.565 228.738 172.046 228.519 172.277C228.3 172.508 227.821 172.423 227.084 172.023C226.346 171.623 225.571 171.025 224.758 170.23C223.935 169.43 223.311 168.665 222.886 167.937C222.461 167.208 222.358 166.726 222.577 166.49C222.796 166.259 223.276 166.343 224.016 166.744C224.757 167.144 225.533 167.742 226.346 168.537ZM224.59 171.723C224.98 172.057 225.368 172.349 225.753 172.6C225.758 172.611 225.892 172.852 226.153 173.324L225.48 173.547C225.159 172.967 224.862 172.359 224.59 171.723ZM221.855 168.198C221.973 168.45 222.136 168.755 222.345 169.114C222.516 169.853 222.784 170.653 223.15 171.515C223.517 172.377 223.916 173.185 224.349 173.939L223.684 174.155C223.181 173.262 222.743 172.327 222.369 171.35C221.994 170.372 221.765 169.509 221.679 168.76L221.855 168.198ZM220.925 171.015C221.299 172.164 221.826 173.344 222.505 174.555L221.847 174.778C221.318 173.804 220.901 172.888 220.597 172.031L220.925 171.015ZM220.003 173.824C220.212 174.296 220.433 174.745 220.669 175.171L220.011 175.394C219.936 175.255 219.829 175.043 219.69 174.755L220.003 173.824ZM225.897 162.88L226.298 164.042L225.263 164.766H226.538L226.931 165.928L227.324 164.766H228.591L227.565 164.042L227.966 162.888L226.931 163.604L225.897 162.88ZM223.652 162.88L223.435 163.935L224.534 164.142L224.75 163.088L223.652 162.88ZM230.876 166.051L231.758 165.166L232.905 165.705L232.312 164.627L233.202 163.758L231.943 163.965L231.35 162.88L231.173 164.096L229.914 164.304L231.061 164.835L230.876 166.051ZM230.58 167.944L231.646 168.621L231.309 169.807L232.304 169.037L233.362 169.714L232.921 168.56L233.916 167.806L232.641 167.86L232.192 166.713L231.863 167.89L230.58 167.944ZM230.123 165.089L227.733 166.967L228.03 167.313L230.419 165.435L230.123 165.089ZM230.957 168.722L229.088 168.56L229.04 169.006L230.917 169.168L230.957 168.722ZM231.141 170.876L230.796 171.908L231.863 172.239L232.216 171.215L231.141 170.876Z" fill="white"/>
<path d="M275.222 172.667C274.827 172.669 274.438 172.76 274.083 172.932C273.727 173.105 273.415 173.355 273.17 173.664L269.312 171.253C269.453 170.799 269.453 170.313 269.312 169.86L273.17 167.448C273.561 167.933 274.112 168.263 274.724 168.381C275.336 168.499 275.97 168.396 276.513 168.091C277.057 167.787 277.475 167.299 277.693 166.716C277.912 166.132 277.917 165.49 277.708 164.903C277.498 164.316 277.088 163.822 276.549 163.509C276.01 163.196 275.378 163.083 274.764 163.191C274.15 163.3 273.595 163.622 273.196 164.1C272.797 164.579 272.58 165.183 272.584 165.807C272.586 166.043 272.622 166.277 272.689 166.503L268.832 168.915C268.491 168.486 268.026 168.174 267.5 168.022C266.974 167.869 266.413 167.884 265.896 168.065C265.379 168.245 264.931 168.582 264.614 169.028C264.297 169.475 264.127 170.009 264.127 170.556C264.127 171.104 264.297 171.638 264.614 172.084C264.931 172.531 265.379 172.867 265.896 173.048C266.413 173.228 266.974 173.243 267.5 173.091C268.026 172.938 268.491 172.626 268.832 172.197L272.689 174.609C272.622 174.835 272.586 175.07 272.584 175.306C272.584 175.828 272.739 176.338 273.029 176.772C273.318 177.206 273.731 177.544 274.213 177.744C274.695 177.943 275.225 177.995 275.737 177.894C276.249 177.792 276.719 177.541 277.088 177.172C277.457 176.803 277.709 176.332 277.81 175.821C277.912 175.309 277.86 174.778 277.66 174.296C277.461 173.814 277.122 173.402 276.688 173.112C276.255 172.822 275.744 172.667 275.222 172.667V172.667ZM275.222 164.223C275.536 164.223 275.842 164.316 276.102 164.49C276.362 164.664 276.565 164.911 276.685 165.201C276.805 165.49 276.836 165.808 276.775 166.115C276.714 166.423 276.563 166.705 276.342 166.926C276.121 167.148 275.838 167.298 275.531 167.359C275.224 167.42 274.906 167.389 274.617 167.269C274.327 167.149 274.08 166.947 273.906 166.686C273.732 166.426 273.639 166.12 273.639 165.807C273.639 165.387 273.806 164.984 274.103 164.687C274.4 164.39 274.803 164.223 275.222 164.223V164.223ZM266.779 172.139C266.466 172.139 266.16 172.047 265.899 171.873C265.639 171.699 265.436 171.451 265.316 171.162C265.196 170.873 265.165 170.554 265.226 170.247C265.287 169.94 265.438 169.658 265.659 169.437C265.881 169.215 266.163 169.064 266.47 169.003C266.777 168.942 267.095 168.974 267.385 169.093C267.674 169.213 267.921 169.416 268.095 169.677C268.269 169.937 268.362 170.243 268.362 170.556C268.362 170.976 268.195 171.379 267.898 171.676C267.601 171.973 267.199 172.139 266.779 172.139ZM275.222 176.889C274.909 176.889 274.603 176.796 274.343 176.622C274.083 176.448 273.88 176.201 273.76 175.912C273.64 175.622 273.609 175.304 273.67 174.997C273.731 174.69 273.882 174.408 274.103 174.186C274.324 173.965 274.607 173.814 274.914 173.753C275.221 173.692 275.539 173.723 275.828 173.843C276.118 173.963 276.365 174.166 276.539 174.426C276.713 174.687 276.806 174.993 276.806 175.306C276.806 175.726 276.639 176.128 276.342 176.425C276.045 176.722 275.642 176.889 275.222 176.889V176.889Z" fill="white"/>
<path d="M299.481 163.52H290.524C290.03 163.52 289.552 163.693 289.173 164.01C288.793 164.326 288.537 164.765 288.448 165.251L287.554 170.176C287.499 170.481 287.511 170.793 287.589 171.093C287.668 171.392 287.811 171.67 288.009 171.908C288.207 172.145 288.455 172.337 288.735 172.468C289.015 172.599 289.321 172.667 289.63 172.667H292.839L292.445 173.673C292.281 174.114 292.226 174.588 292.286 175.054C292.345 175.52 292.517 175.965 292.786 176.351C293.055 176.736 293.414 177.05 293.831 177.267C294.248 177.483 294.712 177.595 295.182 177.593C295.317 177.592 295.45 177.553 295.563 177.479C295.677 177.406 295.767 177.301 295.822 177.178L297.828 172.667H299.481C300.041 172.667 300.578 172.445 300.974 172.049C301.37 171.653 301.592 171.116 301.592 170.556V165.631C301.592 165.071 301.37 164.534 300.974 164.138C300.578 163.742 300.041 163.52 299.481 163.52ZM296.667 171.816L294.753 176.122C294.557 176.063 294.375 175.964 294.219 175.832C294.063 175.7 293.935 175.537 293.844 175.354C293.753 175.171 293.701 174.971 293.69 174.766C293.679 174.562 293.71 174.358 293.782 174.166L294.155 173.16C294.234 172.947 294.261 172.718 294.233 172.493C294.205 172.268 294.123 172.053 293.993 171.866C293.864 171.679 293.691 171.527 293.49 171.421C293.289 171.316 293.066 171.26 292.839 171.26H289.63C289.527 171.26 289.425 171.238 289.331 171.194C289.237 171.15 289.155 171.086 289.088 171.007C289.021 170.928 288.971 170.836 288.943 170.736C288.915 170.637 288.909 170.532 288.927 170.43L289.82 165.504C289.85 165.34 289.937 165.192 290.066 165.087C290.195 164.981 290.357 164.925 290.524 164.927H296.667V171.816ZM300.185 170.556C300.185 170.743 300.111 170.922 299.979 171.054C299.847 171.186 299.668 171.26 299.481 171.26H298.074V164.927H299.481C299.668 164.927 299.847 165.001 299.979 165.133C300.111 165.265 300.185 165.444 300.185 165.631V170.556Z" fill="white"/>
<g clip-path="url(#clip5)">
<path d="M248.308 167.358C248.697 167.358 249.012 167.043 249.012 166.654C249.012 166.266 248.697 165.951 248.308 165.951C247.92 165.951 247.605 166.266 247.605 166.654C247.605 167.043 247.92 167.358 248.308 167.358Z" fill="white"/>
<path d="M250.302 173.175H249.129V168.296H247.37C247.214 168.296 247.065 168.36 246.955 168.475C246.845 168.589 246.784 168.744 246.784 168.906C246.784 169.068 246.845 169.223 246.955 169.337C247.065 169.452 247.214 169.516 247.37 169.516H247.956V173.175H246.784C246.628 173.175 246.479 173.239 246.369 173.353C246.259 173.468 246.197 173.623 246.197 173.785C246.197 173.946 246.259 174.101 246.369 174.216C246.479 174.33 246.628 174.394 246.784 174.394H250.302C250.457 174.394 250.606 174.33 250.716 174.216C250.826 174.101 250.888 173.946 250.888 173.785C250.888 173.623 250.826 173.468 250.716 173.353C250.606 173.239 250.457 173.175 250.302 173.175Z" fill="white"/>
<path d="M248.212 162.88C246.751 162.88 245.322 163.314 244.108 164.125C242.893 164.937 241.946 166.091 241.386 167.441C240.827 168.791 240.681 170.277 240.966 171.71C241.251 173.143 241.955 174.459 242.988 175.493C244.021 176.526 245.338 177.23 246.771 177.515C248.204 177.8 249.69 177.653 251.04 177.094C252.39 176.535 253.543 175.588 254.355 174.373C255.167 173.158 255.6 171.73 255.6 170.268C255.6 168.309 254.822 166.43 253.436 165.044C252.051 163.659 250.172 162.88 248.212 162.88V162.88ZM248.212 176.425C246.994 176.425 245.804 176.064 244.792 175.388C243.779 174.711 242.99 173.75 242.524 172.625C242.058 171.5 241.936 170.262 242.174 169.067C242.411 167.873 242.998 166.776 243.859 165.915C244.72 165.054 245.817 164.467 247.011 164.23C248.205 163.992 249.443 164.114 250.568 164.58C251.693 165.046 252.655 165.835 253.331 166.848C254.008 167.86 254.369 169.051 254.369 170.268C254.369 171.077 254.21 171.878 253.9 172.625C253.591 173.372 253.137 174.05 252.566 174.622C251.994 175.194 251.315 175.647 250.568 175.957C249.821 176.266 249.021 176.425 248.212 176.425V176.425Z" fill="white"/>
</g>
</g>
<path d="M162.578 65.5611C167.324 65.4776 171.988 66.8035 175.981 69.3709C179.974 71.9382 183.115 75.6319 185.008 79.9847C186.902 84.3376 187.462 89.1541 186.618 93.8252C185.773 98.4963 183.563 102.812 180.266 106.227C176.969 109.642 172.734 112.003 168.095 113.01C163.457 114.018 158.623 113.628 154.207 111.888C149.79 110.149 145.988 107.139 143.282 103.24C140.576 99.3398 139.087 94.7251 139.004 89.9791C138.892 83.6149 141.313 77.4669 145.734 72.8876C150.155 68.3084 156.214 65.6729 162.578 65.5611V65.5611ZM162.508 61.5617C156.971 61.659 151.587 63.396 147.037 66.5532C142.488 69.7103 138.976 74.1457 136.947 79.2985C134.918 84.4512 134.463 90.09 135.638 95.5016C136.814 100.913 139.568 105.855 143.552 109.701C147.536 113.548 152.571 116.126 158.021 117.111C163.471 118.096 169.09 117.443 174.168 115.234C179.246 113.025 183.556 109.36 186.551 104.702C189.546 100.044 191.093 94.6023 190.996 89.0653C190.865 81.6404 187.791 74.5714 182.448 69.4135C177.106 64.2556 169.933 61.4312 162.508 61.5617V61.5617Z" fill="white" fill-opacity="0.6"/>
<path d="M155.247 103.696C154.888 103.702 154.534 103.611 154.222 103.434C153.921 103.262 153.669 103.015 153.492 102.716C153.315 102.418 153.219 102.078 153.212 101.731L152.791 77.735C152.785 77.3879 152.869 77.0453 153.036 76.7407C153.202 76.4362 153.445 76.1802 153.74 75.998C154.041 75.8171 154.384 75.7187 154.735 75.7125C155.086 75.7064 155.433 75.7927 155.74 75.9629L177.947 87.5744C178.268 87.7402 178.538 87.9895 178.728 88.2961C178.918 88.6026 179.022 88.9549 179.028 89.3157C179.035 89.6764 178.943 90.0322 178.764 90.3452C178.584 90.6582 178.324 90.9169 178.009 91.0939L156.224 103.479C155.922 103.633 155.586 103.707 155.247 103.696V103.696ZM156.849 81.0241L157.153 98.3015L172.818 89.3848L156.849 81.0241Z" fill="white" fill-opacity="0.6"/>
<defs>
<linearGradient id="paint0_linear" x1="92.75" y1="81.1765" x2="52.8637" y2="38.8258" gradientUnits="userSpaceOnUse">
<stop stop-color="#1B1B1B"/>
<stop offset="1" stop-color="#1B1B1B" stop-opacity="0"/>
</linearGradient>
<linearGradient id="paint1_linear" x1="13.8879" y1="148" x2="150.493" y2="148.676" gradientUnits="userSpaceOnUse">
<stop stop-opacity="0"/>
<stop stop-opacity="0"/>
<stop offset="1"/>
</linearGradient>
<clipPath id="clip0">
<rect width="179" height="326" fill="white" transform="translate(326 21) rotate(90)"/>
</clipPath>
<clipPath id="clip1">
<rect width="44.4211" height="11.2131" fill="white" transform="translate(29.1753 90.725)"/>
</clipPath>
<clipPath id="clip2">
<rect width="10.7818" height="10.7818" fill="white" transform="translate(29.1753 90.9407)"/>
</clipPath>
<clipPath id="clip3">
<rect width="51.1811" height="12" fill="white" transform="translate(103.583 166.474)"/>
</clipPath>
<clipPath id="clip4">
<rect width="16.8873" height="16.8873" fill="white" transform="translate(194 162.113)"/>
</clipPath>
<clipPath id="clip5">
<rect width="16.8873" height="16.8873" fill="white" transform="translate(240.056 162.113)"/>
</clipPath>
</defs>
</svg>
