<svg width="326" height="200" viewBox="0 0 326 200" fill="none" xmlns="http://www.w3.org/2000/svg">
<path d="M20 31C20 24.9249 24.9249 20 31 20H53C59.0751 20 64 24.9249 64 31V31C64 37.0751 59.0751 42 53 42H31C24.9249 42 20 37.0751 20 31V31Z" fill="white" fill-opacity="0.8"/>
<path fill-rule="evenodd" clip-rule="evenodd" d="M27 27.7191V36H28.3736C28.4165 36 28.5195 35.9753 28.5882 35.8764V33.2397C30.1335 34.3109 32.8807 33.7753 32.8807 30.5206C32.8807 27.5131 30.2193 26.8127 28.4165 28.2135C28.4022 28.0762 28.3221 27.785 28.116 27.7191H27ZM30.6915 29.1199C29.9704 28.4936 28.9888 28.8589 28.5882 29.1199V32.0861C29.6871 32.8112 30.4483 32.3883 30.6915 32.0861C31.0006 31.9543 31.0778 30.9875 31.0778 30.5206C31.1122 29.7955 30.8346 29.2846 30.6915 29.1199Z" fill="#00A8E1"/>
<path d="M34.0396 33.4457V27.8839C34.0396 27.829 34.074 27.7109 34.2113 27.6779H35.2844C35.3417 27.6367 35.499 27.7356 35.6707 28.4607C35.6851 28.5019 35.7308 28.5678 35.7995 28.5019C35.8854 28.4195 36.7009 27.5543 37.5594 27.6367C37.9028 27.6367 37.9887 27.774 37.9887 27.8427V28.9963C37.9744 29.0649 37.9114 29.2022 37.774 29.2022C36.5722 29.1363 35.9569 29.3396 35.7995 29.4494V33.4457C35.7995 33.4869 35.7738 33.5775 35.6707 33.6105H34.1684C34.1255 33.6105 34.0396 33.5775 34.0396 33.4457Z" fill="#00A8E1"/>
<path d="M39.0189 27.6779H40.3066C40.3781 27.6916 40.5212 27.7521 40.5212 27.8839V33.4457C40.5069 33.4869 40.4525 33.5775 40.3495 33.6105H38.9759C38.9187 33.5968 38.7956 33.5446 38.7613 33.4457L38.8042 27.8839C38.8042 27.829 38.8472 27.7109 39.0189 27.6779Z" fill="#00A8E1"/>
<path d="M39.3622 26.7303C39.491 26.7441 39.7915 26.7633 39.9632 26.7303C40.1349 26.6974 40.3209 26.5793 40.3924 26.5243C40.5641 26.3596 40.65 26.1124 40.65 25.8652C40.65 25.5356 40.5641 25.412 40.4354 25.2472C40.3495 25.1785 40.1778 25 39.9632 25H39.3622C39.2049 25.0412 38.8643 25.1483 38.7613 25.412C38.6583 25.6757 38.6755 25.7553 38.6755 25.9064C38.6755 26.0574 38.7579 26.3563 38.933 26.5243C39.1081 26.6924 39.2907 26.7166 39.3622 26.7303Z" fill="#00A8E1"/>
<path d="M43.6547 28.2547C43.6118 28.0899 43.4916 27.7521 43.3542 27.7191C43.2169 27.6861 42.5244 27.7054 42.1953 27.7191C42.138 27.7191 42.0236 27.7521 42.0236 27.8839V33.4457C42.0379 33.4869 42.0922 33.5775 42.1953 33.6105C42.2983 33.6434 43.1539 33.6242 43.5688 33.6105C43.6261 33.5968 43.7577 33.5446 43.8264 33.4457L43.7835 29.161C44.0267 29.0237 44.6248 28.7655 45.0712 28.8315C45.6292 28.8727 45.8009 29.1336 45.8438 29.2846L45.8868 33.4457C45.9011 33.5006 45.9554 33.6105 46.0585 33.6105H47.475C47.5179 33.5968 47.6123 33.5446 47.6467 33.4457V29.161C47.847 29.01 48.3764 28.7243 48.8915 28.7903C49.4066 28.8562 49.6212 29.1748 49.6641 29.3258V33.3633C49.6641 33.432 49.6985 33.5775 49.8358 33.6105H51.3382C51.3811 33.583 51.467 33.4951 51.467 33.3633V29.0787C51.4383 28.5705 51.0549 27.5461 49.75 27.5131C48.4451 27.4801 47.661 27.9938 47.4321 28.2547C47.2747 28.0075 46.7453 27.5131 45.8868 27.5131C45.0283 27.5131 44.041 28.0075 43.6547 28.2547Z" fill="#00A8E1"/>
<path fill-rule="evenodd" clip-rule="evenodd" d="M54.1283 31.0974C54.071 31.8252 54.6605 33.0831 57.4764 32.2921C57.6481 32.2262 57.691 32.4569 57.691 32.5805V33.1985C57.5336 33.4045 56.9098 33.8165 55.6735 33.8165C53.2698 33.8165 52.583 32.2235 52.5401 31.427C52.3827 30.7678 52.3598 29.194 53.5273 28.1723C55.1756 26.9858 56.8182 27.6779 57.4335 28.1723C57.8198 28.5156 58.395 29.4494 57.6052 30.4382C56.8153 31.427 54.9581 31.2896 54.1283 31.0974ZM55.4589 28.7079C54.3944 28.7079 54.1283 29.6417 54.1283 30.1086C54.4574 30.1498 55.21 30.224 55.5877 30.191C55.9654 30.1581 56.203 29.9301 56.2745 29.8202C56.4462 29.4494 56.5235 28.7079 55.4589 28.7079Z" fill="#00A8E1"/>
<path fill-rule="evenodd" clip-rule="evenodd" d="M27 27.7191V36H28.3736C28.4165 36 28.5195 35.9753 28.5882 35.8764V33.2397C30.1335 34.3109 32.8807 33.7753 32.8807 30.5206C32.8807 27.5131 30.2193 26.8127 28.4165 28.2135C28.4022 28.0762 28.3221 27.785 28.116 27.7191H27ZM30.6915 29.1199C29.9704 28.4936 28.9888 28.8589 28.5882 29.1199V32.0861C29.6871 32.8112 30.4483 32.3883 30.6915 32.0861C31.0006 31.9543 31.0778 30.9875 31.0778 30.5206C31.1122 29.7955 30.8346 29.2846 30.6915 29.1199Z" fill="#00A8E1"/>
<g clip-path="url(#clip0)">
<rect width="179" height="326" transform="translate(326 21) rotate(90)" fill="url(#paint0_linear)"/>
<rect x="24.4313" y="89.4313" width="53.9091" height="13.8007" rx="6.90036" fill="#111111" fill-opacity="0.2"/>
<g clip-path="url(#clip1)">
<g clip-path="url(#clip2)">
<path d="M37.2124 95.6945C37.2124 95.2422 36.8917 94.8639 36.4667 94.7728C36.6365 94.4893 36.7407 94.1615 36.7407 93.8077C36.7407 92.7671 35.8945 91.9209 34.8539 91.9209C34.1383 91.9209 33.5232 92.3251 33.2029 92.9134C32.8827 92.3251 32.2676 91.9209 31.552 91.9209C30.5114 91.9209 29.6652 92.7671 29.6652 93.8077C29.6652 94.2332 29.8123 94.6224 30.0505 94.9379C29.9315 95.025 29.8346 95.1388 29.7676 95.2703C29.7007 95.4017 29.6656 95.547 29.6652 95.6945V99.4682C29.6652 99.9885 30.0883 100.412 30.6086 100.412H36.269C36.7893 100.412 37.2124 99.9885 37.2124 99.4682V98.2238L39.0993 99.1672V95.8653L37.2124 96.8087V95.6945ZM34.8539 92.8643C35.3742 92.8643 35.7973 93.2874 35.7973 93.8077C35.7973 94.328 35.3742 94.7511 34.8539 94.7511C34.3336 94.7511 33.9105 94.328 33.9105 93.8077C33.9105 93.2874 34.3336 92.8643 34.8539 92.8643ZM31.552 92.8643C32.0723 92.8643 32.4954 93.2874 32.4954 93.8077C32.4954 94.328 32.0723 94.7511 31.552 94.7511C31.0317 94.7511 30.6086 94.328 30.6086 93.8077C30.6086 93.2874 31.0317 92.8643 31.552 92.8643ZM30.6086 99.4682V95.6945H36.269L36.27 99.4682H30.6086Z" fill="white"/>
</g>
<path d="M49.4905 93.4978V94.2559H47.2162V100.725H46.2813V94.2559H44.007V93.4978H49.4905ZM50.5064 100.725V95.4184H51.1381L51.3049 96.0956C51.7699 95.6441 52.3292 95.4184 52.9828 95.4184V96.1967C52.3494 96.1967 51.8356 96.4207 51.4414 96.8689V100.725H50.5064ZM53.6702 99.1229C53.6702 98.0346 54.3878 97.4905 55.8232 97.4905C56.2848 97.4905 56.7464 97.5242 57.208 97.5916V97.0912C57.208 96.4814 56.7312 96.1765 55.7777 96.1765C55.2319 96.1765 54.6725 96.2607 54.0998 96.4292V95.6711C54.6725 95.5026 55.2319 95.4184 55.7777 95.4184C57.3545 95.4184 58.1429 95.9676 58.1429 97.066V100.725H57.6173L57.2939 100.199C56.7649 100.55 56.1887 100.725 55.5654 100.725C54.3019 100.725 53.6702 100.191 53.6702 99.1229ZM55.8232 98.2486C55.0112 98.2486 54.6052 98.535 54.6052 99.1078C54.6052 99.6805 54.9252 99.9669 55.5654 99.9669C56.2123 99.9669 56.7598 99.7951 57.208 99.4514V98.3497C56.7464 98.2823 56.2848 98.2486 55.8232 98.2486ZM60.7003 95.4184V100.725H59.7653V95.4184H60.7003ZM60.7003 93.4978V94.3823H59.7653V93.4978H60.7003ZM63.3081 93.4978V100.725H62.3731V93.4978H63.3081ZM67.0683 95.4184C68.5777 95.4184 69.3325 96.1647 69.3325 97.6573C69.3325 97.8695 69.3173 98.097 69.287 98.3396H65.5622C65.5622 99.4245 66.1956 99.9669 67.4625 99.9669C68.0656 99.9669 68.6013 99.8996 69.0696 99.7648V100.523C68.6013 100.658 68.0319 100.725 67.3614 100.725C65.5386 100.725 64.6272 99.8204 64.6272 98.011C64.6272 96.2826 65.4409 95.4184 67.0683 95.4184ZM65.5622 97.5612H68.4328C68.4126 96.6313 67.9578 96.1663 67.0683 96.1663C66.1249 96.1663 65.6228 96.6313 65.5622 97.5612ZM70.5909 100.725V95.4184H71.2226L71.3894 96.0956C71.8544 95.6441 72.4137 95.4184 73.0673 95.4184V96.1967C72.4339 96.1967 71.9201 96.4207 71.5259 96.8689V100.725H70.5909Z" fill="white"/>
</g>
<rect x="24.4313" y="89.4313" width="53.9091" height="13.8007" rx="6.90036" stroke="white" stroke-width="0.862546"/>
<path d="M25.0842 122.584V112.248H29.7102C31.8208 112.248 32.8761 113.219 32.8761 115.161C32.8761 117.267 31.4329 118.542 28.5465 118.985L28.2718 117.279C30.0066 116.966 30.8739 116.279 30.8739 115.219C30.8739 114.361 30.4451 113.932 29.5873 113.932H26.9997V122.584H25.0842ZM33.6061 120.221C33.6061 118.713 34.7048 117.958 36.9022 117.958C37.4178 117.958 37.9334 118.007 38.449 118.103V117.532C38.449 116.853 37.9599 116.513 36.9817 116.513C36.1528 116.513 35.2325 116.633 34.2205 116.874V115.356C35.2325 115.115 36.1528 114.995 36.9817 114.995C39.2368 114.995 40.3644 115.829 40.3644 117.496V122.584H39.2513L38.5719 121.905C37.9117 122.358 37.1841 122.584 36.389 122.584C34.5338 122.584 33.6061 121.797 33.6061 120.221ZM38.449 119.404C37.9671 119.308 37.4515 119.26 36.9022 119.26C35.9818 119.26 35.5216 119.573 35.5216 120.199C35.5216 120.874 35.9071 121.211 36.6781 121.211C37.3142 121.211 37.9045 121.014 38.449 120.618V119.404ZM42.1787 122.584V114.995H43.6604L43.899 115.964C44.5639 115.318 45.2675 114.995 46.0096 114.995V116.542C45.2964 116.542 44.6579 116.838 44.0941 117.431V122.584H42.1787ZM47.0938 122.584V112.248H49.0092V115.588C49.7947 115.193 50.6211 114.995 51.4885 114.995C53.4256 114.995 54.3942 115.725 54.3942 117.185C54.3942 118.245 53.7195 119.074 52.3703 119.672L54.7267 122.584H52.3848L50.4043 119.874V118.985C51.7872 118.691 52.4787 118.209 52.4787 117.539C52.4787 116.855 52.0209 116.513 51.1054 116.513C50.4645 116.513 49.7658 116.715 49.0092 117.12V122.584H47.0938ZM55.8109 122.223V120.633C56.6542 120.97 57.6275 121.139 58.731 121.139C59.555 121.139 59.967 120.874 59.967 120.344C59.967 119.838 59.69 119.585 59.1358 119.585H57.7625C56.2205 119.585 55.4495 118.826 55.4495 117.308C55.4495 115.718 56.5746 114.923 58.825 114.923C59.7791 114.923 60.6778 115.067 61.5211 115.356V116.947C60.6778 116.609 59.7622 116.441 58.7744 116.441C57.7384 116.441 57.2204 116.706 57.2204 117.236C57.2204 117.742 57.5215 117.995 58.1239 117.995H59.3526C61.0392 117.995 61.8825 118.754 61.8825 120.271C61.8825 121.862 60.8079 122.657 58.6587 122.657C57.6034 122.657 56.6542 122.512 55.8109 122.223ZM66.1181 120.221C66.1181 118.713 67.2168 117.958 69.4142 117.958C69.9298 117.958 70.4454 118.007 70.961 118.103V117.532C70.961 116.853 70.4719 116.513 69.4937 116.513C68.6648 116.513 67.7445 116.633 66.7325 116.874V115.356C67.7445 115.115 68.6648 114.995 69.4937 114.995C71.7488 114.995 72.8764 115.829 72.8764 117.496V122.584H71.7633L71.0838 121.905C70.4237 122.358 69.6961 122.584 68.901 122.584C67.0457 122.584 66.1181 121.797 66.1181 120.221ZM70.961 119.404C70.4791 119.308 69.9635 119.26 69.4142 119.26C68.4938 119.26 68.0336 119.573 68.0336 120.199C68.0336 120.874 68.4191 121.211 69.1901 121.211C69.8262 121.211 70.4165 121.014 70.961 120.618V119.404ZM74.6907 122.584V114.995H76.1724L76.411 116.108C77.1386 115.366 77.9674 114.995 78.8974 114.995C80.6948 114.995 81.5935 115.93 81.5935 117.799V122.584H79.6781V117.799C79.6781 116.961 79.2612 116.542 78.4276 116.542C77.806 116.542 77.1988 116.79 76.6061 117.286V122.584H74.6907ZM88.2144 116.975C87.8193 116.715 87.323 116.585 86.7255 116.585C85.5352 116.585 84.9401 117.253 84.9401 118.587C84.9401 120.173 85.5593 120.965 86.7977 120.965C87.2989 120.965 87.7711 120.896 88.2144 120.756V116.975ZM90.1299 122.129C88.9686 122.433 87.8338 122.584 86.7255 122.584C84.2727 122.584 83.0464 121.269 83.0464 118.638C83.0464 116.209 84.2462 114.995 86.646 114.995C87.1567 114.995 87.6796 115.115 88.2144 115.356V112.248H90.1299V122.129ZM95.3703 122.57V112.248H100.069C102.179 112.248 103.234 113.171 103.234 115.017C103.234 116.265 102.413 117.298 100.77 118.118L104.044 122.584H101.63L98.4856 118.081V117.207C100.317 116.894 101.232 116.183 101.232 115.074C101.232 114.313 100.803 113.932 99.9457 113.932H97.3219V122.57H95.3703ZM107.976 114.995C110.279 114.995 111.431 116.171 111.431 118.522C111.431 118.835 111.409 119.149 111.366 119.462H106.328C106.328 120.532 107.114 121.067 108.684 121.067C109.451 121.067 110.217 120.994 110.983 120.85V122.368C110.313 122.512 109.499 122.584 108.54 122.584C105.788 122.584 104.413 121.291 104.413 118.703C104.413 116.231 105.6 114.995 107.976 114.995ZM106.328 118.132H109.566V118.074C109.566 117.024 109.036 116.498 107.976 116.498C106.964 116.498 106.415 117.043 106.328 118.132ZM118.471 122.368C117.845 122.512 117.194 122.584 116.52 122.584C113.821 122.584 112.472 121.271 112.472 118.645C112.472 116.212 113.821 114.995 116.52 114.995C117.194 114.995 117.845 115.067 118.471 115.212V116.73C117.845 116.585 117.243 116.513 116.664 116.513C115.146 116.513 114.387 117.224 114.387 118.645C114.387 120.259 115.146 121.067 116.664 121.067C117.243 121.067 117.845 120.994 118.471 120.85V122.368Z" fill="white"/>
<path d="M28.6259 133.663L27.3104 136.328L24.37 136.753L26.4979 138.829L25.9949 141.758L28.6259 140.376L31.2569 141.758L30.7539 138.829L32.8818 136.756L29.9414 136.328L28.6259 133.663Z" fill="#F39B13"/>
<path d="M37.8937 134.276C38.1771 134.276 38.4436 134.313 38.6932 134.387C38.9462 134.461 39.1671 134.572 39.356 134.721C39.5483 134.869 39.7001 135.055 39.8114 135.277C39.9227 135.5 39.9783 135.76 39.9783 136.057C39.9783 136.283 39.9446 136.487 39.8771 136.669C39.8097 136.851 39.7169 137.016 39.5989 137.165C39.4808 137.31 39.3408 137.441 39.1789 137.559C39.017 137.674 38.8416 137.779 38.6527 137.873C38.8483 137.978 39.0389 138.094 39.2244 138.222C39.4133 138.35 39.5803 138.495 39.7254 138.657C39.8738 138.816 39.9918 138.995 40.0795 139.194C40.1706 139.393 40.2161 139.615 40.2161 139.861C40.2161 140.172 40.1588 140.453 40.0441 140.706C39.9328 140.956 39.7743 141.169 39.5685 141.344C39.3661 141.519 39.1216 141.654 38.8348 141.749C38.5515 141.843 38.2378 141.89 37.8937 141.89C37.5227 141.89 37.1921 141.845 36.9021 141.754C36.6153 141.663 36.3725 141.533 36.1735 141.364C35.9778 141.192 35.8277 140.983 35.7232 140.737C35.622 140.491 35.5714 140.212 35.5714 139.902C35.5714 139.649 35.6085 139.421 35.6827 139.219C35.7603 139.016 35.8631 138.834 35.9913 138.672C36.1195 138.511 36.2713 138.367 36.4467 138.242C36.6221 138.118 36.8076 138.008 37.0032 137.913C36.838 137.809 36.6828 137.696 36.5378 137.574C36.3927 137.45 36.2662 137.311 36.1583 137.16C36.0537 137.008 35.9694 136.841 35.9053 136.659C35.8446 136.473 35.8142 136.269 35.8142 136.046C35.8142 135.753 35.8699 135.497 35.9812 135.277C36.0959 135.055 36.2494 134.869 36.4416 134.721C36.6339 134.572 36.8548 134.461 37.1044 134.387C37.3574 134.313 37.6205 134.276 37.8937 134.276ZM36.477 139.912C36.477 140.091 36.504 140.256 36.558 140.408C36.612 140.556 36.6963 140.684 36.811 140.792C36.9257 140.897 37.0707 140.98 37.2461 141.04C37.4215 141.098 37.6306 141.126 37.8735 141.126C38.1096 141.126 38.3171 141.098 38.4959 141.04C38.678 140.98 38.8298 140.895 38.9512 140.787C39.0727 140.676 39.1637 140.543 39.2244 140.388C39.2852 140.232 39.3155 140.06 39.3155 139.872C39.3155 139.696 39.2818 139.538 39.2143 139.396C39.1502 139.254 39.0558 139.123 38.931 139.001C38.8095 138.88 38.6628 138.765 38.4908 138.657C38.3188 138.549 38.1265 138.443 37.914 138.338L37.7622 138.268C37.3372 138.47 37.0167 138.703 36.8009 138.966C36.585 139.226 36.477 139.541 36.477 139.912ZM37.8836 135.045C37.5261 135.045 37.2411 135.134 37.0285 135.313C36.8194 135.492 36.7148 135.751 36.7148 136.092C36.7148 136.284 36.7435 136.45 36.8009 136.588C36.8616 136.726 36.9442 136.849 37.0488 136.957C37.1534 137.065 37.2782 137.163 37.4232 137.251C37.5716 137.335 37.7318 137.418 37.9039 137.499C38.0658 137.424 38.2176 137.343 38.3592 137.256C38.5043 137.168 38.6291 137.069 38.7337 136.957C38.8416 136.846 38.9259 136.719 38.9866 136.578C39.0474 136.436 39.0777 136.274 39.0777 136.092C39.0777 135.751 38.9715 135.492 38.759 135.313C38.5464 135.134 38.2547 135.045 37.8836 135.045ZM41.4861 141.228C41.4861 141.099 41.503 140.991 41.5367 140.904C41.5704 140.813 41.616 140.74 41.6733 140.686C41.7307 140.629 41.7981 140.588 41.8757 140.565C41.9533 140.538 42.0376 140.524 42.1287 140.524C42.2164 140.524 42.299 140.538 42.3766 140.565C42.4576 140.588 42.5267 140.629 42.5841 140.686C42.6414 140.74 42.6869 140.813 42.7207 140.904C42.7544 140.991 42.7713 141.099 42.7713 141.228C42.7713 141.352 42.7544 141.46 42.7207 141.551C42.6869 141.639 42.6414 141.712 42.5841 141.769C42.5267 141.826 42.4576 141.868 42.3766 141.895C42.299 141.922 42.2164 141.936 42.1287 141.936C42.0376 141.936 41.9533 141.922 41.8757 141.895C41.7981 141.868 41.7307 141.826 41.6733 141.769C41.616 141.712 41.5704 141.639 41.5367 141.551C41.503 141.46 41.4861 141.352 41.4861 141.228ZM48.7265 137.549C48.7265 137.903 48.708 138.258 48.6708 138.612C48.6371 138.963 48.5747 139.298 48.4836 139.619C48.3959 139.939 48.2745 140.239 48.1193 140.519C47.9642 140.796 47.7669 141.035 47.5274 141.238C47.2879 141.44 47.0012 141.6 46.6672 141.718C46.3333 141.833 45.942 141.89 45.4934 141.89C45.4293 141.89 45.3585 141.889 45.2809 141.885C45.2033 141.882 45.1257 141.875 45.0481 141.865C44.9705 141.858 44.8946 141.85 44.8204 141.84C44.7462 141.83 44.6805 141.816 44.6231 141.799V141.01C44.7412 141.054 44.8744 141.086 45.0228 141.106C45.1712 141.126 45.318 141.136 45.463 141.136C45.9184 141.136 46.2928 141.057 46.5863 140.899C46.8797 140.74 47.1125 140.526 47.2845 140.256C47.4565 139.983 47.578 139.666 47.6488 139.305C47.723 138.944 47.7685 138.563 47.7854 138.161H47.7196C47.6522 138.283 47.5712 138.396 47.4768 138.5C47.3823 138.605 47.271 138.696 47.1428 138.774C47.0146 138.851 46.8696 138.912 46.7077 138.956C46.5458 139 46.3653 139.022 46.1663 139.022C45.8459 139.022 45.5558 138.973 45.296 138.875C45.0363 138.774 44.8154 138.627 44.6332 138.435C44.4511 138.242 44.3094 138.008 44.2082 137.731C44.1104 137.451 44.0615 137.133 44.0615 136.775C44.0615 136.391 44.1138 136.045 44.2183 135.738C44.3263 135.427 44.4764 135.166 44.6686 134.954C44.8643 134.738 45.1004 134.572 45.377 134.458C45.657 134.343 45.969 134.286 46.313 134.286C46.6537 134.286 46.9708 134.351 47.2643 134.483C47.5577 134.615 47.8124 134.815 48.0283 135.085C48.2441 135.355 48.4145 135.696 48.5393 136.107C48.6641 136.515 48.7265 136.996 48.7265 137.549ZM46.3232 135.065C46.1208 135.065 45.9353 135.099 45.7666 135.166C45.6013 135.234 45.458 135.338 45.3365 135.48C45.2151 135.621 45.1206 135.8 45.0532 136.016C44.9891 136.229 44.9571 136.482 44.9571 136.775C44.9571 137.011 44.984 137.224 45.038 137.413C45.0953 137.598 45.1797 137.757 45.291 137.888C45.4023 138.02 45.5406 138.121 45.7059 138.192C45.8745 138.263 46.0702 138.298 46.2928 138.298C46.5222 138.298 46.7296 138.259 46.9151 138.182C47.1007 138.101 47.2592 137.998 47.3908 137.873C47.5223 137.745 47.6235 137.6 47.6943 137.438C47.7685 137.276 47.8056 137.114 47.8056 136.952C47.8056 136.726 47.7736 136.502 47.7095 136.279C47.6488 136.053 47.556 135.851 47.4312 135.672C47.3098 135.49 47.1563 135.343 46.9708 135.232C46.7853 135.121 46.5694 135.065 46.3232 135.065Z" fill="white"/>
<path d="M52.979 134.554V141.789H52.043V134.554H52.979ZM54.8562 141.789V134.554H56.0452L58.7015 140.59L61.3072 134.554H62.4457V141.789H61.6108V135.854L59.0405 141.789H58.3018L55.691 135.854V141.789H54.8562ZM66.797 141.03C68.5679 141.03 69.4533 140.012 69.4533 137.974C69.4533 136.2 68.5679 135.313 66.797 135.313H65.102V141.03H66.797ZM64.166 141.789V134.554H66.797C69.1919 134.554 70.3893 135.694 70.3893 137.974C70.3893 140.518 69.1919 141.789 66.797 141.789H64.166ZM72.5903 140.863C72.8973 140.961 73.27 141.01 73.7085 141.01C74.8891 141.01 75.4794 140.337 75.4794 138.991C75.4794 137.854 74.9447 137.286 73.8755 137.286C73.3897 137.286 72.9613 137.377 72.5903 137.559V140.863ZM71.6543 134.554H72.5903V136.73C72.9917 136.561 73.4218 136.477 73.8805 136.477C75.5603 136.477 76.4002 137.327 76.4002 139.027C76.4002 140.868 75.5182 141.789 73.754 141.789C72.9917 141.789 72.2918 141.717 71.6543 141.572V134.554Z" fill="white"/>
<path d="M27.0257 153.827C27.3428 153.827 27.6379 153.876 27.9111 153.974C28.1843 154.072 28.4222 154.215 28.6245 154.404C28.8269 154.593 28.9855 154.829 29.1001 155.112C29.2148 155.392 29.2722 155.715 29.2722 156.079C29.2722 156.48 29.2098 156.841 29.085 157.162C28.9602 157.479 28.7763 157.749 28.5335 157.971C28.2906 158.19 27.9887 158.359 27.6278 158.477C27.2702 158.595 26.8587 158.654 26.3932 158.654C26.2077 158.654 26.0239 158.646 25.8417 158.629C25.6596 158.612 25.4842 158.587 25.3155 158.553C25.1502 158.523 24.9917 158.482 24.8399 158.432C24.6915 158.381 24.5566 158.322 24.4351 158.255V156.904C24.5532 156.971 24.6898 157.035 24.845 157.096C25.0001 157.153 25.1604 157.204 25.3256 157.248C25.4943 157.288 25.6629 157.322 25.8316 157.349C26.0003 157.372 26.1605 157.384 26.3123 157.384C26.7643 157.384 27.1083 157.291 27.3444 157.106C27.5806 156.917 27.6986 156.619 27.6986 156.21C27.6986 155.846 27.5822 155.57 27.3495 155.381C27.1201 155.188 26.7643 155.092 26.2819 155.092C26.1942 155.092 26.0998 155.097 25.9986 155.107C25.9007 155.118 25.8029 155.131 25.7051 155.148C25.6107 155.165 25.5196 155.183 25.4319 155.204C25.3442 155.22 25.2683 155.239 25.2042 155.259L24.5819 154.925L24.8601 151.156H28.7662V152.481H26.2161L26.0947 153.934C26.2026 153.91 26.3274 153.886 26.4691 153.863C26.6142 153.839 26.7997 153.827 27.0257 153.827ZM37.3828 156.499C37.3828 156.829 37.3255 157.128 37.2108 157.394C37.0995 157.657 36.9342 157.883 36.715 158.072C36.4991 158.258 36.2326 158.401 35.9155 158.502C35.6018 158.604 35.2409 158.654 34.8328 158.654C34.4752 158.654 34.1295 158.617 33.7955 158.543C33.465 158.469 33.158 158.357 32.8747 158.209V156.752C33.0366 156.829 33.2002 156.905 33.3655 156.979C33.5307 157.05 33.6977 157.114 33.8664 157.172C34.0384 157.229 34.2087 157.275 34.3774 157.308C34.5494 157.342 34.7198 157.359 34.8884 157.359C35.0604 157.359 35.2072 157.34 35.3286 157.303C35.4534 157.263 35.5529 157.209 35.6271 157.141C35.7047 157.071 35.7604 156.988 35.7941 156.893C35.8312 156.796 35.8497 156.689 35.8497 156.575C35.8497 156.436 35.8194 156.315 35.7587 156.21C35.7013 156.102 35.6187 156.003 35.5108 155.912C35.4062 155.817 35.278 155.726 35.1262 155.639C34.9778 155.551 34.8108 155.458 34.6253 155.36C34.4701 155.279 34.2964 155.182 34.1042 155.067C33.9119 154.952 33.7297 154.811 33.5577 154.642C33.3891 154.47 33.2474 154.264 33.1327 154.025C33.018 153.782 32.9607 153.492 32.9607 153.154C32.9607 152.824 33.0146 152.529 33.1226 152.269C33.2339 152.006 33.3907 151.785 33.5931 151.606C33.7955 151.424 34.0401 151.286 34.3268 151.191C34.6169 151.097 34.9407 151.05 35.2982 151.05C35.477 151.05 35.6507 151.061 35.8194 151.085C35.9914 151.109 36.1601 151.142 36.3254 151.186C36.494 151.23 36.6627 151.284 36.8313 151.348C37 151.412 37.1737 151.486 37.3525 151.571L36.8465 152.79C36.6947 152.719 36.553 152.657 36.4215 152.603C36.2899 152.549 36.1618 152.503 36.037 152.466C35.9122 152.429 35.789 152.402 35.6676 152.385C35.5495 152.365 35.4298 152.355 35.3084 152.355C35.0453 152.355 34.8429 152.426 34.7012 152.567C34.5629 152.706 34.4938 152.891 34.4938 153.124C34.4938 153.249 34.514 153.36 34.5545 153.458C34.5983 153.552 34.6658 153.642 34.7569 153.726C34.8513 153.81 34.9711 153.896 35.1161 153.984C35.2645 154.072 35.4433 154.171 35.6524 154.283C35.9054 154.418 36.1382 154.556 36.3507 154.698C36.5632 154.836 36.7453 154.991 36.8971 155.163C37.0523 155.332 37.172 155.524 37.2563 155.74C37.3407 155.956 37.3828 156.209 37.3828 156.499ZM40.9297 153.888C40.6564 153.888 40.4288 153.984 40.2466 154.176C40.0678 154.369 39.9649 154.671 39.938 155.082H41.9062C41.9028 154.91 41.8809 154.752 41.8404 154.606C41.7999 154.461 41.7392 154.337 41.6583 154.232C41.5773 154.124 41.4761 154.04 41.3547 153.979C41.2332 153.918 41.0916 153.888 40.9297 153.888ZM41.127 158.654C40.7222 158.654 40.3495 158.595 40.0088 158.477C39.6681 158.359 39.3747 158.182 39.1284 157.946C38.8822 157.706 38.6899 157.406 38.5516 157.045C38.4167 156.681 38.3492 156.254 38.3492 155.765C38.3492 155.269 38.4116 154.836 38.5364 154.465C38.6612 154.094 38.835 153.785 39.0576 153.539C39.2836 153.289 39.5534 153.102 39.8671 152.977C40.1842 152.852 40.535 152.79 40.9195 152.79C41.294 152.79 41.6313 152.847 41.9315 152.962C42.2351 153.073 42.4914 153.239 42.7005 153.458C42.913 153.677 43.075 153.947 43.1863 154.267C43.301 154.585 43.3583 154.949 43.3583 155.36V156.109H39.9076C39.9144 156.325 39.9481 156.521 40.0088 156.696C40.0729 156.868 40.1606 157.015 40.2719 157.136C40.3866 157.254 40.5232 157.345 40.6817 157.41C40.8436 157.474 41.0275 157.506 41.2332 157.506C41.4053 157.506 41.5672 157.497 41.719 157.48C41.8741 157.46 42.0242 157.431 42.1693 157.394C42.3143 157.357 42.4577 157.312 42.5993 157.258C42.741 157.2 42.8861 157.135 43.0345 157.06V158.255C42.8996 158.325 42.7629 158.386 42.6246 158.437C42.4897 158.484 42.3464 158.524 42.1946 158.558C42.0428 158.592 41.8792 158.615 41.7038 158.629C41.5284 158.646 41.3361 158.654 41.127 158.654ZM47.9474 158.553L47.6489 157.784H47.6034C47.4921 157.936 47.3807 158.067 47.2694 158.179C47.1581 158.287 47.0367 158.376 46.9051 158.447C46.7736 158.518 46.6252 158.57 46.4599 158.604C46.298 158.637 46.1091 158.654 45.8932 158.654C45.6638 158.654 45.4513 158.619 45.2557 158.548C45.06 158.474 44.8897 158.364 44.7446 158.219C44.603 158.071 44.4917 157.885 44.4107 157.663C44.3298 157.437 44.2893 157.17 44.2893 156.863C44.2893 156.263 44.4815 155.821 44.8661 155.537C45.2506 155.251 45.8257 155.092 46.5914 155.062L47.4921 155.032V154.606C47.4921 154.374 47.4246 154.202 47.2897 154.09C47.1547 153.979 46.9658 153.923 46.723 153.923C46.4801 153.923 46.2423 153.959 46.0096 154.03C45.7802 154.101 45.5491 154.195 45.3164 154.313L44.8155 153.291C45.0988 153.132 45.4125 153.008 45.7566 152.917C46.1006 152.825 46.4616 152.78 46.8394 152.78C47.5443 152.78 48.084 152.945 48.4584 153.276C48.8362 153.606 49.0251 154.109 49.0251 154.784V158.553H47.9474ZM47.4921 155.932L46.981 155.952C46.7753 155.959 46.6015 155.986 46.4599 156.033C46.3182 156.081 46.2035 156.145 46.1158 156.226C46.0315 156.303 45.9691 156.398 45.9286 156.509C45.8915 156.617 45.873 156.738 45.873 156.873C45.873 157.109 45.9303 157.278 46.045 157.379C46.1597 157.477 46.3098 157.526 46.4953 157.526C46.637 157.526 46.7685 157.502 46.8899 157.455C47.0114 157.404 47.1159 157.332 47.2036 157.238C47.2947 157.14 47.3656 157.022 47.4162 156.883C47.4668 156.742 47.4921 156.58 47.4921 156.398V155.932ZM54.3833 156.873C54.3833 157.17 54.3294 157.43 54.2214 157.652C54.1135 157.875 53.96 158.061 53.761 158.209C53.562 158.357 53.3208 158.469 53.0375 158.543C52.7541 158.617 52.437 158.654 52.0862 158.654C51.9007 158.654 51.7287 158.647 51.5701 158.634C51.4116 158.624 51.2615 158.605 51.1198 158.578C50.9782 158.551 50.8416 158.518 50.71 158.477C50.5785 158.437 50.4452 158.386 50.3103 158.325V157.05C50.452 157.121 50.6004 157.185 50.7555 157.243C50.9141 157.3 51.0709 157.351 51.2261 157.394C51.3813 157.435 51.5314 157.467 51.6764 157.491C51.8248 157.514 51.9614 157.526 52.0862 157.526C52.2245 157.526 52.3426 157.514 52.4404 157.491C52.5382 157.464 52.6175 157.428 52.6782 157.384C52.7423 157.337 52.7878 157.283 52.8148 157.222C52.8452 157.158 52.8604 157.091 52.8604 157.02C52.8604 156.949 52.8486 156.887 52.8249 156.833C52.8047 156.775 52.7558 156.716 52.6782 156.656C52.6006 156.592 52.4859 156.521 52.3342 156.443C52.1857 156.362 51.985 156.264 51.7321 156.15C51.4858 156.038 51.2716 155.929 51.0895 155.821C50.9107 155.71 50.7623 155.586 50.6442 155.451C50.5295 155.317 50.4435 155.163 50.3862 154.991C50.3288 154.816 50.3002 154.608 50.3002 154.369C50.3002 154.106 50.3508 153.876 50.452 153.681C50.5532 153.482 50.6965 153.316 50.882 153.185C51.0676 153.053 51.2902 152.955 51.5499 152.891C51.813 152.824 52.1048 152.79 52.4252 152.79C52.7625 152.79 53.083 152.829 53.3866 152.906C53.6901 152.984 54.0022 153.1 54.3226 153.256L53.8571 154.348C53.6008 154.227 53.3562 154.128 53.1235 154.05C52.8907 153.972 52.658 153.934 52.4252 153.934C52.2161 153.934 52.0643 153.971 51.9699 154.045C51.8788 154.119 51.8332 154.22 51.8332 154.348C51.8332 154.416 51.8451 154.477 51.8687 154.531C51.8923 154.581 51.9395 154.635 52.0103 154.693C52.0812 154.746 52.1807 154.807 52.3089 154.875C52.437 154.939 52.604 155.018 52.8098 155.112C53.0493 155.217 53.2651 155.322 53.4574 155.426C53.6497 155.527 53.815 155.644 53.9533 155.775C54.0915 155.907 54.1978 156.06 54.272 156.236C54.3462 156.411 54.3833 156.624 54.3833 156.873ZM56.8879 155.715C56.8879 156.278 56.9671 156.703 57.1257 156.99C57.2842 157.273 57.5422 157.415 57.8998 157.415C58.254 157.415 58.5103 157.271 58.6689 156.985C58.8274 156.698 58.9067 156.275 58.9067 155.715C58.9067 155.151 58.8274 154.731 58.6689 154.455C58.5103 154.175 58.2506 154.035 57.8897 154.035C57.5355 154.035 57.2791 154.175 57.1206 154.455C56.9654 154.731 56.8879 155.151 56.8879 155.715ZM60.4802 155.715C60.4802 156.187 60.4195 156.605 60.2981 156.969C60.18 157.334 60.008 157.641 59.782 157.89C59.5594 158.14 59.2861 158.33 58.9623 158.462C58.6419 158.59 58.281 158.654 57.8796 158.654C57.5051 158.654 57.1611 158.59 56.8474 158.462C56.5337 158.33 56.2621 158.14 56.0328 157.89C55.8068 157.641 55.6297 157.334 55.5015 156.969C55.3733 156.605 55.3092 156.187 55.3092 155.715C55.3092 155.246 55.3683 154.829 55.4863 154.465C55.6078 154.101 55.7798 153.795 56.0024 153.549C56.2284 153.299 56.5016 153.111 56.8221 152.982C57.1425 152.854 57.5051 152.79 57.9099 152.79C58.2843 152.79 58.6284 152.854 58.9421 152.982C59.2558 153.111 59.5256 153.299 59.7516 153.549C59.981 153.795 60.1598 154.101 60.288 154.465C60.4161 154.829 60.4802 155.246 60.4802 155.715ZM66.7239 158.553H65.1807V155.249C65.1807 154.841 65.1183 154.536 64.9935 154.333C64.872 154.128 64.6764 154.025 64.4065 154.025C64.2041 154.025 64.0355 154.065 63.9006 154.146C63.7656 154.227 63.6577 154.347 63.5767 154.505C63.4992 154.664 63.4435 154.859 63.4098 155.092C63.376 155.325 63.3592 155.591 63.3592 155.892V158.553H61.816V152.896H62.9949L63.2023 153.62H63.2883C63.3693 153.475 63.4671 153.35 63.5818 153.245C63.6999 153.141 63.828 153.055 63.9663 152.987C64.1046 152.92 64.2514 152.871 64.4065 152.841C64.5617 152.807 64.7202 152.79 64.8821 152.79C65.1587 152.79 65.41 152.831 65.636 152.912C65.862 152.989 66.056 153.112 66.2179 153.281C66.3798 153.45 66.5046 153.665 66.5923 153.929C66.68 154.188 66.7239 154.5 66.7239 154.865V158.553ZM72.082 156.873C72.082 157.17 72.0281 157.43 71.9201 157.652C71.8122 157.875 71.6587 158.061 71.4597 158.209C71.2607 158.357 71.0195 158.469 70.7362 158.543C70.4528 158.617 70.1358 158.654 69.785 158.654C69.5994 158.654 69.4274 158.647 69.2689 158.634C69.1103 158.624 68.9602 158.605 68.8186 158.578C68.6769 158.551 68.5403 158.518 68.4087 158.477C68.2772 158.437 68.1439 158.386 68.009 158.325V157.05C68.1507 157.121 68.2991 157.185 68.4543 157.243C68.6128 157.3 68.7697 157.351 68.9248 157.394C69.08 157.435 69.2301 157.467 69.3751 157.491C69.5235 157.514 69.6602 157.526 69.785 157.526C69.9233 157.526 70.0413 157.514 70.1391 157.491C70.237 157.464 70.3162 157.428 70.3769 157.384C70.441 157.337 70.4866 157.283 70.5136 157.222C70.5439 157.158 70.5591 157.091 70.5591 157.02C70.5591 156.949 70.5473 156.887 70.5237 156.833C70.5034 156.775 70.4545 156.716 70.3769 156.656C70.2994 156.592 70.1847 156.521 70.0329 156.443C69.8845 156.362 69.6838 156.264 69.4308 156.15C69.1845 156.038 68.9704 155.929 68.7882 155.821C68.6094 155.71 68.461 155.586 68.343 155.451C68.2283 155.317 68.1423 155.163 68.0849 154.991C68.0276 154.816 67.9989 154.608 67.9989 154.369C67.9989 154.106 68.0495 153.876 68.1507 153.681C68.2519 153.482 68.3952 153.316 68.5808 153.185C68.7663 153.053 68.9889 152.955 69.2486 152.891C69.5117 152.824 69.8035 152.79 70.124 152.79C70.4613 152.79 70.7817 152.829 71.0853 152.906C71.3889 152.984 71.7009 153.1 72.0213 153.256L71.5558 154.348C71.2995 154.227 71.0549 154.128 70.8222 154.05C70.5894 153.972 70.3567 153.934 70.124 153.934C69.9148 153.934 69.763 153.971 69.6686 154.045C69.5775 154.119 69.532 154.22 69.532 154.348C69.532 154.416 69.5438 154.477 69.5674 154.531C69.591 154.581 69.6382 154.635 69.7091 154.693C69.7799 154.746 69.8794 154.807 70.0076 154.875C70.1358 154.939 70.3027 155.018 70.5085 155.112C70.748 155.217 70.9639 155.322 71.1561 155.426C71.3484 155.527 71.5137 155.644 71.652 155.775C71.7903 155.907 71.8965 156.06 71.9707 156.236C72.0449 156.411 72.082 156.624 72.082 156.873Z" fill="white"/>
<path d="M88.5376 153.215C88.2798 153.215 88.0461 153.265 87.8365 153.363C87.6269 153.46 87.4474 153.6 87.298 153.783C87.1511 153.966 87.0366 154.189 86.9547 154.451C86.8752 154.714 86.8354 155.01 86.8354 155.34C86.8354 155.68 86.8704 155.982 86.9402 156.247C87.0125 156.51 87.1197 156.732 87.2619 156.912C87.404 157.093 87.5811 157.23 87.7931 157.324C88.0052 157.418 88.2533 157.465 88.5376 157.465C88.7521 157.465 88.9557 157.445 89.1484 157.404C89.3412 157.361 89.5315 157.311 89.7194 157.256V157.841C89.6255 157.877 89.5315 157.91 89.4375 157.939C89.3436 157.965 89.2448 157.987 89.1412 158.004C89.04 158.021 88.9304 158.033 88.8123 158.04C88.6967 158.05 88.5678 158.054 88.4256 158.054C88.0305 158.054 87.6883 157.989 87.3992 157.859C87.1101 157.729 86.8704 157.545 86.68 157.306C86.4921 157.068 86.3523 156.781 86.2608 156.446C86.1692 156.111 86.1235 155.74 86.1235 155.333C86.1235 154.933 86.1753 154.567 86.2789 154.234C86.3849 153.902 86.5391 153.616 86.7415 153.378C86.9463 153.139 87.1992 152.954 87.5004 152.821C87.8016 152.689 88.1473 152.623 88.5376 152.623C88.7979 152.623 89.046 152.649 89.2821 152.702C89.5183 152.755 89.7315 152.832 89.9218 152.933L89.6399 153.497C89.4881 153.42 89.3231 153.354 89.1448 153.298C88.9665 153.243 88.7641 153.215 88.5376 153.215ZM92.8528 153.215C92.595 153.215 92.3613 153.265 92.1517 153.363C91.9421 153.46 91.7626 153.6 91.6132 153.783C91.4662 153.966 91.3518 154.189 91.2699 154.451C91.1904 154.714 91.1506 155.01 91.1506 155.34C91.1506 155.68 91.1855 155.982 91.2554 156.247C91.3277 156.51 91.4349 156.732 91.5771 156.912C91.7192 157.093 91.8963 157.23 92.1083 157.324C92.3203 157.418 92.5685 157.465 92.8528 157.465C93.0673 157.465 93.2708 157.445 93.4636 157.404C93.6563 157.361 93.8467 157.311 94.0346 157.256V157.841C93.9406 157.877 93.8467 157.91 93.7527 157.939C93.6588 157.965 93.56 157.987 93.4564 158.004C93.3552 158.021 93.2455 158.033 93.1275 158.04C93.0118 158.05 92.8829 158.054 92.7408 158.054C92.3456 158.054 92.0035 157.989 91.7144 157.859C91.4253 157.729 91.1855 157.545 90.9952 157.306C90.8073 157.068 90.6675 156.781 90.576 156.446C90.4844 156.111 90.4386 155.74 90.4386 155.333C90.4386 154.933 90.4904 154.567 90.594 154.234C90.7 153.902 90.8542 153.616 91.0566 153.378C91.2614 153.139 91.5144 152.954 91.8156 152.821C92.1168 152.689 92.4625 152.623 92.8528 152.623C93.113 152.623 93.3612 152.649 93.5973 152.702C93.8334 152.755 94.0467 152.832 94.237 152.933L93.9551 153.497C93.8033 153.42 93.6383 153.354 93.46 153.298C93.2817 153.243 93.0793 153.215 92.8528 153.215Z" fill="white"/>
<rect x="82.2912" y="150.242" width="15.5433" height="9.62205" rx="1.85039" stroke="white" stroke-width="0.740158"/>
<path d="M110.573 157.982H109.937V154.683C109.937 154.579 109.937 154.468 109.937 154.35C109.939 154.232 109.941 154.115 109.944 153.999C109.949 153.881 109.952 153.769 109.955 153.663C109.959 153.555 109.963 153.46 109.965 153.378C109.924 153.421 109.888 153.459 109.857 153.49C109.826 153.521 109.793 153.551 109.759 153.58C109.728 153.609 109.694 153.64 109.658 153.674C109.622 153.706 109.579 153.743 109.528 153.786L108.993 154.224L108.646 153.779L110.031 152.698H110.573V157.982ZM112.488 155.723C112.488 155.47 112.5 155.219 112.524 154.968C112.551 154.717 112.595 154.478 112.658 154.249C112.723 154.018 112.811 153.803 112.922 153.606C113.033 153.408 113.174 153.237 113.345 153.092C113.516 152.945 113.72 152.831 113.959 152.749C114.198 152.665 114.477 152.623 114.797 152.623C114.843 152.623 114.894 152.624 114.949 152.626C115.005 152.629 115.06 152.633 115.115 152.641C115.173 152.645 115.228 152.653 115.278 152.662C115.331 152.67 115.378 152.679 115.419 152.691V153.251C115.335 153.222 115.24 153.201 115.134 153.186C115.028 153.172 114.923 153.165 114.819 153.165C114.602 153.165 114.411 153.191 114.244 153.244C114.081 153.295 113.939 153.367 113.818 153.461C113.698 153.555 113.596 153.667 113.514 153.797C113.435 153.927 113.37 154.072 113.319 154.231C113.269 154.387 113.231 154.555 113.207 154.733C113.183 154.911 113.168 155.097 113.16 155.29H113.204C113.252 155.203 113.31 155.122 113.377 155.048C113.447 154.97 113.528 154.905 113.619 154.852C113.711 154.797 113.813 154.754 113.926 154.722C114.042 154.691 114.171 154.675 114.313 154.675C114.542 154.675 114.749 154.711 114.935 154.784C115.12 154.854 115.278 154.957 115.408 155.095C115.538 155.232 115.638 155.401 115.708 155.601C115.78 155.798 115.817 156.025 115.817 156.28C115.817 156.555 115.779 156.802 115.705 157.021C115.63 157.24 115.523 157.427 115.383 157.581C115.243 157.733 115.075 157.85 114.877 157.932C114.679 158.013 114.458 158.054 114.212 158.054C113.971 158.054 113.745 158.007 113.533 157.914C113.323 157.82 113.141 157.676 112.987 157.483C112.833 157.291 112.711 157.049 112.622 156.757C112.533 156.465 112.488 156.121 112.488 155.723ZM114.205 157.502C114.349 157.502 114.481 157.477 114.599 157.429C114.719 157.379 114.823 157.304 114.909 157.205C114.996 157.104 115.062 156.977 115.108 156.826C115.156 156.671 115.181 156.49 115.181 156.28C115.181 156.111 115.16 155.961 115.119 155.828C115.081 155.693 115.022 155.579 114.942 155.485C114.862 155.391 114.763 155.319 114.642 155.268C114.524 155.217 114.385 155.192 114.226 155.192C114.065 155.192 113.917 155.221 113.782 155.279C113.649 155.334 113.536 155.408 113.442 155.499C113.348 155.588 113.275 155.691 113.222 155.807C113.171 155.922 113.146 156.038 113.146 156.153C113.146 156.315 113.168 156.476 113.211 156.638C113.257 156.797 113.323 156.94 113.41 157.068C113.499 157.196 113.61 157.3 113.742 157.382C113.875 157.462 114.029 157.502 114.205 157.502ZM117.924 155.644H116.525V155.102H117.924V153.696H118.466V155.102H119.864V155.644H118.466V157.035H117.924V155.644Z" fill="white"/>
<rect x="104.496" y="150.242" width="19.2441" height="9.62205" rx="1.85039" stroke="white" stroke-width="0.740158"/>
<circle cx="25.1102" cy="172.474" r="1.11024" fill="#E1E1E1" fill-opacity="0.5"/>
<path d="M33.1935 169.301C32.8325 169.301 32.5054 169.37 32.2119 169.508C31.9184 169.643 31.6671 169.839 31.458 170.095C31.2522 170.351 31.092 170.663 30.9773 171.031C30.866 171.399 30.8104 171.814 30.8104 172.276C30.8104 172.751 30.8593 173.175 30.9571 173.546C31.0583 173.913 31.2084 174.224 31.4074 174.477C31.6064 174.73 31.8543 174.922 32.1512 175.053C32.448 175.185 32.7954 175.251 33.1935 175.251C33.4937 175.251 33.7787 175.222 34.0486 175.165C34.3184 175.104 34.5849 175.035 34.848 174.957V175.777C34.7164 175.828 34.5849 175.873 34.4533 175.914C34.3218 175.951 34.1835 175.981 34.0384 176.005C33.8968 176.028 33.7433 176.045 33.578 176.055C33.4161 176.069 33.2356 176.075 33.0366 176.075C32.4834 176.075 32.0044 175.984 31.5997 175.802C31.1949 175.62 30.8593 175.362 30.5928 175.028C30.3297 174.694 30.1341 174.293 30.0059 173.824C29.8777 173.355 29.8136 172.836 29.8136 172.266C29.8136 171.706 29.8861 171.193 30.0312 170.727C30.1796 170.262 30.3955 169.862 30.6788 169.528C30.9655 169.194 31.3197 168.935 31.7413 168.749C32.163 168.564 32.647 168.471 33.1935 168.471C33.5578 168.471 33.9052 168.508 34.2358 168.582C34.5663 168.656 34.8648 168.764 35.1313 168.906L34.7367 169.695C34.5242 169.587 34.2931 169.495 34.0435 169.417C33.7939 169.339 33.5105 169.301 33.1935 169.301ZM40.8437 173.186C40.8437 173.649 40.7864 174.06 40.6717 174.421C40.5604 174.779 40.3984 175.08 40.1859 175.327C39.9768 175.57 39.7221 175.755 39.4219 175.883C39.1217 176.011 38.7844 176.075 38.41 176.075C38.0626 176.075 37.7421 176.011 37.4487 175.883C37.1552 175.755 36.9005 175.57 36.6846 175.327C36.4721 175.08 36.3052 174.779 36.1837 174.421C36.0657 174.06 36.0066 173.649 36.0066 173.186C36.0066 172.728 36.0623 172.321 36.1736 171.967C36.2883 171.609 36.4502 171.309 36.6593 171.066C36.8685 170.82 37.1231 170.635 37.4234 170.51C37.7269 170.382 38.0659 170.318 38.4403 170.318C38.7878 170.318 39.1082 170.382 39.4017 170.51C39.6951 170.635 39.9481 170.82 40.1606 171.066C40.3765 171.309 40.5435 171.609 40.6615 171.967C40.783 172.321 40.8437 172.728 40.8437 173.186ZM36.9579 173.186C36.9579 173.891 37.0726 174.423 37.3019 174.78C37.5347 175.134 37.9108 175.311 38.4302 175.311C38.9497 175.311 39.3224 175.134 39.5484 174.78C39.7778 174.423 39.8925 173.891 39.8925 173.186C39.8925 172.481 39.7761 171.955 39.5434 171.608C39.314 171.257 38.9396 171.082 38.4201 171.082C37.9007 171.082 37.5262 171.257 37.2969 171.608C37.0709 171.955 36.9579 172.481 36.9579 173.186ZM48.9493 175.974V172.397C48.9493 171.959 48.865 171.63 48.6963 171.41C48.5276 171.191 48.2662 171.082 47.9121 171.082C47.6658 171.082 47.4567 171.122 47.2847 171.203C47.1126 171.281 46.971 171.397 46.8596 171.552C46.7517 171.704 46.6724 171.895 46.6218 172.124C46.5712 172.35 46.5459 172.611 46.5459 172.908V175.974H45.62V172.397C45.62 171.959 45.5357 171.63 45.367 171.41C45.2018 171.191 44.942 171.082 44.5878 171.082C44.3281 171.082 44.1106 171.125 43.9352 171.213C43.7597 171.301 43.6181 171.431 43.5101 171.603C43.4056 171.775 43.3297 171.986 43.2825 172.235C43.2386 172.485 43.2167 172.772 43.2167 173.095V175.974H42.2958V170.419H43.0446L43.1762 171.168H43.2268C43.3078 171.023 43.4039 170.898 43.5152 170.793C43.6265 170.685 43.7479 170.596 43.8795 170.525C44.0144 170.454 44.1561 170.402 44.3045 170.368C44.4563 170.334 44.6098 170.318 44.7649 170.318C45.1697 170.318 45.5053 170.392 45.7718 170.54C46.0417 170.689 46.2407 170.921 46.3689 171.238H46.4093C46.497 171.08 46.6016 170.943 46.723 170.829C46.8478 170.714 46.9828 170.619 47.1278 170.545C47.2762 170.468 47.4314 170.41 47.5933 170.373C47.7552 170.336 47.9205 170.318 48.0891 170.318C48.6794 170.318 49.123 170.48 49.4198 170.803C49.72 171.124 49.8701 171.638 49.8701 172.347V175.974H48.9493ZM53.7813 176.075C53.4102 176.075 53.0712 176.013 52.7643 175.888C52.4573 175.763 52.1925 175.581 51.9699 175.342C51.7507 175.102 51.5803 174.806 51.4589 174.451C51.3374 174.097 51.2767 173.692 51.2767 173.237C51.2767 172.778 51.3324 172.368 51.4437 172.008C51.555 171.647 51.7119 171.341 51.9143 171.092C52.1166 170.839 52.3578 170.646 52.6378 170.515C52.9211 170.383 53.2331 170.318 53.5738 170.318C53.9078 170.318 54.208 170.378 54.4744 170.5C54.7409 170.618 54.9669 170.786 55.1524 171.006C55.338 171.222 55.4796 171.483 55.5775 171.79C55.6786 172.094 55.7292 172.431 55.7292 172.802V173.374H52.228C52.2448 174.025 52.3814 174.504 52.6378 174.811C52.8975 175.118 53.282 175.271 53.7914 175.271C53.9634 175.271 54.122 175.263 54.267 175.246C54.4154 175.229 54.5571 175.205 54.692 175.175C54.8303 175.141 54.9635 175.101 55.0917 175.053C55.2199 175.003 55.3498 174.947 55.4813 174.886V175.706C55.3464 175.77 55.2132 175.826 55.0816 175.873C54.9534 175.92 54.8202 175.959 54.6819 175.989C54.547 176.02 54.4053 176.042 54.2569 176.055C54.1118 176.069 53.9533 176.075 53.7813 176.075ZM53.5536 171.082C53.169 171.082 52.8638 171.213 52.6378 171.476C52.4152 171.739 52.2853 172.122 52.2482 172.625H54.7375C54.7375 172.395 54.7139 172.186 54.6667 171.997C54.6229 171.805 54.552 171.642 54.4542 171.507C54.3598 171.372 54.2383 171.267 54.0899 171.193C53.9415 171.119 53.7627 171.082 53.5536 171.082ZM60.5612 175.231H60.5208C60.4465 175.345 60.3588 175.455 60.2577 175.559C60.1598 175.661 60.0451 175.75 59.9136 175.828C59.7854 175.905 59.6404 175.966 59.4785 176.01C59.3166 176.054 59.1344 176.075 58.932 176.075C58.6183 176.075 58.3316 176.015 58.0719 175.893C57.8121 175.772 57.5895 175.591 57.404 175.352C57.2185 175.109 57.0751 174.809 56.9739 174.451C56.8727 174.094 56.8221 173.679 56.8221 173.207C56.8221 172.731 56.8727 172.314 56.9739 171.957C57.0751 171.596 57.2185 171.294 57.404 171.051C57.5895 170.808 57.8121 170.626 58.0719 170.505C58.3316 170.38 58.6183 170.318 58.932 170.318C59.131 170.318 59.3115 170.34 59.4734 170.383C59.6353 170.427 59.7804 170.486 59.9085 170.56C60.0401 170.635 60.1565 170.721 60.2577 170.818C60.3588 170.916 60.4465 171.019 60.5208 171.127H60.5815C60.5713 171.012 60.5612 170.903 60.5511 170.798C60.5444 170.711 60.5376 170.621 60.5309 170.53C60.5241 170.436 60.5208 170.361 60.5208 170.307V168.101H61.4416V175.974H60.6978L60.5612 175.231ZM59.1091 175.311C59.3655 175.311 59.5813 175.273 59.7567 175.195C59.9355 175.118 60.0789 174.999 60.1868 174.841C60.2981 174.682 60.3791 174.485 60.4297 174.249C60.4836 174.009 60.514 173.731 60.5208 173.414V173.207C60.5208 172.866 60.4971 172.564 60.4499 172.301C60.4061 172.035 60.3285 171.812 60.2172 171.633C60.1092 171.451 59.9642 171.314 59.782 171.223C59.5999 171.129 59.3722 171.082 59.099 171.082C58.6436 171.082 58.308 171.265 58.0921 171.633C57.8796 172.001 57.7734 172.529 57.7734 173.217C57.7734 173.922 57.8796 174.448 58.0921 174.795C58.308 175.139 58.647 175.311 59.1091 175.311ZM62.3726 170.419H63.3289L64.4167 173.52C64.4639 173.655 64.5111 173.797 64.5584 173.945C64.609 174.094 64.6545 174.242 64.695 174.391C64.7388 174.539 64.7759 174.682 64.8063 174.821C64.8367 174.959 64.8586 175.087 64.8721 175.205H64.9024C64.9193 175.121 64.9463 175.006 64.9834 174.861C65.0205 174.716 65.061 174.563 65.1048 174.401C65.152 174.235 65.1993 174.074 65.2465 173.915C65.2971 173.756 65.3409 173.622 65.378 173.51L66.3849 170.419H67.3361L65.1402 176.698C65.0458 176.971 64.9429 177.216 64.8316 177.431C64.7237 177.651 64.5972 177.836 64.4521 177.988C64.3071 178.14 64.1367 178.256 63.9411 178.337C63.7454 178.421 63.5127 178.464 63.2429 178.464C63.0675 178.464 62.9157 178.454 62.7875 178.433C62.6593 178.416 62.5497 178.398 62.4586 178.378V177.644C62.5294 177.661 62.6188 177.674 62.7268 177.684C62.8347 177.698 62.9477 177.705 63.0658 177.705C63.2277 177.705 63.3677 177.684 63.4857 177.644C63.6038 177.607 63.7067 177.551 63.7944 177.477C63.8821 177.403 63.9563 177.312 64.017 177.204C64.0811 177.096 64.1384 176.973 64.189 176.834L64.4774 176.025L62.3726 170.419Z" fill="white"/>
<g clip-path="url(#clip3)">
<circle cx="78.693" cy="172.474" r="1.11024" fill="#E1E1E1" fill-opacity="0.5"/>
<path d="M89.2201 172.705C89.2201 173.329 89.1391 173.877 88.9772 174.349C88.8153 174.818 88.5809 175.211 88.2739 175.528C87.9669 175.842 87.5892 176.078 87.1405 176.236C86.6953 176.395 86.1893 176.474 85.6226 176.474H83.7708V169.077H85.8301C86.3462 169.077 86.8133 169.155 87.2316 169.31C87.6499 169.465 88.0057 169.696 88.2992 170.003C88.5927 170.307 88.8187 170.684 88.9772 171.136C89.1391 171.588 89.2201 172.111 89.2201 172.705ZM88.2233 172.735C88.2233 172.243 88.1676 171.818 88.0563 171.46C87.945 171.099 87.7831 170.802 87.5706 170.57C87.3581 170.337 87.0967 170.165 86.7864 170.054C86.476 169.939 86.1235 169.882 85.7289 169.882H84.7119V175.665H85.5316C86.4221 175.665 87.0933 175.419 87.5453 174.926C87.9973 174.434 88.2233 173.703 88.2233 172.735ZM93.1413 170.818C93.2391 170.818 93.3487 170.823 93.4702 170.833C93.5916 170.84 93.6962 170.851 93.7839 170.868L93.6624 171.718C93.568 171.701 93.4702 171.688 93.369 171.678C93.2712 171.664 93.1784 171.657 93.0907 171.657C92.8782 171.657 92.6842 171.701 92.5088 171.789C92.3334 171.873 92.1816 171.996 92.0535 172.158C91.9287 172.317 91.8308 172.509 91.76 172.735C91.6925 172.958 91.6588 173.206 91.6588 173.479V176.474H90.738V170.919H91.4868L91.5981 171.936H91.6386C91.7229 171.791 91.8123 171.651 91.9067 171.516C92.0046 171.381 92.1125 171.263 92.2306 171.162C92.352 171.057 92.4869 170.974 92.6353 170.914C92.7838 170.85 92.9524 170.818 93.1413 170.818ZM97.9075 176.474L97.7203 175.705H97.6798C97.5685 175.857 97.4572 175.989 97.3459 176.1C97.2346 176.208 97.1131 176.297 96.9816 176.368C96.85 176.439 96.7033 176.491 96.5414 176.525C96.3795 176.559 96.1923 176.575 95.9798 176.575C95.747 176.575 95.5328 176.542 95.3372 176.474C95.1416 176.41 94.9712 176.311 94.8262 176.176C94.6845 176.037 94.5732 175.865 94.4922 175.66C94.4113 175.451 94.3708 175.204 94.3708 174.921C94.3708 174.368 94.5648 173.943 94.9527 173.646C95.3439 173.349 95.9376 173.187 96.7337 173.16L97.6646 173.125V172.776C97.6646 172.55 97.6393 172.361 97.5888 172.209C97.5415 172.057 97.4707 171.936 97.3762 171.845C97.2852 171.75 97.1705 171.683 97.0322 171.642C96.8973 171.602 96.7421 171.582 96.5667 171.582C96.2867 171.582 96.0253 171.622 95.7824 171.703C95.543 171.784 95.3119 171.882 95.0893 171.996L94.7655 171.303C95.0151 171.168 95.2933 171.054 95.6003 170.959C95.9073 170.865 96.2294 170.818 96.5667 170.818C96.9108 170.818 97.2076 170.853 97.4572 170.924C97.7102 170.991 97.9176 171.101 98.0795 171.253C98.2448 171.401 98.3679 171.592 98.4489 171.824C98.5298 172.057 98.5703 172.339 98.5703 172.669V176.474H97.9075ZM96.2176 175.832C96.4233 175.832 96.6139 175.8 96.7893 175.736C96.9647 175.672 97.1165 175.575 97.2447 175.447C97.3729 175.316 97.4724 175.152 97.5432 174.956C97.6174 174.757 97.6545 174.525 97.6545 174.258V173.757L96.931 173.793C96.6274 173.806 96.3727 173.84 96.167 173.894C95.9612 173.948 95.7959 174.024 95.6711 174.122C95.5497 174.216 95.462 174.332 95.408 174.471C95.3541 174.606 95.3271 174.759 95.3271 174.931C95.3271 175.241 95.408 175.469 95.5699 175.614C95.7352 175.759 95.9511 175.832 96.2176 175.832ZM106.934 176.474V172.897C106.934 172.459 106.85 172.13 106.681 171.91C106.512 171.691 106.251 171.582 105.897 171.582C105.65 171.582 105.441 171.622 105.269 171.703C105.097 171.781 104.956 171.897 104.844 172.052C104.736 172.204 104.657 172.395 104.607 172.624C104.556 172.85 104.531 173.111 104.531 173.408V176.474H103.605V172.897C103.605 172.459 103.52 172.13 103.352 171.91C103.186 171.691 102.927 171.582 102.573 171.582C102.313 171.582 102.095 171.625 101.92 171.713C101.744 171.801 101.603 171.931 101.495 172.103C101.39 172.275 101.314 172.486 101.267 172.735C101.223 172.985 101.201 173.272 101.201 173.595V176.474H100.28V170.919H101.029L101.161 171.668H101.211C101.292 171.523 101.389 171.398 101.5 171.293C101.611 171.185 101.733 171.096 101.864 171.025C101.999 170.954 102.141 170.902 102.289 170.868C102.441 170.834 102.594 170.818 102.75 170.818C103.154 170.818 103.49 170.892 103.756 171.04C104.026 171.189 104.225 171.421 104.354 171.738H104.394C104.482 171.58 104.586 171.443 104.708 171.329C104.833 171.214 104.967 171.119 105.112 171.045C105.261 170.968 105.416 170.91 105.578 170.873C105.74 170.836 105.905 170.818 106.074 170.818C106.664 170.818 107.108 170.98 107.405 171.303C107.705 171.624 107.855 172.138 107.855 172.847V176.474H106.934ZM112.702 176.474L112.515 175.705H112.474C112.363 175.857 112.252 175.989 112.14 176.1C112.029 176.208 111.908 176.297 111.776 176.368C111.645 176.439 111.498 176.491 111.336 176.525C111.174 176.559 110.987 176.575 110.774 176.575C110.542 176.575 110.327 176.542 110.132 176.474C109.936 176.41 109.766 176.311 109.621 176.176C109.479 176.037 109.368 175.865 109.287 175.66C109.206 175.451 109.165 175.204 109.165 174.921C109.165 174.368 109.359 173.943 109.747 173.646C110.138 173.349 110.732 173.187 111.528 173.16L112.459 173.125V172.776C112.459 172.55 112.434 172.361 112.383 172.209C112.336 172.057 112.265 171.936 112.171 171.845C112.08 171.75 111.965 171.683 111.827 171.642C111.692 171.602 111.537 171.582 111.361 171.582C111.081 171.582 110.82 171.622 110.577 171.703C110.337 171.784 110.106 171.882 109.884 171.996L109.56 171.303C109.81 171.168 110.088 171.054 110.395 170.959C110.702 170.865 111.024 170.818 111.361 170.818C111.705 170.818 112.002 170.853 112.252 170.924C112.505 170.991 112.712 171.101 112.874 171.253C113.039 171.401 113.162 171.592 113.243 171.824C113.324 172.057 113.365 172.339 113.365 172.669V176.474H112.702ZM111.012 175.832C111.218 175.832 111.408 175.8 111.584 175.736C111.759 175.672 111.911 175.575 112.039 175.447C112.167 175.316 112.267 175.152 112.338 174.956C112.412 174.757 112.449 174.525 112.449 174.258V173.757L111.725 173.793C111.422 173.806 111.167 173.84 110.961 173.894C110.756 173.948 110.59 174.024 110.466 174.122C110.344 174.216 110.256 174.332 110.203 174.471C110.149 174.606 110.122 174.759 110.122 174.931C110.122 175.241 110.203 175.469 110.364 175.614C110.53 175.759 110.746 175.832 111.012 175.832Z" fill="white"/>
</g>
<g clip-path="url(#clip4)">
<path d="M202.444 162.957C198.222 162.957 194.844 166.335 194.844 170.556C194.844 174.778 198.222 178.156 202.444 178.156C206.666 178.156 210.043 174.778 210.043 170.556C210.043 166.335 206.666 162.957 202.444 162.957ZM202.444 177.235C198.794 177.235 195.766 174.206 195.766 170.556C195.766 166.907 198.794 163.878 202.444 163.878C206.094 163.878 209.122 166.907 209.122 170.556C209.122 174.206 206.094 177.235 202.444 177.235ZM199.066 169.712V171.401H205.821V169.712H199.066Z" fill="white"/>
</g>
<path d="M227.212 167.698C226.704 167.185 226.175 166.739 225.624 166.359C225.073 165.979 224.558 165.694 224.076 165.505C223.595 165.315 223.154 165.224 222.753 165.231C222.352 165.239 222.04 165.358 221.815 165.589C221.762 165.641 221.716 165.698 221.679 165.762C221.641 165.827 221.615 165.877 221.599 165.912C221.583 165.948 221.561 166.013 221.535 166.105C221.508 166.197 221.489 166.256 221.478 166.282L218.495 175.702L218.68 175.887C218.471 176.025 218.286 176.187 218.123 176.371C217.96 176.556 217.817 176.707 217.694 176.825C217.571 176.943 217.424 177.026 217.253 177.072C217.215 177.082 217.168 177.117 217.112 177.176C217.056 177.235 217.028 177.287 217.028 177.333C217.028 177.426 217.076 177.503 217.172 177.564C217.269 177.626 217.376 177.657 217.493 177.657C217.643 177.657 217.787 177.599 217.926 177.483C218.065 177.368 218.205 177.221 218.347 177.041C218.489 176.861 218.592 176.743 218.656 176.687C218.795 176.569 218.95 176.456 219.121 176.348L219.329 176.541L228.808 173.455C229.016 173.393 229.176 173.301 229.289 173.178C229.513 172.947 229.629 172.627 229.637 172.219C229.645 171.812 229.556 171.363 229.369 170.873C229.182 170.383 228.902 169.859 228.531 169.303C228.159 168.746 227.72 168.211 227.212 167.698ZM226.346 168.537C227.164 169.337 227.785 170.103 228.21 170.834C228.635 171.565 228.738 172.046 228.519 172.277C228.3 172.508 227.821 172.423 227.083 172.023C226.346 171.623 225.571 171.025 224.758 170.23C223.935 169.43 223.311 168.665 222.886 167.937C222.461 167.208 222.358 166.726 222.577 166.49C222.796 166.259 223.276 166.343 224.016 166.744C224.757 167.144 225.533 167.742 226.346 168.537ZM224.59 171.723C224.98 172.057 225.367 172.349 225.752 172.6C225.758 172.611 225.891 172.852 226.153 173.324L225.48 173.547C225.159 172.967 224.862 172.359 224.59 171.723ZM221.855 168.198C221.973 168.45 222.136 168.755 222.344 169.114C222.516 169.853 222.784 170.653 223.15 171.515C223.517 172.377 223.916 173.185 224.349 173.939L223.684 174.155C223.181 173.262 222.743 172.327 222.369 171.35C221.994 170.372 221.764 169.509 221.679 168.76L221.855 168.198ZM220.925 171.015C221.299 172.164 221.826 173.344 222.505 174.555L221.847 174.778C221.318 173.804 220.901 172.888 220.596 172.031L220.925 171.015ZM220.003 173.824C220.211 174.296 220.433 174.745 220.669 175.171L220.011 175.394C219.936 175.255 219.829 175.043 219.69 174.755L220.003 173.824ZM225.897 162.88L226.298 164.042L225.263 164.766H226.538L226.931 165.928L227.324 164.766H228.591L227.565 164.042L227.966 162.888L226.931 163.604L225.897 162.88ZM223.651 162.88L223.435 163.935L224.534 164.142L224.75 163.088L223.651 162.88ZM230.876 166.051L231.758 165.166L232.905 165.705L232.312 164.627L233.202 163.758L231.943 163.965L231.349 162.88L231.173 164.096L229.914 164.304L231.061 164.835L230.876 166.051ZM230.58 167.944L231.646 168.621L231.309 169.807L232.304 169.037L233.362 169.714L232.921 168.56L233.915 167.806L232.64 167.86L232.191 166.713L231.863 167.89L230.58 167.944ZM230.123 165.089L227.733 166.967L228.03 167.313L230.419 165.435L230.123 165.089ZM230.957 168.722L229.088 168.56L229.04 169.006L230.916 169.168L230.957 168.722ZM231.141 170.876L230.796 171.908L231.863 172.239L232.215 171.215L231.141 170.876Z" fill="white"/>
<path d="M275.222 172.667C274.827 172.669 274.438 172.76 274.083 172.932C273.727 173.105 273.415 173.355 273.17 173.664L269.312 171.253C269.453 170.799 269.453 170.313 269.312 169.86L273.17 167.448C273.561 167.933 274.112 168.263 274.724 168.381C275.336 168.499 275.97 168.396 276.513 168.091C277.057 167.787 277.475 167.299 277.693 166.716C277.912 166.132 277.917 165.49 277.708 164.903C277.498 164.316 277.088 163.822 276.549 163.509C276.01 163.196 275.378 163.083 274.764 163.191C274.15 163.3 273.595 163.622 273.196 164.1C272.797 164.579 272.58 165.183 272.584 165.807C272.586 166.043 272.622 166.277 272.689 166.503L268.832 168.915C268.491 168.486 268.026 168.174 267.5 168.022C266.974 167.869 266.413 167.884 265.896 168.065C265.379 168.245 264.931 168.582 264.614 169.028C264.297 169.475 264.127 170.009 264.127 170.556C264.127 171.104 264.297 171.638 264.614 172.084C264.931 172.531 265.379 172.867 265.896 173.048C266.413 173.228 266.974 173.243 267.5 173.091C268.026 172.938 268.491 172.626 268.832 172.197L272.689 174.609C272.622 174.835 272.586 175.07 272.584 175.306C272.584 175.828 272.739 176.338 273.029 176.772C273.318 177.206 273.731 177.544 274.213 177.744C274.695 177.943 275.225 177.995 275.737 177.894C276.249 177.792 276.719 177.541 277.088 177.172C277.457 176.803 277.709 176.332 277.81 175.821C277.912 175.309 277.86 174.778 277.66 174.296C277.461 173.814 277.122 173.402 276.688 173.112C276.255 172.822 275.744 172.667 275.222 172.667V172.667ZM275.222 164.223C275.536 164.223 275.842 164.316 276.102 164.49C276.362 164.664 276.565 164.911 276.685 165.201C276.805 165.49 276.836 165.808 276.775 166.115C276.714 166.423 276.563 166.705 276.342 166.926C276.121 167.148 275.838 167.298 275.531 167.359C275.224 167.42 274.906 167.389 274.617 167.269C274.327 167.149 274.08 166.947 273.906 166.686C273.732 166.426 273.639 166.12 273.639 165.807C273.639 165.387 273.806 164.984 274.103 164.687C274.4 164.39 274.803 164.223 275.222 164.223V164.223ZM266.779 172.139C266.466 172.139 266.16 172.047 265.899 171.873C265.639 171.699 265.436 171.451 265.316 171.162C265.196 170.873 265.165 170.554 265.226 170.247C265.287 169.94 265.438 169.658 265.659 169.437C265.881 169.215 266.163 169.064 266.47 169.003C266.777 168.942 267.095 168.974 267.385 169.093C267.674 169.213 267.921 169.416 268.095 169.677C268.269 169.937 268.362 170.243 268.362 170.556C268.362 170.976 268.195 171.379 267.898 171.676C267.601 171.973 267.199 172.139 266.779 172.139ZM275.222 176.889C274.909 176.889 274.603 176.796 274.343 176.622C274.083 176.448 273.88 176.201 273.76 175.912C273.64 175.622 273.609 175.304 273.67 174.997C273.731 174.69 273.882 174.408 274.103 174.186C274.324 173.965 274.607 173.814 274.914 173.753C275.221 173.692 275.539 173.723 275.828 173.843C276.118 173.963 276.365 174.166 276.539 174.426C276.713 174.687 276.806 174.993 276.806 175.306C276.806 175.726 276.639 176.128 276.342 176.425C276.045 176.722 275.642 176.889 275.222 176.889V176.889Z" fill="white"/>
<path d="M299.481 163.52H290.524C290.03 163.52 289.552 163.693 289.173 164.01C288.793 164.326 288.537 164.765 288.448 165.251L287.554 170.176C287.499 170.481 287.511 170.793 287.589 171.093C287.668 171.392 287.811 171.67 288.009 171.908C288.207 172.145 288.455 172.337 288.735 172.468C289.015 172.599 289.321 172.667 289.63 172.667H292.839L292.445 173.673C292.281 174.114 292.226 174.588 292.286 175.054C292.345 175.52 292.517 175.965 292.786 176.351C293.055 176.736 293.414 177.05 293.831 177.267C294.248 177.483 294.712 177.595 295.182 177.593C295.317 177.592 295.45 177.553 295.563 177.479C295.677 177.406 295.767 177.301 295.822 177.178L297.828 172.667H299.481C300.041 172.667 300.578 172.445 300.974 172.049C301.37 171.653 301.592 171.116 301.592 170.556V165.631C301.592 165.071 301.37 164.534 300.974 164.138C300.578 163.742 300.041 163.52 299.481 163.52ZM296.667 171.816L294.753 176.122C294.557 176.063 294.375 175.964 294.219 175.832C294.063 175.7 293.935 175.537 293.844 175.354C293.753 175.171 293.701 174.971 293.69 174.766C293.679 174.562 293.71 174.358 293.782 174.166L294.155 173.16C294.234 172.947 294.261 172.718 294.233 172.493C294.205 172.268 294.123 172.053 293.993 171.866C293.864 171.679 293.691 171.527 293.49 171.421C293.289 171.316 293.066 171.26 292.839 171.26H289.63C289.527 171.26 289.425 171.238 289.331 171.194C289.237 171.15 289.155 171.086 289.088 171.007C289.021 170.928 288.971 170.836 288.943 170.736C288.915 170.637 288.909 170.532 288.927 170.43L289.82 165.504C289.85 165.34 289.937 165.192 290.066 165.087C290.195 164.981 290.357 164.925 290.524 164.927H296.667V171.816ZM300.185 170.556C300.185 170.743 300.111 170.922 299.979 171.054C299.847 171.186 299.668 171.26 299.481 171.26H298.074V164.927H299.481C299.668 164.927 299.847 165.001 299.979 165.133C300.111 165.265 300.185 165.444 300.185 165.631V170.556Z" fill="white"/>
<g clip-path="url(#clip5)">
<path d="M248.308 167.358C248.697 167.358 249.012 167.043 249.012 166.654C249.012 166.266 248.697 165.951 248.308 165.951C247.92 165.951 247.604 166.266 247.604 166.654C247.604 167.043 247.92 167.358 248.308 167.358Z" fill="white"/>
<path d="M250.302 173.175H249.129V168.296H247.37C247.214 168.296 247.065 168.36 246.955 168.475C246.845 168.589 246.784 168.744 246.784 168.906C246.784 169.068 246.845 169.223 246.955 169.337C247.065 169.452 247.214 169.516 247.37 169.516H247.956V173.175H246.784C246.628 173.175 246.479 173.239 246.369 173.353C246.259 173.468 246.197 173.623 246.197 173.785C246.197 173.946 246.259 174.101 246.369 174.216C246.479 174.33 246.628 174.394 246.784 174.394H250.302C250.457 174.394 250.606 174.33 250.716 174.216C250.826 174.101 250.888 173.946 250.888 173.785C250.888 173.623 250.826 173.468 250.716 173.353C250.606 173.239 250.457 173.175 250.302 173.175Z" fill="white"/>
<path d="M248.212 162.88C246.751 162.88 245.322 163.314 244.108 164.125C242.893 164.937 241.946 166.091 241.386 167.441C240.827 168.791 240.681 170.277 240.966 171.71C241.251 173.143 241.955 174.459 242.988 175.493C244.021 176.526 245.338 177.23 246.771 177.515C248.204 177.8 249.69 177.653 251.04 177.094C252.39 176.535 253.543 175.588 254.355 174.373C255.167 173.158 255.6 171.73 255.6 170.268C255.6 168.309 254.822 166.43 253.436 165.044C252.051 163.659 250.172 162.88 248.212 162.88V162.88ZM248.212 176.425C246.994 176.425 245.804 176.064 244.792 175.388C243.779 174.711 242.99 173.75 242.524 172.625C242.058 171.5 241.936 170.262 242.174 169.067C242.411 167.873 242.998 166.776 243.859 165.915C244.72 165.054 245.817 164.467 247.011 164.23C248.205 163.992 249.443 164.114 250.568 164.58C251.693 165.046 252.655 165.835 253.331 166.848C254.008 167.86 254.369 169.051 254.369 170.268C254.369 171.077 254.21 171.878 253.9 172.625C253.591 173.372 253.137 174.05 252.566 174.622C251.994 175.194 251.315 175.647 250.568 175.957C249.821 176.266 249.021 176.425 248.212 176.425V176.425Z" fill="white"/>
</g>
</g>
<path d="M162.578 65.5611C167.324 65.4776 171.988 66.8035 175.981 69.3709C179.973 71.9382 183.115 75.6319 185.008 79.9847C186.902 84.3376 187.462 89.1541 186.617 93.8252C185.773 98.4963 183.563 102.812 180.266 106.227C176.969 109.642 172.734 112.003 168.095 113.01C163.456 114.018 158.623 113.628 154.207 111.888C149.79 110.149 145.988 107.139 143.282 103.24C140.576 99.3398 139.087 94.7251 139.004 89.9791C138.892 83.6149 141.313 77.4669 145.734 72.8876C150.155 68.3084 156.214 65.6729 162.578 65.5611V65.5611ZM162.508 61.5617C156.971 61.659 151.587 63.396 147.037 66.5532C142.487 69.7103 138.976 74.1457 136.947 79.2985C134.918 84.4512 134.463 90.09 135.638 95.5016C136.814 100.913 139.568 105.855 143.552 109.701C147.536 113.548 152.571 116.126 158.021 117.111C163.47 118.096 169.09 117.443 174.168 115.234C179.246 113.025 183.556 109.36 186.551 104.702C189.546 100.044 191.093 94.6023 190.996 89.0653C190.865 81.6404 187.79 74.5714 182.448 69.4135C177.105 64.2556 169.933 61.4312 162.508 61.5617V61.5617Z" fill="white" fill-opacity="0.6"/>
<path d="M155.247 103.696C154.888 103.702 154.534 103.611 154.223 103.434C153.921 103.262 153.669 103.015 153.492 102.716C153.315 102.418 153.219 102.078 153.213 101.731L152.791 77.735C152.785 77.3879 152.869 77.0453 153.036 76.7407C153.202 76.4362 153.445 76.1802 153.74 75.998C154.041 75.8171 154.385 75.7187 154.736 75.7125C155.087 75.7064 155.433 75.7927 155.74 75.9629L177.948 87.5744C178.268 87.7402 178.538 87.9895 178.728 88.2961C178.918 88.6026 179.022 88.9549 179.028 89.3157C179.035 89.6764 178.943 90.0322 178.764 90.3452C178.585 90.6582 178.324 90.9169 178.009 91.0939L156.224 103.479C155.922 103.633 155.586 103.707 155.247 103.696V103.696ZM156.849 81.0241L157.153 98.3015L172.819 89.3848L156.849 81.0241Z" fill="white" fill-opacity="0.6"/>
<defs>
<linearGradient id="paint0_linear" x1="13.8879" y1="148" x2="150.493" y2="148.676" gradientUnits="userSpaceOnUse">
<stop stop-opacity="0"/>
<stop stop-opacity="0"/>
<stop offset="1"/>
</linearGradient>
<clipPath id="clip0">
<rect width="179" height="326" fill="white" transform="translate(326 21) rotate(90)"/>
</clipPath>
<clipPath id="clip1">
<rect width="44.4211" height="11.2131" fill="white" transform="translate(29.1753 90.725)"/>
</clipPath>
<clipPath id="clip2">
<rect width="10.7818" height="10.7818" fill="white" transform="translate(29.1753 90.9407)"/>
</clipPath>
<clipPath id="clip3">
<rect width="53.1811" height="12" fill="white" transform="translate(77.5828 166.474)"/>
</clipPath>
<clipPath id="clip4">
<rect width="16.8873" height="16.8873" fill="white" transform="translate(194 162.113)"/>
</clipPath>
<clipPath id="clip5">
<rect width="16.8873" height="16.8873" fill="white" transform="translate(240.056 162.113)"/>
</clipPath>
</defs>
</svg>
