<svg width="326" height="200" viewBox="0 0 326 200" fill="none" xmlns="http://www.w3.org/2000/svg">
<rect width="106" height="90" transform="translate(236 106) rotate(-90)" fill="url(#paint0_linear)"/>
<path d="M299.822 21.6639C300.814 21.4569 303.507 21.1317 304.262 21.7526C304.706 22.1178 304.262 24.0585 303.285 26.4088C303.241 26.5861 303.25 26.8966 303.641 26.7192C304.129 26.4975 306.127 23.9255 305.994 20.7326C305.905 20.3779 305.579 20.2659 305.505 20.2449C304.262 19.8901 301.732 19.7127 299.689 21.2204C299.547 21.5042 299.719 21.6343 299.822 21.6639Z" fill="white"/>
<path d="M272.03 20.8213C271.971 20.6735 271.959 20.3779 272.385 20.3779C277.624 23.5707 288.501 28.5373 302.486 22.4177C303.285 22.2404 303.378 23.0726 302.93 23.3933C291.165 31.8188 277.668 27.1183 272.03 20.8213Z" fill="white"/>
<path d="M277.019 35.3669C277.019 35.917 276.952 36.4183 276.818 36.8708C276.688 37.3233 276.493 37.7106 276.232 38.0329C275.972 38.3552 275.648 38.6042 275.261 38.78C274.877 38.9557 274.432 39.0436 273.928 39.0436C273.397 39.0436 272.937 38.9557 272.546 38.78C272.159 38.6042 271.836 38.3552 271.579 38.0329C271.325 37.7106 271.136 37.3233 271.013 36.8708C270.889 36.4151 270.827 35.9105 270.827 35.3571C270.827 34.8037 270.889 34.3024 271.013 33.8532C271.136 33.4007 271.327 33.015 271.584 32.696C271.841 32.377 272.165 32.1312 272.556 31.9587C272.946 31.7829 273.407 31.695 273.938 31.695C274.442 31.695 274.885 31.7829 275.266 31.9587C275.65 32.1312 275.972 32.3786 276.232 32.7009C276.493 33.0199 276.688 33.4056 276.818 33.8581C276.952 34.3073 277.019 34.8102 277.019 35.3669ZM271.789 35.3669C271.789 35.8128 271.831 36.2149 271.916 36.5729C272.001 36.9278 272.129 37.2305 272.302 37.4811C272.478 37.7285 272.699 37.919 272.966 38.0524C273.236 38.1826 273.557 38.2477 273.928 38.2477C274.299 38.2477 274.618 38.1826 274.885 38.0524C275.155 37.919 275.376 37.7285 275.549 37.4811C275.725 37.2305 275.853 36.9278 275.935 36.5729C276.016 36.2149 276.057 35.8128 276.057 35.3669C276.057 34.9177 276.016 34.5156 275.935 34.1608C275.853 33.806 275.726 33.5065 275.554 33.2624C275.381 33.015 275.161 32.8262 274.895 32.696C274.628 32.5625 274.309 32.4958 273.938 32.4958C273.566 32.4958 273.246 32.5625 272.976 32.696C272.705 32.8262 272.482 33.015 272.307 33.2624C272.131 33.5065 272.001 33.806 271.916 34.1608C271.831 34.5156 271.789 34.9177 271.789 35.3669ZM280.808 33.487C280.902 33.487 281.008 33.4919 281.125 33.5016C281.242 33.5082 281.343 33.5196 281.428 33.5358L281.311 34.3561C281.219 34.3399 281.125 34.3268 281.027 34.3171C280.933 34.3041 280.843 34.2975 280.759 34.2975C280.554 34.2975 280.367 34.3399 280.197 34.4245C280.028 34.5059 279.882 34.6247 279.758 34.7809C279.637 34.9339 279.543 35.1195 279.475 35.3376C279.41 35.5524 279.377 35.7917 279.377 36.0554V38.946H278.488V33.5847H279.211L279.318 34.5661H279.357C279.439 34.4261 279.525 34.291 279.616 34.1608C279.711 34.0306 279.815 33.9167 279.929 33.819C280.046 33.7181 280.176 33.6384 280.319 33.5798C280.463 33.5179 280.625 33.487 280.808 33.487ZM283.371 38.946H282.482V33.5847H283.371V38.946ZM282.414 32.1345C282.414 31.9391 282.463 31.7975 282.561 31.7097C282.661 31.6218 282.785 31.5778 282.932 31.5778C283.003 31.5778 283.07 31.5892 283.132 31.612C283.197 31.6315 283.252 31.6641 283.298 31.7097C283.347 31.7552 283.384 31.8138 283.41 31.8854C283.439 31.9538 283.454 32.0368 283.454 32.1345C283.454 32.3233 283.402 32.4649 283.298 32.5593C283.197 32.6504 283.075 32.696 282.932 32.696C282.785 32.696 282.661 32.6504 282.561 32.5593C282.463 32.4681 282.414 32.3265 282.414 32.1345ZM289.201 33.5847V34.1364L288.239 34.2682C288.33 34.3822 288.407 34.5287 288.469 34.7077C288.531 34.8835 288.562 35.0837 288.562 35.3083C288.562 35.5557 288.522 35.7852 288.444 35.9968C288.369 36.2051 288.254 36.3858 288.098 36.5388C287.945 36.6918 287.754 36.8122 287.526 36.9001C287.299 36.9847 287.033 37.027 286.73 37.027C286.659 37.027 286.587 37.027 286.516 37.027C286.444 37.0238 286.385 37.0173 286.34 37.0075C286.285 37.0401 286.229 37.0775 286.174 37.1198C286.122 37.1589 286.073 37.2044 286.027 37.2565C285.985 37.3086 285.949 37.3672 285.92 37.4323C285.894 37.4974 285.881 37.569 285.881 37.6472C285.881 37.735 285.9 37.8067 285.939 37.862C285.979 37.9141 286.031 37.9548 286.096 37.9841C286.164 38.0134 286.244 38.0329 286.335 38.0427C286.426 38.0524 286.522 38.0573 286.623 38.0573H287.482C287.785 38.0573 288.041 38.0964 288.249 38.1745C288.457 38.2494 288.627 38.3519 288.757 38.4821C288.89 38.6123 288.986 38.7669 289.045 38.946C289.104 39.1218 289.133 39.3089 289.133 39.5075C289.133 39.794 289.079 40.0511 288.972 40.279C288.868 40.5069 288.706 40.6989 288.488 40.8552C288.27 41.0147 287.993 41.1367 287.658 41.2214C287.326 41.306 286.934 41.3483 286.481 41.3483C286.133 41.3483 285.829 41.3141 285.568 41.2458C285.308 41.1774 285.091 41.0781 284.919 40.9479C284.746 40.8177 284.616 40.6599 284.528 40.4743C284.444 40.292 284.401 40.0853 284.401 39.8542C284.401 39.6589 284.432 39.4863 284.494 39.3366C284.559 39.1901 284.646 39.0632 284.753 38.9557C284.86 38.8483 284.984 38.7604 285.124 38.6921C285.267 38.6237 285.415 38.5716 285.568 38.5358C285.432 38.474 285.319 38.3763 285.231 38.2429C285.144 38.1094 285.1 37.9564 285.1 37.7839C285.1 37.5853 285.152 37.4144 285.256 37.2712C285.36 37.1247 285.524 36.9831 285.749 36.8464C285.609 36.7878 285.48 36.708 285.363 36.6071C285.249 36.503 285.152 36.3858 285.07 36.2556C284.992 36.1221 284.93 35.9772 284.885 35.821C284.842 35.6647 284.821 35.5036 284.821 35.3376C284.821 35.0479 284.862 34.7891 284.943 34.5612C285.025 34.3334 285.145 34.1397 285.305 33.9802C285.464 33.8207 285.663 33.6986 285.9 33.614C286.138 33.5293 286.415 33.487 286.73 33.487C286.851 33.487 286.975 33.4968 287.102 33.5163C287.232 33.5326 287.341 33.5554 287.429 33.5847H289.201ZM285.241 39.8249C285.241 39.9453 285.262 40.0576 285.305 40.1618C285.347 40.266 285.415 40.3555 285.51 40.4304C285.607 40.5052 285.734 40.5638 285.891 40.6061C286.05 40.6517 286.247 40.6745 286.481 40.6745C287.087 40.6745 287.539 40.5801 287.839 40.3913C288.142 40.2057 288.293 39.9372 288.293 39.5856C288.293 39.4359 288.273 39.3138 288.234 39.2194C288.195 39.125 288.13 39.0502 288.039 38.9948C287.951 38.9427 287.834 38.9069 287.688 38.8874C287.541 38.8679 287.362 38.8581 287.15 38.8581H286.291C286.177 38.8581 286.058 38.8711 285.935 38.8972C285.811 38.9232 285.697 38.972 285.593 39.0436C285.492 39.1153 285.407 39.2129 285.339 39.3366C285.274 39.4636 285.241 39.6263 285.241 39.8249ZM285.69 35.3083C285.69 35.6826 285.778 35.961 285.954 36.1432C286.13 36.3255 286.379 36.4167 286.701 36.4167C287.027 36.4167 287.272 36.3272 287.438 36.1481C287.608 35.9658 287.692 35.681 287.692 35.2936C287.692 34.8932 287.606 34.5987 287.434 34.4099C287.264 34.221 287.017 34.1266 286.691 34.1266C286.369 34.1266 286.122 34.2243 285.949 34.4196C285.777 34.6149 285.69 34.9112 285.69 35.3083ZM291.145 38.946H290.256V33.5847H291.145V38.946ZM290.188 32.1345C290.188 31.9391 290.236 31.7975 290.334 31.7097C290.435 31.6218 290.559 31.5778 290.705 31.5778C290.777 31.5778 290.843 31.5892 290.905 31.612C290.97 31.6315 291.026 31.6641 291.071 31.7097C291.12 31.7552 291.158 31.8138 291.184 31.8854C291.213 31.9538 291.228 32.0368 291.228 32.1345C291.228 32.3233 291.175 32.4649 291.071 32.5593C290.97 32.6504 290.848 32.696 290.705 32.696C290.559 32.696 290.435 32.6504 290.334 32.5593C290.236 32.4681 290.188 32.3265 290.188 32.1345ZM296.193 38.946V35.4938C296.193 35.0707 296.107 34.7533 295.935 34.5417C295.765 34.3301 295.498 34.2243 295.134 34.2243C294.87 34.2243 294.649 34.2666 294.47 34.3513C294.291 34.4359 294.146 34.5612 294.035 34.7272C293.928 34.8932 293.85 35.0967 293.801 35.3376C293.755 35.5785 293.732 35.8552 293.732 36.1677V38.946H292.844V33.5847H293.566L293.693 34.3073H293.742C293.824 34.1673 293.92 34.0469 294.03 33.946C294.144 33.8418 294.268 33.7556 294.401 33.6872C294.535 33.6188 294.676 33.5684 294.826 33.5358C294.976 33.5033 295.129 33.487 295.285 33.487C295.881 33.487 296.328 33.6432 296.628 33.9557C296.931 34.265 297.082 34.7614 297.082 35.445V38.946H296.193ZM301.755 38.946L301.574 38.2038H301.535C301.428 38.3503 301.32 38.4772 301.213 38.5847C301.105 38.6888 300.988 38.7751 300.861 38.8434C300.734 38.9118 300.593 38.9623 300.437 38.9948C300.28 39.0274 300.1 39.0436 299.895 39.0436C299.67 39.0436 299.463 39.0111 299.274 38.946C299.086 38.8841 298.921 38.7881 298.781 38.6579C298.645 38.5244 298.537 38.3584 298.459 38.1599C298.381 37.958 298.342 37.7204 298.342 37.447C298.342 36.9131 298.529 36.503 298.903 36.2165C299.281 35.93 299.854 35.7738 300.622 35.7477L301.521 35.7136V35.3766C301.521 35.1585 301.496 34.9763 301.447 34.8298C301.402 34.6833 301.333 34.5661 301.242 34.4782C301.154 34.3871 301.044 34.322 300.91 34.2829C300.78 34.2438 300.63 34.2243 300.461 34.2243C300.191 34.2243 299.938 34.2634 299.704 34.3415C299.473 34.4196 299.25 34.514 299.035 34.6247L298.723 33.9557C298.964 33.8255 299.232 33.7149 299.528 33.6237C299.825 33.5326 300.135 33.487 300.461 33.487C300.793 33.487 301.079 33.5212 301.32 33.5895C301.564 33.6546 301.765 33.7604 301.921 33.9069C302.08 34.0502 302.199 34.2341 302.277 34.4587C302.355 34.6833 302.395 34.9551 302.395 35.2741V38.946L301.755 38.946ZM300.124 38.3259C300.323 38.3259 300.507 38.2949 300.676 38.2331C300.845 38.1712 300.992 38.0785 301.115 37.9548C301.239 37.8278 301.335 37.6699 301.403 37.4811C301.475 37.2891 301.511 37.0645 301.511 36.8073V36.3239L300.812 36.3581C300.52 36.3711 300.274 36.4037 300.075 36.4557C299.877 36.5078 299.717 36.5811 299.597 36.6755C299.479 36.7666 299.395 36.8789 299.343 37.0124C299.291 37.1426 299.265 37.2907 299.265 37.4567C299.265 37.7562 299.343 37.9759 299.499 38.1159C299.659 38.2559 299.867 38.3259 300.124 38.3259ZM304.934 38.946H304.045V31.3483H304.934V38.946Z" fill="white"/>
<path d="M20 31C20 24.9249 24.9249 20 31 20H53C59.0751 20 64 24.9249 64 31V31C64 37.0751 59.0751 42 53 42H31C24.9249 42 20 37.0751 20 31V31Z" fill="white" fill-opacity="0.8"/>
<path fill-rule="evenodd" clip-rule="evenodd" d="M27 27.7191V36H28.3736C28.4165 36 28.5195 35.9753 28.5882 35.8764V33.2397C30.1335 34.3109 32.8807 33.7753 32.8807 30.5206C32.8807 27.5131 30.2193 26.8127 28.4165 28.2135C28.4022 28.0762 28.3221 27.785 28.116 27.7191H27ZM30.6915 29.1199C29.9704 28.4936 28.9888 28.8589 28.5882 29.1199V32.0861C29.6871 32.8112 30.4483 32.3883 30.6915 32.0861C31.0006 31.9543 31.0778 30.9875 31.0778 30.5206C31.1122 29.7955 30.8346 29.2846 30.6915 29.1199Z" fill="#00A8E1"/>
<path d="M34.0396 33.4457V27.8839C34.0396 27.829 34.074 27.7109 34.2113 27.6779H35.2844C35.3417 27.6367 35.499 27.7356 35.6707 28.4607C35.6851 28.5019 35.7308 28.5678 35.7995 28.5019C35.8854 28.4195 36.7009 27.5543 37.5594 27.6367C37.9028 27.6367 37.9887 27.774 37.9887 27.8427V28.9963C37.9744 29.0649 37.9114 29.2022 37.774 29.2022C36.5722 29.1363 35.9569 29.3396 35.7995 29.4494V33.4457C35.7995 33.4869 35.7738 33.5775 35.6707 33.6105H34.1684C34.1255 33.6105 34.0396 33.5775 34.0396 33.4457Z" fill="#00A8E1"/>
<path d="M39.0189 27.6779H40.3066C40.3781 27.6916 40.5212 27.7521 40.5212 27.8839V33.4457C40.5069 33.4869 40.4525 33.5775 40.3495 33.6105H38.9759C38.9187 33.5968 38.7956 33.5446 38.7613 33.4457L38.8042 27.8839C38.8042 27.829 38.8472 27.7109 39.0189 27.6779Z" fill="#00A8E1"/>
<path d="M39.3622 26.7303C39.491 26.7441 39.7915 26.7633 39.9632 26.7303C40.1349 26.6974 40.3209 26.5793 40.3924 26.5243C40.5641 26.3596 40.65 26.1124 40.65 25.8652C40.65 25.5356 40.5641 25.412 40.4354 25.2472C40.3495 25.1785 40.1778 25 39.9632 25H39.3622C39.2049 25.0412 38.8643 25.1483 38.7613 25.412C38.6583 25.6757 38.6755 25.7553 38.6755 25.9064C38.6755 26.0574 38.7579 26.3563 38.933 26.5243C39.1081 26.6924 39.2907 26.7166 39.3622 26.7303Z" fill="#00A8E1"/>
<path d="M43.6547 28.2547C43.6118 28.0899 43.4916 27.7521 43.3542 27.7191C43.2169 27.6861 42.5244 27.7054 42.1953 27.7191C42.138 27.7191 42.0236 27.7521 42.0236 27.8839V33.4457C42.0379 33.4869 42.0922 33.5775 42.1953 33.6105C42.2983 33.6434 43.1539 33.6242 43.5688 33.6105C43.6261 33.5968 43.7577 33.5446 43.8264 33.4457L43.7835 29.161C44.0267 29.0237 44.6248 28.7655 45.0712 28.8315C45.6292 28.8727 45.8009 29.1336 45.8438 29.2846L45.8868 33.4457C45.9011 33.5006 45.9554 33.6105 46.0585 33.6105H47.475C47.5179 33.5968 47.6123 33.5446 47.6467 33.4457V29.161C47.847 29.01 48.3764 28.7243 48.8915 28.7903C49.4066 28.8562 49.6212 29.1748 49.6641 29.3258V33.3633C49.6641 33.432 49.6985 33.5775 49.8358 33.6105H51.3382C51.3811 33.583 51.467 33.4951 51.467 33.3633V29.0787C51.4383 28.5705 51.0549 27.5461 49.75 27.5131C48.4451 27.4801 47.661 27.9938 47.4321 28.2547C47.2747 28.0075 46.7453 27.5131 45.8868 27.5131C45.0283 27.5131 44.041 28.0075 43.6547 28.2547Z" fill="#00A8E1"/>
<path fill-rule="evenodd" clip-rule="evenodd" d="M54.1283 31.0974C54.071 31.8252 54.6605 33.0831 57.4764 32.2921C57.6481 32.2262 57.691 32.4569 57.691 32.5805V33.1985C57.5336 33.4045 56.9098 33.8165 55.6735 33.8165C53.2698 33.8165 52.583 32.2235 52.5401 31.427C52.3827 30.7678 52.3598 29.194 53.5273 28.1723C55.1756 26.9858 56.8182 27.6779 57.4335 28.1723C57.8198 28.5156 58.395 29.4494 57.6052 30.4382C56.8153 31.427 54.9581 31.2896 54.1283 31.0974ZM55.4589 28.7079C54.3944 28.7079 54.1283 29.6417 54.1283 30.1086C54.4574 30.1498 55.21 30.224 55.5877 30.191C55.9654 30.1581 56.203 29.9301 56.2745 29.8202C56.4462 29.4494 56.5235 28.7079 55.4589 28.7079Z" fill="#00A8E1"/>
<path fill-rule="evenodd" clip-rule="evenodd" d="M27 27.7191V36H28.3736C28.4165 36 28.5195 35.9753 28.5882 35.8764V33.2397C30.1335 34.3109 32.8807 33.7753 32.8807 30.5206C32.8807 27.5131 30.2193 26.8127 28.4165 28.2135C28.4022 28.0762 28.3221 27.785 28.116 27.7191H27ZM30.6915 29.1199C29.9704 28.4936 28.9888 28.8589 28.5882 29.1199V32.0861C29.6871 32.8112 30.4483 32.3883 30.6915 32.0861C31.0006 31.9543 31.0778 30.9875 31.0778 30.5206C31.1122 29.7955 30.8346 29.2846 30.6915 29.1199Z" fill="#00A8E1"/>
<g clip-path="url(#clip0)">
<rect width="179" height="326" transform="translate(326 21) rotate(90)" fill="url(#paint1_linear)"/>
<path d="M30.5957 139.035V141.281H26.5918V153H24.0039V141.281H20V139.035H30.5957ZM31.8262 153V139.035H34.4141V144.055C35.2214 143.182 36.2533 142.746 37.5098 142.746C39.9382 142.746 41.1523 144.009 41.1523 146.535V153H38.5645V146.535C38.5645 145.402 38.0013 144.836 36.875 144.836C36.0352 144.836 35.2148 145.171 34.4141 145.842V153H31.8262ZM47.9297 142.746C51.0417 142.746 52.5977 144.335 52.5977 147.512C52.5977 147.935 52.5684 148.358 52.5098 148.781H45.7031C45.7031 150.227 46.7643 150.949 48.8867 150.949C49.9219 150.949 50.957 150.852 51.9922 150.656V152.707C51.0872 152.902 49.987 153 48.6914 153C44.974 153 43.1152 151.252 43.1152 147.756C43.1152 144.416 44.7201 142.746 47.9297 142.746ZM45.7031 146.984H50.0781V146.906C50.0781 145.487 49.362 144.777 47.9297 144.777C46.5625 144.777 45.8203 145.513 45.7031 146.984ZM60.6152 153H57.959L63.8867 139.035H66.6699L72.7246 153H69.9414L68.3496 149.191H63.7109L64.5996 146.945H67.4121L65.2148 141.701L60.6152 153ZM74.1895 153V142.746H76.1914L76.4941 144.23C77.4121 143.241 78.5156 142.746 79.8047 142.746C81.0938 142.746 81.9759 143.215 82.4512 144.152C83.4993 143.215 84.5964 142.746 85.7422 142.746C88.099 142.746 89.2773 144.045 89.2773 146.643V153H86.6895V146.545C86.6895 145.406 86.1751 144.836 85.1465 144.836C84.3783 144.836 83.6393 145.181 82.9297 145.871V153H80.3418V146.574C80.3418 145.415 79.8665 144.836 78.916 144.836C78.1608 144.836 77.4479 145.181 76.7773 145.871V153H74.1895ZM96.0547 142.746C99.1667 142.746 100.723 144.335 100.723 147.512C100.723 147.935 100.693 148.358 100.635 148.781H93.8281C93.8281 150.227 94.8893 150.949 97.0117 150.949C98.0469 150.949 99.082 150.852 100.117 150.656V152.707C99.2122 152.902 98.112 153 96.8164 153C93.099 153 91.2402 151.252 91.2402 147.756C91.2402 144.416 92.8451 142.746 96.0547 142.746ZM93.8281 146.984H98.2031V146.906C98.2031 145.487 97.487 144.777 96.0547 144.777C94.6875 144.777 93.9453 145.513 93.8281 146.984ZM102.666 153V142.746H104.668L104.99 144.055C105.889 143.182 106.839 142.746 107.842 142.746V144.836C106.878 144.836 106.016 145.236 105.254 146.037V153H102.666ZM111.895 139.035V141.086H109.307V139.035H111.895ZM111.895 142.746V153H109.307V142.746H111.895ZM121.914 152.707C121.068 152.902 120.189 153 119.277 153C115.632 153 113.809 151.226 113.809 147.678C113.809 144.39 115.632 142.746 119.277 142.746C120.189 142.746 121.068 142.844 121.914 143.039V145.09C121.068 144.895 120.254 144.797 119.473 144.797C117.422 144.797 116.396 145.757 116.396 147.678C116.396 149.859 117.422 150.949 119.473 150.949C120.254 150.949 121.068 150.852 121.914 150.656V152.707ZM123.135 149.807C123.135 147.769 124.619 146.75 127.588 146.75C128.285 146.75 128.981 146.815 129.678 146.945V146.174C129.678 145.256 129.017 144.797 127.695 144.797C126.576 144.797 125.332 144.96 123.965 145.285V143.234C125.332 142.909 126.576 142.746 127.695 142.746C130.742 142.746 132.266 143.872 132.266 146.125V153H130.762L129.844 152.082C128.952 152.694 127.969 153 126.895 153C124.388 153 123.135 151.936 123.135 149.807ZM129.678 148.703C129.027 148.573 128.33 148.508 127.588 148.508C126.344 148.508 125.723 148.931 125.723 149.777C125.723 150.689 126.243 151.145 127.285 151.145C128.145 151.145 128.942 150.878 129.678 150.344V148.703ZM134.717 153V142.746H136.719L137.041 144.25C138.024 143.247 139.144 142.746 140.4 142.746C142.829 142.746 144.043 144.009 144.043 146.535V153H141.455V146.535C141.455 145.402 140.892 144.836 139.766 144.836C138.926 144.836 138.105 145.171 137.305 145.842V153H134.717ZM146.494 152.512V150.363C147.633 150.819 148.949 151.047 150.439 151.047C151.553 151.047 152.109 150.689 152.109 149.973C152.109 149.289 151.735 148.947 150.986 148.947H149.131C147.048 148.947 146.006 147.922 146.006 145.871C146.006 143.723 147.526 142.648 150.566 142.648C151.855 142.648 153.07 142.844 154.209 143.234V145.383C153.07 144.927 151.833 144.699 150.498 144.699C149.098 144.699 148.398 145.057 148.398 145.773C148.398 146.457 148.805 146.799 149.619 146.799H151.279C153.558 146.799 154.697 147.824 154.697 149.875C154.697 152.023 153.245 153.098 150.342 153.098C148.916 153.098 147.633 152.902 146.494 152.512Z" fill="white"/>
<path d="M26.8906 174H20.6562V172.934L23.0488 170.329C23.3906 169.96 23.696 169.623 23.9648 169.317C24.2337 169.012 24.4616 168.714 24.6484 168.422C24.8398 168.13 24.9857 167.839 25.0859 167.547C25.1862 167.251 25.2363 166.929 25.2363 166.583C25.2363 166.314 25.1976 166.077 25.1201 165.872C25.0426 165.667 24.931 165.494 24.7852 165.353C24.6439 165.207 24.4753 165.097 24.2793 165.024C24.0833 164.951 23.8646 164.915 23.623 164.915C23.1901 164.915 22.7982 165.004 22.4473 165.182C22.1009 165.355 21.7705 165.578 21.4561 165.852L20.7588 165.038C20.9411 164.874 21.137 164.721 21.3467 164.58C21.5563 164.434 21.7819 164.309 22.0234 164.204C22.265 164.099 22.5202 164.017 22.7891 163.958C23.0579 163.894 23.3405 163.862 23.6367 163.862C24.0742 163.862 24.4684 163.924 24.8193 164.047C25.1748 164.17 25.4756 164.348 25.7217 164.58C25.9678 164.808 26.1569 165.088 26.2891 165.421C26.4258 165.749 26.4941 166.12 26.4941 166.535C26.4941 166.923 26.4326 167.292 26.3096 167.643C26.1911 167.993 26.0247 168.34 25.8105 168.682C25.6009 169.019 25.348 169.358 25.0518 169.7C24.7601 170.042 24.4434 170.397 24.1016 170.767L22.1807 172.811V172.865H26.8906V174ZM34.7656 168.989C34.7656 169.796 34.7064 170.518 34.5879 171.156C34.474 171.794 34.2871 172.334 34.0273 172.776C33.7721 173.218 33.4417 173.556 33.0361 173.788C32.6305 174.021 32.1383 174.137 31.5596 174.137C31.0218 174.137 30.5524 174.021 30.1514 173.788C29.7549 173.556 29.4245 173.218 29.1602 172.776C28.9004 172.334 28.7044 171.794 28.5723 171.156C28.4447 170.518 28.3809 169.796 28.3809 168.989C28.3809 168.183 28.4378 167.46 28.5518 166.822C28.6702 166.184 28.8548 165.646 29.1055 165.209C29.3607 164.767 29.6888 164.43 30.0898 164.197C30.4954 163.965 30.9854 163.849 31.5596 163.849C32.1019 163.849 32.5736 163.965 32.9746 164.197C33.3757 164.425 33.7083 164.76 33.9727 165.202C34.237 165.64 34.4352 166.177 34.5674 166.815C34.6995 167.453 34.7656 168.178 34.7656 168.989ZM29.6455 168.989C29.6455 169.673 29.6797 170.27 29.748 170.78C29.8164 171.291 29.9258 171.717 30.0762 172.059C30.2266 172.396 30.4225 172.651 30.6641 172.824C30.9102 172.993 31.2087 173.077 31.5596 173.077C31.9105 173.077 32.209 172.993 32.4551 172.824C32.7012 172.656 32.9017 172.403 33.0566 172.065C33.2161 171.728 33.3301 171.304 33.3984 170.794C33.4714 170.279 33.5078 169.677 33.5078 168.989C33.5078 168.306 33.4714 167.709 33.3984 167.198C33.3301 166.688 33.2161 166.264 33.0566 165.927C32.9017 165.59 32.7012 165.337 32.4551 165.168C32.209 164.999 31.9105 164.915 31.5596 164.915C31.2087 164.915 30.9102 164.999 30.6641 165.168C30.4225 165.337 30.2266 165.59 30.0762 165.927C29.9258 166.264 29.8164 166.688 29.748 167.198C29.6797 167.709 29.6455 168.306 29.6455 168.989ZM40.2822 174H39.0791V167.759C39.0791 167.563 39.0791 167.353 39.0791 167.13C39.0837 166.907 39.0882 166.686 39.0928 166.467C39.1019 166.243 39.1087 166.032 39.1133 165.831C39.1224 165.626 39.1292 165.446 39.1338 165.291C39.0563 165.373 38.988 165.444 38.9287 165.503C38.8695 165.562 38.8079 165.619 38.7441 165.674C38.6849 165.729 38.6211 165.788 38.5527 165.852C38.4844 165.911 38.4023 165.981 38.3066 166.063L37.2949 166.891L36.6387 166.05L39.2568 164.006H40.2822V174ZM50.1602 168.271C50.1602 168.75 50.1351 169.229 50.085 169.707C50.0394 170.181 49.9551 170.634 49.832 171.067C49.7135 171.5 49.5495 171.906 49.3398 172.284C49.1302 172.658 48.8636 172.981 48.54 173.255C48.2165 173.528 47.8291 173.745 47.3779 173.904C46.9268 174.059 46.3981 174.137 45.792 174.137C45.7054 174.137 45.6097 174.134 45.5049 174.13C45.4001 174.125 45.2952 174.116 45.1904 174.103C45.0856 174.093 44.9831 174.082 44.8828 174.068C44.7826 174.055 44.6937 174.036 44.6162 174.014V172.947C44.7757 173.007 44.9557 173.05 45.1562 173.077C45.3568 173.104 45.555 173.118 45.751 173.118C46.3662 173.118 46.8721 173.011 47.2686 172.797C47.665 172.583 47.9795 172.293 48.2119 171.929C48.4443 171.56 48.6084 171.131 48.7041 170.644C48.8044 170.156 48.8659 169.641 48.8887 169.099H48.7998C48.7087 169.263 48.5993 169.415 48.4717 169.557C48.3441 169.698 48.1937 169.821 48.0205 169.926C47.8473 170.031 47.6514 170.113 47.4326 170.172C47.2139 170.231 46.9701 170.261 46.7012 170.261C46.2682 170.261 45.8763 170.195 45.5254 170.062C45.1745 169.926 44.876 169.728 44.6299 169.468C44.3838 169.208 44.1924 168.891 44.0557 168.518C43.9235 168.139 43.8574 167.709 43.8574 167.226C43.8574 166.706 43.9281 166.239 44.0693 165.824C44.2152 165.405 44.418 165.052 44.6777 164.765C44.9421 164.473 45.2611 164.25 45.6348 164.095C46.013 163.94 46.4346 163.862 46.8994 163.862C47.3597 163.862 47.7881 163.951 48.1846 164.129C48.5811 164.307 48.9251 164.578 49.2168 164.942C49.5085 165.307 49.7386 165.767 49.9072 166.323C50.0758 166.875 50.1602 167.524 50.1602 168.271ZM46.9131 164.915C46.6396 164.915 46.389 164.961 46.1611 165.052C45.9378 165.143 45.7441 165.284 45.5801 165.476C45.416 165.667 45.2884 165.909 45.1973 166.2C45.1107 166.487 45.0674 166.829 45.0674 167.226C45.0674 167.545 45.1038 167.832 45.1768 168.087C45.2542 168.338 45.3682 168.552 45.5186 168.729C45.6689 168.907 45.8558 169.044 46.0791 169.14C46.307 169.235 46.5713 169.283 46.8721 169.283C47.182 169.283 47.4622 169.231 47.7129 169.126C47.9635 169.017 48.1777 168.878 48.3555 168.709C48.5332 168.536 48.6699 168.34 48.7656 168.121C48.8659 167.902 48.916 167.684 48.916 167.465C48.916 167.16 48.8727 166.856 48.7861 166.556C48.7041 166.25 48.5788 165.977 48.4102 165.735C48.2461 165.489 48.0387 165.291 47.7881 165.141C47.5374 164.99 47.2458 164.915 46.9131 164.915Z" fill="#939393"/>
<path d="M63.8604 174H62.6572V167.759C62.6572 167.563 62.6572 167.353 62.6572 167.13C62.6618 166.907 62.6663 166.686 62.6709 166.467C62.68 166.243 62.6868 166.032 62.6914 165.831C62.7005 165.626 62.7074 165.446 62.7119 165.291C62.6344 165.373 62.5661 165.444 62.5068 165.503C62.4476 165.562 62.3861 165.619 62.3223 165.674C62.263 165.729 62.1992 165.788 62.1309 165.852C62.0625 165.911 61.9805 165.981 61.8848 166.063L60.873 166.891L60.2168 166.05L62.835 164.006H63.8604V174ZM72.5898 174V169.167C72.5898 168.575 72.4691 168.13 72.2275 167.834C71.9906 167.538 71.6169 167.39 71.1064 167.39C70.7373 167.39 70.4274 167.449 70.1768 167.567C69.9261 167.686 69.7233 167.861 69.5684 168.094C69.418 168.326 69.3086 168.611 69.2402 168.948C69.1764 169.285 69.1445 169.673 69.1445 170.11V174H67.9004V163.363H69.1445V166.521L69.0898 167.506H69.1582C69.2721 167.31 69.4066 167.141 69.5615 167C69.721 166.854 69.8942 166.733 70.0811 166.638C70.2679 166.542 70.4661 166.471 70.6758 166.426C70.8854 166.38 71.0996 166.357 71.3184 166.357C72.1523 166.357 72.779 166.576 73.1982 167.014C73.6221 167.447 73.834 168.142 73.834 169.099V174H72.5898ZM79.3916 166.357C79.5238 166.357 79.6719 166.364 79.8359 166.378C80 166.387 80.1413 166.403 80.2598 166.426L80.0957 167.574C79.9681 167.551 79.8359 167.533 79.6992 167.52C79.5671 167.501 79.4417 167.492 79.3232 167.492C79.0361 167.492 78.7741 167.551 78.5371 167.67C78.3001 167.784 78.0951 167.95 77.9219 168.169C77.7533 168.383 77.6211 168.643 77.5254 168.948C77.4342 169.249 77.3887 169.584 77.3887 169.953V174H76.1445V166.494H77.1562L77.3066 167.868H77.3613C77.4753 167.672 77.596 167.483 77.7236 167.301C77.8558 167.118 78.0016 166.959 78.1611 166.822C78.3252 166.681 78.5075 166.569 78.708 166.487C78.9085 166.401 79.1364 166.357 79.3916 166.357ZM90.7529 166.344C90.7529 166.676 90.7005 166.979 90.5957 167.253C90.4909 167.526 90.3428 167.763 90.1514 167.964C89.9645 168.164 89.7389 168.331 89.4746 168.463C89.2103 168.59 88.9163 168.682 88.5928 168.736V168.777C89.3994 168.878 90.0124 169.135 90.4316 169.55C90.8509 169.96 91.0605 170.495 91.0605 171.156C91.0605 171.594 90.9854 171.995 90.835 172.359C90.6891 172.724 90.4658 173.038 90.165 173.303C89.8643 173.567 89.4837 173.772 89.0234 173.918C88.5632 174.064 88.0186 174.137 87.3896 174.137C86.8929 174.137 86.4235 174.098 85.9814 174.021C85.5439 173.943 85.1315 173.802 84.7441 173.597V172.435C85.1406 172.644 85.569 172.806 86.0293 172.92C86.4941 173.034 86.9385 173.091 87.3623 173.091C87.7816 173.091 88.1439 173.045 88.4492 172.954C88.7546 172.863 89.0052 172.733 89.2012 172.564C89.4017 172.396 89.5475 172.188 89.6387 171.942C89.7344 171.696 89.7822 171.421 89.7822 171.115C89.7822 170.805 89.7207 170.541 89.5977 170.322C89.4792 170.099 89.3083 169.917 89.085 169.775C88.8617 169.63 88.5882 169.522 88.2646 169.454C87.9456 169.386 87.5833 169.352 87.1777 169.352H86.2686V168.319H87.1777C87.5469 168.319 87.875 168.274 88.1621 168.183C88.4492 168.091 88.6885 167.962 88.8799 167.793C89.0758 167.624 89.224 167.424 89.3242 167.191C89.4245 166.959 89.4746 166.704 89.4746 166.426C89.4746 166.189 89.4336 165.977 89.3516 165.79C89.2695 165.603 89.1533 165.446 89.0029 165.318C88.8525 165.186 88.6725 165.086 88.4629 165.018C88.2533 164.949 88.0208 164.915 87.7656 164.915C87.278 164.915 86.8473 164.993 86.4736 165.147C86.1045 165.298 85.7513 165.496 85.4141 165.742L84.7852 164.888C84.9583 164.746 85.1497 164.614 85.3594 164.491C85.5736 164.368 85.806 164.261 86.0566 164.17C86.3073 164.074 86.5739 163.999 86.8564 163.944C87.1436 163.89 87.4466 163.862 87.7656 163.862C88.2578 163.862 88.6885 163.924 89.0576 164.047C89.4313 164.17 89.7435 164.343 89.9941 164.566C90.2448 164.785 90.4339 165.047 90.5615 165.353C90.6891 165.653 90.7529 165.984 90.7529 166.344ZM98.7852 174H92.5508V172.934L94.9434 170.329C95.2852 169.96 95.5905 169.623 95.8594 169.317C96.1283 169.012 96.3561 168.714 96.543 168.422C96.7344 168.13 96.8802 167.839 96.9805 167.547C97.0807 167.251 97.1309 166.929 97.1309 166.583C97.1309 166.314 97.0921 166.077 97.0146 165.872C96.9372 165.667 96.8255 165.494 96.6797 165.353C96.5384 165.207 96.3698 165.097 96.1738 165.024C95.9779 164.951 95.7591 164.915 95.5176 164.915C95.0846 164.915 94.6927 165.004 94.3418 165.182C93.9954 165.355 93.665 165.578 93.3506 165.852L92.6533 165.038C92.8356 164.874 93.0316 164.721 93.2412 164.58C93.4508 164.434 93.6764 164.309 93.918 164.204C94.1595 164.099 94.4147 164.017 94.6836 163.958C94.9525 163.894 95.235 163.862 95.5312 163.862C95.9688 163.862 96.363 163.924 96.7139 164.047C97.0693 164.17 97.3701 164.348 97.6162 164.58C97.8623 164.808 98.0514 165.088 98.1836 165.421C98.3203 165.749 98.3887 166.12 98.3887 166.535C98.3887 166.923 98.3271 167.292 98.2041 167.643C98.0856 167.993 97.9193 168.34 97.7051 168.682C97.4954 169.019 97.2425 169.358 96.9463 169.7C96.6546 170.042 96.3379 170.397 95.9961 170.767L94.0752 172.811V172.865H98.7852V174ZM113.421 174V169.167C113.421 168.575 113.307 168.13 113.079 167.834C112.851 167.538 112.498 167.39 112.02 167.39C111.687 167.39 111.404 167.444 111.172 167.554C110.939 167.659 110.748 167.816 110.598 168.025C110.452 168.23 110.345 168.488 110.276 168.798C110.208 169.103 110.174 169.456 110.174 169.857V174H108.923V169.167C108.923 168.575 108.809 168.13 108.581 167.834C108.358 167.538 108.007 167.39 107.528 167.39C107.177 167.39 106.883 167.449 106.646 167.567C106.41 167.686 106.218 167.861 106.072 168.094C105.931 168.326 105.828 168.611 105.765 168.948C105.705 169.285 105.676 169.673 105.676 170.11V174H104.432V166.494H105.443L105.621 167.506H105.689C105.799 167.31 105.929 167.141 106.079 167C106.229 166.854 106.394 166.733 106.571 166.638C106.754 166.542 106.945 166.471 107.146 166.426C107.351 166.38 107.558 166.357 107.768 166.357C108.314 166.357 108.768 166.458 109.128 166.658C109.493 166.859 109.761 167.173 109.935 167.602H109.989C110.108 167.387 110.249 167.203 110.413 167.048C110.582 166.893 110.764 166.765 110.96 166.665C111.16 166.56 111.37 166.483 111.589 166.433C111.808 166.382 112.031 166.357 112.259 166.357C113.056 166.357 113.656 166.576 114.057 167.014C114.462 167.447 114.665 168.142 114.665 169.099V174H113.421ZM118.227 174H116.982V166.494H118.227V174ZM116.887 164.464C116.887 164.19 116.955 163.992 117.092 163.869C117.233 163.746 117.406 163.685 117.611 163.685C117.712 163.685 117.805 163.701 117.892 163.732C117.983 163.76 118.06 163.805 118.124 163.869C118.192 163.933 118.245 164.015 118.281 164.115C118.322 164.211 118.343 164.327 118.343 164.464C118.343 164.728 118.27 164.926 118.124 165.059C117.983 165.186 117.812 165.25 117.611 165.25C117.406 165.25 117.233 165.186 117.092 165.059C116.955 164.931 116.887 164.733 116.887 164.464ZM125.295 174V169.167C125.295 168.575 125.174 168.13 124.933 167.834C124.696 167.538 124.322 167.39 123.812 167.39C123.442 167.39 123.132 167.449 122.882 167.567C122.631 167.686 122.428 167.861 122.273 168.094C122.123 168.326 122.014 168.611 121.945 168.948C121.882 169.285 121.85 169.673 121.85 170.11V174H120.605V166.494H121.617L121.795 167.506H121.863C121.977 167.31 122.112 167.141 122.267 167C122.426 166.854 122.599 166.733 122.786 166.638C122.973 166.542 123.171 166.471 123.381 166.426C123.59 166.38 123.805 166.357 124.023 166.357C124.857 166.357 125.484 166.576 125.903 167.014C126.327 167.447 126.539 168.142 126.539 169.099V174H125.295ZM133.73 174H132.486V163.363H133.73V174ZM139.076 174.137C138.575 174.137 138.117 174.052 137.702 173.884C137.287 173.715 136.93 173.469 136.629 173.146C136.333 172.822 136.103 172.421 135.938 171.942C135.774 171.464 135.692 170.917 135.692 170.302C135.692 169.682 135.768 169.128 135.918 168.641C136.068 168.153 136.28 167.741 136.554 167.403C136.827 167.062 137.153 166.802 137.531 166.624C137.914 166.446 138.336 166.357 138.796 166.357C139.247 166.357 139.653 166.439 140.013 166.604C140.373 166.763 140.678 166.991 140.929 167.287C141.179 167.579 141.371 167.932 141.503 168.347C141.64 168.757 141.708 169.213 141.708 169.714V170.486H136.978C137 171.366 137.185 172.013 137.531 172.428C137.882 172.842 138.402 173.05 139.09 173.05C139.322 173.05 139.536 173.038 139.732 173.016C139.933 172.993 140.124 172.961 140.307 172.92C140.493 172.874 140.674 172.82 140.847 172.756C141.02 172.688 141.195 172.612 141.373 172.53V173.638C141.191 173.724 141.011 173.799 140.833 173.863C140.66 173.927 140.48 173.979 140.293 174.021C140.111 174.062 139.919 174.091 139.719 174.109C139.523 174.128 139.309 174.137 139.076 174.137ZM138.769 167.39C138.249 167.39 137.837 167.567 137.531 167.923C137.23 168.278 137.055 168.796 137.005 169.475H140.368C140.368 169.165 140.336 168.882 140.272 168.627C140.213 168.367 140.118 168.146 139.985 167.964C139.858 167.782 139.694 167.64 139.493 167.54C139.293 167.44 139.051 167.39 138.769 167.39ZM146.862 167.431H145.188V174H143.937V167.431H142.61V166.918L143.937 166.453V165.797C143.937 165.309 143.987 164.906 144.087 164.587C144.192 164.263 144.34 164.006 144.531 163.814C144.727 163.623 144.966 163.489 145.249 163.411C145.532 163.329 145.851 163.288 146.206 163.288C146.475 163.288 146.721 163.315 146.944 163.37C147.172 163.42 147.375 163.477 147.553 163.541L147.231 164.505C147.09 164.455 146.935 164.411 146.767 164.375C146.603 164.334 146.429 164.313 146.247 164.313C146.065 164.313 145.908 164.336 145.775 164.382C145.643 164.423 145.534 164.498 145.447 164.607C145.361 164.717 145.295 164.867 145.249 165.059C145.208 165.245 145.188 165.487 145.188 165.783V166.494H146.862V167.431ZM150.479 173.118C150.561 173.118 150.652 173.114 150.752 173.104C150.857 173.095 150.957 173.084 151.053 173.07C151.148 173.057 151.235 173.041 151.312 173.022C151.395 173.004 151.456 172.988 151.497 172.975V173.918C151.438 173.945 151.363 173.973 151.271 174C151.18 174.027 151.08 174.05 150.971 174.068C150.861 174.091 150.747 174.107 150.629 174.116C150.51 174.13 150.394 174.137 150.28 174.137C149.998 174.137 149.736 174.1 149.494 174.027C149.253 173.954 149.043 173.829 148.865 173.651C148.692 173.474 148.555 173.234 148.455 172.934C148.355 172.628 148.305 172.245 148.305 171.785V167.431H147.245V166.877L148.305 166.344L148.838 164.771H149.556V166.494H151.442V167.431H149.556V171.785C149.556 172.227 149.626 172.56 149.768 172.783C149.913 173.007 150.15 173.118 150.479 173.118Z" fill="white"/>
<rect x="-168" y="194" width="368" height="6" fill="#00A8E1"/>
<path d="M175 153.1C169.5 153.1 165.1 157.5 165.1 163C165.1 168.5 169.5 172.9 175 172.9C180.5 172.9 184.9 168.5 184.9 163C184.9 157.5 180.5 153.1 175 153.1ZM175 171.7C170.245 171.7 166.3 167.755 166.3 163C166.3 158.245 170.245 154.3 175 154.3C179.755 154.3 183.7 158.245 183.7 163C183.7 167.755 179.755 171.7 175 171.7ZM170.6 161.9V164.1H179.4V161.9H170.6Z" fill="white"/>
<path d="M207.267 159.276C206.605 158.608 205.916 158.026 205.198 157.532C204.481 157.037 203.809 156.666 203.182 156.419C202.556 156.172 201.981 156.053 201.459 156.063C200.936 156.073 200.529 156.228 200.236 156.529C200.167 156.596 200.108 156.671 200.059 156.755C200.01 156.838 199.975 156.903 199.954 156.95C199.934 156.997 199.906 157.081 199.871 157.201C199.836 157.321 199.812 157.398 199.798 157.432L195.912 169.703L196.152 169.944C195.88 170.124 195.638 170.335 195.426 170.576C195.214 170.816 195.027 171.013 194.867 171.167C194.707 171.321 194.515 171.428 194.292 171.488C194.244 171.501 194.183 171.547 194.11 171.623C194.037 171.7 194 171.769 194 171.829C194 171.949 194.063 172.049 194.188 172.13C194.313 172.21 194.453 172.25 194.606 172.25C194.801 172.25 194.989 172.175 195.17 172.024C195.351 171.874 195.534 171.682 195.718 171.448C195.903 171.214 196.037 171.06 196.121 170.987C196.302 170.833 196.504 170.686 196.726 170.546L196.998 170.796L209.346 166.776C209.617 166.696 209.826 166.575 209.972 166.415C210.265 166.114 210.416 165.698 210.427 165.167C210.437 164.635 210.321 164.05 210.077 163.412C209.833 162.774 209.469 162.092 208.985 161.367C208.501 160.642 207.928 159.945 207.267 159.276ZM206.139 160.369C207.204 161.412 208.014 162.409 208.567 163.362C209.121 164.314 209.255 164.941 208.97 165.242C208.684 165.543 208.061 165.432 207.1 164.911C206.139 164.39 205.129 163.611 204.07 162.575C202.998 161.532 202.185 160.536 201.631 159.587C201.077 158.638 200.943 158.01 201.229 157.702C201.514 157.401 202.139 157.512 203.104 158.033C204.069 158.554 205.08 159.333 206.139 160.369ZM203.851 164.52C204.359 164.954 204.864 165.335 205.366 165.663C205.373 165.676 205.547 165.99 205.888 166.605L205.01 166.896C204.593 166.141 204.206 165.349 203.851 164.52ZM200.289 159.928C200.442 160.256 200.654 160.653 200.926 161.121C201.149 162.084 201.499 163.126 201.976 164.249C202.453 165.372 202.973 166.425 203.538 167.407L202.67 167.688C202.016 166.525 201.445 165.307 200.957 164.034C200.47 162.76 200.17 161.636 200.059 160.66L200.289 159.928ZM199.077 163.598C199.564 165.095 200.25 166.632 201.135 168.21L200.278 168.5C199.589 167.23 199.046 166.037 198.649 164.921L199.077 163.598ZM197.876 167.257C198.147 167.872 198.436 168.457 198.743 169.012L197.886 169.302C197.789 169.122 197.649 168.844 197.468 168.47L197.876 167.257ZM205.554 153L206.076 154.514L204.728 155.456H206.389L206.901 156.97L207.413 155.456H209.064L207.726 154.514L208.249 153.01L206.901 153.942L205.554 153ZM202.629 153L202.347 154.374L203.778 154.644L204.06 153.271L202.629 153ZM212.041 157.131L213.19 155.978L214.684 156.68L213.911 155.276L215.07 154.143L213.43 154.414L212.657 153L212.427 154.584L210.787 154.855L212.281 155.547L212.041 157.131ZM211.654 159.597L213.044 160.479L212.605 162.023L213.9 161.021L215.279 161.903L214.705 160.399L216 159.417L214.339 159.487L213.754 157.993L213.326 159.527L211.654 159.597ZM211.059 155.877L207.946 158.324L208.332 158.775L211.445 156.329L211.059 155.877ZM212.145 160.61L209.711 160.399L209.649 160.981L212.093 161.191L212.145 160.61ZM212.386 163.417L211.936 164.761L213.326 165.192L213.785 163.858L212.386 163.417Z" fill="white"/>
<path d="M269.813 165.75C269.298 165.752 268.791 165.87 268.328 166.095C267.865 166.32 267.459 166.646 267.139 167.049L262.113 163.907C262.296 163.316 262.296 162.683 262.113 162.092L267.139 158.95C267.649 159.582 268.366 160.013 269.163 160.166C269.96 160.32 270.786 160.186 271.494 159.789C272.202 159.392 272.747 158.757 273.032 157.997C273.317 157.236 273.323 156.4 273.05 155.635C272.777 154.871 272.243 154.227 271.541 153.819C270.839 153.411 270.015 153.264 269.216 153.405C268.416 153.546 267.692 153.966 267.173 154.589C266.653 155.213 266.37 156 266.375 156.812C266.379 157.12 266.425 157.425 266.513 157.72L261.487 160.862C261.044 160.303 260.437 159.896 259.752 159.698C259.067 159.5 258.337 159.519 257.663 159.754C256.99 159.989 256.406 160.428 255.993 161.009C255.58 161.591 255.358 162.286 255.358 163C255.358 163.713 255.58 164.409 255.993 164.99C256.406 165.572 256.99 166.011 257.663 166.245C258.337 166.48 259.067 166.5 259.752 166.302C260.437 166.103 261.044 165.696 261.487 165.138L266.513 168.28C266.425 168.574 266.379 168.88 266.375 169.187C266.375 169.867 266.577 170.532 266.955 171.097C267.332 171.662 267.869 172.103 268.497 172.363C269.126 172.623 269.817 172.691 270.484 172.559C271.15 172.426 271.763 172.099 272.244 171.618C272.724 171.137 273.052 170.525 273.184 169.858C273.317 169.191 273.249 168.5 272.989 167.872C272.729 167.244 272.288 166.707 271.723 166.329C271.157 165.951 270.493 165.75 269.813 165.75V165.75ZM269.813 154.75C270.221 154.75 270.62 154.871 270.959 155.097C271.298 155.324 271.562 155.646 271.718 156.023C271.875 156.4 271.915 156.815 271.836 157.215C271.756 157.615 271.56 157.982 271.271 158.271C270.983 158.559 270.615 158.756 270.215 158.835C269.815 158.915 269.4 158.874 269.024 158.718C268.647 158.562 268.325 158.297 268.098 157.958C267.871 157.619 267.75 157.22 267.75 156.812C267.75 156.265 267.968 155.741 268.354 155.354C268.741 154.967 269.266 154.75 269.813 154.75V154.75ZM258.813 165.062C258.405 165.062 258.006 164.941 257.667 164.715C257.328 164.488 257.064 164.166 256.907 163.789C256.751 163.412 256.71 162.998 256.79 162.597C256.87 162.197 257.066 161.83 257.354 161.541C257.643 161.253 258.01 161.057 258.411 160.977C258.811 160.897 259.225 160.938 259.602 161.094C259.979 161.25 260.301 161.515 260.528 161.854C260.754 162.193 260.875 162.592 260.875 163C260.875 163.547 260.658 164.071 260.271 164.458C259.885 164.845 259.36 165.062 258.813 165.062ZM269.813 171.25C269.405 171.25 269.006 171.129 268.667 170.902C268.328 170.676 268.064 170.353 267.907 169.977C267.751 169.6 267.71 169.185 267.79 168.785C267.87 168.385 268.066 168.017 268.354 167.729C268.643 167.44 269.01 167.244 269.411 167.164C269.811 167.085 270.225 167.126 270.602 167.282C270.979 167.438 271.301 167.702 271.528 168.041C271.754 168.381 271.875 168.779 271.875 169.187C271.875 169.734 271.658 170.259 271.271 170.646C270.885 171.032 270.36 171.25 269.813 171.25V171.25Z" fill="white"/>
<path d="M301.416 153.833H289.747C289.103 153.834 288.481 154.059 287.986 154.471C287.492 154.883 287.158 155.456 287.043 156.088L285.878 162.505C285.806 162.901 285.821 163.309 285.924 163.699C286.026 164.088 286.213 164.451 286.471 164.761C286.729 165.07 287.052 165.319 287.417 165.49C287.782 165.661 288.18 165.75 288.583 165.75H292.763L292.249 167.061C292.036 167.635 291.965 168.252 292.042 168.859C292.119 169.467 292.343 170.046 292.694 170.549C293.044 171.051 293.511 171.46 294.055 171.742C294.599 172.024 295.203 172.17 295.815 172.167C295.991 172.166 296.164 172.115 296.312 172.019C296.46 171.923 296.577 171.787 296.649 171.626L299.262 165.75H301.416C302.145 165.75 302.845 165.46 303.36 164.945C303.876 164.429 304.166 163.729 304.166 163V156.583C304.166 155.854 303.876 155.155 303.36 154.639C302.845 154.123 302.145 153.833 301.416 153.833ZM297.749 164.641L295.256 170.251C295.001 170.174 294.764 170.045 294.561 169.873C294.357 169.701 294.191 169.489 294.072 169.25C293.954 169.011 293.886 168.751 293.872 168.485C293.858 168.219 293.898 167.952 293.991 167.702L294.477 166.392C294.58 166.115 294.615 165.817 294.579 165.523C294.542 165.23 294.435 164.949 294.267 164.706C294.098 164.463 293.873 164.264 293.611 164.127C293.35 163.989 293.058 163.917 292.763 163.917H288.583C288.448 163.917 288.315 163.887 288.193 163.83C288.071 163.773 287.963 163.69 287.877 163.587C287.788 163.485 287.724 163.364 287.687 163.234C287.651 163.104 287.644 162.968 287.666 162.835L288.83 156.418C288.869 156.205 288.983 156.012 289.151 155.874C289.318 155.737 289.53 155.663 289.747 155.667H297.749V164.641ZM302.333 163C302.333 163.243 302.236 163.476 302.064 163.648C301.892 163.82 301.659 163.917 301.416 163.917H299.583V155.667H301.416C301.659 155.667 301.892 155.763 302.064 155.935C302.236 156.107 302.333 156.34 302.333 156.583V163Z" fill="white"/>
<path d="M234.75 158.833C235.256 158.833 235.667 158.423 235.667 157.917C235.667 157.41 235.256 157 234.75 157C234.244 157 233.833 157.41 233.833 157.917C233.833 158.423 234.244 158.833 234.75 158.833Z" fill="white"/>
<path d="M237.347 166.411H235.819V160.056H233.528C233.325 160.056 233.131 160.139 232.988 160.288C232.844 160.437 232.764 160.639 232.764 160.85C232.764 161.061 232.844 161.263 232.988 161.412C233.131 161.561 233.325 161.644 233.528 161.644H234.292V166.411H232.764C232.561 166.411 232.367 166.495 232.224 166.644C232.08 166.793 232 166.995 232 167.206C232 167.416 232.08 167.618 232.224 167.767C232.367 167.916 232.561 168 232.764 168H237.347C237.55 168 237.744 167.916 237.887 167.767C238.031 167.618 238.111 167.416 238.111 167.206C238.111 166.995 238.031 166.793 237.887 166.644C237.744 166.495 237.55 166.411 237.347 166.411Z" fill="white"/>
<path d="M234.625 153C232.721 153 230.86 153.564 229.278 154.622C227.695 155.68 226.461 157.183 225.733 158.942C225.004 160.7 224.814 162.636 225.185 164.503C225.556 166.37 226.473 168.085 227.819 169.431C229.165 170.777 230.88 171.694 232.747 172.065C234.614 172.436 236.55 172.246 238.308 171.517C240.067 170.789 241.57 169.555 242.628 167.972C243.686 166.39 244.25 164.529 244.25 162.625C244.25 160.072 243.236 157.624 241.431 155.819C239.626 154.014 237.178 153 234.625 153V153ZM234.625 170.646C233.039 170.646 231.488 170.175 230.169 169.294C228.85 168.413 227.822 167.16 227.215 165.694C226.608 164.229 226.449 162.616 226.758 161.06C227.068 159.504 227.832 158.075 228.953 156.953C230.075 155.832 231.504 155.068 233.06 154.758C234.616 154.449 236.229 154.608 237.694 155.215C239.16 155.822 240.413 156.85 241.294 158.169C242.175 159.488 242.646 161.039 242.646 162.625C242.646 163.678 242.438 164.721 242.035 165.694C241.632 166.668 241.041 167.552 240.297 168.297C239.552 169.041 238.668 169.632 237.694 170.035C236.721 170.438 235.678 170.646 234.625 170.646V170.646Z" fill="white"/>
<path d="M234.75 158.833C235.256 158.833 235.667 158.423 235.667 157.917C235.667 157.41 235.256 157 234.75 157C234.244 157 233.833 157.41 233.833 157.917C233.833 158.423 234.244 158.833 234.75 158.833Z" fill="white"/>
<path d="M237.347 166.411H235.819V160.056H233.528C233.325 160.056 233.131 160.139 232.988 160.288C232.844 160.437 232.764 160.639 232.764 160.85C232.764 161.061 232.844 161.263 232.988 161.412C233.131 161.561 233.325 161.644 233.528 161.644H234.292V166.411H232.764C232.561 166.411 232.367 166.495 232.224 166.644C232.08 166.793 232 166.995 232 167.206C232 167.416 232.08 167.618 232.224 167.767C232.367 167.916 232.561 168 232.764 168H237.347C237.55 168 237.744 167.916 237.887 167.767C238.031 167.618 238.111 167.416 238.111 167.206C238.111 166.995 238.031 166.793 237.887 166.644C237.744 166.495 237.55 166.411 237.347 166.411Z" fill="white"/>
<path d="M234.625 153C232.721 153 230.86 153.564 229.278 154.622C227.695 155.68 226.461 157.183 225.733 158.942C225.004 160.7 224.814 162.636 225.185 164.503C225.556 166.37 226.473 168.085 227.819 169.431C229.165 170.777 230.88 171.694 232.747 172.065C234.614 172.436 236.55 172.246 238.308 171.517C240.067 170.789 241.57 169.555 242.628 167.972C243.686 166.39 244.25 164.529 244.25 162.625C244.25 160.072 243.236 157.624 241.431 155.819C239.626 154.014 237.178 153 234.625 153V153ZM234.625 170.646C233.039 170.646 231.488 170.175 230.169 169.294C228.85 168.413 227.822 167.16 227.215 165.694C226.608 164.229 226.449 162.616 226.758 161.06C227.068 159.504 227.832 158.075 228.953 156.953C230.075 155.832 231.504 155.068 233.06 154.758C234.616 154.449 236.229 154.608 237.694 155.215C239.16 155.822 240.413 156.85 241.294 158.169C242.175 159.488 242.646 161.039 242.646 162.625C242.646 163.678 242.438 164.721 242.035 165.694C241.632 166.668 241.041 167.552 240.297 168.297C239.552 169.041 238.668 169.632 237.694 170.035C236.721 170.438 235.678 170.646 234.625 170.646V170.646Z" fill="white"/>
</g>
<path d="M162.578 76.0037C167.324 75.9203 171.988 77.2461 175.981 79.8135C179.973 82.3809 183.115 86.0745 185.008 90.4274C186.902 94.7802 187.462 99.5967 186.617 104.268C185.773 108.939 183.563 113.255 180.266 116.67C176.969 120.085 172.734 122.445 168.095 123.453C163.456 124.461 158.623 124.07 154.207 122.331C149.79 120.592 145.988 117.582 143.282 113.682C140.576 109.782 139.087 105.168 139.004 100.422C138.892 94.0575 141.313 87.9095 145.734 83.3303C150.155 78.751 156.214 76.1155 162.578 76.0037V76.0037ZM162.508 72.0043C156.971 72.1016 151.587 73.8387 147.037 76.9958C142.487 80.1529 138.976 84.5883 136.947 89.7411C134.918 94.8939 134.463 100.533 135.638 105.944C136.814 111.356 139.568 116.297 143.552 120.144C147.536 123.99 152.571 126.569 158.021 127.554C163.47 128.538 169.09 127.885 174.168 125.676C179.246 123.467 183.556 119.802 186.551 115.144C189.546 110.486 191.093 105.045 190.996 99.5079C190.865 92.083 187.79 85.0141 182.448 79.8561C177.105 74.6982 169.933 71.8738 162.508 72.0043V72.0043Z" fill="white" fill-opacity="0.6"/>
<path d="M155.247 114.138C154.888 114.145 154.534 114.054 154.223 113.876C153.921 113.705 153.669 113.457 153.492 113.159C153.315 112.86 153.219 112.521 153.213 112.174L152.791 88.1776C152.785 87.8306 152.869 87.4879 153.036 87.1834C153.202 86.8789 153.445 86.6229 153.74 86.4407C154.041 86.2598 154.385 86.1613 154.736 86.1552C155.087 86.149 155.433 86.2353 155.74 86.4055L177.948 98.0171C178.268 98.1828 178.538 98.4322 178.728 98.7387C178.918 99.0453 179.022 99.3976 179.028 99.7583C179.035 100.119 178.943 100.475 178.764 100.788C178.585 101.101 178.324 101.36 178.009 101.537L156.224 113.921C155.922 114.075 155.586 114.15 155.247 114.138V114.138ZM156.849 91.4668L157.153 108.744L172.819 99.8275L156.849 91.4668Z" fill="white" fill-opacity="0.6"/>
<defs>
<linearGradient id="paint0_linear" x1="92.75" y1="81.1765" x2="52.8637" y2="38.8258" gradientUnits="userSpaceOnUse">
<stop stop-color="#1B1B1B"/>
<stop offset="1" stop-color="#1B1B1B" stop-opacity="0"/>
</linearGradient>
<linearGradient id="paint1_linear" x1="13.8879" y1="148" x2="150.493" y2="148.676" gradientUnits="userSpaceOnUse">
<stop stop-opacity="0"/>
<stop stop-opacity="0"/>
<stop offset="1"/>
</linearGradient>
<clipPath id="clip0">
<rect width="179" height="326" fill="white" transform="translate(326 21) rotate(90)"/>
</clipPath>
</defs>
</svg>
