<svg width="326" height="200" viewBox="0 0 326 200" fill="none" xmlns="http://www.w3.org/2000/svg">
<path d="M20 31C20 24.9249 24.9249 20 31 20H53C59.0751 20 64 24.9249 64 31V31C64 37.0751 59.0751 42 53 42H31C24.9249 42 20 37.0751 20 31V31Z" fill="white" fill-opacity="0.8"/>
<path fill-rule="evenodd" clip-rule="evenodd" d="M27 27.7191V36H28.3736C28.4165 36 28.5195 35.9753 28.5882 35.8764V33.2397C30.1335 34.3109 32.8807 33.7753 32.8807 30.5206C32.8807 27.5131 30.2193 26.8127 28.4165 28.2135C28.4022 28.0762 28.3221 27.785 28.116 27.7191H27ZM30.6915 29.1199C29.9704 28.4936 28.9888 28.8589 28.5882 29.1199V32.0861C29.6871 32.8112 30.4483 32.3883 30.6915 32.0861C31.0006 31.9543 31.0778 30.9875 31.0778 30.5206C31.1122 29.7955 30.8346 29.2846 30.6915 29.1199Z" fill="#00A8E1"/>
<path d="M34.0396 33.4457V27.8839C34.0396 27.829 34.074 27.7109 34.2113 27.6779H35.2844C35.3417 27.6367 35.499 27.7356 35.6707 28.4607C35.6851 28.5019 35.7308 28.5678 35.7995 28.5019C35.8854 28.4195 36.7009 27.5543 37.5594 27.6367C37.9028 27.6367 37.9887 27.774 37.9887 27.8427V28.9963C37.9744 29.0649 37.9114 29.2022 37.774 29.2022C36.5722 29.1363 35.9569 29.3396 35.7995 29.4494V33.4457C35.7995 33.4869 35.7738 33.5775 35.6707 33.6105H34.1684C34.1255 33.6105 34.0396 33.5775 34.0396 33.4457Z" fill="#00A8E1"/>
<path d="M39.0189 27.6779H40.3066C40.3781 27.6916 40.5212 27.7521 40.5212 27.8839V33.4457C40.5069 33.4869 40.4525 33.5775 40.3495 33.6105H38.9759C38.9187 33.5968 38.7956 33.5446 38.7613 33.4457L38.8042 27.8839C38.8042 27.829 38.8472 27.7109 39.0189 27.6779Z" fill="#00A8E1"/>
<path d="M39.3622 26.7303C39.491 26.7441 39.7915 26.7633 39.9632 26.7303C40.1349 26.6974 40.3209 26.5793 40.3924 26.5243C40.5641 26.3596 40.65 26.1124 40.65 25.8652C40.65 25.5356 40.5641 25.412 40.4354 25.2472C40.3495 25.1785 40.1778 25 39.9632 25H39.3622C39.2049 25.0412 38.8643 25.1483 38.7613 25.412C38.6583 25.6757 38.6755 25.7553 38.6755 25.9064C38.6755 26.0574 38.7579 26.3563 38.933 26.5243C39.1081 26.6924 39.2907 26.7166 39.3622 26.7303Z" fill="#00A8E1"/>
<path d="M43.6547 28.2547C43.6118 28.0899 43.4916 27.7521 43.3542 27.7191C43.2169 27.6861 42.5244 27.7054 42.1953 27.7191C42.138 27.7191 42.0236 27.7521 42.0236 27.8839V33.4457C42.0379 33.4869 42.0922 33.5775 42.1953 33.6105C42.2983 33.6434 43.1539 33.6242 43.5688 33.6105C43.6261 33.5968 43.7577 33.5446 43.8264 33.4457L43.7835 29.161C44.0267 29.0237 44.6248 28.7655 45.0712 28.8315C45.6292 28.8727 45.8009 29.1336 45.8438 29.2846L45.8868 33.4457C45.9011 33.5006 45.9554 33.6105 46.0585 33.6105H47.475C47.5179 33.5968 47.6123 33.5446 47.6467 33.4457V29.161C47.847 29.01 48.3764 28.7243 48.8915 28.7903C49.4066 28.8562 49.6212 29.1748 49.6641 29.3258V33.3633C49.6641 33.432 49.6985 33.5775 49.8358 33.6105H51.3382C51.3811 33.583 51.467 33.4951 51.467 33.3633V29.0787C51.4383 28.5705 51.0549 27.5461 49.75 27.5131C48.4451 27.4801 47.661 27.9938 47.4321 28.2547C47.2747 28.0075 46.7453 27.5131 45.8868 27.5131C45.0283 27.5131 44.041 28.0075 43.6547 28.2547Z" fill="#00A8E1"/>
<path fill-rule="evenodd" clip-rule="evenodd" d="M54.1283 31.0974C54.071 31.8252 54.6605 33.0831 57.4764 32.2921C57.6481 32.2262 57.691 32.4569 57.691 32.5805V33.1985C57.5336 33.4045 56.9098 33.8165 55.6735 33.8165C53.2698 33.8165 52.583 32.2235 52.5401 31.427C52.3827 30.7678 52.3598 29.194 53.5273 28.1723C55.1756 26.9858 56.8182 27.6779 57.4335 28.1723C57.8198 28.5156 58.395 29.4494 57.6052 30.4382C56.8153 31.427 54.9581 31.2896 54.1283 31.0974ZM55.4589 28.7079C54.3944 28.7079 54.1283 29.6417 54.1283 30.1086C54.4574 30.1498 55.21 30.224 55.5877 30.191C55.9654 30.1581 56.203 29.9301 56.2745 29.8202C56.4462 29.4494 56.5235 28.7079 55.4589 28.7079Z" fill="#00A8E1"/>
<path fill-rule="evenodd" clip-rule="evenodd" d="M27 27.7191V36H28.3736C28.4165 36 28.5195 35.9753 28.5882 35.8764V33.2397C30.1335 34.3109 32.8807 33.7753 32.8807 30.5206C32.8807 27.5131 30.2193 26.8127 28.4165 28.2135C28.4022 28.0762 28.3221 27.785 28.116 27.7191H27ZM30.6915 29.1199C29.9704 28.4936 28.9888 28.8589 28.5882 29.1199V32.0861C29.6871 32.8112 30.4483 32.3883 30.6915 32.0861C31.0006 31.9543 31.0778 30.9875 31.0778 30.5206C31.1122 29.7955 30.8346 29.2846 30.6915 29.1199Z" fill="#00A8E1"/>
<g clip-path="url(#clip0)">
<rect width="179" height="326" transform="translate(326 21) rotate(90)" fill="url(#paint0_linear)"/>
<rect x="24.4313" y="89.4313" width="53.9091" height="13.8007" rx="6.90036" fill="#111111" fill-opacity="0.2"/>
<g clip-path="url(#clip1)">
<g clip-path="url(#clip2)">
<path d="M37.2124 95.6945C37.2124 95.2422 36.8917 94.8639 36.4667 94.7728C36.6365 94.4893 36.7407 94.1615 36.7407 93.8077C36.7407 92.7671 35.8945 91.9209 34.8539 91.9209C34.1383 91.9209 33.5232 92.3251 33.2029 92.9134C32.8827 92.3251 32.2676 91.9209 31.552 91.9209C30.5114 91.9209 29.6652 92.7671 29.6652 93.8077C29.6652 94.2332 29.8123 94.6224 30.0505 94.9379C29.9315 95.025 29.8346 95.1388 29.7676 95.2703C29.7007 95.4017 29.6656 95.547 29.6652 95.6945V99.4682C29.6652 99.9885 30.0883 100.412 30.6086 100.412H36.269C36.7893 100.412 37.2124 99.9885 37.2124 99.4682V98.2238L39.0993 99.1672V95.8653L37.2124 96.8087V95.6945ZM34.8539 92.8643C35.3742 92.8643 35.7973 93.2874 35.7973 93.8077C35.7973 94.328 35.3742 94.7511 34.8539 94.7511C34.3336 94.7511 33.9105 94.328 33.9105 93.8077C33.9105 93.2874 34.3336 92.8643 34.8539 92.8643ZM31.552 92.8643C32.0723 92.8643 32.4954 93.2874 32.4954 93.8077C32.4954 94.328 32.0723 94.7511 31.552 94.7511C31.0317 94.7511 30.6086 94.328 30.6086 93.8077C30.6086 93.2874 31.0317 92.8643 31.552 92.8643ZM30.6086 99.4682V95.6945H36.269L36.27 99.4682H30.6086Z" fill="white"/>
</g>
<path d="M49.4905 93.4978V94.2559H47.2162V100.725H46.2813V94.2559H44.007V93.4978H49.4905ZM50.5064 100.725V95.4184H51.1381L51.3049 96.0956C51.7699 95.6441 52.3292 95.4184 52.9828 95.4184V96.1967C52.3494 96.1967 51.8356 96.4207 51.4414 96.8689V100.725H50.5064ZM53.6702 99.1229C53.6702 98.0346 54.3878 97.4905 55.8232 97.4905C56.2848 97.4905 56.7464 97.5242 57.208 97.5916V97.0912C57.208 96.4814 56.7312 96.1765 55.7777 96.1765C55.2319 96.1765 54.6725 96.2607 54.0998 96.4292V95.6711C54.6725 95.5026 55.2319 95.4184 55.7777 95.4184C57.3545 95.4184 58.1429 95.9676 58.1429 97.066V100.725H57.6173L57.2939 100.199C56.7649 100.55 56.1887 100.725 55.5654 100.725C54.3019 100.725 53.6702 100.191 53.6702 99.1229ZM55.8232 98.2486C55.0112 98.2486 54.6052 98.535 54.6052 99.1078C54.6052 99.6805 54.9252 99.9669 55.5654 99.9669C56.2123 99.9669 56.7598 99.7951 57.208 99.4514V98.3497C56.7464 98.2823 56.2848 98.2486 55.8232 98.2486ZM60.7003 95.4184V100.725H59.7653V95.4184H60.7003ZM60.7003 93.4978V94.3823H59.7653V93.4978H60.7003ZM63.3081 93.4978V100.725H62.3731V93.4978H63.3081ZM67.0683 95.4184C68.5777 95.4184 69.3325 96.1647 69.3325 97.6573C69.3325 97.8695 69.3173 98.097 69.287 98.3396H65.5622C65.5622 99.4245 66.1956 99.9669 67.4625 99.9669C68.0656 99.9669 68.6013 99.8996 69.0696 99.7648V100.523C68.6013 100.658 68.0319 100.725 67.3614 100.725C65.5386 100.725 64.6272 99.8204 64.6272 98.011C64.6272 96.2826 65.4409 95.4184 67.0683 95.4184ZM65.5622 97.5612H68.4328C68.4126 96.6313 67.9578 96.1663 67.0683 96.1663C66.1249 96.1663 65.6228 96.6313 65.5622 97.5612ZM70.5909 100.725V95.4184H71.2226L71.3894 96.0956C71.8544 95.6441 72.4137 95.4184 73.0673 95.4184V96.1967C72.4339 96.1967 71.9201 96.4207 71.5259 96.8689V100.725H70.5909Z" fill="white"/>
</g>
<rect x="24.4313" y="89.4313" width="53.9091" height="13.8007" rx="6.90036" stroke="white" stroke-width="0.862546"/>
<path d="M31.8425 112.248V113.911H28.879V122.584H26.9635V113.911H24V112.248H31.8425ZM32.7532 122.584V112.248H34.6687V115.964C35.2662 115.318 36.03 114.995 36.96 114.995C38.7574 114.995 39.6561 115.93 39.6561 117.799V122.584H37.7406V117.799C37.7406 116.961 37.3238 116.542 36.4902 116.542C35.8685 116.542 35.2614 116.79 34.6687 117.286V122.584H32.7532ZM44.6724 114.995C46.9757 114.995 48.1274 116.171 48.1274 118.522C48.1274 118.835 48.1057 119.149 48.0623 119.462H43.0244C43.0244 120.532 43.8098 121.067 45.3807 121.067C46.1469 121.067 46.9131 120.994 47.6793 120.85V122.368C47.0095 122.512 46.1951 122.584 45.2362 122.584C42.4847 122.584 41.1089 121.291 41.1089 118.703C41.1089 116.231 42.2967 114.995 44.6724 114.995ZM43.0244 118.132H46.2626V118.074C46.2626 117.024 45.7325 116.498 44.6724 116.498C43.6604 116.498 43.1111 117.043 43.0244 118.132ZM52.9991 122.584V112.248H57.842C59.808 112.248 60.791 113.051 60.791 114.655C60.791 115.831 60.1501 116.672 58.8684 117.178C60.2369 117.433 60.9211 118.216 60.9211 119.527C60.9211 121.565 59.8442 122.584 57.6902 122.584H52.9991ZM57.6107 120.922C58.4588 120.922 58.8828 120.488 58.8828 119.621C58.8828 118.546 58.2492 118.009 56.9818 118.009H56.4036V116.773C57.9938 116.508 58.7888 115.843 58.7888 114.778C58.7888 114.2 58.4323 113.911 57.7191 113.911H54.9146V120.922H57.6107ZM63.928 118.761C63.928 120.346 64.5424 121.139 65.7712 121.139C67 121.139 67.6144 120.346 67.6144 118.761C67.6144 117.214 67 116.441 65.7712 116.441C64.5424 116.441 63.928 117.214 63.928 118.761ZM62.0126 118.79C62.0126 116.245 63.2655 114.973 65.7712 114.973C68.2769 114.973 69.5298 116.245 69.5298 118.79C69.5298 121.329 68.2769 122.599 65.7712 122.599C63.2751 122.599 62.0222 121.329 62.0126 118.79ZM70.0719 114.995H72.103L74.0185 120.459L75.8905 114.995H77.8855L74.734 122.809C74.1751 124.187 73.2812 125.167 72.0524 125.75L71.1272 124.442C71.9753 124.071 72.5921 123.466 72.9776 122.628L70.0719 114.995ZM78.7962 122.223V120.633C79.6395 120.97 80.6129 121.139 81.7164 121.139C82.5404 121.139 82.9524 120.874 82.9524 120.344C82.9524 119.838 82.6753 119.585 82.1212 119.585H80.7478C79.2058 119.585 78.4348 118.826 78.4348 117.308C78.4348 115.718 79.56 114.923 81.8103 114.923C82.7645 114.923 83.6632 115.067 84.5064 115.356V116.947C83.6632 116.609 82.7476 116.441 81.7598 116.441C80.7237 116.441 80.2057 116.706 80.2057 117.236C80.2057 117.742 80.5069 117.995 81.1092 117.995H82.338C84.0246 117.995 84.8678 118.754 84.8678 120.271C84.8678 121.862 83.7933 122.657 81.6441 122.657C80.5888 122.657 79.6395 122.512 78.7962 122.223Z" fill="white"/>
<path d="M28.6259 133.663L27.3104 136.328L24.37 136.753L26.4979 138.829L25.9949 141.758L28.6259 140.376L31.2569 141.758L30.7539 138.829L32.8818 136.756L29.9414 136.328L28.6259 133.663Z" fill="#F39B13"/>
<path d="M36.4568 141.789L39.3054 135.232H35.4904V134.392H40.2465V135.126L37.4384 141.789H36.4568ZM41.4861 141.228C41.4861 141.099 41.503 140.991 41.5367 140.904C41.5704 140.813 41.616 140.74 41.6733 140.686C41.7307 140.629 41.7981 140.588 41.8757 140.565C41.9533 140.538 42.0376 140.524 42.1287 140.524C42.2164 140.524 42.299 140.538 42.3766 140.565C42.4576 140.588 42.5267 140.629 42.5841 140.686C42.6414 140.74 42.6869 140.813 42.7207 140.904C42.7544 140.991 42.7713 141.099 42.7713 141.228C42.7713 141.352 42.7544 141.46 42.7207 141.551C42.6869 141.639 42.6414 141.712 42.5841 141.769C42.5267 141.826 42.4576 141.868 42.3766 141.895C42.299 141.922 42.2164 141.936 42.1287 141.936C42.0376 141.936 41.9533 141.922 41.8757 141.895C41.7981 141.868 41.7307 141.826 41.6733 141.769C41.616 141.712 41.5704 141.639 41.5367 141.551C41.503 141.46 41.4861 141.352 41.4861 141.228ZM46.2827 137.251C46.6166 137.251 46.9269 137.298 47.2137 137.392C47.5038 137.483 47.755 137.62 47.9676 137.802C48.1834 137.984 48.3521 138.21 48.4735 138.48C48.595 138.75 48.6557 139.062 48.6557 139.416C48.6557 139.801 48.5983 140.146 48.4836 140.453C48.369 140.76 48.1986 141.02 47.9726 141.233C47.7466 141.445 47.4666 141.609 47.1327 141.723C46.8021 141.835 46.421 141.89 45.9892 141.89C45.8172 141.89 45.6469 141.882 45.4782 141.865C45.3129 141.848 45.1527 141.823 44.9975 141.789C44.8457 141.759 44.7007 141.718 44.5624 141.668C44.4241 141.617 44.2993 141.558 44.188 141.491V140.62C44.2993 140.698 44.4292 140.767 44.5776 140.828C44.7294 140.889 44.8879 140.939 45.0532 140.98C45.2185 141.02 45.3837 141.052 45.549 141.076C45.7177 141.096 45.8729 141.106 46.0145 141.106C46.281 141.106 46.5188 141.076 46.7279 141.015C46.9371 140.951 47.1142 140.853 47.2592 140.722C47.4042 140.59 47.5156 140.425 47.5931 140.226C47.6707 140.027 47.7095 139.791 47.7095 139.517C47.7095 139.035 47.5611 138.667 47.2643 138.414C46.9674 138.158 46.5357 138.03 45.969 138.03C45.8779 138.03 45.7784 138.035 45.6705 138.045C45.5659 138.052 45.4596 138.062 45.3517 138.075C45.2471 138.089 45.1459 138.104 45.0481 138.121C44.9537 138.134 44.871 138.148 44.8002 138.161L44.3448 137.873L44.6231 134.392H48.1143V135.232H45.4225L45.2252 137.352C45.3332 137.332 45.4748 137.31 45.6502 137.286C45.829 137.262 46.0398 137.251 46.2827 137.251Z" fill="white"/>
<path d="M52.979 134.554V141.789H52.043V134.554H52.979ZM54.8562 141.789V134.554H56.0452L58.7015 140.59L61.3072 134.554H62.4457V141.789H61.6108V135.854L59.0405 141.789H58.3018L55.691 135.854V141.789H54.8562ZM66.797 141.03C68.5679 141.03 69.4533 140.012 69.4533 137.974C69.4533 136.2 68.5679 135.313 66.797 135.313H65.102V141.03H66.797ZM64.166 141.789V134.554H66.797C69.1919 134.554 70.3893 135.694 70.3893 137.974C70.3893 140.518 69.1919 141.789 66.797 141.789H64.166ZM72.5903 140.863C72.8973 140.961 73.27 141.01 73.7085 141.01C74.8891 141.01 75.4794 140.337 75.4794 138.991C75.4794 137.854 74.9447 137.286 73.8755 137.286C73.3897 137.286 72.9613 137.377 72.5903 137.559V140.863ZM71.6543 134.554H72.5903V136.73C72.9917 136.561 73.4218 136.477 73.8805 136.477C75.5603 136.477 76.4002 137.327 76.4002 139.027C76.4002 140.868 75.5182 141.789 73.754 141.789C72.9917 141.789 72.2918 141.717 71.6543 141.572V134.554Z" fill="white"/>
<path d="M29.3784 158.553H24.4149V157.465L26.1554 155.588C26.3747 155.352 26.5737 155.134 26.7525 154.935C26.9312 154.736 27.0847 154.542 27.2129 154.354C27.3411 154.165 27.4406 153.972 27.5114 153.777C27.5822 153.581 27.6177 153.37 27.6177 153.144C27.6177 152.895 27.5418 152.701 27.39 152.562C27.2416 152.424 27.0409 152.355 26.7879 152.355C26.5214 152.355 26.265 152.421 26.0188 152.552C25.7726 152.684 25.5145 152.871 25.2447 153.114L24.3947 152.107C24.5464 151.969 24.705 151.837 24.8703 151.712C25.0355 151.584 25.2177 151.471 25.4167 151.373C25.6157 151.276 25.835 151.198 26.0745 151.141C26.314 151.08 26.5821 151.05 26.879 151.05C27.2331 151.05 27.5502 151.098 27.8302 151.196C28.1135 151.294 28.3547 151.434 28.5537 151.616C28.7527 151.795 28.9045 152.013 29.0091 152.269C29.117 152.525 29.171 152.814 29.171 153.134C29.171 153.424 29.1204 153.703 29.0192 153.969C28.918 154.232 28.7797 154.492 28.6043 154.748C28.4289 155.001 28.2248 155.254 27.9921 155.507C27.7627 155.757 27.5165 156.011 27.2534 156.271L26.3629 157.167V157.238H29.3784V158.553ZM37.3828 156.499C37.3828 156.829 37.3255 157.128 37.2108 157.394C37.0995 157.657 36.9342 157.883 36.715 158.072C36.4991 158.258 36.2326 158.401 35.9155 158.502C35.6018 158.604 35.2409 158.654 34.8328 158.654C34.4752 158.654 34.1295 158.617 33.7955 158.543C33.465 158.469 33.158 158.357 32.8747 158.209V156.752C33.0366 156.829 33.2002 156.905 33.3655 156.979C33.5307 157.05 33.6977 157.114 33.8664 157.172C34.0384 157.229 34.2087 157.275 34.3774 157.308C34.5494 157.342 34.7198 157.359 34.8884 157.359C35.0604 157.359 35.2072 157.34 35.3286 157.303C35.4534 157.263 35.5529 157.209 35.6271 157.141C35.7047 157.071 35.7604 156.988 35.7941 156.893C35.8312 156.796 35.8497 156.689 35.8497 156.575C35.8497 156.436 35.8194 156.315 35.7587 156.21C35.7013 156.102 35.6187 156.003 35.5108 155.912C35.4062 155.817 35.278 155.726 35.1262 155.639C34.9778 155.551 34.8108 155.458 34.6253 155.36C34.4701 155.279 34.2964 155.182 34.1042 155.067C33.9119 154.952 33.7297 154.811 33.5577 154.642C33.3891 154.47 33.2474 154.264 33.1327 154.025C33.018 153.782 32.9607 153.492 32.9607 153.154C32.9607 152.824 33.0146 152.529 33.1226 152.269C33.2339 152.006 33.3907 151.785 33.5931 151.606C33.7955 151.424 34.0401 151.286 34.3268 151.191C34.6169 151.097 34.9407 151.05 35.2982 151.05C35.477 151.05 35.6507 151.061 35.8194 151.085C35.9914 151.109 36.1601 151.142 36.3254 151.186C36.494 151.23 36.6627 151.284 36.8313 151.348C37 151.412 37.1737 151.486 37.3525 151.571L36.8465 152.79C36.6947 152.719 36.553 152.657 36.4215 152.603C36.2899 152.549 36.1618 152.503 36.037 152.466C35.9122 152.429 35.789 152.402 35.6676 152.385C35.5495 152.365 35.4298 152.355 35.3084 152.355C35.0453 152.355 34.8429 152.426 34.7012 152.567C34.5629 152.706 34.4938 152.891 34.4938 153.124C34.4938 153.249 34.514 153.36 34.5545 153.458C34.5983 153.552 34.6658 153.642 34.7569 153.726C34.8513 153.81 34.9711 153.896 35.1161 153.984C35.2645 154.072 35.4433 154.171 35.6524 154.283C35.9054 154.418 36.1382 154.556 36.3507 154.698C36.5632 154.836 36.7453 154.991 36.8971 155.163C37.0523 155.332 37.172 155.524 37.2563 155.74C37.3407 155.956 37.3828 156.209 37.3828 156.499ZM40.9297 153.888C40.6564 153.888 40.4288 153.984 40.2466 154.176C40.0678 154.369 39.9649 154.671 39.938 155.082H41.9062C41.9028 154.91 41.8809 154.752 41.8404 154.606C41.7999 154.461 41.7392 154.337 41.6583 154.232C41.5773 154.124 41.4761 154.04 41.3547 153.979C41.2332 153.918 41.0916 153.888 40.9297 153.888ZM41.127 158.654C40.7222 158.654 40.3495 158.595 40.0088 158.477C39.6681 158.359 39.3747 158.182 39.1284 157.946C38.8822 157.706 38.6899 157.406 38.5516 157.045C38.4167 156.681 38.3492 156.254 38.3492 155.765C38.3492 155.269 38.4116 154.836 38.5364 154.465C38.6612 154.094 38.835 153.785 39.0576 153.539C39.2836 153.289 39.5534 153.102 39.8671 152.977C40.1842 152.852 40.535 152.79 40.9195 152.79C41.294 152.79 41.6313 152.847 41.9315 152.962C42.2351 153.073 42.4914 153.239 42.7005 153.458C42.913 153.677 43.075 153.947 43.1863 154.267C43.301 154.585 43.3583 154.949 43.3583 155.36V156.109H39.9076C39.9144 156.325 39.9481 156.521 40.0088 156.696C40.0729 156.868 40.1606 157.015 40.2719 157.136C40.3866 157.254 40.5232 157.345 40.6817 157.41C40.8436 157.474 41.0275 157.506 41.2332 157.506C41.4053 157.506 41.5672 157.497 41.719 157.48C41.8741 157.46 42.0242 157.431 42.1693 157.394C42.3143 157.357 42.4577 157.312 42.5993 157.258C42.741 157.2 42.8861 157.135 43.0345 157.06V158.255C42.8996 158.325 42.7629 158.386 42.6246 158.437C42.4897 158.484 42.3464 158.524 42.1946 158.558C42.0428 158.592 41.8792 158.615 41.7038 158.629C41.5284 158.646 41.3361 158.654 41.127 158.654ZM47.9474 158.553L47.6489 157.784H47.6034C47.4921 157.936 47.3807 158.067 47.2694 158.179C47.1581 158.287 47.0367 158.376 46.9051 158.447C46.7736 158.518 46.6252 158.57 46.4599 158.604C46.298 158.637 46.1091 158.654 45.8932 158.654C45.6638 158.654 45.4513 158.619 45.2557 158.548C45.06 158.474 44.8897 158.364 44.7446 158.219C44.603 158.071 44.4917 157.885 44.4107 157.663C44.3298 157.437 44.2893 157.17 44.2893 156.863C44.2893 156.263 44.4815 155.821 44.8661 155.537C45.2506 155.251 45.8257 155.092 46.5914 155.062L47.4921 155.032V154.606C47.4921 154.374 47.4246 154.202 47.2897 154.09C47.1547 153.979 46.9658 153.923 46.723 153.923C46.4801 153.923 46.2423 153.959 46.0096 154.03C45.7802 154.101 45.5491 154.195 45.3164 154.313L44.8155 153.291C45.0988 153.132 45.4125 153.008 45.7566 152.917C46.1006 152.825 46.4616 152.78 46.8394 152.78C47.5443 152.78 48.084 152.945 48.4584 153.276C48.8362 153.606 49.0251 154.109 49.0251 154.784V158.553H47.9474ZM47.4921 155.932L46.981 155.952C46.7753 155.959 46.6015 155.986 46.4599 156.033C46.3182 156.081 46.2035 156.145 46.1158 156.226C46.0315 156.303 45.9691 156.398 45.9286 156.509C45.8915 156.617 45.873 156.738 45.873 156.873C45.873 157.109 45.9303 157.278 46.045 157.379C46.1597 157.477 46.3098 157.526 46.4953 157.526C46.637 157.526 46.7685 157.502 46.8899 157.455C47.0114 157.404 47.1159 157.332 47.2036 157.238C47.2947 157.14 47.3656 157.022 47.4162 156.883C47.4668 156.742 47.4921 156.58 47.4921 156.398V155.932ZM54.3833 156.873C54.3833 157.17 54.3294 157.43 54.2214 157.652C54.1135 157.875 53.96 158.061 53.761 158.209C53.562 158.357 53.3208 158.469 53.0375 158.543C52.7541 158.617 52.437 158.654 52.0862 158.654C51.9007 158.654 51.7287 158.647 51.5701 158.634C51.4116 158.624 51.2615 158.605 51.1198 158.578C50.9782 158.551 50.8416 158.518 50.71 158.477C50.5785 158.437 50.4452 158.386 50.3103 158.325V157.05C50.452 157.121 50.6004 157.185 50.7555 157.243C50.9141 157.3 51.0709 157.351 51.2261 157.394C51.3813 157.435 51.5314 157.467 51.6764 157.491C51.8248 157.514 51.9614 157.526 52.0862 157.526C52.2245 157.526 52.3426 157.514 52.4404 157.491C52.5382 157.464 52.6175 157.428 52.6782 157.384C52.7423 157.337 52.7878 157.283 52.8148 157.222C52.8452 157.158 52.8604 157.091 52.8604 157.02C52.8604 156.949 52.8486 156.887 52.8249 156.833C52.8047 156.775 52.7558 156.716 52.6782 156.656C52.6006 156.592 52.4859 156.521 52.3342 156.443C52.1857 156.362 51.985 156.264 51.7321 156.15C51.4858 156.038 51.2716 155.929 51.0895 155.821C50.9107 155.71 50.7623 155.586 50.6442 155.451C50.5295 155.317 50.4435 155.163 50.3862 154.991C50.3288 154.816 50.3002 154.608 50.3002 154.369C50.3002 154.106 50.3508 153.876 50.452 153.681C50.5532 153.482 50.6965 153.316 50.882 153.185C51.0676 153.053 51.2902 152.955 51.5499 152.891C51.813 152.824 52.1048 152.79 52.4252 152.79C52.7625 152.79 53.083 152.829 53.3866 152.906C53.6901 152.984 54.0022 153.1 54.3226 153.256L53.8571 154.348C53.6008 154.227 53.3562 154.128 53.1235 154.05C52.8907 153.972 52.658 153.934 52.4252 153.934C52.2161 153.934 52.0643 153.971 51.9699 154.045C51.8788 154.119 51.8332 154.22 51.8332 154.348C51.8332 154.416 51.8451 154.477 51.8687 154.531C51.8923 154.581 51.9395 154.635 52.0103 154.693C52.0812 154.746 52.1807 154.807 52.3089 154.875C52.437 154.939 52.604 155.018 52.8098 155.112C53.0493 155.217 53.2651 155.322 53.4574 155.426C53.6497 155.527 53.815 155.644 53.9533 155.775C54.0915 155.907 54.1978 156.06 54.272 156.236C54.3462 156.411 54.3833 156.624 54.3833 156.873ZM56.8879 155.715C56.8879 156.278 56.9671 156.703 57.1257 156.99C57.2842 157.273 57.5422 157.415 57.8998 157.415C58.254 157.415 58.5103 157.271 58.6689 156.985C58.8274 156.698 58.9067 156.275 58.9067 155.715C58.9067 155.151 58.8274 154.731 58.6689 154.455C58.5103 154.175 58.2506 154.035 57.8897 154.035C57.5355 154.035 57.2791 154.175 57.1206 154.455C56.9654 154.731 56.8879 155.151 56.8879 155.715ZM60.4802 155.715C60.4802 156.187 60.4195 156.605 60.2981 156.969C60.18 157.334 60.008 157.641 59.782 157.89C59.5594 158.14 59.2861 158.33 58.9623 158.462C58.6419 158.59 58.281 158.654 57.8796 158.654C57.5051 158.654 57.1611 158.59 56.8474 158.462C56.5337 158.33 56.2621 158.14 56.0328 157.89C55.8068 157.641 55.6297 157.334 55.5015 156.969C55.3733 156.605 55.3092 156.187 55.3092 155.715C55.3092 155.246 55.3683 154.829 55.4863 154.465C55.6078 154.101 55.7798 153.795 56.0024 153.549C56.2284 153.299 56.5016 153.111 56.8221 152.982C57.1425 152.854 57.5051 152.79 57.9099 152.79C58.2843 152.79 58.6284 152.854 58.9421 152.982C59.2558 153.111 59.5256 153.299 59.7516 153.549C59.981 153.795 60.1598 154.101 60.288 154.465C60.4161 154.829 60.4802 155.246 60.4802 155.715ZM66.7239 158.553H65.1807V155.249C65.1807 154.841 65.1183 154.536 64.9935 154.333C64.872 154.128 64.6764 154.025 64.4065 154.025C64.2041 154.025 64.0355 154.065 63.9006 154.146C63.7656 154.227 63.6577 154.347 63.5767 154.505C63.4992 154.664 63.4435 154.859 63.4098 155.092C63.376 155.325 63.3592 155.591 63.3592 155.892V158.553H61.816V152.896H62.9949L63.2023 153.62H63.2883C63.3693 153.475 63.4671 153.35 63.5818 153.245C63.6999 153.141 63.828 153.055 63.9663 152.987C64.1046 152.92 64.2514 152.871 64.4065 152.841C64.5617 152.807 64.7202 152.79 64.8821 152.79C65.1587 152.79 65.41 152.831 65.636 152.912C65.862 152.989 66.056 153.112 66.2179 153.281C66.3798 153.45 66.5046 153.665 66.5923 153.929C66.68 154.188 66.7239 154.5 66.7239 154.865V158.553ZM72.082 156.873C72.082 157.17 72.0281 157.43 71.9201 157.652C71.8122 157.875 71.6587 158.061 71.4597 158.209C71.2607 158.357 71.0195 158.469 70.7362 158.543C70.4528 158.617 70.1358 158.654 69.785 158.654C69.5994 158.654 69.4274 158.647 69.2689 158.634C69.1103 158.624 68.9602 158.605 68.8186 158.578C68.6769 158.551 68.5403 158.518 68.4087 158.477C68.2772 158.437 68.1439 158.386 68.009 158.325V157.05C68.1507 157.121 68.2991 157.185 68.4543 157.243C68.6128 157.3 68.7697 157.351 68.9248 157.394C69.08 157.435 69.2301 157.467 69.3751 157.491C69.5235 157.514 69.6602 157.526 69.785 157.526C69.9233 157.526 70.0413 157.514 70.1391 157.491C70.237 157.464 70.3162 157.428 70.3769 157.384C70.441 157.337 70.4866 157.283 70.5136 157.222C70.5439 157.158 70.5591 157.091 70.5591 157.02C70.5591 156.949 70.5473 156.887 70.5237 156.833C70.5034 156.775 70.4545 156.716 70.3769 156.656C70.2994 156.592 70.1847 156.521 70.0329 156.443C69.8845 156.362 69.6838 156.264 69.4308 156.15C69.1845 156.038 68.9704 155.929 68.7882 155.821C68.6094 155.71 68.461 155.586 68.343 155.451C68.2283 155.317 68.1423 155.163 68.0849 154.991C68.0276 154.816 67.9989 154.608 67.9989 154.369C67.9989 154.106 68.0495 153.876 68.1507 153.681C68.2519 153.482 68.3952 153.316 68.5808 153.185C68.7663 153.053 68.9889 152.955 69.2486 152.891C69.5117 152.824 69.8035 152.79 70.124 152.79C70.4613 152.79 70.7817 152.829 71.0853 152.906C71.3889 152.984 71.7009 153.1 72.0213 153.256L71.5558 154.348C71.2995 154.227 71.0549 154.128 70.8222 154.05C70.5894 153.972 70.3567 153.934 70.124 153.934C69.9148 153.934 69.763 153.971 69.6686 154.045C69.5775 154.119 69.532 154.22 69.532 154.348C69.532 154.416 69.5438 154.477 69.5674 154.531C69.591 154.581 69.6382 154.635 69.7091 154.693C69.7799 154.746 69.8794 154.807 70.0076 154.875C70.1358 154.939 70.3027 155.018 70.5085 155.112C70.748 155.217 70.9639 155.322 71.1561 155.426C71.3484 155.527 71.5137 155.644 71.652 155.775C71.7903 155.907 71.8965 156.06 71.9707 156.236C72.0449 156.411 72.082 156.624 72.082 156.873Z" fill="white"/>
<path d="M88.5376 153.215C88.2798 153.215 88.0461 153.265 87.8365 153.363C87.6269 153.46 87.4474 153.6 87.298 153.783C87.1511 153.966 87.0366 154.189 86.9547 154.451C86.8752 154.714 86.8354 155.01 86.8354 155.34C86.8354 155.68 86.8704 155.982 86.9402 156.247C87.0125 156.51 87.1197 156.732 87.2619 156.912C87.404 157.093 87.5811 157.23 87.7931 157.324C88.0052 157.418 88.2533 157.465 88.5376 157.465C88.7521 157.465 88.9557 157.445 89.1484 157.404C89.3412 157.361 89.5315 157.311 89.7194 157.256V157.841C89.6255 157.877 89.5315 157.91 89.4375 157.939C89.3436 157.965 89.2448 157.987 89.1412 158.004C89.04 158.021 88.9304 158.033 88.8123 158.04C88.6967 158.05 88.5678 158.054 88.4256 158.054C88.0305 158.054 87.6883 157.989 87.3992 157.859C87.1101 157.729 86.8704 157.545 86.68 157.306C86.4921 157.068 86.3523 156.781 86.2608 156.446C86.1692 156.111 86.1235 155.74 86.1235 155.333C86.1235 154.933 86.1753 154.567 86.2789 154.234C86.3849 153.902 86.5391 153.616 86.7415 153.378C86.9463 153.139 87.1992 152.954 87.5004 152.821C87.8016 152.689 88.1473 152.623 88.5376 152.623C88.7979 152.623 89.046 152.649 89.2821 152.702C89.5183 152.755 89.7315 152.832 89.9218 152.933L89.6399 153.497C89.4881 153.42 89.3231 153.354 89.1448 153.298C88.9665 153.243 88.7641 153.215 88.5376 153.215ZM92.8528 153.215C92.595 153.215 92.3613 153.265 92.1517 153.363C91.9421 153.46 91.7626 153.6 91.6132 153.783C91.4662 153.966 91.3518 154.189 91.2699 154.451C91.1904 154.714 91.1506 155.01 91.1506 155.34C91.1506 155.68 91.1855 155.982 91.2554 156.247C91.3277 156.51 91.4349 156.732 91.5771 156.912C91.7192 157.093 91.8963 157.23 92.1083 157.324C92.3203 157.418 92.5685 157.465 92.8528 157.465C93.0673 157.465 93.2708 157.445 93.4636 157.404C93.6563 157.361 93.8467 157.311 94.0346 157.256V157.841C93.9406 157.877 93.8467 157.91 93.7527 157.939C93.6588 157.965 93.56 157.987 93.4564 158.004C93.3552 158.021 93.2455 158.033 93.1275 158.04C93.0118 158.05 92.8829 158.054 92.7408 158.054C92.3456 158.054 92.0035 157.989 91.7144 157.859C91.4253 157.729 91.1855 157.545 90.9952 157.306C90.8073 157.068 90.6675 156.781 90.576 156.446C90.4844 156.111 90.4386 155.74 90.4386 155.333C90.4386 154.933 90.4904 154.567 90.594 154.234C90.7 153.902 90.8542 153.616 91.0566 153.378C91.2614 153.139 91.5144 152.954 91.8156 152.821C92.1168 152.689 92.4625 152.623 92.8528 152.623C93.113 152.623 93.3612 152.649 93.5973 152.702C93.8334 152.755 94.0467 152.832 94.237 152.933L93.9551 153.497C93.8033 153.42 93.6383 153.354 93.46 153.298C93.2817 153.243 93.0793 153.215 92.8528 153.215Z" fill="white"/>
<rect x="82.2912" y="150.242" width="15.5433" height="9.62205" rx="1.85039" stroke="white" stroke-width="0.740158"/>
<path d="M110.573 157.982H109.937V154.683C109.937 154.579 109.937 154.468 109.937 154.35C109.939 154.232 109.941 154.115 109.944 153.999C109.949 153.881 109.952 153.769 109.955 153.663C109.959 153.555 109.963 153.46 109.965 153.378C109.924 153.421 109.888 153.459 109.857 153.49C109.826 153.521 109.793 153.551 109.759 153.58C109.728 153.609 109.694 153.64 109.658 153.674C109.622 153.706 109.579 153.743 109.528 153.786L108.993 154.224L108.646 153.779L110.031 152.698H110.573V157.982ZM112.488 155.723C112.488 155.47 112.5 155.219 112.524 154.968C112.551 154.717 112.595 154.478 112.658 154.249C112.723 154.018 112.811 153.803 112.922 153.606C113.033 153.408 113.174 153.237 113.345 153.092C113.516 152.945 113.72 152.831 113.959 152.749C114.198 152.665 114.477 152.623 114.797 152.623C114.843 152.623 114.894 152.624 114.949 152.626C115.005 152.629 115.06 152.633 115.115 152.641C115.173 152.645 115.228 152.653 115.278 152.662C115.331 152.67 115.378 152.679 115.419 152.691V153.251C115.335 153.222 115.24 153.201 115.134 153.186C115.028 153.172 114.923 153.165 114.819 153.165C114.602 153.165 114.411 153.191 114.244 153.244C114.081 153.295 113.939 153.367 113.818 153.461C113.698 153.555 113.596 153.667 113.514 153.797C113.435 153.927 113.37 154.072 113.319 154.231C113.269 154.387 113.231 154.555 113.207 154.733C113.183 154.911 113.168 155.097 113.16 155.29H113.204C113.252 155.203 113.31 155.122 113.377 155.048C113.447 154.97 113.528 154.905 113.619 154.852C113.711 154.797 113.813 154.754 113.926 154.722C114.042 154.691 114.171 154.675 114.313 154.675C114.542 154.675 114.749 154.711 114.935 154.784C115.12 154.854 115.278 154.957 115.408 155.095C115.538 155.232 115.638 155.401 115.708 155.601C115.78 155.798 115.817 156.025 115.817 156.28C115.817 156.555 115.779 156.802 115.705 157.021C115.63 157.24 115.523 157.427 115.383 157.581C115.243 157.733 115.075 157.85 114.877 157.932C114.679 158.013 114.458 158.054 114.212 158.054C113.971 158.054 113.745 158.007 113.533 157.914C113.323 157.82 113.141 157.676 112.987 157.483C112.833 157.291 112.711 157.049 112.622 156.757C112.533 156.465 112.488 156.121 112.488 155.723ZM114.205 157.502C114.349 157.502 114.481 157.477 114.599 157.429C114.719 157.379 114.823 157.304 114.909 157.205C114.996 157.104 115.062 156.977 115.108 156.826C115.156 156.671 115.181 156.49 115.181 156.28C115.181 156.111 115.16 155.961 115.119 155.828C115.081 155.693 115.022 155.579 114.942 155.485C114.862 155.391 114.763 155.319 114.642 155.268C114.524 155.217 114.385 155.192 114.226 155.192C114.065 155.192 113.917 155.221 113.782 155.279C113.649 155.334 113.536 155.408 113.442 155.499C113.348 155.588 113.275 155.691 113.222 155.807C113.171 155.922 113.146 156.038 113.146 156.153C113.146 156.315 113.168 156.476 113.211 156.638C113.257 156.797 113.323 156.94 113.41 157.068C113.499 157.196 113.61 157.3 113.742 157.382C113.875 157.462 114.029 157.502 114.205 157.502ZM117.924 155.644H116.525V155.102H117.924V153.696H118.466V155.102H119.864V155.644H118.466V157.035H117.924V155.644Z" fill="white"/>
<rect x="104.496" y="150.242" width="19.2441" height="9.62205" rx="1.85039" stroke="white" stroke-width="0.740158"/>
<circle cx="25.1102" cy="172.396" r="1.11024" fill="#E1E1E1" fill-opacity="0.5"/>
<path d="M34.084 173.917C34.084 174.244 34.0249 174.538 33.9069 174.798C33.7922 175.054 33.6269 175.272 33.411 175.45C33.1952 175.629 32.9321 175.766 32.6217 175.86C32.3114 175.951 31.9623 175.997 31.5744 175.997C31.2 175.997 30.8492 175.966 30.522 175.906C30.1981 175.848 29.9266 175.762 29.7074 175.648V174.747C29.822 174.801 29.9519 174.855 30.097 174.909C30.2454 174.96 30.4005 175.005 30.5624 175.046C30.7244 175.086 30.8913 175.12 31.0633 175.147C31.2354 175.17 31.4057 175.182 31.5744 175.182C32.1141 175.182 32.5121 175.081 32.7685 174.879C33.0282 174.676 33.1581 174.386 33.1581 174.008C33.1581 173.826 33.1328 173.668 33.0822 173.533C33.0349 173.398 32.9489 173.275 32.8241 173.163C32.7027 173.049 32.5391 172.939 32.3333 172.834C32.1276 172.727 31.8678 172.61 31.5541 172.485C31.2539 172.367 30.9925 172.239 30.7699 172.101C30.5506 171.959 30.3685 171.801 30.2234 171.625C30.0818 171.45 29.9755 171.251 29.9047 171.028C29.8372 170.806 29.8035 170.553 29.8035 170.269C29.8035 169.972 29.8575 169.708 29.9654 169.475C30.0733 169.242 30.2251 169.046 30.4208 168.888C30.6164 168.726 30.8492 168.603 31.119 168.519C31.3922 168.434 31.6924 168.392 32.0196 168.392C32.421 168.392 32.782 168.431 33.1024 168.508C33.4228 168.583 33.7079 168.679 33.9575 168.797L33.6185 169.586C33.3992 169.488 33.1496 169.404 32.8697 169.333C32.5931 169.259 32.3063 169.222 32.0095 169.222C31.598 169.222 31.2792 169.318 31.0532 169.51C30.8272 169.699 30.7142 169.956 30.7142 170.279C30.7142 170.472 30.7395 170.639 30.7901 170.78C30.8407 170.919 30.9251 171.045 31.0431 171.16C31.1612 171.271 31.3163 171.377 31.5086 171.478C31.7042 171.576 31.9437 171.681 32.2271 171.792C32.534 171.914 32.8022 172.038 33.0316 172.167C33.2643 172.295 33.4583 172.44 33.6134 172.602C33.7686 172.764 33.885 172.951 33.9625 173.163C34.0435 173.376 34.084 173.627 34.084 173.917ZM37.5701 175.997C37.2294 175.997 36.9106 175.944 36.6138 175.84C36.317 175.732 36.0589 175.563 35.8397 175.334C35.6204 175.101 35.4484 174.806 35.3236 174.449C35.1988 174.088 35.1364 173.654 35.1364 173.148C35.1364 172.619 35.2005 172.17 35.3287 171.802C35.4568 171.431 35.6322 171.131 35.8549 170.902C36.0809 170.669 36.344 170.5 36.6442 170.396C36.9444 170.291 37.2665 170.239 37.6106 170.239C37.8737 170.239 38.13 170.268 38.3796 170.325C38.6326 170.382 38.8434 170.453 39.0121 170.537L38.7389 171.317C38.6613 171.283 38.5753 171.251 38.4808 171.22C38.3864 171.187 38.2886 171.158 38.1874 171.134C38.0862 171.107 37.9867 171.087 37.8888 171.074C37.791 171.057 37.6983 171.048 37.6106 171.048C37.081 171.048 36.6948 171.219 36.4519 171.559C36.209 171.897 36.0876 172.423 36.0876 173.138C36.0876 173.85 36.209 174.371 36.4519 174.701C36.6981 175.029 37.0709 175.192 37.5701 175.192C37.8433 175.192 38.0895 175.162 38.3088 175.101C38.5314 175.037 38.7338 174.963 38.916 174.879V175.698C38.7338 175.796 38.5382 175.87 38.329 175.921C38.1233 175.971 37.8703 175.997 37.5701 175.997ZM41.1625 175.896H40.2416V170.34H41.1625V175.896ZM40.1708 168.837C40.1708 168.635 40.2214 168.488 40.3225 168.397C40.4271 168.306 40.5553 168.261 40.7071 168.261C40.7813 168.261 40.8504 168.272 40.9145 168.296C40.982 168.316 41.0393 168.35 41.0866 168.397C41.1372 168.444 41.1759 168.505 41.2029 168.579C41.2333 168.65 41.2485 168.736 41.2485 168.837C41.2485 169.033 41.1945 169.18 41.0866 169.278C40.982 169.372 40.8555 169.419 40.7071 169.419C40.5553 169.419 40.4271 169.372 40.3225 169.278C40.2214 169.183 40.1708 169.036 40.1708 168.837ZM42.4577 173.543V172.693H44.9673V173.543H42.4577ZM47.3302 175.896H46.3891V168.498H50.2294V169.328H47.3302V171.939H50.0371V172.769H47.3302V175.896ZM52.2735 175.896H51.3526V170.34H52.2735V175.896ZM51.2818 168.837C51.2818 168.635 51.3324 168.488 51.4336 168.397C51.5382 168.306 51.6663 168.261 51.8181 168.261C51.8923 168.261 51.9615 168.272 52.0256 168.296C52.093 168.316 52.1504 168.35 52.1976 168.397C52.2482 168.444 52.287 168.505 52.314 168.579C52.3443 168.65 52.3595 168.736 52.3595 168.837C52.3595 169.033 52.3055 169.18 52.1976 169.278C52.093 169.372 51.9665 169.419 51.8181 169.419C51.6663 169.419 51.5382 169.372 51.4336 169.278C51.3324 169.183 51.2818 169.036 51.2818 168.837Z" fill="white"/>
<g clip-path="url(#clip3)">
<circle cx="68.693" cy="172.396" r="1.11024" fill="#E1E1E1" fill-opacity="0.5"/>
<path d="M79.2201 172.705C79.2201 173.329 79.1391 173.877 78.9772 174.349C78.8153 174.818 78.5809 175.211 78.2739 175.528C77.9669 175.842 77.5892 176.078 77.1405 176.236C76.6953 176.395 76.1893 176.474 75.6226 176.474H73.7708V169.077H75.8301C76.3462 169.077 76.8133 169.155 77.2316 169.31C77.6499 169.465 78.0057 169.696 78.2992 170.003C78.5927 170.307 78.8187 170.684 78.9772 171.136C79.1391 171.588 79.2201 172.111 79.2201 172.705ZM78.2233 172.735C78.2233 172.243 78.1676 171.818 78.0563 171.46C77.945 171.099 77.7831 170.802 77.5706 170.57C77.3581 170.337 77.0967 170.165 76.7864 170.054C76.476 169.939 76.1235 169.882 75.7289 169.882H74.7119V175.665H75.5316C76.4221 175.665 77.0933 175.419 77.5453 174.926C77.9973 174.434 78.2233 173.703 78.2233 172.735ZM83.1413 170.818C83.2391 170.818 83.3487 170.823 83.4702 170.833C83.5916 170.84 83.6962 170.851 83.7839 170.868L83.6624 171.718C83.568 171.701 83.4702 171.688 83.369 171.678C83.2712 171.664 83.1784 171.657 83.0907 171.657C82.8782 171.657 82.6842 171.701 82.5088 171.789C82.3334 171.873 82.1816 171.996 82.0535 172.158C81.9287 172.317 81.8308 172.509 81.76 172.735C81.6925 172.958 81.6588 173.206 81.6588 173.479V176.474H80.738V170.919H81.4868L81.5981 171.936H81.6386C81.7229 171.791 81.8123 171.651 81.9067 171.516C82.0046 171.381 82.1125 171.263 82.2306 171.162C82.352 171.057 82.4869 170.974 82.6353 170.914C82.7838 170.85 82.9524 170.818 83.1413 170.818ZM87.9075 176.474L87.7203 175.705H87.6798C87.5685 175.857 87.4572 175.989 87.3459 176.1C87.2346 176.208 87.1131 176.297 86.9816 176.368C86.85 176.439 86.7033 176.491 86.5414 176.525C86.3795 176.559 86.1923 176.575 85.9798 176.575C85.747 176.575 85.5328 176.542 85.3372 176.474C85.1416 176.41 84.9712 176.311 84.8262 176.176C84.6845 176.037 84.5732 175.865 84.4922 175.66C84.4113 175.451 84.3708 175.204 84.3708 174.921C84.3708 174.368 84.5648 173.943 84.9527 173.646C85.3439 173.349 85.9376 173.187 86.7337 173.16L87.6646 173.125V172.776C87.6646 172.55 87.6393 172.361 87.5888 172.209C87.5415 172.057 87.4707 171.936 87.3762 171.845C87.2852 171.75 87.1705 171.683 87.0322 171.642C86.8973 171.602 86.7421 171.582 86.5667 171.582C86.2867 171.582 86.0253 171.622 85.7824 171.703C85.543 171.784 85.3119 171.882 85.0893 171.996L84.7655 171.303C85.0151 171.168 85.2933 171.054 85.6003 170.959C85.9073 170.865 86.2294 170.818 86.5667 170.818C86.9108 170.818 87.2076 170.853 87.4572 170.924C87.7102 170.991 87.9176 171.101 88.0795 171.253C88.2448 171.401 88.3679 171.592 88.4489 171.824C88.5298 172.057 88.5703 172.339 88.5703 172.669V176.474H87.9075ZM86.2176 175.832C86.4233 175.832 86.6139 175.8 86.7893 175.736C86.9647 175.672 87.1165 175.575 87.2447 175.447C87.3729 175.316 87.4724 175.152 87.5432 174.956C87.6174 174.757 87.6545 174.525 87.6545 174.258V173.757L86.931 173.793C86.6274 173.806 86.3727 173.84 86.167 173.894C85.9612 173.948 85.7959 174.024 85.6711 174.122C85.5497 174.216 85.462 174.332 85.408 174.471C85.3541 174.606 85.3271 174.759 85.3271 174.931C85.3271 175.241 85.408 175.469 85.5699 175.614C85.7352 175.759 85.9511 175.832 86.2176 175.832ZM96.934 176.474V172.897C96.934 172.459 96.8496 172.13 96.681 171.91C96.5123 171.691 96.2509 171.582 95.8967 171.582C95.6505 171.582 95.4414 171.622 95.2693 171.703C95.0973 171.781 94.9556 171.897 94.8443 172.052C94.7364 172.204 94.6571 172.395 94.6065 172.624C94.5559 172.85 94.5306 173.111 94.5306 173.408V176.474H93.6047V172.897C93.6047 172.459 93.5204 172.13 93.3517 171.91C93.1864 171.691 92.9267 171.582 92.5725 171.582C92.3128 171.582 92.0952 171.625 91.9198 171.713C91.7444 171.801 91.6028 171.931 91.4948 172.103C91.3903 172.275 91.3144 172.486 91.2671 172.735C91.2233 172.985 91.2014 173.272 91.2014 173.595V176.474H90.2805V170.919H91.0293L91.1609 171.668H91.2115C91.2924 171.523 91.3886 171.398 91.4999 171.293C91.6112 171.185 91.7326 171.096 91.8642 171.025C91.9991 170.954 92.1408 170.902 92.2892 170.868C92.441 170.834 92.5945 170.818 92.7496 170.818C93.1544 170.818 93.49 170.892 93.7565 171.04C94.0263 171.189 94.2254 171.421 94.3535 171.738H94.394C94.4817 171.58 94.5863 171.443 94.7077 171.329C94.8325 171.214 94.9674 171.119 95.1125 171.045C95.2609 170.968 95.4161 170.91 95.578 170.873C95.7399 170.836 95.9052 170.818 96.0738 170.818C96.6641 170.818 97.1077 170.98 97.4045 171.303C97.7047 171.624 97.8548 172.138 97.8548 172.847V176.474H96.934ZM102.702 176.474L102.515 175.705H102.474C102.363 175.857 102.252 175.989 102.14 176.1C102.029 176.208 101.908 176.297 101.776 176.368C101.645 176.439 101.498 176.491 101.336 176.525C101.174 176.559 100.987 176.575 100.774 176.575C100.542 176.575 100.327 176.542 100.132 176.474C99.936 176.41 99.7657 176.311 99.6206 176.176C99.479 176.037 99.3677 175.865 99.2867 175.66C99.2058 175.451 99.1653 175.204 99.1653 174.921C99.1653 174.368 99.3592 173.943 99.7471 173.646C100.138 173.349 100.732 173.187 101.528 173.16L102.459 173.125V172.776C102.459 172.55 102.434 172.361 102.383 172.209C102.336 172.057 102.265 171.936 102.171 171.845C102.08 171.75 101.965 171.683 101.827 171.642C101.692 171.602 101.537 171.582 101.361 171.582C101.081 171.582 100.82 171.622 100.577 171.703C100.337 171.784 100.106 171.882 99.8838 171.996L99.5599 171.303C99.8095 171.168 100.088 171.054 100.395 170.959C100.702 170.865 101.024 170.818 101.361 170.818C101.705 170.818 102.002 170.853 102.252 170.924C102.505 170.991 102.712 171.101 102.874 171.253C103.039 171.401 103.162 171.592 103.243 171.824C103.324 172.057 103.365 172.339 103.365 172.669V176.474H102.702ZM101.012 175.832C101.218 175.832 101.408 175.8 101.584 175.736C101.759 175.672 101.911 175.575 102.039 175.447C102.167 175.316 102.267 175.152 102.338 174.956C102.412 174.757 102.449 174.525 102.449 174.258V173.757L101.725 173.793C101.422 173.806 101.167 173.84 100.961 173.894C100.756 173.948 100.59 174.024 100.466 174.122C100.344 174.216 100.256 174.332 100.203 174.471C100.149 174.606 100.122 174.759 100.122 174.931C100.122 175.241 100.203 175.469 100.364 175.614C100.53 175.759 100.746 175.832 101.012 175.832Z" fill="white"/>
</g>
<g clip-path="url(#clip4)">
<path d="M202.444 162.957C198.222 162.957 194.844 166.335 194.844 170.556C194.844 174.778 198.222 178.156 202.444 178.156C206.666 178.156 210.043 174.778 210.043 170.556C210.043 166.335 206.666 162.957 202.444 162.957ZM202.444 177.235C198.794 177.235 195.766 174.206 195.766 170.556C195.766 166.907 198.794 163.878 202.444 163.878C206.094 163.878 209.122 166.907 209.122 170.556C209.122 174.206 206.094 177.235 202.444 177.235ZM199.066 169.712V171.401H205.821V169.712H199.066Z" fill="white"/>
</g>
<path d="M227.212 167.698C226.704 167.185 226.175 166.739 225.624 166.359C225.073 165.979 224.558 165.694 224.076 165.505C223.595 165.315 223.154 165.224 222.753 165.231C222.352 165.239 222.04 165.358 221.815 165.589C221.762 165.641 221.716 165.698 221.679 165.762C221.641 165.827 221.615 165.877 221.599 165.912C221.583 165.948 221.561 166.013 221.535 166.105C221.508 166.197 221.489 166.256 221.478 166.282L218.495 175.702L218.68 175.887C218.471 176.025 218.286 176.187 218.123 176.371C217.96 176.556 217.817 176.707 217.694 176.825C217.571 176.943 217.424 177.026 217.253 177.072C217.215 177.082 217.168 177.117 217.112 177.176C217.056 177.235 217.028 177.287 217.028 177.333C217.028 177.426 217.076 177.503 217.172 177.564C217.269 177.626 217.376 177.657 217.493 177.657C217.643 177.657 217.787 177.599 217.926 177.483C218.065 177.368 218.205 177.221 218.347 177.041C218.489 176.861 218.592 176.743 218.656 176.687C218.795 176.569 218.95 176.456 219.121 176.348L219.329 176.541L228.808 173.455C229.016 173.393 229.176 173.301 229.289 173.178C229.513 172.947 229.629 172.627 229.637 172.219C229.645 171.812 229.556 171.363 229.369 170.873C229.182 170.383 228.902 169.859 228.531 169.303C228.159 168.746 227.72 168.211 227.212 167.698ZM226.346 168.537C227.164 169.337 227.785 170.103 228.21 170.834C228.635 171.565 228.738 172.046 228.519 172.277C228.3 172.508 227.821 172.423 227.083 172.023C226.346 171.623 225.571 171.025 224.758 170.23C223.935 169.43 223.311 168.665 222.886 167.937C222.461 167.208 222.358 166.726 222.577 166.49C222.796 166.259 223.276 166.343 224.016 166.744C224.757 167.144 225.533 167.742 226.346 168.537ZM224.59 171.723C224.98 172.057 225.367 172.349 225.752 172.6C225.758 172.611 225.891 172.852 226.153 173.324L225.48 173.547C225.159 172.967 224.862 172.359 224.59 171.723ZM221.855 168.198C221.973 168.45 222.136 168.755 222.344 169.114C222.516 169.853 222.784 170.653 223.15 171.515C223.517 172.377 223.916 173.185 224.349 173.939L223.684 174.155C223.181 173.262 222.743 172.327 222.369 171.35C221.994 170.372 221.764 169.509 221.679 168.76L221.855 168.198ZM220.925 171.015C221.299 172.164 221.826 173.344 222.505 174.555L221.847 174.778C221.318 173.804 220.901 172.888 220.596 172.031L220.925 171.015ZM220.003 173.824C220.211 174.296 220.433 174.745 220.669 175.171L220.011 175.394C219.936 175.255 219.829 175.043 219.69 174.755L220.003 173.824ZM225.897 162.88L226.298 164.042L225.263 164.766H226.538L226.931 165.928L227.324 164.766H228.591L227.565 164.042L227.966 162.888L226.931 163.604L225.897 162.88ZM223.651 162.88L223.435 163.935L224.534 164.142L224.75 163.088L223.651 162.88ZM230.876 166.051L231.758 165.166L232.905 165.705L232.312 164.627L233.202 163.758L231.943 163.965L231.349 162.88L231.173 164.096L229.914 164.304L231.061 164.835L230.876 166.051ZM230.58 167.944L231.646 168.621L231.309 169.807L232.304 169.037L233.362 169.714L232.921 168.56L233.915 167.806L232.64 167.86L232.191 166.713L231.863 167.89L230.58 167.944ZM230.123 165.089L227.733 166.967L228.03 167.313L230.419 165.435L230.123 165.089ZM230.957 168.722L229.088 168.56L229.04 169.006L230.916 169.168L230.957 168.722ZM231.141 170.876L230.796 171.908L231.863 172.239L232.215 171.215L231.141 170.876Z" fill="white"/>
<path d="M275.222 172.667C274.827 172.669 274.438 172.76 274.083 172.932C273.727 173.105 273.415 173.355 273.17 173.664L269.312 171.253C269.453 170.799 269.453 170.313 269.312 169.86L273.17 167.448C273.561 167.933 274.112 168.263 274.724 168.381C275.336 168.499 275.97 168.396 276.513 168.091C277.057 167.787 277.475 167.299 277.693 166.716C277.912 166.132 277.917 165.49 277.708 164.903C277.498 164.316 277.088 163.822 276.549 163.509C276.01 163.196 275.378 163.083 274.764 163.191C274.15 163.3 273.595 163.622 273.196 164.1C272.797 164.579 272.58 165.183 272.584 165.807C272.586 166.043 272.622 166.277 272.689 166.503L268.832 168.915C268.491 168.486 268.026 168.174 267.5 168.022C266.974 167.869 266.413 167.884 265.896 168.065C265.379 168.245 264.931 168.582 264.614 169.028C264.297 169.475 264.127 170.009 264.127 170.556C264.127 171.104 264.297 171.638 264.614 172.084C264.931 172.531 265.379 172.867 265.896 173.048C266.413 173.228 266.974 173.243 267.5 173.091C268.026 172.938 268.491 172.626 268.832 172.197L272.689 174.609C272.622 174.835 272.586 175.07 272.584 175.306C272.584 175.828 272.739 176.338 273.029 176.772C273.318 177.206 273.731 177.544 274.213 177.744C274.695 177.943 275.225 177.995 275.737 177.894C276.249 177.792 276.719 177.541 277.088 177.172C277.457 176.803 277.709 176.332 277.81 175.821C277.912 175.309 277.86 174.778 277.66 174.296C277.461 173.814 277.122 173.402 276.688 173.112C276.255 172.822 275.744 172.667 275.222 172.667V172.667ZM275.222 164.223C275.536 164.223 275.842 164.316 276.102 164.49C276.362 164.664 276.565 164.911 276.685 165.201C276.805 165.49 276.836 165.808 276.775 166.115C276.714 166.423 276.563 166.705 276.342 166.926C276.121 167.148 275.838 167.298 275.531 167.359C275.224 167.42 274.906 167.389 274.617 167.269C274.327 167.149 274.08 166.947 273.906 166.686C273.732 166.426 273.639 166.12 273.639 165.807C273.639 165.387 273.806 164.984 274.103 164.687C274.4 164.39 274.803 164.223 275.222 164.223V164.223ZM266.779 172.139C266.466 172.139 266.16 172.047 265.899 171.873C265.639 171.699 265.436 171.451 265.316 171.162C265.196 170.873 265.165 170.554 265.226 170.247C265.287 169.94 265.438 169.658 265.659 169.437C265.881 169.215 266.163 169.064 266.47 169.003C266.777 168.942 267.095 168.974 267.385 169.093C267.674 169.213 267.921 169.416 268.095 169.677C268.269 169.937 268.362 170.243 268.362 170.556C268.362 170.976 268.195 171.379 267.898 171.676C267.601 171.973 267.199 172.139 266.779 172.139ZM275.222 176.889C274.909 176.889 274.603 176.796 274.343 176.622C274.083 176.448 273.88 176.201 273.76 175.912C273.64 175.622 273.609 175.304 273.67 174.997C273.731 174.69 273.882 174.408 274.103 174.186C274.324 173.965 274.607 173.814 274.914 173.753C275.221 173.692 275.539 173.723 275.828 173.843C276.118 173.963 276.365 174.166 276.539 174.426C276.713 174.687 276.806 174.993 276.806 175.306C276.806 175.726 276.639 176.128 276.342 176.425C276.045 176.722 275.642 176.889 275.222 176.889V176.889Z" fill="white"/>
<path d="M299.481 163.52H290.524C290.03 163.52 289.552 163.693 289.173 164.01C288.793 164.326 288.537 164.765 288.448 165.251L287.554 170.176C287.499 170.481 287.511 170.793 287.589 171.093C287.668 171.392 287.811 171.67 288.009 171.908C288.207 172.145 288.455 172.337 288.735 172.468C289.015 172.599 289.321 172.667 289.63 172.667H292.839L292.445 173.673C292.281 174.114 292.226 174.588 292.286 175.054C292.345 175.52 292.517 175.965 292.786 176.351C293.055 176.736 293.414 177.05 293.831 177.267C294.248 177.483 294.712 177.595 295.182 177.593C295.317 177.592 295.45 177.553 295.563 177.479C295.677 177.406 295.767 177.301 295.822 177.178L297.828 172.667H299.481C300.041 172.667 300.578 172.445 300.974 172.049C301.37 171.653 301.592 171.116 301.592 170.556V165.631C301.592 165.071 301.37 164.534 300.974 164.138C300.578 163.742 300.041 163.52 299.481 163.52ZM296.667 171.816L294.753 176.122C294.557 176.063 294.375 175.964 294.219 175.832C294.063 175.7 293.935 175.537 293.844 175.354C293.753 175.171 293.701 174.971 293.69 174.766C293.679 174.562 293.71 174.358 293.782 174.166L294.155 173.16C294.234 172.947 294.261 172.718 294.233 172.493C294.205 172.268 294.123 172.053 293.993 171.866C293.864 171.679 293.691 171.527 293.49 171.421C293.289 171.316 293.066 171.26 292.839 171.26H289.63C289.527 171.26 289.425 171.238 289.331 171.194C289.237 171.15 289.155 171.086 289.088 171.007C289.021 170.928 288.971 170.836 288.943 170.736C288.915 170.637 288.909 170.532 288.927 170.43L289.82 165.504C289.85 165.34 289.937 165.192 290.066 165.087C290.195 164.981 290.357 164.925 290.524 164.927H296.667V171.816ZM300.185 170.556C300.185 170.743 300.111 170.922 299.979 171.054C299.847 171.186 299.668 171.26 299.481 171.26H298.074V164.927H299.481C299.668 164.927 299.847 165.001 299.979 165.133C300.111 165.265 300.185 165.444 300.185 165.631V170.556Z" fill="white"/>
<g clip-path="url(#clip5)">
<path d="M248.308 167.358C248.697 167.358 249.012 167.043 249.012 166.654C249.012 166.266 248.697 165.951 248.308 165.951C247.92 165.951 247.604 166.266 247.604 166.654C247.604 167.043 247.92 167.358 248.308 167.358Z" fill="white"/>
<path d="M250.302 173.175H249.129V168.296H247.37C247.214 168.296 247.065 168.36 246.955 168.475C246.845 168.589 246.784 168.744 246.784 168.906C246.784 169.068 246.845 169.223 246.955 169.337C247.065 169.452 247.214 169.516 247.37 169.516H247.956V173.175H246.784C246.628 173.175 246.479 173.239 246.369 173.353C246.259 173.468 246.197 173.623 246.197 173.785C246.197 173.946 246.259 174.101 246.369 174.216C246.479 174.33 246.628 174.394 246.784 174.394H250.302C250.457 174.394 250.606 174.33 250.716 174.216C250.826 174.101 250.888 173.946 250.888 173.785C250.888 173.623 250.826 173.468 250.716 173.353C250.606 173.239 250.457 173.175 250.302 173.175Z" fill="white"/>
<path d="M248.212 162.88C246.751 162.88 245.322 163.314 244.108 164.125C242.893 164.937 241.946 166.091 241.386 167.441C240.827 168.791 240.681 170.277 240.966 171.71C241.251 173.143 241.955 174.459 242.988 175.493C244.021 176.526 245.338 177.23 246.771 177.515C248.204 177.8 249.69 177.653 251.04 177.094C252.39 176.535 253.543 175.588 254.355 174.373C255.167 173.158 255.6 171.73 255.6 170.268C255.6 168.309 254.822 166.43 253.436 165.044C252.051 163.659 250.172 162.88 248.212 162.88V162.88ZM248.212 176.425C246.994 176.425 245.804 176.064 244.792 175.388C243.779 174.711 242.99 173.75 242.524 172.625C242.058 171.5 241.936 170.262 242.174 169.067C242.411 167.873 242.998 166.776 243.859 165.915C244.72 165.054 245.817 164.467 247.011 164.23C248.205 163.992 249.443 164.114 250.568 164.58C251.693 165.046 252.655 165.835 253.331 166.848C254.008 167.86 254.369 169.051 254.369 170.268C254.369 171.077 254.21 171.878 253.9 172.625C253.591 173.372 253.137 174.05 252.566 174.622C251.994 175.194 251.315 175.647 250.568 175.957C249.821 176.266 249.021 176.425 248.212 176.425V176.425Z" fill="white"/>
</g>
</g>
<path d="M162.578 65.5611C167.324 65.4776 171.988 66.8035 175.981 69.3709C179.973 71.9382 183.115 75.6319 185.008 79.9847C186.902 84.3376 187.462 89.1541 186.617 93.8252C185.773 98.4963 183.563 102.812 180.266 106.227C176.969 109.642 172.734 112.003 168.095 113.01C163.456 114.018 158.623 113.628 154.207 111.888C149.79 110.149 145.988 107.139 143.282 103.24C140.576 99.3398 139.087 94.7251 139.004 89.9791C138.892 83.6149 141.313 77.4669 145.734 72.8876C150.155 68.3084 156.214 65.6729 162.578 65.5611V65.5611ZM162.508 61.5617C156.971 61.659 151.587 63.396 147.037 66.5532C142.487 69.7103 138.976 74.1457 136.947 79.2985C134.918 84.4512 134.463 90.09 135.638 95.5016C136.814 100.913 139.568 105.855 143.552 109.701C147.536 113.548 152.571 116.126 158.021 117.111C163.47 118.096 169.09 117.443 174.168 115.234C179.246 113.025 183.556 109.36 186.551 104.702C189.546 100.044 191.093 94.6023 190.996 89.0653C190.865 81.6404 187.79 74.5714 182.448 69.4135C177.105 64.2556 169.933 61.4312 162.508 61.5617V61.5617Z" fill="white" fill-opacity="0.6"/>
<path d="M155.247 103.696C154.888 103.702 154.534 103.611 154.223 103.434C153.921 103.262 153.669 103.015 153.492 102.716C153.315 102.418 153.219 102.078 153.213 101.731L152.791 77.735C152.785 77.3879 152.869 77.0453 153.036 76.7407C153.202 76.4362 153.445 76.1802 153.74 75.998C154.041 75.8171 154.385 75.7187 154.736 75.7125C155.087 75.7064 155.433 75.7927 155.74 75.9629L177.948 87.5744C178.268 87.7402 178.538 87.9895 178.728 88.2961C178.918 88.6026 179.022 88.9549 179.028 89.3157C179.035 89.6764 178.943 90.0322 178.764 90.3452C178.585 90.6582 178.324 90.9169 178.009 91.0939L156.224 103.479C155.922 103.633 155.586 103.707 155.247 103.696V103.696ZM156.849 81.0241L157.153 98.3015L172.819 89.3848L156.849 81.0241Z" fill="white" fill-opacity="0.6"/>
<defs>
<linearGradient id="paint0_linear" x1="13.8879" y1="148" x2="150.493" y2="148.676" gradientUnits="userSpaceOnUse">
<stop stop-opacity="0"/>
<stop stop-opacity="0"/>
<stop offset="1"/>
</linearGradient>
<clipPath id="clip0">
<rect width="179" height="326" fill="white" transform="translate(326 21) rotate(90)"/>
</clipPath>
<clipPath id="clip1">
<rect width="44.4211" height="11.2131" fill="white" transform="translate(29.1753 90.725)"/>
</clipPath>
<clipPath id="clip2">
<rect width="10.7818" height="10.7818" fill="white" transform="translate(29.1753 90.9407)"/>
</clipPath>
<clipPath id="clip3">
<rect width="37.0079" height="11.8425" fill="white" transform="translate(67.5828 166.474)"/>
</clipPath>
<clipPath id="clip4">
<rect width="16.8873" height="16.8873" fill="white" transform="translate(194 162.113)"/>
</clipPath>
<clipPath id="clip5">
<rect width="16.8873" height="16.8873" fill="white" transform="translate(240.056 162.113)"/>
</clipPath>
</defs>
</svg>
