<svg width="326" height="200" viewBox="0 0 326 200" fill="none" xmlns="http://www.w3.org/2000/svg">
<path d="M20 31C20 24.9249 24.9249 20 31 20H53C59.0751 20 64 24.9249 64 31V31C64 37.0751 59.0751 42 53 42H31C24.9249 42 20 37.0751 20 31V31Z" fill="white" fill-opacity="0.8"/>
<path fill-rule="evenodd" clip-rule="evenodd" d="M27 27.7191V36H28.3736C28.4165 36 28.5195 35.9753 28.5882 35.8764V33.2397C30.1335 34.3109 32.8807 33.7753 32.8807 30.5206C32.8807 27.5131 30.2193 26.8127 28.4165 28.2135C28.4022 28.0762 28.3221 27.785 28.116 27.7191H27ZM30.6915 29.1199C29.9704 28.4936 28.9888 28.8589 28.5882 29.1199V32.0861C29.6871 32.8112 30.4483 32.3883 30.6915 32.0861C31.0006 31.9543 31.0778 30.9875 31.0778 30.5206C31.1122 29.7955 30.8346 29.2846 30.6915 29.1199Z" fill="#00A8E1"/>
<path d="M34.0396 33.4457V27.8839C34.0396 27.829 34.074 27.7109 34.2113 27.6779H35.2844C35.3417 27.6367 35.499 27.7356 35.6707 28.4607C35.6851 28.5019 35.7308 28.5678 35.7995 28.5019C35.8854 28.4195 36.7009 27.5543 37.5594 27.6367C37.9028 27.6367 37.9887 27.774 37.9887 27.8427V28.9963C37.9744 29.0649 37.9114 29.2022 37.774 29.2022C36.5722 29.1363 35.9569 29.3396 35.7995 29.4494V33.4457C35.7995 33.4869 35.7738 33.5775 35.6707 33.6105H34.1684C34.1255 33.6105 34.0396 33.5775 34.0396 33.4457Z" fill="#00A8E1"/>
<path d="M39.0189 27.6779H40.3066C40.3781 27.6916 40.5212 27.7521 40.5212 27.8839V33.4457C40.5069 33.4869 40.4525 33.5775 40.3495 33.6105H38.9759C38.9187 33.5968 38.7956 33.5446 38.7613 33.4457L38.8042 27.8839C38.8042 27.829 38.8472 27.7109 39.0189 27.6779Z" fill="#00A8E1"/>
<path d="M39.3622 26.7303C39.491 26.7441 39.7915 26.7633 39.9632 26.7303C40.1349 26.6974 40.3209 26.5793 40.3924 26.5243C40.5641 26.3596 40.65 26.1124 40.65 25.8652C40.65 25.5356 40.5641 25.412 40.4354 25.2472C40.3495 25.1785 40.1778 25 39.9632 25H39.3622C39.2049 25.0412 38.8643 25.1483 38.7613 25.412C38.6583 25.6757 38.6755 25.7553 38.6755 25.9064C38.6755 26.0574 38.7579 26.3563 38.933 26.5243C39.1081 26.6924 39.2907 26.7166 39.3622 26.7303Z" fill="#00A8E1"/>
<path d="M43.6547 28.2547C43.6118 28.0899 43.4916 27.7521 43.3542 27.7191C43.2169 27.6861 42.5244 27.7054 42.1953 27.7191C42.138 27.7191 42.0236 27.7521 42.0236 27.8839V33.4457C42.0379 33.4869 42.0922 33.5775 42.1953 33.6105C42.2983 33.6434 43.1539 33.6242 43.5688 33.6105C43.6261 33.5968 43.7577 33.5446 43.8264 33.4457L43.7835 29.161C44.0267 29.0237 44.6248 28.7655 45.0712 28.8315C45.6292 28.8727 45.8009 29.1336 45.8438 29.2846L45.8868 33.4457C45.9011 33.5006 45.9554 33.6105 46.0585 33.6105H47.475C47.5179 33.5968 47.6123 33.5446 47.6467 33.4457V29.161C47.847 29.01 48.3764 28.7243 48.8915 28.7903C49.4066 28.8562 49.6212 29.1748 49.6641 29.3258V33.3633C49.6641 33.432 49.6985 33.5775 49.8358 33.6105H51.3382C51.3811 33.583 51.467 33.4951 51.467 33.3633V29.0787C51.4383 28.5705 51.0549 27.5461 49.75 27.5131C48.4451 27.4801 47.661 27.9938 47.4321 28.2547C47.2747 28.0075 46.7453 27.5131 45.8868 27.5131C45.0283 27.5131 44.041 28.0075 43.6547 28.2547Z" fill="#00A8E1"/>
<path fill-rule="evenodd" clip-rule="evenodd" d="M54.1283 31.0974C54.071 31.8252 54.6605 33.0831 57.4764 32.2921C57.6481 32.2262 57.691 32.4569 57.691 32.5805V33.1985C57.5336 33.4045 56.9098 33.8165 55.6735 33.8165C53.2698 33.8165 52.583 32.2235 52.5401 31.427C52.3827 30.7678 52.3598 29.194 53.5273 28.1723C55.1756 26.9858 56.8182 27.6779 57.4335 28.1723C57.8198 28.5156 58.395 29.4494 57.6052 30.4382C56.8153 31.427 54.9581 31.2896 54.1283 31.0974ZM55.4589 28.7079C54.3944 28.7079 54.1283 29.6417 54.1283 30.1086C54.4574 30.1498 55.21 30.224 55.5877 30.191C55.9654 30.1581 56.203 29.9301 56.2745 29.8202C56.4462 29.4494 56.5235 28.7079 55.4589 28.7079Z" fill="#00A8E1"/>
<path fill-rule="evenodd" clip-rule="evenodd" d="M27 27.7191V36H28.3736C28.4165 36 28.5195 35.9753 28.5882 35.8764V33.2397C30.1335 34.3109 32.8807 33.7753 32.8807 30.5206C32.8807 27.5131 30.2193 26.8127 28.4165 28.2135C28.4022 28.0762 28.3221 27.785 28.116 27.7191H27ZM30.6915 29.1199C29.9704 28.4936 28.9888 28.8589 28.5882 29.1199V32.0861C29.6871 32.8112 30.4483 32.3883 30.6915 32.0861C31.0006 31.9543 31.0778 30.9875 31.0778 30.5206C31.1122 29.7955 30.8346 29.2846 30.6915 29.1199Z" fill="#00A8E1"/>
<g clip-path="url(#clip0)">
<rect width="179" height="326" transform="translate(326 21) rotate(90)" fill="url(#paint0_linear)"/>
<rect x="24.4313" y="89.4313" width="53.9091" height="13.8007" rx="6.90036" fill="#111111" fill-opacity="0.2"/>
<g clip-path="url(#clip1)">
<g clip-path="url(#clip2)">
<path d="M37.2124 95.6945C37.2124 95.2422 36.8917 94.8639 36.4667 94.7728C36.6365 94.4893 36.7407 94.1615 36.7407 93.8077C36.7407 92.7671 35.8945 91.9209 34.8539 91.9209C34.1383 91.9209 33.5232 92.3251 33.2029 92.9134C32.8827 92.3251 32.2676 91.9209 31.552 91.9209C30.5114 91.9209 29.6652 92.7671 29.6652 93.8077C29.6652 94.2332 29.8123 94.6224 30.0505 94.9379C29.9315 95.025 29.8346 95.1388 29.7676 95.2703C29.7007 95.4017 29.6656 95.547 29.6652 95.6945V99.4682C29.6652 99.9885 30.0883 100.412 30.6086 100.412H36.269C36.7893 100.412 37.2124 99.9885 37.2124 99.4682V98.2238L39.0993 99.1672V95.8653L37.2124 96.8087V95.6945ZM34.8539 92.8643C35.3742 92.8643 35.7973 93.2874 35.7973 93.8077C35.7973 94.328 35.3742 94.7511 34.8539 94.7511C34.3336 94.7511 33.9105 94.328 33.9105 93.8077C33.9105 93.2874 34.3336 92.8643 34.8539 92.8643ZM31.552 92.8643C32.0723 92.8643 32.4954 93.2874 32.4954 93.8077C32.4954 94.328 32.0723 94.7511 31.552 94.7511C31.0317 94.7511 30.6086 94.328 30.6086 93.8077C30.6086 93.2874 31.0317 92.8643 31.552 92.8643ZM30.6086 99.4682V95.6945H36.269L36.27 99.4682H30.6086Z" fill="white"/>
</g>
<path d="M49.4907 93.4978V94.2559H47.2164V100.725H46.2814V94.2559H44.0071V93.4978H49.4907ZM50.5065 100.725V95.4184H51.1383L51.305 96.0956C51.77 95.6441 52.3293 95.4184 52.983 95.4184V96.1967C52.3495 96.1967 51.8357 96.4207 51.4415 96.8689V100.725H50.5065ZM53.6703 99.1229C53.6703 98.0346 54.388 97.4905 55.8233 97.4905C56.2849 97.4905 56.7465 97.5242 57.2081 97.5916V97.0912C57.2081 96.4814 56.7313 96.1765 55.7778 96.1765C55.232 96.1765 54.6727 96.2607 54.0999 96.4292V95.6711C54.6727 95.5026 55.232 95.4184 55.7778 95.4184C57.3546 95.4184 58.1431 95.9676 58.1431 97.066V100.725H57.6175L57.294 100.199C56.765 100.55 56.1889 100.725 55.5655 100.725C54.302 100.725 53.6703 100.191 53.6703 99.1229ZM55.8233 98.2486C55.0113 98.2486 54.6053 98.535 54.6053 99.1078C54.6053 99.6805 54.9254 99.9669 55.5655 99.9669C56.2124 99.9669 56.76 99.7951 57.2081 99.4514V98.3497C56.7465 98.2823 56.2849 98.2486 55.8233 98.2486ZM60.7004 95.4184V100.725H59.7654V95.4184H60.7004ZM60.7004 93.4978V94.3823H59.7654V93.4978H60.7004ZM63.3082 93.4978V100.725H62.3732V93.4978H63.3082ZM67.0684 95.4184C68.5778 95.4184 69.3326 96.1647 69.3326 97.6573C69.3326 97.8695 69.3174 98.097 69.2871 98.3396H65.5623C65.5623 99.4245 66.1957 99.9669 67.4626 99.9669C68.0657 99.9669 68.6014 99.8996 69.0698 99.7648V100.523C68.6014 100.658 68.032 100.725 67.3615 100.725C65.5387 100.725 64.6273 99.8204 64.6273 98.011C64.6273 96.2826 65.441 95.4184 67.0684 95.4184ZM65.5623 97.5612H68.433C68.4128 96.6313 67.9579 96.1663 67.0684 96.1663C66.125 96.1663 65.623 96.6313 65.5623 97.5612ZM70.591 100.725V95.4184H71.2228L71.3895 96.0956C71.8545 95.6441 72.4138 95.4184 73.0675 95.4184V96.1967C72.434 96.1967 71.9202 96.4207 71.526 96.8689V100.725H70.591Z" fill="white"/>
</g>
<rect x="24.4313" y="89.4313" width="53.9091" height="13.8007" rx="6.90036" stroke="white" stroke-width="0.862546"/>
<path d="M31.8425 112.248V113.911H28.879V122.584H26.9635V113.911H24V112.248H31.8425ZM32.7532 122.584V112.248H34.6687V115.964C35.2662 115.318 36.03 114.995 36.96 114.995C38.7574 114.995 39.6561 115.93 39.6561 117.799V122.584H37.7406V117.799C37.7406 116.961 37.3238 116.542 36.4902 116.542C35.8685 116.542 35.2614 116.79 34.6687 117.286V122.584H32.7532ZM44.6724 114.995C46.9757 114.995 48.1274 116.171 48.1274 118.522C48.1274 118.835 48.1057 119.149 48.0623 119.462H43.0244C43.0244 120.532 43.8098 121.067 45.3807 121.067C46.1469 121.067 46.9131 120.994 47.6793 120.85V122.368C47.0095 122.512 46.1951 122.584 45.2362 122.584C42.4847 122.584 41.1089 121.291 41.1089 118.703C41.1089 116.231 42.2967 114.995 44.6724 114.995ZM43.0244 118.132H46.2626V118.074C46.2626 117.024 45.7325 116.498 44.6724 116.498C43.6604 116.498 43.1111 117.043 43.0244 118.132ZM52.9991 122.584V112.248H57.842C59.808 112.248 60.791 113.051 60.791 114.655C60.791 115.831 60.1501 116.672 58.8684 117.178C60.2369 117.433 60.9211 118.216 60.9211 119.527C60.9211 121.565 59.8442 122.584 57.6902 122.584H52.9991ZM57.6107 120.922C58.4588 120.922 58.8828 120.488 58.8828 119.621C58.8828 118.546 58.2492 118.009 56.9818 118.009H56.4036V116.773C57.9938 116.508 58.7888 115.843 58.7888 114.778C58.7888 114.2 58.4323 113.911 57.7191 113.911H54.9146V120.922H57.6107ZM64.2894 112.248V113.766H62.374V112.248H64.2894ZM64.2894 114.995V122.584H62.374V114.995H64.2894ZM70.961 116.715C70.6478 116.6 70.202 116.542 69.6238 116.542C68.2986 116.542 67.636 117.272 67.636 118.732C67.636 120.144 68.2071 120.85 69.3491 120.85C69.8984 120.85 70.4357 120.72 70.961 120.459V116.715ZM72.8764 122.006C72.8764 124.223 71.544 125.331 68.8793 125.331C67.9444 125.331 67.1156 125.211 66.3928 124.97V123.452C67.1301 123.693 67.9637 123.813 68.8937 123.813C70.2719 123.813 70.961 123.235 70.961 122.079C70.3924 122.319 69.7804 122.44 69.125 122.44C66.8699 122.44 65.7423 121.209 65.7423 118.746C65.7423 116.245 67.0554 114.995 69.6816 114.995C70.5634 114.995 71.6284 115.099 72.8764 115.306V122.006ZM77.9433 122.151V120.416C78.9793 120.802 80.1503 120.994 81.4562 120.994C83.0415 120.994 83.8342 120.464 83.8342 119.404C83.8342 118.633 83.3475 118.248 82.3741 118.248H80.755C78.6396 118.248 77.5819 117.284 77.5819 115.356C77.5819 113.236 79.0878 112.176 82.0995 112.176C83.256 112.176 84.3522 112.345 85.3883 112.682V114.417C84.3522 114.031 83.256 113.838 82.0995 113.838C80.3647 113.838 79.4974 114.344 79.4974 115.356C79.4974 116.127 79.9166 116.513 80.755 116.513H82.3741C84.6245 116.513 85.7497 117.477 85.7497 119.404C85.7497 121.573 84.3185 122.657 81.4562 122.657C80.1503 122.657 78.9793 122.488 77.9433 122.151ZM89.1107 112.248V113.766H87.1953V112.248H89.1107ZM89.1107 114.995V122.584H87.1953V114.995H89.1107ZM96.5268 122.368C95.9003 122.512 95.2498 122.584 94.5752 122.584C91.8767 122.584 90.5274 121.271 90.5274 118.645C90.5274 116.212 91.8767 114.995 94.5752 114.995C95.2498 114.995 95.9003 115.067 96.5268 115.212V116.73C95.9003 116.585 95.298 116.513 94.7197 116.513C93.2018 116.513 92.4429 117.224 92.4429 118.645C92.4429 120.259 93.2018 121.067 94.7197 121.067C95.298 121.067 95.9003 120.994 96.5268 120.85V122.368ZM97.7917 122.584V112.248H99.7071V115.588C100.493 115.193 101.319 114.995 102.186 114.995C104.123 114.995 105.092 115.725 105.092 117.185C105.092 118.245 104.417 119.074 103.068 119.672L105.425 122.584H103.083L101.102 119.874V118.985C102.485 118.691 103.177 118.209 103.177 117.539C103.177 116.855 102.719 116.513 101.803 116.513C101.162 116.513 100.464 116.715 99.7071 117.12V122.584H97.7917Z" fill="white"/>
<path d="M28.6259 133.663L27.3104 136.328L24.37 136.753L26.4979 138.829L25.9949 141.758L28.6259 140.376L31.2569 141.758L30.7539 138.829L32.8818 136.756L29.9414 136.328L28.6259 133.663Z" fill="#F39B13"/>
<path d="M37.8937 134.276C38.1771 134.276 38.4436 134.313 38.6932 134.387C38.9462 134.461 39.1671 134.572 39.356 134.721C39.5483 134.869 39.7001 135.055 39.8114 135.277C39.9227 135.5 39.9783 135.76 39.9783 136.057C39.9783 136.283 39.9446 136.487 39.8771 136.669C39.8097 136.851 39.7169 137.016 39.5989 137.165C39.4808 137.31 39.3408 137.441 39.1789 137.559C39.017 137.674 38.8416 137.779 38.6527 137.873C38.8483 137.978 39.0389 138.094 39.2244 138.222C39.4133 138.35 39.5803 138.495 39.7254 138.657C39.8738 138.816 39.9918 138.995 40.0795 139.194C40.1706 139.393 40.2161 139.615 40.2161 139.861C40.2161 140.172 40.1588 140.453 40.0441 140.706C39.9328 140.956 39.7743 141.169 39.5685 141.344C39.3661 141.519 39.1216 141.654 38.8348 141.749C38.5515 141.843 38.2378 141.89 37.8937 141.89C37.5227 141.89 37.1921 141.845 36.9021 141.754C36.6153 141.663 36.3725 141.533 36.1735 141.364C35.9778 141.192 35.8277 140.983 35.7232 140.737C35.622 140.491 35.5714 140.212 35.5714 139.902C35.5714 139.649 35.6085 139.421 35.6827 139.219C35.7603 139.016 35.8631 138.834 35.9913 138.672C36.1195 138.511 36.2713 138.367 36.4467 138.242C36.6221 138.118 36.8076 138.008 37.0032 137.913C36.838 137.809 36.6828 137.696 36.5378 137.574C36.3927 137.45 36.2662 137.311 36.1583 137.16C36.0537 137.008 35.9694 136.841 35.9053 136.659C35.8446 136.473 35.8142 136.269 35.8142 136.046C35.8142 135.753 35.8699 135.497 35.9812 135.277C36.0959 135.055 36.2494 134.869 36.4416 134.721C36.6339 134.572 36.8548 134.461 37.1044 134.387C37.3574 134.313 37.6205 134.276 37.8937 134.276ZM36.477 139.912C36.477 140.091 36.504 140.256 36.558 140.408C36.612 140.556 36.6963 140.684 36.811 140.792C36.9257 140.897 37.0707 140.98 37.2461 141.04C37.4215 141.098 37.6306 141.126 37.8735 141.126C38.1096 141.126 38.3171 141.098 38.4959 141.04C38.678 140.98 38.8298 140.895 38.9512 140.787C39.0727 140.676 39.1637 140.543 39.2244 140.388C39.2852 140.232 39.3155 140.06 39.3155 139.872C39.3155 139.696 39.2818 139.538 39.2143 139.396C39.1502 139.254 39.0558 139.123 38.931 139.001C38.8095 138.88 38.6628 138.765 38.4908 138.657C38.3188 138.549 38.1265 138.443 37.914 138.338L37.7622 138.268C37.3372 138.47 37.0167 138.703 36.8009 138.966C36.585 139.226 36.477 139.541 36.477 139.912ZM37.8836 135.045C37.5261 135.045 37.2411 135.134 37.0285 135.313C36.8194 135.492 36.7148 135.751 36.7148 136.092C36.7148 136.284 36.7435 136.45 36.8009 136.588C36.8616 136.726 36.9442 136.849 37.0488 136.957C37.1534 137.065 37.2782 137.163 37.4232 137.251C37.5716 137.335 37.7318 137.418 37.9039 137.499C38.0658 137.424 38.2176 137.343 38.3592 137.256C38.5043 137.168 38.6291 137.069 38.7337 136.957C38.8416 136.846 38.9259 136.719 38.9866 136.578C39.0474 136.436 39.0777 136.274 39.0777 136.092C39.0777 135.751 38.9715 135.492 38.759 135.313C38.5464 135.134 38.2547 135.045 37.8836 135.045ZM41.4861 141.228C41.4861 141.099 41.503 140.991 41.5367 140.904C41.5704 140.813 41.616 140.74 41.6733 140.686C41.7307 140.629 41.7981 140.588 41.8757 140.565C41.9533 140.538 42.0376 140.524 42.1287 140.524C42.2164 140.524 42.299 140.538 42.3766 140.565C42.4576 140.588 42.5267 140.629 42.5841 140.686C42.6414 140.74 42.6869 140.813 42.7207 140.904C42.7544 140.991 42.7713 141.099 42.7713 141.228C42.7713 141.352 42.7544 141.46 42.7207 141.551C42.6869 141.639 42.6414 141.712 42.5841 141.769C42.5267 141.826 42.4576 141.868 42.3766 141.895C42.299 141.922 42.2164 141.936 42.1287 141.936C42.0376 141.936 41.9533 141.922 41.8757 141.895C41.7981 141.868 41.7307 141.826 41.6733 141.769C41.616 141.712 41.5704 141.639 41.5367 141.551C41.503 141.46 41.4861 141.352 41.4861 141.228ZM46.2827 137.251C46.6166 137.251 46.9269 137.298 47.2137 137.392C47.5038 137.483 47.755 137.62 47.9676 137.802C48.1834 137.984 48.3521 138.21 48.4735 138.48C48.595 138.75 48.6557 139.062 48.6557 139.416C48.6557 139.801 48.5983 140.146 48.4836 140.453C48.369 140.76 48.1986 141.02 47.9726 141.233C47.7466 141.445 47.4666 141.609 47.1327 141.723C46.8021 141.835 46.421 141.89 45.9892 141.89C45.8172 141.89 45.6469 141.882 45.4782 141.865C45.3129 141.848 45.1527 141.823 44.9975 141.789C44.8457 141.759 44.7007 141.718 44.5624 141.668C44.4241 141.617 44.2993 141.558 44.188 141.491V140.62C44.2993 140.698 44.4292 140.767 44.5776 140.828C44.7294 140.889 44.8879 140.939 45.0532 140.98C45.2185 141.02 45.3837 141.052 45.549 141.076C45.7177 141.096 45.8729 141.106 46.0145 141.106C46.281 141.106 46.5188 141.076 46.7279 141.015C46.9371 140.951 47.1142 140.853 47.2592 140.722C47.4042 140.59 47.5156 140.425 47.5931 140.226C47.6707 140.027 47.7095 139.791 47.7095 139.517C47.7095 139.035 47.5611 138.667 47.2643 138.414C46.9674 138.158 46.5357 138.03 45.969 138.03C45.8779 138.03 45.7784 138.035 45.6705 138.045C45.5659 138.052 45.4596 138.062 45.3517 138.075C45.2471 138.089 45.1459 138.104 45.0481 138.121C44.9537 138.134 44.871 138.148 44.8002 138.161L44.3448 137.873L44.6231 134.392H48.1143V135.232H45.4225L45.2252 137.352C45.3332 137.332 45.4748 137.31 45.6502 137.286C45.829 137.262 46.0398 137.251 46.2827 137.251Z" fill="white"/>
<path d="M52.9789 134.554V141.789H52.0429V134.554H52.9789ZM54.856 141.789V134.554H56.0451L58.7014 140.59L61.3071 134.554H62.4455V141.789H61.6107V135.854L59.0404 141.789H58.3017L55.6909 135.854V141.789H54.856ZM66.7969 141.03C68.5677 141.03 69.4532 140.012 69.4532 137.974C69.4532 136.2 68.5677 135.313 66.7969 135.313H65.1019V141.03H66.7969ZM64.1658 141.789V134.554H66.7969C69.1918 134.554 70.3892 135.694 70.3892 137.974C70.3892 140.518 69.1918 141.789 66.7969 141.789H64.1658ZM72.5902 140.863C72.8971 140.961 73.2699 141.01 73.7084 141.01C74.889 141.01 75.4793 140.337 75.4793 138.991C75.4793 137.854 74.9446 137.286 73.8753 137.286C73.3896 137.286 72.9612 137.377 72.5902 137.559V140.863ZM71.6541 134.554H72.5902V136.73C72.9916 136.561 73.4217 136.477 73.8804 136.477C75.5602 136.477 76.4001 137.327 76.4001 139.027C76.4001 140.868 75.518 141.789 73.7539 141.789C72.9916 141.789 72.2917 141.717 71.6541 141.572V134.554Z" fill="white"/>
<path d="M29.3784 158.553H24.4149V157.465L26.1554 155.588C26.3747 155.352 26.5737 155.134 26.7525 154.935C26.9312 154.736 27.0847 154.542 27.2129 154.354C27.3411 154.165 27.4406 153.972 27.5114 153.777C27.5822 153.581 27.6177 153.37 27.6177 153.144C27.6177 152.895 27.5418 152.701 27.39 152.562C27.2416 152.424 27.0409 152.355 26.7879 152.355C26.5214 152.355 26.265 152.421 26.0188 152.552C25.7726 152.684 25.5145 152.871 25.2447 153.114L24.3947 152.107C24.5464 151.969 24.705 151.837 24.8703 151.712C25.0355 151.584 25.2177 151.471 25.4167 151.373C25.6157 151.276 25.835 151.198 26.0745 151.141C26.314 151.08 26.5821 151.05 26.879 151.05C27.2331 151.05 27.5502 151.098 27.8302 151.196C28.1135 151.294 28.3547 151.434 28.5537 151.616C28.7527 151.795 28.9045 152.013 29.0091 152.269C29.117 152.525 29.171 152.814 29.171 153.134C29.171 153.424 29.1204 153.703 29.0192 153.969C28.918 154.232 28.7797 154.492 28.6043 154.748C28.4289 155.001 28.2248 155.254 27.9921 155.507C27.7627 155.757 27.5165 156.011 27.2534 156.271L26.3629 157.167V157.238H29.3784V158.553ZM35.0959 154.854C35.0959 155.451 35.0486 155.984 34.9542 156.453C34.8631 156.922 34.7147 157.32 34.5089 157.647C34.3065 157.975 34.0434 158.224 33.7196 158.396C33.3992 158.568 33.0113 158.654 32.5559 158.654C32.1275 158.654 31.7548 158.568 31.4377 158.396C31.1206 158.224 30.8575 157.975 30.6484 157.647C30.4393 157.32 30.2824 156.922 30.1779 156.453C30.0767 155.984 30.0261 155.451 30.0261 154.854C30.0261 154.257 30.0716 153.723 30.1627 153.251C30.2571 152.778 30.4055 152.379 30.6079 152.051C30.8103 151.724 31.0717 151.475 31.3922 151.303C31.7126 151.127 32.1005 151.039 32.5559 151.039C32.9809 151.039 33.352 151.125 33.669 151.297C33.9861 151.47 34.2509 151.719 34.4634 152.046C34.6759 152.373 34.8344 152.773 34.939 153.245C35.0436 153.718 35.0959 154.254 35.0959 154.854ZM31.5844 154.854C31.5844 155.698 31.657 156.332 31.802 156.757C31.9471 157.182 32.1984 157.394 32.5559 157.394C32.9067 157.394 33.158 157.184 33.3098 156.762C33.465 156.34 33.5425 155.704 33.5425 154.854C33.5425 154.008 33.465 153.372 33.3098 152.947C33.158 152.519 32.9067 152.304 32.5559 152.304C32.3771 152.304 32.2253 152.358 32.1005 152.466C31.9791 152.574 31.8796 152.734 31.802 152.947C31.7244 153.159 31.6688 153.426 31.635 153.746C31.6013 154.063 31.5844 154.433 31.5844 154.854ZM39.5484 158.553H37.9849V154.273C37.9849 154.185 37.9849 154.08 37.9849 153.959C37.9883 153.834 37.9917 153.706 37.995 153.574C38.0018 153.439 38.0069 153.304 38.0102 153.17C38.017 153.035 38.022 152.912 38.0254 152.8C38.0085 152.82 37.9799 152.851 37.9394 152.891C37.8989 152.932 37.8534 152.977 37.8028 153.028C37.7522 153.075 37.6999 153.124 37.6459 153.175C37.592 153.225 37.5397 153.271 37.4891 153.311L36.6391 153.994L35.8801 153.053L38.2632 151.156H39.5484V158.553ZM43.9806 151.06C44.2876 151.06 44.5777 151.097 44.8509 151.171C45.1241 151.245 45.3636 151.357 45.5694 151.505C45.7751 151.653 45.9387 151.839 46.0602 152.061C46.1816 152.284 46.2423 152.546 46.2423 152.846C46.2423 153.068 46.2086 153.271 46.1411 153.453C46.0737 153.632 45.9809 153.795 45.8628 153.944C45.7448 154.089 45.6048 154.219 45.4429 154.333C45.281 154.448 45.1056 154.553 44.9167 154.647C45.1123 154.752 45.3029 154.868 45.4884 154.996C45.6773 155.124 45.8443 155.269 45.9893 155.431C46.1344 155.59 46.2507 155.769 46.3384 155.968C46.4261 156.167 46.47 156.389 46.47 156.635C46.47 156.942 46.4093 157.221 46.2878 157.47C46.1664 157.72 45.9961 157.932 45.7768 158.108C45.5576 158.283 45.2945 158.418 44.9875 158.513C44.6839 158.607 44.3483 158.654 43.9806 158.654C43.5826 158.654 43.2284 158.609 42.9181 158.518C42.6078 158.427 42.3464 158.297 42.1339 158.128C41.9214 157.959 41.7594 157.752 41.6481 157.506C41.5402 157.259 41.4862 156.983 41.4862 156.676C41.4862 156.423 41.5233 156.195 41.5975 155.993C41.6717 155.79 41.7729 155.608 41.9011 155.446C42.0293 155.284 42.1794 155.141 42.3514 155.016C42.5235 154.892 42.7073 154.782 42.9029 154.687C42.7376 154.583 42.5825 154.47 42.4374 154.348C42.2924 154.224 42.1659 154.087 42.058 153.939C41.9534 153.787 41.8691 153.62 41.805 153.438C41.7443 153.256 41.7139 153.055 41.7139 152.836C41.7139 152.542 41.7746 152.286 41.8961 152.067C42.0209 151.844 42.1878 151.658 42.397 151.51C42.6061 151.358 42.8473 151.245 43.1205 151.171C43.3937 151.097 43.6804 151.06 43.9806 151.06ZM42.9333 156.585C42.9333 156.72 42.9552 156.845 42.9991 156.959C43.0429 157.071 43.107 157.167 43.1913 157.248C43.279 157.329 43.387 157.393 43.5151 157.44C43.6433 157.484 43.7917 157.506 43.9604 157.506C44.3146 157.506 44.5794 157.423 44.7548 157.258C44.9302 157.089 45.0179 156.868 45.0179 156.595C45.0179 156.453 44.9875 156.327 44.9268 156.215C44.8695 156.101 44.7936 155.996 44.6991 155.902C44.608 155.804 44.5035 155.715 44.3854 155.634C44.2674 155.553 44.1493 155.475 44.0312 155.401L43.9199 155.33C43.7715 155.404 43.6366 155.485 43.5151 155.573C43.3937 155.657 43.2892 155.752 43.2014 155.856C43.1171 155.957 43.0513 156.069 43.0041 156.19C42.9569 156.312 42.9333 156.443 42.9333 156.585ZM43.9705 152.203C43.8592 152.203 43.7546 152.22 43.6568 152.254C43.5624 152.287 43.4797 152.336 43.4089 152.4C43.3414 152.465 43.2875 152.544 43.247 152.638C43.2065 152.733 43.1863 152.839 43.1863 152.957C43.1863 153.099 43.2065 153.222 43.247 153.326C43.2908 153.428 43.3482 153.519 43.419 153.6C43.4932 153.677 43.5776 153.748 43.672 153.812C43.7698 153.873 43.8727 153.934 43.9806 153.994C44.0852 153.94 44.1847 153.881 44.2792 153.817C44.3736 153.753 44.4562 153.681 44.5271 153.6C44.6013 153.515 44.6603 153.421 44.7042 153.316C44.748 153.212 44.7699 153.092 44.7699 152.957C44.7699 152.839 44.7497 152.733 44.7092 152.638C44.6688 152.544 44.6131 152.465 44.5423 152.4C44.4714 152.336 44.3871 152.287 44.2893 152.254C44.1915 152.22 44.0852 152.203 43.9705 152.203Z" fill="white"/>
<path d="M64.5378 153.215C64.28 153.215 64.0463 153.265 63.8366 153.363C63.627 153.46 63.4475 153.6 63.2981 153.783C63.1512 153.966 63.0367 154.189 62.9548 154.451C62.8753 154.714 62.8355 155.01 62.8355 155.34C62.8355 155.68 62.8705 155.982 62.9404 156.247C63.0126 156.51 63.1199 156.732 63.262 156.912C63.4042 157.093 63.5812 157.23 63.7933 157.324C64.0053 157.418 64.2535 157.465 64.5378 157.465C64.7522 157.465 64.9558 157.445 65.1485 157.404C65.3413 157.361 65.5316 157.311 65.7196 157.256V157.841C65.6256 157.877 65.5316 157.91 65.4377 157.939C65.3437 157.965 65.2449 157.987 65.1413 158.004C65.0401 158.021 64.9305 158.033 64.8124 158.04C64.6968 158.05 64.5679 158.054 64.4257 158.054C64.0306 158.054 63.6885 157.989 63.3993 157.859C63.1102 157.729 62.8705 157.545 62.6801 157.306C62.4922 157.068 62.3525 156.781 62.2609 156.446C62.1694 156.111 62.1236 155.74 62.1236 155.333C62.1236 154.933 62.1754 154.567 62.279 154.234C62.385 153.902 62.5392 153.616 62.7416 153.378C62.9464 153.139 63.1994 152.954 63.5005 152.821C63.8017 152.689 64.1474 152.623 64.5378 152.623C64.798 152.623 65.0461 152.649 65.2823 152.702C65.5184 152.755 65.7316 152.832 65.9219 152.933L65.64 153.497C65.4883 153.42 65.3232 153.354 65.1449 153.298C64.9666 153.243 64.7642 153.215 64.5378 153.215ZM68.8529 153.215C68.5951 153.215 68.3614 153.265 68.1518 153.363C67.9422 153.46 67.7627 153.6 67.6133 153.783C67.4663 153.966 67.3519 154.189 67.27 154.451C67.1905 154.714 67.1507 155.01 67.1507 155.34C67.1507 155.68 67.1857 155.982 67.2555 156.247C67.3278 156.51 67.435 156.732 67.5772 156.912C67.7193 157.093 67.8964 157.23 68.1084 157.324C68.3205 157.418 68.5686 157.465 68.8529 157.465C69.0674 157.465 69.271 157.445 69.4637 157.404C69.6565 157.361 69.8468 157.311 70.0347 157.256V157.841C69.9408 157.877 69.8468 157.91 69.7528 157.939C69.6589 157.965 69.5601 157.987 69.4565 158.004C69.3553 158.021 69.2457 158.033 69.1276 158.04C69.012 158.05 68.8831 158.054 68.7409 158.054C68.3458 158.054 68.0036 157.989 67.7145 157.859C67.4254 157.729 67.1857 157.545 66.9953 157.306C66.8074 157.068 66.6676 156.781 66.5761 156.446C66.4845 156.111 66.4388 155.74 66.4388 155.333C66.4388 154.933 66.4906 154.567 66.5942 154.234C66.7002 153.902 66.8544 153.616 67.0568 153.378C67.2616 153.139 67.5145 152.954 67.8157 152.821C68.1169 152.689 68.4626 152.623 68.8529 152.623C69.1132 152.623 69.3613 152.649 69.5974 152.702C69.8336 152.755 70.0468 152.832 70.2371 152.933L69.9552 153.497C69.8034 153.42 69.6384 153.354 69.4601 153.298C69.2818 153.243 69.0794 153.215 68.8529 153.215Z" fill="white"/>
<rect x="58.2913" y="150.242" width="15.5433" height="9.62205" rx="1.85039" stroke="white" stroke-width="0.740158"/>
<path d="M86.5726 157.982H85.9365V154.683C85.9365 154.579 85.9365 154.468 85.9365 154.35C85.939 154.232 85.9414 154.115 85.9438 153.999C85.9486 153.881 85.9522 153.769 85.9546 153.663C85.9594 153.555 85.963 153.46 85.9655 153.378C85.9245 153.421 85.8884 153.459 85.857 153.49C85.8257 153.521 85.7932 153.551 85.7595 153.58C85.7281 153.609 85.6944 153.64 85.6583 153.674C85.6221 153.706 85.5788 153.743 85.5282 153.786L84.9933 154.224L84.6463 153.779L86.0305 152.698H86.5726V157.982ZM88.4881 155.723C88.4881 155.47 88.5001 155.219 88.5242 154.968C88.5507 154.717 88.5953 154.478 88.6579 154.249C88.723 154.018 88.8109 153.803 88.9217 153.606C89.0326 153.408 89.1735 153.237 89.3446 153.092C89.5157 152.945 89.7205 152.831 89.959 152.749C90.1975 152.665 90.477 152.623 90.7974 152.623C90.8432 152.623 90.8938 152.624 90.9492 152.626C91.0046 152.629 91.0601 152.633 91.1155 152.641C91.1733 152.645 91.2275 152.653 91.2781 152.662C91.3311 152.67 91.3781 152.679 91.4191 152.691V153.251C91.3347 153.222 91.2396 153.201 91.1335 153.186C91.0275 153.172 90.9227 153.165 90.8191 153.165C90.6023 153.165 90.4107 153.191 90.2445 153.244C90.0807 153.295 89.9385 153.367 89.818 153.461C89.6976 153.555 89.5964 153.667 89.5145 153.797C89.4349 153.927 89.3699 154.072 89.3193 154.231C89.2687 154.387 89.2314 154.555 89.2073 154.733C89.1832 154.911 89.1675 155.097 89.1603 155.29H89.2036C89.2518 155.203 89.3097 155.122 89.3771 155.048C89.447 154.97 89.5277 154.905 89.6193 154.852C89.7108 154.797 89.8132 154.754 89.9265 154.722C90.0421 154.691 90.171 154.675 90.3132 154.675C90.542 154.675 90.7493 154.711 90.9348 154.784C91.1203 154.854 91.2781 154.957 91.4082 155.095C91.5383 155.232 91.6383 155.401 91.7082 155.601C91.7805 155.798 91.8166 156.025 91.8166 156.28C91.8166 156.555 91.7793 156.802 91.7046 157.021C91.6299 157.24 91.5227 157.427 91.3829 157.581C91.2432 157.733 91.0745 157.85 90.8769 157.932C90.6794 158.013 90.4577 158.054 90.212 158.054C89.971 158.054 89.7445 158.007 89.5325 157.914C89.3229 157.82 89.141 157.676 88.9868 157.483C88.8326 157.291 88.7109 157.049 88.6218 156.757C88.5326 156.465 88.4881 156.121 88.4881 155.723ZM90.2047 157.502C90.3493 157.502 90.4806 157.477 90.5987 157.429C90.7191 157.379 90.8227 157.304 90.9095 157.205C90.9962 157.104 91.0625 156.977 91.1082 156.826C91.1564 156.671 91.1805 156.49 91.1805 156.28C91.1805 156.111 91.1601 155.961 91.1191 155.828C91.0805 155.693 91.0215 155.579 90.942 155.485C90.8625 155.391 90.7625 155.319 90.642 155.268C90.524 155.217 90.3854 155.192 90.2264 155.192C90.065 155.192 89.9168 155.221 89.7819 155.279C89.6494 155.334 89.5361 155.408 89.4422 155.499C89.3482 155.588 89.2747 155.691 89.2217 155.807C89.1711 155.922 89.1458 156.038 89.1458 156.153C89.1458 156.315 89.1675 156.476 89.2109 156.638C89.2567 156.797 89.3229 156.94 89.4096 157.068C89.4988 157.196 89.6096 157.3 89.7421 157.382C89.8747 157.462 90.0289 157.502 90.2047 157.502ZM93.9236 155.644H92.525V155.102H93.9236V153.696H94.4657V155.102H95.8643V155.644H94.4657V157.035H93.9236V155.644Z" fill="white"/>
<rect x="80.4961" y="150.242" width="19.2441" height="9.62205" rx="1.85039" stroke="white" stroke-width="0.740158"/>
<circle cx="25.1102" cy="172.396" r="1.11024" fill="#E1E1E1" fill-opacity="0.5"/>
<path d="M33.1935 169.222C32.8325 169.222 32.5054 169.291 32.2119 169.429C31.9184 169.564 31.6671 169.76 31.458 170.016C31.2522 170.273 31.092 170.585 30.9773 170.952C30.866 171.32 30.8104 171.735 30.8104 172.197C30.8104 172.673 30.8593 173.096 30.9571 173.467C31.0583 173.835 31.2084 174.145 31.4074 174.398C31.6064 174.651 31.8543 174.843 32.1512 174.975C32.448 175.106 32.7954 175.172 33.1935 175.172C33.4937 175.172 33.7787 175.143 34.0486 175.086C34.3184 175.025 34.5849 174.956 34.848 174.879V175.698C34.7164 175.749 34.5849 175.794 34.4533 175.835C34.3218 175.872 34.1835 175.902 34.0384 175.926C33.8968 175.95 33.7433 175.966 33.578 175.977C33.4161 175.99 33.2356 175.997 33.0366 175.997C32.4834 175.997 32.0044 175.906 31.5997 175.724C31.1949 175.541 30.8593 175.283 30.5928 174.949C30.3297 174.615 30.1341 174.214 30.0059 173.745C29.8777 173.276 29.8136 172.757 29.8136 172.187C29.8136 171.627 29.8861 171.114 30.0312 170.649C30.1796 170.183 30.3955 169.783 30.6788 169.45C30.9655 169.116 31.3197 168.856 31.7413 168.67C32.163 168.485 32.647 168.392 33.1935 168.392C33.5578 168.392 33.9052 168.429 34.2358 168.503C34.5663 168.578 34.8648 168.686 35.1313 168.827L34.7367 169.617C34.5242 169.509 34.2931 169.416 34.0435 169.338C33.7939 169.261 33.5105 169.222 33.1935 169.222ZM40.8437 173.108C40.8437 173.57 40.7864 173.981 40.6717 174.342C40.5604 174.7 40.3984 175.002 40.1859 175.248C39.9768 175.491 39.7221 175.676 39.4219 175.804C39.1217 175.933 38.7844 175.997 38.41 175.997C38.0626 175.997 37.7421 175.933 37.4487 175.804C37.1552 175.676 36.9005 175.491 36.6846 175.248C36.4721 175.002 36.3052 174.7 36.1837 174.342C36.0657 173.981 36.0066 173.57 36.0066 173.108C36.0066 172.649 36.0623 172.242 36.1736 171.888C36.2883 171.531 36.4502 171.231 36.6593 170.988C36.8685 170.741 37.1231 170.556 37.4234 170.431C37.7269 170.303 38.0659 170.239 38.4403 170.239C38.7878 170.239 39.1082 170.303 39.4017 170.431C39.6951 170.556 39.9481 170.741 40.1606 170.988C40.3765 171.231 40.5435 171.531 40.6615 171.888C40.783 172.242 40.8437 172.649 40.8437 173.108ZM36.9579 173.108C36.9579 173.813 37.0726 174.344 37.3019 174.701C37.5347 175.056 37.9108 175.233 38.4302 175.233C38.9497 175.233 39.3224 175.056 39.5484 174.701C39.7778 174.344 39.8925 173.813 39.8925 173.108C39.8925 172.403 39.7761 171.877 39.5434 171.529C39.314 171.178 38.9396 171.003 38.4201 171.003C37.9007 171.003 37.5262 171.178 37.2969 171.529C37.0709 171.877 36.9579 172.403 36.9579 173.108ZM48.9493 175.896V172.318C48.9493 171.88 48.865 171.551 48.6963 171.332C48.5276 171.112 48.2662 171.003 47.9121 171.003C47.6658 171.003 47.4567 171.043 47.2847 171.124C47.1126 171.202 46.971 171.318 46.8596 171.473C46.7517 171.625 46.6724 171.816 46.6218 172.045C46.5712 172.271 46.5459 172.533 46.5459 172.829V175.896H45.62V172.318C45.62 171.88 45.5357 171.551 45.367 171.332C45.2018 171.112 44.942 171.003 44.5878 171.003C44.3281 171.003 44.1106 171.047 43.9352 171.134C43.7597 171.222 43.6181 171.352 43.5101 171.524C43.4056 171.696 43.3297 171.907 43.2825 172.156C43.2386 172.406 43.2167 172.693 43.2167 173.017V175.896H42.2958V170.34H43.0446L43.1762 171.089H43.2268C43.3078 170.944 43.4039 170.819 43.5152 170.714C43.6265 170.607 43.7479 170.517 43.8795 170.446C44.0144 170.375 44.1561 170.323 44.3045 170.289C44.4563 170.256 44.6098 170.239 44.7649 170.239C45.1697 170.239 45.5053 170.313 45.7718 170.461C46.0417 170.61 46.2407 170.843 46.3689 171.16H46.4093C46.497 171.001 46.6016 170.865 46.723 170.75C46.8478 170.635 46.9828 170.541 47.1278 170.467C47.2762 170.389 47.4314 170.332 47.5933 170.295C47.7552 170.257 47.9205 170.239 48.0891 170.239C48.6794 170.239 49.123 170.401 49.4198 170.725C49.72 171.045 49.8701 171.559 49.8701 172.268V175.896H48.9493ZM53.7813 175.997C53.4102 175.997 53.0712 175.934 52.7643 175.81C52.4573 175.685 52.1925 175.503 51.9699 175.263C51.7507 175.024 51.5803 174.727 51.4589 174.373C51.3374 174.018 51.2767 173.614 51.2767 173.158C51.2767 172.7 51.3324 172.29 51.4437 171.929C51.555 171.568 51.7119 171.263 51.9143 171.013C52.1166 170.76 52.3578 170.568 52.6378 170.436C52.9211 170.305 53.2331 170.239 53.5738 170.239C53.9078 170.239 54.208 170.3 54.4744 170.421C54.7409 170.539 54.9669 170.708 55.1524 170.927C55.338 171.143 55.4796 171.404 55.5775 171.711C55.6786 172.015 55.7292 172.352 55.7292 172.723V173.295H52.228C52.2448 173.946 52.3814 174.425 52.6378 174.732C52.8975 175.039 53.282 175.192 53.7914 175.192C53.9634 175.192 54.122 175.184 54.267 175.167C54.4154 175.15 54.5571 175.126 54.692 175.096C54.8303 175.062 54.9635 175.022 55.0917 174.975C55.2199 174.924 55.3498 174.868 55.4813 174.808V175.627C55.3464 175.691 55.2132 175.747 55.0816 175.794C54.9534 175.842 54.8202 175.88 54.6819 175.911C54.547 175.941 54.4053 175.963 54.2569 175.977C54.1118 175.99 53.9533 175.997 53.7813 175.997ZM53.5536 171.003C53.169 171.003 52.8638 171.134 52.6378 171.398C52.4152 171.661 52.2853 172.043 52.2482 172.546H54.7375C54.7375 172.317 54.7139 172.108 54.6667 171.919C54.6229 171.726 54.552 171.563 54.4542 171.428C54.3598 171.293 54.2383 171.188 54.0899 171.114C53.9415 171.04 53.7627 171.003 53.5536 171.003ZM60.5612 175.152H60.5208C60.4465 175.266 60.3588 175.376 60.2577 175.481C60.1598 175.582 60.0451 175.671 59.9136 175.749C59.7854 175.826 59.6404 175.887 59.4785 175.931C59.3166 175.975 59.1344 175.997 58.932 175.997C58.6183 175.997 58.3316 175.936 58.0719 175.815C57.8121 175.693 57.5895 175.513 57.404 175.273C57.2185 175.03 57.0751 174.73 56.9739 174.373C56.8727 174.015 56.8221 173.6 56.8221 173.128C56.8221 172.652 56.8727 172.236 56.9739 171.878C57.0751 171.517 57.2185 171.215 57.404 170.973C57.5895 170.73 57.8121 170.547 58.0719 170.426C58.3316 170.301 58.6183 170.239 58.932 170.239C59.131 170.239 59.3115 170.261 59.4734 170.305C59.6353 170.348 59.7804 170.408 59.9085 170.482C60.0401 170.556 60.1565 170.642 60.2577 170.74C60.3588 170.838 60.4465 170.94 60.5208 171.048H60.5815C60.5713 170.934 60.5612 170.824 60.5511 170.72C60.5444 170.632 60.5376 170.542 60.5309 170.451C60.5241 170.357 60.5208 170.283 60.5208 170.229V168.023H61.4416V175.896H60.6978L60.5612 175.152ZM59.1091 175.233C59.3655 175.233 59.5813 175.194 59.7567 175.116C59.9355 175.039 60.0789 174.921 60.1868 174.762C60.2981 174.604 60.3791 174.406 60.4297 174.17C60.4836 173.931 60.514 173.652 60.5208 173.335V173.128C60.5208 172.787 60.4971 172.485 60.4499 172.222C60.4061 171.956 60.3285 171.733 60.2172 171.554C60.1092 171.372 59.9642 171.236 59.782 171.145C59.5999 171.05 59.3722 171.003 59.099 171.003C58.6436 171.003 58.308 171.187 58.0921 171.554C57.8796 171.922 57.7734 172.45 57.7734 173.138C57.7734 173.843 57.8796 174.369 58.0921 174.717C58.308 175.061 58.647 175.233 59.1091 175.233ZM62.3726 170.34H63.3289L64.4167 173.442C64.4639 173.577 64.5111 173.718 64.5584 173.867C64.609 174.015 64.6545 174.163 64.695 174.312C64.7388 174.46 64.7759 174.604 64.8063 174.742C64.8367 174.88 64.8586 175.008 64.8721 175.126H64.9024C64.9193 175.042 64.9463 174.927 64.9834 174.782C65.0205 174.637 65.061 174.484 65.1048 174.322C65.152 174.157 65.1993 173.995 65.2465 173.836C65.2971 173.678 65.3409 173.543 65.378 173.432L66.3849 170.34H67.3361L65.1402 176.619C65.0458 176.892 64.9429 177.137 64.8316 177.353C64.7237 177.572 64.5972 177.758 64.4521 177.909C64.3071 178.061 64.1367 178.177 63.9411 178.258C63.7454 178.343 63.5127 178.385 63.2429 178.385C63.0675 178.385 62.9157 178.375 62.7875 178.355C62.6593 178.338 62.5497 178.319 62.4586 178.299V177.565C62.5294 177.582 62.6188 177.596 62.7268 177.606C62.8347 177.619 62.9477 177.626 63.0658 177.626C63.2277 177.626 63.3677 177.606 63.4857 177.565C63.6038 177.528 63.7067 177.472 63.7944 177.398C63.8821 177.324 63.9563 177.233 64.017 177.125C64.0811 177.017 64.1384 176.894 64.189 176.756L64.4774 175.946L62.3726 170.34Z" fill="white"/>
<g clip-path="url(#clip3)">
<circle cx="79.6929" cy="172.396" r="1.11024" fill="#E1E1E1" fill-opacity="0.5"/>
<path d="M90.2199 172.705C90.2199 173.329 90.139 173.877 89.9771 174.349C89.8152 174.818 89.5807 175.211 89.2738 175.528C88.9668 175.842 88.589 176.078 88.1404 176.236C87.6952 176.395 87.1892 176.474 86.6225 176.474H84.7707V169.077H86.83C87.346 169.077 87.8132 169.155 88.2315 169.31C88.6497 169.465 89.0056 169.696 89.2991 170.003C89.5925 170.307 89.8185 170.684 89.9771 171.136C90.139 171.588 90.2199 172.111 90.2199 172.705ZM89.2232 172.735C89.2232 172.243 89.1675 171.818 89.0562 171.46C88.9449 171.099 88.783 170.802 88.5705 170.57C88.358 170.337 88.0966 170.165 87.7862 170.054C87.4759 169.939 87.1234 169.882 86.7288 169.882H85.7118V175.665H86.5314C87.4219 175.665 88.0932 175.419 88.5452 174.926C88.9972 174.434 89.2232 173.703 89.2232 172.735ZM94.1412 170.818C94.239 170.818 94.3486 170.823 94.4701 170.833C94.5915 170.84 94.6961 170.851 94.7838 170.868L94.6623 171.718C94.5679 171.701 94.4701 171.688 94.3689 171.678C94.271 171.664 94.1783 171.657 94.0906 171.657C93.8781 171.657 93.6841 171.701 93.5087 171.789C93.3333 171.873 93.1815 171.996 93.0533 172.158C92.9285 172.317 92.8307 172.509 92.7599 172.735C92.6924 172.958 92.6587 173.206 92.6587 173.479V176.474H91.7378V170.919H92.4867L92.598 171.936H92.6385C92.7228 171.791 92.8122 171.651 92.9066 171.516C93.0044 171.381 93.1124 171.263 93.2304 171.162C93.3519 171.057 93.4868 170.974 93.6352 170.914C93.7836 170.85 93.9523 170.818 94.1412 170.818ZM98.9074 176.474L98.7202 175.705H98.6797C98.5684 175.857 98.4571 175.989 98.3458 176.1C98.2345 176.208 98.113 176.297 97.9815 176.368C97.8499 176.439 97.7032 176.491 97.5413 176.525C97.3794 176.559 97.1922 176.575 96.9797 176.575C96.7469 176.575 96.5327 176.542 96.3371 176.474C96.1414 176.41 95.9711 176.311 95.826 176.176C95.6844 176.037 95.5731 175.865 95.4921 175.66C95.4112 175.451 95.3707 175.204 95.3707 174.921C95.3707 174.368 95.5646 173.943 95.9525 173.646C96.3438 173.349 96.9375 173.187 97.7335 173.16L98.6645 173.125V172.776C98.6645 172.55 98.6392 172.361 98.5886 172.209C98.5414 172.057 98.4706 171.936 98.3761 171.845C98.285 171.75 98.1704 171.683 98.0321 171.642C97.8971 171.602 97.742 171.582 97.5666 171.582C97.2866 171.582 97.0252 171.622 96.7823 171.703C96.5428 171.784 96.3118 171.882 96.0892 171.996L95.7653 171.303C96.0149 171.168 96.2932 171.054 96.6002 170.959C96.9071 170.865 97.2293 170.818 97.5666 170.818C97.9106 170.818 98.2075 170.853 98.4571 170.924C98.7101 170.991 98.9175 171.101 99.0794 171.253C99.2447 171.401 99.3678 171.592 99.4488 171.824C99.5297 172.057 99.5702 172.339 99.5702 172.669V176.474H98.9074ZM97.2175 175.832C97.4232 175.832 97.6138 175.8 97.7892 175.736C97.9646 175.672 98.1164 175.575 98.2446 175.447C98.3727 175.316 98.4723 175.152 98.5431 174.956C98.6173 174.757 98.6544 174.525 98.6544 174.258V173.757L97.9309 173.793C97.6273 173.806 97.3726 173.84 97.1669 173.894C96.9611 173.948 96.7958 174.024 96.671 174.122C96.5496 174.216 96.4619 174.332 96.4079 174.471C96.3539 174.606 96.327 174.759 96.327 174.931C96.327 175.241 96.4079 175.469 96.5698 175.614C96.7351 175.759 96.951 175.832 97.2175 175.832ZM107.934 176.474V172.897C107.934 172.459 107.85 172.13 107.681 171.91C107.512 171.691 107.251 171.582 106.897 171.582C106.65 171.582 106.441 171.622 106.269 171.703C106.097 171.781 105.956 171.897 105.844 172.052C105.736 172.204 105.657 172.395 105.606 172.624C105.556 172.85 105.53 173.111 105.53 173.408V176.474H104.605V172.897C104.605 172.459 104.52 172.13 104.352 171.91C104.186 171.691 103.927 171.582 103.572 171.582C103.313 171.582 103.095 171.625 102.92 171.713C102.744 171.801 102.603 171.931 102.495 172.103C102.39 172.275 102.314 172.486 102.267 172.735C102.223 172.985 102.201 173.272 102.201 173.595V176.474H101.28V170.919H102.029L102.161 171.668H102.211C102.292 171.523 102.388 171.398 102.5 171.293C102.611 171.185 102.733 171.096 102.864 171.025C102.999 170.954 103.141 170.902 103.289 170.868C103.441 170.834 103.594 170.818 103.749 170.818C104.154 170.818 104.49 170.892 104.756 171.04C105.026 171.189 105.225 171.421 105.353 171.738H105.394C105.482 171.58 105.586 171.443 105.708 171.329C105.832 171.214 105.967 171.119 106.112 171.045C106.261 170.968 106.416 170.91 106.578 170.873C106.74 170.836 106.905 170.818 107.074 170.818C107.664 170.818 108.108 170.98 108.404 171.303C108.705 171.624 108.855 172.138 108.855 172.847V176.474H107.934ZM113.702 176.474L113.515 175.705H113.474C113.363 175.857 113.252 175.989 113.14 176.1C113.029 176.208 112.907 176.297 112.776 176.368C112.644 176.439 112.498 176.491 112.336 176.525C112.174 176.559 111.987 176.575 111.774 176.575C111.541 176.575 111.327 176.542 111.132 176.474C110.936 176.41 110.766 176.311 110.621 176.176C110.479 176.037 110.368 175.865 110.287 175.66C110.206 175.451 110.165 175.204 110.165 174.921C110.165 174.368 110.359 173.943 110.747 173.646C111.138 173.349 111.732 173.187 112.528 173.16L113.459 173.125V172.776C113.459 172.55 113.434 172.361 113.383 172.209C113.336 172.057 113.265 171.936 113.171 171.845C113.08 171.75 112.965 171.683 112.827 171.642C112.692 171.602 112.536 171.582 112.361 171.582C112.081 171.582 111.82 171.622 111.577 171.703C111.337 171.784 111.106 171.882 110.884 171.996L110.56 171.303C110.809 171.168 111.088 171.054 111.395 170.959C111.702 170.865 112.024 170.818 112.361 170.818C112.705 170.818 113.002 170.853 113.252 170.924C113.505 170.991 113.712 171.101 113.874 171.253C114.039 171.401 114.162 171.592 114.243 171.824C114.324 172.057 114.365 172.339 114.365 172.669V176.474H113.702ZM112.012 175.832C112.218 175.832 112.408 175.8 112.584 175.736C112.759 175.672 112.911 175.575 113.039 175.447C113.167 175.316 113.267 175.152 113.338 174.956C113.412 174.757 113.449 174.525 113.449 174.258V173.757L112.725 173.793C112.422 173.806 112.167 173.84 111.961 173.894C111.756 173.948 111.59 174.024 111.465 174.122C111.344 174.216 111.256 174.332 111.202 174.471C111.148 174.606 111.121 174.759 111.121 174.931C111.121 175.241 111.202 175.469 111.364 175.614C111.53 175.759 111.745 175.832 112.012 175.832Z" fill="white"/>
</g>
<g clip-path="url(#clip4)">
<path d="M202.444 162.957C198.222 162.957 194.844 166.335 194.844 170.556C194.844 174.778 198.222 178.156 202.444 178.156C206.666 178.156 210.043 174.778 210.043 170.556C210.043 166.335 206.666 162.957 202.444 162.957ZM202.444 177.235C198.794 177.235 195.766 174.206 195.766 170.556C195.766 166.907 198.794 163.878 202.444 163.878C206.094 163.878 209.122 166.907 209.122 170.556C209.122 174.206 206.094 177.235 202.444 177.235ZM199.066 169.712V171.401H205.821V169.712H199.066Z" fill="white"/>
</g>
<path d="M227.212 167.698C226.704 167.185 226.175 166.739 225.624 166.359C225.074 165.979 224.558 165.694 224.077 165.505C223.595 165.315 223.154 165.224 222.754 165.231C222.353 165.239 222.04 165.358 221.815 165.589C221.762 165.641 221.716 165.698 221.679 165.762C221.642 165.827 221.615 165.877 221.599 165.912C221.583 165.948 221.561 166.013 221.535 166.105C221.508 166.197 221.489 166.256 221.479 166.282L218.496 175.702L218.68 175.887C218.472 176.025 218.286 176.187 218.123 176.371C217.96 176.556 217.817 176.707 217.694 176.825C217.571 176.943 217.424 177.026 217.253 177.072C217.215 177.082 217.169 177.117 217.112 177.176C217.056 177.235 217.028 177.287 217.028 177.333C217.028 177.426 217.076 177.503 217.173 177.564C217.269 177.626 217.376 177.657 217.493 177.657C217.643 177.657 217.787 177.599 217.926 177.483C218.065 177.368 218.206 177.221 218.347 177.041C218.489 176.861 218.592 176.743 218.656 176.687C218.795 176.569 218.95 176.456 219.121 176.348L219.33 176.541L228.808 173.455C229.016 173.393 229.176 173.301 229.289 173.178C229.513 172.947 229.63 172.627 229.638 172.219C229.646 171.812 229.556 171.363 229.369 170.873C229.182 170.383 228.903 169.859 228.531 169.303C228.159 168.746 227.72 168.211 227.212 167.698ZM226.346 168.537C227.164 169.337 227.785 170.103 228.21 170.834C228.635 171.565 228.738 172.046 228.519 172.277C228.3 172.508 227.821 172.423 227.084 172.023C226.346 171.623 225.571 171.025 224.758 170.23C223.935 169.43 223.311 168.665 222.886 167.937C222.461 167.208 222.358 166.726 222.577 166.49C222.796 166.259 223.276 166.343 224.016 166.744C224.757 167.144 225.533 167.742 226.346 168.537ZM224.59 171.723C224.98 172.057 225.368 172.349 225.753 172.6C225.758 172.611 225.892 172.852 226.153 173.324L225.48 173.547C225.159 172.967 224.862 172.359 224.59 171.723ZM221.855 168.198C221.973 168.45 222.136 168.755 222.345 169.114C222.516 169.853 222.784 170.653 223.15 171.515C223.517 172.377 223.916 173.185 224.349 173.939L223.684 174.155C223.181 173.262 222.743 172.327 222.369 171.35C221.994 170.372 221.765 169.509 221.679 168.76L221.855 168.198ZM220.925 171.015C221.299 172.164 221.826 173.344 222.505 174.555L221.847 174.778C221.318 173.804 220.901 172.888 220.597 172.031L220.925 171.015ZM220.003 173.824C220.212 174.296 220.433 174.745 220.669 175.171L220.011 175.394C219.936 175.255 219.829 175.043 219.69 174.755L220.003 173.824ZM225.897 162.88L226.298 164.042L225.263 164.766H226.538L226.931 165.928L227.324 164.766H228.591L227.565 164.042L227.966 162.888L226.931 163.604L225.897 162.88ZM223.652 162.88L223.435 163.935L224.534 164.142L224.75 163.088L223.652 162.88ZM230.876 166.051L231.758 165.166L232.905 165.705L232.312 164.627L233.202 163.758L231.943 163.965L231.35 162.88L231.173 164.096L229.914 164.304L231.061 164.835L230.876 166.051ZM230.58 167.944L231.646 168.621L231.309 169.807L232.304 169.037L233.362 169.714L232.921 168.56L233.916 167.806L232.641 167.86L232.192 166.713L231.863 167.89L230.58 167.944ZM230.123 165.089L227.733 166.967L228.03 167.313L230.419 165.435L230.123 165.089ZM230.957 168.722L229.088 168.56L229.04 169.006L230.917 169.168L230.957 168.722ZM231.141 170.876L230.796 171.908L231.863 172.239L232.216 171.215L231.141 170.876Z" fill="white"/>
<path d="M275.222 172.667C274.827 172.669 274.438 172.76 274.083 172.932C273.727 173.105 273.415 173.355 273.17 173.664L269.312 171.253C269.453 170.799 269.453 170.313 269.312 169.86L273.17 167.448C273.561 167.933 274.112 168.263 274.724 168.381C275.336 168.499 275.97 168.396 276.513 168.091C277.057 167.787 277.475 167.299 277.693 166.716C277.912 166.132 277.917 165.49 277.708 164.903C277.498 164.316 277.088 163.822 276.549 163.509C276.01 163.196 275.378 163.083 274.764 163.191C274.15 163.3 273.595 163.622 273.196 164.1C272.797 164.579 272.58 165.183 272.584 165.807C272.586 166.043 272.622 166.277 272.689 166.503L268.832 168.915C268.491 168.486 268.026 168.174 267.5 168.022C266.974 167.869 266.413 167.884 265.896 168.065C265.379 168.245 264.931 168.582 264.614 169.028C264.297 169.475 264.127 170.009 264.127 170.556C264.127 171.104 264.297 171.638 264.614 172.084C264.931 172.531 265.379 172.867 265.896 173.048C266.413 173.228 266.974 173.243 267.5 173.091C268.026 172.938 268.491 172.626 268.832 172.197L272.689 174.609C272.622 174.835 272.586 175.07 272.584 175.306C272.584 175.828 272.739 176.338 273.029 176.772C273.318 177.206 273.731 177.544 274.213 177.744C274.695 177.943 275.225 177.995 275.737 177.894C276.249 177.792 276.719 177.541 277.088 177.172C277.457 176.803 277.709 176.332 277.81 175.821C277.912 175.309 277.86 174.778 277.66 174.296C277.461 173.814 277.122 173.402 276.688 173.112C276.255 172.822 275.744 172.667 275.222 172.667V172.667ZM275.222 164.223C275.536 164.223 275.842 164.316 276.102 164.49C276.362 164.664 276.565 164.911 276.685 165.201C276.805 165.49 276.836 165.808 276.775 166.115C276.714 166.423 276.563 166.705 276.342 166.926C276.121 167.148 275.838 167.298 275.531 167.359C275.224 167.42 274.906 167.389 274.617 167.269C274.327 167.149 274.08 166.947 273.906 166.686C273.732 166.426 273.639 166.12 273.639 165.807C273.639 165.387 273.806 164.984 274.103 164.687C274.4 164.39 274.803 164.223 275.222 164.223V164.223ZM266.779 172.139C266.466 172.139 266.16 172.047 265.899 171.873C265.639 171.699 265.436 171.451 265.316 171.162C265.196 170.873 265.165 170.554 265.226 170.247C265.287 169.94 265.438 169.658 265.659 169.437C265.881 169.215 266.163 169.064 266.47 169.003C266.777 168.942 267.095 168.974 267.385 169.093C267.674 169.213 267.921 169.416 268.095 169.677C268.269 169.937 268.362 170.243 268.362 170.556C268.362 170.976 268.195 171.379 267.898 171.676C267.601 171.973 267.199 172.139 266.779 172.139ZM275.222 176.889C274.909 176.889 274.603 176.796 274.343 176.622C274.083 176.448 273.88 176.201 273.76 175.912C273.64 175.622 273.609 175.304 273.67 174.997C273.731 174.69 273.882 174.408 274.103 174.186C274.324 173.965 274.607 173.814 274.914 173.753C275.221 173.692 275.539 173.723 275.828 173.843C276.118 173.963 276.365 174.166 276.539 174.426C276.713 174.687 276.806 174.993 276.806 175.306C276.806 175.726 276.639 176.128 276.342 176.425C276.045 176.722 275.642 176.889 275.222 176.889V176.889Z" fill="white"/>
<path d="M299.481 163.52H290.524C290.03 163.52 289.552 163.693 289.173 164.01C288.793 164.326 288.537 164.765 288.448 165.251L287.554 170.176C287.499 170.481 287.511 170.793 287.589 171.093C287.668 171.392 287.811 171.67 288.009 171.908C288.207 172.145 288.455 172.337 288.735 172.468C289.015 172.599 289.321 172.667 289.63 172.667H292.839L292.445 173.673C292.281 174.114 292.226 174.588 292.286 175.054C292.345 175.52 292.517 175.965 292.786 176.351C293.055 176.736 293.414 177.05 293.831 177.267C294.248 177.483 294.712 177.595 295.182 177.593C295.317 177.592 295.45 177.553 295.563 177.479C295.677 177.406 295.767 177.301 295.822 177.178L297.828 172.667H299.481C300.041 172.667 300.578 172.445 300.974 172.049C301.37 171.653 301.592 171.116 301.592 170.556V165.631C301.592 165.071 301.37 164.534 300.974 164.138C300.578 163.742 300.041 163.52 299.481 163.52ZM296.667 171.816L294.753 176.122C294.557 176.063 294.375 175.964 294.219 175.832C294.063 175.7 293.935 175.537 293.844 175.354C293.753 175.171 293.701 174.971 293.69 174.766C293.679 174.562 293.71 174.358 293.782 174.166L294.155 173.16C294.234 172.947 294.261 172.718 294.233 172.493C294.205 172.268 294.123 172.053 293.993 171.866C293.864 171.679 293.691 171.527 293.49 171.421C293.289 171.316 293.066 171.26 292.839 171.26H289.63C289.527 171.26 289.425 171.238 289.331 171.194C289.237 171.15 289.155 171.086 289.088 171.007C289.021 170.928 288.971 170.836 288.943 170.736C288.915 170.637 288.909 170.532 288.927 170.43L289.82 165.504C289.85 165.34 289.937 165.192 290.066 165.087C290.195 164.981 290.357 164.925 290.524 164.927H296.667V171.816ZM300.185 170.556C300.185 170.743 300.111 170.922 299.979 171.054C299.847 171.186 299.668 171.26 299.481 171.26H298.074V164.927H299.481C299.668 164.927 299.847 165.001 299.979 165.133C300.111 165.265 300.185 165.444 300.185 165.631V170.556Z" fill="white"/>
<g clip-path="url(#clip5)">
<path d="M248.308 167.358C248.697 167.358 249.012 167.043 249.012 166.654C249.012 166.266 248.697 165.951 248.308 165.951C247.92 165.951 247.605 166.266 247.605 166.654C247.605 167.043 247.92 167.358 248.308 167.358Z" fill="white"/>
<path d="M250.302 173.175H249.129V168.296H247.37C247.214 168.296 247.065 168.36 246.955 168.475C246.845 168.589 246.784 168.744 246.784 168.906C246.784 169.068 246.845 169.223 246.955 169.337C247.065 169.452 247.214 169.516 247.37 169.516H247.956V173.175H246.784C246.628 173.175 246.479 173.239 246.369 173.353C246.259 173.468 246.197 173.623 246.197 173.785C246.197 173.946 246.259 174.101 246.369 174.216C246.479 174.33 246.628 174.394 246.784 174.394H250.302C250.457 174.394 250.606 174.33 250.716 174.216C250.826 174.101 250.888 173.946 250.888 173.785C250.888 173.623 250.826 173.468 250.716 173.353C250.606 173.239 250.457 173.175 250.302 173.175Z" fill="white"/>
<path d="M248.212 162.88C246.751 162.88 245.322 163.314 244.108 164.125C242.893 164.937 241.946 166.091 241.386 167.441C240.827 168.791 240.681 170.277 240.966 171.71C241.251 173.143 241.955 174.459 242.988 175.493C244.021 176.526 245.338 177.23 246.771 177.515C248.204 177.8 249.69 177.653 251.04 177.094C252.39 176.535 253.543 175.588 254.355 174.373C255.167 173.158 255.6 171.73 255.6 170.268C255.6 168.309 254.822 166.43 253.436 165.044C252.051 163.659 250.172 162.88 248.212 162.88V162.88ZM248.212 176.425C246.994 176.425 245.804 176.064 244.792 175.388C243.779 174.711 242.99 173.75 242.524 172.625C242.058 171.5 241.936 170.262 242.174 169.067C242.411 167.873 242.998 166.776 243.859 165.915C244.72 165.054 245.817 164.467 247.011 164.23C248.205 163.992 249.443 164.114 250.568 164.58C251.693 165.046 252.655 165.835 253.331 166.848C254.008 167.86 254.369 169.051 254.369 170.268C254.369 171.077 254.21 171.878 253.9 172.625C253.591 173.372 253.137 174.05 252.566 174.622C251.994 175.194 251.315 175.647 250.568 175.957C249.821 176.266 249.021 176.425 248.212 176.425V176.425Z" fill="white"/>
</g>
</g>
<path d="M162.578 65.5611C167.324 65.4776 171.988 66.8035 175.981 69.3709C179.974 71.9382 183.115 75.6319 185.008 79.9847C186.902 84.3376 187.462 89.1541 186.618 93.8252C185.773 98.4963 183.563 102.812 180.266 106.227C176.969 109.642 172.734 112.003 168.095 113.01C163.457 114.018 158.623 113.628 154.207 111.888C149.79 110.149 145.988 107.139 143.282 103.24C140.576 99.3398 139.087 94.7251 139.004 89.9791C138.892 83.6149 141.313 77.4669 145.734 72.8876C150.155 68.3084 156.214 65.6729 162.578 65.5611V65.5611ZM162.508 61.5617C156.971 61.659 151.587 63.396 147.037 66.5532C142.488 69.7103 138.976 74.1457 136.947 79.2985C134.918 84.4512 134.463 90.09 135.638 95.5016C136.814 100.913 139.568 105.855 143.552 109.701C147.536 113.548 152.571 116.126 158.021 117.111C163.471 118.096 169.09 117.443 174.168 115.234C179.246 113.025 183.556 109.36 186.551 104.702C189.546 100.044 191.093 94.6023 190.996 89.0653C190.865 81.6404 187.791 74.5714 182.448 69.4135C177.106 64.2556 169.933 61.4312 162.508 61.5617V61.5617Z" fill="white" fill-opacity="0.6"/>
<path d="M155.247 103.696C154.888 103.702 154.534 103.611 154.222 103.434C153.921 103.262 153.669 103.015 153.492 102.716C153.315 102.418 153.219 102.078 153.212 101.731L152.791 77.735C152.785 77.3879 152.869 77.0453 153.036 76.7407C153.202 76.4362 153.445 76.1802 153.74 75.998C154.041 75.8171 154.384 75.7187 154.735 75.7125C155.086 75.7064 155.433 75.7927 155.74 75.9629L177.947 87.5744C178.268 87.7402 178.538 87.9895 178.728 88.2961C178.918 88.6026 179.022 88.9549 179.028 89.3157C179.035 89.6764 178.943 90.0322 178.764 90.3452C178.584 90.6582 178.324 90.9169 178.009 91.0939L156.224 103.479C155.922 103.633 155.586 103.707 155.247 103.696V103.696ZM156.849 81.0241L157.153 98.3015L172.818 89.3848L156.849 81.0241Z" fill="white" fill-opacity="0.6"/>
<defs>
<linearGradient id="paint0_linear" x1="13.8879" y1="148" x2="150.493" y2="148.676" gradientUnits="userSpaceOnUse">
<stop stop-opacity="0"/>
<stop stop-opacity="0"/>
<stop offset="1"/>
</linearGradient>
<clipPath id="clip0">
<rect width="179" height="326" fill="white" transform="translate(326 21) rotate(90)"/>
</clipPath>
<clipPath id="clip1">
<rect width="44.4211" height="11.2131" fill="white" transform="translate(29.1753 90.725)"/>
</clipPath>
<clipPath id="clip2">
<rect width="10.7818" height="10.7818" fill="white" transform="translate(29.1753 90.9407)"/>
</clipPath>
<clipPath id="clip3">
<rect width="37.0079" height="11.8425" fill="white" transform="translate(78.5826 166.474)"/>
</clipPath>
<clipPath id="clip4">
<rect width="16.8873" height="16.8873" fill="white" transform="translate(194 162.113)"/>
</clipPath>
<clipPath id="clip5">
<rect width="16.8873" height="16.8873" fill="white" transform="translate(240.056 162.113)"/>
</clipPath>
</defs>
</svg>
