<svg width="326" height="500" viewBox="0 0 326 500" fill="none" xmlns="http://www.w3.org/2000/svg">
<rect width="314" height="326" transform="translate(326 186) rotate(90)" fill="url(#paint0_linear)"/>
<path d="M21 368.906C21 363.435 25.4349 359 30.9055 359H85.0945C90.5651 359 95 363.435 95 368.906V368.906C95 374.376 90.5651 378.811 85.0945 378.811H30.9055C25.4349 378.811 21 374.376 21 368.906V368.906Z" fill="#111111" fill-opacity="0.2"/>
<g clip-path="url(#clip0)">
<path d="M38.8511 368.045C38.8511 367.434 38.4178 366.923 37.8436 366.8C38.073 366.417 38.2138 365.974 38.2138 365.496C38.2138 364.09 37.0705 362.946 35.6646 362.946C34.6978 362.946 33.8668 363.493 33.4341 364.287C33.0013 363.493 32.1703 362.946 31.2035 362.946C29.7976 362.946 28.6543 364.09 28.6543 365.496C28.6543 366.07 28.8531 366.596 29.175 367.023C29.0141 367.14 28.8832 367.294 28.7927 367.472C28.7023 367.649 28.6549 367.846 28.6543 368.045V373.143C28.6543 373.846 29.226 374.418 29.9289 374.418H37.5765C38.2795 374.418 38.8511 373.846 38.8511 373.143V371.462L41.4004 372.737V368.276L38.8511 369.55V368.045ZM35.6646 364.221C36.3676 364.221 36.9392 364.793 36.9392 365.496C36.9392 366.199 36.3676 366.77 35.6646 366.77C34.9617 366.77 34.39 366.199 34.39 365.496C34.39 364.793 34.9617 364.221 35.6646 364.221ZM31.2035 364.221C31.9065 364.221 32.4781 364.793 32.4781 365.496C32.4781 366.199 31.9065 366.77 31.2035 366.77C30.5006 366.77 29.9289 366.199 29.9289 365.496C29.9289 364.793 30.5006 364.221 31.2035 364.221ZM29.9289 373.143V368.045H37.5765L37.5778 373.143H29.9289Z" fill="white"/>
<path d="M55.4395 364.566V365.591H52.3668V374.331H51.1036V365.591H48.0309V364.566H55.4395ZM56.812 374.331V367.161H57.6655L57.8909 368.076C58.5191 367.466 59.2747 367.161 60.1578 367.161V368.213C59.302 368.213 58.6078 368.515 58.0752 369.121V374.331H56.812ZM61.0865 372.166C61.0865 370.696 62.0561 369.961 63.9953 369.961C64.619 369.961 65.2426 370.006 65.8662 370.097V369.421C65.8662 368.597 65.2221 368.185 63.9339 368.185C63.1964 368.185 62.4407 368.299 61.6669 368.527V367.502C62.4407 367.275 63.1964 367.161 63.9339 367.161C66.0643 367.161 67.1295 367.903 67.1295 369.387V374.331H66.4193L65.9823 373.621C65.2676 374.094 64.4892 374.331 63.6471 374.331C61.94 374.331 61.0865 373.609 61.0865 372.166ZM63.9953 370.985C62.8982 370.985 62.3497 371.372 62.3497 372.146C62.3497 372.92 62.7822 373.306 63.6471 373.306C64.5211 373.306 65.2608 373.074 65.8662 372.61V371.121C65.2426 371.03 64.619 370.985 63.9953 370.985ZM70.5846 367.161V374.331H69.3213V367.161H70.5846ZM70.5846 364.566V365.761H69.3213V364.566H70.5846ZM74.1079 364.566V374.331H72.8447V364.566H74.1079ZM79.1882 367.161C81.2275 367.161 82.2472 368.169 82.2472 370.186C82.2472 370.473 82.2267 370.78 82.1858 371.108H77.1533C77.1533 372.574 78.0092 373.306 79.7208 373.306C80.5356 373.306 81.2594 373.215 81.8921 373.033V374.058C81.2594 374.24 80.4901 374.331 79.5842 374.331C77.1215 374.331 75.8901 373.108 75.8901 370.664C75.8901 368.329 76.9895 367.161 79.1882 367.161ZM77.1533 370.056H81.0318C81.0045 368.8 80.3899 368.172 79.1882 368.172C77.9136 368.172 77.2353 368.8 77.1533 370.056ZM83.9475 374.331V367.161H84.801L85.0263 368.076C85.6545 367.466 86.4102 367.161 87.2933 367.161V368.213C86.4375 368.213 85.7433 368.515 85.2107 369.121V374.331H83.9475Z" fill="white"/>
</g>
<path d="M30.9055 360.165H85.0945V357.835H30.9055V360.165ZM85.0945 377.646H30.9055V379.976H85.0945V377.646ZM30.9055 377.646C26.0785 377.646 22.1654 373.733 22.1654 368.906H19.8346C19.8346 375.02 24.7912 379.976 30.9055 379.976V377.646ZM93.8346 368.906C93.8346 373.733 89.9215 377.646 85.0945 377.646V379.976C91.2088 379.976 96.1654 375.02 96.1654 368.906H93.8346ZM85.0945 360.165C89.9215 360.165 93.8346 364.078 93.8346 368.906H96.1654C96.1654 362.791 91.2088 357.835 85.0945 357.835V360.165ZM30.9055 357.835C24.7912 357.835 19.8346 362.791 19.8346 368.906H22.1654C22.1654 364.078 26.0785 360.165 30.9055 360.165V357.835Z" fill="white"/>
<path d="M31.5957 390.846V393.092H27.5918V404.811H25.0039V393.092H21V390.846H31.5957ZM32.8262 404.811V390.846H35.4141V395.866C36.2214 394.993 37.2533 394.557 38.5098 394.557C40.9382 394.557 42.1523 395.82 42.1523 398.346V404.811H39.5645V398.346C39.5645 397.213 39.0013 396.647 37.875 396.647C37.0352 396.647 36.2148 396.982 35.4141 397.653V404.811H32.8262ZM48.9297 394.557C52.0417 394.557 53.5977 396.146 53.5977 399.323C53.5977 399.746 53.5684 400.169 53.5098 400.592H46.7031C46.7031 402.038 47.7643 402.76 49.8867 402.76C50.9219 402.76 51.957 402.663 52.9922 402.467V404.518C52.0872 404.713 50.987 404.811 49.6914 404.811C45.974 404.811 44.1152 403.063 44.1152 399.567C44.1152 396.227 45.7201 394.557 48.9297 394.557ZM46.7031 398.795H51.0781V398.717C51.0781 397.298 50.362 396.588 48.9297 396.588C47.5625 396.588 46.8203 397.324 46.7031 398.795ZM69.3496 390.846V393.073H62.748V396.588H69.0176V398.903H62.7188V404.811H60.1797V390.846H69.3496ZM70.8145 401.618C70.8145 399.58 72.2988 398.561 75.2676 398.561C75.9642 398.561 76.6608 398.626 77.3574 398.756V397.985C77.3574 397.067 76.6966 396.608 75.375 396.608C74.2552 396.608 73.0117 396.771 71.6445 397.096V395.045C73.0117 394.72 74.2552 394.557 75.375 394.557C78.4219 394.557 79.9453 395.683 79.9453 397.936V404.811H78.4414L77.5234 403.893C76.6315 404.505 75.6484 404.811 74.5742 404.811C72.0677 404.811 70.8145 403.747 70.8145 401.618ZM77.3574 400.514C76.7064 400.384 76.0098 400.319 75.2676 400.319C74.0241 400.319 73.4023 400.742 73.4023 401.588C73.4023 402.5 73.9232 402.956 74.9648 402.956C75.8242 402.956 76.6217 402.689 77.3574 402.155V400.514ZM82.3965 404.811V394.557H84.3984L84.7207 395.866C85.6191 394.993 86.5697 394.557 87.5723 394.557V396.647C86.6087 396.647 85.7461 397.047 84.9844 397.848V404.811H82.3965ZM93.3633 394.557C96.4753 394.557 98.0312 396.146 98.0312 399.323C98.0312 399.746 98.002 400.169 97.9434 400.592H91.1367C91.1367 402.038 92.1979 402.76 94.3203 402.76C95.3555 402.76 96.3906 402.663 97.4258 402.467V404.518C96.5208 404.713 95.4206 404.811 94.125 404.811C90.4076 404.811 88.5488 403.063 88.5488 399.567C88.5488 396.227 90.1536 394.557 93.3633 394.557ZM91.1367 398.795H95.5117V398.717C95.5117 397.298 94.7956 396.588 93.3633 396.588C91.9961 396.588 91.2539 397.324 91.1367 398.795ZM99.0957 394.557H101.703L103.031 401.696L105.404 394.557H107.621L110.18 401.696L111.332 394.557H114.027L111.352 404.811H108.92L106.508 397.536L104.066 404.811H101.596L99.0957 394.557ZM119.926 394.557C123.038 394.557 124.594 396.146 124.594 399.323C124.594 399.746 124.564 400.169 124.506 400.592H117.699C117.699 402.038 118.76 402.76 120.883 402.76C121.918 402.76 122.953 402.663 123.988 402.467V404.518C123.083 404.713 121.983 404.811 120.688 404.811C116.97 404.811 115.111 403.063 115.111 399.567C115.111 396.227 116.716 394.557 119.926 394.557ZM117.699 398.795H122.074V398.717C122.074 397.298 121.358 396.588 119.926 396.588C118.559 396.588 117.816 397.324 117.699 398.795ZM129.125 390.846V404.811H126.537V390.846H129.125ZM134.164 390.846V404.811H131.576V390.846H134.164Z" fill="white"/>
<path d="M27.25 419.342L25.4727 422.944L21.5 423.518L24.375 426.323L23.6953 430.28L27.25 428.413L30.8047 430.28L30.125 426.323L33 423.522L29.0273 422.944L27.25 419.342Z" fill="#F39B13"/>
<path d="M37.8301 429.811L41.6787 420.952H36.5244V419.817H42.9502V420.808L39.1562 429.811H37.8301ZM44.625 429.052C44.625 428.879 44.6478 428.733 44.6934 428.615C44.7389 428.492 44.8005 428.394 44.8779 428.321C44.9554 428.243 45.0465 428.189 45.1514 428.157C45.2562 428.12 45.3701 428.102 45.4932 428.102C45.6117 428.102 45.7233 428.12 45.8281 428.157C45.9375 428.189 46.0309 428.243 46.1084 428.321C46.1859 428.394 46.2474 428.492 46.293 428.615C46.3385 428.733 46.3613 428.879 46.3613 429.052C46.3613 429.221 46.3385 429.367 46.293 429.49C46.2474 429.608 46.1859 429.706 46.1084 429.784C46.0309 429.861 45.9375 429.918 45.8281 429.955C45.7233 429.991 45.6117 430.009 45.4932 430.009C45.3701 430.009 45.2562 429.991 45.1514 429.955C45.0465 429.918 44.9554 429.861 44.8779 429.784C44.8005 429.706 44.7389 429.608 44.6934 429.49C44.6478 429.367 44.625 429.221 44.625 429.052ZM48.1523 425.539C48.1523 425.06 48.1751 424.584 48.2207 424.11C48.2708 423.636 48.3551 423.182 48.4736 422.75C48.5967 422.312 48.763 421.906 48.9727 421.533C49.1823 421.159 49.4489 420.835 49.7725 420.562C50.096 420.284 50.4834 420.068 50.9346 419.913C51.3857 419.753 51.9144 419.673 52.5205 419.673C52.6071 419.673 52.7028 419.676 52.8076 419.68C52.9124 419.685 53.0173 419.694 53.1221 419.708C53.2314 419.717 53.334 419.73 53.4297 419.749C53.5299 419.762 53.6188 419.78 53.6963 419.803V420.863C53.5368 420.808 53.3568 420.767 53.1562 420.74C52.9557 420.712 52.7575 420.699 52.5615 420.699C52.1514 420.699 51.7891 420.749 51.4746 420.849C51.1647 420.945 50.8958 421.082 50.668 421.259C50.4401 421.437 50.2487 421.649 50.0938 421.895C49.9434 422.141 49.8203 422.415 49.7246 422.715C49.6289 423.012 49.5583 423.328 49.5127 423.666C49.4671 424.003 49.4375 424.354 49.4238 424.718H49.5059C49.597 424.554 49.7064 424.402 49.834 424.26C49.9661 424.114 50.1188 423.991 50.292 423.891C50.4652 423.786 50.6589 423.704 50.873 423.645C51.0918 423.586 51.3356 423.556 51.6045 423.556C52.0374 423.556 52.4294 423.625 52.7803 423.761C53.1312 423.893 53.4297 424.089 53.6758 424.349C53.9219 424.609 54.111 424.928 54.2432 425.306C54.3799 425.68 54.4482 426.108 54.4482 426.591C54.4482 427.111 54.3776 427.578 54.2363 427.993C54.0951 428.407 53.8923 428.761 53.6279 429.052C53.3636 429.339 53.0446 429.56 52.6709 429.715C52.2972 429.87 51.8779 429.948 51.4131 429.948C50.9574 429.948 50.529 429.859 50.1279 429.681C49.7314 429.503 49.3874 429.232 49.0957 428.868C48.804 428.503 48.5739 428.045 48.4053 427.494C48.2367 426.942 48.1523 426.291 48.1523 425.539ZM51.3994 428.902C51.6729 428.902 51.9212 428.856 52.1445 428.765C52.3724 428.669 52.5684 428.528 52.7324 428.341C52.8965 428.15 53.0218 427.911 53.1084 427.624C53.1995 427.332 53.2451 426.988 53.2451 426.591C53.2451 426.272 53.2064 425.987 53.1289 425.737C53.056 425.482 52.9443 425.265 52.7939 425.087C52.6436 424.91 52.4544 424.773 52.2266 424.677C52.0033 424.582 51.7412 424.534 51.4404 424.534C51.1351 424.534 50.8548 424.588 50.5996 424.698C50.349 424.803 50.1348 424.942 49.957 425.115C49.7793 425.283 49.6403 425.477 49.54 425.696C49.4443 425.915 49.3965 426.133 49.3965 426.352C49.3965 426.657 49.4375 426.963 49.5195 427.268C49.6061 427.569 49.7314 427.84 49.8955 428.082C50.0641 428.323 50.2738 428.521 50.5244 428.676C50.7751 428.827 51.0667 428.902 51.3994 428.902Z" fill="white"/>
<path d="M60.1523 420.036V429.811H58.8877V420.036H60.1523ZM62.6885 429.811V420.036H64.2949L67.8838 428.191L71.4043 420.036H72.9424V429.811H71.8145V421.792L68.3418 429.811H67.3438L63.8164 421.792V429.811H62.6885ZM78.8213 428.786C81.2139 428.786 82.4102 427.409 82.4102 424.657C82.4102 422.26 81.2139 421.061 78.8213 421.061H76.5312V428.786H78.8213ZM75.2666 429.811V420.036H78.8213C82.057 420.036 83.6748 421.576 83.6748 424.657C83.6748 428.093 82.057 429.811 78.8213 429.811H75.2666ZM86.6484 428.56C87.0632 428.692 87.5667 428.758 88.1592 428.758C89.7542 428.758 90.5518 427.849 90.5518 426.031C90.5518 424.495 89.8294 423.727 88.3848 423.727C87.7285 423.727 87.1497 423.85 86.6484 424.096V428.56ZM85.3838 420.036H86.6484V422.975C87.1908 422.747 87.7718 422.633 88.3916 422.633C90.6611 422.633 91.7959 423.782 91.7959 426.079C91.7959 428.567 90.6042 429.811 88.2207 429.811C87.1908 429.811 86.2451 429.713 85.3838 429.517V420.036Z" fill="white"/>
<path d="M26.585 453.811H24.4727V448.028C24.4727 447.909 24.4727 447.768 24.4727 447.604C24.4772 447.435 24.4818 447.262 24.4863 447.084C24.4954 446.902 24.5023 446.72 24.5068 446.538C24.516 446.355 24.5228 446.189 24.5273 446.039C24.5046 446.066 24.4658 446.107 24.4111 446.162C24.3564 446.216 24.2949 446.278 24.2266 446.346C24.1582 446.41 24.0876 446.476 24.0146 446.544C23.9417 446.613 23.8711 446.674 23.8027 446.729L22.6543 447.652L21.6289 446.38L24.8486 443.817H26.585V453.811ZM40.0723 453.811H37.9873V449.347C37.9873 448.796 37.9007 448.383 37.7275 448.11C37.5589 447.832 37.2969 447.693 36.9414 447.693C36.6725 447.693 36.4469 447.748 36.2646 447.857C36.0824 447.966 35.9365 448.128 35.8271 448.342C35.7178 448.556 35.6403 448.821 35.5947 449.135C35.5492 449.45 35.5264 449.81 35.5264 450.215V453.811H33.4414V443.174H35.5264V445.341C35.5264 445.533 35.5218 445.736 35.5127 445.95C35.5036 446.159 35.4922 446.353 35.4785 446.531C35.4603 446.74 35.4443 446.945 35.4307 447.146H35.54C35.7633 446.75 36.0482 446.465 36.3945 446.292C36.7409 446.114 37.1328 446.025 37.5703 446.025C37.9486 446.025 38.2904 446.08 38.5957 446.189C38.9056 446.294 39.1699 446.46 39.3887 446.688C39.6074 446.916 39.776 447.208 39.8945 447.563C40.013 447.914 40.0723 448.335 40.0723 448.828V453.811ZM46.2041 446.025C46.2588 446.025 46.318 446.027 46.3818 446.032C46.4502 446.032 46.514 446.036 46.5732 446.045C46.637 446.05 46.694 446.057 46.7441 446.066C46.7988 446.07 46.8398 446.077 46.8672 446.086V448.042C46.8307 448.032 46.7806 448.023 46.7168 448.014C46.653 448.005 46.5846 447.998 46.5117 447.994C46.4434 447.985 46.375 447.98 46.3066 447.98C46.2383 447.975 46.1813 447.973 46.1357 447.973C45.8669 447.973 45.6185 448.007 45.3906 448.076C45.1673 448.144 44.9736 448.256 44.8096 448.411C44.6501 448.561 44.5247 448.762 44.4336 449.012C44.347 449.258 44.3037 449.561 44.3037 449.921V453.811H42.2188V446.168H43.7979L44.1055 447.317H44.208C44.3174 447.121 44.4359 446.943 44.5635 446.784C44.6911 446.624 44.8324 446.49 44.9873 446.38C45.1468 446.266 45.3245 446.18 45.5205 446.121C45.721 446.057 45.9489 446.025 46.2041 446.025ZM58.2627 451.74H57.0596V453.811H55.002V451.74H50.873V450.27L55.1182 443.817H57.0596V450.099H58.2627V451.74ZM55.002 450.099V448.404C55.002 448.345 55.002 448.26 55.002 448.151C55.0065 448.037 55.0111 447.909 55.0156 447.768C55.0202 447.627 55.0247 447.481 55.0293 447.331C55.0384 447.18 55.0452 447.037 55.0498 446.9C55.0589 446.763 55.0658 446.645 55.0703 446.544C55.0794 446.44 55.0863 446.364 55.0908 446.319H55.0293C54.9473 446.51 54.8538 446.713 54.749 446.927C54.6488 447.141 54.5326 447.356 54.4004 447.57L52.7324 450.099H55.002ZM65.8369 448.814C65.8369 449.621 65.7731 450.341 65.6455 450.974C65.5225 451.608 65.3219 452.145 65.0439 452.587C64.7705 453.029 64.415 453.367 63.9775 453.599C63.5446 453.832 63.0205 453.948 62.4053 453.948C61.8265 453.948 61.3229 453.832 60.8945 453.599C60.4661 453.367 60.1107 453.029 59.8281 452.587C59.5456 452.145 59.3337 451.608 59.1924 450.974C59.0557 450.341 58.9873 449.621 58.9873 448.814C58.9873 448.007 59.0488 447.285 59.1719 446.647C59.2995 446.009 59.5 445.469 59.7734 445.027C60.0469 444.585 60.4001 444.248 60.833 444.015C61.266 443.778 61.79 443.66 62.4053 443.66C62.9795 443.66 63.4808 443.776 63.9092 444.008C64.3376 444.241 64.6953 444.578 64.9824 445.02C65.2695 445.462 65.4837 446.002 65.625 446.64C65.7663 447.278 65.8369 448.003 65.8369 448.814ZM61.0928 448.814C61.0928 449.953 61.1908 450.81 61.3867 451.384C61.5827 451.958 61.9222 452.246 62.4053 452.246C62.8792 452.246 63.2188 451.961 63.4238 451.391C63.6335 450.821 63.7383 449.962 63.7383 448.814C63.7383 447.67 63.6335 446.811 63.4238 446.237C63.2188 445.658 62.8792 445.369 62.4053 445.369C62.1637 445.369 61.9587 445.442 61.79 445.587C61.626 445.733 61.4915 445.95 61.3867 446.237C61.2819 446.524 61.2067 446.884 61.1611 447.317C61.1156 447.745 61.0928 448.244 61.0928 448.814ZM77.5605 453.811H75.4756V449.347C75.4756 448.796 75.3936 448.383 75.2295 448.11C75.0654 447.832 74.8079 447.693 74.457 447.693C74.1927 447.693 73.9717 447.748 73.7939 447.857C73.6208 447.966 73.4818 448.128 73.377 448.342C73.2721 448.556 73.1969 448.821 73.1514 449.135C73.1058 449.45 73.083 449.81 73.083 450.215V453.811H70.998V446.168H72.5908L72.8711 447.146H72.9873C73.0967 446.95 73.2266 446.781 73.377 446.64C73.5319 446.499 73.7005 446.383 73.8828 446.292C74.0651 446.2 74.2588 446.134 74.4639 446.093C74.6689 446.048 74.8763 446.025 75.0859 446.025C75.61 446.025 76.0544 446.116 76.4189 446.298C76.7881 446.476 77.0706 446.759 77.2666 447.146H77.4375C77.5469 446.95 77.679 446.781 77.834 446.64C77.9889 446.499 78.1598 446.383 78.3467 446.292C78.5335 446.2 78.7295 446.134 78.9346 446.093C79.1442 446.048 79.3538 446.025 79.5635 446.025C80.3838 446.025 81.0013 446.248 81.416 446.695C81.8353 447.137 82.0449 447.848 82.0449 448.828V453.811H79.9531V449.347C79.9531 448.796 79.8711 448.383 79.707 448.11C79.543 447.832 79.2855 447.693 78.9346 447.693C78.4378 447.693 78.0846 447.891 77.875 448.288C77.6654 448.68 77.5605 449.242 77.5605 449.976V453.811ZM84.1025 444.193C84.1025 443.997 84.1322 443.835 84.1914 443.708C84.2507 443.575 84.3304 443.471 84.4307 443.393C84.5355 443.311 84.6562 443.254 84.793 443.222C84.9342 443.19 85.0824 443.174 85.2373 443.174C85.3923 443.174 85.5381 443.19 85.6748 443.222C85.8115 443.254 85.93 443.311 86.0303 443.393C86.1351 443.471 86.2171 443.575 86.2764 443.708C86.3402 443.835 86.3721 443.997 86.3721 444.193C86.3721 444.384 86.3402 444.546 86.2764 444.678C86.2171 444.81 86.1351 444.917 86.0303 445C85.93 445.077 85.8115 445.134 85.6748 445.17C85.5381 445.202 85.3923 445.218 85.2373 445.218C85.0824 445.218 84.9342 445.202 84.793 445.17C84.6562 445.134 84.5355 445.077 84.4307 445C84.3304 444.917 84.2507 444.81 84.1914 444.678C84.1322 444.546 84.1025 444.384 84.1025 444.193ZM86.2764 453.811H84.1914V446.168H86.2764V453.811ZM95.1016 453.811H93.0166V449.347C93.0166 448.796 92.9323 448.383 92.7637 448.11C92.5996 447.832 92.3353 447.693 91.9707 447.693C91.6973 447.693 91.4694 447.748 91.2871 447.857C91.1048 447.966 90.959 448.128 90.8496 448.342C90.7448 448.556 90.6696 448.821 90.624 449.135C90.5785 449.45 90.5557 449.81 90.5557 450.215V453.811H88.4707V446.168H90.0635L90.3438 447.146H90.46C90.5693 446.95 90.7015 446.781 90.8564 446.64C91.016 446.499 91.1891 446.383 91.376 446.292C91.5628 446.2 91.7611 446.134 91.9707 446.093C92.1803 446.048 92.3945 446.025 92.6133 446.025C92.987 446.025 93.3265 446.08 93.6318 446.189C93.9372 446.294 94.1992 446.46 94.418 446.688C94.6367 446.916 94.8053 447.208 94.9238 447.563C95.0423 447.914 95.1016 448.335 95.1016 448.828V453.811Z" fill="white"/>
<path d="M112.267 453.811H105.561V452.341L107.912 449.805C108.208 449.486 108.477 449.192 108.719 448.923C108.96 448.654 109.168 448.392 109.341 448.137C109.514 447.882 109.648 447.622 109.744 447.358C109.84 447.094 109.888 446.809 109.888 446.503C109.888 446.166 109.785 445.904 109.58 445.717C109.38 445.53 109.108 445.437 108.767 445.437C108.407 445.437 108.06 445.526 107.728 445.704C107.395 445.881 107.046 446.134 106.682 446.462L105.533 445.102C105.738 444.915 105.952 444.737 106.176 444.569C106.399 444.396 106.645 444.243 106.914 444.111C107.183 443.979 107.479 443.874 107.803 443.796C108.126 443.714 108.489 443.673 108.89 443.673C109.368 443.673 109.797 443.739 110.175 443.872C110.558 444.004 110.883 444.193 111.152 444.439C111.421 444.681 111.626 444.974 111.768 445.321C111.913 445.667 111.986 446.057 111.986 446.49C111.986 446.882 111.918 447.258 111.781 447.618C111.645 447.973 111.458 448.324 111.221 448.67C110.984 449.012 110.708 449.354 110.394 449.696C110.084 450.033 109.751 450.377 109.396 450.728L108.192 451.938V452.034H112.267V453.811ZM119.991 448.814C119.991 449.621 119.927 450.341 119.8 450.974C119.677 451.608 119.476 452.145 119.198 452.587C118.925 453.029 118.569 453.367 118.132 453.599C117.699 453.832 117.175 453.948 116.56 453.948C115.981 453.948 115.477 453.832 115.049 453.599C114.62 453.367 114.265 453.029 113.982 452.587C113.7 452.145 113.488 451.608 113.347 450.974C113.21 450.341 113.142 449.621 113.142 448.814C113.142 448.007 113.203 447.285 113.326 446.647C113.454 446.009 113.654 445.469 113.928 445.027C114.201 444.585 114.554 444.248 114.987 444.015C115.42 443.778 115.944 443.66 116.56 443.66C117.134 443.66 117.635 443.776 118.063 444.008C118.492 444.241 118.85 444.578 119.137 445.02C119.424 445.462 119.638 446.002 119.779 446.64C119.921 447.278 119.991 448.003 119.991 448.814ZM115.247 448.814C115.247 449.953 115.345 450.81 115.541 451.384C115.737 451.958 116.076 452.246 116.56 452.246C117.034 452.246 117.373 451.961 117.578 451.391C117.788 450.821 117.893 449.962 117.893 448.814C117.893 447.67 117.788 446.811 117.578 446.237C117.373 445.658 117.034 445.369 116.56 445.369C116.318 445.369 116.113 445.442 115.944 445.587C115.78 445.733 115.646 445.95 115.541 446.237C115.436 446.524 115.361 446.884 115.315 447.317C115.27 447.745 115.247 448.244 115.247 448.814ZM126.007 453.811H123.895V448.028C123.895 447.909 123.895 447.768 123.895 447.604C123.899 447.435 123.904 447.262 123.908 447.084C123.917 446.902 123.924 446.72 123.929 446.538C123.938 446.355 123.945 446.189 123.949 446.039C123.926 446.066 123.888 446.107 123.833 446.162C123.778 446.216 123.717 446.278 123.648 446.346C123.58 446.41 123.509 446.476 123.437 446.544C123.364 446.613 123.293 446.674 123.225 446.729L122.076 447.652L121.051 446.38L124.271 443.817H126.007V453.811ZM135.345 448.083C135.345 448.561 135.317 449.04 135.263 449.518C135.213 449.992 135.119 450.445 134.982 450.878C134.85 451.311 134.668 451.717 134.436 452.095C134.208 452.469 133.916 452.792 133.561 453.066C133.21 453.339 132.786 453.556 132.289 453.715C131.797 453.87 131.218 453.948 130.553 453.948C130.457 453.948 130.352 453.945 130.238 453.941C130.124 453.936 130.008 453.93 129.89 453.92C129.776 453.916 129.664 453.907 129.555 453.893C129.445 453.884 129.35 453.87 129.268 453.852V452.157C129.436 452.202 129.616 452.239 129.808 452.266C130.004 452.289 130.202 452.3 130.402 452.3C131.018 452.3 131.523 452.225 131.92 452.075C132.316 451.92 132.631 451.706 132.863 451.432C133.096 451.154 133.26 450.824 133.355 450.441C133.456 450.058 133.517 449.637 133.54 449.176H133.451C133.36 449.34 133.251 449.493 133.123 449.634C132.995 449.776 132.845 449.899 132.672 450.003C132.499 450.108 132.303 450.19 132.084 450.25C131.865 450.309 131.621 450.338 131.353 450.338C130.92 450.338 130.53 450.268 130.184 450.126C129.837 449.985 129.543 449.78 129.302 449.511C129.065 449.242 128.882 448.912 128.755 448.52C128.627 448.128 128.563 447.679 128.563 447.173C128.563 446.631 128.639 446.146 128.789 445.717C128.944 445.289 129.163 444.927 129.445 444.63C129.728 444.33 130.07 444.099 130.471 443.94C130.876 443.78 131.33 443.701 131.831 443.701C132.323 443.701 132.784 443.79 133.212 443.967C133.64 444.14 134.012 444.407 134.326 444.767C134.641 445.127 134.889 445.583 135.071 446.134C135.254 446.686 135.345 447.335 135.345 448.083ZM131.872 445.396C131.685 445.396 131.514 445.43 131.359 445.499C131.204 445.567 131.07 445.674 130.956 445.82C130.847 445.961 130.76 446.143 130.696 446.367C130.637 446.585 130.607 446.845 130.607 447.146C130.607 447.629 130.71 448.012 130.915 448.294C131.12 448.577 131.43 448.718 131.845 448.718C132.054 448.718 132.246 448.677 132.419 448.595C132.592 448.513 132.74 448.406 132.863 448.274C132.986 448.142 133.08 447.994 133.144 447.83C133.212 447.666 133.246 447.499 133.246 447.331C133.246 447.098 133.216 446.868 133.157 446.64C133.103 446.408 133.016 446.2 132.897 446.018C132.784 445.831 132.64 445.681 132.467 445.567C132.298 445.453 132.1 445.396 131.872 445.396Z" fill="white"/>
<path d="M152.939 445.871C152.591 445.871 152.275 445.937 151.992 446.071C151.709 446.201 151.466 446.39 151.265 446.637C151.066 446.885 150.911 447.186 150.801 447.541C150.693 447.895 150.64 448.296 150.64 448.742C150.64 449.201 150.687 449.609 150.781 449.967C150.879 450.322 151.024 450.622 151.216 450.866C151.408 451.11 151.647 451.295 151.934 451.422C152.22 451.549 152.555 451.613 152.939 451.613C153.229 451.613 153.504 451.585 153.765 451.53C154.025 451.471 154.282 451.404 154.536 451.33V452.121C154.409 452.169 154.282 452.213 154.155 452.252C154.028 452.288 153.895 452.318 153.755 452.34C153.618 452.363 153.47 452.379 153.311 452.389C153.154 452.402 152.98 452.409 152.788 452.409C152.254 452.409 151.792 452.321 151.401 452.145C151.011 451.969 150.687 451.72 150.43 451.398C150.176 451.076 149.987 450.688 149.863 450.236C149.74 449.783 149.678 449.282 149.678 448.732C149.678 448.192 149.748 447.697 149.888 447.248C150.031 446.798 150.239 446.413 150.513 446.09C150.789 445.768 151.131 445.517 151.538 445.338C151.945 445.159 152.412 445.07 152.939 445.07C153.291 445.07 153.626 445.106 153.945 445.177C154.264 445.249 154.552 445.353 154.81 445.49L154.429 446.251C154.224 446.147 154.001 446.058 153.76 445.983C153.519 445.908 153.245 445.871 152.939 445.871ZM158.77 445.871C158.421 445.871 158.105 445.937 157.822 446.071C157.539 446.201 157.297 446.39 157.095 446.637C156.896 446.885 156.742 447.186 156.631 447.541C156.523 447.895 156.47 448.296 156.47 448.742C156.47 449.201 156.517 449.609 156.611 449.967C156.709 450.322 156.854 450.622 157.046 450.866C157.238 451.11 157.477 451.295 157.764 451.422C158.05 451.549 158.385 451.613 158.77 451.613C159.059 451.613 159.334 451.585 159.595 451.53C159.855 451.471 160.112 451.404 160.366 451.33V452.121C160.239 452.169 160.112 452.213 159.985 452.252C159.858 452.288 159.725 452.318 159.585 452.34C159.448 452.363 159.3 452.379 159.141 452.389C158.984 452.402 158.81 452.409 158.618 452.409C158.084 452.409 157.622 452.321 157.231 452.145C156.841 451.969 156.517 451.72 156.26 451.398C156.006 451.076 155.817 450.688 155.693 450.236C155.57 449.783 155.508 449.282 155.508 448.732C155.508 448.192 155.578 447.697 155.718 447.248C155.861 446.798 156.069 446.413 156.343 446.09C156.619 445.768 156.961 445.517 157.368 445.338C157.775 445.159 158.242 445.07 158.77 445.07C159.121 445.07 159.456 445.106 159.775 445.177C160.094 445.249 160.382 445.353 160.64 445.49L160.259 446.251C160.054 446.147 159.831 446.058 159.59 445.983C159.349 445.908 159.076 445.871 158.77 445.871Z" fill="white"/>
<path d="M147 442.811H163V440.811H147V442.811ZM165 444.811V452.811H167V444.811H165ZM163 454.811H147V456.811H163V454.811ZM145 452.811V444.811H143V452.811H145ZM147 454.811C145.895 454.811 145 453.916 145 452.811H143C143 455.02 144.791 456.811 147 456.811V454.811ZM165 452.811C165 453.916 164.105 454.811 163 454.811V456.811C165.209 456.811 167 455.02 167 452.811H165ZM163 442.811C164.105 442.811 165 443.706 165 444.811H167C167 442.602 165.209 440.811 163 440.811V442.811ZM147 440.811C144.791 440.811 143 442.602 143 444.811H145C145 443.706 145.895 442.811 147 442.811V440.811Z" fill="white"/>
<path d="M184.416 447.262C184.416 447.558 184.37 447.843 184.279 448.117C184.191 448.39 184.045 448.633 183.84 448.844C183.635 449.053 183.363 449.22 183.024 449.347C182.689 449.471 182.274 449.533 181.779 449.533H181.047V452.311H180.139V445.172H181.906C182.342 445.172 182.718 445.22 183.034 445.314C183.35 445.405 183.61 445.54 183.815 445.719C184.021 445.895 184.172 446.113 184.27 446.374C184.367 446.634 184.416 446.93 184.416 447.262ZM181.047 448.761H181.677C181.979 448.761 182.243 448.735 182.468 448.683C182.696 448.631 182.883 448.548 183.029 448.434C183.179 448.317 183.291 448.167 183.366 447.985C183.441 447.799 183.479 447.575 183.479 447.311C183.479 446.849 183.345 446.507 183.078 446.286C182.811 446.061 182.395 445.949 181.828 445.949H181.047V448.761ZM188.747 448.542H191.11V452.042C190.931 452.101 190.751 452.153 190.568 452.199C190.386 452.244 190.199 452.282 190.007 452.311C189.815 452.344 189.613 452.368 189.401 452.384C189.19 452.401 188.962 452.409 188.718 452.409C188.207 452.409 187.754 452.324 187.36 452.155C186.966 451.982 186.634 451.738 186.364 451.422C186.094 451.103 185.889 450.718 185.749 450.265C185.609 449.809 185.539 449.298 185.539 448.732C185.539 448.172 185.616 447.666 185.769 447.213C185.925 446.761 186.151 446.377 186.447 446.061C186.743 445.742 187.108 445.498 187.541 445.329C187.977 445.156 188.474 445.07 189.03 445.07C189.392 445.07 189.738 445.106 190.07 445.177C190.402 445.249 190.712 445.353 190.998 445.49L190.646 446.281C190.529 446.225 190.402 446.173 190.266 446.125C190.132 446.076 189.994 446.033 189.851 445.998C189.707 445.958 189.559 445.928 189.406 445.905C189.257 445.882 189.107 445.871 188.957 445.871C188.56 445.871 188.208 445.937 187.902 446.071C187.596 446.201 187.339 446.39 187.131 446.637C186.926 446.885 186.77 447.186 186.662 447.541C186.555 447.895 186.501 448.296 186.501 448.742C186.501 449.165 186.545 449.552 186.633 449.904C186.724 450.255 186.867 450.558 187.062 450.812C187.258 451.066 187.51 451.263 187.819 451.403C188.129 451.543 188.501 451.613 188.938 451.613C189.081 451.613 189.211 451.61 189.328 451.603C189.449 451.593 189.559 451.582 189.66 451.569C189.761 451.556 189.855 451.541 189.943 451.525C190.035 451.505 190.122 451.487 190.207 451.471V449.342H188.747V448.542Z" fill="white"/>
<path d="M177 442.811H194V440.811H177V442.811ZM196 444.811V452.811H198V444.811H196ZM194 454.811H177V456.811H194V454.811ZM175 452.811V444.811H173V452.811H175ZM177 454.811C175.895 454.811 175 453.916 175 452.811H173C173 455.02 174.791 456.811 177 456.811V454.811ZM196 452.811C196 453.916 195.105 454.811 194 454.811V456.811C196.209 456.811 198 455.02 198 452.811H196ZM194 442.811C195.105 442.811 196 443.706 196 444.811H198C198 442.602 196.209 440.811 194 440.811V442.811ZM177 440.811C174.791 440.811 173 442.602 173 444.811H175C175 443.706 175.895 442.811 177 442.811V440.811Z" fill="white"/>
<circle cx="22.5" cy="472.811" r="1.5" fill="#E1E1E1" fill-opacity="0.5"/>
<path d="M36.7227 472.718C36.7227 473.561 36.6133 474.302 36.3945 474.94C36.1758 475.573 35.859 476.104 35.4443 476.533C35.0296 476.957 34.5192 477.276 33.9131 477.49C33.3115 477.704 32.6279 477.811 31.8623 477.811H29.3604V467.817H32.1426C32.8398 467.817 33.471 467.922 34.0361 468.131C34.6012 468.341 35.082 468.653 35.4785 469.068C35.875 469.478 36.1803 469.988 36.3945 470.599C36.6133 471.21 36.7227 471.916 36.7227 472.718ZM35.376 472.759C35.376 472.094 35.3008 471.52 35.1504 471.037C35 470.549 34.7812 470.148 34.4941 469.833C34.207 469.519 33.8538 469.287 33.4346 469.136C33.0153 468.981 32.5391 468.904 32.0059 468.904H30.6318V476.717H31.7393C32.9424 476.717 33.8493 476.385 34.46 475.719C35.0706 475.054 35.376 474.067 35.376 472.759ZM42.0205 470.168C42.1527 470.168 42.3008 470.175 42.4648 470.189C42.6289 470.198 42.7702 470.214 42.8887 470.237L42.7246 471.385C42.597 471.362 42.4648 471.344 42.3281 471.331C42.196 471.312 42.0706 471.303 41.9521 471.303C41.665 471.303 41.403 471.362 41.166 471.481C40.929 471.595 40.724 471.761 40.5508 471.98C40.3822 472.194 40.25 472.454 40.1543 472.759C40.0632 473.06 40.0176 473.395 40.0176 473.764V477.811H38.7734V470.305H39.7852L39.9355 471.679H39.9902C40.1042 471.483 40.2249 471.294 40.3525 471.112C40.4847 470.93 40.6305 470.77 40.79 470.633C40.9541 470.492 41.1364 470.38 41.3369 470.298C41.5374 470.212 41.7653 470.168 42.0205 470.168ZM48.46 477.811L48.207 476.772H48.1523C48.002 476.977 47.8516 477.155 47.7012 477.305C47.5508 477.451 47.3867 477.572 47.209 477.667C47.0312 477.763 46.833 477.834 46.6143 477.879C46.3955 477.925 46.1426 477.948 45.8555 477.948C45.541 477.948 45.2516 477.902 44.9873 477.811C44.723 477.724 44.4928 477.59 44.2969 477.408C44.1055 477.221 43.9551 476.988 43.8457 476.71C43.7363 476.428 43.6816 476.095 43.6816 475.712C43.6816 474.965 43.9437 474.391 44.4678 473.99C44.9964 473.589 45.7985 473.37 46.874 473.333L48.1318 473.286V472.814C48.1318 472.509 48.0977 472.253 48.0293 472.048C47.9655 471.843 47.8698 471.679 47.7422 471.556C47.6191 471.429 47.4642 471.337 47.2773 471.283C47.0951 471.228 46.8854 471.201 46.6484 471.201C46.2702 471.201 45.917 471.255 45.5889 471.365C45.2653 471.474 44.9531 471.606 44.6523 471.761L44.2148 470.825C44.5521 470.642 44.9281 470.487 45.3428 470.36C45.7575 470.232 46.1927 470.168 46.6484 470.168C47.1133 470.168 47.5143 470.216 47.8516 470.312C48.1934 470.403 48.4736 470.551 48.6924 470.756C48.9157 470.957 49.082 471.214 49.1914 471.529C49.3008 471.843 49.3555 472.224 49.3555 472.67V477.811H48.46ZM46.1768 476.943C46.4548 476.943 46.7122 476.9 46.9492 476.813C47.1862 476.726 47.3913 476.597 47.5645 476.423C47.7376 476.246 47.8721 476.025 47.9678 475.76C48.068 475.491 48.1182 475.177 48.1182 474.817V474.14L47.1406 474.188C46.7305 474.206 46.3864 474.252 46.1084 474.325C45.8304 474.398 45.6071 474.5 45.4385 474.632C45.2744 474.76 45.1559 474.917 45.083 475.104C45.0101 475.286 44.9736 475.494 44.9736 475.726C44.9736 476.145 45.083 476.453 45.3018 476.649C45.5251 476.845 45.8167 476.943 46.1768 476.943ZM60.6553 477.811V472.978C60.6553 472.386 60.5413 471.941 60.3135 471.645C60.0856 471.349 59.7324 471.201 59.2539 471.201C58.9212 471.201 58.6387 471.255 58.4062 471.365C58.1738 471.47 57.9824 471.627 57.832 471.836C57.6862 472.042 57.5791 472.299 57.5107 472.609C57.4424 472.914 57.4082 473.267 57.4082 473.668V477.811H56.1572V472.978C56.1572 472.386 56.0433 471.941 55.8154 471.645C55.5921 471.349 55.2412 471.201 54.7627 471.201C54.4118 471.201 54.1178 471.26 53.8809 471.378C53.6439 471.497 53.4525 471.672 53.3066 471.905C53.1654 472.137 53.0628 472.422 52.999 472.759C52.9398 473.097 52.9102 473.484 52.9102 473.921V477.811H51.666V470.305H52.6777L52.8555 471.317H52.9238C53.0332 471.121 53.1631 470.952 53.3135 470.811C53.4639 470.665 53.6279 470.544 53.8057 470.449C53.988 470.353 54.1794 470.282 54.3799 470.237C54.585 470.191 54.7923 470.168 55.002 470.168C55.5488 470.168 56.0023 470.269 56.3623 470.469C56.7269 470.67 56.9958 470.984 57.1689 471.413H57.2236C57.3421 471.198 57.4834 471.014 57.6475 470.859C57.8161 470.704 57.9984 470.576 58.1943 470.476C58.3949 470.371 58.6045 470.294 58.8232 470.244C59.042 470.194 59.2653 470.168 59.4932 470.168C60.2907 470.168 60.89 470.387 61.291 470.825C61.6966 471.258 61.8994 471.953 61.8994 472.91V477.811H60.6553ZM68.4482 477.811L68.1953 476.772H68.1406C67.9902 476.977 67.8398 477.155 67.6895 477.305C67.5391 477.451 67.375 477.572 67.1973 477.667C67.0195 477.763 66.8213 477.834 66.6025 477.879C66.3838 477.925 66.1309 477.948 65.8438 477.948C65.5293 477.948 65.2399 477.902 64.9756 477.811C64.7113 477.724 64.4811 477.59 64.2852 477.408C64.0938 477.221 63.9434 476.988 63.834 476.71C63.7246 476.428 63.6699 476.095 63.6699 475.712C63.6699 474.965 63.932 474.391 64.4561 473.99C64.9847 473.589 65.7868 473.37 66.8623 473.333L68.1201 473.286V472.814C68.1201 472.509 68.0859 472.253 68.0176 472.048C67.9538 471.843 67.8581 471.679 67.7305 471.556C67.6074 471.429 67.4525 471.337 67.2656 471.283C67.0833 471.228 66.8737 471.201 66.6367 471.201C66.2585 471.201 65.9053 471.255 65.5771 471.365C65.2536 471.474 64.9414 471.606 64.6406 471.761L64.2031 470.825C64.5404 470.642 64.9163 470.487 65.3311 470.36C65.7458 470.232 66.181 470.168 66.6367 470.168C67.1016 470.168 67.5026 470.216 67.8398 470.312C68.1816 470.403 68.4619 470.551 68.6807 470.756C68.904 470.957 69.0703 471.214 69.1797 471.529C69.2891 471.843 69.3438 472.224 69.3438 472.67V477.811H68.4482ZM66.165 476.943C66.443 476.943 66.7005 476.9 66.9375 476.813C67.1745 476.726 67.3796 476.597 67.5527 476.423C67.7259 476.246 67.8604 476.025 67.9561 475.76C68.0563 475.491 68.1064 475.177 68.1064 474.817V474.14L67.1289 474.188C66.7188 474.206 66.3747 474.252 66.0967 474.325C65.8187 474.398 65.5954 474.5 65.4268 474.632C65.2627 474.76 65.1442 474.917 65.0713 475.104C64.9984 475.286 64.9619 475.494 64.9619 475.726C64.9619 476.145 65.0713 476.453 65.29 476.649C65.5133 476.845 65.805 476.943 66.165 476.943Z" fill="white"/>
<g clip-path="url(#clip1)">
<circle cx="82.5" cy="472.811" r="1.5" fill="#E1E1E1" fill-opacity="0.5"/>
<path d="M93.4209 468.794C92.9333 468.794 92.4912 468.888 92.0947 469.075C91.6982 469.257 91.3587 469.521 91.0762 469.868C90.7982 470.214 90.5817 470.636 90.4268 471.132C90.2764 471.629 90.2012 472.19 90.2012 472.814C90.2012 473.457 90.2673 474.028 90.3994 474.53C90.5361 475.027 90.7389 475.446 91.0078 475.788C91.2767 476.129 91.6117 476.389 92.0127 476.567C92.4137 476.745 92.8831 476.833 93.4209 476.833C93.8265 476.833 94.2116 476.795 94.5762 476.717C94.9408 476.635 95.3008 476.542 95.6562 476.437V477.544C95.4785 477.613 95.3008 477.674 95.123 477.729C94.9453 477.779 94.7585 477.82 94.5625 477.852C94.3711 477.884 94.1637 477.907 93.9404 477.92C93.7217 477.939 93.4779 477.948 93.209 477.948C92.4616 477.948 91.8145 477.825 91.2676 477.579C90.7207 477.333 90.2673 476.984 89.9072 476.533C89.5518 476.082 89.2874 475.539 89.1143 474.906C88.9411 474.272 88.8545 473.57 88.8545 472.8C88.8545 472.044 88.9525 471.351 89.1484 470.722C89.349 470.093 89.6406 469.553 90.0234 469.102C90.4108 468.651 90.8893 468.3 91.459 468.049C92.0286 467.799 92.6826 467.673 93.4209 467.673C93.9131 467.673 94.3825 467.723 94.8291 467.824C95.2757 467.924 95.679 468.07 96.0391 468.261L95.5059 469.328C95.2188 469.182 94.9066 469.056 94.5693 468.952C94.2321 468.847 93.8493 468.794 93.4209 468.794ZM103.757 474.044C103.757 474.669 103.679 475.225 103.524 475.712C103.374 476.195 103.155 476.603 102.868 476.936C102.586 477.264 102.242 477.515 101.836 477.688C101.43 477.861 100.975 477.948 100.469 477.948C99.9993 477.948 99.5664 477.861 99.1699 477.688C98.7734 477.515 98.4294 477.264 98.1377 476.936C97.8506 476.603 97.625 476.195 97.4609 475.712C97.3014 475.225 97.2217 474.669 97.2217 474.044C97.2217 473.425 97.2969 472.875 97.4473 472.397C97.6022 471.914 97.821 471.508 98.1035 471.18C98.3861 470.847 98.7301 470.597 99.1357 470.428C99.5459 470.255 100.004 470.168 100.51 470.168C100.979 470.168 101.412 470.255 101.809 470.428C102.205 470.597 102.547 470.847 102.834 471.18C103.126 471.508 103.351 471.914 103.511 472.397C103.675 472.875 103.757 473.425 103.757 474.044ZM98.5068 474.044C98.5068 474.997 98.6618 475.715 98.9717 476.198C99.2861 476.676 99.7943 476.916 100.496 476.916C101.198 476.916 101.701 476.676 102.007 476.198C102.317 475.715 102.472 474.997 102.472 474.044C102.472 473.092 102.314 472.381 102 471.912C101.69 471.438 101.184 471.201 100.482 471.201C99.7806 471.201 99.2747 471.438 98.9648 471.912C98.6595 472.381 98.5068 473.092 98.5068 474.044ZM114.708 477.811V472.978C114.708 472.386 114.594 471.941 114.366 471.645C114.138 471.349 113.785 471.201 113.307 471.201C112.974 471.201 112.691 471.255 112.459 471.365C112.227 471.47 112.035 471.627 111.885 471.836C111.739 472.042 111.632 472.299 111.563 472.609C111.495 472.914 111.461 473.267 111.461 473.668V477.811H110.21V472.978C110.21 472.386 110.096 471.941 109.868 471.645C109.645 471.349 109.294 471.201 108.815 471.201C108.465 471.201 108.171 471.26 107.934 471.378C107.697 471.497 107.505 471.672 107.359 471.905C107.218 472.137 107.116 472.422 107.052 472.759C106.993 473.097 106.963 473.484 106.963 473.921V477.811H105.719V470.305H106.73L106.908 471.317H106.977C107.086 471.121 107.216 470.952 107.366 470.811C107.517 470.665 107.681 470.544 107.858 470.449C108.041 470.353 108.232 470.282 108.433 470.237C108.638 470.191 108.845 470.168 109.055 470.168C109.602 470.168 110.055 470.269 110.415 470.469C110.78 470.67 111.049 470.984 111.222 471.413H111.276C111.395 471.198 111.536 471.014 111.7 470.859C111.869 470.704 112.051 470.576 112.247 470.476C112.448 470.371 112.657 470.294 112.876 470.244C113.095 470.194 113.318 470.168 113.546 470.168C114.343 470.168 114.943 470.387 115.344 470.825C115.749 471.258 115.952 471.953 115.952 472.91V477.811H114.708ZM121.236 477.948C120.735 477.948 120.277 477.863 119.862 477.695C119.448 477.526 119.09 477.28 118.789 476.957C118.493 476.633 118.263 476.232 118.099 475.753C117.935 475.275 117.853 474.728 117.853 474.113C117.853 473.493 117.928 472.939 118.078 472.452C118.229 471.964 118.44 471.552 118.714 471.214C118.987 470.873 119.313 470.613 119.691 470.435C120.074 470.257 120.496 470.168 120.956 470.168C121.407 470.168 121.813 470.25 122.173 470.415C122.533 470.574 122.838 470.802 123.089 471.098C123.34 471.39 123.531 471.743 123.663 472.158C123.8 472.568 123.868 473.024 123.868 473.525V474.297H119.138C119.16 475.177 119.345 475.824 119.691 476.239C120.042 476.653 120.562 476.861 121.25 476.861C121.482 476.861 121.697 476.849 121.893 476.827C122.093 476.804 122.285 476.772 122.467 476.731C122.654 476.685 122.834 476.631 123.007 476.567C123.18 476.499 123.355 476.423 123.533 476.341V477.449C123.351 477.535 123.171 477.611 122.993 477.674C122.82 477.738 122.64 477.791 122.453 477.832C122.271 477.873 122.079 477.902 121.879 477.92C121.683 477.939 121.469 477.948 121.236 477.948ZM120.929 471.201C120.409 471.201 119.997 471.378 119.691 471.734C119.391 472.089 119.215 472.607 119.165 473.286H122.528C122.528 472.976 122.496 472.693 122.433 472.438C122.373 472.178 122.278 471.957 122.146 471.775C122.018 471.593 121.854 471.451 121.653 471.351C121.453 471.251 121.211 471.201 120.929 471.201ZM130.396 476.806H130.342C130.242 476.961 130.123 477.109 129.986 477.25C129.854 477.387 129.699 477.508 129.521 477.613C129.348 477.718 129.152 477.8 128.934 477.859C128.715 477.918 128.469 477.948 128.195 477.948C127.771 477.948 127.384 477.866 127.033 477.702C126.682 477.538 126.382 477.294 126.131 476.97C125.88 476.642 125.687 476.236 125.55 475.753C125.413 475.27 125.345 474.71 125.345 474.072C125.345 473.429 125.413 472.866 125.55 472.383C125.687 471.896 125.88 471.488 126.131 471.16C126.382 470.832 126.682 470.585 127.033 470.421C127.384 470.253 127.771 470.168 128.195 470.168C128.464 470.168 128.708 470.198 128.927 470.257C129.146 470.317 129.341 470.396 129.515 470.497C129.692 470.597 129.85 470.713 129.986 470.845C130.123 470.977 130.242 471.116 130.342 471.262H130.424C130.41 471.107 130.396 470.959 130.383 470.818C130.374 470.699 130.365 470.579 130.355 470.456C130.346 470.328 130.342 470.228 130.342 470.155V467.174H131.586V477.811H130.581L130.396 476.806ZM128.435 476.916C128.781 476.916 129.073 476.863 129.31 476.758C129.551 476.653 129.745 476.494 129.891 476.28C130.041 476.066 130.15 475.799 130.219 475.48C130.292 475.156 130.333 474.78 130.342 474.352V474.072C130.342 473.611 130.31 473.204 130.246 472.848C130.187 472.488 130.082 472.187 129.932 471.946C129.786 471.7 129.59 471.515 129.344 471.392C129.098 471.264 128.79 471.201 128.421 471.201C127.806 471.201 127.352 471.449 127.061 471.946C126.773 472.443 126.63 473.156 126.63 474.085C126.63 475.038 126.773 475.749 127.061 476.218C127.352 476.683 127.81 476.916 128.435 476.916ZM132.844 470.305H134.136L135.605 474.496C135.669 474.678 135.733 474.869 135.797 475.07C135.865 475.27 135.927 475.471 135.981 475.671C136.041 475.872 136.091 476.066 136.132 476.252C136.173 476.439 136.202 476.612 136.221 476.772H136.262C136.285 476.658 136.321 476.503 136.371 476.307C136.421 476.111 136.476 475.904 136.535 475.685C136.599 475.462 136.663 475.243 136.727 475.029C136.795 474.815 136.854 474.632 136.904 474.482L138.265 470.305H139.55L136.583 478.789C136.455 479.158 136.316 479.488 136.166 479.78C136.02 480.076 135.849 480.327 135.653 480.532C135.457 480.737 135.227 480.894 134.963 481.003C134.699 481.117 134.384 481.174 134.02 481.174C133.783 481.174 133.577 481.161 133.404 481.133C133.231 481.111 133.083 481.085 132.96 481.058V480.067C133.056 480.09 133.176 480.108 133.322 480.122C133.468 480.14 133.621 480.149 133.78 480.149C133.999 480.149 134.188 480.122 134.348 480.067C134.507 480.017 134.646 479.942 134.765 479.841C134.883 479.741 134.983 479.618 135.065 479.472C135.152 479.326 135.229 479.16 135.298 478.973L135.688 477.879L132.844 470.305Z" fill="white"/>
</g>
<path d="M297 341.75C301.537 341.75 305.25 345.463 305.25 350C305.25 354.537 301.537 358.25 297 358.25C292.463 358.25 288.75 354.537 288.75 350C288.75 345.463 292.463 341.75 297 341.75ZM297 340.375C291.706 340.375 287.375 344.706 287.375 350C287.375 355.294 291.706 359.625 297 359.625C302.294 359.625 306.625 355.294 306.625 350C306.625 344.706 302.294 340.375 297 340.375Z" fill="white"/>
<path d="M302.5 349.312H297.688V344.5H296.312V349.312H291.5V350.688H296.312V355.5H297.688V350.688H302.5V349.312Z" fill="white"/>
<path d="M299.267 376.276C298.605 375.608 297.916 375.026 297.198 374.532C296.481 374.037 295.809 373.666 295.182 373.419C294.556 373.172 293.981 373.053 293.459 373.063C292.936 373.073 292.529 373.228 292.236 373.529C292.167 373.596 292.108 373.671 292.059 373.755C292.01 373.838 291.975 373.903 291.954 373.95C291.934 373.997 291.906 374.081 291.871 374.201C291.836 374.321 291.812 374.398 291.798 374.432L287.912 386.703L288.152 386.944C287.88 387.124 287.638 387.335 287.426 387.576C287.214 387.816 287.027 388.013 286.867 388.167C286.707 388.321 286.515 388.428 286.292 388.488C286.244 388.501 286.183 388.547 286.11 388.623C286.037 388.7 286 388.769 286 388.829C286 388.949 286.063 389.049 286.188 389.13C286.313 389.21 286.453 389.25 286.606 389.25C286.801 389.25 286.989 389.175 287.17 389.024C287.351 388.874 287.534 388.682 287.718 388.448C287.903 388.214 288.037 388.06 288.121 387.987C288.302 387.833 288.504 387.686 288.726 387.546L288.998 387.796L301.346 383.776C301.617 383.696 301.826 383.575 301.972 383.415C302.265 383.114 302.416 382.698 302.427 382.167C302.437 381.635 302.321 381.05 302.077 380.412C301.833 379.774 301.469 379.092 300.985 378.367C300.501 377.642 299.928 376.945 299.267 376.276ZM298.139 377.369C299.204 378.412 300.014 379.409 300.567 380.362C301.121 381.314 301.255 381.941 300.97 382.242C300.684 382.543 300.061 382.432 299.1 381.911C298.139 381.39 297.129 380.611 296.07 379.575C294.998 378.532 294.185 377.536 293.631 376.587C293.077 375.638 292.943 375.01 293.229 374.702C293.514 374.401 294.139 374.512 295.104 375.033C296.069 375.554 297.08 376.333 298.139 377.369ZM295.851 381.52C296.359 381.954 296.864 382.335 297.366 382.663C297.373 382.676 297.547 382.99 297.888 383.605L297.01 383.896C296.593 383.141 296.206 382.349 295.851 381.52ZM292.289 376.928C292.442 377.256 292.654 377.653 292.926 378.121C293.149 379.084 293.499 380.126 293.976 381.249C294.453 382.372 294.973 383.425 295.538 384.407L294.67 384.688C294.016 383.525 293.445 382.307 292.957 381.034C292.47 379.76 292.17 378.636 292.059 377.66L292.289 376.928ZM291.077 380.598C291.564 382.095 292.25 383.632 293.135 385.21L292.278 385.5C291.589 384.23 291.046 383.037 290.649 381.921L291.077 380.598ZM289.876 384.257C290.147 384.872 290.436 385.457 290.743 386.012L289.886 386.302C289.789 386.122 289.649 385.844 289.468 385.47L289.876 384.257ZM297.554 370L298.076 371.514L296.728 372.456H298.389L298.901 373.97L299.413 372.456H301.064L299.726 371.514L300.249 370.01L298.901 370.942L297.554 370ZM294.629 370L294.347 371.374L295.778 371.644L296.06 370.271L294.629 370ZM304.041 374.131L305.19 372.978L306.684 373.68L305.911 372.276L307.07 371.143L305.43 371.414L304.657 370L304.427 371.584L302.787 371.855L304.281 372.547L304.041 374.131ZM303.654 376.597L305.044 377.479L304.605 379.023L305.9 378.021L307.279 378.903L306.705 377.399L308 376.417L306.339 376.487L305.754 374.993L305.326 376.527L303.654 376.597ZM303.059 372.877L299.946 375.324L300.332 375.775L303.445 373.329L303.059 372.877ZM304.145 377.61L301.711 377.399L301.649 377.981L304.093 378.191L304.145 377.61ZM304.386 380.417L303.936 381.761L305.326 382.192L305.785 380.858L304.386 380.417Z" fill="white"/>
<path d="M296.75 405.833C297.256 405.833 297.667 405.423 297.667 404.917C297.667 404.41 297.256 404 296.75 404C296.244 404 295.833 404.41 295.833 404.917C295.833 405.423 296.244 405.833 296.75 405.833Z" fill="white"/>
<path d="M299.347 413.411H297.819V407.056H295.528C295.325 407.056 295.131 407.139 294.988 407.288C294.844 407.437 294.764 407.639 294.764 407.85C294.764 408.061 294.844 408.263 294.988 408.412C295.131 408.561 295.325 408.644 295.528 408.644H296.292V413.411H294.764C294.561 413.411 294.367 413.495 294.224 413.644C294.08 413.793 294 413.995 294 414.206C294 414.416 294.08 414.618 294.224 414.767C294.367 414.916 294.561 415 294.764 415H299.347C299.55 415 299.744 414.916 299.887 414.767C300.031 414.618 300.111 414.416 300.111 414.206C300.111 413.995 300.031 413.793 299.887 413.644C299.744 413.495 299.55 413.411 299.347 413.411Z" fill="white"/>
<path d="M296.625 400C294.721 400 292.86 400.564 291.278 401.622C289.695 402.68 288.461 404.183 287.733 405.942C287.004 407.7 286.814 409.636 287.185 411.503C287.556 413.37 288.473 415.085 289.819 416.431C291.165 417.777 292.88 418.694 294.747 419.065C296.614 419.436 298.55 419.246 300.308 418.517C302.067 417.789 303.57 416.555 304.628 414.972C305.686 413.39 306.25 411.529 306.25 409.625C306.25 407.072 305.236 404.624 303.431 402.819C301.626 401.014 299.178 400 296.625 400V400ZM296.625 417.646C295.039 417.646 293.488 417.175 292.169 416.294C290.85 415.413 289.822 414.16 289.215 412.694C288.608 411.229 288.449 409.616 288.758 408.06C289.068 406.504 289.832 405.075 290.953 403.953C292.075 402.832 293.504 402.068 295.06 401.758C296.616 401.449 298.229 401.608 299.694 402.215C301.16 402.822 302.413 403.85 303.294 405.169C304.175 406.488 304.646 408.039 304.646 409.625C304.646 410.678 304.438 411.721 304.035 412.694C303.632 413.668 303.041 414.552 302.297 415.297C301.552 416.041 300.668 416.632 299.694 417.035C298.721 417.438 297.678 417.646 296.625 417.646V417.646Z" fill="white"/>
<path d="M301.813 442.75C301.298 442.752 300.791 442.87 300.328 443.095C299.865 443.32 299.458 443.646 299.138 444.049L294.113 440.907C294.296 440.316 294.296 439.683 294.113 439.092L299.138 435.95C299.648 436.582 300.366 437.013 301.163 437.166C301.96 437.32 302.786 437.186 303.494 436.789C304.202 436.392 304.747 435.757 305.032 434.997C305.317 434.236 305.323 433.4 305.05 432.635C304.777 431.871 304.243 431.227 303.541 430.819C302.839 430.411 302.015 430.264 301.216 430.405C300.416 430.546 299.692 430.966 299.172 431.589C298.653 432.213 298.37 433 298.375 433.812C298.379 434.12 298.425 434.425 298.513 434.72L293.487 437.862C293.043 437.303 292.437 436.896 291.752 436.698C291.067 436.5 290.337 436.519 289.663 436.754C288.99 436.989 288.406 437.428 287.993 438.009C287.58 438.591 287.358 439.286 287.358 440C287.358 440.713 287.58 441.409 287.993 441.99C288.406 442.572 288.99 443.011 289.663 443.245C290.337 443.48 291.067 443.5 291.752 443.302C292.437 443.103 293.043 442.696 293.487 442.138L298.513 445.28C298.425 445.574 298.379 445.88 298.375 446.187C298.375 446.867 298.577 447.532 298.955 448.097C299.332 448.662 299.869 449.103 300.497 449.363C301.125 449.623 301.817 449.691 302.483 449.559C303.15 449.426 303.763 449.099 304.243 448.618C304.724 448.137 305.052 447.525 305.184 446.858C305.317 446.191 305.249 445.5 304.989 444.872C304.728 444.244 304.288 443.707 303.723 443.329C303.157 442.951 302.493 442.75 301.813 442.75V442.75ZM301.813 431.75C302.221 431.75 302.619 431.871 302.959 432.097C303.298 432.324 303.562 432.646 303.718 433.023C303.874 433.4 303.915 433.815 303.836 434.215C303.756 434.615 303.56 434.982 303.271 435.271C302.983 435.559 302.615 435.756 302.215 435.835C301.815 435.915 301.4 435.874 301.023 435.718C300.647 435.562 300.325 435.297 300.098 434.958C299.871 434.619 299.75 434.22 299.75 433.812C299.75 433.265 299.968 432.741 300.354 432.354C300.741 431.967 301.266 431.75 301.813 431.75V431.75ZM290.813 442.062C290.405 442.062 290.006 441.941 289.667 441.715C289.328 441.488 289.063 441.166 288.907 440.789C288.751 440.412 288.71 439.997 288.79 439.597C288.869 439.197 289.066 438.83 289.354 438.541C289.643 438.253 290.01 438.056 290.41 437.977C290.81 437.897 291.225 437.938 291.602 438.094C291.979 438.25 292.301 438.515 292.528 438.854C292.754 439.193 292.875 439.592 292.875 440C292.875 440.547 292.658 441.071 292.271 441.458C291.884 441.845 291.36 442.062 290.813 442.062ZM301.813 448.25C301.405 448.25 301.006 448.129 300.667 447.902C300.328 447.676 300.063 447.353 299.907 446.977C299.751 446.6 299.71 446.185 299.79 445.785C299.869 445.385 300.066 445.017 300.354 444.729C300.643 444.44 301.01 444.244 301.41 444.164C301.81 444.085 302.225 444.126 302.602 444.282C302.979 444.438 303.301 444.702 303.528 445.041C303.754 445.381 303.875 445.779 303.875 446.187C303.875 446.734 303.658 447.259 303.271 447.646C302.884 448.032 302.36 448.25 301.813 448.25V448.25Z" fill="white"/>
<path d="M303.416 460.833H291.747C291.103 460.834 290.48 461.059 289.986 461.471C289.492 461.883 289.158 462.456 289.042 463.088L287.878 469.505C287.806 469.901 287.821 470.309 287.924 470.699C288.026 471.088 288.213 471.451 288.471 471.761C288.729 472.07 289.052 472.319 289.417 472.49C289.781 472.661 290.179 472.75 290.582 472.75H294.762L294.249 474.061C294.036 474.635 293.964 475.252 294.042 475.859C294.119 476.467 294.343 477.047 294.694 477.549C295.044 478.051 295.511 478.46 296.055 478.742C296.599 479.024 297.203 479.17 297.815 479.167C297.991 479.166 298.164 479.115 298.312 479.019C298.46 478.923 298.577 478.787 298.649 478.626L301.262 472.75H303.416C304.145 472.75 304.845 472.46 305.36 471.945C305.876 471.429 306.166 470.729 306.166 470V463.583C306.166 462.854 305.876 462.155 305.36 461.639C304.845 461.123 304.145 460.833 303.416 460.833ZM299.749 471.641L297.256 477.251C297.001 477.174 296.764 477.045 296.561 476.873C296.357 476.701 296.191 476.489 296.072 476.25C295.954 476.011 295.885 475.751 295.871 475.485C295.857 475.219 295.898 474.952 295.991 474.703L296.477 473.392C296.58 473.115 296.615 472.817 296.578 472.523C296.542 472.23 296.435 471.949 296.266 471.706C296.098 471.463 295.873 471.264 295.611 471.127C295.349 470.989 295.058 470.917 294.762 470.917H290.582C290.448 470.917 290.315 470.887 290.193 470.83C290.071 470.773 289.963 470.69 289.877 470.587C289.788 470.485 289.724 470.364 289.687 470.234C289.651 470.105 289.643 469.968 289.666 469.835L290.83 463.418C290.869 463.205 290.983 463.012 291.15 462.874C291.318 462.737 291.53 462.663 291.747 462.667H299.749V471.641ZM304.332 470C304.332 470.243 304.236 470.476 304.064 470.648C303.892 470.82 303.659 470.917 303.416 470.917H301.582V462.667H303.416C303.659 462.667 303.892 462.763 304.064 462.935C304.236 463.107 304.332 463.34 304.332 463.583V470Z" fill="white"/>
<path d="M163 226C167.747 226 172.387 227.408 176.334 230.045C180.28 232.682 183.357 236.43 185.173 240.816C186.99 245.201 187.465 250.027 186.539 254.682C185.613 259.338 183.327 263.614 179.971 266.971C176.614 270.327 172.338 272.613 167.682 273.539C163.027 274.465 158.201 273.99 153.816 272.173C149.43 270.357 145.682 267.28 143.045 263.334C140.408 259.387 139 254.747 139 250C139 243.635 141.529 237.53 146.029 233.029C150.53 228.529 156.635 226 163 226V226ZM163 222C157.462 222 152.049 223.642 147.444 226.719C142.839 229.796 139.251 234.169 137.131 239.285C135.012 244.401 134.458 250.031 135.538 255.463C136.618 260.894 139.285 265.883 143.201 269.799C147.117 273.715 152.106 276.382 157.537 277.462C162.969 278.542 168.599 277.988 173.715 275.869C178.831 273.749 183.204 270.161 186.281 265.556C189.358 260.951 191 255.538 191 250C191 242.574 188.05 235.452 182.799 230.201C177.548 224.95 170.426 222 163 222V222Z" fill="white" fill-opacity="0.6"/>
<path d="M155 264C154.641 264 154.289 263.903 153.98 263.72C153.681 263.543 153.434 263.291 153.262 262.99C153.09 262.688 153 262.347 153 262V238C153 237.653 153.09 237.312 153.262 237.01C153.434 236.709 153.681 236.457 153.98 236.28C154.284 236.104 154.629 236.012 154.98 236.012C155.331 236.012 155.676 236.104 155.98 236.28L177.98 248.28C178.298 248.451 178.563 248.705 178.748 249.015C178.932 249.325 179.03 249.679 179.03 250.04C179.03 250.401 178.932 250.755 178.748 251.065C178.563 251.375 178.298 251.629 177.98 251.8L155.98 263.8C155.676 263.949 155.338 264.017 155 264V264ZM157 241.36V258.64L172.82 250L157 241.36Z" fill="white" fill-opacity="0.6"/>
<defs>
<linearGradient id="paint0_linear" x1="24.3621" y1="148" x2="263.98" y2="150.08" gradientUnits="userSpaceOnUse">
<stop stop-opacity="0"/>
<stop stop-opacity="0"/>
<stop offset="1"/>
</linearGradient>
<clipPath id="clip0">
<rect width="60.0157" height="15.1496" fill="white" transform="translate(27.9922 361.331)"/>
</clipPath>
<clipPath id="clip1">
<rect width="59" height="16" fill="white" transform="translate(81 464.811)"/>
</clipPath>
</defs>
</svg>
