<svg width="326" height="500" viewBox="0 0 326 500" fill="none" xmlns="http://www.w3.org/2000/svg">
<rect width="314" height="326" transform="translate(326 186) rotate(90)" fill="url(#paint0_linear)"/>
<path d="M21 368.906C21 363.435 25.4349 359 30.9055 359H85.0945C90.5651 359 95 363.435 95 368.906V368.906C95 374.376 90.5651 378.811 85.0945 378.811H30.9055C25.4349 378.811 21 374.376 21 368.906V368.906Z" fill="#111111" fill-opacity="0.2"/>
<g clip-path="url(#clip0)">
<path d="M38.8511 368.045C38.8511 367.434 38.4178 366.923 37.8436 366.8C38.073 366.417 38.2138 365.974 38.2138 365.496C38.2138 364.09 37.0705 362.946 35.6646 362.946C34.6978 362.946 33.8668 363.493 33.4341 364.287C33.0013 363.493 32.1703 362.946 31.2035 362.946C29.7976 362.946 28.6543 364.09 28.6543 365.496C28.6543 366.07 28.8531 366.596 29.175 367.023C29.0141 367.14 28.8832 367.294 28.7927 367.472C28.7023 367.649 28.6549 367.846 28.6543 368.045V373.143C28.6543 373.846 29.226 374.418 29.9289 374.418H37.5765C38.2795 374.418 38.8511 373.846 38.8511 373.143V371.462L41.4004 372.737V368.276L38.8511 369.55V368.045ZM35.6646 364.221C36.3676 364.221 36.9392 364.793 36.9392 365.496C36.9392 366.199 36.3676 366.77 35.6646 366.77C34.9617 366.77 34.39 366.199 34.39 365.496C34.39 364.793 34.9617 364.221 35.6646 364.221ZM31.2035 364.221C31.9065 364.221 32.4781 364.793 32.4781 365.496C32.4781 366.199 31.9065 366.77 31.2035 366.77C30.5006 366.77 29.9289 366.199 29.9289 365.496C29.9289 364.793 30.5006 364.221 31.2035 364.221ZM29.9289 373.143V368.045H37.5765L37.5778 373.143H29.9289Z" fill="white"/>
<path d="M55.4394 364.566V365.591H52.3667V374.331H51.1035V365.591H48.0307V364.566H55.4394ZM56.8119 374.331V367.161H57.6654L57.8907 368.076C58.5189 367.466 59.2746 367.161 60.1577 367.161V368.213C59.3019 368.213 58.6077 368.515 58.0751 369.121V374.331H56.8119ZM61.0864 372.166C61.0864 370.696 62.056 369.961 63.9952 369.961C64.6188 369.961 65.2425 370.006 65.8661 370.097V369.421C65.8661 368.597 65.222 368.185 63.9337 368.185C63.1963 368.185 62.4406 368.299 61.6668 368.527V367.502C62.4406 367.275 63.1963 367.161 63.9337 367.161C66.0641 367.161 67.1294 367.903 67.1294 369.387V374.331H66.4192L65.9822 373.621C65.2675 374.094 64.4891 374.331 63.6469 374.331C61.9399 374.331 61.0864 373.609 61.0864 372.166ZM63.9952 370.985C62.8981 370.985 62.3496 371.372 62.3496 372.146C62.3496 372.92 62.782 373.306 63.6469 373.306C64.521 373.306 65.2607 373.074 65.8661 372.61V371.121C65.2425 371.03 64.6188 370.985 63.9952 370.985ZM70.5844 367.161V374.331H69.3212V367.161H70.5844ZM70.5844 364.566V365.761H69.3212V364.566H70.5844ZM74.1078 364.566V374.331H72.8446V364.566H74.1078ZM79.188 367.161C81.2274 367.161 82.2471 368.169 82.2471 370.186C82.2471 370.473 82.2266 370.78 82.1856 371.108H77.1532C77.1532 372.574 78.009 373.306 79.7206 373.306C80.5355 373.306 81.2593 373.215 81.892 373.033V374.058C81.2593 374.24 80.49 374.331 79.5841 374.331C77.1214 374.331 75.89 373.108 75.89 370.664C75.89 368.329 76.9893 367.161 79.188 367.161ZM77.1532 370.056H81.0317C81.0044 368.8 80.3898 368.172 79.188 368.172C77.9134 368.172 77.2352 368.8 77.1532 370.056ZM83.9473 374.331V367.161H84.8009L85.0262 368.076C85.6544 367.466 86.4101 367.161 87.2932 367.161V368.213C86.4374 368.213 85.7432 368.515 85.2106 369.121V374.331H83.9473Z" fill="white"/>
</g>
<path d="M30.9055 360.165H85.0945V357.835H30.9055V360.165ZM85.0945 377.646H30.9055V379.976H85.0945V377.646ZM30.9055 377.646C26.0785 377.646 22.1654 373.733 22.1654 368.906H19.8346C19.8346 375.02 24.7912 379.976 30.9055 379.976V377.646ZM93.8346 368.906C93.8346 373.733 89.9215 377.646 85.0945 377.646V379.976C91.2088 379.976 96.1654 375.02 96.1654 368.906H93.8346ZM85.0945 360.165C89.9215 360.165 93.8346 364.078 93.8346 368.906H96.1654C96.1654 362.791 91.2088 357.835 85.0945 357.835V360.165ZM30.9055 357.835C24.7912 357.835 19.8346 362.791 19.8346 368.906H22.1654C22.1654 364.078 26.0785 360.165 30.9055 360.165V357.835Z" fill="white"/>
<path d="M31.5957 390.846V393.092H27.5918V404.811H25.0039V393.092H21V390.846H31.5957ZM32.8262 404.811V390.846H35.4141V395.866C36.2214 394.993 37.2533 394.557 38.5098 394.557C40.9382 394.557 42.1523 395.82 42.1523 398.346V404.811H39.5645V398.346C39.5645 397.213 39.0013 396.647 37.875 396.647C37.0352 396.647 36.2148 396.982 35.4141 397.653V404.811H32.8262ZM48.9297 394.557C52.0417 394.557 53.5977 396.146 53.5977 399.323C53.5977 399.746 53.5684 400.169 53.5098 400.592H46.7031C46.7031 402.038 47.7643 402.76 49.8867 402.76C50.9219 402.76 51.957 402.663 52.9922 402.467V404.518C52.0872 404.713 50.987 404.811 49.6914 404.811C45.974 404.811 44.1152 403.063 44.1152 399.567C44.1152 396.227 45.7201 394.557 48.9297 394.557ZM46.7031 398.795H51.0781V398.717C51.0781 397.298 50.362 396.588 48.9297 396.588C47.5625 396.588 46.8203 397.324 46.7031 398.795ZM60.1797 404.792V390.846H66.5273C69.3789 390.846 70.8047 392.093 70.8047 394.586C70.8047 396.273 69.6947 397.669 67.4746 398.776L71.8984 404.811H68.6367L64.3887 398.727V397.545C66.8626 397.122 68.0996 396.162 68.0996 394.665C68.0996 393.636 67.5202 393.122 66.3613 393.122H62.8164V404.792H60.1797ZM77.2109 394.557C80.3229 394.557 81.8789 396.146 81.8789 399.323C81.8789 399.746 81.8496 400.169 81.791 400.592H74.9844C74.9844 402.038 76.0456 402.76 78.168 402.76C79.2031 402.76 80.2383 402.663 81.2734 402.467V404.518C80.3685 404.713 79.2682 404.811 77.9727 404.811C74.2552 404.811 72.3965 403.063 72.3965 399.567C72.3965 396.227 74.0013 394.557 77.2109 394.557ZM74.9844 398.795H79.3594V398.717C79.3594 397.298 78.6432 396.588 77.2109 396.588C75.8438 396.588 75.1016 397.324 74.9844 398.795ZM86.4102 402.135C87.0547 402.487 87.748 402.663 88.4902 402.663C90.0332 402.663 90.8047 401.579 90.8047 399.411C90.8047 397.568 89.9518 396.647 88.2461 396.647C87.5104 396.647 86.8984 396.693 86.4102 396.784V402.135ZM83.8223 394.977C85.1829 394.697 86.6217 394.557 88.1387 394.557C91.6217 394.557 93.3633 396.181 93.3633 399.43C93.3633 403.017 91.7422 404.811 88.5 404.811C87.8099 404.811 87.1133 404.648 86.4102 404.323V408.522H83.8223V394.977ZM97.4258 399.645C97.4258 401.787 98.2559 402.858 99.916 402.858C101.576 402.858 102.406 401.787 102.406 399.645C102.406 397.555 101.576 396.51 99.916 396.51C98.2559 396.51 97.4258 397.555 97.4258 399.645ZM94.8379 399.684C94.8379 396.247 96.5306 394.528 99.916 394.528C103.301 394.528 104.994 396.247 104.994 399.684C104.994 403.115 103.301 404.831 99.916 404.831C96.5436 404.831 94.8509 403.115 94.8379 399.684ZM106.947 404.811V394.557H108.949L109.271 395.866C110.17 394.993 111.12 394.557 112.123 394.557V396.647C111.16 396.647 110.297 397.047 109.535 397.848V404.811H106.947ZM113.441 392.897H115.355L115.746 394.557H118.324V396.608H116.029V401.325C116.029 402.282 116.443 402.76 117.27 402.76H118.324V404.811H116.02C114.301 404.811 113.441 403.89 113.441 402.047V392.897Z" fill="white"/>
<path d="M27.25 419.342L25.4727 422.944L21.5 423.518L24.375 426.323L23.6953 430.28L27.25 428.413L30.8047 430.28L30.125 426.323L33 423.522L29.0273 422.944L27.25 419.342Z" fill="#F39B13"/>
<path d="M37.8301 429.811L41.6787 420.952H36.5244V419.817H42.9502V420.808L39.1562 429.811H37.8301ZM44.625 429.052C44.625 428.879 44.6478 428.733 44.6934 428.615C44.7389 428.492 44.8005 428.394 44.8779 428.321C44.9554 428.243 45.0465 428.189 45.1514 428.157C45.2562 428.12 45.3701 428.102 45.4932 428.102C45.6117 428.102 45.7233 428.12 45.8281 428.157C45.9375 428.189 46.0309 428.243 46.1084 428.321C46.1859 428.394 46.2474 428.492 46.293 428.615C46.3385 428.733 46.3613 428.879 46.3613 429.052C46.3613 429.221 46.3385 429.367 46.293 429.49C46.2474 429.608 46.1859 429.706 46.1084 429.784C46.0309 429.861 45.9375 429.918 45.8281 429.955C45.7233 429.991 45.6117 430.009 45.4932 430.009C45.3701 430.009 45.2562 429.991 45.1514 429.955C45.0465 429.918 44.9554 429.861 44.8779 429.784C44.8005 429.706 44.7389 429.608 44.6934 429.49C44.6478 429.367 44.625 429.221 44.625 429.052ZM54.2705 429.811H48.0361V428.745L50.4287 426.14C50.7705 425.771 51.0758 425.434 51.3447 425.128C51.6136 424.823 51.8415 424.525 52.0283 424.233C52.2197 423.941 52.3656 423.65 52.4658 423.358C52.5661 423.062 52.6162 422.74 52.6162 422.394C52.6162 422.125 52.5775 421.888 52.5 421.683C52.4225 421.478 52.3109 421.305 52.165 421.164C52.0238 421.018 51.8551 420.908 51.6592 420.835C51.4632 420.763 51.2445 420.726 51.0029 420.726C50.57 420.726 50.1781 420.815 49.8271 420.993C49.4808 421.166 49.1504 421.389 48.8359 421.663L48.1387 420.849C48.321 420.685 48.5169 420.532 48.7266 420.391C48.9362 420.245 49.1618 420.12 49.4033 420.015C49.6449 419.91 49.9001 419.828 50.1689 419.769C50.4378 419.705 50.7204 419.673 51.0166 419.673C51.4541 419.673 51.8483 419.735 52.1992 419.858C52.5547 419.981 52.8555 420.159 53.1016 420.391C53.3477 420.619 53.5368 420.899 53.6689 421.232C53.8057 421.56 53.874 421.931 53.874 422.346C53.874 422.734 53.8125 423.103 53.6895 423.454C53.571 423.805 53.4046 424.151 53.1904 424.493C52.9808 424.83 52.7279 425.169 52.4316 425.511C52.14 425.853 51.8232 426.208 51.4814 426.578L49.5605 428.622V428.676H54.2705V429.811Z" fill="white"/>
<path d="M60.1523 420.036V429.811H58.8877V420.036H60.1523ZM62.6885 429.811V420.036H64.2949L67.8838 428.191L71.4043 420.036H72.9424V429.811H71.8145V421.792L68.3418 429.811H67.3438L63.8164 421.792V429.811H62.6885ZM78.8213 428.786C81.2139 428.786 82.4102 427.409 82.4102 424.657C82.4102 422.26 81.2139 421.061 78.8213 421.061H76.5312V428.786H78.8213ZM75.2666 429.811V420.036H78.8213C82.057 420.036 83.6748 421.576 83.6748 424.657C83.6748 428.093 82.057 429.811 78.8213 429.811H75.2666ZM86.6484 428.56C87.0632 428.692 87.5667 428.758 88.1592 428.758C89.7542 428.758 90.5518 427.849 90.5518 426.031C90.5518 424.495 89.8294 423.727 88.3848 423.727C87.7285 423.727 87.1497 423.85 86.6484 424.096V428.56ZM85.3838 420.036H86.6484V422.975C87.1908 422.747 87.7718 422.633 88.3916 422.633C90.6611 422.633 91.7959 423.782 91.7959 426.079C91.7959 428.567 90.6042 429.811 88.2207 429.811C87.1908 429.811 86.2451 429.713 85.3838 429.517V420.036Z" fill="white"/>
<path d="M26.585 453.811H24.4727V448.028C24.4727 447.909 24.4727 447.768 24.4727 447.604C24.4772 447.435 24.4818 447.262 24.4863 447.084C24.4954 446.902 24.5023 446.72 24.5068 446.538C24.516 446.355 24.5228 446.189 24.5273 446.039C24.5046 446.066 24.4658 446.107 24.4111 446.162C24.3564 446.216 24.2949 446.278 24.2266 446.346C24.1582 446.41 24.0876 446.476 24.0146 446.544C23.9417 446.613 23.8711 446.674 23.8027 446.729L22.6543 447.652L21.6289 446.38L24.8486 443.817H26.585V453.811ZM40.0723 453.811H37.9873V449.347C37.9873 448.796 37.9007 448.383 37.7275 448.11C37.5589 447.832 37.2969 447.693 36.9414 447.693C36.6725 447.693 36.4469 447.748 36.2646 447.857C36.0824 447.966 35.9365 448.128 35.8271 448.342C35.7178 448.556 35.6403 448.821 35.5947 449.135C35.5492 449.45 35.5264 449.81 35.5264 450.215V453.811H33.4414V443.174H35.5264V445.341C35.5264 445.533 35.5218 445.736 35.5127 445.95C35.5036 446.159 35.4922 446.353 35.4785 446.531C35.4603 446.74 35.4443 446.945 35.4307 447.146H35.54C35.7633 446.75 36.0482 446.465 36.3945 446.292C36.7409 446.114 37.1328 446.025 37.5703 446.025C37.9486 446.025 38.2904 446.08 38.5957 446.189C38.9056 446.294 39.1699 446.46 39.3887 446.688C39.6074 446.916 39.776 447.208 39.8945 447.563C40.013 447.914 40.0723 448.335 40.0723 448.828V453.811ZM46.2041 446.025C46.2588 446.025 46.318 446.027 46.3818 446.032C46.4502 446.032 46.514 446.036 46.5732 446.045C46.637 446.05 46.694 446.057 46.7441 446.066C46.7988 446.07 46.8398 446.077 46.8672 446.086V448.042C46.8307 448.032 46.7806 448.023 46.7168 448.014C46.653 448.005 46.5846 447.998 46.5117 447.994C46.4434 447.985 46.375 447.98 46.3066 447.98C46.2383 447.975 46.1813 447.973 46.1357 447.973C45.8669 447.973 45.6185 448.007 45.3906 448.076C45.1673 448.144 44.9736 448.256 44.8096 448.411C44.6501 448.561 44.5247 448.762 44.4336 449.012C44.347 449.258 44.3037 449.561 44.3037 449.921V453.811H42.2188V446.168H43.7979L44.1055 447.317H44.208C44.3174 447.121 44.4359 446.943 44.5635 446.784C44.6911 446.624 44.8324 446.49 44.9873 446.38C45.1468 446.266 45.3245 446.18 45.5205 446.121C45.721 446.057 45.9489 446.025 46.2041 446.025ZM54.9336 447.426C55.362 447.426 55.7607 447.492 56.1299 447.625C56.499 447.757 56.8203 447.95 57.0938 448.206C57.3672 448.461 57.5814 448.78 57.7363 449.163C57.8913 449.541 57.9688 449.976 57.9688 450.468C57.9688 451.011 57.8844 451.498 57.7158 451.931C57.5472 452.36 57.2988 452.724 56.9707 453.025C56.6426 453.321 56.2347 453.549 55.7471 453.708C55.264 453.868 54.708 453.948 54.0791 453.948C53.8285 453.948 53.5801 453.936 53.334 453.914C53.0879 453.891 52.8509 453.857 52.623 453.811C52.3997 453.77 52.1855 453.715 51.9805 453.647C51.7799 453.579 51.5977 453.499 51.4336 453.408V451.583C51.5931 451.674 51.7777 451.76 51.9873 451.842C52.1969 451.92 52.4134 451.988 52.6367 452.047C52.8646 452.102 53.0924 452.148 53.3203 452.184C53.5482 452.216 53.7646 452.232 53.9697 452.232C54.5804 452.232 55.0452 452.107 55.3643 451.856C55.6833 451.601 55.8428 451.197 55.8428 450.646C55.8428 450.154 55.6855 449.78 55.3711 449.525C55.0612 449.265 54.5804 449.135 53.9287 449.135C53.8102 449.135 53.6826 449.142 53.5459 449.156C53.4137 449.169 53.2816 449.188 53.1494 449.21C53.0218 449.233 52.8988 449.258 52.7803 449.286C52.6618 449.308 52.5592 449.333 52.4727 449.361L51.6318 448.91L52.0078 443.817H57.2852V445.608H53.8398L53.6758 447.57C53.8216 447.538 53.9902 447.506 54.1816 447.474C54.3776 447.442 54.6283 447.426 54.9336 447.426ZM65.7686 448.083C65.7686 448.561 65.7412 449.04 65.6865 449.518C65.6364 449.992 65.543 450.445 65.4062 450.878C65.2741 451.311 65.0918 451.717 64.8594 452.095C64.6315 452.469 64.3398 452.792 63.9844 453.066C63.6335 453.339 63.2096 453.556 62.7129 453.715C62.2207 453.87 61.6419 453.948 60.9766 453.948C60.8809 453.948 60.776 453.945 60.6621 453.941C60.5482 453.936 60.432 453.93 60.3135 453.92C60.1995 453.916 60.0879 453.907 59.9785 453.893C59.8691 453.884 59.7734 453.87 59.6914 453.852V452.157C59.86 452.202 60.04 452.239 60.2314 452.266C60.4274 452.289 60.6257 452.3 60.8262 452.3C61.4414 452.3 61.9473 452.225 62.3438 452.075C62.7402 451.92 63.0547 451.706 63.2871 451.432C63.5195 451.154 63.6836 450.824 63.7793 450.441C63.8796 450.058 63.9411 449.637 63.9639 449.176H63.875C63.7839 449.34 63.6745 449.493 63.5469 449.634C63.4193 449.776 63.2689 449.899 63.0957 450.003C62.9225 450.108 62.7266 450.19 62.5078 450.25C62.2891 450.309 62.0452 450.338 61.7764 450.338C61.3434 450.338 60.9538 450.268 60.6074 450.126C60.2611 449.985 59.9671 449.78 59.7256 449.511C59.4886 449.242 59.3063 448.912 59.1787 448.52C59.0511 448.128 58.9873 447.679 58.9873 447.173C58.9873 446.631 59.0625 446.146 59.2129 445.717C59.3678 445.289 59.5866 444.927 59.8691 444.63C60.1517 444.33 60.4935 444.099 60.8945 443.94C61.3001 443.78 61.7536 443.701 62.2549 443.701C62.7471 443.701 63.2074 443.79 63.6357 443.967C64.0641 444.14 64.4355 444.407 64.75 444.767C65.0645 445.127 65.3128 445.583 65.4951 446.134C65.6774 446.686 65.7686 447.335 65.7686 448.083ZM62.2959 445.396C62.109 445.396 61.9382 445.43 61.7832 445.499C61.6283 445.567 61.4938 445.674 61.3799 445.82C61.2705 445.961 61.1839 446.143 61.1201 446.367C61.0609 446.585 61.0312 446.845 61.0312 447.146C61.0312 447.629 61.1338 448.012 61.3389 448.294C61.5439 448.577 61.8538 448.718 62.2686 448.718C62.4782 448.718 62.6696 448.677 62.8428 448.595C63.016 448.513 63.1641 448.406 63.2871 448.274C63.4102 448.142 63.5036 447.994 63.5674 447.83C63.6357 447.666 63.6699 447.499 63.6699 447.331C63.6699 447.098 63.6403 446.868 63.5811 446.64C63.5264 446.408 63.4398 446.2 63.3213 446.018C63.2074 445.831 63.0638 445.681 62.8906 445.567C62.722 445.453 62.5238 445.396 62.2959 445.396ZM77.5605 453.811H75.4756V449.347C75.4756 448.796 75.3936 448.383 75.2295 448.11C75.0654 447.832 74.8079 447.693 74.457 447.693C74.1927 447.693 73.9717 447.748 73.7939 447.857C73.6208 447.966 73.4818 448.128 73.377 448.342C73.2721 448.556 73.1969 448.821 73.1514 449.135C73.1058 449.45 73.083 449.81 73.083 450.215V453.811H70.998V446.168H72.5908L72.8711 447.146H72.9873C73.0967 446.95 73.2266 446.781 73.377 446.64C73.5319 446.499 73.7005 446.383 73.8828 446.292C74.0651 446.2 74.2588 446.134 74.4639 446.093C74.6689 446.048 74.8763 446.025 75.0859 446.025C75.61 446.025 76.0544 446.116 76.4189 446.298C76.7881 446.476 77.0706 446.759 77.2666 447.146H77.4375C77.5469 446.95 77.679 446.781 77.834 446.64C77.9889 446.499 78.1598 446.383 78.3467 446.292C78.5335 446.2 78.7295 446.134 78.9346 446.093C79.1442 446.048 79.3538 446.025 79.5635 446.025C80.3838 446.025 81.0013 446.248 81.416 446.695C81.8353 447.137 82.0449 447.848 82.0449 448.828V453.811H79.9531V449.347C79.9531 448.796 79.8711 448.383 79.707 448.11C79.543 447.832 79.2855 447.693 78.9346 447.693C78.4378 447.693 78.0846 447.891 77.875 448.288C77.6654 448.68 77.5605 449.242 77.5605 449.976V453.811ZM84.1025 444.193C84.1025 443.997 84.1322 443.835 84.1914 443.708C84.2507 443.575 84.3304 443.471 84.4307 443.393C84.5355 443.311 84.6562 443.254 84.793 443.222C84.9342 443.19 85.0824 443.174 85.2373 443.174C85.3923 443.174 85.5381 443.19 85.6748 443.222C85.8115 443.254 85.93 443.311 86.0303 443.393C86.1351 443.471 86.2171 443.575 86.2764 443.708C86.3402 443.835 86.3721 443.997 86.3721 444.193C86.3721 444.384 86.3402 444.546 86.2764 444.678C86.2171 444.81 86.1351 444.917 86.0303 445C85.93 445.077 85.8115 445.134 85.6748 445.17C85.5381 445.202 85.3923 445.218 85.2373 445.218C85.0824 445.218 84.9342 445.202 84.793 445.17C84.6562 445.134 84.5355 445.077 84.4307 445C84.3304 444.917 84.2507 444.81 84.1914 444.678C84.1322 444.546 84.1025 444.384 84.1025 444.193ZM86.2764 453.811H84.1914V446.168H86.2764V453.811ZM95.1016 453.811H93.0166V449.347C93.0166 448.796 92.9323 448.383 92.7637 448.11C92.5996 447.832 92.3353 447.693 91.9707 447.693C91.6973 447.693 91.4694 447.748 91.2871 447.857C91.1048 447.966 90.959 448.128 90.8496 448.342C90.7448 448.556 90.6696 448.821 90.624 449.135C90.5785 449.45 90.5557 449.81 90.5557 450.215V453.811H88.4707V446.168H90.0635L90.3438 447.146H90.46C90.5693 446.95 90.7015 446.781 90.8564 446.64C91.016 446.499 91.1891 446.383 91.376 446.292C91.5628 446.2 91.7611 446.134 91.9707 446.093C92.1803 446.048 92.3945 446.025 92.6133 446.025C92.987 446.025 93.3265 446.08 93.6318 446.189C93.9372 446.294 94.1992 446.46 94.418 446.688C94.6367 446.916 94.8053 447.208 94.9238 447.563C95.0423 447.914 95.1016 448.335 95.1016 448.828V453.811Z" fill="white"/>
<path d="M112.267 453.811H105.561V452.341L107.912 449.805C108.208 449.486 108.477 449.192 108.719 448.923C108.96 448.654 109.168 448.392 109.341 448.137C109.514 447.882 109.648 447.622 109.744 447.358C109.84 447.094 109.888 446.809 109.888 446.503C109.888 446.166 109.785 445.904 109.58 445.717C109.38 445.53 109.108 445.437 108.767 445.437C108.407 445.437 108.06 445.526 107.728 445.704C107.395 445.881 107.046 446.134 106.682 446.462L105.533 445.102C105.738 444.915 105.952 444.737 106.176 444.569C106.399 444.396 106.645 444.243 106.914 444.111C107.183 443.979 107.479 443.874 107.803 443.796C108.126 443.714 108.489 443.673 108.89 443.673C109.368 443.673 109.797 443.739 110.175 443.872C110.558 444.004 110.883 444.193 111.152 444.439C111.421 444.681 111.626 444.974 111.768 445.321C111.913 445.667 111.986 446.057 111.986 446.49C111.986 446.882 111.918 447.258 111.781 447.618C111.645 447.973 111.458 448.324 111.221 448.67C110.984 449.012 110.708 449.354 110.394 449.696C110.084 450.033 109.751 450.377 109.396 450.728L108.192 451.938V452.034H112.267V453.811ZM119.991 448.814C119.991 449.621 119.927 450.341 119.8 450.974C119.677 451.608 119.476 452.145 119.198 452.587C118.925 453.029 118.569 453.367 118.132 453.599C117.699 453.832 117.175 453.948 116.56 453.948C115.981 453.948 115.477 453.832 115.049 453.599C114.62 453.367 114.265 453.029 113.982 452.587C113.7 452.145 113.488 451.608 113.347 450.974C113.21 450.341 113.142 449.621 113.142 448.814C113.142 448.007 113.203 447.285 113.326 446.647C113.454 446.009 113.654 445.469 113.928 445.027C114.201 444.585 114.554 444.248 114.987 444.015C115.42 443.778 115.944 443.66 116.56 443.66C117.134 443.66 117.635 443.776 118.063 444.008C118.492 444.241 118.85 444.578 119.137 445.02C119.424 445.462 119.638 446.002 119.779 446.64C119.921 447.278 119.991 448.003 119.991 448.814ZM115.247 448.814C115.247 449.953 115.345 450.81 115.541 451.384C115.737 451.958 116.076 452.246 116.56 452.246C117.034 452.246 117.373 451.961 117.578 451.391C117.788 450.821 117.893 449.962 117.893 448.814C117.893 447.67 117.788 446.811 117.578 446.237C117.373 445.658 117.034 445.369 116.56 445.369C116.318 445.369 116.113 445.442 115.944 445.587C115.78 445.733 115.646 445.95 115.541 446.237C115.436 446.524 115.361 446.884 115.315 447.317C115.27 447.745 115.247 448.244 115.247 448.814ZM126.007 453.811H123.895V448.028C123.895 447.909 123.895 447.768 123.895 447.604C123.899 447.435 123.904 447.262 123.908 447.084C123.917 446.902 123.924 446.72 123.929 446.538C123.938 446.355 123.945 446.189 123.949 446.039C123.926 446.066 123.888 446.107 123.833 446.162C123.778 446.216 123.717 446.278 123.648 446.346C123.58 446.41 123.509 446.476 123.437 446.544C123.364 446.613 123.293 446.674 123.225 446.729L122.076 447.652L121.051 446.38L124.271 443.817H126.007V453.811ZM135.345 448.083C135.345 448.561 135.317 449.04 135.263 449.518C135.213 449.992 135.119 450.445 134.982 450.878C134.85 451.311 134.668 451.717 134.436 452.095C134.208 452.469 133.916 452.792 133.561 453.066C133.21 453.339 132.786 453.556 132.289 453.715C131.797 453.87 131.218 453.948 130.553 453.948C130.457 453.948 130.352 453.945 130.238 453.941C130.124 453.936 130.008 453.93 129.89 453.92C129.776 453.916 129.664 453.907 129.555 453.893C129.445 453.884 129.35 453.87 129.268 453.852V452.157C129.436 452.202 129.616 452.239 129.808 452.266C130.004 452.289 130.202 452.3 130.402 452.3C131.018 452.3 131.523 452.225 131.92 452.075C132.316 451.92 132.631 451.706 132.863 451.432C133.096 451.154 133.26 450.824 133.355 450.441C133.456 450.058 133.517 449.637 133.54 449.176H133.451C133.36 449.34 133.251 449.493 133.123 449.634C132.995 449.776 132.845 449.899 132.672 450.003C132.499 450.108 132.303 450.19 132.084 450.25C131.865 450.309 131.621 450.338 131.353 450.338C130.92 450.338 130.53 450.268 130.184 450.126C129.837 449.985 129.543 449.78 129.302 449.511C129.065 449.242 128.882 448.912 128.755 448.52C128.627 448.128 128.563 447.679 128.563 447.173C128.563 446.631 128.639 446.146 128.789 445.717C128.944 445.289 129.163 444.927 129.445 444.63C129.728 444.33 130.07 444.099 130.471 443.94C130.876 443.78 131.33 443.701 131.831 443.701C132.323 443.701 132.784 443.79 133.212 443.967C133.64 444.14 134.012 444.407 134.326 444.767C134.641 445.127 134.889 445.583 135.071 446.134C135.254 446.686 135.345 447.335 135.345 448.083ZM131.872 445.396C131.685 445.396 131.514 445.43 131.359 445.499C131.204 445.567 131.07 445.674 130.956 445.82C130.847 445.961 130.76 446.143 130.696 446.367C130.637 446.585 130.607 446.845 130.607 447.146C130.607 447.629 130.71 448.012 130.915 448.294C131.12 448.577 131.43 448.718 131.845 448.718C132.054 448.718 132.246 448.677 132.419 448.595C132.592 448.513 132.74 448.406 132.863 448.274C132.986 448.142 133.08 447.994 133.144 447.83C133.212 447.666 133.246 447.499 133.246 447.331C133.246 447.098 133.216 446.868 133.157 446.64C133.103 446.408 133.016 446.2 132.897 446.018C132.784 445.831 132.64 445.681 132.467 445.567C132.298 445.453 132.1 445.396 131.872 445.396Z" fill="white"/>
<path d="M152.939 445.871C152.591 445.871 152.275 445.937 151.992 446.071C151.709 446.201 151.466 446.39 151.265 446.637C151.066 446.885 150.911 447.186 150.801 447.541C150.693 447.895 150.64 448.296 150.64 448.742C150.64 449.201 150.687 449.609 150.781 449.967C150.879 450.322 151.024 450.622 151.216 450.866C151.408 451.11 151.647 451.295 151.934 451.422C152.22 451.549 152.555 451.613 152.939 451.613C153.229 451.613 153.504 451.585 153.765 451.53C154.025 451.471 154.282 451.404 154.536 451.33V452.121C154.409 452.169 154.282 452.213 154.155 452.252C154.028 452.288 153.895 452.318 153.755 452.34C153.618 452.363 153.47 452.379 153.311 452.389C153.154 452.402 152.98 452.409 152.788 452.409C152.254 452.409 151.792 452.321 151.401 452.145C151.011 451.969 150.687 451.72 150.43 451.398C150.176 451.076 149.987 450.688 149.863 450.236C149.74 449.783 149.678 449.282 149.678 448.732C149.678 448.192 149.748 447.697 149.888 447.248C150.031 446.798 150.239 446.413 150.513 446.09C150.789 445.768 151.131 445.517 151.538 445.338C151.945 445.159 152.412 445.07 152.939 445.07C153.291 445.07 153.626 445.106 153.945 445.177C154.264 445.249 154.552 445.353 154.81 445.49L154.429 446.251C154.224 446.147 154.001 446.058 153.76 445.983C153.519 445.908 153.245 445.871 152.939 445.871ZM158.77 445.871C158.421 445.871 158.105 445.937 157.822 446.071C157.539 446.201 157.297 446.39 157.095 446.637C156.896 446.885 156.742 447.186 156.631 447.541C156.523 447.895 156.47 448.296 156.47 448.742C156.47 449.201 156.517 449.609 156.611 449.967C156.709 450.322 156.854 450.622 157.046 450.866C157.238 451.11 157.477 451.295 157.764 451.422C158.05 451.549 158.385 451.613 158.77 451.613C159.059 451.613 159.334 451.585 159.595 451.53C159.855 451.471 160.112 451.404 160.366 451.33V452.121C160.239 452.169 160.112 452.213 159.985 452.252C159.858 452.288 159.725 452.318 159.585 452.34C159.448 452.363 159.3 452.379 159.141 452.389C158.984 452.402 158.81 452.409 158.618 452.409C158.084 452.409 157.622 452.321 157.231 452.145C156.841 451.969 156.517 451.72 156.26 451.398C156.006 451.076 155.817 450.688 155.693 450.236C155.57 449.783 155.508 449.282 155.508 448.732C155.508 448.192 155.578 447.697 155.718 447.248C155.861 446.798 156.069 446.413 156.343 446.09C156.619 445.768 156.961 445.517 157.368 445.338C157.775 445.159 158.242 445.07 158.77 445.07C159.121 445.07 159.456 445.106 159.775 445.177C160.094 445.249 160.382 445.353 160.64 445.49L160.259 446.251C160.054 446.147 159.831 446.058 159.59 445.983C159.349 445.908 159.076 445.871 158.77 445.871Z" fill="white"/>
<path d="M147 442.811H163V440.811H147V442.811ZM165 444.811V452.811H167V444.811H165ZM163 454.811H147V456.811H163V454.811ZM145 452.811V444.811H143V452.811H145ZM147 454.811C145.895 454.811 145 453.916 145 452.811H143C143 455.02 144.791 456.811 147 456.811V454.811ZM165 452.811C165 453.916 164.105 454.811 163 454.811V456.811C165.209 456.811 167 455.02 167 452.811H165ZM163 442.811C164.105 442.811 165 443.706 165 444.811H167C167 442.602 165.209 440.811 163 440.811V442.811ZM147 440.811C144.791 440.811 143 442.602 143 444.811H145C145 443.706 145.895 442.811 147 442.811V440.811Z" fill="white"/>
<path d="M180.931 449.362V452.311H180.022V445.172H181.761C182.627 445.172 183.266 445.34 183.68 445.675C184.093 446.011 184.3 446.518 184.3 447.199C184.3 447.482 184.259 447.729 184.178 447.941C184.1 448.153 183.994 448.335 183.86 448.488C183.73 448.638 183.58 448.763 183.411 448.864C183.242 448.965 183.068 449.048 182.889 449.113L184.832 452.311H183.763L182.049 449.362H180.931ZM180.931 448.59H181.731C182.024 448.59 182.273 448.563 182.479 448.507C182.684 448.449 182.851 448.364 182.981 448.253C183.115 448.139 183.211 448 183.27 447.833C183.331 447.664 183.362 447.467 183.362 447.243C183.362 447.008 183.328 446.81 183.26 446.647C183.195 446.484 183.094 446.351 182.957 446.247C182.824 446.142 182.653 446.068 182.444 446.022C182.239 445.973 181.995 445.949 181.712 445.949H180.931V448.59Z" fill="white"/>
<path d="M177 442.811H187V440.811H177V442.811ZM189 444.811V452.811H191V444.811H189ZM187 454.811H177V456.811H187V454.811ZM175 452.811V444.811H173V452.811H175ZM177 454.811C175.895 454.811 175 453.916 175 452.811H173C173 455.02 174.791 456.811 177 456.811V454.811ZM189 452.811C189 453.916 188.105 454.811 187 454.811V456.811C189.209 456.811 191 455.02 191 452.811H189ZM187 442.811C188.105 442.811 189 443.706 189 444.811H191C191 442.602 189.209 440.811 187 440.811V442.811ZM177 440.811C174.791 440.811 173 442.602 173 444.811H175C175 443.706 175.895 442.811 177 442.811V440.811Z" fill="white"/>
<circle cx="22.5" cy="472.811" r="1.5" fill="#E1E1E1" fill-opacity="0.5"/>
<path d="M36.7227 472.718C36.7227 473.561 36.6133 474.302 36.3945 474.94C36.1758 475.573 35.859 476.104 35.4443 476.533C35.0296 476.957 34.5192 477.276 33.9131 477.49C33.3115 477.704 32.6279 477.811 31.8623 477.811H29.3604V467.817H32.1426C32.8398 467.817 33.471 467.922 34.0361 468.131C34.6012 468.341 35.082 468.653 35.4785 469.068C35.875 469.478 36.1803 469.988 36.3945 470.599C36.6133 471.21 36.7227 471.916 36.7227 472.718ZM35.376 472.759C35.376 472.094 35.3008 471.52 35.1504 471.037C35 470.549 34.7812 470.148 34.4941 469.833C34.207 469.519 33.8538 469.287 33.4346 469.136C33.0153 468.981 32.5391 468.904 32.0059 468.904H30.6318V476.717H31.7393C32.9424 476.717 33.8493 476.385 34.46 475.719C35.0706 475.054 35.376 474.067 35.376 472.759ZM42.0205 470.168C42.1527 470.168 42.3008 470.175 42.4648 470.189C42.6289 470.198 42.7702 470.214 42.8887 470.237L42.7246 471.385C42.597 471.362 42.4648 471.344 42.3281 471.331C42.196 471.312 42.0706 471.303 41.9521 471.303C41.665 471.303 41.403 471.362 41.166 471.481C40.929 471.595 40.724 471.761 40.5508 471.98C40.3822 472.194 40.25 472.454 40.1543 472.759C40.0632 473.06 40.0176 473.395 40.0176 473.764V477.811H38.7734V470.305H39.7852L39.9355 471.679H39.9902C40.1042 471.483 40.2249 471.294 40.3525 471.112C40.4847 470.93 40.6305 470.77 40.79 470.633C40.9541 470.492 41.1364 470.38 41.3369 470.298C41.5374 470.212 41.7653 470.168 42.0205 470.168ZM48.46 477.811L48.207 476.772H48.1523C48.002 476.977 47.8516 477.155 47.7012 477.305C47.5508 477.451 47.3867 477.572 47.209 477.667C47.0312 477.763 46.833 477.834 46.6143 477.879C46.3955 477.925 46.1426 477.948 45.8555 477.948C45.541 477.948 45.2516 477.902 44.9873 477.811C44.723 477.724 44.4928 477.59 44.2969 477.408C44.1055 477.221 43.9551 476.988 43.8457 476.71C43.7363 476.428 43.6816 476.095 43.6816 475.712C43.6816 474.965 43.9437 474.391 44.4678 473.99C44.9964 473.589 45.7985 473.37 46.874 473.333L48.1318 473.286V472.814C48.1318 472.509 48.0977 472.253 48.0293 472.048C47.9655 471.843 47.8698 471.679 47.7422 471.556C47.6191 471.429 47.4642 471.337 47.2773 471.283C47.0951 471.228 46.8854 471.201 46.6484 471.201C46.2702 471.201 45.917 471.255 45.5889 471.365C45.2653 471.474 44.9531 471.606 44.6523 471.761L44.2148 470.825C44.5521 470.642 44.9281 470.487 45.3428 470.36C45.7575 470.232 46.1927 470.168 46.6484 470.168C47.1133 470.168 47.5143 470.216 47.8516 470.312C48.1934 470.403 48.4736 470.551 48.6924 470.756C48.9157 470.957 49.082 471.214 49.1914 471.529C49.3008 471.843 49.3555 472.224 49.3555 472.67V477.811H48.46ZM46.1768 476.943C46.4548 476.943 46.7122 476.9 46.9492 476.813C47.1862 476.726 47.3913 476.597 47.5645 476.423C47.7376 476.246 47.8721 476.025 47.9678 475.76C48.068 475.491 48.1182 475.177 48.1182 474.817V474.14L47.1406 474.188C46.7305 474.206 46.3864 474.252 46.1084 474.325C45.8304 474.398 45.6071 474.5 45.4385 474.632C45.2744 474.76 45.1559 474.917 45.083 475.104C45.0101 475.286 44.9736 475.494 44.9736 475.726C44.9736 476.145 45.083 476.453 45.3018 476.649C45.5251 476.845 45.8167 476.943 46.1768 476.943ZM60.6553 477.811V472.978C60.6553 472.386 60.5413 471.941 60.3135 471.645C60.0856 471.349 59.7324 471.201 59.2539 471.201C58.9212 471.201 58.6387 471.255 58.4062 471.365C58.1738 471.47 57.9824 471.627 57.832 471.836C57.6862 472.042 57.5791 472.299 57.5107 472.609C57.4424 472.914 57.4082 473.267 57.4082 473.668V477.811H56.1572V472.978C56.1572 472.386 56.0433 471.941 55.8154 471.645C55.5921 471.349 55.2412 471.201 54.7627 471.201C54.4118 471.201 54.1178 471.26 53.8809 471.378C53.6439 471.497 53.4525 471.672 53.3066 471.905C53.1654 472.137 53.0628 472.422 52.999 472.759C52.9398 473.097 52.9102 473.484 52.9102 473.921V477.811H51.666V470.305H52.6777L52.8555 471.317H52.9238C53.0332 471.121 53.1631 470.952 53.3135 470.811C53.4639 470.665 53.6279 470.544 53.8057 470.449C53.988 470.353 54.1794 470.282 54.3799 470.237C54.585 470.191 54.7923 470.168 55.002 470.168C55.5488 470.168 56.0023 470.269 56.3623 470.469C56.7269 470.67 56.9958 470.984 57.1689 471.413H57.2236C57.3421 471.198 57.4834 471.014 57.6475 470.859C57.8161 470.704 57.9984 470.576 58.1943 470.476C58.3949 470.371 58.6045 470.294 58.8232 470.244C59.042 470.194 59.2653 470.168 59.4932 470.168C60.2907 470.168 60.89 470.387 61.291 470.825C61.6966 471.258 61.8994 471.953 61.8994 472.91V477.811H60.6553ZM68.4482 477.811L68.1953 476.772H68.1406C67.9902 476.977 67.8398 477.155 67.6895 477.305C67.5391 477.451 67.375 477.572 67.1973 477.667C67.0195 477.763 66.8213 477.834 66.6025 477.879C66.3838 477.925 66.1309 477.948 65.8438 477.948C65.5293 477.948 65.2399 477.902 64.9756 477.811C64.7113 477.724 64.4811 477.59 64.2852 477.408C64.0938 477.221 63.9434 476.988 63.834 476.71C63.7246 476.428 63.6699 476.095 63.6699 475.712C63.6699 474.965 63.932 474.391 64.4561 473.99C64.9847 473.589 65.7868 473.37 66.8623 473.333L68.1201 473.286V472.814C68.1201 472.509 68.0859 472.253 68.0176 472.048C67.9538 471.843 67.8581 471.679 67.7305 471.556C67.6074 471.429 67.4525 471.337 67.2656 471.283C67.0833 471.228 66.8737 471.201 66.6367 471.201C66.2585 471.201 65.9053 471.255 65.5771 471.365C65.2536 471.474 64.9414 471.606 64.6406 471.761L64.2031 470.825C64.5404 470.642 64.9163 470.487 65.3311 470.36C65.7458 470.232 66.181 470.168 66.6367 470.168C67.1016 470.168 67.5026 470.216 67.8398 470.312C68.1816 470.403 68.4619 470.551 68.6807 470.756C68.904 470.957 69.0703 471.214 69.1797 471.529C69.2891 471.843 69.3438 472.224 69.3438 472.67V477.811H68.4482ZM66.165 476.943C66.443 476.943 66.7005 476.9 66.9375 476.813C67.1745 476.726 67.3796 476.597 67.5527 476.423C67.7259 476.246 67.8604 476.025 67.9561 475.76C68.0563 475.491 68.1064 475.177 68.1064 474.817V474.14L67.1289 474.188C66.7188 474.206 66.3747 474.252 66.0967 474.325C65.8187 474.398 65.5954 474.5 65.4268 474.632C65.2627 474.76 65.1442 474.917 65.0713 475.104C64.9984 475.286 64.9619 475.494 64.9619 475.726C64.9619 476.145 65.0713 476.453 65.29 476.649C65.5133 476.845 65.805 476.943 66.165 476.943Z" fill="white"/>
<circle cx="82.5" cy="472.811" r="1.5" fill="#E1E1E1" fill-opacity="0.5"/>
<path d="M95.3486 470.743C95.3486 471.157 95.2848 471.556 95.1572 471.939C95.0342 472.322 94.8291 472.661 94.542 472.958C94.2549 473.249 93.8743 473.484 93.4004 473.662C92.931 473.835 92.3499 473.921 91.6572 473.921H90.6318V477.811H89.3604V467.817H91.835C92.4456 467.817 92.972 467.883 93.4141 468.015C93.8561 468.143 94.2207 468.332 94.5078 468.583C94.7949 468.829 95.0068 469.134 95.1436 469.499C95.2803 469.863 95.3486 470.278 95.3486 470.743ZM90.6318 472.841H91.5137C91.9375 472.841 92.3066 472.805 92.6211 472.732C92.9401 472.659 93.2021 472.543 93.4072 472.383C93.6169 472.219 93.7741 472.01 93.8789 471.754C93.9837 471.495 94.0361 471.18 94.0361 470.811C94.0361 470.164 93.8493 469.685 93.4756 469.375C93.1019 469.061 92.5186 468.904 91.7256 468.904H90.6318V472.841ZM103.374 474.044C103.374 474.669 103.297 475.225 103.142 475.712C102.991 476.195 102.772 476.603 102.485 476.936C102.203 477.264 101.859 477.515 101.453 477.688C101.048 477.861 100.592 477.948 100.086 477.948C99.6165 477.948 99.1836 477.861 98.7871 477.688C98.3906 477.515 98.0465 477.264 97.7549 476.936C97.4678 476.603 97.2422 476.195 97.0781 475.712C96.9186 475.225 96.8389 474.669 96.8389 474.044C96.8389 473.425 96.9141 472.875 97.0645 472.397C97.2194 471.914 97.4382 471.508 97.7207 471.18C98.0033 470.847 98.3473 470.597 98.7529 470.428C99.1631 470.255 99.6211 470.168 100.127 470.168C100.596 470.168 101.029 470.255 101.426 470.428C101.822 470.597 102.164 470.847 102.451 471.18C102.743 471.508 102.968 471.914 103.128 472.397C103.292 472.875 103.374 473.425 103.374 474.044ZM98.124 474.044C98.124 474.997 98.279 475.715 98.5889 476.198C98.9033 476.676 99.4115 476.916 100.113 476.916C100.815 476.916 101.319 476.676 101.624 476.198C101.934 475.715 102.089 474.997 102.089 474.044C102.089 473.092 101.932 472.381 101.617 471.912C101.307 471.438 100.801 471.201 100.1 471.201C99.3978 471.201 98.8919 471.438 98.582 471.912C98.2767 472.381 98.124 473.092 98.124 474.044ZM106.58 477.811H105.336V467.174H106.58V477.811ZM110.203 477.811H108.959V470.305H110.203V477.811ZM108.863 468.275C108.863 468.001 108.932 467.803 109.068 467.68C109.21 467.557 109.383 467.496 109.588 467.496C109.688 467.496 109.782 467.512 109.868 467.543C109.959 467.571 110.037 467.616 110.101 467.68C110.169 467.744 110.221 467.826 110.258 467.926C110.299 468.022 110.319 468.138 110.319 468.275C110.319 468.539 110.246 468.737 110.101 468.87C109.959 468.997 109.788 469.061 109.588 469.061C109.383 469.061 109.21 468.997 109.068 468.87C108.932 468.742 108.863 468.544 108.863 468.275ZM114.852 476.929C114.934 476.929 115.025 476.925 115.125 476.916C115.23 476.906 115.33 476.895 115.426 476.881C115.521 476.868 115.608 476.852 115.686 476.833C115.768 476.815 115.829 476.799 115.87 476.786V477.729C115.811 477.756 115.736 477.784 115.645 477.811C115.553 477.838 115.453 477.861 115.344 477.879C115.234 477.902 115.12 477.918 115.002 477.927C114.883 477.941 114.767 477.948 114.653 477.948C114.371 477.948 114.109 477.911 113.867 477.838C113.626 477.765 113.416 477.64 113.238 477.462C113.065 477.285 112.928 477.045 112.828 476.745C112.728 476.439 112.678 476.056 112.678 475.596V471.242H111.618V470.688L112.678 470.155L113.211 468.583H113.929V470.305H115.815V471.242H113.929V475.596C113.929 476.038 113.999 476.371 114.141 476.594C114.286 476.818 114.523 476.929 114.852 476.929ZM118.57 477.811H117.326V470.305H118.57V477.811ZM117.23 468.275C117.23 468.001 117.299 467.803 117.436 467.68C117.577 467.557 117.75 467.496 117.955 467.496C118.055 467.496 118.149 467.512 118.235 467.543C118.326 467.571 118.404 467.616 118.468 467.68C118.536 467.744 118.589 467.826 118.625 467.926C118.666 468.022 118.687 468.138 118.687 468.275C118.687 468.539 118.614 468.737 118.468 468.87C118.326 468.997 118.156 469.061 117.955 469.061C117.75 469.061 117.577 468.997 117.436 468.87C117.299 468.742 117.23 468.544 117.23 468.275ZM123.82 477.948C123.36 477.948 122.929 477.877 122.528 477.736C122.127 477.59 121.779 477.362 121.482 477.052C121.186 476.738 120.954 476.339 120.785 475.856C120.617 475.368 120.532 474.783 120.532 474.099C120.532 473.384 120.619 472.778 120.792 472.281C120.965 471.779 121.202 471.374 121.503 471.064C121.808 470.75 122.164 470.522 122.569 470.38C122.975 470.239 123.41 470.168 123.875 470.168C124.23 470.168 124.577 470.207 124.914 470.285C125.256 470.362 125.541 470.458 125.769 470.572L125.399 471.625C125.295 471.579 125.178 471.536 125.051 471.495C124.923 471.449 124.791 471.41 124.654 471.378C124.518 471.342 124.383 471.315 124.251 471.296C124.119 471.274 123.993 471.262 123.875 471.262C123.16 471.262 122.638 471.492 122.31 471.953C121.981 472.408 121.817 473.119 121.817 474.085C121.817 475.047 121.981 475.751 122.31 476.198C122.642 476.64 123.146 476.861 123.82 476.861C124.189 476.861 124.522 476.82 124.818 476.738C125.119 476.651 125.393 476.551 125.639 476.437V477.544C125.393 477.677 125.128 477.777 124.846 477.845C124.568 477.914 124.226 477.948 123.82 477.948ZM131.661 477.811L131.408 476.772H131.354C131.203 476.977 131.053 477.155 130.902 477.305C130.752 477.451 130.588 477.572 130.41 477.667C130.232 477.763 130.034 477.834 129.815 477.879C129.597 477.925 129.344 477.948 129.057 477.948C128.742 477.948 128.453 477.902 128.188 477.811C127.924 477.724 127.694 477.59 127.498 477.408C127.307 477.221 127.156 476.988 127.047 476.71C126.938 476.428 126.883 476.095 126.883 475.712C126.883 474.965 127.145 474.391 127.669 473.99C128.198 473.589 129 473.37 130.075 473.333L131.333 473.286V472.814C131.333 472.509 131.299 472.253 131.23 472.048C131.167 471.843 131.071 471.679 130.943 471.556C130.82 471.429 130.665 471.337 130.479 471.283C130.296 471.228 130.087 471.201 129.85 471.201C129.471 471.201 129.118 471.255 128.79 471.365C128.466 471.474 128.154 471.606 127.854 471.761L127.416 470.825C127.753 470.642 128.129 470.487 128.544 470.36C128.959 470.232 129.394 470.168 129.85 470.168C130.314 470.168 130.715 470.216 131.053 470.312C131.395 470.403 131.675 470.551 131.894 470.756C132.117 470.957 132.283 471.214 132.393 471.529C132.502 471.843 132.557 472.224 132.557 472.67V477.811H131.661ZM129.378 476.943C129.656 476.943 129.913 476.9 130.15 476.813C130.387 476.726 130.592 476.597 130.766 476.423C130.939 476.246 131.073 476.025 131.169 475.76C131.269 475.491 131.319 475.177 131.319 474.817V474.14L130.342 474.188C129.932 474.206 129.588 474.252 129.31 474.325C129.032 474.398 128.808 474.5 128.64 474.632C128.476 474.76 128.357 474.917 128.284 475.104C128.211 475.286 128.175 475.494 128.175 475.726C128.175 476.145 128.284 476.453 128.503 476.649C128.726 476.845 129.018 476.943 129.378 476.943ZM136.111 477.811H134.867V467.174H136.111V477.811ZM145.21 477.811H143.932V468.938H141.074V467.817H148.061V468.938H145.21V477.811ZM154.09 477.811V472.978C154.09 472.386 153.969 471.941 153.728 471.645C153.491 471.349 153.117 471.201 152.606 471.201C152.237 471.201 151.927 471.26 151.677 471.378C151.426 471.497 151.223 471.672 151.068 471.905C150.918 472.137 150.809 472.422 150.74 472.759C150.676 473.097 150.645 473.484 150.645 473.921V477.811H149.4V467.174H150.645V470.333L150.59 471.317H150.658C150.772 471.121 150.907 470.952 151.062 470.811C151.221 470.665 151.394 470.544 151.581 470.449C151.768 470.353 151.966 470.282 152.176 470.237C152.385 470.191 152.6 470.168 152.818 470.168C153.652 470.168 154.279 470.387 154.698 470.825C155.122 471.258 155.334 471.953 155.334 472.91V477.811H154.09ZM160.892 470.168C161.024 470.168 161.172 470.175 161.336 470.189C161.5 470.198 161.641 470.214 161.76 470.237L161.596 471.385C161.468 471.362 161.336 471.344 161.199 471.331C161.067 471.312 160.942 471.303 160.823 471.303C160.536 471.303 160.274 471.362 160.037 471.481C159.8 471.595 159.595 471.761 159.422 471.98C159.253 472.194 159.121 472.454 159.025 472.759C158.934 473.06 158.889 473.395 158.889 473.764V477.811H157.645V470.305H158.656L158.807 471.679H158.861C158.975 471.483 159.096 471.294 159.224 471.112C159.356 470.93 159.502 470.77 159.661 470.633C159.825 470.492 160.007 470.38 160.208 470.298C160.409 470.212 160.636 470.168 160.892 470.168ZM164.48 477.811H163.236V470.305H164.48V477.811ZM163.141 468.275C163.141 468.001 163.209 467.803 163.346 467.68C163.487 467.557 163.66 467.496 163.865 467.496C163.965 467.496 164.059 467.512 164.146 467.543C164.237 467.571 164.314 467.616 164.378 467.68C164.446 467.744 164.499 467.826 164.535 467.926C164.576 468.022 164.597 468.138 164.597 468.275C164.597 468.539 164.524 468.737 164.378 468.87C164.237 468.997 164.066 469.061 163.865 469.061C163.66 469.061 163.487 468.997 163.346 468.87C163.209 468.742 163.141 468.544 163.141 468.275ZM168.104 477.811H166.859V467.174H168.104V477.811ZM171.727 477.811H170.482V467.174H171.727V477.811ZM177.072 477.948C176.571 477.948 176.113 477.863 175.698 477.695C175.284 477.526 174.926 477.28 174.625 476.957C174.329 476.633 174.099 476.232 173.935 475.753C173.771 475.275 173.688 474.728 173.688 474.113C173.688 473.493 173.764 472.939 173.914 472.452C174.064 471.964 174.276 471.552 174.55 471.214C174.823 470.873 175.149 470.613 175.527 470.435C175.91 470.257 176.332 470.168 176.792 470.168C177.243 470.168 177.649 470.25 178.009 470.415C178.369 470.574 178.674 470.802 178.925 471.098C179.175 471.39 179.367 471.743 179.499 472.158C179.636 472.568 179.704 473.024 179.704 473.525V474.297H174.974C174.996 475.177 175.181 475.824 175.527 476.239C175.878 476.653 176.398 476.861 177.086 476.861C177.318 476.861 177.533 476.849 177.729 476.827C177.929 476.804 178.12 476.772 178.303 476.731C178.49 476.685 178.67 476.631 178.843 476.567C179.016 476.499 179.191 476.423 179.369 476.341V477.449C179.187 477.535 179.007 477.611 178.829 477.674C178.656 477.738 178.476 477.791 178.289 477.832C178.107 477.873 177.915 477.902 177.715 477.92C177.519 477.939 177.305 477.948 177.072 477.948ZM176.765 471.201C176.245 471.201 175.833 471.378 175.527 471.734C175.227 472.089 175.051 472.607 175.001 473.286H178.364C178.364 472.976 178.332 472.693 178.269 472.438C178.209 472.178 178.114 471.957 177.981 471.775C177.854 471.593 177.69 471.451 177.489 471.351C177.289 471.251 177.047 471.201 176.765 471.201ZM184.845 470.168C184.977 470.168 185.125 470.175 185.289 470.189C185.453 470.198 185.594 470.214 185.713 470.237L185.549 471.385C185.421 471.362 185.289 471.344 185.152 471.331C185.02 471.312 184.895 471.303 184.776 471.303C184.489 471.303 184.227 471.362 183.99 471.481C183.753 471.595 183.548 471.761 183.375 471.98C183.206 472.194 183.074 472.454 182.979 472.759C182.887 473.06 182.842 473.395 182.842 473.764V477.811H181.598V470.305H182.609L182.76 471.679H182.814C182.928 471.483 183.049 471.294 183.177 471.112C183.309 470.93 183.455 470.77 183.614 470.633C183.778 470.492 183.961 470.38 184.161 470.298C184.362 470.212 184.59 470.168 184.845 470.168Z" fill="white"/>
<path d="M297 341.75C301.537 341.75 305.25 345.463 305.25 350C305.25 354.537 301.537 358.25 297 358.25C292.463 358.25 288.75 354.537 288.75 350C288.75 345.463 292.463 341.75 297 341.75ZM297 340.375C291.706 340.375 287.375 344.706 287.375 350C287.375 355.294 291.706 359.625 297 359.625C302.294 359.625 306.625 355.294 306.625 350C306.625 344.706 302.294 340.375 297 340.375Z" fill="white"/>
<path d="M302.5 349.312H297.688V344.5H296.312V349.312H291.5V350.688H296.312V355.5H297.688V350.688H302.5V349.312Z" fill="white"/>
<path d="M299.267 376.276C298.605 375.608 297.916 375.026 297.198 374.532C296.481 374.037 295.809 373.666 295.182 373.419C294.556 373.172 293.981 373.053 293.459 373.063C292.936 373.073 292.529 373.228 292.236 373.529C292.167 373.596 292.108 373.671 292.059 373.755C292.01 373.838 291.975 373.903 291.954 373.95C291.934 373.997 291.906 374.081 291.871 374.201C291.836 374.321 291.812 374.398 291.798 374.432L287.912 386.703L288.152 386.944C287.88 387.124 287.638 387.335 287.426 387.576C287.214 387.816 287.027 388.013 286.867 388.167C286.707 388.321 286.515 388.428 286.292 388.488C286.244 388.501 286.183 388.547 286.11 388.623C286.037 388.7 286 388.769 286 388.829C286 388.949 286.063 389.049 286.188 389.13C286.313 389.21 286.453 389.25 286.606 389.25C286.801 389.25 286.989 389.175 287.17 389.024C287.351 388.874 287.534 388.682 287.718 388.448C287.903 388.214 288.037 388.06 288.121 387.987C288.302 387.833 288.504 387.686 288.726 387.546L288.998 387.796L301.346 383.776C301.617 383.696 301.826 383.575 301.972 383.415C302.265 383.114 302.416 382.698 302.427 382.167C302.437 381.635 302.321 381.05 302.077 380.412C301.833 379.774 301.469 379.092 300.985 378.367C300.501 377.642 299.928 376.945 299.267 376.276ZM298.139 377.369C299.204 378.412 300.014 379.409 300.567 380.362C301.121 381.314 301.255 381.941 300.97 382.242C300.684 382.543 300.061 382.432 299.1 381.911C298.139 381.39 297.129 380.611 296.07 379.575C294.998 378.532 294.185 377.536 293.631 376.587C293.077 375.638 292.943 375.01 293.229 374.702C293.514 374.401 294.139 374.512 295.104 375.033C296.069 375.554 297.08 376.333 298.139 377.369ZM295.851 381.52C296.359 381.954 296.864 382.335 297.366 382.663C297.373 382.676 297.547 382.99 297.888 383.605L297.01 383.896C296.593 383.141 296.206 382.349 295.851 381.52ZM292.289 376.928C292.442 377.256 292.654 377.653 292.926 378.121C293.149 379.084 293.499 380.126 293.976 381.249C294.453 382.372 294.973 383.425 295.538 384.407L294.67 384.688C294.016 383.525 293.445 382.307 292.957 381.034C292.47 379.76 292.17 378.636 292.059 377.66L292.289 376.928ZM291.077 380.598C291.564 382.095 292.25 383.632 293.135 385.21L292.278 385.5C291.589 384.23 291.046 383.037 290.649 381.921L291.077 380.598ZM289.876 384.257C290.147 384.872 290.436 385.457 290.743 386.012L289.886 386.302C289.789 386.122 289.649 385.844 289.468 385.47L289.876 384.257ZM297.554 370L298.076 371.514L296.728 372.456H298.389L298.901 373.97L299.413 372.456H301.064L299.726 371.514L300.249 370.01L298.901 370.942L297.554 370ZM294.629 370L294.347 371.374L295.778 371.644L296.06 370.271L294.629 370ZM304.041 374.131L305.19 372.978L306.684 373.68L305.911 372.276L307.07 371.143L305.43 371.414L304.657 370L304.427 371.584L302.787 371.855L304.281 372.547L304.041 374.131ZM303.654 376.597L305.044 377.479L304.605 379.023L305.9 378.021L307.279 378.903L306.705 377.399L308 376.417L306.339 376.487L305.754 374.993L305.326 376.527L303.654 376.597ZM303.059 372.877L299.946 375.324L300.332 375.775L303.445 373.329L303.059 372.877ZM304.145 377.61L301.711 377.399L301.649 377.981L304.093 378.191L304.145 377.61ZM304.386 380.417L303.936 381.761L305.326 382.192L305.785 380.858L304.386 380.417Z" fill="white"/>
<path d="M296.75 405.833C297.256 405.833 297.667 405.423 297.667 404.917C297.667 404.41 297.256 404 296.75 404C296.244 404 295.833 404.41 295.833 404.917C295.833 405.423 296.244 405.833 296.75 405.833Z" fill="white"/>
<path d="M299.347 413.411H297.819V407.056H295.528C295.325 407.056 295.131 407.139 294.988 407.288C294.844 407.437 294.764 407.639 294.764 407.85C294.764 408.061 294.844 408.263 294.988 408.412C295.131 408.561 295.325 408.644 295.528 408.644H296.292V413.411H294.764C294.561 413.411 294.367 413.495 294.224 413.644C294.08 413.793 294 413.995 294 414.206C294 414.416 294.08 414.618 294.224 414.767C294.367 414.916 294.561 415 294.764 415H299.347C299.55 415 299.744 414.916 299.887 414.767C300.031 414.618 300.111 414.416 300.111 414.206C300.111 413.995 300.031 413.793 299.887 413.644C299.744 413.495 299.55 413.411 299.347 413.411Z" fill="white"/>
<path d="M296.625 400C294.721 400 292.86 400.564 291.278 401.622C289.695 402.68 288.461 404.183 287.733 405.942C287.004 407.7 286.814 409.636 287.185 411.503C287.556 413.37 288.473 415.085 289.819 416.431C291.165 417.777 292.88 418.694 294.747 419.065C296.614 419.436 298.55 419.246 300.308 418.517C302.067 417.789 303.57 416.555 304.628 414.972C305.686 413.39 306.25 411.529 306.25 409.625C306.25 407.072 305.236 404.624 303.431 402.819C301.626 401.014 299.178 400 296.625 400V400ZM296.625 417.646C295.039 417.646 293.488 417.175 292.169 416.294C290.85 415.413 289.822 414.16 289.215 412.694C288.608 411.229 288.449 409.616 288.758 408.06C289.068 406.504 289.832 405.075 290.953 403.953C292.075 402.832 293.504 402.068 295.06 401.758C296.616 401.449 298.229 401.608 299.694 402.215C301.16 402.822 302.413 403.85 303.294 405.169C304.175 406.488 304.646 408.039 304.646 409.625C304.646 410.678 304.438 411.721 304.035 412.694C303.632 413.668 303.041 414.552 302.297 415.297C301.552 416.041 300.668 416.632 299.694 417.035C298.721 417.438 297.678 417.646 296.625 417.646V417.646Z" fill="white"/>
<path d="M301.813 442.75C301.298 442.752 300.791 442.87 300.328 443.095C299.865 443.32 299.458 443.646 299.138 444.049L294.113 440.907C294.296 440.316 294.296 439.683 294.113 439.092L299.138 435.95C299.648 436.582 300.366 437.013 301.163 437.166C301.96 437.32 302.786 437.186 303.494 436.789C304.202 436.392 304.747 435.757 305.032 434.997C305.317 434.236 305.323 433.4 305.05 432.635C304.777 431.871 304.243 431.227 303.541 430.819C302.839 430.411 302.015 430.264 301.216 430.405C300.416 430.546 299.692 430.966 299.172 431.589C298.653 432.213 298.37 433 298.375 433.812C298.379 434.12 298.425 434.425 298.513 434.72L293.487 437.862C293.043 437.303 292.437 436.896 291.752 436.698C291.067 436.5 290.337 436.519 289.663 436.754C288.99 436.989 288.406 437.428 287.993 438.009C287.58 438.591 287.358 439.286 287.358 440C287.358 440.713 287.58 441.409 287.993 441.99C288.406 442.572 288.99 443.011 289.663 443.245C290.337 443.48 291.067 443.5 291.752 443.302C292.437 443.103 293.043 442.696 293.487 442.138L298.513 445.28C298.425 445.574 298.379 445.88 298.375 446.187C298.375 446.867 298.577 447.532 298.955 448.097C299.332 448.662 299.869 449.103 300.497 449.363C301.125 449.623 301.817 449.691 302.483 449.559C303.15 449.426 303.763 449.099 304.243 448.618C304.724 448.137 305.052 447.525 305.184 446.858C305.317 446.191 305.249 445.5 304.989 444.872C304.728 444.244 304.288 443.707 303.723 443.329C303.157 442.951 302.493 442.75 301.813 442.75V442.75ZM301.813 431.75C302.221 431.75 302.619 431.871 302.959 432.097C303.298 432.324 303.562 432.646 303.718 433.023C303.874 433.4 303.915 433.815 303.836 434.215C303.756 434.615 303.56 434.982 303.271 435.271C302.983 435.559 302.615 435.756 302.215 435.835C301.815 435.915 301.4 435.874 301.023 435.718C300.647 435.562 300.325 435.297 300.098 434.958C299.871 434.619 299.75 434.22 299.75 433.812C299.75 433.265 299.968 432.741 300.354 432.354C300.741 431.967 301.266 431.75 301.813 431.75V431.75ZM290.813 442.062C290.405 442.062 290.006 441.941 289.667 441.715C289.328 441.488 289.063 441.166 288.907 440.789C288.751 440.412 288.71 439.997 288.79 439.597C288.869 439.197 289.066 438.83 289.354 438.541C289.643 438.253 290.01 438.056 290.41 437.977C290.81 437.897 291.225 437.938 291.602 438.094C291.979 438.25 292.301 438.515 292.528 438.854C292.754 439.193 292.875 439.592 292.875 440C292.875 440.547 292.658 441.071 292.271 441.458C291.884 441.845 291.36 442.062 290.813 442.062ZM301.813 448.25C301.405 448.25 301.006 448.129 300.667 447.902C300.328 447.676 300.063 447.353 299.907 446.977C299.751 446.6 299.71 446.185 299.79 445.785C299.869 445.385 300.066 445.017 300.354 444.729C300.643 444.44 301.01 444.244 301.41 444.164C301.81 444.085 302.225 444.126 302.602 444.282C302.979 444.438 303.301 444.702 303.528 445.041C303.754 445.381 303.875 445.779 303.875 446.187C303.875 446.734 303.658 447.259 303.271 447.646C302.884 448.032 302.36 448.25 301.813 448.25V448.25Z" fill="white"/>
<path d="M303.416 460.833H291.747C291.103 460.834 290.48 461.059 289.986 461.471C289.492 461.883 289.158 462.456 289.042 463.088L287.878 469.505C287.806 469.901 287.821 470.309 287.924 470.699C288.026 471.088 288.213 471.451 288.471 471.761C288.729 472.07 289.052 472.319 289.417 472.49C289.781 472.661 290.179 472.75 290.582 472.75H294.762L294.249 474.061C294.036 474.635 293.964 475.252 294.042 475.859C294.119 476.467 294.343 477.047 294.694 477.549C295.044 478.051 295.511 478.46 296.055 478.742C296.599 479.024 297.203 479.17 297.815 479.167C297.991 479.166 298.164 479.115 298.312 479.019C298.46 478.923 298.577 478.787 298.649 478.626L301.262 472.75H303.416C304.145 472.75 304.845 472.46 305.36 471.945C305.876 471.429 306.166 470.729 306.166 470V463.583C306.166 462.854 305.876 462.155 305.36 461.639C304.845 461.123 304.145 460.833 303.416 460.833ZM299.749 471.641L297.256 477.251C297.001 477.174 296.764 477.045 296.561 476.873C296.357 476.701 296.191 476.489 296.072 476.25C295.954 476.011 295.885 475.751 295.871 475.485C295.857 475.219 295.898 474.952 295.991 474.703L296.477 473.392C296.58 473.115 296.615 472.817 296.578 472.523C296.542 472.23 296.435 471.949 296.266 471.706C296.098 471.463 295.873 471.264 295.611 471.127C295.349 470.989 295.058 470.917 294.762 470.917H290.582C290.448 470.917 290.315 470.887 290.193 470.83C290.071 470.773 289.963 470.69 289.877 470.587C289.788 470.485 289.724 470.364 289.687 470.234C289.651 470.105 289.643 469.968 289.666 469.835L290.83 463.418C290.869 463.205 290.983 463.012 291.15 462.874C291.318 462.737 291.53 462.663 291.747 462.667H299.749V471.641ZM304.332 470C304.332 470.243 304.236 470.476 304.064 470.648C303.892 470.82 303.659 470.917 303.416 470.917H301.582V462.667H303.416C303.659 462.667 303.892 462.763 304.064 462.935C304.236 463.107 304.332 463.34 304.332 463.583V470Z" fill="white"/>
<path d="M163 226C167.747 226 172.387 227.408 176.334 230.045C180.28 232.682 183.357 236.43 185.173 240.816C186.99 245.201 187.465 250.027 186.539 254.682C185.613 259.338 183.327 263.614 179.971 266.971C176.614 270.327 172.338 272.613 167.682 273.539C163.027 274.465 158.201 273.99 153.816 272.173C149.43 270.357 145.682 267.28 143.045 263.334C140.408 259.387 139 254.747 139 250C139 243.635 141.529 237.53 146.029 233.029C150.53 228.529 156.635 226 163 226V226ZM163 222C157.462 222 152.049 223.642 147.444 226.719C142.839 229.796 139.251 234.169 137.131 239.285C135.012 244.401 134.458 250.031 135.538 255.463C136.618 260.894 139.285 265.883 143.201 269.799C147.117 273.715 152.106 276.382 157.537 277.462C162.969 278.542 168.599 277.988 173.715 275.869C178.831 273.749 183.204 270.161 186.281 265.556C189.358 260.951 191 255.538 191 250C191 242.574 188.05 235.452 182.799 230.201C177.548 224.95 170.426 222 163 222V222Z" fill="white" fill-opacity="0.6"/>
<path d="M155 264C154.641 264 154.289 263.903 153.98 263.72C153.681 263.543 153.434 263.291 153.262 262.99C153.09 262.688 153 262.347 153 262V238C153 237.653 153.09 237.312 153.262 237.01C153.434 236.709 153.681 236.457 153.98 236.28C154.284 236.104 154.629 236.012 154.98 236.012C155.331 236.012 155.676 236.104 155.98 236.28L177.98 248.28C178.298 248.451 178.563 248.705 178.748 249.015C178.932 249.325 179.03 249.679 179.03 250.04C179.03 250.401 178.932 250.755 178.748 251.065C178.563 251.375 178.298 251.629 177.98 251.8L155.98 263.8C155.676 263.949 155.338 264.017 155 264V264ZM157 241.36V258.64L172.82 250L157 241.36Z" fill="white" fill-opacity="0.6"/>
<defs>
<linearGradient id="paint0_linear" x1="24.3621" y1="148" x2="263.98" y2="150.08" gradientUnits="userSpaceOnUse">
<stop stop-opacity="0"/>
<stop stop-opacity="0"/>
<stop offset="1"/>
</linearGradient>
<clipPath id="clip0">
<rect width="60.0157" height="15.1496" fill="white" transform="translate(27.9922 361.331)"/>
</clipPath>
</defs>
</svg>
