<svg width="494" height="283" viewBox="0 0 494 283" fill="none" xmlns="http://www.w3.org/2000/svg">
<rect width="106" height="90" transform="translate(404 106) rotate(-90)" fill="url(#paint0_linear)"/>
<path d="M454.822 21.6639C455.814 21.4569 458.507 21.1317 459.262 21.7526C459.706 22.1178 459.262 24.0585 458.285 26.4088C458.241 26.5861 458.25 26.8966 458.641 26.7192C459.129 26.4975 461.127 23.9255 460.994 20.7326C460.905 20.3779 460.579 20.2659 460.505 20.2449C459.262 19.8901 456.732 19.7127 454.689 21.2204C454.547 21.5042 454.719 21.6343 454.822 21.6639Z" fill="white"/>
<path d="M427.03 20.8213C426.971 20.6735 426.959 20.3779 427.385 20.3779C432.624 23.5707 443.501 28.5373 457.486 22.4177C458.285 22.2404 458.378 23.0726 457.93 23.3933C446.165 31.8188 432.668 27.1183 427.03 20.8213Z" fill="white"/>
<path d="M432.019 35.3662C432.019 35.9163 431.952 36.4176 431.818 36.8701C431.688 37.3226 431.493 37.71 431.232 38.0322C430.972 38.3545 430.648 38.6035 430.261 38.7793C429.877 38.9551 429.432 39.043 428.928 39.043C428.397 39.043 427.937 38.9551 427.546 38.7793C427.159 38.6035 426.836 38.3545 426.579 38.0322C426.325 37.71 426.136 37.3226 426.013 36.8701C425.889 36.4144 425.827 35.9098 425.827 35.3564C425.827 34.8031 425.889 34.3018 426.013 33.8525C426.136 33.4001 426.327 33.0143 426.584 32.6953C426.841 32.3763 427.165 32.1305 427.556 31.958C427.946 31.7822 428.407 31.6943 428.938 31.6943C429.442 31.6943 429.885 31.7822 430.266 31.958C430.65 32.1305 430.972 32.3779 431.232 32.7002C431.493 33.0192 431.688 33.4049 431.818 33.8574C431.952 34.3066 432.019 34.8096 432.019 35.3662ZM426.789 35.3662C426.789 35.8122 426.831 36.2142 426.916 36.5723C427.001 36.9271 427.129 37.2298 427.302 37.4805C427.478 37.7279 427.699 37.9183 427.966 38.0518C428.236 38.182 428.557 38.2471 428.928 38.2471C429.299 38.2471 429.618 38.182 429.885 38.0518C430.155 37.9183 430.376 37.7279 430.549 37.4805C430.725 37.2298 430.853 36.9271 430.935 36.5723C431.016 36.2142 431.057 35.8122 431.057 35.3662C431.057 34.917 431.016 34.515 430.935 34.1602C430.853 33.8053 430.726 33.5059 430.554 33.2617C430.381 33.0143 430.161 32.8255 429.895 32.6953C429.628 32.5618 429.309 32.4951 428.938 32.4951C428.566 32.4951 428.246 32.5618 427.976 32.6953C427.705 32.8255 427.482 33.0143 427.307 33.2617C427.131 33.5059 427.001 33.8053 426.916 34.1602C426.831 34.515 426.789 34.917 426.789 35.3662ZM435.808 33.4863C435.902 33.4863 436.008 33.4912 436.125 33.501C436.242 33.5075 436.343 33.5189 436.428 33.5352L436.311 34.3555C436.219 34.3392 436.125 34.3262 436.027 34.3164C435.933 34.3034 435.843 34.2969 435.759 34.2969C435.554 34.2969 435.367 34.3392 435.197 34.4238C435.028 34.5052 434.882 34.624 434.758 34.7803C434.637 34.9333 434.543 35.1188 434.475 35.3369C434.41 35.5518 434.377 35.791 434.377 36.0547V38.9453H433.488V33.584H434.211L434.318 34.5654H434.357C434.439 34.4255 434.525 34.2904 434.616 34.1602C434.711 34.0299 434.815 33.916 434.929 33.8184C435.046 33.7174 435.176 33.6377 435.319 33.5791C435.463 33.5173 435.625 33.4863 435.808 33.4863ZM438.371 38.9453H437.482V33.584H438.371V38.9453ZM437.414 32.1338C437.414 31.9385 437.463 31.7969 437.561 31.709C437.661 31.6211 437.785 31.5771 437.932 31.5771C438.003 31.5771 438.07 31.5885 438.132 31.6113C438.197 31.6309 438.252 31.6634 438.298 31.709C438.347 31.7546 438.384 31.8132 438.41 31.8848C438.439 31.9531 438.454 32.0361 438.454 32.1338C438.454 32.3226 438.402 32.4642 438.298 32.5586C438.197 32.6497 438.075 32.6953 437.932 32.6953C437.785 32.6953 437.661 32.6497 437.561 32.5586C437.463 32.4674 437.414 32.3258 437.414 32.1338ZM444.201 33.584V34.1357L443.239 34.2676C443.33 34.3815 443.407 34.528 443.469 34.707C443.531 34.8828 443.562 35.083 443.562 35.3076C443.562 35.555 443.522 35.7845 443.444 35.9961C443.369 36.2044 443.254 36.3851 443.098 36.5381C442.945 36.6911 442.754 36.8115 442.526 36.8994C442.299 36.984 442.033 37.0264 441.73 37.0264C441.659 37.0264 441.587 37.0264 441.516 37.0264C441.444 37.0231 441.385 37.0166 441.34 37.0068C441.285 37.0394 441.229 37.0768 441.174 37.1191C441.122 37.1582 441.073 37.2038 441.027 37.2559C440.985 37.3079 440.949 37.3665 440.92 37.4316C440.894 37.4967 440.881 37.5684 440.881 37.6465C440.881 37.7344 440.9 37.806 440.939 37.8613C440.979 37.9134 441.031 37.9541 441.096 37.9834C441.164 38.0127 441.244 38.0322 441.335 38.042C441.426 38.0518 441.522 38.0566 441.623 38.0566H442.482C442.785 38.0566 443.041 38.0957 443.249 38.1738C443.457 38.2487 443.627 38.3512 443.757 38.4814C443.89 38.6117 443.986 38.7663 444.045 38.9453C444.104 39.1211 444.133 39.3083 444.133 39.5068C444.133 39.7933 444.079 40.0505 443.972 40.2783C443.868 40.5062 443.706 40.6982 443.488 40.8545C443.27 41.014 442.993 41.1361 442.658 41.2207C442.326 41.3053 441.934 41.3477 441.481 41.3477C441.133 41.3477 440.829 41.3135 440.568 41.2451C440.308 41.1768 440.091 41.0775 439.919 40.9473C439.746 40.8171 439.616 40.6592 439.528 40.4736C439.444 40.2913 439.401 40.0846 439.401 39.8535C439.401 39.6582 439.432 39.4857 439.494 39.3359C439.559 39.1895 439.646 39.0625 439.753 38.9551C439.86 38.8477 439.984 38.7598 440.124 38.6914C440.267 38.623 440.415 38.571 440.568 38.5352C440.432 38.4733 440.319 38.3757 440.231 38.2422C440.144 38.1087 440.1 37.9557 440.1 37.7832C440.1 37.5846 440.152 37.4137 440.256 37.2705C440.36 37.124 440.524 36.9824 440.749 36.8457C440.609 36.7871 440.48 36.7074 440.363 36.6064C440.249 36.5023 440.152 36.3851 440.07 36.2549C439.992 36.1214 439.93 35.9766 439.885 35.8203C439.842 35.6641 439.821 35.5029 439.821 35.3369C439.821 35.0472 439.862 34.7884 439.943 34.5605C440.025 34.3327 440.145 34.139 440.305 33.9795C440.464 33.82 440.663 33.6979 440.9 33.6133C441.138 33.5286 441.415 33.4863 441.73 33.4863C441.851 33.4863 441.975 33.4961 442.102 33.5156C442.232 33.5319 442.341 33.5547 442.429 33.584H444.201ZM440.241 39.8242C440.241 39.9447 440.262 40.057 440.305 40.1611C440.347 40.2653 440.415 40.3548 440.51 40.4297C440.607 40.5046 440.734 40.5632 440.891 40.6055C441.05 40.651 441.247 40.6738 441.481 40.6738C442.087 40.6738 442.539 40.5794 442.839 40.3906C443.142 40.2051 443.293 39.9365 443.293 39.585C443.293 39.4352 443.273 39.3132 443.234 39.2188C443.195 39.1243 443.13 39.0495 443.039 38.9941C442.951 38.9421 442.834 38.9062 442.688 38.8867C442.541 38.8672 442.362 38.8574 442.15 38.8574H441.291C441.177 38.8574 441.058 38.8704 440.935 38.8965C440.811 38.9225 440.697 38.9714 440.593 39.043C440.492 39.1146 440.407 39.2122 440.339 39.3359C440.274 39.4629 440.241 39.6257 440.241 39.8242ZM440.69 35.3076C440.69 35.682 440.778 35.9603 440.954 36.1426C441.13 36.3249 441.379 36.416 441.701 36.416C442.027 36.416 442.272 36.3265 442.438 36.1475C442.608 35.9652 442.692 35.6803 442.692 35.293C442.692 34.8926 442.606 34.598 442.434 34.4092C442.264 34.2204 442.017 34.126 441.691 34.126C441.369 34.126 441.122 34.2236 440.949 34.4189C440.777 34.6143 440.69 34.9105 440.69 35.3076ZM446.145 38.9453H445.256V33.584H446.145V38.9453ZM445.188 32.1338C445.188 31.9385 445.236 31.7969 445.334 31.709C445.435 31.6211 445.559 31.5771 445.705 31.5771C445.777 31.5771 445.843 31.5885 445.905 31.6113C445.97 31.6309 446.026 31.6634 446.071 31.709C446.12 31.7546 446.158 31.8132 446.184 31.8848C446.213 31.9531 446.228 32.0361 446.228 32.1338C446.228 32.3226 446.175 32.4642 446.071 32.5586C445.97 32.6497 445.848 32.6953 445.705 32.6953C445.559 32.6953 445.435 32.6497 445.334 32.5586C445.236 32.4674 445.188 32.3258 445.188 32.1338ZM451.193 38.9453V35.4932C451.193 35.07 451.107 34.7526 450.935 34.541C450.765 34.3294 450.498 34.2236 450.134 34.2236C449.87 34.2236 449.649 34.266 449.47 34.3506C449.291 34.4352 449.146 34.5605 449.035 34.7266C448.928 34.8926 448.85 35.096 448.801 35.3369C448.755 35.5778 448.732 35.8545 448.732 36.167V38.9453H447.844V33.584H448.566L448.693 34.3066H448.742C448.824 34.1667 448.92 34.0462 449.03 33.9453C449.144 33.8411 449.268 33.7549 449.401 33.6865C449.535 33.6182 449.676 33.5677 449.826 33.5352C449.976 33.5026 450.129 33.4863 450.285 33.4863C450.881 33.4863 451.328 33.6426 451.628 33.9551C451.931 34.2643 452.082 34.7607 452.082 35.4443V38.9453H451.193ZM456.755 38.9453L456.574 38.2031H456.535C456.428 38.3496 456.32 38.4766 456.213 38.584C456.105 38.6882 455.988 38.7744 455.861 38.8428C455.734 38.9111 455.593 38.9616 455.437 38.9941C455.28 39.0267 455.1 39.043 454.895 39.043C454.67 39.043 454.463 39.0104 454.274 38.9453C454.086 38.8835 453.921 38.7874 453.781 38.6572C453.645 38.5238 453.537 38.3577 453.459 38.1592C453.381 37.9574 453.342 37.7197 453.342 37.4463C453.342 36.9124 453.529 36.5023 453.903 36.2158C454.281 35.9294 454.854 35.7731 455.622 35.7471L456.521 35.7129V35.376C456.521 35.1579 456.496 34.9756 456.447 34.8291C456.402 34.6826 456.333 34.5654 456.242 34.4775C456.154 34.3864 456.044 34.3213 455.91 34.2822C455.78 34.2432 455.63 34.2236 455.461 34.2236C455.191 34.2236 454.938 34.2627 454.704 34.3408C454.473 34.4189 454.25 34.5133 454.035 34.624L453.723 33.9551C453.964 33.8249 454.232 33.7142 454.528 33.623C454.825 33.5319 455.135 33.4863 455.461 33.4863C455.793 33.4863 456.079 33.5205 456.32 33.5889C456.564 33.654 456.765 33.7598 456.921 33.9063C457.08 34.0495 457.199 34.2334 457.277 34.458C457.355 34.6826 457.395 34.9544 457.395 35.2734V38.9453L456.755 38.9453ZM455.124 38.3252C455.323 38.3252 455.507 38.2943 455.676 38.2324C455.845 38.1706 455.992 38.0778 456.115 37.9541C456.239 37.8271 456.335 37.6693 456.403 37.4805C456.475 37.2884 456.511 37.0638 456.511 36.8066V36.3232L455.812 36.3574C455.52 36.3704 455.274 36.403 455.075 36.4551C454.877 36.5072 454.717 36.5804 454.597 36.6748C454.479 36.766 454.395 36.8783 454.343 37.0117C454.291 37.1419 454.265 37.29 454.265 37.4561C454.265 37.7555 454.343 37.9753 454.499 38.1152C454.659 38.2552 454.867 38.3252 455.124 38.3252ZM459.934 38.9453H459.045V31.3477H459.934V38.9453Z" fill="white"/>
<g clip-path="url(#clip0)">
<rect width="219" height="494" transform="translate(494 64) rotate(90)" fill="url(#paint1_linear)"/>
<path d="M19 146.906C19 141.435 23.4349 137 28.9055 137H83.0945C88.5651 137 93 141.435 93 146.906V146.906C93 152.376 88.5651 156.811 83.0945 156.811H28.9055C23.4349 156.811 19 152.376 19 146.906V146.906Z" fill="#111111" fill-opacity="0.2"/>
<g clip-path="url(#clip1)">
<path d="M36.8511 146.044C36.8511 145.433 36.4178 144.921 35.8436 144.798C36.073 144.415 36.2138 143.973 36.2138 143.495C36.2138 142.089 35.0705 140.945 33.6646 140.945C32.6978 140.945 31.8668 141.491 31.4341 142.286C31.0013 141.491 30.1703 140.945 29.2035 140.945C27.7976 140.945 26.6543 142.089 26.6543 143.495C26.6543 144.069 26.8531 144.595 27.175 145.022C27.0141 145.139 26.8832 145.293 26.7927 145.471C26.7023 145.648 26.6549 145.844 26.6543 146.044V151.142C26.6543 151.845 27.226 152.417 27.9289 152.417H35.5765C36.2795 152.417 36.8511 151.845 36.8511 151.142V149.461L39.4004 150.736V146.274L36.8511 147.549V146.044ZM33.6646 142.22C34.3676 142.22 34.9392 142.792 34.9392 143.495C34.9392 144.197 34.3676 144.769 33.6646 144.769C32.9617 144.769 32.39 144.197 32.39 143.495C32.39 142.792 32.9617 142.22 33.6646 142.22ZM29.2035 142.22C29.9065 142.22 30.4781 142.792 30.4781 143.495C30.4781 144.197 29.9065 144.769 29.2035 144.769C28.5006 144.769 27.9289 144.197 27.9289 143.495C27.9289 142.792 28.5006 142.22 29.2035 142.22ZM27.9289 151.142V146.044H35.5765L35.5778 151.142H27.9289Z" fill="white"/>
<path d="M53.4395 142.566V143.59H50.3668V152.33H49.1036V143.59H46.0309V142.566H53.4395ZM54.812 152.33V145.16H55.6655L55.8909 146.075C56.5191 145.465 57.2747 145.16 58.1578 145.16V146.212C57.302 146.212 56.6078 146.515 56.0752 147.12V152.33H54.812ZM59.0865 150.166C59.0865 148.695 60.0561 147.96 61.9953 147.96C62.619 147.96 63.2426 148.006 63.8662 148.097V147.421C63.8662 146.597 63.2221 146.185 61.9339 146.185C61.1964 146.185 60.4407 146.298 59.6669 146.526V145.502C60.4407 145.274 61.1964 145.16 61.9339 145.16C64.0643 145.16 65.1295 145.902 65.1295 147.386V152.33H64.4193L63.9823 151.62C63.2676 152.093 62.4892 152.33 61.6471 152.33C59.94 152.33 59.0865 151.609 59.0865 150.166ZM61.9953 148.984C60.8982 148.984 60.3497 149.371 60.3497 150.145C60.3497 150.919 60.7822 151.306 61.6471 151.306C62.5211 151.306 63.2608 151.074 63.8662 150.609V149.121C63.2426 149.03 62.619 148.984 61.9953 148.984ZM68.5846 145.16V152.33H67.3213V145.16H68.5846ZM68.5846 142.566V143.761H67.3213V142.566H68.5846ZM72.1079 142.566V152.33H70.8447V142.566H72.1079ZM77.1882 145.16C79.2275 145.16 80.2472 146.169 80.2472 148.185C80.2472 148.472 80.2267 148.779 80.1858 149.107H75.1533C75.1533 150.573 76.0092 151.306 77.7208 151.306C78.5356 151.306 79.2594 151.215 79.8921 151.033V152.057C79.2594 152.239 78.4901 152.33 77.5842 152.33C75.1215 152.33 73.8901 151.108 73.8901 148.663C73.8901 146.328 74.9895 145.16 77.1882 145.16ZM75.1533 148.056H79.0318C79.0045 146.799 78.3899 146.171 77.1882 146.171C75.9136 146.171 75.2353 146.799 75.1533 148.056ZM81.9475 152.33V145.16H82.801L83.0263 146.075C83.6545 145.465 84.4102 145.16 85.2933 145.16V146.212C84.4375 146.212 83.7433 146.515 83.2107 147.12V152.33H81.9475Z" fill="white"/>
</g>
<path d="M28.9055 138.165H83.0945V135.835H28.9055V138.165ZM83.0945 155.646H28.9055V157.976H83.0945V155.646ZM28.9055 155.646C24.0785 155.646 20.1654 151.733 20.1654 146.906H17.8346C17.8346 153.02 22.7912 157.976 28.9055 157.976V155.646ZM91.8346 146.906C91.8346 151.733 87.9215 155.646 83.0945 155.646V157.976C89.2088 157.976 94.1654 153.02 94.1654 146.906H91.8346ZM83.0945 138.165C87.9215 138.165 91.8346 142.078 91.8346 146.906H94.1654C94.1654 140.791 89.2088 135.835 83.0945 135.835V138.165ZM28.9055 135.835C22.7912 135.835 17.8346 140.791 17.8346 146.906H20.1654C20.1654 142.078 24.0785 138.165 28.9055 138.165V135.835Z" fill="white"/>
<path d="M19.9766 169.334C21.2786 168.943 22.6458 168.748 24.0781 168.748C27.5612 168.748 29.3027 170.018 29.3027 172.557C29.3027 174.093 28.6908 175.151 27.4668 175.73C28.6908 176.284 29.3027 177.342 29.3027 178.904C29.3027 181.574 27.5612 182.908 24.0781 182.908C22.6458 182.908 21.2786 182.713 19.9766 182.322V179.979C21.2786 180.434 22.6458 180.662 24.0781 180.662C25.8359 180.662 26.7148 180.076 26.7148 178.904C26.7148 177.537 26.0898 176.854 24.8398 176.854H21.4414V174.607H24.8105C26.0801 174.607 26.7148 173.924 26.7148 172.557C26.7148 171.515 25.8359 170.994 24.0781 170.994C22.6458 170.994 21.2786 171.222 19.9766 171.678V169.334ZM33.4629 175.789C33.4629 179.038 34.6445 180.662 37.0078 180.662C39.2995 180.662 40.4453 179.038 40.4453 175.789C40.4453 172.592 39.2995 170.994 37.0078 170.994C34.6445 170.994 33.4629 172.592 33.4629 175.789ZM30.7773 175.848C30.7773 171.115 32.8542 168.748 37.0078 168.748C41.0898 168.748 43.1309 171.115 43.1309 175.848C43.1309 180.555 41.0898 182.908 37.0078 182.908C32.8542 182.908 30.7773 180.555 30.7773 175.848ZM49.8789 182.791V168.846H56.2266C59.0781 168.846 60.5039 170.092 60.5039 172.586C60.5039 174.272 59.3939 175.669 57.1738 176.775L61.5977 182.811H58.3359L54.0879 176.727V175.545C56.5618 175.122 57.7988 174.161 57.7988 172.664C57.7988 171.635 57.2194 171.121 56.0605 171.121H52.5156V182.791H49.8789ZM64.6836 177.645C64.6836 179.786 65.5137 180.857 67.1738 180.857C68.834 180.857 69.6641 179.786 69.6641 177.645C69.6641 175.555 68.834 174.51 67.1738 174.51C65.5137 174.51 64.6836 175.555 64.6836 177.645ZM62.0957 177.684C62.0957 174.246 63.7884 172.527 67.1738 172.527C70.5592 172.527 72.252 174.246 72.252 177.684C72.252 181.115 70.5592 182.83 67.1738 182.83C63.8014 182.83 62.1087 181.115 62.0957 177.684ZM81.7734 182.518C80.9271 182.713 80.0482 182.811 79.1367 182.811C75.4909 182.811 73.668 181.036 73.668 177.488C73.668 174.201 75.4909 172.557 79.1367 172.557C80.0482 172.557 80.9271 172.654 81.7734 172.85V174.9C80.9271 174.705 80.1133 174.607 79.332 174.607C77.2812 174.607 76.2559 175.568 76.2559 177.488C76.2559 179.669 77.2812 180.76 79.332 180.76C80.1133 180.76 80.9271 180.662 81.7734 180.467V182.518ZM83.4824 182.811V168.846H86.0703V173.357C87.1315 172.824 88.248 172.557 89.4199 172.557C92.0371 172.557 93.3457 173.543 93.3457 175.516C93.3457 176.948 92.4342 178.068 90.6113 178.875L93.7949 182.811H90.6309L87.9551 179.148V177.947C89.8236 177.55 90.7578 176.899 90.7578 175.994C90.7578 175.07 90.1393 174.607 88.9023 174.607C88.0365 174.607 87.0924 174.881 86.0703 175.428V182.811H83.4824Z" fill="white"/>
<path d="M25.25 197.342L23.4727 200.943L19.5 201.518L22.375 204.322L21.6953 208.279L25.25 206.412L28.8047 208.279L28.125 204.322L31 201.521L27.0273 200.943L25.25 197.342Z" fill="#F39B13"/>
<path d="M37.7715 197.659C38.1543 197.659 38.5143 197.709 38.8516 197.81C39.1934 197.91 39.4919 198.06 39.7471 198.261C40.0068 198.461 40.2119 198.712 40.3623 199.013C40.5127 199.313 40.5879 199.664 40.5879 200.065C40.5879 200.371 40.5423 200.646 40.4512 200.893C40.36 201.139 40.2347 201.362 40.0752 201.562C39.9157 201.758 39.7266 201.936 39.5078 202.096C39.2891 202.251 39.0521 202.392 38.7969 202.52C39.0612 202.661 39.3187 202.818 39.5693 202.991C39.8245 203.164 40.0501 203.36 40.2461 203.579C40.4466 203.793 40.6061 204.035 40.7246 204.304C40.8477 204.573 40.9092 204.873 40.9092 205.206C40.9092 205.625 40.8317 206.006 40.6768 206.348C40.5264 206.685 40.3122 206.972 40.0342 207.209C39.7607 207.446 39.4303 207.628 39.043 207.756C38.6602 207.883 38.2363 207.947 37.7715 207.947C37.2702 207.947 36.8236 207.886 36.4316 207.763C36.0443 207.64 35.7161 207.464 35.4473 207.236C35.1829 207.004 34.9801 206.721 34.8389 206.389C34.7021 206.056 34.6338 205.68 34.6338 205.261C34.6338 204.919 34.6839 204.611 34.7842 204.338C34.889 204.064 35.028 203.818 35.2012 203.6C35.3743 203.381 35.5794 203.187 35.8164 203.019C36.0534 202.85 36.304 202.702 36.5684 202.574C36.3451 202.433 36.1354 202.28 35.9395 202.116C35.7435 201.948 35.5726 201.761 35.4268 201.556C35.2855 201.351 35.1715 201.125 35.085 200.879C35.0029 200.628 34.9619 200.353 34.9619 200.052C34.9619 199.655 35.0371 199.309 35.1875 199.013C35.3424 198.712 35.5498 198.461 35.8096 198.261C36.0693 198.06 36.3678 197.91 36.7051 197.81C37.0469 197.709 37.4023 197.659 37.7715 197.659ZM35.8574 205.274C35.8574 205.516 35.8939 205.739 35.9668 205.944C36.0397 206.145 36.1536 206.318 36.3086 206.464C36.4635 206.605 36.6595 206.717 36.8965 206.799C37.1335 206.876 37.416 206.915 37.7441 206.915C38.0632 206.915 38.3434 206.876 38.585 206.799C38.8311 206.717 39.0361 206.603 39.2002 206.457C39.3643 206.307 39.4873 206.127 39.5693 205.917C39.6514 205.707 39.6924 205.475 39.6924 205.22C39.6924 204.983 39.6468 204.769 39.5557 204.577C39.4691 204.386 39.3415 204.208 39.1729 204.044C39.0088 203.88 38.8105 203.725 38.5781 203.579C38.3457 203.433 38.0859 203.29 37.7988 203.148L37.5938 203.053C37.0195 203.326 36.5866 203.641 36.2949 203.996C36.0033 204.347 35.8574 204.773 35.8574 205.274ZM37.7578 198.698C37.2747 198.698 36.8896 198.819 36.6025 199.061C36.32 199.302 36.1787 199.653 36.1787 200.113C36.1787 200.373 36.2174 200.596 36.2949 200.783C36.377 200.97 36.4886 201.136 36.6299 201.282C36.7712 201.428 36.9398 201.56 37.1357 201.679C37.3363 201.793 37.5527 201.904 37.7852 202.014C38.0039 201.913 38.209 201.804 38.4004 201.686C38.5964 201.567 38.765 201.433 38.9062 201.282C39.0521 201.132 39.166 200.961 39.248 200.77C39.3301 200.578 39.3711 200.359 39.3711 200.113C39.3711 199.653 39.2275 199.302 38.9404 199.061C38.6533 198.819 38.2591 198.698 37.7578 198.698ZM42.625 207.052C42.625 206.879 42.6478 206.733 42.6934 206.614C42.7389 206.491 42.8005 206.393 42.8779 206.32C42.9554 206.243 43.0465 206.188 43.1514 206.156C43.2562 206.12 43.3701 206.102 43.4932 206.102C43.6117 206.102 43.7233 206.12 43.8281 206.156C43.9375 206.188 44.0309 206.243 44.1084 206.32C44.1859 206.393 44.2474 206.491 44.293 206.614C44.3385 206.733 44.3613 206.879 44.3613 207.052C44.3613 207.22 44.3385 207.366 44.293 207.489C44.2474 207.608 44.1859 207.706 44.1084 207.783C44.0309 207.861 43.9375 207.918 43.8281 207.954C43.7233 207.991 43.6117 208.009 43.4932 208.009C43.3701 208.009 43.2562 207.991 43.1514 207.954C43.0465 207.918 42.9554 207.861 42.8779 207.783C42.8005 207.706 42.7389 207.608 42.6934 207.489C42.6478 207.366 42.625 207.22 42.625 207.052ZM49.1055 201.679C49.5566 201.679 49.9759 201.743 50.3633 201.87C50.7552 201.993 51.0947 202.178 51.3818 202.424C51.6735 202.67 51.9014 202.975 52.0654 203.34C52.2295 203.704 52.3115 204.126 52.3115 204.604C52.3115 205.124 52.234 205.591 52.0791 206.006C51.9242 206.421 51.694 206.771 51.3887 207.059C51.0833 207.346 50.7051 207.567 50.2539 207.722C49.8073 207.872 49.2923 207.947 48.709 207.947C48.4766 207.947 48.2464 207.936 48.0186 207.913C47.7952 207.89 47.5788 207.856 47.3691 207.811C47.1641 207.77 46.9681 207.715 46.7812 207.646C46.5944 207.578 46.4258 207.498 46.2754 207.407V206.231C46.4258 206.336 46.6012 206.43 46.8018 206.512C47.0068 206.594 47.221 206.662 47.4443 206.717C47.6676 206.771 47.891 206.815 48.1143 206.847C48.3421 206.874 48.5518 206.888 48.7432 206.888C49.1032 206.888 49.4245 206.847 49.707 206.765C49.9896 206.678 50.2288 206.546 50.4248 206.368C50.6208 206.19 50.7712 205.967 50.876 205.698C50.9808 205.429 51.0332 205.11 51.0332 204.741C51.0332 204.09 50.8327 203.593 50.4316 203.251C50.0306 202.905 49.4473 202.731 48.6816 202.731C48.5586 202.731 48.4242 202.738 48.2783 202.752C48.137 202.761 47.9935 202.775 47.8477 202.793C47.7064 202.811 47.5697 202.832 47.4375 202.854C47.3099 202.873 47.1982 202.891 47.1025 202.909L46.4873 202.52L46.8633 197.816H51.5801V198.951H47.9434L47.6768 201.815C47.8226 201.788 48.014 201.758 48.251 201.727C48.4925 201.695 48.7773 201.679 49.1055 201.679Z" fill="white"/>
<path d="M58.1523 198.035V207.811H56.8877V198.035H58.1523ZM60.6885 207.811V198.035H62.2949L65.8838 206.19L69.4043 198.035H70.9424V207.811H69.8145V199.792L66.3418 207.811H65.3438L61.8164 199.792V207.811H60.6885ZM76.8213 206.785C79.2139 206.785 80.4102 205.409 80.4102 202.656C80.4102 200.259 79.2139 199.061 76.8213 199.061H74.5312V206.785H76.8213ZM73.2666 207.811V198.035H76.8213C80.057 198.035 81.6748 199.576 81.6748 202.656C81.6748 206.092 80.057 207.811 76.8213 207.811H73.2666ZM84.6484 206.56C85.0632 206.692 85.5667 206.758 86.1592 206.758C87.7542 206.758 88.5518 205.849 88.5518 204.03C88.5518 202.494 87.8294 201.727 86.3848 201.727C85.7285 201.727 85.1497 201.85 84.6484 202.096V206.56ZM83.3838 198.035H84.6484V200.975C85.1908 200.747 85.7718 200.633 86.3916 200.633C88.6611 200.633 89.7959 201.781 89.7959 204.078C89.7959 206.566 88.6042 207.811 86.2207 207.811C85.1908 207.811 84.2451 207.713 83.3838 207.517V198.035Z" fill="white"/>
<path d="M24.585 231.811H22.4727V226.027C22.4727 225.909 22.4727 225.768 22.4727 225.604C22.4772 225.435 22.4818 225.262 22.4863 225.084C22.4954 224.902 22.5023 224.719 22.5068 224.537C22.516 224.355 22.5228 224.188 22.5273 224.038C22.5046 224.065 22.4658 224.106 22.4111 224.161C22.3564 224.216 22.2949 224.277 22.2266 224.346C22.1582 224.41 22.0876 224.476 22.0146 224.544C21.9417 224.612 21.8711 224.674 21.8027 224.729L20.6543 225.651L19.6289 224.38L22.8486 221.816H24.585V231.811ZM30.7988 225.426C31.2272 225.426 31.626 225.492 31.9951 225.624C32.3643 225.756 32.6855 225.95 32.959 226.205C33.2324 226.46 33.4466 226.779 33.6016 227.162C33.7565 227.54 33.834 227.976 33.834 228.468C33.834 229.01 33.7497 229.498 33.5811 229.931C33.4124 230.359 33.1641 230.724 32.8359 231.024C32.5078 231.321 32.0999 231.549 31.6123 231.708C31.1292 231.868 30.5732 231.947 29.9443 231.947C29.6937 231.947 29.4453 231.936 29.1992 231.913C28.9531 231.89 28.7161 231.856 28.4883 231.811C28.265 231.77 28.0508 231.715 27.8457 231.646C27.6452 231.578 27.4629 231.498 27.2988 231.407V229.582C27.4583 229.673 27.6429 229.76 27.8525 229.842C28.0622 229.919 28.2786 229.988 28.502 230.047C28.7298 230.102 28.9577 230.147 29.1855 230.184C29.4134 230.215 29.6299 230.231 29.835 230.231C30.4456 230.231 30.9105 230.106 31.2295 229.855C31.5485 229.6 31.708 229.197 31.708 228.646C31.708 228.153 31.5508 227.78 31.2363 227.524C30.9264 227.265 30.4456 227.135 29.7939 227.135C29.6755 227.135 29.5479 227.142 29.4111 227.155C29.279 227.169 29.1468 227.187 29.0146 227.21C28.887 227.233 28.764 227.258 28.6455 227.285C28.527 227.308 28.4245 227.333 28.3379 227.36L27.4971 226.909L27.873 221.816H33.1504V223.607H29.7051L29.541 225.569C29.6868 225.537 29.8555 225.506 30.0469 225.474C30.2428 225.442 30.4935 225.426 30.7988 225.426ZM44.792 229.035C44.792 229.482 44.7145 229.885 44.5596 230.245C44.4092 230.601 44.1859 230.906 43.8896 231.161C43.598 231.412 43.238 231.605 42.8096 231.742C42.3857 231.879 41.8981 231.947 41.3467 231.947C40.8636 231.947 40.3965 231.897 39.9453 231.797C39.4987 231.697 39.084 231.546 38.7012 231.346V229.377C38.9199 229.482 39.141 229.584 39.3643 229.685C39.5876 229.78 39.8132 229.867 40.041 229.944C40.2734 230.022 40.5036 230.083 40.7314 230.129C40.9639 230.174 41.194 230.197 41.4219 230.197C41.6543 230.197 41.8525 230.172 42.0166 230.122C42.1852 230.067 42.3197 229.994 42.4199 229.903C42.5247 229.808 42.5999 229.696 42.6455 229.568C42.6956 229.436 42.7207 229.293 42.7207 229.138C42.7207 228.951 42.6797 228.787 42.5977 228.646C42.5202 228.5 42.4085 228.365 42.2627 228.242C42.1214 228.115 41.9482 227.992 41.7432 227.873C41.5426 227.755 41.3171 227.629 41.0664 227.497C40.8568 227.388 40.6221 227.256 40.3623 227.101C40.1025 226.946 39.8564 226.754 39.624 226.526C39.3962 226.294 39.2048 226.016 39.0498 225.692C38.8949 225.364 38.8174 224.972 38.8174 224.517C38.8174 224.07 38.8903 223.671 39.0361 223.32C39.1865 222.965 39.3984 222.666 39.6719 222.425C39.9453 222.179 40.2757 221.992 40.6631 221.864C41.055 221.737 41.4925 221.673 41.9756 221.673C42.2171 221.673 42.4518 221.689 42.6797 221.721C42.9121 221.753 43.14 221.798 43.3633 221.857C43.5911 221.917 43.819 221.99 44.0469 222.076C44.2747 222.163 44.5094 222.263 44.751 222.377L44.0674 224.024C43.8623 223.929 43.6709 223.844 43.4932 223.771C43.3154 223.699 43.1423 223.637 42.9736 223.587C42.805 223.537 42.6387 223.5 42.4746 223.478C42.3151 223.45 42.1533 223.437 41.9893 223.437C41.6338 223.437 41.3604 223.532 41.1689 223.724C40.9821 223.91 40.8887 224.161 40.8887 224.476C40.8887 224.644 40.916 224.795 40.9707 224.927C41.0299 225.054 41.1211 225.175 41.2441 225.289C41.3717 225.403 41.5335 225.519 41.7295 225.638C41.93 225.756 42.1715 225.891 42.4541 226.041C42.7959 226.223 43.1104 226.41 43.3975 226.602C43.6846 226.788 43.9307 226.998 44.1357 227.23C44.3454 227.458 44.5072 227.718 44.6211 228.01C44.735 228.301 44.792 228.643 44.792 229.035ZM49.584 225.508C49.2148 225.508 48.9072 225.638 48.6611 225.897C48.4196 226.157 48.2806 226.565 48.2441 227.121H50.9033C50.8988 226.889 50.8691 226.674 50.8145 226.479C50.7598 226.283 50.6777 226.114 50.5684 225.973C50.459 225.827 50.3223 225.713 50.1582 225.631C49.9941 225.549 49.8027 225.508 49.584 225.508ZM49.8506 231.947C49.3037 231.947 48.8001 231.868 48.3398 231.708C47.8796 231.549 47.4831 231.309 47.1504 230.99C46.8177 230.667 46.5579 230.261 46.3711 229.773C46.1888 229.281 46.0977 228.705 46.0977 228.044C46.0977 227.374 46.182 226.788 46.3506 226.287C46.5192 225.786 46.7539 225.369 47.0547 225.036C47.36 224.699 47.7246 224.446 48.1484 224.277C48.5768 224.109 49.0508 224.024 49.5703 224.024C50.0762 224.024 50.5319 224.102 50.9375 224.257C51.3477 224.407 51.694 224.631 51.9766 224.927C52.2637 225.223 52.4824 225.588 52.6328 226.021C52.7878 226.449 52.8652 226.941 52.8652 227.497V228.509H48.2031C48.2122 228.8 48.2578 229.065 48.3398 229.302C48.4264 229.534 48.5449 229.732 48.6953 229.896C48.8503 230.056 49.0348 230.179 49.249 230.266C49.4678 230.352 49.7161 230.396 49.9941 230.396C50.2266 230.396 50.4453 230.384 50.6504 230.361C50.86 230.334 51.0628 230.295 51.2588 230.245C51.4548 230.195 51.6484 230.133 51.8398 230.061C52.0312 229.983 52.2272 229.894 52.4277 229.794V231.407C52.2454 231.503 52.0609 231.585 51.874 231.653C51.6917 231.717 51.498 231.772 51.293 231.817C51.0879 231.863 50.8669 231.895 50.6299 231.913C50.3929 231.936 50.1331 231.947 49.8506 231.947ZM59.0654 231.811L58.6621 230.771H58.6006C58.4502 230.977 58.2998 231.154 58.1494 231.305C57.999 231.451 57.835 231.571 57.6572 231.667C57.4795 231.763 57.279 231.833 57.0557 231.879C56.8369 231.924 56.5817 231.947 56.29 231.947C55.9801 231.947 55.693 231.899 55.4287 231.804C55.1644 231.703 54.9342 231.555 54.7383 231.359C54.5469 231.159 54.3965 230.908 54.2871 230.607C54.1777 230.302 54.123 229.942 54.123 229.527C54.123 228.716 54.3828 228.119 54.9023 227.736C55.4219 227.349 56.1989 227.135 57.2334 227.094L58.4502 227.053V226.479C58.4502 226.164 58.359 225.932 58.1768 225.781C57.9945 225.631 57.7393 225.556 57.4111 225.556C57.083 225.556 56.7617 225.604 56.4473 225.699C56.1374 225.795 55.8252 225.923 55.5107 226.082L54.834 224.701C55.2168 224.487 55.6406 224.318 56.1055 224.195C56.5703 224.072 57.0579 224.011 57.5684 224.011C58.5208 224.011 59.25 224.234 59.7559 224.681C60.2663 225.127 60.5215 225.806 60.5215 226.718V231.811H59.0654ZM58.4502 228.27L57.7598 228.297C57.4818 228.306 57.2471 228.342 57.0557 228.406C56.8643 228.47 56.7093 228.557 56.5908 228.666C56.4769 228.771 56.3926 228.898 56.3379 229.049C56.2878 229.195 56.2627 229.359 56.2627 229.541C56.2627 229.86 56.3402 230.088 56.4951 230.225C56.6501 230.357 56.8529 230.423 57.1035 230.423C57.2949 230.423 57.4727 230.391 57.6367 230.327C57.8008 230.259 57.9421 230.161 58.0605 230.033C58.1836 229.901 58.2793 229.742 58.3477 229.555C58.416 229.363 58.4502 229.145 58.4502 228.898V228.27ZM67.7607 229.541C67.7607 229.942 67.6878 230.293 67.542 230.594C67.3962 230.895 67.1888 231.145 66.9199 231.346C66.651 231.546 66.3252 231.697 65.9424 231.797C65.5596 231.897 65.1312 231.947 64.6572 231.947C64.4066 231.947 64.1742 231.938 63.96 231.92C63.7458 231.906 63.543 231.881 63.3516 231.845C63.1602 231.808 62.9756 231.763 62.7979 231.708C62.6201 231.653 62.4401 231.585 62.2578 231.503V229.78C62.4492 229.876 62.6497 229.963 62.8594 230.04C63.0736 230.118 63.2855 230.186 63.4951 230.245C63.7048 230.3 63.9076 230.343 64.1035 230.375C64.304 230.407 64.4886 230.423 64.6572 230.423C64.8441 230.423 65.0036 230.407 65.1357 230.375C65.2679 230.339 65.375 230.291 65.457 230.231C65.5436 230.168 65.6051 230.095 65.6416 230.013C65.6826 229.926 65.7031 229.835 65.7031 229.739C65.7031 229.644 65.6872 229.559 65.6553 229.486C65.6279 229.409 65.5618 229.329 65.457 229.247C65.3522 229.16 65.1973 229.065 64.9922 228.96C64.7917 228.851 64.5205 228.718 64.1787 228.563C63.846 228.413 63.5566 228.265 63.3105 228.119C63.069 227.969 62.8685 227.802 62.709 227.62C62.554 227.438 62.4378 227.23 62.3604 226.998C62.2829 226.761 62.2441 226.481 62.2441 226.157C62.2441 225.802 62.3125 225.492 62.4492 225.228C62.5859 224.959 62.7796 224.735 63.0303 224.558C63.2809 224.38 63.5817 224.248 63.9326 224.161C64.2881 224.07 64.6823 224.024 65.1152 224.024C65.571 224.024 66.0039 224.077 66.4141 224.182C66.8242 224.286 67.2458 224.444 67.6787 224.653L67.0498 226.13C66.7035 225.966 66.373 225.831 66.0586 225.727C65.7441 225.622 65.4297 225.569 65.1152 225.569C64.8327 225.569 64.6276 225.619 64.5 225.72C64.377 225.82 64.3154 225.957 64.3154 226.13C64.3154 226.221 64.3314 226.303 64.3633 226.376C64.3952 226.444 64.459 226.517 64.5547 226.595C64.6504 226.668 64.7848 226.75 64.958 226.841C65.1312 226.927 65.3568 227.035 65.6348 227.162C65.9583 227.303 66.25 227.445 66.5098 227.586C66.7695 227.723 66.9928 227.88 67.1797 228.058C67.3665 228.235 67.5101 228.443 67.6104 228.68C67.7106 228.917 67.7607 229.204 67.7607 229.541ZM71.1445 227.976C71.1445 228.737 71.2516 229.311 71.4658 229.698C71.68 230.081 72.0286 230.272 72.5117 230.272C72.9902 230.272 73.3366 230.079 73.5508 229.691C73.765 229.304 73.8721 228.732 73.8721 227.976C73.8721 227.215 73.765 226.647 73.5508 226.273C73.3366 225.895 72.9857 225.706 72.498 225.706C72.0195 225.706 71.6732 225.895 71.459 226.273C71.2493 226.647 71.1445 227.215 71.1445 227.976ZM75.998 227.976C75.998 228.614 75.916 229.179 75.752 229.671C75.5924 230.163 75.36 230.578 75.0547 230.915C74.7539 231.252 74.3848 231.51 73.9473 231.688C73.5143 231.861 73.0267 231.947 72.4844 231.947C71.9785 231.947 71.5137 231.861 71.0898 231.688C70.666 231.51 70.2992 231.252 69.9893 230.915C69.6839 230.578 69.4447 230.163 69.2715 229.671C69.0983 229.179 69.0117 228.614 69.0117 227.976C69.0117 227.342 69.0915 226.779 69.251 226.287C69.415 225.795 69.6475 225.382 69.9482 225.05C70.2536 224.713 70.6227 224.457 71.0557 224.284C71.4886 224.111 71.9785 224.024 72.5254 224.024C73.0312 224.024 73.4961 224.111 73.9199 224.284C74.3438 224.457 74.7083 224.713 75.0137 225.05C75.3236 225.382 75.5651 225.795 75.7383 226.287C75.9115 226.779 75.998 227.342 75.998 227.976ZM84.4336 231.811H82.3486V227.347C82.3486 226.795 82.2643 226.383 82.0957 226.109C81.9316 225.831 81.6673 225.692 81.3027 225.692C81.0293 225.692 80.8014 225.747 80.6191 225.856C80.4368 225.966 80.291 226.128 80.1816 226.342C80.0768 226.556 80.0016 226.82 79.9561 227.135C79.9105 227.449 79.8877 227.809 79.8877 228.215V231.811H77.8027V224.168H79.3955L79.6758 225.146H79.792C79.9014 224.95 80.0335 224.781 80.1885 224.64C80.348 224.498 80.5212 224.382 80.708 224.291C80.8949 224.2 81.0931 224.134 81.3027 224.093C81.5124 224.047 81.7266 224.024 81.9453 224.024C82.319 224.024 82.6585 224.079 82.9639 224.188C83.2692 224.293 83.5312 224.46 83.75 224.688C83.9688 224.915 84.1374 225.207 84.2559 225.562C84.3743 225.913 84.4336 226.335 84.4336 226.827V231.811ZM91.6729 229.541C91.6729 229.942 91.5999 230.293 91.4541 230.594C91.3083 230.895 91.1009 231.145 90.832 231.346C90.5632 231.546 90.2373 231.697 89.8545 231.797C89.4717 231.897 89.0433 231.947 88.5693 231.947C88.3187 231.947 88.0863 231.938 87.8721 231.92C87.6579 231.906 87.4551 231.881 87.2637 231.845C87.0723 231.808 86.8877 231.763 86.71 231.708C86.5322 231.653 86.3522 231.585 86.1699 231.503V229.78C86.3613 229.876 86.5618 229.963 86.7715 230.04C86.9857 230.118 87.1976 230.186 87.4072 230.245C87.6169 230.3 87.8197 230.343 88.0156 230.375C88.2161 230.407 88.4007 230.423 88.5693 230.423C88.7562 230.423 88.9157 230.407 89.0479 230.375C89.18 230.339 89.2871 230.291 89.3691 230.231C89.4557 230.168 89.5173 230.095 89.5537 230.013C89.5947 229.926 89.6152 229.835 89.6152 229.739C89.6152 229.644 89.5993 229.559 89.5674 229.486C89.54 229.409 89.474 229.329 89.3691 229.247C89.2643 229.16 89.1094 229.065 88.9043 228.96C88.7038 228.851 88.4326 228.718 88.0908 228.563C87.7581 228.413 87.4688 228.265 87.2227 228.119C86.9811 227.969 86.7806 227.802 86.6211 227.62C86.4661 227.438 86.3499 227.23 86.2725 226.998C86.195 226.761 86.1562 226.481 86.1562 226.157C86.1562 225.802 86.2246 225.492 86.3613 225.228C86.498 224.959 86.6917 224.735 86.9424 224.558C87.193 224.38 87.4938 224.248 87.8447 224.161C88.2002 224.07 88.5944 224.024 89.0273 224.024C89.4831 224.024 89.916 224.077 90.3262 224.182C90.7363 224.286 91.1579 224.444 91.5908 224.653L90.9619 226.13C90.6156 225.966 90.2852 225.831 89.9707 225.727C89.6562 225.622 89.3418 225.569 89.0273 225.569C88.7448 225.569 88.5397 225.619 88.4121 225.72C88.2891 225.82 88.2275 225.957 88.2275 226.13C88.2275 226.221 88.2435 226.303 88.2754 226.376C88.3073 226.444 88.3711 226.517 88.4668 226.595C88.5625 226.668 88.6969 226.75 88.8701 226.841C89.0433 226.927 89.2689 227.035 89.5469 227.162C89.8704 227.303 90.1621 227.445 90.4219 227.586C90.6816 227.723 90.9049 227.88 91.0918 228.058C91.2786 228.235 91.4222 228.443 91.5225 228.68C91.6227 228.917 91.6729 229.204 91.6729 229.541Z" fill="white"/>
<path d="M108.267 231.811H101.561V230.341L103.912 227.805C104.208 227.486 104.477 227.192 104.719 226.923C104.96 226.654 105.168 226.392 105.341 226.137C105.514 225.882 105.648 225.622 105.744 225.357C105.84 225.093 105.888 224.808 105.888 224.503C105.888 224.166 105.785 223.904 105.58 223.717C105.38 223.53 105.108 223.437 104.767 223.437C104.407 223.437 104.06 223.525 103.728 223.703C103.395 223.881 103.046 224.134 102.682 224.462L101.533 223.102C101.738 222.915 101.952 222.737 102.176 222.568C102.399 222.395 102.645 222.243 102.914 222.11C103.183 221.978 103.479 221.873 103.803 221.796C104.126 221.714 104.489 221.673 104.89 221.673C105.368 221.673 105.797 221.739 106.175 221.871C106.558 222.003 106.883 222.192 107.152 222.438C107.421 222.68 107.626 222.974 107.768 223.32C107.913 223.667 107.986 224.056 107.986 224.489C107.986 224.881 107.918 225.257 107.781 225.617C107.645 225.973 107.458 226.324 107.221 226.67C106.984 227.012 106.708 227.354 106.394 227.695C106.084 228.033 105.751 228.377 105.396 228.728L104.192 229.938V230.033H108.267V231.811ZM115.991 226.813C115.991 227.62 115.927 228.34 115.8 228.974C115.677 229.607 115.476 230.145 115.198 230.587C114.925 231.029 114.569 231.366 114.132 231.599C113.699 231.831 113.175 231.947 112.56 231.947C111.981 231.947 111.477 231.831 111.049 231.599C110.62 231.366 110.265 231.029 109.982 230.587C109.7 230.145 109.488 229.607 109.347 228.974C109.21 228.34 109.142 227.62 109.142 226.813C109.142 226.007 109.203 225.285 109.326 224.646C109.454 224.008 109.654 223.468 109.928 223.026C110.201 222.584 110.554 222.247 110.987 222.015C111.42 221.778 111.944 221.659 112.56 221.659C113.134 221.659 113.635 221.775 114.063 222.008C114.492 222.24 114.85 222.577 115.137 223.02C115.424 223.462 115.638 224.002 115.779 224.64C115.921 225.278 115.991 226.002 115.991 226.813ZM111.247 226.813C111.247 227.953 111.345 228.81 111.541 229.384C111.737 229.958 112.076 230.245 112.56 230.245C113.034 230.245 113.373 229.96 113.578 229.391C113.788 228.821 113.893 227.962 113.893 226.813C113.893 225.67 113.788 224.811 113.578 224.236C113.373 223.658 113.034 223.368 112.56 223.368C112.318 223.368 112.113 223.441 111.944 223.587C111.78 223.733 111.646 223.949 111.541 224.236C111.436 224.523 111.361 224.883 111.315 225.316C111.27 225.745 111.247 226.244 111.247 226.813ZM123.702 226.813C123.702 227.62 123.638 228.34 123.511 228.974C123.388 229.607 123.187 230.145 122.909 230.587C122.636 231.029 122.28 231.366 121.843 231.599C121.41 231.831 120.886 231.947 120.271 231.947C119.692 231.947 119.188 231.831 118.76 231.599C118.331 231.366 117.976 231.029 117.693 230.587C117.411 230.145 117.199 229.607 117.058 228.974C116.921 228.34 116.853 227.62 116.853 226.813C116.853 226.007 116.914 225.285 117.037 224.646C117.165 224.008 117.365 223.468 117.639 223.026C117.912 222.584 118.265 222.247 118.698 222.015C119.131 221.778 119.655 221.659 120.271 221.659C120.845 221.659 121.346 221.775 121.774 222.008C122.203 222.24 122.561 222.577 122.848 223.02C123.135 223.462 123.349 224.002 123.49 224.64C123.632 225.278 123.702 226.002 123.702 226.813ZM118.958 226.813C118.958 227.953 119.056 228.81 119.252 229.384C119.448 229.958 119.787 230.245 120.271 230.245C120.744 230.245 121.084 229.96 121.289 229.391C121.499 228.821 121.604 227.962 121.604 226.813C121.604 225.67 121.499 224.811 121.289 224.236C121.084 223.658 120.744 223.368 120.271 223.368C120.029 223.368 119.824 223.441 119.655 223.587C119.491 223.733 119.357 223.949 119.252 224.236C119.147 224.523 119.072 224.883 119.026 225.316C118.981 225.745 118.958 226.244 118.958 226.813ZM129.718 231.811H127.605V226.027C127.605 225.909 127.605 225.768 127.605 225.604C127.61 225.435 127.615 225.262 127.619 225.084C127.628 224.902 127.635 224.719 127.64 224.537C127.649 224.355 127.656 224.188 127.66 224.038C127.637 224.065 127.599 224.106 127.544 224.161C127.489 224.216 127.428 224.277 127.359 224.346C127.291 224.41 127.22 224.476 127.147 224.544C127.075 224.612 127.004 224.674 126.936 224.729L125.787 225.651L124.762 224.38L127.981 221.816H129.718V231.811Z" fill="white"/>
<path d="M148.939 223.87C148.591 223.87 148.275 223.937 147.992 224.07C147.709 224.201 147.466 224.389 147.265 224.637C147.066 224.884 146.911 225.185 146.801 225.54C146.693 225.895 146.64 226.295 146.64 226.741C146.64 227.2 146.687 227.609 146.781 227.967C146.879 228.322 147.024 228.621 147.216 228.865C147.408 229.109 147.647 229.295 147.934 229.422C148.22 229.549 148.555 229.612 148.939 229.612C149.229 229.612 149.504 229.585 149.765 229.529C150.025 229.471 150.282 229.404 150.536 229.329V230.12C150.409 230.169 150.282 230.213 150.155 230.252C150.028 230.288 149.895 230.317 149.755 230.34C149.618 230.363 149.47 230.379 149.311 230.389C149.154 230.402 148.98 230.408 148.788 230.408C148.254 230.408 147.792 230.32 147.401 230.145C147.011 229.969 146.687 229.72 146.43 229.397C146.176 229.075 145.987 228.688 145.863 228.235C145.74 227.783 145.678 227.282 145.678 226.731C145.678 226.191 145.748 225.696 145.888 225.247C146.031 224.798 146.239 224.412 146.513 224.09C146.789 223.768 147.131 223.517 147.538 223.338C147.945 223.159 148.412 223.069 148.939 223.069C149.291 223.069 149.626 223.105 149.945 223.177C150.264 223.248 150.552 223.353 150.81 223.489L150.429 224.251C150.224 224.147 150.001 224.057 149.76 223.982C149.519 223.908 149.245 223.87 148.939 223.87ZM154.77 223.87C154.421 223.87 154.105 223.937 153.822 224.07C153.539 224.201 153.297 224.389 153.095 224.637C152.896 224.884 152.742 225.185 152.631 225.54C152.523 225.895 152.47 226.295 152.47 226.741C152.47 227.2 152.517 227.609 152.611 227.967C152.709 228.322 152.854 228.621 153.046 228.865C153.238 229.109 153.477 229.295 153.764 229.422C154.05 229.549 154.385 229.612 154.77 229.612C155.059 229.612 155.334 229.585 155.595 229.529C155.855 229.471 156.112 229.404 156.366 229.329V230.12C156.239 230.169 156.112 230.213 155.985 230.252C155.858 230.288 155.725 230.317 155.585 230.34C155.448 230.363 155.3 230.379 155.141 230.389C154.984 230.402 154.81 230.408 154.618 230.408C154.084 230.408 153.622 230.32 153.231 230.145C152.841 229.969 152.517 229.72 152.26 229.397C152.006 229.075 151.817 228.688 151.693 228.235C151.57 227.783 151.508 227.282 151.508 226.731C151.508 226.191 151.578 225.696 151.718 225.247C151.861 224.798 152.069 224.412 152.343 224.09C152.619 223.768 152.961 223.517 153.368 223.338C153.775 223.159 154.242 223.069 154.77 223.069C155.121 223.069 155.456 223.105 155.775 223.177C156.094 223.248 156.382 223.353 156.64 223.489L156.259 224.251C156.054 224.147 155.831 224.057 155.59 223.982C155.349 223.908 155.076 223.87 154.77 223.87Z" fill="white"/>
<path d="M143 220.811H159V218.811H143V220.811ZM161 222.811V230.811H163V222.811H161ZM159 232.811H143V234.811H159V232.811ZM141 230.811V222.811H139V230.811H141ZM143 232.811C141.895 232.811 141 231.915 141 230.811H139C139 233.02 140.791 234.811 143 234.811V232.811ZM161 230.811C161 231.915 160.105 232.811 159 232.811V234.811C161.209 234.811 163 233.02 163 230.811H161ZM159 220.811C160.105 220.811 161 221.706 161 222.811H163C163 220.601 161.209 218.811 159 218.811V220.811ZM143 218.811C140.791 218.811 139 220.601 139 222.811H141C141 221.706 141.895 220.811 143 220.811V218.811Z" fill="white"/>
<path d="M180.297 225.262C180.297 225.558 180.251 225.843 180.16 226.116C180.072 226.39 179.926 226.632 179.721 226.844C179.516 227.052 179.244 227.22 178.905 227.347C178.57 227.47 178.155 227.532 177.66 227.532H176.928V230.311H176.02V223.172H177.787C178.223 223.172 178.599 223.219 178.915 223.313C179.231 223.405 179.491 223.54 179.696 223.719C179.901 223.895 180.053 224.113 180.15 224.373C180.248 224.633 180.297 224.93 180.297 225.262ZM176.928 226.761H177.558C177.86 226.761 178.124 226.735 178.349 226.683C178.576 226.631 178.764 226.548 178.91 226.434C179.06 226.316 179.172 226.167 179.247 225.984C179.322 225.799 179.359 225.574 179.359 225.311C179.359 224.848 179.226 224.507 178.959 224.285C178.692 224.061 178.275 223.948 177.709 223.948H176.928V226.761ZM184.628 226.541H186.991V230.042C186.812 230.101 186.632 230.153 186.449 230.198C186.267 230.244 186.08 230.281 185.888 230.311C185.696 230.343 185.494 230.368 185.282 230.384C185.071 230.4 184.843 230.408 184.599 230.408C184.088 230.408 183.635 230.324 183.241 230.154C182.847 229.982 182.515 229.738 182.245 229.422C181.975 229.103 181.77 228.717 181.63 228.265C181.49 227.809 181.42 227.298 181.42 226.731C181.42 226.172 181.496 225.665 181.649 225.213C181.806 224.76 182.032 224.376 182.328 224.061C182.624 223.742 182.989 223.497 183.422 223.328C183.858 223.156 184.354 223.069 184.911 223.069C185.272 223.069 185.619 223.105 185.951 223.177C186.283 223.248 186.592 223.353 186.879 223.489L186.527 224.28C186.41 224.225 186.283 224.173 186.146 224.124C186.013 224.075 185.875 224.033 185.731 223.997C185.588 223.958 185.44 223.927 185.287 223.904C185.137 223.882 184.988 223.87 184.838 223.87C184.441 223.87 184.089 223.937 183.783 224.07C183.477 224.201 183.22 224.389 183.012 224.637C182.807 224.884 182.65 225.185 182.543 225.54C182.436 225.895 182.382 226.295 182.382 226.741C182.382 227.164 182.426 227.552 182.514 227.903C182.605 228.255 182.748 228.558 182.943 228.812C183.139 229.065 183.391 229.262 183.7 229.402C184.009 229.542 184.382 229.612 184.818 229.612C184.962 229.612 185.092 229.609 185.209 229.603C185.329 229.593 185.44 229.581 185.541 229.568C185.642 229.555 185.736 229.541 185.824 229.524C185.915 229.505 186.003 229.487 186.088 229.471V227.342H184.628V226.541ZM188.114 228.04V227.22H190.536V228.04H188.114ZM194.408 230.311H193.549V225.853C193.549 225.713 193.549 225.563 193.549 225.403C193.552 225.244 193.555 225.086 193.559 224.93C193.565 224.77 193.57 224.619 193.573 224.476C193.58 224.329 193.585 224.201 193.588 224.09C193.533 224.148 193.484 224.199 193.441 224.241C193.399 224.284 193.355 224.324 193.31 224.363C193.267 224.402 193.222 224.445 193.173 224.49C193.124 224.533 193.065 224.583 192.997 224.642L192.274 225.232L191.806 224.632L193.676 223.172H194.408V230.311ZM201.137 224.842C201.137 225.079 201.099 225.296 201.024 225.491C200.95 225.687 200.844 225.856 200.707 225.999C200.574 226.142 200.412 226.261 200.224 226.355C200.035 226.447 199.825 226.512 199.594 226.551V226.58C200.17 226.652 200.608 226.836 200.907 227.132C201.207 227.425 201.356 227.807 201.356 228.279C201.356 228.592 201.303 228.878 201.195 229.139C201.091 229.399 200.932 229.624 200.717 229.812C200.502 230.001 200.23 230.148 199.901 230.252C199.573 230.356 199.184 230.408 198.734 230.408C198.38 230.408 198.044 230.381 197.729 230.325C197.416 230.27 197.121 230.169 196.845 230.022V229.192C197.128 229.342 197.434 229.458 197.763 229.539C198.095 229.62 198.412 229.661 198.715 229.661C199.014 229.661 199.273 229.629 199.491 229.563C199.709 229.498 199.888 229.406 200.028 229.285C200.172 229.165 200.276 229.017 200.341 228.841C200.409 228.665 200.443 228.468 200.443 228.25C200.443 228.029 200.399 227.84 200.312 227.684C200.227 227.524 200.105 227.394 199.945 227.293C199.786 227.189 199.59 227.112 199.359 227.063C199.132 227.015 198.873 226.99 198.583 226.99H197.934V226.253H198.583C198.847 226.253 199.081 226.22 199.286 226.155C199.491 226.09 199.662 225.997 199.799 225.877C199.939 225.757 200.045 225.613 200.116 225.447C200.188 225.281 200.224 225.099 200.224 224.9C200.224 224.731 200.194 224.58 200.136 224.446C200.077 224.313 199.994 224.201 199.887 224.109C199.779 224.015 199.651 223.943 199.501 223.895C199.351 223.846 199.185 223.821 199.003 223.821C198.655 223.821 198.347 223.877 198.08 223.987C197.816 224.095 197.564 224.236 197.323 224.412L196.874 223.802C196.998 223.701 197.134 223.606 197.284 223.519C197.437 223.431 197.603 223.354 197.782 223.289C197.961 223.221 198.152 223.167 198.354 223.128C198.559 223.089 198.775 223.069 199.003 223.069C199.354 223.069 199.662 223.113 199.926 223.201C200.193 223.289 200.416 223.413 200.595 223.572C200.774 223.729 200.909 223.916 201 224.134C201.091 224.349 201.137 224.585 201.137 224.842Z" fill="white"/>
<path d="M173 220.811H204V218.811H173V220.811ZM206 222.811V230.811H208V222.811H206ZM204 232.811H173V234.811H204V232.811ZM171 230.811V222.811H169V230.811H171ZM173 232.811C171.895 232.811 171 231.915 171 230.811H169C169 233.02 170.791 234.811 173 234.811V232.811ZM206 230.811C206 231.915 205.105 232.811 204 232.811V234.811C206.209 234.811 208 233.02 208 230.811H206ZM204 220.811C205.105 220.811 206 221.706 206 222.811H208C208 220.601 206.209 218.811 204 218.811V220.811ZM173 218.811C170.791 218.811 169 220.601 169 222.811H171C171 221.706 171.895 220.811 173 220.811V218.811Z" fill="white"/>
<circle cx="20.5" cy="250.811" r="1.5" fill="#E1E1E1" fill-opacity="0.5"/>
<path d="M31.4209 246.794C30.9333 246.794 30.4912 246.887 30.0947 247.074C29.6982 247.257 29.3587 247.521 29.0762 247.867C28.7982 248.214 28.5817 248.635 28.4268 249.132C28.2764 249.629 28.2012 250.189 28.2012 250.813C28.2012 251.456 28.2673 252.028 28.3994 252.529C28.5361 253.026 28.7389 253.445 29.0078 253.787C29.2767 254.129 29.6117 254.389 30.0127 254.566C30.4137 254.744 30.8831 254.833 31.4209 254.833C31.8265 254.833 32.2116 254.794 32.5762 254.717C32.9408 254.635 33.3008 254.541 33.6562 254.437V255.544C33.4785 255.612 33.3008 255.674 33.123 255.729C32.9453 255.779 32.7585 255.82 32.5625 255.852C32.3711 255.883 32.1637 255.906 31.9404 255.92C31.7217 255.938 31.4779 255.947 31.209 255.947C30.4616 255.947 29.8145 255.824 29.2676 255.578C28.7207 255.332 28.2673 254.983 27.9072 254.532C27.5518 254.081 27.2874 253.539 27.1143 252.905C26.9411 252.272 26.8545 251.57 26.8545 250.8C26.8545 250.043 26.9525 249.351 27.1484 248.722C27.349 248.093 27.6406 247.553 28.0234 247.102C28.4108 246.65 28.8893 246.299 29.459 246.049C30.0286 245.798 30.6826 245.673 31.4209 245.673C31.9131 245.673 32.3825 245.723 32.8291 245.823C33.2757 245.924 33.679 246.069 34.0391 246.261L33.5059 247.327C33.2188 247.181 32.9066 247.056 32.5693 246.951C32.2321 246.846 31.8493 246.794 31.4209 246.794ZM41.7568 252.044C41.7568 252.668 41.6794 253.224 41.5244 253.712C41.374 254.195 41.1553 254.603 40.8682 254.936C40.5856 255.264 40.2415 255.514 39.8359 255.688C39.4303 255.861 38.9746 255.947 38.4688 255.947C37.9993 255.947 37.5664 255.861 37.1699 255.688C36.7734 255.514 36.4294 255.264 36.1377 254.936C35.8506 254.603 35.625 254.195 35.4609 253.712C35.3014 253.224 35.2217 252.668 35.2217 252.044C35.2217 251.424 35.2969 250.875 35.4473 250.396C35.6022 249.913 35.821 249.508 36.1035 249.18C36.3861 248.847 36.7301 248.596 37.1357 248.428C37.5459 248.255 38.0039 248.168 38.5098 248.168C38.9792 248.168 39.4121 248.255 39.8086 248.428C40.2051 248.596 40.5469 248.847 40.834 249.18C41.1257 249.508 41.3512 249.913 41.5107 250.396C41.6748 250.875 41.7568 251.424 41.7568 252.044ZM36.5068 252.044C36.5068 252.996 36.6618 253.714 36.9717 254.197C37.2861 254.676 37.7943 254.915 38.4961 254.915C39.1979 254.915 39.7015 254.676 40.0068 254.197C40.3167 253.714 40.4717 252.996 40.4717 252.044C40.4717 251.091 40.3145 250.381 40 249.911C39.6901 249.437 39.1842 249.2 38.4824 249.2C37.7806 249.2 37.2747 249.437 36.9648 249.911C36.6595 250.381 36.5068 251.091 36.5068 252.044ZM52.708 255.811V250.978C52.708 250.385 52.5941 249.941 52.3662 249.645C52.1383 249.348 51.7852 249.2 51.3066 249.2C50.974 249.2 50.6914 249.255 50.459 249.364C50.2266 249.469 50.0352 249.626 49.8848 249.836C49.7389 250.041 49.6318 250.299 49.5635 250.608C49.4951 250.914 49.4609 251.267 49.4609 251.668V255.811H48.21V250.978C48.21 250.385 48.096 249.941 47.8682 249.645C47.6449 249.348 47.2939 249.2 46.8154 249.2C46.4645 249.2 46.1706 249.259 45.9336 249.378C45.6966 249.496 45.5052 249.672 45.3594 249.904C45.2181 250.137 45.1156 250.422 45.0518 250.759C44.9925 251.096 44.9629 251.483 44.9629 251.921V255.811H43.7188V248.305H44.7305L44.9082 249.316H44.9766C45.0859 249.12 45.2158 248.952 45.3662 248.811C45.5166 248.665 45.6807 248.544 45.8584 248.448C46.0407 248.353 46.2321 248.282 46.4326 248.236C46.6377 248.191 46.8451 248.168 47.0547 248.168C47.6016 248.168 48.055 248.268 48.415 248.469C48.7796 248.669 49.0485 248.984 49.2217 249.412H49.2764C49.3949 249.198 49.5361 249.013 49.7002 248.858C49.8688 248.703 50.0511 248.576 50.2471 248.476C50.4476 248.371 50.6572 248.293 50.876 248.243C51.0947 248.193 51.318 248.168 51.5459 248.168C52.3434 248.168 52.9427 248.387 53.3438 248.824C53.7493 249.257 53.9521 249.952 53.9521 250.909V255.811H52.708ZM59.2363 255.947C58.735 255.947 58.277 255.863 57.8623 255.694C57.4476 255.526 57.0898 255.28 56.7891 254.956C56.4928 254.632 56.2627 254.231 56.0986 253.753C55.9346 253.274 55.8525 252.728 55.8525 252.112C55.8525 251.493 55.9277 250.939 56.0781 250.451C56.2285 249.964 56.4404 249.551 56.7139 249.214C56.9873 248.872 57.3132 248.612 57.6914 248.435C58.0742 248.257 58.4958 248.168 58.9561 248.168C59.4072 248.168 59.8128 248.25 60.1729 248.414C60.5329 248.574 60.8382 248.801 61.0889 249.098C61.3395 249.389 61.5309 249.743 61.6631 250.157C61.7998 250.567 61.8682 251.023 61.8682 251.524V252.297H57.1377C57.1605 253.176 57.3451 253.824 57.6914 254.238C58.0423 254.653 58.5618 254.86 59.25 254.86C59.4824 254.86 59.6966 254.849 59.8926 254.826C60.0931 254.803 60.2845 254.771 60.4668 254.73C60.6536 254.685 60.8337 254.63 61.0068 254.566C61.18 254.498 61.3555 254.423 61.5332 254.341V255.448C61.3509 255.535 61.1709 255.61 60.9932 255.674C60.82 255.738 60.64 255.79 60.4531 255.831C60.2708 255.872 60.0794 255.902 59.8789 255.92C59.6829 255.938 59.4688 255.947 59.2363 255.947ZM58.9287 249.2C58.4092 249.2 57.9967 249.378 57.6914 249.733C57.3906 250.089 57.2152 250.606 57.165 251.285H60.5283C60.5283 250.975 60.4964 250.693 60.4326 250.438C60.3734 250.178 60.2777 249.957 60.1455 249.774C60.0179 249.592 59.8538 249.451 59.6533 249.351C59.4528 249.25 59.2113 249.2 58.9287 249.2ZM68.3965 254.806H68.3418C68.2415 254.961 68.123 255.109 67.9863 255.25C67.8542 255.387 67.6992 255.507 67.5215 255.612C67.3483 255.717 67.1523 255.799 66.9336 255.858C66.7148 255.918 66.4688 255.947 66.1953 255.947C65.7715 255.947 65.3841 255.865 65.0332 255.701C64.6823 255.537 64.3815 255.293 64.1309 254.97C63.8802 254.642 63.6865 254.236 63.5498 253.753C63.4131 253.27 63.3447 252.709 63.3447 252.071C63.3447 251.429 63.4131 250.866 63.5498 250.383C63.6865 249.895 63.8802 249.487 64.1309 249.159C64.3815 248.831 64.6823 248.585 65.0332 248.421C65.3841 248.252 65.7715 248.168 66.1953 248.168C66.4642 248.168 66.708 248.198 66.9268 248.257C67.1455 248.316 67.3415 248.396 67.5146 248.496C67.6924 248.596 67.8496 248.713 67.9863 248.845C68.123 248.977 68.2415 249.116 68.3418 249.262H68.4238C68.4102 249.107 68.3965 248.959 68.3828 248.817C68.3737 248.699 68.3646 248.578 68.3555 248.455C68.3464 248.327 68.3418 248.227 68.3418 248.154V245.174H69.5859V255.811H68.5811L68.3965 254.806ZM66.4346 254.915C66.7809 254.915 67.0726 254.863 67.3096 254.758C67.5511 254.653 67.7448 254.493 67.8906 254.279C68.041 254.065 68.1504 253.799 68.2188 253.479C68.2917 253.156 68.3327 252.78 68.3418 252.352V252.071C68.3418 251.611 68.3099 251.203 68.2461 250.848C68.1868 250.488 68.082 250.187 67.9316 249.945C67.7858 249.699 67.5898 249.515 67.3438 249.392C67.0977 249.264 66.79 249.2 66.4209 249.2C65.8057 249.2 65.3522 249.449 65.0605 249.945C64.7734 250.442 64.6299 251.155 64.6299 252.085C64.6299 253.037 64.7734 253.748 65.0605 254.218C65.3522 254.683 65.8102 254.915 66.4346 254.915ZM70.8438 248.305H72.1357L73.6055 252.495C73.6693 252.677 73.7331 252.869 73.7969 253.069C73.8652 253.27 73.9268 253.47 73.9814 253.671C74.0407 253.871 74.0908 254.065 74.1318 254.252C74.1729 254.439 74.2025 254.612 74.2207 254.771H74.2617C74.2845 254.658 74.321 254.503 74.3711 254.307C74.4212 254.111 74.4759 253.903 74.5352 253.685C74.599 253.461 74.6628 253.243 74.7266 253.028C74.7949 252.814 74.8542 252.632 74.9043 252.481L76.2646 248.305H77.5498L74.583 256.788C74.4554 257.157 74.3164 257.488 74.166 257.779C74.0202 258.076 73.8493 258.326 73.6533 258.531C73.4574 258.736 73.2272 258.894 72.9629 259.003C72.6986 259.117 72.3841 259.174 72.0195 259.174C71.7826 259.174 71.5775 259.16 71.4043 259.133C71.2311 259.11 71.083 259.085 70.96 259.058V258.066C71.0557 258.089 71.1764 258.107 71.3223 258.121C71.4681 258.139 71.6208 258.148 71.7803 258.148C71.999 258.148 72.1882 258.121 72.3477 258.066C72.5072 258.016 72.6462 257.941 72.7646 257.841C72.8831 257.741 72.9834 257.618 73.0654 257.472C73.152 257.326 73.2295 257.16 73.2979 256.973L73.6875 255.879L70.8438 248.305Z" fill="white"/>
<path d="M343.4 239.75C347.937 239.75 351.65 243.463 351.65 248C351.65 252.538 347.937 256.25 343.4 256.25C338.862 256.25 335.15 252.538 335.15 248C335.15 243.463 338.862 239.75 343.4 239.75ZM343.4 238.375C338.106 238.375 333.775 242.706 333.775 248C333.775 253.294 338.106 257.625 343.4 257.625C348.694 257.625 353.025 253.294 353.025 248C353.025 242.706 348.694 238.375 343.4 238.375Z" fill="white"/>
<path d="M348.9 247.312H344.087V242.5H342.712V247.312H337.9V248.688H342.712V253.5H344.087V248.688H348.9V247.312Z" fill="white"/>
<path d="M375.667 244.276C375.005 243.608 374.316 243.026 373.598 242.532C372.881 242.037 372.209 241.666 371.582 241.419C370.955 241.172 370.381 241.053 369.859 241.063C369.336 241.073 368.929 241.228 368.636 241.529C368.567 241.596 368.508 241.671 368.459 241.755C368.41 241.838 368.375 241.903 368.354 241.95C368.333 241.997 368.306 242.081 368.271 242.201C368.236 242.321 368.212 242.398 368.198 242.432L364.312 254.703L364.552 254.944C364.28 255.124 364.038 255.335 363.826 255.576C363.613 255.816 363.427 256.013 363.267 256.167C363.107 256.321 362.915 256.428 362.692 256.488C362.644 256.501 362.583 256.547 362.51 256.623C362.436 256.7 362.4 256.769 362.4 256.829C362.4 256.949 362.463 257.049 362.588 257.13C362.713 257.21 362.853 257.25 363.006 257.25C363.201 257.25 363.389 257.175 363.57 257.024C363.751 256.874 363.934 256.682 364.118 256.448C364.303 256.214 364.437 256.06 364.521 255.987C364.702 255.833 364.904 255.686 365.126 255.546L365.398 255.796L377.746 251.776C378.017 251.696 378.226 251.575 378.372 251.415C378.665 251.114 378.816 250.698 378.827 250.167C378.837 249.635 378.721 249.05 378.477 248.412C378.233 247.774 377.869 247.092 377.385 246.367C376.901 245.642 376.328 244.945 375.667 244.276ZM374.539 245.369C375.604 246.412 376.414 247.409 376.967 248.362C377.521 249.314 377.655 249.941 377.37 250.242C377.084 250.543 376.461 250.432 375.5 249.911C374.539 249.39 373.529 248.611 372.47 247.575C371.398 246.532 370.585 245.536 370.031 244.587C369.477 243.638 369.343 243.01 369.629 242.702C369.914 242.401 370.539 242.512 371.504 243.033C372.468 243.554 373.48 244.333 374.539 245.369ZM372.251 249.52C372.759 249.954 373.264 250.335 373.766 250.663C373.772 250.676 373.947 250.99 374.288 251.605L373.41 251.896C372.992 251.141 372.606 250.349 372.251 249.52ZM368.689 244.928C368.842 245.256 369.054 245.653 369.326 246.121C369.549 247.084 369.899 248.126 370.376 249.249C370.853 250.372 371.373 251.425 371.937 252.407L371.07 252.688C370.416 251.525 369.845 250.307 369.357 249.034C368.87 247.76 368.57 246.636 368.459 245.66L368.689 244.928ZM367.477 248.598C367.964 250.095 368.65 251.632 369.535 253.21L368.678 253.5C367.989 252.23 367.445 251.037 367.049 249.921L367.477 248.598ZM366.275 252.257C366.547 252.872 366.836 253.457 367.143 254.012L366.286 254.302C366.188 254.122 366.049 253.844 365.868 253.47L366.275 252.257ZM373.954 238L374.476 239.514L373.128 240.456H374.789L375.301 241.97L375.813 240.456H377.464L376.126 239.514L376.649 238.01L375.301 238.942L373.954 238ZM371.029 238L370.747 239.374L372.178 239.644L372.46 238.271L371.029 238ZM380.441 242.131L381.59 240.978L383.084 241.68L382.311 240.276L383.47 239.143L381.83 239.414L381.057 238L380.827 239.584L379.187 239.855L380.681 240.547L380.441 242.131ZM380.054 244.597L381.444 245.479L381.005 247.023L382.3 246.021L383.679 246.903L383.105 245.399L384.4 244.417L382.739 244.487L382.154 242.993L381.726 244.527L380.054 244.597ZM379.459 240.877L376.346 243.324L376.732 243.775L379.845 241.329L379.459 240.877ZM380.545 245.61L378.111 245.399L378.049 245.981L380.493 246.191L380.545 245.61ZM380.785 248.417L380.336 249.761L381.726 250.192L382.185 248.858L380.785 248.417Z" fill="white"/>
<path d="M403.15 243.833C403.656 243.833 404.067 243.423 404.067 242.917C404.067 242.41 403.656 242 403.15 242C402.644 242 402.233 242.41 402.233 242.917C402.233 243.423 402.644 243.833 403.15 243.833Z" fill="white"/>
<path d="M405.747 251.41H404.219V245.055H401.928C401.725 245.055 401.531 245.138 401.388 245.287C401.244 245.436 401.164 245.638 401.164 245.849C401.164 246.06 401.244 246.262 401.388 246.411C401.531 246.56 401.725 246.644 401.928 246.644H402.692V251.41H401.164C400.961 251.41 400.767 251.494 400.624 251.643C400.48 251.792 400.4 251.994 400.4 252.205C400.4 252.415 400.48 252.617 400.624 252.766C400.767 252.915 400.961 252.999 401.164 252.999H405.747C405.95 252.999 406.144 252.915 406.287 252.766C406.431 252.617 406.511 252.415 406.511 252.205C406.511 251.994 406.431 251.792 406.287 251.643C406.144 251.494 405.95 251.41 405.747 251.41Z" fill="white"/>
<path d="M403.025 238C401.121 238 399.26 238.564 397.678 239.622C396.095 240.68 394.861 242.183 394.133 243.942C393.404 245.7 393.213 247.636 393.585 249.503C393.956 251.37 394.873 253.085 396.219 254.431C397.565 255.777 399.28 256.694 401.147 257.065C403.014 257.436 404.949 257.246 406.708 256.517C408.467 255.789 409.97 254.555 411.028 252.972C412.085 251.39 412.65 249.529 412.65 247.625C412.65 245.072 411.636 242.624 409.831 240.819C408.026 239.014 405.578 238 403.025 238ZM403.025 255.646C401.439 255.646 399.888 255.175 398.569 254.294C397.25 253.413 396.222 252.16 395.615 250.694C395.008 249.229 394.849 247.616 395.158 246.06C395.468 244.504 396.232 243.075 397.353 241.953C398.475 240.832 399.904 240.068 401.46 239.758C403.016 239.449 404.629 239.608 406.094 240.215C407.56 240.822 408.813 241.85 409.694 243.169C410.575 244.488 411.046 246.039 411.046 247.625C411.046 248.678 410.838 249.721 410.435 250.694C410.032 251.668 409.441 252.552 408.696 253.297C407.952 254.041 407.067 254.632 406.094 255.035C405.121 255.438 404.078 255.646 403.025 255.646Z" fill="white"/>
<path d="M438.213 250.75C437.698 250.753 437.191 250.871 436.728 251.096C436.265 251.321 435.858 251.647 435.538 252.05L430.513 248.908C430.696 248.317 430.696 247.684 430.513 247.093L435.538 243.951C436.048 244.582 436.766 245.013 437.563 245.167C438.36 245.32 439.186 245.186 439.894 244.789C440.602 244.392 441.147 243.757 441.432 242.997C441.716 242.237 441.723 241.4 441.45 240.636C441.177 239.871 440.642 239.228 439.941 238.819C439.239 238.411 438.415 238.265 437.616 238.406C436.816 238.547 436.092 238.966 435.572 239.59C435.052 240.213 434.77 241.001 434.775 241.813C434.778 242.12 434.825 242.426 434.913 242.72L429.887 245.862C429.443 245.303 428.837 244.897 428.152 244.698C427.467 244.5 426.737 244.52 426.063 244.754C425.39 244.989 424.806 245.428 424.393 246.01C423.98 246.591 423.758 247.287 423.758 248C423.758 248.713 423.98 249.409 424.393 249.991C424.806 250.572 425.39 251.011 426.063 251.246C426.737 251.481 427.467 251.5 428.152 251.302C428.837 251.103 429.443 250.697 429.887 250.138L434.913 253.28C434.825 253.575 434.778 253.88 434.775 254.188C434.775 254.868 434.977 255.532 435.355 256.097C435.732 256.663 436.269 257.103 436.897 257.363C437.525 257.624 438.216 257.692 438.883 257.559C439.55 257.426 440.163 257.099 440.643 256.618C441.124 256.138 441.451 255.525 441.584 254.858C441.717 254.191 441.649 253.5 441.389 252.872C441.128 252.244 440.688 251.707 440.122 251.329C439.557 250.952 438.893 250.75 438.213 250.75ZM438.213 239.75C438.621 239.75 439.019 239.871 439.359 240.098C439.698 240.324 439.962 240.646 440.118 241.023C440.274 241.4 440.315 241.815 440.236 242.215C440.156 242.615 439.96 242.983 439.671 243.271C439.383 243.559 439.015 243.756 438.615 243.836C438.215 243.915 437.8 243.874 437.423 243.718C437.047 243.562 436.724 243.298 436.498 242.959C436.271 242.619 436.15 242.221 436.15 241.813C436.15 241.266 436.367 240.741 436.754 240.354C437.141 239.967 437.666 239.75 438.213 239.75ZM427.213 250.063C426.805 250.063 426.406 249.942 426.067 249.715C425.728 249.488 425.463 249.166 425.307 248.789C425.151 248.413 425.11 247.998 425.19 247.598C425.269 247.198 425.466 246.83 425.754 246.542C426.043 246.253 426.41 246.057 426.81 245.977C427.21 245.898 427.625 245.939 428.002 246.095C428.379 246.251 428.701 246.515 428.928 246.854C429.154 247.193 429.275 247.592 429.275 248C429.275 248.547 429.058 249.072 428.671 249.459C428.284 249.845 427.76 250.063 427.213 250.063ZM438.213 256.25C437.805 256.25 437.406 256.129 437.067 255.903C436.728 255.676 436.463 255.354 436.307 254.977C436.151 254.6 436.11 254.185 436.19 253.785C436.269 253.385 436.466 253.018 436.754 252.729C437.043 252.441 437.41 252.244 437.81 252.165C438.21 252.085 438.625 252.126 439.002 252.282C439.379 252.438 439.701 252.703 439.928 253.042C440.154 253.381 440.275 253.78 440.275 254.188C440.275 254.735 440.058 255.259 439.671 255.646C439.284 256.033 438.76 256.25 438.213 256.25Z" fill="white"/>
<path d="M469.816 238.834H458.147C457.503 238.834 456.88 239.06 456.386 239.472C455.892 239.884 455.558 240.456 455.442 241.089L454.278 247.506C454.206 247.902 454.221 248.31 454.324 248.699C454.426 249.089 454.613 249.452 454.871 249.761C455.129 250.071 455.452 250.32 455.816 250.491C456.181 250.662 456.579 250.751 456.982 250.751H461.162L460.649 252.061C460.436 252.635 460.364 253.253 460.442 253.86C460.519 254.468 460.743 255.047 461.093 255.549C461.444 256.051 461.911 256.461 462.455 256.743C462.999 257.024 463.602 257.17 464.215 257.167C464.391 257.167 464.564 257.116 464.712 257.02C464.86 256.924 464.977 256.787 465.049 256.626L467.662 250.751H469.816C470.545 250.751 471.245 250.461 471.76 249.945C472.276 249.429 472.566 248.73 472.566 248.001V241.584C472.566 240.855 472.276 240.155 471.76 239.639C471.245 239.124 470.545 238.834 469.816 238.834ZM466.149 249.641L463.656 255.251C463.401 255.174 463.164 255.046 462.96 254.874C462.757 254.701 462.591 254.49 462.472 254.251C462.354 254.012 462.285 253.752 462.271 253.485C462.257 253.219 462.298 252.953 462.391 252.703L462.877 251.392C462.98 251.115 463.015 250.817 462.978 250.524C462.942 250.23 462.835 249.95 462.666 249.707C462.498 249.464 462.273 249.265 462.011 249.127C461.749 248.99 461.458 248.918 461.162 248.917H456.982C456.848 248.918 456.715 248.888 456.593 248.831C456.471 248.774 456.363 248.691 456.277 248.587C456.188 248.485 456.124 248.365 456.087 248.235C456.051 248.105 456.043 247.969 456.066 247.836L457.23 241.419C457.269 241.205 457.382 241.013 457.55 240.875C457.718 240.737 457.929 240.664 458.147 240.667H466.149V249.641ZM470.732 248.001C470.732 248.244 470.636 248.477 470.464 248.649C470.292 248.821 470.059 248.917 469.816 248.917H467.982V240.667H469.816C470.059 240.667 470.292 240.764 470.464 240.936C470.636 241.108 470.732 241.341 470.732 241.584V248.001Z" fill="white"/>
</g>
<path d="M247 117C251.747 117 256.387 118.408 260.334 121.045C264.28 123.682 267.357 127.43 269.173 131.816C270.99 136.201 271.465 141.027 270.539 145.682C269.613 150.338 267.327 154.614 263.971 157.971C260.614 161.327 256.338 163.613 251.682 164.539C247.027 165.465 242.201 164.99 237.816 163.173C233.43 161.357 229.682 158.28 227.045 154.334C224.408 150.387 223 145.747 223 141C223 134.635 225.529 128.53 230.029 124.029C234.53 119.529 240.635 117 247 117ZM247 113C241.462 113 236.049 114.642 231.444 117.719C226.839 120.796 223.251 125.169 221.131 130.285C219.012 135.401 218.458 141.031 219.538 146.463C220.618 151.894 223.285 156.883 227.201 160.799C231.117 164.715 236.106 167.382 241.537 168.462C246.969 169.542 252.599 168.988 257.715 166.869C262.831 164.749 267.204 161.161 270.281 156.556C273.358 151.951 275 146.538 275 141C275 133.574 272.05 126.452 266.799 121.201C261.548 115.95 254.426 113 247 113Z" fill="white" fill-opacity="0.6"/>
<path d="M239 155C238.641 155 238.289 154.903 237.98 154.72C237.681 154.543 237.434 154.291 237.262 153.989C237.09 153.688 237 153.347 237 153V129C237 128.653 237.09 128.311 237.262 128.01C237.434 127.708 237.681 127.457 237.98 127.28C238.284 127.104 238.629 127.012 238.98 127.012C239.331 127.012 239.676 127.104 239.98 127.28L261.98 139.28C262.298 139.451 262.563 139.705 262.748 140.015C262.932 140.325 263.03 140.679 263.03 141.04C263.03 141.4 262.932 141.755 262.748 142.064C262.563 142.374 262.298 142.628 261.98 142.8L239.98 154.8C239.676 154.948 239.338 155.017 239 155ZM241 132.36V149.64L256.82 141L241 132.36Z" fill="white" fill-opacity="0.6"/>
<path d="M20 31C20 24.9249 24.9249 20 31 20H53C59.0751 20 64 24.9249 64 31C64 37.0751 59.0751 42 53 42H31C24.9249 42 20 37.0751 20 31Z" fill="white" fill-opacity="0.8"/>
<path fill-rule="evenodd" clip-rule="evenodd" d="M27 27.7191V36H28.3736C28.4165 36 28.5195 35.9753 28.5882 35.8764V33.2397C30.1335 34.3109 32.8807 33.7753 32.8807 30.5206C32.8807 27.5131 30.2193 26.8127 28.4165 28.2135C28.4022 28.0762 28.3221 27.785 28.116 27.7191H27ZM30.6915 29.1199C29.9704 28.4936 28.9888 28.8589 28.5882 29.1199V32.0861C29.6871 32.8112 30.4483 32.3883 30.6915 32.0861C31.0006 31.9543 31.0778 30.9875 31.0778 30.5206C31.1122 29.7955 30.8346 29.2846 30.6915 29.1199Z" fill="#00A8E1"/>
<path d="M34.0396 33.4457V27.8839C34.0396 27.829 34.074 27.7109 34.2113 27.6779H35.2844C35.3417 27.6367 35.499 27.7356 35.6707 28.4607C35.6851 28.5019 35.7308 28.5678 35.7995 28.5019C35.8854 28.4195 36.7009 27.5543 37.5594 27.6367C37.9028 27.6367 37.9887 27.774 37.9887 27.8427V28.9963C37.9744 29.0649 37.9114 29.2022 37.774 29.2022C36.5722 29.1363 35.9569 29.3396 35.7995 29.4494V33.4457C35.7995 33.4869 35.7738 33.5775 35.6707 33.6105H34.1684C34.1255 33.6105 34.0396 33.5775 34.0396 33.4457Z" fill="#00A8E1"/>
<path d="M39.0189 27.6779H40.3066C40.3781 27.6916 40.5212 27.7521 40.5212 27.8839V33.4457C40.5069 33.4869 40.4525 33.5775 40.3495 33.6105H38.9759C38.9187 33.5968 38.7956 33.5446 38.7613 33.4457L38.8042 27.8839C38.8042 27.829 38.8472 27.7109 39.0189 27.6779Z" fill="#00A8E1"/>
<path d="M39.3622 26.7303C39.491 26.7441 39.7915 26.7633 39.9632 26.7303C40.1349 26.6974 40.3209 26.5793 40.3924 26.5243C40.5641 26.3596 40.65 26.1124 40.65 25.8652C40.65 25.5356 40.5641 25.412 40.4354 25.2472C40.3495 25.1785 40.1778 25 39.9632 25H39.3622C39.2049 25.0412 38.8643 25.1483 38.7613 25.412C38.6583 25.6757 38.6755 25.7553 38.6755 25.9064C38.6755 26.0574 38.7579 26.3563 38.933 26.5243C39.1081 26.6924 39.2907 26.7166 39.3622 26.7303Z" fill="#00A8E1"/>
<path d="M43.6547 28.2547C43.6118 28.0899 43.4916 27.7521 43.3542 27.7191C43.2169 27.6861 42.5244 27.7054 42.1953 27.7191C42.138 27.7191 42.0236 27.7521 42.0236 27.8839V33.4457C42.0379 33.4869 42.0922 33.5775 42.1953 33.6105C42.2983 33.6434 43.1539 33.6242 43.5688 33.6105C43.6261 33.5968 43.7577 33.5446 43.8264 33.4457L43.7835 29.161C44.0267 29.0237 44.6248 28.7655 45.0712 28.8315C45.6292 28.8727 45.8009 29.1336 45.8438 29.2846L45.8868 33.4457C45.9011 33.5006 45.9554 33.6105 46.0585 33.6105H47.475C47.5179 33.5968 47.6123 33.5446 47.6467 33.4457V29.161C47.847 29.01 48.3764 28.7243 48.8915 28.7903C49.4066 28.8562 49.6212 29.1748 49.6641 29.3258V33.3633C49.6641 33.432 49.6985 33.5775 49.8358 33.6105H51.3382C51.3811 33.583 51.467 33.4951 51.467 33.3633V29.0787C51.4383 28.5705 51.0549 27.5461 49.75 27.5131C48.4451 27.4801 47.661 27.9938 47.4321 28.2547C47.2747 28.0075 46.7453 27.5131 45.8868 27.5131C45.0283 27.5131 44.041 28.0075 43.6547 28.2547Z" fill="#00A8E1"/>
<path fill-rule="evenodd" clip-rule="evenodd" d="M54.1283 31.0974C54.071 31.8252 54.6605 33.0831 57.4764 32.2921C57.6481 32.2262 57.691 32.4569 57.691 32.5805V33.1985C57.5336 33.4045 56.9098 33.8165 55.6735 33.8165C53.2698 33.8165 52.583 32.2235 52.5401 31.427C52.3827 30.7678 52.3598 29.194 53.5273 28.1723C55.1756 26.9858 56.8182 27.6779 57.4335 28.1723C57.8198 28.5156 58.395 29.4494 57.6052 30.4382C56.8153 31.427 54.9581 31.2896 54.1283 31.0974ZM55.4589 28.7079C54.3944 28.7079 54.1283 29.6417 54.1283 30.1086C54.4574 30.1498 55.21 30.224 55.5877 30.191C55.9654 30.1581 56.203 29.9301 56.2745 29.8202C56.4462 29.4494 56.5235 28.7079 55.4589 28.7079Z" fill="#00A8E1"/>
<path fill-rule="evenodd" clip-rule="evenodd" d="M27 27.7191V36H28.3736C28.4165 36 28.5195 35.9753 28.5882 35.8764V33.2397C30.1335 34.3109 32.8807 33.7753 32.8807 30.5206C32.8807 27.5131 30.2193 26.8127 28.4165 28.2135C28.4022 28.0762 28.3221 27.785 28.116 27.7191H27ZM30.6915 29.1199C29.9704 28.4936 28.9888 28.8589 28.5882 29.1199V32.0861C29.6871 32.8112 30.4483 32.3883 30.6915 32.0861C31.0006 31.9543 31.0778 30.9875 31.0778 30.5206C31.1122 29.7955 30.8346 29.2846 30.6915 29.1199Z" fill="#00A8E1"/>
<defs>
<linearGradient id="paint0_linear" x1="92.75" y1="81.1765" x2="52.8637" y2="38.8258" gradientUnits="userSpaceOnUse">
<stop stop-color="#1B1B1B"/>
<stop offset="1" stop-color="#1B1B1B" stop-opacity="0"/>
</linearGradient>
<linearGradient id="paint1_linear" x1="16.9914" y1="224.27" x2="184.124" y2="224.938" gradientUnits="userSpaceOnUse">
<stop stop-opacity="0"/>
<stop stop-opacity="0"/>
<stop offset="1"/>
</linearGradient>
<clipPath id="clip0">
<rect width="219" height="494" fill="white" transform="translate(494 64) rotate(90)"/>
</clipPath>
<clipPath id="clip1">
<rect width="60.0157" height="15.1496" fill="white" transform="translate(25.9922 139.33)"/>
</clipPath>
</defs>
</svg>
