<svg width="494" height="283" viewBox="0 0 494 283" fill="none" xmlns="http://www.w3.org/2000/svg">
<rect width="106" height="90" transform="translate(404 106) rotate(-90)" fill="url(#paint0_linear)"/>
<path d="M454.822 21.6639C455.814 21.4569 458.507 21.1317 459.262 21.7526C459.706 22.1178 459.262 24.0585 458.285 26.4088C458.241 26.5861 458.25 26.8966 458.641 26.7192C459.129 26.4975 461.127 23.9255 460.994 20.7326C460.905 20.3779 460.579 20.2659 460.505 20.2449C459.262 19.8901 456.732 19.7127 454.689 21.2204C454.547 21.5042 454.719 21.6343 454.822 21.6639Z" fill="white"/>
<path d="M427.03 20.8213C426.971 20.6735 426.959 20.3779 427.385 20.3779C432.624 23.5707 443.501 28.5373 457.486 22.4177C458.285 22.2404 458.378 23.0726 457.93 23.3933C446.165 31.8188 432.668 27.1183 427.03 20.8213Z" fill="white"/>
<path d="M432.019 35.3662C432.019 35.9163 431.952 36.4176 431.818 36.8701C431.688 37.3226 431.493 37.71 431.232 38.0322C430.972 38.3545 430.648 38.6035 430.261 38.7793C429.877 38.9551 429.432 39.043 428.928 39.043C428.397 39.043 427.937 38.9551 427.546 38.7793C427.159 38.6035 426.836 38.3545 426.579 38.0322C426.325 37.71 426.136 37.3226 426.013 36.8701C425.889 36.4144 425.827 35.9098 425.827 35.3564C425.827 34.8031 425.889 34.3018 426.013 33.8525C426.136 33.4001 426.327 33.0143 426.584 32.6953C426.841 32.3763 427.165 32.1305 427.556 31.958C427.946 31.7822 428.407 31.6943 428.938 31.6943C429.442 31.6943 429.885 31.7822 430.266 31.958C430.65 32.1305 430.972 32.3779 431.232 32.7002C431.493 33.0192 431.688 33.4049 431.818 33.8574C431.952 34.3066 432.019 34.8096 432.019 35.3662ZM426.789 35.3662C426.789 35.8122 426.831 36.2142 426.916 36.5723C427.001 36.9271 427.129 37.2298 427.302 37.4805C427.478 37.7279 427.699 37.9183 427.966 38.0518C428.236 38.182 428.557 38.2471 428.928 38.2471C429.299 38.2471 429.618 38.182 429.885 38.0518C430.155 37.9183 430.376 37.7279 430.549 37.4805C430.725 37.2298 430.853 36.9271 430.935 36.5723C431.016 36.2142 431.057 35.8122 431.057 35.3662C431.057 34.917 431.016 34.515 430.935 34.1602C430.853 33.8053 430.726 33.5059 430.554 33.2617C430.381 33.0143 430.161 32.8255 429.895 32.6953C429.628 32.5618 429.309 32.4951 428.938 32.4951C428.566 32.4951 428.246 32.5618 427.976 32.6953C427.705 32.8255 427.482 33.0143 427.307 33.2617C427.131 33.5059 427.001 33.8053 426.916 34.1602C426.831 34.515 426.789 34.917 426.789 35.3662ZM435.808 33.4863C435.902 33.4863 436.008 33.4912 436.125 33.501C436.242 33.5075 436.343 33.5189 436.428 33.5352L436.311 34.3555C436.219 34.3392 436.125 34.3262 436.027 34.3164C435.933 34.3034 435.843 34.2969 435.759 34.2969C435.554 34.2969 435.367 34.3392 435.197 34.4238C435.028 34.5052 434.882 34.624 434.758 34.7803C434.637 34.9333 434.543 35.1188 434.475 35.3369C434.41 35.5518 434.377 35.791 434.377 36.0547V38.9453H433.488V33.584H434.211L434.318 34.5654H434.357C434.439 34.4255 434.525 34.2904 434.616 34.1602C434.711 34.0299 434.815 33.916 434.929 33.8184C435.046 33.7174 435.176 33.6377 435.319 33.5791C435.463 33.5173 435.625 33.4863 435.808 33.4863ZM438.371 38.9453H437.482V33.584H438.371V38.9453ZM437.414 32.1338C437.414 31.9385 437.463 31.7969 437.561 31.709C437.661 31.6211 437.785 31.5771 437.932 31.5771C438.003 31.5771 438.07 31.5885 438.132 31.6113C438.197 31.6309 438.252 31.6634 438.298 31.709C438.347 31.7546 438.384 31.8132 438.41 31.8848C438.439 31.9531 438.454 32.0361 438.454 32.1338C438.454 32.3226 438.402 32.4642 438.298 32.5586C438.197 32.6497 438.075 32.6953 437.932 32.6953C437.785 32.6953 437.661 32.6497 437.561 32.5586C437.463 32.4674 437.414 32.3258 437.414 32.1338ZM444.201 33.584V34.1357L443.239 34.2676C443.33 34.3815 443.407 34.528 443.469 34.707C443.531 34.8828 443.562 35.083 443.562 35.3076C443.562 35.555 443.522 35.7845 443.444 35.9961C443.369 36.2044 443.254 36.3851 443.098 36.5381C442.945 36.6911 442.754 36.8115 442.526 36.8994C442.299 36.984 442.033 37.0264 441.73 37.0264C441.659 37.0264 441.587 37.0264 441.516 37.0264C441.444 37.0231 441.385 37.0166 441.34 37.0068C441.285 37.0394 441.229 37.0768 441.174 37.1191C441.122 37.1582 441.073 37.2038 441.027 37.2559C440.985 37.3079 440.949 37.3665 440.92 37.4316C440.894 37.4967 440.881 37.5684 440.881 37.6465C440.881 37.7344 440.9 37.806 440.939 37.8613C440.979 37.9134 441.031 37.9541 441.096 37.9834C441.164 38.0127 441.244 38.0322 441.335 38.042C441.426 38.0518 441.522 38.0566 441.623 38.0566H442.482C442.785 38.0566 443.041 38.0957 443.249 38.1738C443.457 38.2487 443.627 38.3512 443.757 38.4814C443.89 38.6117 443.986 38.7663 444.045 38.9453C444.104 39.1211 444.133 39.3083 444.133 39.5068C444.133 39.7933 444.079 40.0505 443.972 40.2783C443.868 40.5062 443.706 40.6982 443.488 40.8545C443.27 41.014 442.993 41.1361 442.658 41.2207C442.326 41.3053 441.934 41.3477 441.481 41.3477C441.133 41.3477 440.829 41.3135 440.568 41.2451C440.308 41.1768 440.091 41.0775 439.919 40.9473C439.746 40.8171 439.616 40.6592 439.528 40.4736C439.444 40.2913 439.401 40.0846 439.401 39.8535C439.401 39.6582 439.432 39.4857 439.494 39.3359C439.559 39.1895 439.646 39.0625 439.753 38.9551C439.86 38.8477 439.984 38.7598 440.124 38.6914C440.267 38.623 440.415 38.571 440.568 38.5352C440.432 38.4733 440.319 38.3757 440.231 38.2422C440.144 38.1087 440.1 37.9557 440.1 37.7832C440.1 37.5846 440.152 37.4137 440.256 37.2705C440.36 37.124 440.524 36.9824 440.749 36.8457C440.609 36.7871 440.48 36.7074 440.363 36.6064C440.249 36.5023 440.152 36.3851 440.07 36.2549C439.992 36.1214 439.93 35.9766 439.885 35.8203C439.842 35.6641 439.821 35.5029 439.821 35.3369C439.821 35.0472 439.862 34.7884 439.943 34.5605C440.025 34.3327 440.145 34.139 440.305 33.9795C440.464 33.82 440.663 33.6979 440.9 33.6133C441.138 33.5286 441.415 33.4863 441.73 33.4863C441.851 33.4863 441.975 33.4961 442.102 33.5156C442.232 33.5319 442.341 33.5547 442.429 33.584H444.201ZM440.241 39.8242C440.241 39.9447 440.262 40.057 440.305 40.1611C440.347 40.2653 440.415 40.3548 440.51 40.4297C440.607 40.5046 440.734 40.5632 440.891 40.6055C441.05 40.651 441.247 40.6738 441.481 40.6738C442.087 40.6738 442.539 40.5794 442.839 40.3906C443.142 40.2051 443.293 39.9365 443.293 39.585C443.293 39.4352 443.273 39.3132 443.234 39.2188C443.195 39.1243 443.13 39.0495 443.039 38.9941C442.951 38.9421 442.834 38.9062 442.688 38.8867C442.541 38.8672 442.362 38.8574 442.15 38.8574H441.291C441.177 38.8574 441.058 38.8704 440.935 38.8965C440.811 38.9225 440.697 38.9714 440.593 39.043C440.492 39.1146 440.407 39.2122 440.339 39.3359C440.274 39.4629 440.241 39.6257 440.241 39.8242ZM440.69 35.3076C440.69 35.682 440.778 35.9603 440.954 36.1426C441.13 36.3249 441.379 36.416 441.701 36.416C442.027 36.416 442.272 36.3265 442.438 36.1475C442.608 35.9652 442.692 35.6803 442.692 35.293C442.692 34.8926 442.606 34.598 442.434 34.4092C442.264 34.2204 442.017 34.126 441.691 34.126C441.369 34.126 441.122 34.2236 440.949 34.4189C440.777 34.6143 440.69 34.9105 440.69 35.3076ZM446.145 38.9453H445.256V33.584H446.145V38.9453ZM445.188 32.1338C445.188 31.9385 445.236 31.7969 445.334 31.709C445.435 31.6211 445.559 31.5771 445.705 31.5771C445.777 31.5771 445.843 31.5885 445.905 31.6113C445.97 31.6309 446.026 31.6634 446.071 31.709C446.12 31.7546 446.158 31.8132 446.184 31.8848C446.213 31.9531 446.228 32.0361 446.228 32.1338C446.228 32.3226 446.175 32.4642 446.071 32.5586C445.97 32.6497 445.848 32.6953 445.705 32.6953C445.559 32.6953 445.435 32.6497 445.334 32.5586C445.236 32.4674 445.188 32.3258 445.188 32.1338ZM451.193 38.9453V35.4932C451.193 35.07 451.107 34.7526 450.935 34.541C450.765 34.3294 450.498 34.2236 450.134 34.2236C449.87 34.2236 449.649 34.266 449.47 34.3506C449.291 34.4352 449.146 34.5605 449.035 34.7266C448.928 34.8926 448.85 35.096 448.801 35.3369C448.755 35.5778 448.732 35.8545 448.732 36.167V38.9453H447.844V33.584H448.566L448.693 34.3066H448.742C448.824 34.1667 448.92 34.0462 449.03 33.9453C449.144 33.8411 449.268 33.7549 449.401 33.6865C449.535 33.6182 449.676 33.5677 449.826 33.5352C449.976 33.5026 450.129 33.4863 450.285 33.4863C450.881 33.4863 451.328 33.6426 451.628 33.9551C451.931 34.2643 452.082 34.7607 452.082 35.4443V38.9453H451.193ZM456.755 38.9453L456.574 38.2031H456.535C456.428 38.3496 456.32 38.4766 456.213 38.584C456.105 38.6882 455.988 38.7744 455.861 38.8428C455.734 38.9111 455.593 38.9616 455.437 38.9941C455.28 39.0267 455.1 39.043 454.895 39.043C454.67 39.043 454.463 39.0104 454.274 38.9453C454.086 38.8835 453.921 38.7874 453.781 38.6572C453.645 38.5238 453.537 38.3577 453.459 38.1592C453.381 37.9574 453.342 37.7197 453.342 37.4463C453.342 36.9124 453.529 36.5023 453.903 36.2158C454.281 35.9294 454.854 35.7731 455.622 35.7471L456.521 35.7129V35.376C456.521 35.1579 456.496 34.9756 456.447 34.8291C456.402 34.6826 456.333 34.5654 456.242 34.4775C456.154 34.3864 456.044 34.3213 455.91 34.2822C455.78 34.2432 455.63 34.2236 455.461 34.2236C455.191 34.2236 454.938 34.2627 454.704 34.3408C454.473 34.4189 454.25 34.5133 454.035 34.624L453.723 33.9551C453.964 33.8249 454.232 33.7142 454.528 33.623C454.825 33.5319 455.135 33.4863 455.461 33.4863C455.793 33.4863 456.079 33.5205 456.32 33.5889C456.564 33.654 456.765 33.7598 456.921 33.9063C457.08 34.0495 457.199 34.2334 457.277 34.458C457.355 34.6826 457.395 34.9544 457.395 35.2734V38.9453L456.755 38.9453ZM455.124 38.3252C455.323 38.3252 455.507 38.2943 455.676 38.2324C455.845 38.1706 455.992 38.0778 456.115 37.9541C456.239 37.8271 456.335 37.6693 456.403 37.4805C456.475 37.2884 456.511 37.0638 456.511 36.8066V36.3232L455.812 36.3574C455.52 36.3704 455.274 36.403 455.075 36.4551C454.877 36.5072 454.717 36.5804 454.597 36.6748C454.479 36.766 454.395 36.8783 454.343 37.0117C454.291 37.1419 454.265 37.29 454.265 37.4561C454.265 37.7555 454.343 37.9753 454.499 38.1152C454.659 38.2552 454.867 38.3252 455.124 38.3252ZM459.934 38.9453H459.045V31.3477H459.934V38.9453Z" fill="white"/>
<g clip-path="url(#clip0)">
<rect width="219" height="494" transform="translate(494 64) rotate(90)" fill="url(#paint1_linear)"/>
<path d="M19 146.906C19 141.435 23.4349 137 28.9055 137H83.0945C88.5651 137 93 141.435 93 146.906V146.906C93 152.376 88.5651 156.811 83.0945 156.811H28.9055C23.4349 156.811 19 152.376 19 146.906V146.906Z" fill="#111111" fill-opacity="0.2"/>
<g clip-path="url(#clip1)">
<path d="M36.8511 146.044C36.8511 145.433 36.4178 144.921 35.8436 144.798C36.073 144.415 36.2138 143.973 36.2138 143.495C36.2138 142.089 35.0705 140.945 33.6646 140.945C32.6978 140.945 31.8668 141.491 31.4341 142.286C31.0013 141.491 30.1703 140.945 29.2035 140.945C27.7976 140.945 26.6543 142.089 26.6543 143.495C26.6543 144.069 26.8531 144.595 27.175 145.022C27.0141 145.139 26.8832 145.293 26.7927 145.471C26.7023 145.648 26.6549 145.844 26.6543 146.044V151.142C26.6543 151.845 27.226 152.417 27.9289 152.417H35.5765C36.2795 152.417 36.8511 151.845 36.8511 151.142V149.461L39.4004 150.736V146.274L36.8511 147.549V146.044ZM33.6646 142.22C34.3676 142.22 34.9392 142.792 34.9392 143.495C34.9392 144.197 34.3676 144.769 33.6646 144.769C32.9617 144.769 32.39 144.197 32.39 143.495C32.39 142.792 32.9617 142.22 33.6646 142.22ZM29.2035 142.22C29.9065 142.22 30.4781 142.792 30.4781 143.495C30.4781 144.197 29.9065 144.769 29.2035 144.769C28.5006 144.769 27.9289 144.197 27.9289 143.495C27.9289 142.792 28.5006 142.22 29.2035 142.22ZM27.9289 151.142V146.044H35.5765L35.5778 151.142H27.9289Z" fill="white"/>
<path d="M53.4394 142.566V143.59H50.3667V152.33H49.1035V143.59H46.0307V142.566H53.4394ZM54.8119 152.33V145.16H55.6654L55.8907 146.075C56.5189 145.465 57.2746 145.16 58.1577 145.16V146.212C57.3019 146.212 56.6077 146.515 56.0751 147.12V152.33H54.8119ZM59.0864 150.166C59.0864 148.695 60.056 147.96 61.9952 147.96C62.6188 147.96 63.2425 148.006 63.8661 148.097V147.421C63.8661 146.597 63.222 146.185 61.9337 146.185C61.1963 146.185 60.4406 146.298 59.6668 146.526V145.502C60.4406 145.274 61.1963 145.16 61.9337 145.16C64.0641 145.16 65.1294 145.902 65.1294 147.386V152.33H64.4192L63.9822 151.62C63.2675 152.093 62.4891 152.33 61.6469 152.33C59.9399 152.33 59.0864 151.609 59.0864 150.166ZM61.9952 148.984C60.8981 148.984 60.3496 149.371 60.3496 150.145C60.3496 150.919 60.782 151.306 61.6469 151.306C62.521 151.306 63.2607 151.074 63.8661 150.609V149.121C63.2425 149.03 62.6188 148.984 61.9952 148.984ZM68.5844 145.16V152.33H67.3212V145.16H68.5844ZM68.5844 142.566V143.761H67.3212V142.566H68.5844ZM72.1078 142.566V152.33H70.8446V142.566H72.1078ZM77.188 145.16C79.2274 145.16 80.2471 146.169 80.2471 148.185C80.2471 148.472 80.2266 148.779 80.1856 149.107H75.1532C75.1532 150.573 76.009 151.306 77.7206 151.306C78.5355 151.306 79.2593 151.215 79.892 151.033V152.057C79.2593 152.239 78.49 152.33 77.5841 152.33C75.1214 152.33 73.89 151.108 73.89 148.663C73.89 146.328 74.9893 145.16 77.188 145.16ZM75.1532 148.056H79.0317C79.0044 146.799 78.3898 146.171 77.188 146.171C75.9134 146.171 75.2352 146.799 75.1532 148.056ZM81.9473 152.33V145.16H82.8009L83.0262 146.075C83.6544 145.465 84.4101 145.16 85.2932 145.16V146.212C84.4374 146.212 83.7432 146.515 83.2106 147.12V152.33H81.9473Z" fill="white"/>
</g>
<path d="M28.9055 138.165H83.0945V135.835H28.9055V138.165ZM83.0945 155.646H28.9055V157.976H83.0945V155.646ZM28.9055 155.646C24.0785 155.646 20.1654 151.733 20.1654 146.906H17.8346C17.8346 153.02 22.7912 157.976 28.9055 157.976V155.646ZM91.8346 146.906C91.8346 151.733 87.9215 155.646 83.0945 155.646V157.976C89.2088 157.976 94.1654 153.02 94.1654 146.906H91.8346ZM83.0945 138.165C87.9215 138.165 91.8346 142.078 91.8346 146.906H94.1654C94.1654 140.791 89.2088 135.835 83.0945 135.835V138.165ZM28.9055 135.835C22.7912 135.835 17.8346 140.791 17.8346 146.906H20.1654C20.1654 142.078 24.0785 138.165 28.9055 138.165V135.835Z" fill="white"/>
<path d="M19.3418 168.846H21.9688L23.4629 178.875L27.0957 168.846H29.5859L32.9844 178.484L34.5664 168.846H37.1152L34.4883 182.811H32.0273L28.1895 171.854L24.0684 182.811H21.6367L19.3418 168.846ZM43.0039 172.557C46.1159 172.557 47.6719 174.145 47.6719 177.322C47.6719 177.745 47.6426 178.169 47.584 178.592H40.7773C40.7773 180.037 41.8385 180.76 43.9609 180.76C44.9961 180.76 46.0312 180.662 47.0664 180.467V182.518C46.1615 182.713 45.0612 182.811 43.7656 182.811C40.0482 182.811 38.1895 181.062 38.1895 177.566C38.1895 174.227 39.7943 172.557 43.0039 172.557ZM40.7773 176.795H45.1523V176.717C45.1523 175.298 44.4362 174.588 43.0039 174.588C41.6367 174.588 40.8945 175.324 40.7773 176.795ZM49.6152 182.322V180.174C50.7546 180.63 52.0697 180.857 53.5605 180.857C54.6738 180.857 55.2305 180.499 55.2305 179.783C55.2305 179.1 54.8561 178.758 54.1074 178.758H52.252C50.1686 178.758 49.127 177.732 49.127 175.682C49.127 173.533 50.6471 172.459 53.6875 172.459C54.9766 172.459 56.1908 172.654 57.3301 173.045V175.193C56.1908 174.738 54.9538 174.51 53.6191 174.51C52.2194 174.51 51.5195 174.868 51.5195 175.584C51.5195 176.268 51.9264 176.609 52.7402 176.609H54.4004C56.679 176.609 57.8184 177.635 57.8184 179.686C57.8184 181.834 56.3665 182.908 53.4629 182.908C52.0371 182.908 50.7546 182.713 49.6152 182.322ZM59.4883 170.896H61.4023L61.793 172.557H64.3711V174.607H62.0762V179.324C62.0762 180.281 62.4896 180.76 63.3164 180.76H64.3711V182.811H62.0664C60.3477 182.811 59.4883 181.889 59.4883 180.047V170.896ZM65.2598 172.557H67.8672L69.1953 179.695L71.5684 172.557H73.7852L76.3438 179.695L77.4961 172.557H80.1914L77.5156 182.811H75.084L72.6719 175.535L70.2305 182.811H67.7598L65.2598 172.557ZM83.8633 177.645C83.8633 179.786 84.6934 180.857 86.3535 180.857C88.0137 180.857 88.8438 179.786 88.8438 177.645C88.8438 175.555 88.0137 174.51 86.3535 174.51C84.6934 174.51 83.8633 175.555 83.8633 177.645ZM81.2754 177.684C81.2754 174.246 82.9681 172.527 86.3535 172.527C89.7389 172.527 91.4316 174.246 91.4316 177.684C91.4316 181.115 89.7389 182.83 86.3535 182.83C82.9811 182.83 81.2884 181.115 81.2754 177.684ZM93.3848 182.811V172.557H95.3867L95.709 173.865C96.6074 172.993 97.5579 172.557 98.5605 172.557V174.646C97.597 174.646 96.7344 175.047 95.9727 175.848V182.811H93.3848ZM102.613 168.846V182.811H100.025V168.846H102.613ZM111.559 175.232C111.025 174.881 110.354 174.705 109.547 174.705C107.939 174.705 107.135 175.607 107.135 177.41C107.135 179.552 107.971 180.623 109.645 180.623C110.322 180.623 110.96 180.529 111.559 180.34V175.232ZM114.146 182.195C112.577 182.605 111.044 182.811 109.547 182.811C106.233 182.811 104.576 181.033 104.576 177.479C104.576 174.197 106.197 172.557 109.439 172.557C110.13 172.557 110.836 172.719 111.559 173.045V168.846H114.146V182.195Z" fill="white"/>
<path d="M25.25 197.342L23.4727 200.943L19.5 201.518L22.375 204.322L21.6953 208.279L25.25 206.412L28.8047 208.279L28.125 204.322L31 201.521L27.0273 200.943L25.25 197.342Z" fill="#F39B13"/>
<path d="M37.7715 197.659C38.1543 197.659 38.5143 197.709 38.8516 197.81C39.1934 197.91 39.4919 198.06 39.7471 198.261C40.0068 198.461 40.2119 198.712 40.3623 199.013C40.5127 199.313 40.5879 199.664 40.5879 200.065C40.5879 200.371 40.5423 200.646 40.4512 200.893C40.36 201.139 40.2347 201.362 40.0752 201.562C39.9157 201.758 39.7266 201.936 39.5078 202.096C39.2891 202.251 39.0521 202.392 38.7969 202.52C39.0612 202.661 39.3187 202.818 39.5693 202.991C39.8245 203.164 40.0501 203.36 40.2461 203.579C40.4466 203.793 40.6061 204.035 40.7246 204.304C40.8477 204.573 40.9092 204.873 40.9092 205.206C40.9092 205.625 40.8317 206.006 40.6768 206.348C40.5264 206.685 40.3122 206.972 40.0342 207.209C39.7607 207.446 39.4303 207.628 39.043 207.756C38.6602 207.883 38.2363 207.947 37.7715 207.947C37.2702 207.947 36.8236 207.886 36.4316 207.763C36.0443 207.64 35.7161 207.464 35.4473 207.236C35.1829 207.004 34.9801 206.721 34.8389 206.389C34.7021 206.056 34.6338 205.68 34.6338 205.261C34.6338 204.919 34.6839 204.611 34.7842 204.338C34.889 204.064 35.028 203.818 35.2012 203.6C35.3743 203.381 35.5794 203.187 35.8164 203.019C36.0534 202.85 36.304 202.702 36.5684 202.574C36.3451 202.433 36.1354 202.28 35.9395 202.116C35.7435 201.948 35.5726 201.761 35.4268 201.556C35.2855 201.351 35.1715 201.125 35.085 200.879C35.0029 200.628 34.9619 200.353 34.9619 200.052C34.9619 199.655 35.0371 199.309 35.1875 199.013C35.3424 198.712 35.5498 198.461 35.8096 198.261C36.0693 198.06 36.3678 197.91 36.7051 197.81C37.0469 197.709 37.4023 197.659 37.7715 197.659ZM35.8574 205.274C35.8574 205.516 35.8939 205.739 35.9668 205.944C36.0397 206.145 36.1536 206.318 36.3086 206.464C36.4635 206.605 36.6595 206.717 36.8965 206.799C37.1335 206.876 37.416 206.915 37.7441 206.915C38.0632 206.915 38.3434 206.876 38.585 206.799C38.8311 206.717 39.0361 206.603 39.2002 206.457C39.3643 206.307 39.4873 206.127 39.5693 205.917C39.6514 205.707 39.6924 205.475 39.6924 205.22C39.6924 204.983 39.6468 204.769 39.5557 204.577C39.4691 204.386 39.3415 204.208 39.1729 204.044C39.0088 203.88 38.8105 203.725 38.5781 203.579C38.3457 203.433 38.0859 203.29 37.7988 203.148L37.5938 203.053C37.0195 203.326 36.5866 203.641 36.2949 203.996C36.0033 204.347 35.8574 204.773 35.8574 205.274ZM37.7578 198.698C37.2747 198.698 36.8896 198.819 36.6025 199.061C36.32 199.302 36.1787 199.653 36.1787 200.113C36.1787 200.373 36.2174 200.596 36.2949 200.783C36.377 200.97 36.4886 201.136 36.6299 201.282C36.7712 201.428 36.9398 201.56 37.1357 201.679C37.3363 201.793 37.5527 201.904 37.7852 202.014C38.0039 201.913 38.209 201.804 38.4004 201.686C38.5964 201.567 38.765 201.433 38.9062 201.282C39.0521 201.132 39.166 200.961 39.248 200.77C39.3301 200.578 39.3711 200.359 39.3711 200.113C39.3711 199.653 39.2275 199.302 38.9404 199.061C38.6533 198.819 38.2591 198.698 37.7578 198.698ZM42.625 207.052C42.625 206.879 42.6478 206.733 42.6934 206.614C42.7389 206.491 42.8005 206.393 42.8779 206.32C42.9554 206.243 43.0465 206.188 43.1514 206.156C43.2562 206.12 43.3701 206.102 43.4932 206.102C43.6117 206.102 43.7233 206.12 43.8281 206.156C43.9375 206.188 44.0309 206.243 44.1084 206.32C44.1859 206.393 44.2474 206.491 44.293 206.614C44.3385 206.733 44.3613 206.879 44.3613 207.052C44.3613 207.22 44.3385 207.366 44.293 207.489C44.2474 207.608 44.1859 207.706 44.1084 207.783C44.0309 207.861 43.9375 207.918 43.8281 207.954C43.7233 207.991 43.6117 208.009 43.4932 208.009C43.3701 208.009 43.2562 207.991 43.1514 207.954C43.0465 207.918 42.9554 207.861 42.8779 207.783C42.8005 207.706 42.7389 207.608 42.6934 207.489C42.6478 207.366 42.625 207.22 42.625 207.052ZM52.2705 207.811H46.0361V206.744L48.4287 204.14C48.7705 203.771 49.0758 203.433 49.3447 203.128C49.6136 202.823 49.8415 202.524 50.0283 202.232C50.2197 201.941 50.3656 201.649 50.4658 201.357C50.5661 201.061 50.6162 200.74 50.6162 200.394C50.6162 200.125 50.5775 199.888 50.5 199.683C50.4225 199.478 50.3109 199.304 50.165 199.163C50.0238 199.017 49.8551 198.908 49.6592 198.835C49.4632 198.762 49.2445 198.726 49.0029 198.726C48.57 198.726 48.1781 198.814 47.8271 198.992C47.4808 199.165 47.1504 199.389 46.8359 199.662L46.1387 198.849C46.321 198.685 46.5169 198.532 46.7266 198.391C46.9362 198.245 47.1618 198.119 47.4033 198.015C47.6449 197.91 47.9001 197.828 48.1689 197.769C48.4378 197.705 48.7204 197.673 49.0166 197.673C49.4541 197.673 49.8483 197.734 50.1992 197.857C50.5547 197.98 50.8555 198.158 51.1016 198.391C51.3477 198.618 51.5368 198.899 51.6689 199.231C51.8057 199.56 51.874 199.931 51.874 200.346C51.874 200.733 51.8125 201.102 51.6895 201.453C51.571 201.804 51.4046 202.15 51.1904 202.492C50.9808 202.829 50.7279 203.169 50.4316 203.511C50.14 203.853 49.8232 204.208 49.4814 204.577L47.5605 206.621V206.676H52.2705V207.811Z" fill="white"/>
<path d="M58.1523 198.035V207.811H56.8877V198.035H58.1523ZM60.6885 207.811V198.035H62.2949L65.8838 206.19L69.4043 198.035H70.9424V207.811H69.8145V199.792L66.3418 207.811H65.3438L61.8164 199.792V207.811H60.6885ZM76.8213 206.785C79.2139 206.785 80.4102 205.409 80.4102 202.656C80.4102 200.259 79.2139 199.061 76.8213 199.061H74.5312V206.785H76.8213ZM73.2666 207.811V198.035H76.8213C80.057 198.035 81.6748 199.576 81.6748 202.656C81.6748 206.092 80.057 207.811 76.8213 207.811H73.2666ZM84.6484 206.56C85.0632 206.692 85.5667 206.758 86.1592 206.758C87.7542 206.758 88.5518 205.849 88.5518 204.03C88.5518 202.494 87.8294 201.727 86.3848 201.727C85.7285 201.727 85.1497 201.85 84.6484 202.096V206.56ZM83.3838 198.035H84.6484V200.975C85.1908 200.747 85.7718 200.633 86.3916 200.633C88.6611 200.633 89.7959 201.781 89.7959 204.078C89.7959 206.566 88.6042 207.811 86.2207 207.811C85.1908 207.811 84.2451 207.713 83.3838 207.517V198.035Z" fill="white"/>
<path d="M24.585 231.811H22.4727V226.027C22.4727 225.909 22.4727 225.768 22.4727 225.604C22.4772 225.435 22.4818 225.262 22.4863 225.084C22.4954 224.902 22.5023 224.719 22.5068 224.537C22.516 224.355 22.5228 224.188 22.5273 224.038C22.5046 224.065 22.4658 224.106 22.4111 224.161C22.3564 224.216 22.2949 224.277 22.2266 224.346C22.1582 224.41 22.0876 224.476 22.0146 224.544C21.9417 224.612 21.8711 224.674 21.8027 224.729L20.6543 225.651L19.6289 224.38L22.8486 221.816H24.585V231.811ZM38.0723 231.811H35.9873V227.347C35.9873 226.795 35.9007 226.383 35.7275 226.109C35.5589 225.831 35.2969 225.692 34.9414 225.692C34.6725 225.692 34.4469 225.747 34.2646 225.856C34.0824 225.966 33.9365 226.128 33.8271 226.342C33.7178 226.556 33.6403 226.82 33.5947 227.135C33.5492 227.449 33.5264 227.809 33.5264 228.215V231.811H31.4414V221.174H33.5264V223.341C33.5264 223.532 33.5218 223.735 33.5127 223.949C33.5036 224.159 33.4922 224.353 33.4785 224.53C33.4603 224.74 33.4443 224.945 33.4307 225.146H33.54C33.7633 224.749 34.0482 224.464 34.3945 224.291C34.7409 224.113 35.1328 224.024 35.5703 224.024C35.9486 224.024 36.2904 224.079 36.5957 224.188C36.9056 224.293 37.1699 224.46 37.3887 224.688C37.6074 224.915 37.776 225.207 37.8945 225.562C38.013 225.913 38.0723 226.335 38.0723 226.827V231.811ZM44.2041 224.024C44.2588 224.024 44.318 224.027 44.3818 224.031C44.4502 224.031 44.514 224.036 44.5732 224.045C44.637 224.049 44.694 224.056 44.7441 224.065C44.7988 224.07 44.8398 224.077 44.8672 224.086V226.041C44.8307 226.032 44.7806 226.023 44.7168 226.014C44.653 226.005 44.5846 225.998 44.5117 225.993C44.4434 225.984 44.375 225.979 44.3066 225.979C44.2383 225.975 44.1813 225.973 44.1357 225.973C43.8669 225.973 43.6185 226.007 43.3906 226.075C43.1673 226.144 42.9736 226.255 42.8096 226.41C42.6501 226.561 42.5247 226.761 42.4336 227.012C42.347 227.258 42.3037 227.561 42.3037 227.921V231.811H40.2188V224.168H41.7979L42.1055 225.316H42.208C42.3174 225.12 42.4359 224.943 42.5635 224.783C42.6911 224.624 42.8324 224.489 42.9873 224.38C43.1468 224.266 43.3245 224.179 43.5205 224.12C43.721 224.056 43.9489 224.024 44.2041 224.024ZM56.2627 229.739H55.0596V231.811H53.002V229.739H48.873V228.27L53.1182 221.816H55.0596V228.099H56.2627V229.739ZM53.002 228.099V226.403C53.002 226.344 53.002 226.26 53.002 226.15C53.0065 226.036 53.0111 225.909 53.0156 225.768C53.0202 225.626 53.0247 225.48 53.0293 225.33C53.0384 225.18 53.0452 225.036 53.0498 224.899C53.0589 224.763 53.0658 224.644 53.0703 224.544C53.0794 224.439 53.0863 224.364 53.0908 224.318H53.0293C52.9473 224.51 52.8538 224.713 52.749 224.927C52.6488 225.141 52.5326 225.355 52.4004 225.569L50.7324 228.099H53.002ZM60.6445 225.426C61.0729 225.426 61.4717 225.492 61.8408 225.624C62.21 225.756 62.5312 225.95 62.8047 226.205C63.0781 226.46 63.2923 226.779 63.4473 227.162C63.6022 227.54 63.6797 227.976 63.6797 228.468C63.6797 229.01 63.5954 229.498 63.4268 229.931C63.2581 230.359 63.0098 230.724 62.6816 231.024C62.3535 231.321 61.9456 231.549 61.458 231.708C60.9749 231.868 60.4189 231.947 59.79 231.947C59.5394 231.947 59.291 231.936 59.0449 231.913C58.7988 231.89 58.5618 231.856 58.334 231.811C58.1107 231.77 57.8965 231.715 57.6914 231.646C57.4909 231.578 57.3086 231.498 57.1445 231.407V229.582C57.304 229.673 57.4886 229.76 57.6982 229.842C57.9079 229.919 58.1243 229.988 58.3477 230.047C58.5755 230.102 58.8034 230.147 59.0312 230.184C59.2591 230.215 59.4756 230.231 59.6807 230.231C60.2913 230.231 60.7562 230.106 61.0752 229.855C61.3942 229.6 61.5537 229.197 61.5537 228.646C61.5537 228.153 61.3965 227.78 61.082 227.524C60.7721 227.265 60.2913 227.135 59.6396 227.135C59.5212 227.135 59.3936 227.142 59.2568 227.155C59.1247 227.169 58.9925 227.187 58.8604 227.21C58.7327 227.233 58.6097 227.258 58.4912 227.285C58.3727 227.308 58.2702 227.333 58.1836 227.36L57.3428 226.909L57.7188 221.816H62.9961V223.607H59.5508L59.3867 225.569C59.5326 225.537 59.7012 225.506 59.8926 225.474C60.0885 225.442 60.3392 225.426 60.6445 225.426ZM75.5605 231.811H73.4756V227.347C73.4756 226.795 73.3936 226.383 73.2295 226.109C73.0654 225.831 72.8079 225.692 72.457 225.692C72.1927 225.692 71.9717 225.747 71.7939 225.856C71.6208 225.966 71.4818 226.128 71.377 226.342C71.2721 226.556 71.1969 226.82 71.1514 227.135C71.1058 227.449 71.083 227.809 71.083 228.215V231.811H68.998V224.168H70.5908L70.8711 225.146H70.9873C71.0967 224.95 71.2266 224.781 71.377 224.64C71.5319 224.498 71.7005 224.382 71.8828 224.291C72.0651 224.2 72.2588 224.134 72.4639 224.093C72.6689 224.047 72.8763 224.024 73.0859 224.024C73.61 224.024 74.0544 224.116 74.4189 224.298C74.7881 224.476 75.0706 224.758 75.2666 225.146H75.4375C75.5469 224.95 75.679 224.781 75.834 224.64C75.9889 224.498 76.1598 224.382 76.3467 224.291C76.5335 224.2 76.7295 224.134 76.9346 224.093C77.1442 224.047 77.3538 224.024 77.5635 224.024C78.3838 224.024 79.0013 224.248 79.416 224.694C79.8353 225.136 80.0449 225.847 80.0449 226.827V231.811H77.9531V227.347C77.9531 226.795 77.8711 226.383 77.707 226.109C77.543 225.831 77.2855 225.692 76.9346 225.692C76.4378 225.692 76.0846 225.891 75.875 226.287C75.6654 226.679 75.5605 227.242 75.5605 227.976V231.811ZM82.1025 222.192C82.1025 221.996 82.1322 221.835 82.1914 221.707C82.2507 221.575 82.3304 221.47 82.4307 221.393C82.5355 221.311 82.6562 221.254 82.793 221.222C82.9342 221.19 83.0824 221.174 83.2373 221.174C83.3923 221.174 83.5381 221.19 83.6748 221.222C83.8115 221.254 83.93 221.311 84.0303 221.393C84.1351 221.47 84.2171 221.575 84.2764 221.707C84.3402 221.835 84.3721 221.996 84.3721 222.192C84.3721 222.384 84.3402 222.546 84.2764 222.678C84.2171 222.81 84.1351 222.917 84.0303 222.999C83.93 223.076 83.8115 223.133 83.6748 223.17C83.5381 223.202 83.3923 223.218 83.2373 223.218C83.0824 223.218 82.9342 223.202 82.793 223.17C82.6562 223.133 82.5355 223.076 82.4307 222.999C82.3304 222.917 82.2507 222.81 82.1914 222.678C82.1322 222.546 82.1025 222.384 82.1025 222.192ZM84.2764 231.811H82.1914V224.168H84.2764V231.811ZM93.1016 231.811H91.0166V227.347C91.0166 226.795 90.9323 226.383 90.7637 226.109C90.5996 225.831 90.3353 225.692 89.9707 225.692C89.6973 225.692 89.4694 225.747 89.2871 225.856C89.1048 225.966 88.959 226.128 88.8496 226.342C88.7448 226.556 88.6696 226.82 88.624 227.135C88.5785 227.449 88.5557 227.809 88.5557 228.215V231.811H86.4707V224.168H88.0635L88.3438 225.146H88.46C88.5693 224.95 88.7015 224.781 88.8564 224.64C89.016 224.498 89.1891 224.382 89.376 224.291C89.5628 224.2 89.7611 224.134 89.9707 224.093C90.1803 224.047 90.3945 224.024 90.6133 224.024C90.987 224.024 91.3265 224.079 91.6318 224.188C91.9372 224.293 92.1992 224.46 92.418 224.688C92.6367 224.915 92.8053 225.207 92.9238 225.562C93.0423 225.913 93.1016 226.335 93.1016 226.827V231.811Z" fill="white"/>
<path d="M110.267 231.811H103.561V230.341L105.912 227.805C106.208 227.486 106.477 227.192 106.719 226.923C106.96 226.654 107.168 226.392 107.341 226.137C107.514 225.882 107.648 225.622 107.744 225.357C107.84 225.093 107.888 224.808 107.888 224.503C107.888 224.166 107.785 223.904 107.58 223.717C107.38 223.53 107.108 223.437 106.767 223.437C106.407 223.437 106.06 223.525 105.728 223.703C105.395 223.881 105.046 224.134 104.682 224.462L103.533 223.102C103.738 222.915 103.952 222.737 104.176 222.568C104.399 222.395 104.645 222.243 104.914 222.11C105.183 221.978 105.479 221.873 105.803 221.796C106.126 221.714 106.489 221.673 106.89 221.673C107.368 221.673 107.797 221.739 108.175 221.871C108.558 222.003 108.883 222.192 109.152 222.438C109.421 222.68 109.626 222.974 109.768 223.32C109.913 223.667 109.986 224.056 109.986 224.489C109.986 224.881 109.918 225.257 109.781 225.617C109.645 225.973 109.458 226.324 109.221 226.67C108.984 227.012 108.708 227.354 108.394 227.695C108.084 228.033 107.751 228.377 107.396 228.728L106.192 229.938V230.033H110.267V231.811ZM117.991 226.813C117.991 227.62 117.927 228.34 117.8 228.974C117.677 229.607 117.476 230.145 117.198 230.587C116.925 231.029 116.569 231.366 116.132 231.599C115.699 231.831 115.175 231.947 114.56 231.947C113.981 231.947 113.477 231.831 113.049 231.599C112.62 231.366 112.265 231.029 111.982 230.587C111.7 230.145 111.488 229.607 111.347 228.974C111.21 228.34 111.142 227.62 111.142 226.813C111.142 226.007 111.203 225.285 111.326 224.646C111.454 224.008 111.654 223.468 111.928 223.026C112.201 222.584 112.554 222.247 112.987 222.015C113.42 221.778 113.944 221.659 114.56 221.659C115.134 221.659 115.635 221.775 116.063 222.008C116.492 222.24 116.85 222.577 117.137 223.02C117.424 223.462 117.638 224.002 117.779 224.64C117.921 225.278 117.991 226.002 117.991 226.813ZM113.247 226.813C113.247 227.953 113.345 228.81 113.541 229.384C113.737 229.958 114.076 230.245 114.56 230.245C115.034 230.245 115.373 229.96 115.578 229.391C115.788 228.821 115.893 227.962 115.893 226.813C115.893 225.67 115.788 224.811 115.578 224.236C115.373 223.658 115.034 223.368 114.56 223.368C114.318 223.368 114.113 223.441 113.944 223.587C113.78 223.733 113.646 223.949 113.541 224.236C113.436 224.523 113.361 224.883 113.315 225.316C113.27 225.745 113.247 226.244 113.247 226.813ZM124.007 231.811H121.895V226.027C121.895 225.909 121.895 225.768 121.895 225.604C121.899 225.435 121.904 225.262 121.908 225.084C121.917 224.902 121.924 224.719 121.929 224.537C121.938 224.355 121.945 224.188 121.949 224.038C121.926 224.065 121.888 224.106 121.833 224.161C121.778 224.216 121.717 224.277 121.648 224.346C121.58 224.41 121.509 224.476 121.437 224.544C121.364 224.612 121.293 224.674 121.225 224.729L120.076 225.651L119.051 224.38L122.271 221.816H124.007V231.811ZM133.55 229.739H132.347V231.811H130.289V229.739H126.16V228.27L130.405 221.816H132.347V228.099H133.55V229.739ZM130.289 228.099V226.403C130.289 226.344 130.289 226.26 130.289 226.15C130.294 226.036 130.298 225.909 130.303 225.768C130.307 225.626 130.312 225.48 130.316 225.33C130.326 225.18 130.332 225.036 130.337 224.899C130.346 224.763 130.353 224.644 130.357 224.544C130.367 224.439 130.373 224.364 130.378 224.318H130.316C130.234 224.51 130.141 224.713 130.036 224.927C129.936 225.141 129.82 225.355 129.688 225.569L128.02 228.099H130.289Z" fill="white"/>
<path d="M150.939 223.87C150.591 223.87 150.275 223.937 149.992 224.07C149.709 224.201 149.466 224.389 149.265 224.637C149.066 224.884 148.911 225.185 148.801 225.54C148.693 225.895 148.64 226.295 148.64 226.741C148.64 227.2 148.687 227.609 148.781 227.967C148.879 228.322 149.024 228.621 149.216 228.865C149.408 229.109 149.647 229.295 149.934 229.422C150.22 229.549 150.555 229.612 150.939 229.612C151.229 229.612 151.504 229.585 151.765 229.529C152.025 229.471 152.282 229.404 152.536 229.329V230.12C152.409 230.169 152.282 230.213 152.155 230.252C152.028 230.288 151.895 230.317 151.755 230.34C151.618 230.363 151.47 230.379 151.311 230.389C151.154 230.402 150.98 230.408 150.788 230.408C150.254 230.408 149.792 230.32 149.401 230.145C149.011 229.969 148.687 229.72 148.43 229.397C148.176 229.075 147.987 228.688 147.863 228.235C147.74 227.783 147.678 227.282 147.678 226.731C147.678 226.191 147.748 225.696 147.888 225.247C148.031 224.798 148.239 224.412 148.513 224.09C148.789 223.768 149.131 223.517 149.538 223.338C149.945 223.159 150.412 223.069 150.939 223.069C151.291 223.069 151.626 223.105 151.945 223.177C152.264 223.248 152.552 223.353 152.81 223.489L152.429 224.251C152.224 224.147 152.001 224.057 151.76 223.982C151.519 223.908 151.245 223.87 150.939 223.87ZM156.77 223.87C156.421 223.87 156.105 223.937 155.822 224.07C155.539 224.201 155.297 224.389 155.095 224.637C154.896 224.884 154.742 225.185 154.631 225.54C154.523 225.895 154.47 226.295 154.47 226.741C154.47 227.2 154.517 227.609 154.611 227.967C154.709 228.322 154.854 228.621 155.046 228.865C155.238 229.109 155.477 229.295 155.764 229.422C156.05 229.549 156.385 229.612 156.77 229.612C157.059 229.612 157.334 229.585 157.595 229.529C157.855 229.471 158.112 229.404 158.366 229.329V230.12C158.239 230.169 158.112 230.213 157.985 230.252C157.858 230.288 157.725 230.317 157.585 230.34C157.448 230.363 157.3 230.379 157.141 230.389C156.984 230.402 156.81 230.408 156.618 230.408C156.084 230.408 155.622 230.32 155.231 230.145C154.841 229.969 154.517 229.72 154.26 229.397C154.006 229.075 153.817 228.688 153.693 228.235C153.57 227.783 153.508 227.282 153.508 226.731C153.508 226.191 153.578 225.696 153.718 225.247C153.861 224.798 154.069 224.412 154.343 224.09C154.619 223.768 154.961 223.517 155.368 223.338C155.775 223.159 156.242 223.069 156.77 223.069C157.121 223.069 157.456 223.105 157.775 223.177C158.094 223.248 158.382 223.353 158.64 223.489L158.259 224.251C158.054 224.147 157.831 224.057 157.59 223.982C157.349 223.908 157.076 223.87 156.77 223.87Z" fill="white"/>
<path d="M145 220.811H161V218.811H145V220.811ZM163 222.811V230.811H165V222.811H163ZM161 232.811H145V234.811H161V232.811ZM143 230.811V222.811H141V230.811H143ZM145 232.811C143.895 232.811 143 231.915 143 230.811H141C141 233.02 142.791 234.811 145 234.811V232.811ZM163 230.811C163 231.915 162.105 232.811 161 232.811V234.811C163.209 234.811 165 233.02 165 230.811H163ZM161 220.811C162.105 220.811 163 221.706 163 222.811H165C165 220.601 163.209 218.811 161 218.811V220.811ZM145 218.811C142.791 218.811 141 220.601 141 222.811H143C143 221.706 143.895 220.811 145 220.811V218.811Z" fill="white"/>
<path d="M182.297 225.262C182.297 225.558 182.251 225.843 182.16 226.116C182.072 226.39 181.926 226.632 181.721 226.844C181.516 227.052 181.244 227.22 180.905 227.347C180.57 227.47 180.155 227.532 179.66 227.532H178.928V230.311H178.02V223.172H179.787C180.223 223.172 180.599 223.219 180.915 223.313C181.231 223.405 181.491 223.54 181.696 223.719C181.901 223.895 182.053 224.113 182.15 224.373C182.248 224.633 182.297 224.93 182.297 225.262ZM178.928 226.761H179.558C179.86 226.761 180.124 226.735 180.349 226.683C180.576 226.631 180.764 226.548 180.91 226.434C181.06 226.316 181.172 226.167 181.247 225.984C181.322 225.799 181.359 225.574 181.359 225.311C181.359 224.848 181.226 224.507 180.959 224.285C180.692 224.061 180.275 223.948 179.709 223.948H178.928V226.761ZM186.628 226.541H188.991V230.042C188.812 230.101 188.632 230.153 188.449 230.198C188.267 230.244 188.08 230.281 187.888 230.311C187.696 230.343 187.494 230.368 187.282 230.384C187.071 230.4 186.843 230.408 186.599 230.408C186.088 230.408 185.635 230.324 185.241 230.154C184.847 229.982 184.515 229.738 184.245 229.422C183.975 229.103 183.77 228.717 183.63 228.265C183.49 227.809 183.42 227.298 183.42 226.731C183.42 226.172 183.496 225.665 183.649 225.213C183.806 224.76 184.032 224.376 184.328 224.061C184.624 223.742 184.989 223.497 185.422 223.328C185.858 223.156 186.354 223.069 186.911 223.069C187.272 223.069 187.619 223.105 187.951 223.177C188.283 223.248 188.592 223.353 188.879 223.489L188.527 224.28C188.41 224.225 188.283 224.173 188.146 224.124C188.013 224.075 187.875 224.033 187.731 223.997C187.588 223.958 187.44 223.927 187.287 223.904C187.137 223.882 186.988 223.87 186.838 223.87C186.441 223.87 186.089 223.937 185.783 224.07C185.477 224.201 185.22 224.389 185.012 224.637C184.807 224.884 184.65 225.185 184.543 225.54C184.436 225.895 184.382 226.295 184.382 226.741C184.382 227.164 184.426 227.552 184.514 227.903C184.605 228.255 184.748 228.558 184.943 228.812C185.139 229.065 185.391 229.262 185.7 229.402C186.009 229.542 186.382 229.612 186.818 229.612C186.962 229.612 187.092 229.609 187.209 229.603C187.329 229.593 187.44 229.581 187.541 229.568C187.642 229.555 187.736 229.541 187.824 229.524C187.915 229.505 188.003 229.487 188.088 229.471V227.342H186.628V226.541ZM190.114 228.04V227.22H192.536V228.04H190.114ZM196.408 230.311H195.549V225.853C195.549 225.713 195.549 225.563 195.549 225.403C195.552 225.244 195.555 225.086 195.559 224.93C195.565 224.77 195.57 224.619 195.573 224.476C195.58 224.329 195.585 224.201 195.588 224.09C195.533 224.148 195.484 224.199 195.441 224.241C195.399 224.284 195.355 224.324 195.31 224.363C195.267 224.402 195.222 224.445 195.173 224.49C195.124 224.533 195.065 224.583 194.997 224.642L194.274 225.232L193.806 224.632L195.676 223.172H196.408V230.311ZM203.137 224.842C203.137 225.079 203.099 225.296 203.024 225.491C202.95 225.687 202.844 225.856 202.707 225.999C202.574 226.142 202.412 226.261 202.224 226.355C202.035 226.447 201.825 226.512 201.594 226.551V226.58C202.17 226.652 202.608 226.836 202.907 227.132C203.207 227.425 203.356 227.807 203.356 228.279C203.356 228.592 203.303 228.878 203.195 229.139C203.091 229.399 202.932 229.624 202.717 229.812C202.502 230.001 202.23 230.148 201.901 230.252C201.573 230.356 201.184 230.408 200.734 230.408C200.38 230.408 200.044 230.381 199.729 230.325C199.416 230.27 199.121 230.169 198.845 230.022V229.192C199.128 229.342 199.434 229.458 199.763 229.539C200.095 229.62 200.412 229.661 200.715 229.661C201.014 229.661 201.273 229.629 201.491 229.563C201.709 229.498 201.888 229.406 202.028 229.285C202.172 229.165 202.276 229.017 202.341 228.841C202.409 228.665 202.443 228.468 202.443 228.25C202.443 228.029 202.399 227.84 202.312 227.684C202.227 227.524 202.105 227.394 201.945 227.293C201.786 227.189 201.59 227.112 201.359 227.063C201.132 227.015 200.873 226.99 200.583 226.99H199.934V226.253H200.583C200.847 226.253 201.081 226.22 201.286 226.155C201.491 226.09 201.662 225.997 201.799 225.877C201.939 225.757 202.045 225.613 202.116 225.447C202.188 225.281 202.224 225.099 202.224 224.9C202.224 224.731 202.194 224.58 202.136 224.446C202.077 224.313 201.994 224.201 201.887 224.109C201.779 224.015 201.651 223.943 201.501 223.895C201.351 223.846 201.185 223.821 201.003 223.821C200.655 223.821 200.347 223.877 200.08 223.987C199.816 224.095 199.564 224.236 199.323 224.412L198.874 223.802C198.998 223.701 199.134 223.606 199.284 223.519C199.437 223.431 199.603 223.354 199.782 223.289C199.961 223.221 200.152 223.167 200.354 223.128C200.559 223.089 200.775 223.069 201.003 223.069C201.354 223.069 201.662 223.113 201.926 223.201C202.193 223.289 202.416 223.413 202.595 223.572C202.774 223.729 202.909 223.916 203 224.134C203.091 224.349 203.137 224.585 203.137 224.842Z" fill="white"/>
<path d="M175 220.811H206V218.811H175V220.811ZM208 222.811V230.811H210V222.811H208ZM206 232.811H175V234.811H206V232.811ZM173 230.811V222.811H171V230.811H173ZM175 232.811C173.895 232.811 173 231.915 173 230.811H171C171 233.02 172.791 234.811 175 234.811V232.811ZM208 230.811C208 231.915 207.105 232.811 206 232.811V234.811C208.209 234.811 210 233.02 210 230.811H208ZM206 220.811C207.105 220.811 208 221.706 208 222.811H210C210 220.601 208.209 218.811 206 218.811V220.811ZM175 218.811C172.791 218.811 171 220.601 171 222.811H173C173 221.706 173.895 220.811 175 220.811V218.811Z" fill="white"/>
<circle cx="20.5" cy="250.811" r="1.5" fill="#E1E1E1" fill-opacity="0.5"/>
<path d="M33.2119 255.811L32.1182 252.714H28.3926L27.2852 255.811H26L29.6709 245.775H30.833L34.5107 255.811H33.2119ZM31.7148 251.586L30.7031 248.688C30.6758 248.605 30.6416 248.505 30.6006 248.387C30.5641 248.268 30.5254 248.141 30.4844 248.004C30.4434 247.867 30.4023 247.726 30.3613 247.58C30.3203 247.43 30.2816 247.284 30.2451 247.143C30.2132 247.284 30.1768 247.43 30.1357 247.58C30.0947 247.73 30.0537 247.876 30.0127 248.018C29.9717 248.154 29.9307 248.282 29.8896 248.4C29.8532 248.514 29.8213 248.61 29.7939 248.688L28.8027 251.586H31.7148ZM38.5781 255.947C38.1178 255.947 37.6872 255.877 37.2861 255.735C36.8851 255.59 36.5365 255.362 36.2402 255.052C35.944 254.737 35.7116 254.339 35.543 253.855C35.3743 253.368 35.29 252.782 35.29 252.099C35.29 251.383 35.3766 250.777 35.5498 250.28C35.723 249.779 35.96 249.373 36.2607 249.063C36.5661 248.749 36.9215 248.521 37.3271 248.38C37.7327 248.239 38.168 248.168 38.6328 248.168C38.9883 248.168 39.3346 248.207 39.6719 248.284C40.0137 248.362 40.2985 248.457 40.5264 248.571L40.1572 249.624C40.0524 249.578 39.9362 249.535 39.8086 249.494C39.681 249.449 39.5488 249.41 39.4121 249.378C39.2754 249.341 39.141 249.314 39.0088 249.296C38.8766 249.273 38.7513 249.262 38.6328 249.262C37.9173 249.262 37.3955 249.492 37.0674 249.952C36.7393 250.408 36.5752 251.119 36.5752 252.085C36.5752 253.047 36.7393 253.751 37.0674 254.197C37.4001 254.639 37.9036 254.86 38.5781 254.86C38.9473 254.86 39.2799 254.819 39.5762 254.737C39.877 254.651 40.1504 254.55 40.3965 254.437V255.544C40.1504 255.676 39.8861 255.776 39.6035 255.845C39.3255 255.913 38.9837 255.947 38.5781 255.947ZM44.457 254.929C44.5391 254.929 44.6302 254.924 44.7305 254.915C44.8353 254.906 44.9355 254.895 45.0312 254.881C45.127 254.867 45.2135 254.851 45.291 254.833C45.373 254.815 45.4346 254.799 45.4756 254.785V255.729C45.4163 255.756 45.3411 255.783 45.25 255.811C45.1589 255.838 45.0586 255.861 44.9492 255.879C44.8398 255.902 44.7259 255.918 44.6074 255.927C44.4889 255.94 44.3727 255.947 44.2588 255.947C43.9762 255.947 43.7142 255.911 43.4727 255.838C43.2311 255.765 43.0215 255.64 42.8438 255.462C42.6706 255.284 42.5339 255.045 42.4336 254.744C42.3333 254.439 42.2832 254.056 42.2832 253.596V249.241H41.2236V248.688L42.2832 248.154L42.8164 246.582H43.5342V248.305H45.4209V249.241H43.5342V253.596C43.5342 254.038 43.6048 254.37 43.7461 254.594C43.8919 254.817 44.1289 254.929 44.457 254.929ZM48.1758 255.811H46.9316V248.305H48.1758V255.811ZM46.8359 246.274C46.8359 246.001 46.9043 245.803 47.041 245.68C47.1823 245.557 47.3555 245.495 47.5605 245.495C47.6608 245.495 47.7542 245.511 47.8408 245.543C47.932 245.57 48.0094 245.616 48.0732 245.68C48.1416 245.743 48.194 245.826 48.2305 245.926C48.2715 246.021 48.292 246.138 48.292 246.274C48.292 246.539 48.2191 246.737 48.0732 246.869C47.932 246.997 47.7611 247.061 47.5605 247.061C47.3555 247.061 47.1823 246.997 47.041 246.869C46.9043 246.742 46.8359 246.543 46.8359 246.274ZM56.6729 252.044C56.6729 252.668 56.5954 253.224 56.4404 253.712C56.29 254.195 56.0713 254.603 55.7842 254.936C55.5016 255.264 55.1576 255.514 54.752 255.688C54.3464 255.861 53.8906 255.947 53.3848 255.947C52.9154 255.947 52.4824 255.861 52.0859 255.688C51.6895 255.514 51.3454 255.264 51.0537 254.936C50.7666 254.603 50.541 254.195 50.377 253.712C50.2174 253.224 50.1377 252.668 50.1377 252.044C50.1377 251.424 50.2129 250.875 50.3633 250.396C50.5182 249.913 50.737 249.508 51.0195 249.18C51.3021 248.847 51.6462 248.596 52.0518 248.428C52.4619 248.255 52.9199 248.168 53.4258 248.168C53.8952 248.168 54.3281 248.255 54.7246 248.428C55.1211 248.596 55.4629 248.847 55.75 249.18C56.0417 249.508 56.2673 249.913 56.4268 250.396C56.5908 250.875 56.6729 251.424 56.6729 252.044ZM51.4229 252.044C51.4229 252.996 51.5778 253.714 51.8877 254.197C52.2021 254.676 52.7103 254.915 53.4121 254.915C54.1139 254.915 54.6175 254.676 54.9229 254.197C55.2327 253.714 55.3877 252.996 55.3877 252.044C55.3877 251.091 55.2305 250.381 54.916 249.911C54.6061 249.437 54.1003 249.2 53.3984 249.2C52.6966 249.2 52.1908 249.437 51.8809 249.911C51.5755 250.381 51.4229 251.091 51.4229 252.044ZM63.3242 255.811V250.978C63.3242 250.385 63.2035 249.941 62.9619 249.645C62.7249 249.348 62.3512 249.2 61.8408 249.2C61.4717 249.2 61.1618 249.259 60.9111 249.378C60.6605 249.496 60.4577 249.672 60.3027 249.904C60.1523 250.137 60.043 250.422 59.9746 250.759C59.9108 251.096 59.8789 251.483 59.8789 251.921V255.811H58.6348V248.305H59.6465L59.8242 249.316H59.8926C60.0065 249.12 60.141 248.952 60.2959 248.811C60.4554 248.665 60.6286 248.544 60.8154 248.448C61.0023 248.353 61.2005 248.282 61.4102 248.236C61.6198 248.191 61.834 248.168 62.0527 248.168C62.8867 248.168 63.5133 248.387 63.9326 248.824C64.3564 249.257 64.5684 249.952 64.5684 250.909V255.811H63.3242Z" fill="white"/>
<g clip-path="url(#clip2)">
<circle cx="77.5" cy="250.811" r="1.5" fill="#E1E1E1" fill-opacity="0.5"/>
<path d="M89.624 253.138C89.624 253.58 89.5443 253.976 89.3848 254.327C89.2298 254.674 89.0065 254.967 88.7148 255.209C88.4232 255.451 88.0677 255.635 87.6484 255.763C87.2292 255.886 86.7575 255.947 86.2334 255.947C85.7275 255.947 85.2536 255.906 84.8115 255.824C84.374 255.747 84.0072 255.631 83.7109 255.476V254.259C83.8659 254.332 84.0413 254.405 84.2373 254.478C84.4378 254.546 84.6475 254.607 84.8662 254.662C85.085 254.717 85.3105 254.762 85.543 254.799C85.7754 254.831 86.0055 254.847 86.2334 254.847C86.9626 254.847 87.5003 254.71 87.8467 254.437C88.1976 254.163 88.373 253.771 88.373 253.261C88.373 253.015 88.3389 252.8 88.2705 252.618C88.2067 252.436 88.0905 252.27 87.9219 252.119C87.7578 251.964 87.5368 251.816 87.2588 251.675C86.9808 251.529 86.6299 251.372 86.2061 251.203C85.8005 251.044 85.4473 250.87 85.1465 250.684C84.8503 250.492 84.6042 250.278 84.4082 250.041C84.2168 249.804 84.0732 249.535 83.9775 249.234C83.8864 248.934 83.8408 248.592 83.8408 248.209C83.8408 247.808 83.9137 247.45 84.0596 247.136C84.2054 246.821 84.4105 246.557 84.6748 246.343C84.9391 246.124 85.2536 245.958 85.6182 245.844C85.9873 245.73 86.3929 245.673 86.835 245.673C87.3773 245.673 87.8649 245.725 88.2979 245.83C88.7308 245.93 89.1159 246.06 89.4531 246.22L88.9951 247.286C88.6989 247.154 88.3617 247.04 87.9834 246.944C87.6097 246.844 87.2223 246.794 86.8213 246.794C86.2653 246.794 85.8346 246.924 85.5293 247.184C85.224 247.439 85.0713 247.785 85.0713 248.223C85.0713 248.482 85.1055 248.708 85.1738 248.899C85.2422 249.086 85.3561 249.257 85.5156 249.412C85.6751 249.562 85.8848 249.706 86.1445 249.843C86.4089 249.975 86.7324 250.116 87.1152 250.267C87.5299 250.431 87.8923 250.599 88.2021 250.772C88.5166 250.946 88.7786 251.142 88.9883 251.36C89.1979 251.579 89.3551 251.832 89.46 252.119C89.5693 252.406 89.624 252.746 89.624 253.138ZM96.3232 255.811L96.1387 254.806H96.0703C95.9564 255.002 95.8197 255.173 95.6602 255.318C95.5052 255.46 95.3343 255.578 95.1475 255.674C94.9606 255.765 94.7624 255.833 94.5527 255.879C94.3431 255.924 94.1289 255.947 93.9102 255.947C93.4954 255.947 93.1309 255.895 92.8164 255.79C92.502 255.685 92.2399 255.521 92.0303 255.298C91.8206 255.075 91.6611 254.79 91.5518 254.443C91.4469 254.097 91.3945 253.685 91.3945 253.206V248.305H92.6387V253.138C92.6387 253.73 92.7594 254.174 93.001 254.471C93.2425 254.767 93.6162 254.915 94.1221 254.915C94.4912 254.915 94.8011 254.856 95.0518 254.737C95.3024 254.619 95.5029 254.446 95.6533 254.218C95.8083 253.985 95.9176 253.701 95.9814 253.363C96.0498 253.026 96.084 252.639 96.084 252.201V248.305H97.3281V255.811H96.3232ZM104.198 253.753C104.198 254.118 104.132 254.437 104 254.71C103.868 254.983 103.676 255.214 103.426 255.4C103.18 255.583 102.881 255.719 102.53 255.811C102.179 255.902 101.785 255.947 101.348 255.947C100.851 255.947 100.425 255.906 100.069 255.824C99.7139 255.747 99.4017 255.631 99.1328 255.476V254.341C99.2741 254.414 99.4313 254.487 99.6045 254.56C99.7777 254.628 99.96 254.689 100.151 254.744C100.343 254.799 100.539 254.844 100.739 254.881C100.944 254.913 101.147 254.929 101.348 254.929C101.644 254.929 101.895 254.904 102.1 254.854C102.309 254.803 102.478 254.733 102.605 254.642C102.738 254.546 102.833 254.432 102.893 254.3C102.952 254.163 102.981 254.013 102.981 253.849C102.981 253.707 102.959 253.58 102.913 253.466C102.868 253.352 102.783 253.24 102.66 253.131C102.542 253.017 102.378 252.903 102.168 252.789C101.958 252.675 101.689 252.548 101.361 252.406C101.033 252.265 100.737 252.126 100.473 251.989C100.213 251.853 99.9919 251.7 99.8096 251.531C99.6273 251.363 99.486 251.169 99.3857 250.95C99.29 250.727 99.2422 250.463 99.2422 250.157C99.2422 249.838 99.3037 249.556 99.4268 249.31C99.5544 249.059 99.7321 248.849 99.96 248.681C100.188 248.512 100.461 248.384 100.78 248.298C101.099 248.211 101.455 248.168 101.847 248.168C102.289 248.168 102.692 248.216 103.057 248.312C103.426 248.407 103.774 248.533 104.103 248.688L103.672 249.692C103.376 249.56 103.07 249.446 102.756 249.351C102.446 249.25 102.129 249.2 101.806 249.2C101.341 249.2 100.997 249.278 100.773 249.433C100.55 249.583 100.438 249.799 100.438 250.082C100.438 250.242 100.464 250.381 100.514 250.499C100.568 250.618 100.66 250.729 100.787 250.834C100.915 250.939 101.086 251.046 101.3 251.155C101.514 251.26 101.781 251.379 102.1 251.511C102.428 251.647 102.719 251.784 102.975 251.921C103.234 252.058 103.455 252.213 103.638 252.386C103.82 252.554 103.959 252.748 104.055 252.967C104.15 253.186 104.198 253.448 104.198 253.753ZM109.414 255.947C109.145 255.947 108.901 255.918 108.683 255.858C108.464 255.799 108.266 255.722 108.088 255.626C107.915 255.526 107.76 255.41 107.623 255.277C107.491 255.145 107.372 255.006 107.268 254.86H107.186C107.199 255.015 107.213 255.163 107.227 255.305C107.236 255.423 107.245 255.546 107.254 255.674C107.263 255.797 107.268 255.895 107.268 255.968V259.174H106.023V248.305H107.035L107.213 249.316H107.268C107.372 249.157 107.491 249.009 107.623 248.872C107.755 248.731 107.908 248.61 108.081 248.51C108.259 248.405 108.457 248.323 108.676 248.264C108.895 248.2 109.141 248.168 109.414 248.168C109.842 248.168 110.232 248.25 110.583 248.414C110.934 248.578 111.232 248.824 111.479 249.152C111.729 249.476 111.923 249.879 112.06 250.362C112.196 250.845 112.265 251.406 112.265 252.044C112.265 252.687 112.196 253.252 112.06 253.739C111.923 254.222 111.729 254.628 111.479 254.956C111.232 255.284 110.934 255.533 110.583 255.701C110.232 255.865 109.842 255.947 109.414 255.947ZM109.175 249.2C108.828 249.2 108.535 249.253 108.293 249.357C108.056 249.462 107.862 249.622 107.712 249.836C107.566 250.05 107.457 250.317 107.384 250.636C107.315 250.955 107.277 251.331 107.268 251.764V252.044C107.268 252.504 107.297 252.914 107.356 253.274C107.42 253.63 107.525 253.931 107.671 254.177C107.821 254.418 108.02 254.603 108.266 254.73C108.512 254.854 108.819 254.915 109.188 254.915C109.804 254.915 110.255 254.667 110.542 254.17C110.834 253.673 110.979 252.96 110.979 252.03C110.979 251.082 110.834 250.374 110.542 249.904C110.255 249.435 109.799 249.2 109.175 249.2ZM117.193 255.947C116.692 255.947 116.234 255.863 115.819 255.694C115.405 255.526 115.047 255.28 114.746 254.956C114.45 254.632 114.22 254.231 114.056 253.753C113.892 253.274 113.81 252.728 113.81 252.112C113.81 251.493 113.885 250.939 114.035 250.451C114.186 249.964 114.397 249.551 114.671 249.214C114.944 248.872 115.27 248.612 115.648 248.435C116.031 248.257 116.453 248.168 116.913 248.168C117.364 248.168 117.77 248.25 118.13 248.414C118.49 248.574 118.795 248.801 119.046 249.098C119.297 249.389 119.488 249.743 119.62 250.157C119.757 250.567 119.825 251.023 119.825 251.524V252.297H115.095C115.118 253.176 115.302 253.824 115.648 254.238C115.999 254.653 116.519 254.86 117.207 254.86C117.439 254.86 117.654 254.849 117.85 254.826C118.05 254.803 118.242 254.771 118.424 254.73C118.611 254.685 118.791 254.63 118.964 254.566C119.137 254.498 119.312 254.423 119.49 254.341V255.448C119.308 255.535 119.128 255.61 118.95 255.674C118.777 255.738 118.597 255.79 118.41 255.831C118.228 255.872 118.036 255.902 117.836 255.92C117.64 255.938 117.426 255.947 117.193 255.947ZM116.886 249.2C116.366 249.2 115.954 249.378 115.648 249.733C115.348 250.089 115.172 250.606 115.122 251.285H118.485C118.485 250.975 118.453 250.693 118.39 250.438C118.33 250.178 118.235 249.957 118.103 249.774C117.975 249.592 117.811 249.451 117.61 249.351C117.41 249.25 117.168 249.2 116.886 249.2ZM126.408 255.811V250.978C126.408 250.385 126.287 249.941 126.046 249.645C125.809 249.348 125.435 249.2 124.925 249.2C124.556 249.2 124.246 249.259 123.995 249.378C123.744 249.496 123.542 249.672 123.387 249.904C123.236 250.137 123.127 250.422 123.059 250.759C122.995 251.096 122.963 251.483 122.963 251.921V255.811H121.719V248.305H122.73L122.908 249.316H122.977C123.09 249.12 123.225 248.952 123.38 248.811C123.539 248.665 123.713 248.544 123.899 248.448C124.086 248.353 124.285 248.282 124.494 248.236C124.704 248.191 124.918 248.168 125.137 248.168C125.971 248.168 126.597 248.387 127.017 248.824C127.44 249.257 127.652 249.952 127.652 250.909V255.811H126.408ZM134.454 253.753C134.454 254.118 134.388 254.437 134.256 254.71C134.124 254.983 133.932 255.214 133.682 255.4C133.436 255.583 133.137 255.719 132.786 255.811C132.435 255.902 132.041 255.947 131.604 255.947C131.107 255.947 130.681 255.906 130.325 255.824C129.97 255.747 129.658 255.631 129.389 255.476V254.341C129.53 254.414 129.687 254.487 129.86 254.56C130.034 254.628 130.216 254.689 130.407 254.744C130.599 254.799 130.795 254.844 130.995 254.881C131.2 254.913 131.403 254.929 131.604 254.929C131.9 254.929 132.15 254.904 132.355 254.854C132.565 254.803 132.734 254.733 132.861 254.642C132.993 254.546 133.089 254.432 133.148 254.3C133.208 254.163 133.237 254.013 133.237 253.849C133.237 253.707 133.215 253.58 133.169 253.466C133.123 253.352 133.039 253.24 132.916 253.131C132.798 253.017 132.633 252.903 132.424 252.789C132.214 252.675 131.945 252.548 131.617 252.406C131.289 252.265 130.993 252.126 130.729 251.989C130.469 251.853 130.248 251.7 130.065 251.531C129.883 251.363 129.742 251.169 129.642 250.95C129.546 250.727 129.498 250.463 129.498 250.157C129.498 249.838 129.56 249.556 129.683 249.31C129.81 249.059 129.988 248.849 130.216 248.681C130.444 248.512 130.717 248.384 131.036 248.298C131.355 248.211 131.711 248.168 132.103 248.168C132.545 248.168 132.948 248.216 133.312 248.312C133.682 248.407 134.03 248.533 134.358 248.688L133.928 249.692C133.632 249.56 133.326 249.446 133.012 249.351C132.702 249.25 132.385 249.2 132.062 249.2C131.597 249.2 131.253 249.278 131.029 249.433C130.806 249.583 130.694 249.799 130.694 250.082C130.694 250.242 130.719 250.381 130.77 250.499C130.824 250.618 130.915 250.729 131.043 250.834C131.171 250.939 131.341 251.046 131.556 251.155C131.77 251.26 132.036 251.379 132.355 251.511C132.684 251.647 132.975 251.784 133.23 251.921C133.49 252.058 133.711 252.213 133.894 252.386C134.076 252.554 134.215 252.748 134.311 252.967C134.406 253.186 134.454 253.448 134.454 253.753ZM139.246 255.947C138.745 255.947 138.287 255.863 137.872 255.694C137.457 255.526 137.1 255.28 136.799 254.956C136.503 254.632 136.272 254.231 136.108 253.753C135.944 253.274 135.862 252.728 135.862 252.112C135.862 251.493 135.938 250.939 136.088 250.451C136.238 249.964 136.45 249.551 136.724 249.214C136.997 248.872 137.323 248.612 137.701 248.435C138.084 248.257 138.506 248.168 138.966 248.168C139.417 248.168 139.823 248.25 140.183 248.414C140.543 248.574 140.848 248.801 141.099 249.098C141.349 249.389 141.541 249.743 141.673 250.157C141.81 250.567 141.878 251.023 141.878 251.524V252.297H137.147C137.17 253.176 137.355 253.824 137.701 254.238C138.052 254.653 138.572 254.86 139.26 254.86C139.492 254.86 139.706 254.849 139.902 254.826C140.103 254.803 140.294 254.771 140.477 254.73C140.663 254.685 140.843 254.63 141.017 254.566C141.19 254.498 141.365 254.423 141.543 254.341V255.448C141.361 255.535 141.181 255.61 141.003 255.674C140.83 255.738 140.65 255.79 140.463 255.831C140.281 255.872 140.089 255.902 139.889 255.92C139.693 255.938 139.479 255.947 139.246 255.947ZM138.938 249.2C138.419 249.2 138.007 249.378 137.701 249.733C137.4 250.089 137.225 250.606 137.175 251.285H140.538C140.538 250.975 140.506 250.693 140.442 250.438C140.383 250.178 140.287 249.957 140.155 249.774C140.028 249.592 139.864 249.451 139.663 249.351C139.463 249.25 139.221 249.2 138.938 249.2Z" fill="white"/>
</g>
<path d="M343.4 239.75C347.937 239.75 351.65 243.463 351.65 248C351.65 252.538 347.937 256.25 343.4 256.25C338.862 256.25 335.15 252.538 335.15 248C335.15 243.463 338.862 239.75 343.4 239.75ZM343.4 238.375C338.106 238.375 333.775 242.706 333.775 248C333.775 253.294 338.106 257.625 343.4 257.625C348.694 257.625 353.025 253.294 353.025 248C353.025 242.706 348.694 238.375 343.4 238.375Z" fill="white"/>
<path d="M348.9 247.312H344.087V242.5H342.712V247.312H337.9V248.688H342.712V253.5H344.087V248.688H348.9V247.312Z" fill="white"/>
<path d="M375.667 244.276C375.005 243.608 374.316 243.026 373.598 242.532C372.881 242.037 372.209 241.666 371.582 241.419C370.955 241.172 370.381 241.053 369.859 241.063C369.336 241.073 368.929 241.228 368.636 241.529C368.567 241.596 368.508 241.671 368.459 241.755C368.41 241.838 368.375 241.903 368.354 241.95C368.333 241.997 368.306 242.081 368.271 242.201C368.236 242.321 368.212 242.398 368.198 242.432L364.312 254.703L364.552 254.944C364.28 255.124 364.038 255.335 363.826 255.576C363.613 255.816 363.427 256.013 363.267 256.167C363.107 256.321 362.915 256.428 362.692 256.488C362.644 256.501 362.583 256.547 362.51 256.623C362.436 256.7 362.4 256.769 362.4 256.829C362.4 256.949 362.463 257.049 362.588 257.13C362.713 257.21 362.853 257.25 363.006 257.25C363.201 257.25 363.389 257.175 363.57 257.024C363.751 256.874 363.934 256.682 364.118 256.448C364.303 256.214 364.437 256.06 364.521 255.987C364.702 255.833 364.904 255.686 365.126 255.546L365.398 255.796L377.746 251.776C378.017 251.696 378.226 251.575 378.372 251.415C378.665 251.114 378.816 250.698 378.827 250.167C378.837 249.635 378.721 249.05 378.477 248.412C378.233 247.774 377.869 247.092 377.385 246.367C376.901 245.642 376.328 244.945 375.667 244.276ZM374.539 245.369C375.604 246.412 376.414 247.409 376.967 248.362C377.521 249.314 377.655 249.941 377.37 250.242C377.084 250.543 376.461 250.432 375.5 249.911C374.539 249.39 373.529 248.611 372.47 247.575C371.398 246.532 370.585 245.536 370.031 244.587C369.477 243.638 369.343 243.01 369.629 242.702C369.914 242.401 370.539 242.512 371.504 243.033C372.468 243.554 373.48 244.333 374.539 245.369ZM372.251 249.52C372.759 249.954 373.264 250.335 373.766 250.663C373.772 250.676 373.947 250.99 374.288 251.605L373.41 251.896C372.992 251.141 372.606 250.349 372.251 249.52ZM368.689 244.928C368.842 245.256 369.054 245.653 369.326 246.121C369.549 247.084 369.899 248.126 370.376 249.249C370.853 250.372 371.373 251.425 371.937 252.407L371.07 252.688C370.416 251.525 369.845 250.307 369.357 249.034C368.87 247.76 368.57 246.636 368.459 245.66L368.689 244.928ZM367.477 248.598C367.964 250.095 368.65 251.632 369.535 253.21L368.678 253.5C367.989 252.23 367.445 251.037 367.049 249.921L367.477 248.598ZM366.275 252.257C366.547 252.872 366.836 253.457 367.143 254.012L366.286 254.302C366.188 254.122 366.049 253.844 365.868 253.47L366.275 252.257ZM373.954 238L374.476 239.514L373.128 240.456H374.789L375.301 241.97L375.813 240.456H377.464L376.126 239.514L376.649 238.01L375.301 238.942L373.954 238ZM371.029 238L370.747 239.374L372.178 239.644L372.46 238.271L371.029 238ZM380.441 242.131L381.59 240.978L383.084 241.68L382.311 240.276L383.47 239.143L381.83 239.414L381.057 238L380.827 239.584L379.187 239.855L380.681 240.547L380.441 242.131ZM380.054 244.597L381.444 245.479L381.005 247.023L382.3 246.021L383.679 246.903L383.105 245.399L384.4 244.417L382.739 244.487L382.154 242.993L381.726 244.527L380.054 244.597ZM379.459 240.877L376.346 243.324L376.732 243.775L379.845 241.329L379.459 240.877ZM380.545 245.61L378.111 245.399L378.049 245.981L380.493 246.191L380.545 245.61ZM380.785 248.417L380.336 249.761L381.726 250.192L382.185 248.858L380.785 248.417Z" fill="white"/>
<path d="M403.15 243.833C403.656 243.833 404.067 243.423 404.067 242.917C404.067 242.41 403.656 242 403.15 242C402.644 242 402.233 242.41 402.233 242.917C402.233 243.423 402.644 243.833 403.15 243.833Z" fill="white"/>
<path d="M405.747 251.41H404.219V245.055H401.928C401.725 245.055 401.531 245.138 401.388 245.287C401.244 245.436 401.164 245.638 401.164 245.849C401.164 246.06 401.244 246.262 401.388 246.411C401.531 246.56 401.725 246.644 401.928 246.644H402.692V251.41H401.164C400.961 251.41 400.767 251.494 400.624 251.643C400.48 251.792 400.4 251.994 400.4 252.205C400.4 252.415 400.48 252.617 400.624 252.766C400.767 252.915 400.961 252.999 401.164 252.999H405.747C405.95 252.999 406.144 252.915 406.287 252.766C406.431 252.617 406.511 252.415 406.511 252.205C406.511 251.994 406.431 251.792 406.287 251.643C406.144 251.494 405.95 251.41 405.747 251.41Z" fill="white"/>
<path d="M403.025 238C401.121 238 399.26 238.564 397.678 239.622C396.095 240.68 394.861 242.183 394.133 243.942C393.404 245.7 393.213 247.636 393.585 249.503C393.956 251.37 394.873 253.085 396.219 254.431C397.565 255.777 399.28 256.694 401.147 257.065C403.014 257.436 404.949 257.246 406.708 256.517C408.467 255.789 409.97 254.555 411.028 252.972C412.085 251.39 412.65 249.529 412.65 247.625C412.65 245.072 411.636 242.624 409.831 240.819C408.026 239.014 405.578 238 403.025 238ZM403.025 255.646C401.439 255.646 399.888 255.175 398.569 254.294C397.25 253.413 396.222 252.16 395.615 250.694C395.008 249.229 394.849 247.616 395.158 246.06C395.468 244.504 396.232 243.075 397.353 241.953C398.475 240.832 399.904 240.068 401.46 239.758C403.016 239.449 404.629 239.608 406.094 240.215C407.56 240.822 408.813 241.85 409.694 243.169C410.575 244.488 411.046 246.039 411.046 247.625C411.046 248.678 410.838 249.721 410.435 250.694C410.032 251.668 409.441 252.552 408.696 253.297C407.952 254.041 407.067 254.632 406.094 255.035C405.121 255.438 404.078 255.646 403.025 255.646Z" fill="white"/>
<path d="M438.213 250.75C437.698 250.753 437.191 250.871 436.728 251.096C436.265 251.321 435.859 251.647 435.538 252.05L430.513 248.908C430.696 248.317 430.696 247.684 430.513 247.093L435.538 243.951C436.049 244.582 436.766 245.013 437.563 245.167C438.36 245.32 439.186 245.186 439.894 244.789C440.602 244.392 441.147 243.757 441.432 242.997C441.717 242.237 441.723 241.4 441.45 240.636C441.177 239.871 440.643 239.228 439.941 238.819C439.239 238.411 438.415 238.265 437.616 238.406C436.816 238.547 436.092 238.966 435.572 239.59C435.053 240.213 434.77 241.001 434.775 241.813C434.779 242.12 434.825 242.426 434.913 242.72L429.887 245.862C429.443 245.303 428.837 244.897 428.152 244.698C427.467 244.5 426.737 244.52 426.063 244.754C425.39 244.989 424.806 245.428 424.393 246.01C423.98 246.591 423.758 247.287 423.758 248C423.758 248.713 423.98 249.409 424.393 249.991C424.806 250.572 425.39 251.011 426.063 251.246C426.737 251.481 427.467 251.5 428.152 251.302C428.837 251.103 429.443 250.697 429.887 250.138L434.913 253.28C434.825 253.575 434.779 253.88 434.775 254.188C434.775 254.868 434.977 255.532 435.355 256.097C435.732 256.663 436.269 257.103 436.897 257.363C437.525 257.624 438.217 257.692 438.883 257.559C439.55 257.426 440.163 257.099 440.643 256.618C441.124 256.138 441.452 255.525 441.584 254.858C441.717 254.191 441.649 253.5 441.389 252.872C441.128 252.244 440.688 251.707 440.123 251.329C439.557 250.952 438.893 250.75 438.213 250.75ZM438.213 239.75C438.621 239.75 439.019 239.871 439.359 240.098C439.698 240.324 439.962 240.646 440.118 241.023C440.274 241.4 440.315 241.815 440.236 242.215C440.156 242.615 439.96 242.983 439.671 243.271C439.383 243.559 439.015 243.756 438.615 243.836C438.215 243.915 437.8 243.874 437.424 243.718C437.047 243.562 436.725 243.298 436.498 242.959C436.271 242.619 436.15 242.221 436.15 241.813C436.15 241.266 436.368 240.741 436.754 240.354C437.141 239.967 437.666 239.75 438.213 239.75ZM427.213 250.063C426.805 250.063 426.406 249.942 426.067 249.715C425.728 249.488 425.463 249.166 425.307 248.789C425.151 248.413 425.11 247.998 425.19 247.598C425.27 247.198 425.466 246.83 425.754 246.542C426.043 246.253 426.41 246.057 426.81 245.977C427.211 245.898 427.625 245.939 428.002 246.095C428.379 246.251 428.701 246.515 428.928 246.854C429.154 247.193 429.275 247.592 429.275 248C429.275 248.547 429.058 249.072 428.671 249.459C428.284 249.845 427.76 250.063 427.213 250.063ZM438.213 256.25C437.805 256.25 437.406 256.129 437.067 255.903C436.728 255.676 436.463 255.354 436.307 254.977C436.151 254.6 436.11 254.185 436.19 253.785C436.27 253.385 436.466 253.018 436.754 252.729C437.043 252.441 437.41 252.244 437.81 252.165C438.211 252.085 438.625 252.126 439.002 252.282C439.379 252.438 439.701 252.703 439.928 253.042C440.154 253.381 440.275 253.78 440.275 254.188C440.275 254.735 440.058 255.259 439.671 255.646C439.284 256.033 438.76 256.25 438.213 256.25Z" fill="white"/>
<path d="M469.816 238.834H458.147C457.503 238.834 456.88 239.06 456.386 239.472C455.892 239.884 455.558 240.456 455.442 241.089L454.278 247.506C454.206 247.902 454.221 248.31 454.324 248.699C454.426 249.089 454.613 249.452 454.871 249.761C455.129 250.071 455.452 250.32 455.817 250.491C456.181 250.662 456.579 250.751 456.982 250.751H461.162L460.649 252.061C460.436 252.635 460.365 253.253 460.442 253.86C460.519 254.468 460.743 255.047 461.094 255.549C461.444 256.051 461.911 256.461 462.455 256.743C462.999 257.024 463.603 257.17 464.215 257.167C464.391 257.167 464.564 257.116 464.712 257.02C464.86 256.924 464.977 256.787 465.049 256.626L467.662 250.751H469.816C470.545 250.751 471.245 250.461 471.76 249.945C472.276 249.429 472.566 248.73 472.566 248.001V241.584C472.566 240.855 472.276 240.155 471.76 239.639C471.245 239.124 470.545 238.834 469.816 238.834ZM466.149 249.641L463.656 255.251C463.401 255.174 463.164 255.046 462.961 254.874C462.757 254.701 462.591 254.49 462.472 254.251C462.354 254.012 462.285 253.752 462.271 253.485C462.257 253.219 462.298 252.953 462.391 252.703L462.877 251.392C462.98 251.115 463.015 250.817 462.979 250.524C462.942 250.23 462.835 249.95 462.666 249.707C462.498 249.464 462.273 249.265 462.011 249.127C461.75 248.99 461.458 248.918 461.162 248.917H456.982C456.848 248.918 456.715 248.888 456.593 248.831C456.471 248.774 456.363 248.691 456.277 248.587C456.188 248.485 456.124 248.365 456.087 248.235C456.051 248.105 456.043 247.969 456.066 247.836L457.23 241.419C457.269 241.205 457.383 241.013 457.55 240.875C457.718 240.737 457.93 240.664 458.147 240.667H466.149V249.641ZM470.732 248.001C470.732 248.244 470.636 248.477 470.464 248.649C470.292 248.821 470.059 248.917 469.816 248.917H467.982V240.667H469.816C470.059 240.667 470.292 240.764 470.464 240.936C470.636 241.108 470.732 241.341 470.732 241.584V248.001Z" fill="white"/>
</g>
<path d="M247 117C251.747 117 256.387 118.408 260.334 121.045C264.28 123.682 267.357 127.43 269.173 131.816C270.99 136.201 271.465 141.027 270.539 145.682C269.613 150.338 267.327 154.614 263.971 157.971C260.614 161.327 256.338 163.613 251.682 164.539C247.027 165.465 242.201 164.99 237.816 163.173C233.43 161.357 229.682 158.28 227.045 154.334C224.408 150.387 223 145.747 223 141C223 134.635 225.529 128.53 230.029 124.029C234.53 119.529 240.635 117 247 117ZM247 113C241.462 113 236.049 114.642 231.444 117.719C226.839 120.796 223.251 125.169 221.131 130.285C219.012 135.401 218.458 141.031 219.538 146.463C220.618 151.894 223.285 156.883 227.201 160.799C231.117 164.715 236.106 167.382 241.537 168.462C246.969 169.542 252.599 168.988 257.715 166.869C262.831 164.749 267.204 161.161 270.281 156.556C273.358 151.951 275 146.538 275 141C275 133.574 272.05 126.452 266.799 121.201C261.548 115.95 254.426 113 247 113Z" fill="white" fill-opacity="0.6"/>
<path d="M239 155C238.641 155 238.289 154.903 237.98 154.72C237.681 154.543 237.434 154.291 237.262 153.989C237.09 153.688 237 153.347 237 153V129C237 128.653 237.09 128.311 237.262 128.01C237.434 127.708 237.681 127.457 237.98 127.28C238.284 127.104 238.629 127.012 238.98 127.012C239.331 127.012 239.676 127.104 239.98 127.28L261.98 139.28C262.298 139.451 262.563 139.705 262.748 140.015C262.932 140.325 263.03 140.679 263.03 141.04C263.03 141.4 262.932 141.755 262.748 142.064C262.563 142.374 262.298 142.628 261.98 142.8L239.98 154.8C239.676 154.948 239.338 155.017 239 155ZM241 132.36V149.64L256.82 141L241 132.36Z" fill="white" fill-opacity="0.6"/>
<path d="M20 31C20 24.9249 24.9249 20 31 20H53C59.0751 20 64 24.9249 64 31C64 37.0751 59.0751 42 53 42H31C24.9249 42 20 37.0751 20 31Z" fill="white" fill-opacity="0.8"/>
<path fill-rule="evenodd" clip-rule="evenodd" d="M27 27.7191V36H28.3736C28.4165 36 28.5195 35.9753 28.5882 35.8764V33.2397C30.1335 34.3109 32.8807 33.7753 32.8807 30.5206C32.8807 27.5131 30.2193 26.8127 28.4165 28.2135C28.4022 28.0762 28.3221 27.785 28.116 27.7191H27ZM30.6915 29.1199C29.9704 28.4936 28.9888 28.8589 28.5882 29.1199V32.0861C29.6871 32.8112 30.4483 32.3883 30.6915 32.0861C31.0006 31.9543 31.0778 30.9875 31.0778 30.5206C31.1122 29.7955 30.8346 29.2846 30.6915 29.1199Z" fill="#00A8E1"/>
<path d="M34.0396 33.4457V27.8839C34.0396 27.829 34.074 27.7109 34.2113 27.6779H35.2844C35.3417 27.6367 35.499 27.7356 35.6707 28.4607C35.6851 28.5019 35.7308 28.5678 35.7995 28.5019C35.8854 28.4195 36.7009 27.5543 37.5594 27.6367C37.9028 27.6367 37.9887 27.774 37.9887 27.8427V28.9963C37.9744 29.0649 37.9114 29.2022 37.774 29.2022C36.5722 29.1363 35.9569 29.3396 35.7995 29.4494V33.4457C35.7995 33.4869 35.7738 33.5775 35.6707 33.6105H34.1684C34.1255 33.6105 34.0396 33.5775 34.0396 33.4457Z" fill="#00A8E1"/>
<path d="M39.0189 27.6779H40.3066C40.3781 27.6916 40.5212 27.7521 40.5212 27.8839V33.4457C40.5069 33.4869 40.4525 33.5775 40.3495 33.6105H38.9759C38.9187 33.5968 38.7956 33.5446 38.7613 33.4457L38.8042 27.8839C38.8042 27.829 38.8472 27.7109 39.0189 27.6779Z" fill="#00A8E1"/>
<path d="M39.3622 26.7303C39.491 26.7441 39.7915 26.7633 39.9632 26.7303C40.1349 26.6974 40.3209 26.5793 40.3924 26.5243C40.5641 26.3596 40.65 26.1124 40.65 25.8652C40.65 25.5356 40.5641 25.412 40.4354 25.2472C40.3495 25.1785 40.1778 25 39.9632 25H39.3622C39.2049 25.0412 38.8643 25.1483 38.7613 25.412C38.6583 25.6757 38.6755 25.7553 38.6755 25.9064C38.6755 26.0574 38.7579 26.3563 38.933 26.5243C39.1081 26.6924 39.2907 26.7166 39.3622 26.7303Z" fill="#00A8E1"/>
<path d="M43.6547 28.2547C43.6118 28.0899 43.4916 27.7521 43.3542 27.7191C43.2169 27.6861 42.5244 27.7054 42.1953 27.7191C42.138 27.7191 42.0236 27.7521 42.0236 27.8839V33.4457C42.0379 33.4869 42.0922 33.5775 42.1953 33.6105C42.2983 33.6434 43.1539 33.6242 43.5688 33.6105C43.6261 33.5968 43.7577 33.5446 43.8264 33.4457L43.7835 29.161C44.0267 29.0237 44.6248 28.7655 45.0712 28.8315C45.6292 28.8727 45.8009 29.1336 45.8438 29.2846L45.8868 33.4457C45.9011 33.5006 45.9554 33.6105 46.0585 33.6105H47.475C47.5179 33.5968 47.6123 33.5446 47.6467 33.4457V29.161C47.847 29.01 48.3764 28.7243 48.8915 28.7903C49.4066 28.8562 49.6212 29.1748 49.6641 29.3258V33.3633C49.6641 33.432 49.6985 33.5775 49.8358 33.6105H51.3382C51.3811 33.583 51.467 33.4951 51.467 33.3633V29.0787C51.4383 28.5705 51.0549 27.5461 49.75 27.5131C48.4451 27.4801 47.661 27.9938 47.4321 28.2547C47.2747 28.0075 46.7453 27.5131 45.8868 27.5131C45.0283 27.5131 44.041 28.0075 43.6547 28.2547Z" fill="#00A8E1"/>
<path fill-rule="evenodd" clip-rule="evenodd" d="M54.1283 31.0974C54.071 31.8252 54.6605 33.0831 57.4764 32.2921C57.6481 32.2262 57.691 32.4569 57.691 32.5805V33.1985C57.5336 33.4045 56.9098 33.8165 55.6735 33.8165C53.2698 33.8165 52.583 32.2235 52.5401 31.427C52.3827 30.7678 52.3598 29.194 53.5273 28.1723C55.1756 26.9858 56.8182 27.6779 57.4335 28.1723C57.8198 28.5156 58.395 29.4494 57.6052 30.4382C56.8153 31.427 54.9581 31.2896 54.1283 31.0974ZM55.4589 28.7079C54.3944 28.7079 54.1283 29.6417 54.1283 30.1086C54.4574 30.1498 55.21 30.224 55.5877 30.191C55.9654 30.1581 56.203 29.9301 56.2745 29.8202C56.4462 29.4494 56.5235 28.7079 55.4589 28.7079Z" fill="#00A8E1"/>
<path fill-rule="evenodd" clip-rule="evenodd" d="M27 27.7191V36H28.3736C28.4165 36 28.5195 35.9753 28.5882 35.8764V33.2397C30.1335 34.3109 32.8807 33.7753 32.8807 30.5206C32.8807 27.5131 30.2193 26.8127 28.4165 28.2135C28.4022 28.0762 28.3221 27.785 28.116 27.7191H27ZM30.6915 29.1199C29.9704 28.4936 28.9888 28.8589 28.5882 29.1199V32.0861C29.6871 32.8112 30.4483 32.3883 30.6915 32.0861C31.0006 31.9543 31.0778 30.9875 31.0778 30.5206C31.1122 29.7955 30.8346 29.2846 30.6915 29.1199Z" fill="#00A8E1"/>
<defs>
<linearGradient id="paint0_linear" x1="92.75" y1="81.1765" x2="52.8637" y2="38.8258" gradientUnits="userSpaceOnUse">
<stop stop-color="#1B1B1B"/>
<stop offset="1" stop-color="#1B1B1B" stop-opacity="0"/>
</linearGradient>
<linearGradient id="paint1_linear" x1="16.9914" y1="224.27" x2="184.124" y2="224.938" gradientUnits="userSpaceOnUse">
<stop stop-opacity="0"/>
<stop stop-opacity="0"/>
<stop offset="1"/>
</linearGradient>
<clipPath id="clip0">
<rect width="219" height="494" fill="white" transform="translate(494 64) rotate(90)"/>
</clipPath>
<clipPath id="clip1">
<rect width="60.0157" height="15.1496" fill="white" transform="translate(25.9922 139.33)"/>
</clipPath>
<clipPath id="clip2">
<rect width="67" height="16" fill="white" transform="translate(76 242.811)"/>
</clipPath>
</defs>
</svg>
